<svg id="Layer_1" data-name="Layer 1" xmlns="http://www.w3.org/2000/svg" viewBox="0 0 106.4 122.88"><defs><style>.cls-1{fill-rule:evenodd;}</style></defs><title>smtp-server</title><path class="cls-1" d="M0,111.64v-8.41H22.1a15.34,15.34,0,0,1,3.83-6.39A15.15,15.15,0,0,1,32.51,93V89.12H14a2.87,2.87,0,0,1-2.84-2.84V2.84A2.87,2.87,0,0,1,14,0H64.38a2.79,2.79,0,0,1,2,.84,2.85,2.85,0,0,1,.79,1.49c0,.16,0,.34,0,.51V48.05H58.54A9.92,9.92,0,0,0,48.63,58l0,30.6h0c0,.18,0,.36,0,.54H40.92V93a15.15,15.15,0,0,1,6.58,3.88,15.34,15.34,0,0,1,3.83,6.39h53.15v8.41h-53a15.26,15.26,0,0,1-29.44,0ZM59.23,55.18h44a3.22,3.22,0,0,1,3.22,3.22l0,28.14a3.17,3.17,0,0,1-3.22,3.22H59.2A3.22,3.22,0,0,1,56,86.54L56,58.4a3.22,3.22,0,0,1,3.22-3.22Zm-.32,29.3L73.37,71,58.94,60.15l0,24.33ZM75.67,72.81l-15,14h40.85l-14.27-14-4.75,4.05a1.48,1.48,0,0,1-1.87,0l-5-4.08Zm13.86-1.87,13.92,13.64,0-24.54L89.53,70.94ZM61.06,58.11,81.57,73.86l19.65-15.75ZM42.24,65.63a8.46,8.46,0,1,1-8.45-8.46,8.45,8.45,0,0,1,8.45,8.46Zm14.44-51v7.11h-35V14.58Zm0,19.66v7.11h-35V34.24ZM41.55,102.79a6.82,6.82,0,1,0,2,4.83,6.82,6.82,0,0,0-2-4.83Z"/></svg>