<?xml version="1.0" encoding="utf-8"?>
<!-- Generator: Adobe Illustrator 23.0.3, SVG Export Plug-In . SVG Version: 6.00 Build 0)  -->
<svg version="1.1" id="Layer_1" xmlns="http://www.w3.org/2000/svg" xmlns:xlink="http://www.w3.org/1999/xlink" x="0px" y="0px"
	 viewBox="0 0 36 36" style="enable-background:new 0 0 36 36;" xml:space="preserve">
<style type="text/css">
	.st0{fill:#2B2B2B;}
</style>
<g>
	<path class="st0" d="M18.4,7.4c0.2,0,0.4,0.1,0.6,0.2c0.4,0.2,0.5,0.5,0.5,0.9v2.3h1.2c0.2,0,0.4,0.1,0.5,0.2
		c0.4,0.2,0.6,0.5,0.6,0.9V13h2.3c0.2,0,0.4,0,0.5,0.1c0.4,0.2,0.6,0.5,0.6,1v1.1h2.3c0.1,0,0.2,0,0.4,0.1c0.3,0.1,0.5,0.2,0.6,0.5
		c0.1,0.5,0.2,1.1,0.2,1.7c0,1.8-0.5,3.5-1.4,5.1s-2.1,2.8-3.7,3.7s-3.2,1.4-5.1,1.4s-3.5-0.5-5.1-1.4s-2.8-2.1-3.7-3.7
		s-1.4-3.2-1.4-5.1c0-1.8,0.5-3.5,1.4-5.1c0.9-1.5,2.1-2.8,3.7-3.7C14.9,7.9,16.6,7.4,18.4,7.4z M11,15.8c-0.3,0.3-0.5,0.7-0.5,1.2
		s0.2,0.9,0.5,1.2s0.7,0.5,1.2,0.5s0.9-0.2,1.2-0.5s0.5-0.7,0.5-1.2s-0.2-0.9-0.5-1.2c-0.3-0.3-0.7-0.5-1.2-0.5
		C11.8,15.3,11.4,15.4,11,15.8z M14.4,11.3c-0.3,0.3-0.5,0.7-0.5,1.2c0,0.5,0.2,0.9,0.5,1.2c0.3,0.3,0.7,0.5,1.2,0.5
		s0.9-0.2,1.2-0.5c0.3-0.3,0.5-0.7,0.5-1.2c0-0.5-0.2-0.9-0.5-1.2c-0.3-0.3-0.7-0.5-1.2-0.5C15.1,10.8,14.7,10.9,14.4,11.3z
		 M16.1,22.5c-0.3,0.3-0.5,0.7-0.5,1.2s0.2,0.9,0.5,1.2s0.7,0.5,1.2,0.5s0.9-0.2,1.2-0.5s0.5-0.7,0.5-1.2s-0.2-0.9-0.5-1.2
		S17.8,22,17.3,22C16.8,22,16.4,22.2,16.1,22.5z M16.7,16.9c-0.3,0.3-0.5,0.7-0.5,1.2s0.2,0.9,0.5,1.2c0.3,0.3,0.7,0.5,1.2,0.5
		s0.9-0.2,1.2-0.5c0.3-0.3,0.5-0.7,0.5-1.2s-0.2-0.9-0.5-1.2s-0.7-0.5-1.2-0.5C17.4,16.4,17,16.6,16.7,16.9z M22.3,19.1
		c-0.3,0.3-0.5,0.7-0.5,1.2c0,0.5,0.2,0.9,0.5,1.2S23,22,23.5,22s0.9-0.2,1.2-0.5s0.5-0.7,0.5-1.2s-0.2-0.9-0.5-1.2
		c-0.3-0.3-0.7-0.5-1.2-0.5S22.6,18.8,22.3,19.1z"/>
</g>
</svg>
