<?xml version="1.0" encoding="utf-8"?>
<!-- Generator: Adobe Illustrator 25.4.1, SVG Export Plug-In . SVG Version: 6.00 Build 0)  -->
<svg version="1.1" id="Layer_1" xmlns="http://www.w3.org/2000/svg" xmlns:xlink="http://www.w3.org/1999/xlink" x="0px" y="0px"
	 viewBox="0 0 24 24" style="enable-background:new 0 0 24 24;" xml:space="preserve">
<style type="text/css">
	.st0{fill:none;stroke:#292D32;stroke-miterlimit:10;}
</style>
<g>
	<g>
		<path class="st0" d="M12,1.9c0.2,0,0.4,0.1,0.6,0.2c0.4,0.2,0.5,0.5,0.5,0.9v2.3h1.2c0.2,0,0.4,0.1,0.5,0.2
			c0.4,0.2,0.6,0.5,0.6,0.9v1.2h2.3c0.2,0,0.4,0,0.5,0.1c0.4,0.2,0.6,0.5,0.6,1v1.1H21c0.1,0,0.2,0,0.4,0.1c0.3,0.1,0.5,0.2,0.6,0.5
			c0.1,0.5,0.2,1.1,0.2,1.7c0,1.8-0.5,3.5-1.4,5.1c-0.9,1.5-2.1,2.8-3.7,3.7c-1.5,0.9-3.2,1.4-5.1,1.4s-3.5-0.5-5.1-1.4
			c-1.5-0.9-2.8-2.1-3.7-3.7c-0.9-1.5-1.4-3.2-1.4-5.1c0-1.8,0.5-3.5,1.4-5.1c0.9-1.5,2.1-2.8,3.7-3.7C8.5,2.3,10.2,1.9,12,1.9z
			 M4.6,10.2c-0.3,0.3-0.5,0.7-0.5,1.2s0.2,0.9,0.5,1.2s0.7,0.5,1.2,0.5s0.9-0.2,1.2-0.5s0.5-0.7,0.5-1.2S7.4,10.6,7,10.2
			C6.7,9.9,6.3,9.7,5.8,9.7C5.3,9.7,4.9,9.9,4.6,10.2z M8,5.8C7.7,6.1,7.5,6.5,7.5,6.9c0,0.5,0.2,0.9,0.5,1.2
			c0.3,0.3,0.7,0.5,1.2,0.5s0.9-0.2,1.2-0.5c0.3-0.3,0.5-0.7,0.5-1.2c0-0.5-0.2-0.9-0.5-1.2c-0.3-0.3-0.7-0.5-1.2-0.5
			C8.7,5.2,8.3,5.4,8,5.8z M9.7,17c-0.3,0.3-0.5,0.7-0.5,1.2s0.2,0.9,0.5,1.2s0.7,0.5,1.2,0.5s0.9-0.2,1.2-0.5s0.5-0.7,0.5-1.2
			s-0.2-0.9-0.5-1.2c-0.3-0.3-0.7-0.5-1.2-0.5C10.4,16.5,10,16.6,9.7,17z M10.2,11.4c-0.3,0.3-0.5,0.7-0.5,1.2s0.2,0.9,0.5,1.2
			c0.3,0.3,0.7,0.5,1.2,0.5s0.9-0.2,1.2-0.5c0.3-0.3,0.5-0.7,0.5-1.2s-0.2-0.9-0.5-1.2s-0.7-0.5-1.2-0.5
			C11,10.9,10.6,11.1,10.2,11.4z M15.9,13.6c-0.3,0.3-0.5,0.7-0.5,1.2c0,0.5,0.2,0.9,0.5,1.2s0.7,0.5,1.2,0.5s0.9-0.2,1.2-0.5
			s0.5-0.7,0.5-1.2s-0.2-0.9-0.5-1.2c-0.3-0.3-0.7-0.5-1.2-0.5S16.2,13.3,15.9,13.6z"/>
	</g>
</g>
</svg>
