<?xml version="1.0" encoding="utf-8"?>
<!-- Generator: Adobe Illustrator 25.4.1, SVG Export Plug-In . SVG Version: 6.00 Build 0)  -->
<svg version="1.1" id="Layer_1" xmlns="http://www.w3.org/2000/svg" xmlns:xlink="http://www.w3.org/1999/xlink" x="0px" y="0px"
	 viewBox="0 0 24 24" style="enable-background:new 0 0 24 24;" xml:space="preserve">
<style type="text/css">
	.st0{fill:none;stroke:#2B2B2B;stroke-width:1.25;stroke-miterlimit:10;}
</style>
<path class="st0" d="M11.9,1.9c0.2,0,0.4,0.1,0.6,0.2C12.9,2.3,13,2.6,13,3v2.3h1.2c0.2,0,0.4,0.1,0.5,0.2c0.4,0.2,0.6,0.5,0.6,0.9
	v1.2h2.3c0.2,0,0.4,0,0.5,0.1c0.4,0.2,0.6,0.5,0.6,1v1.1h2.2c0.1,0,0.2,0,0.4,0.1c0.3,0.1,0.5,0.2,0.6,0.5c0.1,0.5,0.2,1.1,0.2,1.7
	c0,1.8-0.5,3.5-1.4,5.1c-0.9,1.5-2.1,2.8-3.7,3.7c-1.5,0.9-3.2,1.4-5.1,1.4s-3.5-0.5-5.1-1.4c-1.5-0.9-2.8-2.1-3.7-3.7
	c-0.9-1.5-1.4-3.2-1.4-5.1c0-1.8,0.5-3.5,1.4-5.1c0.9-1.5,2.1-2.8,3.7-3.7C8.4,2.3,10.1,1.9,11.9,1.9z M4.6,10.1
	c-0.3,0.3-0.5,0.7-0.5,1.2s0.2,0.9,0.5,1.2S5.3,13,5.8,13s0.9-0.2,1.2-0.5c0.3-0.3,0.5-0.7,0.5-1.2s-0.1-0.8-0.5-1.2
	C6.7,9.8,6.3,9.6,5.8,9.6S4.9,9.8,4.6,10.1z M7.9,5.8C7.6,6.1,7.4,6.4,7.4,6.8c0,0.5,0.2,0.9,0.5,1.2c0.3,0.3,0.7,0.5,1.2,0.5
	S10,8.3,10.3,8c0.3-0.3,0.5-0.7,0.5-1.2S10.6,6,10.3,5.7C10,5.4,9.6,5.2,9.1,5.2C8.6,5.2,8.2,5.4,7.9,5.8z M9.6,16.9
	c-0.3,0.3-0.5,0.7-0.5,1.2s0.2,0.9,0.5,1.2c0.3,0.3,0.7,0.5,1.2,0.5s0.9-0.2,1.2-0.5c0.3-0.3,0.5-0.7,0.5-1.2s-0.2-0.9-0.5-1.2
	c-0.3-0.3-0.7-0.5-1.2-0.5S9.9,16.5,9.6,16.9z M10.1,11.3c-0.3,0.3-0.5,0.7-0.5,1.2s0.2,0.9,0.5,1.2c0.3,0.3,0.7,0.5,1.2,0.5
	s0.9-0.2,1.2-0.5S13,13,13,12.5s-0.2-0.9-0.5-1.2c-0.3-0.3-0.7-0.5-1.2-0.5C10.9,10.8,10.5,11,10.1,11.3z M15.8,13.5
	c-0.3,0.3-0.5,0.7-0.5,1.2s0.2,0.9,0.5,1.2c0.3,0.3,0.7,0.5,1.2,0.5s0.9-0.2,1.2-0.5c0.3-0.3,0.5-0.7,0.5-1.2s-0.2-0.9-0.5-1.2
	C17.9,13.2,17.5,13,17,13S16.1,13.2,15.8,13.5z"/>
</svg>
