<?xml version="1.0" encoding="utf-8"?>
<!-- Generator: Adobe Illustrator 25.2.1, SVG Export Plug-In . SVG Version: 6.00 Build 0)  -->
<svg version="1.1" xmlns="http://www.w3.org/2000/svg" xmlns:xlink="http://www.w3.org/1999/xlink" x="0px" y="0px"
	 viewBox="0 0 24 24" style="enable-background:new 0 0 24 24;" xml:space="preserve">
<style type="text/css">
	.st0{fill:#2B2B2B;}
</style>
<g id="Layer_1">
</g>
<g id="Layer_2">
</g>
<g id="Layer_3">
</g>
<g id="Layer_5">
</g>
<g id="Layer_4">
</g>
<g id="Layer_7">
</g>
<g id="Layer_8">
</g>
<g id="Layer_11">
</g>
<g id="Layer_9">
</g>
<g id="Layer_10">
	<path d="M22.6,12.5c-1.2-0.3-2-1.5-1.9-2.7c-0.2,0-0.4,0-0.5-0.1c-1.4-0.4-2.2-1.8-1.8-3.2c0-0.1,0.1-0.3,0.2-0.4
		c-1.1-0.5-1.7-1.8-1.4-3c0.1-0.2,0.1-0.4,0.2-0.6c-0.7-0.4-1.5-0.7-2.4-0.9C9.2,0.1,3.3,3.5,1.8,9.2C0.3,15,3.7,20.8,9.4,22.4
		c5.7,1.5,11.6-1.9,13.2-7.6c0.2-0.7,0.3-1.5,0.3-2.2C22.8,12.5,22.7,12.5,22.6,12.5z M21.1,14.3c-1.3,4.9-6.3,7.8-11.2,6.5
		S2,14.5,3.3,9.6c1.3-4.9,6.3-7.8,11.2-6.5c0.7,0.2,1.4,0.5,2,0.8c-0.1,0.1-0.1,0.3-0.2,0.5c-0.3,1,0.2,2.1,1.2,2.6
		c-0.1,0.1-0.1,0.2-0.1,0.4C17.1,8.5,17.8,9.7,19,10c0.2,0,0.3,0.1,0.5,0.1c-0.1,1.1,0.6,2,1.6,2.3c0.1,0,0.2,0,0.3,0.1
		C21.3,13.1,21.2,13.7,21.1,14.3z"/>
	<path d="M7.1,7.8C6,7.8,5.1,8.7,5.1,9.8c0,1.1,0.9,1.9,1.9,1.9S9,10.8,9,9.8C9,8.7,8.1,7.8,7.1,7.8z M7.1,11
		c-0.7,0-1.3-0.6-1.3-1.3c0-0.7,0.6-1.3,1.3-1.3s1.3,0.6,1.3,1.3C8.3,10.5,7.8,11,7.1,11z"/>
	<path d="M8.8,13.7c-1.1,0-1.9,0.9-1.9,1.9c0,1.1,0.9,1.9,1.9,1.9s1.9-0.9,1.9-1.9C10.7,14.6,9.8,13.7,8.8,13.7z
		 M8.8,17c-0.7,0-1.3-0.6-1.3-1.3c0-0.7,0.6-1.3,1.3-1.3c0.7,0,1.3,0.6,1.3,1.3C10,16.4,9.5,17,8.8,17z"/>
	<path d="M12.9,10.2c-1.1,0-1.9,0.9-1.9,1.9c0,1.1,0.9,1.9,1.9,1.9s1.9-0.9,1.9-1.9C14.8,11.1,14,10.2,12.9,10.2z
		 M12.9,13.4c-0.7,0-1.3-0.6-1.3-1.3c0-0.7,0.6-1.3,1.3-1.3c0.7,0,1.3,0.6,1.3,1.3C14.2,12.9,13.6,13.4,12.9,13.4z"/>
	<path d="M15.9,14.8c-1.1,0-2,0.8-2,1.9c0,1.1,0.8,2,1.9,2c1.1,0,2-0.8,2-1.9C17.8,15.7,17,14.8,15.9,14.8z M15.8,18
		c-0.7,0-1.3-0.6-1.2-1.3c0-0.7,0.6-1.3,1.3-1.2c0.7,0,1.3,0.6,1.2,1.3C17.1,17.4,16.5,18,15.8,18z"/>
	<path d="M12.5,4.5c-1.1,0-1.9,0.9-1.9,1.9c0,1.1,0.9,1.9,1.9,1.9s1.9-0.9,1.9-1.9C14.4,5.3,13.6,4.5,12.5,4.5z
		 M12.5,7.7c-0.7,0-1.3-0.6-1.3-1.3s0.6-1.3,1.3-1.3c0.7,0,1.3,0.6,1.3,1.3S13.2,7.7,12.5,7.7z"/>
</g>
<g id="Layer_6">
</g>
</svg>
