<?xml version="1.0" encoding="utf-8"?>
<!-- Generator: Adobe Illustrator 23.0.3, SVG Export Plug-In . SVG Version: 6.00 Build 0)  -->
<svg version="1.1" id="Layer_1" xmlns="http://www.w3.org/2000/svg" xmlns:xlink="http://www.w3.org/1999/xlink" x="0px" y="0px"
	 viewBox="0 0 36 36" style="enable-background:new 0 0 36 36;" xml:space="preserve">
<style type="text/css">
	.st0{display:none;}
	.st1{display:inline;fill:#2B2B2B;}
	.st2{display:inline;}
	.st3{fill:#2B2B2B;}
</style>
<g class="st0">
	<path class="st1" d="M11,11.3L22.2,0.1v35.8L11,24.8H2V11.5h9V11.3z M30.9,23.4c-1,1.6-2.4,2.8-4.2,3.6V9.1c1.8,0.8,3.2,2,4.2,3.6
		s1.6,3.4,1.6,5.4C32.3,20,31.9,21.8,30.9,23.4z"/>
</g>
<g class="st0">
	<path class="st1" d="M33.6,29.1v1.8H2.8v-1.8l3.4-3.4V15.4c0-2.7,0.8-5.1,2.4-7.2s3.6-3.5,6.1-4.3V3.4c0-0.9,0.3-1.7,1-2.4
		c0.7-0.7,1.5-1,2.4-1s1.8,0.3,2.4,1c0.7,0.7,1,1.5,1,2.4V4c2.5,0.7,4.6,2.2,6.1,4.3c1.6,2.1,2.4,4.5,2.4,7.2v10.3L33.6,29.1z
		 M21.6,32.5c0,1-0.3,1.8-1,2.4c-0.7,0.7-1.5,1-2.4,1s-1.8-0.3-2.4-1c-0.7-0.7-1-1.5-1-2.4H21.6z"/>
</g>
<g class="st0">
	<path class="st1" d="M25.2,31.3H0.1v-3.5L0.2,27c0.1-0.6,0.3-1.2,0.7-1.8C1.4,24.4,2,23.6,2.8,23c1-0.7,2.2-1.3,3.7-1.8
		c1.7-0.5,3.8-0.8,6.1-0.8c3.7,0,6.6,0.6,8.8,1.8c1.6,0.9,2.7,2.1,3.3,3.5c0.3,0.7,0.4,1.3,0.4,1.8v3.8H25.2z M18.9,10.7
		c0-1.3-0.4-2.5-1.1-3.5S16.1,5.4,15,4.9s-2.4-0.6-3.6-0.4S9.1,5.3,8.2,6.2s-1.5,2-1.7,3.2S6.4,11.9,6.9,13s1.3,2.1,2.3,2.8
		s2.2,1.1,3.5,1.1c1.7,0,3.2-0.6,4.5-1.8C18.3,13.9,18.9,12.4,18.9,10.7z M23.4,4.4c-1.3,0-2.4,0.4-3.4,1.1c1.1,1.6,1.7,3.3,1.7,5.2
		s-0.6,3.6-1.7,5.2c1,0.7,2.2,1.1,3.4,1.1c1.7,0,3.2-0.6,4.5-1.8c1.2-1.2,1.8-2.7,1.8-4.5c0-1.7-0.6-3.2-1.8-4.5
		C26.6,5,25.1,4.4,23.4,4.4z M25.1,20.5c1.1,0.9,2,2,2.6,3.2c0.6,1.3,1,2.6,1.1,4v3.5h7.1v-3.5L35.8,27c-0.1-0.6-0.3-1.1-0.6-1.7
		c-0.4-0.8-1-1.5-1.7-2c-0.8-0.8-1.9-1.4-3.2-1.8C28.9,21,27.1,20.7,25.1,20.5z"/>
</g>
<g class="st0">
	<path class="st1" d="M34.9,4.7C35.6,5.4,36,6.3,36,7.3v21.5c0,1-0.4,1.9-1.1,2.6c-0.7,0.7-1.5,1.1-2.5,1.1H3.7
		c-1,0-1.8-0.3-2.5-1.1c-0.7-0.7-1.1-1.6-1.1-2.6V7.3c0-1,0.4-1.9,1.1-2.6s1.5-1,2.5-1h28.7C33.4,3.7,34.2,4,34.9,4.7z M32.4,7.3
		l-14.4,9l-14.4-9v3.6L18,19.8l14.4-8.9V7.3z"/>
</g>
<g class="st0">
	<path class="st1" d="M24.7,5.1h5.8v3.6l3.7,2.3c0.5,0.3,0.9,0.8,1.2,1.3s0.5,1.1,0.5,1.8v17.8c0,1-0.3,1.8-1,2.5s-1.5,1-2.5,1H3.7
		c-0.9,0-1.8-0.3-2.5-1s-1-1.5-1-2.5V14.1c0-0.7,0.2-1.3,0.5-1.8s0.7-1,1.2-1.3l3.7-2.3V5.1h5.8L18,1L24.7,5.1z M3.7,14.1l1.8,1.1
		v-2.3L3.7,14.1z M9.1,17.4l8.9,5.5l8.9-5.5V8.7H9.1V17.4z M25.1,10.5v2.7H10.9v-2.7H25.1z M25.1,14.9v2.7H10.9v-2.7
		C10.9,14.9,25.1,14.9,25.1,14.9z M30.4,15.2l1.8-1.1l-1.8-1.2C30.4,12.9,30.4,15.2,30.4,15.2z"/>
</g>
<g class="st0">
	<path class="st2" d="M34.7,4.6c0.7,0.7,1,1.5,1,2.5v21.3c0,1-0.3,1.8-1,2.5c-0.7,0.7-1.5,1-2.5,1H3.7c-0.9,0-1.8-0.3-2.5-1
		c-0.7-0.7-1-1.5-1-2.5V7.1c0-1,0.3-1.8,1-2.5c0.7-0.7,1.5-1,2.5-1h28.5C33.2,3.6,34,3.9,34.7,4.6z M32.3,7.1H3.7v21.3h28.5V7.1z
		 M16.2,24.9h-3.6v-3.5h7.1v-1.8h-5.3c-0.5,0-0.9-0.2-1.3-0.5c-0.3-0.3-0.5-0.8-0.5-1.3v-5.3c0-0.5,0.2-0.9,0.5-1.3
		c0.3-0.3,0.8-0.5,1.3-0.5h1.8V8.9h3.5v1.8h3.6v3.5h-7.1v1.8h5.3c0.5,0,0.9,0.2,1.3,0.5c0.3,0.3,0.5,0.8,0.5,1.3v5.3
		c0,0.5-0.2,0.9-0.5,1.3c-0.3,0.3-0.8,0.5-1.3,0.5h-1.8v1.8h-3.5V24.9z"/>
</g>
<g>
	<path class="st3" d="M3.1,20.7c0.2,0.6,0.8,0.9,1.4,0.7l6.3-2.1l4.7,0.9c0.1,0.9,0.3,1.7,0.7,2.3h-4.3c-0.3,0-0.6,0.1-0.8,0.3
		l-5.4,6.5c-0.3,0.3-0.4,0.7-0.4,0.9c0,0.2,0.1,0.6,0.3,0.8l4.4,4.4c0.4,0.4,1.1,0.4,1.6,0c0.4-0.4,0.4-1.1,0-1.6l-3.7-3.7l4.3-5.4
		h2.3c-3.9,2.9,0.2,11.1,4,11.1s7.9-8.2,4-11.1h2.2l4.3,5.4l-3.7,3.7c-0.4,0.4-0.4,1.1,0,1.6c0.4,0.4,1.1,0.4,1.6,0l4.4-4.4
		c0.2-0.2,0.3-0.4,0.3-0.8s-0.1-0.6-0.3-0.8l-5.4-6.5c-0.2-0.2-0.4-0.3-0.8-0.3h-4.3c0.2-0.7,0.4-1.6,0.7-2.3l4.7-0.9l6.3,2.1
		c0.6,0.2,1.2-0.1,1.4-0.7c0.2-0.6-0.1-1.2-0.7-1.4l-6.7-2.2C26.5,17,26.2,17,26,17l-4.2,0.9c0-0.3,0-0.7,0-1.1c0-0.1,0-0.2,0-0.3
		c5.8-2.1,6.8-5.1,6.7-7.2c0-0.7-0.6-1.1-1.2-1c-0.7,0-1.1,0.6-1,1.2c0.2,2.3-2.3,3.9-4.8,4.9c-0.1-0.2-0.1-0.4-0.2-0.7
		c2-0.4,1.9-2.4,1.2-4.4l3.4-3.5c0.4-0.4,0.4-1.1,0-1.6l-3.3-3.3c-0.4-0.4-1.1-0.4-1.6,0S20.6,2,21,2.4l2.6,2.4l-2.1,2.2
		c-0.8-1.3-1.9-2.2-3-2.2s-2.2,0.9-3,2.2l-2.1-2.2l2.6-2.6c0.4-0.4,0.4-1.1,0-1.6c-0.4-0.4-1.1-0.4-1.6,0L11,4.1
		c-0.4,0.4-0.4,1.1,0,1.6l3.4,3.5c-0.7,2-0.8,4,1.2,4.4c-0.1,0.2-0.1,0.4-0.2,0.7c-2.4-1-4.9-2.4-4.8-4.9c0-0.7-0.4-1.1-1-1.2
		c-0.7,0-1.2,0.4-1.2,1c-0.1,2.2,0.9,5.2,6.7,7.3c0,0.1,0,0.2,0,0.3c0,0.3,0,0.7,0,1.1L10.9,17c-0.2,0-0.3,0-0.6,0l-6.7,2.2
		C3.2,19.5,2.8,20.1,3.1,20.7z"/>
</g>
<g class="st0">
	<path class="st1" d="M16.4,23.4v3.3c-1.5-1-3.5-1.4-5.9-1.4c-1.5,0-2.8,0.2-4,0.6c-1,0.3-1.8,0.7-2.5,1.2c-0.5,0.5-0.8,0.8-0.8,1.2
		h13.1v2.9h-16v-2.9c0-1,0.5-2,1.4-2.9c0.9-0.9,2.1-1.6,3.7-2.1c1.6-0.5,3.3-0.8,5.1-0.8C12.6,22.4,14.6,22.7,16.4,23.4z M14.6,9.5
		c1.1,1.1,1.7,2.5,1.7,4.1c0,1.6-0.6,3-1.7,4.1c-1.1,1.1-2.5,1.7-4.1,1.7c-1.6,0-3-0.6-4.1-1.7c-1.1-1.1-1.7-2.5-1.7-4.1
		c0-1.6,0.6-3,1.7-4.1c1.1-1.1,2.5-1.7,4.1-1.7C12.1,7.8,13.5,8.3,14.6,9.5z M8.5,11.5c-0.6,0.6-0.9,1.3-0.9,2c0,0.8,0.3,1.5,0.9,2
		c0.6,0.6,1.3,0.9,2,0.9c0.8,0,1.5-0.3,2-0.9c0.6-0.6,0.9-1.3,0.9-2c0-0.8-0.3-1.5-0.9-2c-0.6-0.6-1.3-0.9-2.1-0.9
		C9.7,10.7,9,11,8.5,11.5z M35.3,6.3v24.8h-16V6.3H35.3z M32.3,12.1c-0.8,0-1.4-0.3-2-0.9c-0.6-0.6-0.9-1.2-0.9-2h-4.4
		c0,0.8-0.3,1.4-0.9,2c-0.6,0.6-1.3,0.9-2.1,0.9v13.1c0.8,0,1.5,0.3,2.1,0.9c0.6,0.6,0.9,1.3,0.9,2.1h4.4c0-0.8,0.3-1.5,0.9-2.1
		c0.6-0.6,1.2-0.9,2-0.9V12.1z M24.7,21.3c0.7,0.7,1.6,1.1,2.6,1.1c1,0,1.9-0.4,2.6-1.1s1.1-1.6,1.1-2.6c0-1-0.4-1.9-1.1-2.6
		c-0.7-0.7-1.6-1.1-2.6-1.1c-1,0-1.9,0.4-2.6,1.1c-0.7,0.7-1.1,1.6-1.1,2.6C23.6,19.7,23.9,20.5,24.7,21.3z"/>
</g>
</svg>
