<?xml version="1.0" encoding="utf-8"?>
<!-- Generator: Adobe Illustrator 25.4.1, SVG Export Plug-In . SVG Version: 6.00 Build 0)  -->
<svg version="1.1" xmlns="http://www.w3.org/2000/svg" xmlns:xlink="http://www.w3.org/1999/xlink" x="0px" y="0px"
	 viewBox="0 0 24 24" style="enable-background:new 0 0 24 24;" xml:space="preserve">
<style type="text/css">
	.st0{fill:none;stroke:#2B2B2B;stroke-width:0.75;stroke-miterlimit:10;}
</style>
<g>
	<path d="M3.1,13.5c0.1,0.3,0.4,0.5,0.8,0.4l3.7-1.2l2.7,0.5c0.1,0.5,0.2,1,0.4,1.3H8.1c-0.2,0-0.3,0.1-0.4,0.2
		l-3.1,3.8c-0.2,0.2-0.3,0.4-0.3,0.5s0.1,0.3,0.2,0.4L7.1,22c0.3,0.3,0.6,0.3,0.9,0s0.3-0.6,0-0.9L5.8,19l2.5-3.1h1.3
		c-2.2,1.7,0.1,6.4,2.3,6.4s4.6-4.7,2.3-6.4h1.3l2.5,3.1L16,21.1c-0.3,0.3-0.3,0.6,0,0.9c0.3,0.3,0.6,0.3,0.9,0l2.6-2.6
		c0.1-0.1,0.2-0.3,0.2-0.4c0-0.2-0.1-0.3-0.2-0.4l-3.1-3.8c-0.1-0.1-0.3-0.2-0.4-0.2h-2.5c0.1-0.4,0.3-0.9,0.4-1.3l2.7-0.5l3.7,1.2
		c0.3,0.1,0.7-0.1,0.8-0.4c0.1-0.3-0.1-0.7-0.4-0.8l-3.9-1.3c-0.1-0.1-0.2-0.1-0.3-0.1l-2.4,0.5c0-0.2,0-0.4,0-0.6
		c0-0.1,0-0.1,0-0.2c3.3-1.2,3.9-2.9,3.9-4.2c0-0.4-0.3-0.6-0.7-0.6c-0.4,0-0.6,0.3-0.6,0.7c0.1,1.3-1.3,2.2-2.8,2.8
		c-0.1-0.1-0.1-0.3-0.1-0.4c1.2-0.3,1.1-1.4,0.7-2.6l2-2c0.3-0.3,0.3-0.6,0-0.9L14.4,2c-0.3-0.3-0.6-0.3-0.9,0
		c-0.3,0.3-0.3,0.6,0,0.9L15,4.3l-1.2,1.3c-0.4-0.8-1.1-1.3-1.7-1.3c-0.6,0-1.3,0.5-1.7,1.3L9,4.3l1.5-1.5c0.3-0.3,0.3-0.6,0-0.9
		c-0.3-0.3-0.6-0.3-0.9,0L7.7,3.9c-0.3,0.3-0.3,0.6,0,0.9l2,2C9.3,8,9.2,9.1,10.4,9.4c-0.1,0.1-0.1,0.3-0.1,0.4
		C8.9,9.2,7.4,8.4,7.5,6.9c0-0.4-0.3-0.6-0.6-0.7c-0.4,0-0.7,0.3-0.7,0.6c-0.1,1.3,0.5,3,3.9,4.2c0,0.1,0,0.1,0,0.2
		c0,0.2,0,0.4,0,0.6l-2.4-0.5c-0.1,0-0.2,0-0.3,0l-3.9,1.3C3.1,12.8,2.9,13.2,3.1,13.5z"/>
</g>
</svg>
