<?xml version="1.0" encoding="utf-8"?>
<!-- Generator: Adobe Illustrator 25.4.1, SVG Export Plug-In . SVG Version: 6.00 Build 0)  -->
<svg version="1.1" xmlns="http://www.w3.org/2000/svg" xmlns:xlink="http://www.w3.org/1999/xlink" x="0px" y="0px"
	 viewBox="0 0 24 24" style="enable-background:new 0 0 24 24;" xml:space="preserve">
<style type="text/css">
	.st0{fill:#2B2B2B;}
</style>
<g>
	<path d="M8,22.3c-0.3,0-0.6-0.1-0.8-0.2c-0.6-0.3-0.9-0.9-0.9-1.5v-1.4c-3-0.3-5-2.5-5-5.7v-6C1.2,4,3.6,1.7,7,1.7h10
		c3.4,0,5.8,2.3,5.8,5.8v6c0,3.4-2.3,5.7-5.8,5.7h-3.8L9,22C8.7,22.2,8.3,22.3,8,22.3z M7,3.2c-2.6,0-4.2,1.7-4.2,4.2v6
		c0,2.6,1.7,4.2,4.2,4.2c0.4,0,0.8,0.3,0.8,0.8v2.1c0,0.1,0.1,0.2,0.1,0.2c0.1,0,0.2,0.1,0.3,0l4.4-3c0.1-0.1,0.3-0.1,0.4-0.1h4
		c2.6,0,4.2-1.7,4.2-4.2v-6c0-2.6-1.7-4.2-4.2-4.2C17,3.2,7,3.2,7,3.2z"/>
	<path d="M12,12.1c-0.4,0-0.8-0.3-0.8-0.8v-0.2c0-1.2,0.9-1.7,1.2-2c0.4-0.2,0.5-0.4,0.5-0.7c0-0.5-0.4-0.9-0.9-0.9
		s-0.9,0.5-0.9,1c0,0.4-0.3,0.8-0.8,0.8C9.9,9.3,9.6,9,9.6,8.5c0-1.3,1.1-2.4,2.4-2.4s2.4,1.1,2.4,2.4c0,1.1-0.8,1.7-1.1,1.9
		c-0.4,0.3-0.5,0.4-0.5,0.7v0.2C12.7,11.8,12.4,12.1,12,12.1z"/>
	<path d="M12,14.6c-0.4,0-0.8-0.3-0.8-0.8c0-0.4,0.3-0.8,0.8-0.8s0.8,0.3,0.8,0.8S12.4,14.6,12,14.6z"/>
</g>
</svg>
