<?xml version="1.0" encoding="utf-8"?>
<!-- Generator: Adobe Illustrator 23.0.3, SVG Export Plug-In . SVG Version: 6.00 Build 0)  -->
<svg version="1.1" id="Layer_1" xmlns="http://www.w3.org/2000/svg" xmlns:xlink="http://www.w3.org/1999/xlink" x="0px" y="0px"
	 viewBox="0 0 36 36" style="enable-background:new 0 0 36 36;" xml:space="preserve">
<style type="text/css">
	.st0{fill:#2B2B2B;}
</style>
<g>
	<path class="st0" d="M26.8,23h-18l-6,6V5c0-0.4,0.1-0.8,0.4-1.1s0.6-0.4,1.1-0.4h22.5c0.4,0,0.8,0.1,1.1,0.4s0.4,0.6,0.4,1.1v16.5
		c0,0.4-0.1,0.8-0.4,1.1S27.2,23,26.8,23z M12.1,6.5c-1.3,0-2.4,0.3-3.2,0.9C8.1,8,7.7,8.9,7.7,10.1h3c0-0.4,0.1-0.7,0.4-1
		c0.3-0.2,0.6-0.4,1.1-0.4s0.8,0.1,1,0.4c0.3,0.3,0.4,0.7,0.4,1.1c0,0.5-0.1,0.9-0.3,1.2c-0.2,0.3-0.5,0.6-0.9,0.9
		c-0.8,0.5-1.3,1-1.6,1.4c-0.3,0.4-0.5,1-0.5,1.7h3c0-0.5,0.1-0.8,0.2-1.1s0.4-0.5,0.8-0.8c0.7-0.4,1.3-0.8,1.7-1.4s0.6-1.2,0.6-1.9
		c0-1.2-0.4-2.1-1.2-2.8C14.5,6.8,13.4,6.5,12.1,6.5z M34.3,14v21l-6-6H11.8c-0.4,0-0.8-0.1-1.1-0.4c-0.3-0.3-0.5-0.6-0.5-1.1V26h21
		V12.5h1.5c0.4,0,0.8,0.1,1.1,0.4C34.1,13.2,34.3,13.6,34.3,14z M10.2,17v3h3v-3H10.2z M19.2,6.5v9h3v-9H19.2z M19.2,20h3v-3h-3V20z
		"/>
</g>
</svg>
