<?xml version="1.0" encoding="utf-8"?>
<!-- Generator: Adobe Illustrator 25.4.1, SVG Export Plug-In . SVG Version: 6.00 Build 0)  -->
<svg version="1.1" xmlns="http://www.w3.org/2000/svg" xmlns:xlink="http://www.w3.org/1999/xlink" x="0px" y="0px"
	 viewBox="0 0 24 24" style="enable-background:new 0 0 24 24;" xml:space="preserve">
<style type="text/css">
	.st0{fill:none;stroke:#2B2B2B;stroke-miterlimit:10;}
</style>
<path id="XMLID_00000181069829996384195190000001393780932004884644_" class="st0" d="M21.3,17.2L21.3,17.2
	c-0.2,0.3-0.4,0.6-0.6,0.9l0,0c-0.5,0.5-1,0.9-1.7,1.1l-6.9,2.2c-0.3,0.1-0.6,0-0.9-0.1c-0.3-0.2-0.5-0.5-0.5-0.8L9.4,6.9l0.3,0
	l0.6,0l1.2,0.1c0.4,0,0.7,0.3,0.7,0.6l1.1,8.9c0.1,0.6,0.6,1,1.2,0.8l0.7-0.2c0.5-0.1,0.8-0.6,0.8-1.1l-1.4-8.9l0.3,0l0.5,0l0.8,0.1
	c0.3,0,0.6,0.3,0.6,0.6l1.4,7.6c0.1,0.6,0.6,0.9,1.2,0.8l0,0c0.5-0.1,0.9-0.6,0.8-1.2l-1.5-7.6c-0.2-1.1-1.2-2-2.3-2.1L7.2,4.2
	c-0.3,0-0.6,0.1-0.9,0.3S6,5,6,5.3l0.9,15.4l0,0.9l0,0.3c-2.7-0.6-4.7-2.8-4.7-5.6l-0.1-10c0-1.2,0.5-2.2,1.3-3
	c0.7-0.7,1.7-1.1,2.7-1.3C7,2,8,2,8.9,2.2l7.2,1.4c2,0.4,3.8,2.2,4.3,4.2l1.3,5.9C22,14.9,21.8,16.2,21.3,17.2z"/>
</svg>
