<?xml version="1.0" encoding="utf-8"?>
<!-- Generator: Adobe Illustrator 25.4.1, SVG Export Plug-In . SVG Version: 6.00 Build 0)  -->
<svg version="1.1" xmlns="http://www.w3.org/2000/svg" xmlns:xlink="http://www.w3.org/1999/xlink" x="0px" y="0px"
	 viewBox="0 0 24 24" style="enable-background:new 0 0 24 24;" xml:space="preserve">
<style type="text/css">
	.st0{fill:#2B2B2B;}
</style>
<path d="M11.7,22.9H5.4c-3,0-4.4-1.4-4.4-4.4v-6.2c0-3.1,1.4-4.5,4.4-4.5h3.1c0.5,0,1,0.4,1,1v3.1
	c0,1.9,0.5,2.5,2.5,2.5h3.1c0.5,0,1,0.4,1,1v3.2C16.2,21.5,14.8,22.9,11.7,22.9z M5.4,9.8C3.5,9.8,3,10.3,3,12.3v6.2
	C3,20.4,3.5,21,5.4,21h6.2c1.9,0,2.5-0.5,2.5-2.5v-2.1H12c-3,0-4.4-1.4-4.4-4.5V9.7H5.4V9.8z"/>
<path d="M18.3,16.3h-6.2c-3.1,0-4.5-1.4-4.5-4.5V5.6c0-3,1.4-4.4,4.4-4.4h6.3c3,0,4.4,1.4,4.4,4.4v6.2
	C22.7,15,21.3,16.3,18.3,16.3z M12,3.2c-1.9,0-2.5,0.5-2.5,2.5v6.2c0,1.9,0.5,2.5,2.5,2.5h6.3c1.9,0,2.5-0.5,2.5-2.5V5.6
	c0-1.9-0.5-2.5-2.5-2.5H12z"/>
</svg>
