<?xml version="1.0" encoding="utf-8"?>
<!-- Generator: Adobe Illustrator 25.4.1, SVG Export Plug-In . SVG Version: 6.00 Build 0)  -->
<svg version="1.1" id="Layer_1" xmlns="http://www.w3.org/2000/svg" xmlns:xlink="http://www.w3.org/1999/xlink" x="0px" y="0px"
	 viewBox="0 0 24 24" style="enable-background:new 0 0 24 24;" xml:space="preserve">
<style type="text/css">
	.st0{fill:#292D32;}
</style>
<path class="st0" d="M11.8,22.1H6c-2.8,0-4.1-1.3-4.1-4.1v-5.8C1.9,9.3,3.2,8,6,8h2.9c0.5,0,0.9,0.4,0.9,0.9v2.9
	c0,1.8,0.5,2.3,2.3,2.3h2.9c0.5,0,0.9,0.4,0.9,0.9V18C16,20.8,14.7,22.1,11.8,22.1z M6,9.9c-1.8,0-2.3,0.5-2.3,2.3V18
	c0,1.8,0.5,2.3,2.3,2.3h5.8c1.8,0,2.3-0.5,2.3-2.3v-2h-2C9.3,16,8,14.7,8,11.8v-2H6z"/>
<path class="st0" d="M18,16h-5.8C9.3,16,8,14.7,8,11.8V6c0-2.8,1.3-4.1,4.1-4.1H18c2.8,0,4.1,1.3,4.1,4.1v5.8
	C22.1,14.7,20.8,16,18,16z M12.1,3.7c-1.8,0-2.3,0.5-2.3,2.3v5.8c0,1.8,0.5,2.3,2.3,2.3H18c1.8,0,2.3-0.5,2.3-2.3V6
	c0-1.8-0.5-2.3-2.3-2.3H12.1z"/>
</svg>
