<?xml version="1.0" encoding="utf-8"?>
<!-- Generator: Adobe Illustrator 23.0.3, SVG Export Plug-In . SVG Version: 6.00 Build 0)  -->
<svg version="1.1" id="Layer_1" xmlns="http://www.w3.org/2000/svg" xmlns:xlink="http://www.w3.org/1999/xlink" x="0px" y="0px"
	 viewBox="0 0 36 36" style="enable-background:new 0 0 36 36;" xml:space="preserve">
<style type="text/css">
	.st0{fill:#2B2B2B;}
</style>
<g>
	<path class="st0" d="M27.9,9.1c0.4,0.4,0.7,1,0.7,1.6v15.7c0,0.6-0.2,1.2-0.7,1.6s-1,0.7-1.6,0.7H10.6c-0.6,0-1.2-0.2-1.6-0.7
		s-0.7-1-0.7-1.6V10.7C8.3,10,8.5,9.5,9,9.1c0.4-0.4,1-0.7,1.6-0.7h15.7C26.9,8.4,27.5,8.6,27.9,9.1z M26.3,10.7h-7.9v6.8l-7.9,9
		h7.9v-9l7.9,9V10.7z"/>
</g>
</svg>
