<?xml version="1.0" encoding="utf-8"?>
<!-- Generator: Adobe Illustrator 25.4.1, SVG Export Plug-In . SVG Version: 6.00 Build 0)  -->
<svg version="1.1" xmlns="http://www.w3.org/2000/svg" xmlns:xlink="http://www.w3.org/1999/xlink" x="0px" y="0px"
	 viewBox="0 0 24 24" style="enable-background:new 0 0 24 24;" xml:space="preserve">
<style type="text/css">
	.st0{fill:#292D32;}
</style>
<path d="M3.4,20.9c-0.2,0-0.4-0.1-0.6-0.3c-1.1-1.2-1.6-3-1.6-5.6V9c0-5.4,2.3-7.8,7.8-7.8h6c2.4,0,4.1,0.5,5.4,1.4
	c0.3,0.2,0.4,0.7,0.2,1s-0.7,0.4-1.1,0.1c-1-0.7-2.4-1.1-4.5-1.1H9C4.4,2.8,2.8,4.4,2.8,9v6c0,2.1,0.4,3.7,1.2,4.6
	c0.3,0.3,0.2,0.8-0.1,1.1C3.7,20.8,3.5,20.9,3.4,20.9z"/>
<path d="M15,22.8H9c-0.8,0-1.5-0.1-2.2-0.1c-0.4-0.1-0.7-0.4-0.6-0.9s0.5-0.7,0.8-0.6c0.6,0.1,1.2,0.1,1.9,0.1h6
	c4.6,0,6.3-1.6,6.3-6.3V9c0-0.3,0-0.7,0-1c0-0.4,0.3-0.8,0.7-0.8c0.4,0,0.8,0.3,0.8,0.7c0,0.3,0,0.7,0,1.1v6
	C22.7,20.4,20.4,22.8,15,22.8z"/>
<path d="M8,10.8c-1.5,0-2.8-1.2-2.8-2.8S6.5,5.2,8,5.2s2.8,1.2,2.8,2.8S9.5,10.8,8,10.8z M8,6.8C7.3,6.8,6.8,7.3,6.8,8
	S7.3,9.2,8,9.2S9.2,8.7,9.2,8S8.7,6.8,8,6.8z"/>
<path d="M2,22.7c-0.2,0-0.4-0.1-0.5-0.2c-0.3-0.3-0.3-0.8,0-1.1l20-20c0.3-0.3,0.8-0.3,1.1,0c0.3,0.3,0.3,0.8,0,1.1
	l-20,20C2.4,22.7,2.2,22.7,2,22.7z"/>
<path d="M12,17.4c-0.4,0-0.8-0.1-1.1-0.4c-0.3-0.3-0.3-0.8,0-1.1s0.8-0.3,1.1,0c0,0,0,0,0,0l5-5c1-1,2.9-1,3.9,0
	l1.6,1.6c0.3,0.3,0.3,0.8,0,1.1c-0.3,0.3-0.8,0.3-1.1,0l-1.6-1.6c-0.5-0.5-1.3-0.5-1.8,0l-5,5C12.8,17.3,12.4,17.4,12,17.4z"/>
</svg>
