<?xml version="1.0" encoding="utf-8"?>
<!-- Generator: Adobe Illustrator 23.0.3, SVG Export Plug-In . SVG Version: 6.00 Build 0)  -->
<svg version="1.1" id="Layer_1" xmlns="http://www.w3.org/2000/svg" xmlns:xlink="http://www.w3.org/1999/xlink" x="0px" y="0px"
	 viewBox="0 0 36 36" style="enable-background:new 0 0 36 36;" xml:space="preserve">
<style type="text/css">
	.st0{fill:#2B2B2B;}
</style>
<g>
	<path class="st0" d="M27.9,27c-0.4,0.4-1,0.7-1.6,0.7H10.6c-0.6,0-1.2-0.2-1.6-0.7s-0.7-1-0.7-1.6V9.7C8.3,9,8.5,8.5,9,8.1
		c0.4-0.4,1-0.7,1.6-0.7h15.7c0.6,0,1.2,0.2,1.6,0.7c0.4,0.4,0.7,1,0.7,1.6v15.7C28.6,26,28.3,26.6,27.9,27z M10.6,24.3h15.7
		l-5.1-6.8l-3.9,5.1l-2.8-3.4L10.6,24.3z"/>
</g>
</svg>
