<?xml version="1.0" encoding="utf-8"?>
<!-- Generator: Adobe Illustrator 25.4.1, SVG Export Plug-In . SVG Version: 6.00 Build 0)  -->
<svg version="1.1" id="Layer_1" xmlns="http://www.w3.org/2000/svg" xmlns:xlink="http://www.w3.org/1999/xlink" x="0px" y="0px"
	 viewBox="0 0 24 24" style="enable-background:new 0 0 24 24;" xml:space="preserve">
<style type="text/css">
	.st0{fill:#292D32;}
</style>
<path class="st0" d="M18.4,22.7H5.6c-1.5,0-2.9-0.8-3.7-2.1c-0.8-1.3-0.9-2.9-0.2-4.2L3.4,13C4,11.9,4.9,11.2,5.9,11s2,0.4,2.8,1.4
	l0.2,0.3c0.4,0.5,0.9,0.8,1.4,0.8c0.5,0,1-0.4,1.3-1L13.6,9c0.8-1.4,1.8-2.1,2.9-2.1c1.1,0.1,2.1,0.9,2.7,2.4l3.1,7.3
	c0.6,1.4,0.4,2.9-0.4,4.1C21.2,22,19.8,22.7,18.4,22.7z M6.2,12.5c0,0-0.1,0-0.1,0c-0.5,0.1-1,0.4-1.3,1.1L3,17.1
	C2.6,18,2.6,19,3.2,19.9s1.4,1.4,2.4,1.4h12.8c1,0,1.9-0.5,2.4-1.3c0.5-0.8,0.6-1.8,0.2-2.7L17.9,10c-0.4-0.9-0.9-1.5-1.4-1.5
	c-0.5,0-1.1,0.5-1.6,1.3L13,13.2c-0.6,1-1.5,1.7-2.5,1.8c-1,0.1-2-0.4-2.7-1.3l-0.2-0.3C7.1,12.8,6.6,12.5,6.2,12.5z"/>
<path class="st0" d="M7,8.8C4.9,8.8,3.2,7.1,3.2,5S4.9,1.2,7,1.2s3.8,1.7,3.8,3.8S9,8.8,7,8.8z M7,2.8c-1.2,0-2.2,1-2.2,2.2
	s1,2.2,2.2,2.2s2.3-1,2.3-2.2S8.2,2.8,7,2.8z"/>
</svg>
