<?xml version="1.0" encoding="utf-8"?>
<!-- Generator: Adobe Illustrator 25.4.1, SVG Export Plug-In . SVG Version: 6.00 Build 0)  -->
<svg version="1.1" xmlns="http://www.w3.org/2000/svg" xmlns:xlink="http://www.w3.org/1999/xlink" x="0px" y="0px"
	 viewBox="0 0 24 24" style="enable-background:new 0 0 24 24;" xml:space="preserve">
<style type="text/css">
	.st0{fill:#2B2B2B;}
</style>
<path d="M18.5,22.7H5.7c-1.5,0-2.9-0.8-3.7-2.1c-0.8-1.3-0.9-2.9-0.2-4.2L3.5,13C4.1,11.9,5,11.2,6,11s2,0.4,2.8,1.4
	L9,12.7c0.4,0.5,0.9,0.8,1.4,0.8s1-0.4,1.3-1l2-3.5c0.8-1.4,1.8-2.1,2.9-2.1c1.1,0.1,2.1,0.9,2.7,2.4l3.1,7.3
	c0.6,1.4,0.4,2.9-0.4,4.1C21.3,22,19.9,22.7,18.5,22.7z M6.3,12.5L6.3,12.5c-0.6,0.1-1.1,0.4-1.4,1.1l-1.8,3.5
	C2.7,18,2.7,19,3.3,19.9s1.4,1.4,2.4,1.4h12.8c1,0,1.9-0.5,2.4-1.3s0.6-1.8,0.2-2.7L18,10c-0.4-0.9-0.9-1.5-1.4-1.5S15.5,9,15,9.8
	l-1.9,3.4c-0.6,1-1.5,1.7-2.5,1.8s-2-0.4-2.7-1.3l-0.2-0.3C7.2,12.8,6.7,12.5,6.3,12.5z"/>
<path d="M7.1,8.8C5,8.8,3.3,7.1,3.3,5S5,1.2,7.1,1.2s3.8,1.7,3.8,3.8S9.1,8.8,7.1,8.8z M7.1,2.8c-1.2,0-2.2,1-2.2,2.2
	s1,2.2,2.2,2.2s2.3-1,2.3-2.2S8.3,2.8,7.1,2.8z"/>
</svg>
