<?xml version="1.0" encoding="utf-8"?>
<!-- Generator: Adobe Illustrator 25.4.1, SVG Export Plug-In . SVG Version: 6.00 Build 0)  -->
<svg version="1.1" xmlns="http://www.w3.org/2000/svg" xmlns:xlink="http://www.w3.org/1999/xlink" x="0px" y="0px"
	 viewBox="0 0 24 24" style="enable-background:new 0 0 24 24;" xml:space="preserve">
<style type="text/css">
	.st0{fill:#2B2B2B;}
</style>
<path d="M13,22.8h-2c-3.3,0-5.3-0.7-5.7-4c-0.1-0.4-0.1-1-0.1-1.7V7c0-0.8,0-1.3,0.1-1.8c0.4-3.3,2.3-4,5.7-4h2
	c3.3,0,5.3,0.7,5.7,4c0.1,0.4,0.1,1,0.1,1.7v10c0,0.8,0,1.3-0.1,1.8C18.3,22.1,16.3,22.8,13,22.8z M11,2.8c-3.3,0-3.9,0.7-4.2,2.7
	c0,0.3,0,0.8,0,1.5v10c0,0.7,0,1.1,0.1,1.5c0.2,2,0.9,2.7,4.2,2.7h2c3.3,0,3.9-0.7,4.2-2.7c0.1-0.4,0.1-0.9,0.1-1.6V7
	c0-0.7,0-1.2-0.1-1.6c-0.2-2-0.9-2.7-4.2-2.7L11,2.8L11,2.8z"/>
<path d="M5.7,19.4H5.3c-3.1,0-4.1-1-4.1-4.1V8.7c0-3.1,1-4.1,4.1-4.1h0.3c0.2,0,0.3,0,0.5,0s0.4,0.1,0.5,0.3
	s0.2,0.4,0.2,0.6c0,0.4-0.1,0.9-0.1,1.6v10c0,0.7,0,1.2,0.1,1.6c0,0.2,0,0.4-0.2,0.6s-0.3,0.3-0.5,0.3C6,19.4,5.8,19.4,5.7,19.4z
	 M5.3,6.1c-2.2,0-2.5,0.4-2.5,2.6v6.7c0,2.2,0.3,2.6,2.5,2.6c0-0.3,0-0.6,0-0.9V7C5.2,6.7,5.3,6.4,5.3,6.1z"/>
<path d="M18.7,19.4h-0.3c-0.2,0-0.3,0-0.5,0s-0.4-0.1-0.5-0.3c-0.1-0.2-0.2-0.4-0.2-0.6c0.1-0.4,0.1-0.9,0.1-1.6V7
	c0-0.7,0-1.2-0.1-1.6c0-0.2,0-0.4,0.2-0.6c0.1-0.2,0.3-0.3,0.5-0.3s0.3,0,0.5,0h0.3c3.1,0,4.1,1,4.1,4.1v6.7
	C22.7,18.4,21.8,19.4,18.7,19.4z M18.7,6.1c0,0.3,0,0.6,0,0.9v10c0,0.4,0,0.7,0,0.9c2.2,0,2.5-0.4,2.5-2.6V8.7
	C21.2,6.4,20.9,6.1,18.7,6.1z"/>
</svg>
