<?xml version="1.0" encoding="utf-8"?>
<!-- Generator: Adobe Illustrator 25.4.1, SVG Export Plug-In . SVG Version: 6.00 Build 0)  -->
<svg version="1.1" id="Layer_1" xmlns="http://www.w3.org/2000/svg" xmlns:xlink="http://www.w3.org/1999/xlink" x="0px" y="0px"
	 viewBox="0 0 24 24" style="enable-background:new 0 0 24 24;" xml:space="preserve">
<style type="text/css">
	.st0{fill:none;stroke:#2B2B2B;stroke-width:1.5;stroke-linecap:round;stroke-linejoin:round;}
	.st1{fill:none;}
</style>
<g id="message-programming">
	<path id="Vector" class="st0" d="M8.5,19H8c-4,0-6-1-6-6V8c0-4,2-6,6-6h8c4,0,6,2,6,6v5c0,4-2,6-6,6h-0.5c-0.3,0-0.6,0.1-0.8,0.4
		l-1.5,2c-0.4,0.7-1.3,0.9-2,0.4c-0.2-0.1-0.3-0.3-0.4-0.4l-1.5-2C9.1,19.2,8.8,19,8.5,19z"/>
	<path id="Vector-2" class="st0" d="M8,8.7l-2,2l2,2"/>
	<path id="Vector-3" class="st0" d="M16,8.7l2,2l-2,2"/>
	<path id="Vector-4" class="st0" d="M13,8.4l-2,4.7"/>
	<path id="Vector-5" class="st1" d="M0,0h24v24H0V0z"/>
</g>
</svg>
