<?xml version="1.0" encoding="utf-8"?>
<!-- Generator: Adobe Illustrator 25.2.1, SVG Export Plug-In . SVG Version: 6.00 Build 0)  -->
<svg version="1.1" xmlns="http://www.w3.org/2000/svg" xmlns:xlink="http://www.w3.org/1999/xlink" x="0px" y="0px"
	 viewBox="0 0 24 24" style="enable-background:new 0 0 24 24;" xml:space="preserve">
<style type="text/css">
	.st0{fill:#2B2B2B;}
</style>
<g id="Layer_1">
</g>
<g id="Layer_2">
</g>
<g id="Layer_3">
</g>
<g id="Layer_5">
</g>
<g id="Layer_4">
</g>
<g id="Layer_7">
</g>
<g id="Layer_8">
	<g id="Layer_2_2_">
		<path d="M16.4,1.9H8C3.8,1.9,1.7,4,1.7,8.2v5.3c0,5.3,2.1,6.3,6.3,6.3h0.5c0.3,0,0.6,0.2,0.8,0.4l1.6,2.1
			c0.1,0.2,0.3,0.3,0.4,0.4c0.7,0.4,1.6,0.2,2.1-0.4l1.6-2.1c0.2-0.3,0.5-0.4,0.8-0.4h0.5c4.2,0,6.3-2.1,6.3-6.3V8.2
			C22.8,4,20.7,1.9,16.4,1.9z M21.7,13.1c0,3.7-1.9,5.5-5.7,5.5h-0.4c-0.3,0-0.5,0.1-0.7,0.3l-1.4,1.8c-0.4,0.6-1.3,0.8-1.9,0.4
			c-0.2-0.1-0.3-0.2-0.4-0.4l-1.4-1.8c-0.2-0.2-0.4-0.3-0.7-0.3H8.4c-3.8,0-5.7-0.9-5.7-5.5V8.5C2.8,4.8,4.7,3,8.4,3H16
			c3.8,0,5.7,1.8,5.7,5.5C21.7,8.5,21.7,13.1,21.7,13.1z"/>
	</g>
	<g>
		<path d="M17.8,11.4l-2.5-2.5c-0.2-0.2-0.2-0.6,0-0.8l0,0c0.2-0.2,0.6-0.2,0.8,0l2.5,2.5c0.2,0.2,0.2,0.6,0,0.8l0,0
			C18.4,11.6,18,11.6,17.8,11.4z"/>
		<path d="M18.6,11.4l-2.5,2.5c-0.2,0.2-0.6,0.2-0.8,0l0,0c-0.2-0.2-0.2-0.6,0-0.8l2.5-2.5c0.2-0.2,0.6-0.2,0.8,0l0,0
			C18.8,10.9,18.8,11.2,18.6,11.4z"/>
		<path d="M6.6,10.6l2.5,2.5c0.2,0.2,0.2,0.6,0,0.8v0c-0.2,0.2-0.6,0.2-0.8,0l-2.5-2.5c-0.2-0.2-0.2-0.6,0-0.8l0,0
			C6.1,10.4,6.4,10.4,6.6,10.6z"/>
		<path d="M5.9,10.6l2.5-2.5c0.2-0.2,0.6-0.2,0.8,0l0,0c0.2,0.2,0.2,0.6,0,0.8l-2.5,2.5c-0.2,0.2-0.6,0.2-0.8,0l0,0
			C5.6,11.2,5.6,10.9,5.9,10.6z"/>
		<path d="M10.6,12.8l1.8-4.2c0.2-0.4,0.6-0.5,1-0.4l0,0c0.4,0.2,0.5,0.6,0.4,1L12,13.4c-0.2,0.4-0.6,0.5-1,0.4l0,0
			C10.7,13.6,10.5,13.2,10.6,12.8z"/>
	</g>
</g>
<g id="Layer_6">
</g>
</svg>
