<svg xmlns="http://www.w3.org/2000/svg" width="24" height="24" viewBox="0 0 24 24">
  <g id="_33" data-name="33" transform="translate(-364 -252)">
    <g id="message-programming">
      <path id="Vector" d="M6.5,17H6c-4,0-6-1-6-6V6Q0,0,6,0h8q6,0,6,6v5q0,6-6,6h-.5a1.014,1.014,0,0,0-.8.4l-1.5,2a1.421,1.421,0,0,1-2.4,0l-1.5-2A1.112,1.112,0,0,0,6.5,17Z" transform="translate(366 253.97)" fill="none" stroke="#292d32" stroke-linecap="round" stroke-linejoin="round" stroke-width="1.5"/>
      <path id="Vector-2" data-name="Vector" d="M2,0,0,2,2,4" transform="translate(370 260.7)" fill="none" stroke="#292d32" stroke-linecap="round" stroke-linejoin="round" stroke-width="1.5"/>
      <path id="Vector-3" data-name="Vector" d="M0,0,2,2,0,4" transform="translate(380 260.7)" fill="none" stroke="#292d32" stroke-linecap="round" stroke-linejoin="round" stroke-width="1.5"/>
      <path id="Vector-4" data-name="Vector" d="M2,0,0,4.66" transform="translate(375 260.37)" fill="none" stroke="#292d32" stroke-linecap="round" stroke-linejoin="round" stroke-width="1.5"/>
      <path id="Vector-5" data-name="Vector" d="M0,0H24V24H0Z" transform="translate(364 252)" fill="none" opacity="0"/>
    </g>
  </g>
</svg>
