<?xml version="1.0" encoding="utf-8"?>
<!-- Generator: Adobe Illustrator 25.4.1, SVG Export Plug-In . SVG Version: 6.00 Build 0)  -->
<svg version="1.1" xmlns="http://www.w3.org/2000/svg" xmlns:xlink="http://www.w3.org/1999/xlink" x="0px" y="0px"
	 viewBox="0 0 24 24" style="enable-background:new 0 0 24 24;" xml:space="preserve">
<style type="text/css">
	.st0{fill:#2B2B2B;}
</style>
<g>
	<path d="M15,22.8H9c-5.4,0-7.8-2.3-7.8-7.8V9c0-5.4,2.3-7.8,7.8-7.8h6c5.4,0,7.8,2.3,7.8,7.8v6
		C22.8,20.4,20.4,22.8,15,22.8z M9,2.8C4.4,2.8,2.8,4.4,2.8,9v6c0,4.6,1.6,6.2,6.2,6.2h6c4.6,0,6.2-1.6,6.2-6.2V9
		c0-4.6-1.6-6.2-6.2-6.2L9,2.8z"/>
	<path d="M10.8,16.4c-0.4,0-0.8-0.1-1.2-0.3c-0.8-0.5-1.3-1.4-1.3-2.6v-3c0-1.2,0.5-2.1,1.3-2.6
		c0.8-0.5,1.8-0.4,2.9,0.2L15,9.6c1,0.6,1.6,1.5,1.6,2.4S16,13.8,15,14.4l-2.6,1.5C11.9,16.2,11.3,16.4,10.8,16.4z M10.8,9.1
		c-0.2,0-0.3,0-0.4,0.1C10,9.4,9.8,9.9,9.8,10.5v3c0,0.6,0.2,1.1,0.5,1.3c0.3,0.2,0.8,0.1,1.4-0.2l2.6-1.5c0.6-0.3,0.9-0.7,0.9-1.1
		c0-0.4-0.3-0.8-0.9-1.1l-2.6-1.5C11.4,9.2,11,9.1,10.8,9.1z"/>
</g>
</svg>
