<svg id="Layer_1" data-name="Layer 1" xmlns="http://www.w3.org/2000/svg" viewBox="0 0 51 39.87"><title>6</title><path id="_Path_" data-name="&lt;Path&gt;" d="M322.12,430.88a59,59,0,0,1-14.07,1.76c-4,0-9.51.2-16.19-1.76-5.44-1.6-10.37-4.32-10.37-9.59V403.71c0-5.27,5-7,10.37-8.79a59.83,59.83,0,0,1,14.89-2.13c4.43,0.05,11.56.9,15.36,2.13,5.38,1.75,10.37,3.52,10.37,8.79v17.58C332.49,426.57,327.56,429.29,322.12,430.88Z" transform="translate(-281.49 -392.78)" style="fill:#d62d41"/><path id="_Path_2" data-name="&lt;Path&gt;" d="M300.92,404.66v16.11a0.7,0.7,0,0,0,1.14.55l10.74-8.5a0.7,0.7,0,0,0,0-1.12L302,404.09A0.7,0.7,0,0,0,300.92,404.66Z" transform="translate(-281.49 -392.78)" style="fill:#fff"/></svg>