<svg xmlns="http://www.w3.org/2000/svg" id="Layer_1" data-name="Layer 1" viewBox="0 0 42 42"><defs><style>.cls-1{stroke:#fff;stroke-miterlimit:10;stroke-width:2px;}</style></defs><path class="cls-1" d="M19.15,32.5,32.5,24,19.15,15.5ZM24,44a19.36,19.36,0,0,1-7.75-1.58A20.18,20.18,0,0,1,5.58,31.75a19.92,19.92,0,0,1,0-15.55,20,20,0,0,1,4.3-6.35,20.45,20.45,0,0,1,6.37-4.28A19.35,19.35,0,0,1,24,4a19.45,19.45,0,0,1,7.8,1.57A20,20,0,0,1,42.43,16.2,19.45,19.45,0,0,1,44,24a19.35,19.35,0,0,1-1.57,7.75,20.45,20.45,0,0,1-4.28,6.37,20,20,0,0,1-6.35,4.3A19.46,19.46,0,0,1,24,44Z" transform="translate(-3 -3)"/></svg>
