<svg xmlns="http://www.w3.org/2000/svg" xmlns:xlink="http://www.w3.org/1999/xlink" version="1.1" id="Layer_1" x="0px" y="0px" viewBox="0 0 512 512" enable-background="new 0 0 512 512" xml:space="preserve">
<path fill="#323232" d="M384,176C384,78.938,326.594,0,256,0c-70.563,0-128,78.938-128,176H64v336h384V176H384z M144,240c-8.844,0-16-7.156-16-16  s7.156-16,16-16s16,7.156,16,16S152.844,240,144,240z M256,32c52.938,0,96,64.594,96,144H160C160,96.594,203.063,32,256,32z   M368,240c-8.844,0-16-7.156-16-16s7.156-16,16-16s16,7.156,16,16S376.844,240,368,240z"/>
</svg>