<?xml version="1.0" encoding="utf-8"?>
<!-- Generator: Adobe Illustrator 25.4.1, SVG Export Plug-In . SVG Version: 6.00 Build 0)  -->
<svg version="1.1" xmlns="http://www.w3.org/2000/svg" xmlns:xlink="http://www.w3.org/1999/xlink" x="0px" y="0px"
	 viewBox="0 0 24 24" style="enable-background:new 0 0 24 24;" xml:space="preserve">
<style type="text/css">
	.st0{fill:none;}
	.st1{fill:none;stroke:#2B2B2B;stroke-width:1.5;stroke-linecap:round;stroke-linejoin:round;}
	.st2{fill:none;stroke:#292D32;stroke-width:1.5;stroke-linecap:round;stroke-linejoin:round;}
	.st3{fill:none;stroke:#2B2B2B;stroke-width:2;stroke-linecap:round;stroke-linejoin:round;}
</style>
<path id="Vector-5" class="st0" d="M0,0h24v24H0V0z"/>
<path id="Vector" class="st1" d="M8,2v3"/>
<path id="Vector-2" class="st2" d="M16,2v3"/>
<path id="Vector-3" class="st1" d="M3.5,9.1h17"/>
<path id="Vector-4" class="st1" d="M21,8.5V17c0,3-1.5,5-5,5H8c-3.5,0-5-2-5-5V8.5c0-3,1.5-5,5-5h8C19.5,3.5,21,5.5,21,8.5z"/>
<path id="Vector-6" class="st3" d="M12,13.7L12,13.7"/>
<path id="Vector-7" class="st3" d="M8.3,13.7L8.3,13.7"/>
<path id="Vector-8" class="st3" d="M8.3,16.7L8.3,16.7"/>
<path id="Vector-6_00000003784151733011840000000008358082349997446533_" class="st3" d="M12.1,16.7L12.1,16.7"/>
<path id="Vector-6_00000133509692351522040510000004612137428844422556_" class="st3" d="M15.7,13.7L15.7,13.7"/>
</svg>
