<?xml version="1.0" encoding="utf-8"?>
<!-- Generator: Adobe Illustrator 23.0.3, SVG Export Plug-In . SVG Version: 6.00 Build 0)  -->
<svg version="1.1" id="Layer_1" xmlns="http://www.w3.org/2000/svg" xmlns:xlink="http://www.w3.org/1999/xlink" x="0px" y="0px"
	 viewBox="0 0 36 36" style="enable-background:new 0 0 36 36;" xml:space="preserve">
<style type="text/css">
	.st0{fill:#2B2B2B;}
</style>
<g>
	<path class="st0" d="M26.3,7.4c0.6,0,1.2,0.2,1.6,0.7c0.4,0.4,0.7,1,0.7,1.6v15.7c0,0.6-0.2,1.2-0.7,1.6s-1,0.7-1.6,0.7H10.6
		c-0.6,0-1.2-0.2-1.6-0.7s-0.7-1-0.7-1.6V9.7C8.3,9,8.5,8.5,9,8.1c0.4-0.4,1-0.7,1.6-0.7h1.1V5.1h2.3v2.3h9V5.1h2.3v2.3H26.3z
		 M26.3,25.4V13H10.6v12.3H26.3z M15.1,15.3v2.3h-2.3v-2.3H15.1z M15.1,19.8V22h-2.3v-2.2H15.1z M19.5,15.3v2.3h-2.2v-2.3H19.5z
		 M19.5,19.8V22h-2.2v-2.2H19.5z M24.1,15.3v2.3h-2.3v-2.3H24.1z M24.1,19.8V22h-2.3v-2.2H24.1z"/>
</g>
</svg>
