<svg xmlns="http://www.w3.org/2000/svg" height="40" viewBox="0 96 960 960" width="40"><path d="M226.666 976q-27 0-46.833-19.833T160 909.334V402.666q0-27 19.833-46.833T226.666 336h100.001v-6.667q0-64 44.666-108.666Q416 176 480 176t108.667 44.667q44.666 44.666 44.666 108.666V336h100.001q27 0 46.833 19.833T800 402.666v506.668q0 27-19.833 46.833T733.334 976H226.666Zm0-66.666h506.668V402.666H633.333v86.667q0 14.167-9.617 23.75t-23.833 9.583q-14.216 0-23.716-9.583-9.5-9.583-9.5-23.75v-86.667H393.333v86.667q0 14.167-9.617 23.75t-23.833 9.583q-14.216 0-23.716-9.583-9.5-9.583-9.5-23.75v-86.667H226.666v506.668ZM393.333 336h173.334v-6.667q0-36.333-25.167-61.5T480 242.666q-36.333 0-61.5 25.167t-25.167 61.5V336ZM226.666 909.334V402.666v506.668Z"/></svg>