<svg id="Illustration" xmlns="http://www.w3.org/2000/svg" xmlns:xlink="http://www.w3.org/1999/xlink" viewBox="0 0 2307.04 2382.21"><defs><style>.cls-1{fill:url(#linear-gradient);}.cls-2{fill:#91b3fa;}.cls-3{fill:#7d97f4;}.cls-4{fill:#bdd0fb;}.cls-5{fill:url(#linear-gradient-2);}.cls-6{fill:url(#linear-gradient-3);}.cls-7{fill:url(#linear-gradient-4);}.cls-8{fill:url(#linear-gradient-5);}.cls-9{fill:url(#linear-gradient-6);}.cls-10{fill:url(#linear-gradient-7);}.cls-11{fill:url(#linear-gradient-8);}.cls-12{fill:url(#linear-gradient-9);}.cls-13{fill:url(#linear-gradient-10);}.cls-14{fill:url(#linear-gradient-11);}.cls-15{fill:url(#linear-gradient-12);}.cls-16{fill:url(#linear-gradient-13);}.cls-17{fill:url(#linear-gradient-14);}.cls-18{fill:url(#linear-gradient-15);}.cls-19{fill:url(#linear-gradient-16);}</style><linearGradient id="linear-gradient" x1="3146.29" y1="2714.98" x2="1492.36" y2="1267.79" gradientUnits="userSpaceOnUse"><stop offset="0" stop-color="#dae3fe"/><stop offset="1" stop-color="#e9effd"/></linearGradient><linearGradient id="linear-gradient-2" x1="18410.14" y1="2304.96" x2="17958.57" y2="2562.71" gradientTransform="matrix(-1, 0, 0, 1, 19947.57, 0)" gradientUnits="userSpaceOnUse"><stop offset="0" stop-color="#febbba"/><stop offset="1" stop-color="#ff928e"/></linearGradient><linearGradient id="linear-gradient-3" x1="-8303.98" y1="-3635.16" x2="-8338.65" y2="-3103.62" gradientTransform="translate(10652.29 2161.15) rotate(-26.18)" gradientUnits="userSpaceOnUse"><stop offset="0" stop-color="#4f52ff"/><stop offset="1" stop-color="#4042e2"/></linearGradient><linearGradient id="linear-gradient-4" x1="18366.45" y1="2369.24" x2="19911.5" y2="1402.01" xlink:href="#linear-gradient-2"/><linearGradient id="linear-gradient-5" x1="-6794.76" y1="-5915.05" x2="-6829.42" y2="-5383.55" gradientTransform="matrix(0.79, -0.61, 0.61, 0.79, 10669.88, 3191.1)" xlink:href="#linear-gradient-3"/><linearGradient id="linear-gradient-6" x1="10155.46" y1="1981.33" x2="9784.06" y2="2388.34" gradientTransform="matrix(-1, 0, 0, 1, 12115.87, 0)" gradientUnits="userSpaceOnUse"><stop offset="0" stop-color="#ff928e"/><stop offset="1" stop-color="#fe7062"/></linearGradient><linearGradient id="linear-gradient-7" x1="-11203.18" y1="-581.9" x2="-11092.13" y2="-303.35" gradientTransform="translate(12812.04 -1699.17) rotate(-19.17)" gradientUnits="userSpaceOnUse"><stop offset="0" stop-color="#09005d"/><stop offset="1" stop-color="#1a0f91"/></linearGradient><linearGradient id="linear-gradient-8" x1="3029.76" y1="1344.43" x2="2519.23" y2="1766.47" gradientTransform="matrix(1, 0, 0, 1, 0, 0)" xlink:href="#linear-gradient-6"/><linearGradient id="linear-gradient-9" x1="-9222.77" y1="2156.39" x2="-8772.93" y2="2156.39" gradientTransform="translate(11551.11)" xlink:href="#linear-gradient-2"/><linearGradient id="linear-gradient-10" x1="-11175.19" y1="1037.82" x2="-11153.2" y2="876.95" gradientTransform="translate(13216.98 105.01) rotate(-4.11)" xlink:href="#linear-gradient-2"/><linearGradient id="linear-gradient-11" x1="-9846.76" y1="-3894.34" x2="-9639.71" y2="-4262.81" gradientTransform="translate(10798 -4320.77) rotate(-56.92)" xlink:href="#linear-gradient-2"/><linearGradient id="linear-gradient-12" x1="-9802.23" y1="-4215.22" x2="-9698.71" y2="-3955.54" gradientTransform="translate(10798 -4320.77) rotate(-56.92)" xlink:href="#linear-gradient-7"/><linearGradient id="linear-gradient-13" x1="-9802.68" y1="-3869.58" x2="-9595.64" y2="-4238.05" gradientTransform="translate(10798 -4320.77) rotate(-56.92)" xlink:href="#linear-gradient-2"/><linearGradient id="linear-gradient-14" x1="-9299.48" y1="1748.93" x2="-9534.8" y2="1813.43" gradientTransform="translate(11509.64 -55.03) rotate(-2.83)" xlink:href="#linear-gradient-7"/><linearGradient id="linear-gradient-15" x1="1762.79" y1="1992.82" x2="2133.24" y2="2331.82" gradientTransform="matrix(1, 0, 0, 1, 0, 0)" xlink:href="#linear-gradient-7"/><linearGradient id="linear-gradient-16" x1="-9662.83" y1="2043.12" x2="-9738.59" y2="2157.2" gradientTransform="translate(11551.11)" xlink:href="#linear-gradient-3"/></defs><path class="cls-1" d="M2911.82,1937.43C2688,2407,2091.75,2670.1,1574.69,2599.14c-84.13-11.55-314.79-45.95-519-208.22C662.54,2078.53,578.47,1460,895.6,1024c230.81-317.27,644.57-497.12,1037.72-488.12,84.69,1.93,409.23,13.88,694.46,223.43,41.89,30.78,134.29,103.92,217.56,220C3040.89,1251.78,3057.7,1631.38,2911.82,1937.43Z" transform="translate(-701.48 -535.59)"/><path class="cls-2" d="M1653.8,1182l-789.71-4.83a45.2,45.2,0,0,0-45.42,47.44l54.33,1122h878.79l48.79-1002.43Z" transform="translate(-701.48 -535.59)"/><path class="cls-3" d="M1686.63,1339.35a45.19,45.19,0,0,1-43.47-48.73l8.47-107.14,149.11,160Z" transform="translate(-701.48 -535.59)"/><path class="cls-4" d="M949.49,1419.05c115-4.2,556.54-21.09,668-25.36,14.06-.53,25.69,12.73,25.69,29.28h0c0,15.76-10.6,28.69-24,29.27l-667.6,29.16c-12.86.56-24-10.5-25.62-25.51l-.42-3.79C923.7,1434.93,934.78,1419.59,949.49,1419.05Z" transform="translate(-701.48 -535.59)"/><path class="cls-4" d="M942.26,1603.11h0c2,3.85,5.52,6.17,9.33,6.07L1410,1597.47c5.76-.15,10.36-5.68,10.36-12.46v-35.54c0-7.07-5-12.72-11-12.45l-445.62,19.6C943.9,1557.49,932.09,1583,942.26,1603.11Z" transform="translate(-701.48 -535.59)"/><path class="cls-4" d="M948.72,1740.63c115-4.2,556.54-21.09,668-25.35,14.06-.54,25.69,12.72,25.69,29.27h0c0,15.76-10.6,28.69-24,29.28L950.86,1803c-12.86.56-24-10.49-25.62-25.5l-.42-3.8C922.93,1756.51,934,1741.17,948.72,1740.63Z" transform="translate(-701.48 -535.59)"/><path class="cls-4" d="M941.49,1924.69h0c2,3.85,5.52,6.17,9.33,6.08l458.41-11.72c5.76-.15,10.36-5.68,10.36-12.45v-35.55c0-7.07-5-12.72-11-12.45L963,1878.2C943.13,1879.07,931.32,1904.63,941.49,1924.69Z" transform="translate(-701.48 -535.59)"/><path class="cls-5" d="M1606.09,2725.15c.53-.2,287-501.8,325.66-549a30,30,0,0,1,26.79-10.77l79.94,9.53,93.92,203.19L1975.94,2287c15.48,107.08-185.52,266.21-254.46,324.28a15.83,15.83,0,0,0-1.25,23.06l27.52,28.81c-45.18,45.8-97.32,75.2-156.17,88.81Z" transform="translate(-701.48 -535.59)"/><path class="cls-6" d="M1731.83,2647.56s17.56,5.67,23.51,21.32c2.85,7.48-.22,16-6.73,20.62-28.92,20.72-124.33,87.62-168.35,100.72a5,5,0,0,1-6.23-5.86c2.26-10.23,9.57-30.65,33.11-60.55l-2.11,4.27a6.11,6.11,0,0,0,8.46,8.07C1642.94,2719.53,1702.92,2683.15,1731.83,2647.56Z" transform="translate(-701.48 -535.59)"/><path class="cls-7" d="M1717.65,2848.26c.48-.31,43.46-103.84,43.94-104.15,39.4-239.89,135.53-445.34,163.88-499.41a30,30,0,0,1,24-16l80.22-6.85,133.1,180-171.67-57.57C2028,2446,1863.36,2642.54,1807.6,2713.35a15.84,15.84,0,0,0,3.44,22.84l32.79,22.64c-35,54-80.09,93.35-135,118.58Z" transform="translate(-701.48 -535.59)"/><path class="cls-8" d="M1825.09,2746.83s18.35,2,27.34,16.12c4.3,6.75,3,15.67-2.42,21.56-24.13,26.14-104,111-144.48,132.71a5,5,0,0,1-7.29-4.49c.14-10.47,3.16-31.95,20.17-66l-1.2,4.61a6.12,6.12,0,0,0,9.92,6.2C1752.61,2835.3,1804,2787.53,1825.09,2746.83Z" transform="translate(-701.48 -535.59)"/><path class="cls-9" d="M2405.25,2184s72.56,107.94,78.52,157.17-20.07,66.27-96,72.54c-226,18.69-337.46-49-337.46-49-15.46-98.59-26.46-123.67-155.6-177.27,0,0,163.33,13,196.21.21S2405.25,2184,2405.25,2184Z" transform="translate(-701.48 -535.59)"/><path class="cls-10" d="M2115.86,1579.25s50.55-59.8,104.28,13.57c9.73,13.29,47.11,2.33,60.82,30.14,7.07,14.36,22.35,22.52,38.1,19.62,39.21-7.23,103.3-7.84,135,53.6,24.15,46.9,5.5,74.35-18.64,90-17.74,11.5-24.07,34.83-13.34,53,10.28,17.47,12.22,41.12-14.34,69.58-59.52,63.79-177.33-40.48-177.33-40.48l-93.55-221Z" transform="translate(-701.48 -535.59)"/><path class="cls-11" d="M2209,2169.7s-84.51-80.47-126.11-133.77a113.1,113.1,0,0,1-19.15-101.77c19-64,52.75-130.26,55.82-140.57,4.72-15.81,99.48-15.15,99.48-15.15s186.46,121,259.72,326l-82.28,25.61s-48.68-81.67-96.79-133.6c0,0,83.24,110,86.17,155Z" transform="translate(-701.48 -535.59)"/><path class="cls-12" d="M2048,2201.45l63.5-69.08,73.34,19.74s85.49,13.25,134.43,0l48.93-13.24,110.58-34.43,17.36,49.08a29.55,29.55,0,0,1-10.79,33.95c-9.57,6.8-20.78,14.27-27.93,17.4-14.56,6.37-335.45,2-335.45,2Z" transform="translate(-701.48 -535.59)"/><path class="cls-13" d="M2153.91,1664.51l63.68,118.42c-4.2,25.86-69.31,26.58-79.37,11.15a15.21,15.21,0,0,1-2-5.22l-38.1-79.13c-1.63-7.72,19.52-33.72,26.48-37.42l25.32-13.48C2159.66,1653.64,2119,1653.24,2153.91,1664.51Z" transform="translate(-701.48 -535.59)"/><path class="cls-14" d="M2025,1636.72s-7.19,40,24.26,90.88S2112,1776.17,2128,1758s35-48.36,26.29-99.1S2035.88,1585.69,2025,1636.72Z" transform="translate(-701.48 -535.59)"/><path class="cls-15" d="M2116.17,1664.45s-50.92-66.89-90-8.58l.66,20.14s-50.84-2.38-45.33-49.23,47-78.87,104.56-62.86,91.16,34.24,97.66,74.19-26.12,33.42-26.12,33.42-12.46-27.56-27.51-29.45-9.61,19.93-9.61,19.93Z" transform="translate(-701.48 -535.59)"/><path class="cls-16" d="M2127.86,1662.66s-26.38-34.22-2.37-41.33,23.12,33.54,21.55,48.66Z" transform="translate(-701.48 -535.59)"/><path class="cls-17" d="M2258.16,2228.8h-.67l-292.07-.32a13.07,13.07,0,1,1,0-26.14l292.07.32a13.07,13.07,0,0,1,.64,26.13Z" transform="translate(-701.48 -535.59)"/><path class="cls-18" d="M1702.87,1963.62H1946.1A46.34,46.34,0,0,1,1988,1990.2l112.45,238.44H1798.2a28.18,28.18,0,0,1-26.2-17.82l-87.2-220.64A19.42,19.42,0,0,1,1702.87,1963.62Z" transform="translate(-701.48 -535.59)"/><path class="cls-19" d="M1874.23,2085.87c5.27,16.38,1.38,32.28-8.7,35.52s-22.51-7.4-27.78-23.78-1.38-32.28,8.7-35.52S1869,2069.49,1874.23,2085.87Z" transform="translate(-701.48 -535.59)"/></svg>