<?xml version="1.0" encoding="utf-8"?>
<!-- Generator: Adobe Illustrator 23.0.3, SVG Export Plug-In . SVG Version: 6.00 Build 0)  -->
<svg version="1.1" id="Layer_1" xmlns="http://www.w3.org/2000/svg" xmlns:xlink="http://www.w3.org/1999/xlink" x="0px" y="0px"
	 viewBox="0 0 36 36" style="enable-background:new 0 0 36 36;" xml:space="preserve">
<style type="text/css">
	.st0{fill:#2B2B2B;}
	.st1{fill:#FFFFFF;}
</style>
<path class="st0" d="M2,11.5h32v12H2V11.5z"/>
<g>
	<path class="st1" d="M7.8,15.3v0.8H7.4c0,0-0.4-0.1-0.4,0.3V17h0.8l-0.1,0.8H7v2.3H6.1v-2.3H5.5V17h0.6v-0.7c0,0-0.1-0.4,0.3-0.7
		c0.3-0.3,0.8-0.3,0.8-0.3H7.8 M10,17v0.4c-0.2-0.3-0.6-0.5-0.9-0.5c-0.7,0-1.3,0.6-1.3,1.6c0,1,0.6,1.6,1.3,1.6
		c0.4,0,0.7-0.2,0.9-0.5l0,0.4h0.9V17H10 M10,18.9c0,0.3-0.3,0.6-0.6,0.6s-0.6-0.3-0.6-0.6v-0.6c0-0.3,0.3-0.6,0.6-0.6
		S10,18,10,18.3V18.9 M18.1,20.1v-0.4c0.2,0.3,0.6,0.5,0.9,0.5c0.7,0,1.3-0.6,1.3-1.6s-0.6-1.6-1.3-1.6c-0.4,0-0.7,0.2-0.9,0.5l0-2
		l-0.9,0.1v4.6L18.1,20.1 M18.2,18.3c0-0.3,0.3-0.6,0.6-0.6s0.6,0.3,0.6,0.6v0.6c0,0.3-0.3,0.6-0.6,0.6s-0.6-0.3-0.6-0.6V18.3
		 M12.9,19.5c0,0-0.7,0-0.7-0.9v-0.1c0-0.9,0.7-0.9,0.7-0.9c0.5,0,0.6,0.2,0.6,0.2l0.2-0.7c-0.4-0.3-1.5-0.3-2.1,0.1
		c-0.4,0.4-0.4,1.1-0.4,1.3c0,0.2,0,0.8,0.4,1.3c0.5,0.5,1.7,0.4,2.1,0.1l-0.2-0.7C13.5,19.3,13.4,19.5,12.9,19.5"/>
	<path class="st1" d="M16.8,18.9c0,0,0.4-1.9-1.4-1.9c-1.8,0-1.5,1.7-1.5,1.7c0,1.1,0.5,1.4,1.4,1.5c0.8,0.1,1.5-0.2,1.5-0.2
		l-0.2-0.6c0,0-0.7,0.2-1.2,0.2c-0.5,0-0.5-0.6-0.5-0.6L16.8,18.9L16.8,18.9z M14.8,18.3c0,0,0-0.7,0.6-0.7c0.6,0,0.6,0.7,0.6,0.7
		H14.8 M22.1,17c-1.2,0-1.5,0.7-1.5,1.6c0,1,0.5,1.6,1.5,1.6c0.8,0,1.5-0.6,1.5-1.6C23.7,17.7,23.2,17,22.1,17 M22.7,18.9
		c0,0.3-0.3,0.6-0.6,0.6c-0.3,0-0.6-0.3-0.6-0.6v-0.6c0-0.3,0.3-0.6,0.6-0.6c0.3,0,0.6,0.3,0.6,0.6V18.9 M25.5,17
		c-1.2,0-1.5,0.7-1.5,1.6c0,1,0.5,1.6,1.5,1.6c0.8,0,1.5-0.6,1.5-1.6C27.1,17.7,26.6,17,25.5,17 M26.1,18.9c0,0.3-0.3,0.6-0.6,0.6
		c-0.3,0-0.6-0.3-0.6-0.6v-0.6c0-0.3,0.3-0.6,0.6-0.6c0.3,0,0.6,0.3,0.6,0.6V18.9 M30.3,20.1l-1-1.6l1-1.6h-1l-0.9,1.4v-3l-0.9,0.1
		v4.7h0.9v-1.6l1,1.6H30.3z"/>
</g>
</svg>
