<?xml version="1.0" encoding="utf-8"?>
<!-- Generator: Adobe Illustrator 25.2.1, SVG Export Plug-In . SVG Version: 6.00 Build 0)  -->
<svg version="1.1" xmlns="http://www.w3.org/2000/svg" xmlns:xlink="http://www.w3.org/1999/xlink" x="0px" y="0px"
	 viewBox="0 0 24 24" style="enable-background:new 0 0 24 24;" xml:space="preserve">
<style type="text/css">
	.st0{fill:#2B2B2B;}
</style>
<g id="Layer_1">
</g>
<g id="Layer_2">
</g>
<g id="Layer_3">
</g>
<g id="Layer_5">
</g>
<g id="Layer_4">
	<path d="M15.3,14h-1.9V21h-3.1V14H9.1v-2.3h1.2v-1.5c0-1.9,0.8-3.1,3.1-3.1h2.3v2.3h-1.4c-0.9,0-1,0.3-1,1v1.3h2.3
		L15.3,14L15.3,14z"/>
	<path d="M14.8,22.4H9.1c-5.1,0-7.3-2.2-7.3-7.4V9.4c0-5.1,2.2-7.3,7.3-7.3h5.7c5.1,0,7.4,2.2,7.4,7.3v5.7
		C22.1,20.2,19.9,22.4,14.8,22.4z M9.1,3.4c-4.4,0-6,1.5-6,6v5.7c0,4.4,1.5,6,5.9,6h5.7c4.4,0,5.9-1.5,5.9-6V9.4
		c0-4.4-1.5-5.9-5.9-5.9L9.1,3.4z"/>
</g>
</svg>
