<?xml version="1.0" encoding="utf-8"?>
<!-- Generator: Adobe Illustrator 25.2.1, SVG Export Plug-In . SVG Version: 6.00 Build 0)  -->
<svg version="1.1" xmlns="http://www.w3.org/2000/svg" xmlns:xlink="http://www.w3.org/1999/xlink" x="0px" y="0px"
	 viewBox="0 0 24 24" style="enable-background:new 0 0 24 24;" xml:space="preserve">
<style type="text/css">
	.st0{fill:#2B2B2B;}
</style>
<g>
	<path d="M15,22.8H9c-5.4,0-7.8-2.3-7.8-7.8V9c0-5.4,2.3-7.8,7.8-7.8h6c5.4,0,7.8,2.3,7.8,7.8v6
		C22.8,20.4,20.4,22.8,15,22.8z M9,2.8C4.4,2.8,2.8,4.4,2.8,9v6c0,4.6,1.6,6.2,6.2,6.2h6c4.6,0,6.2-1.6,6.2-6.2V9
		c0-4.6-1.6-6.2-6.2-6.2C15,2.8,9,2.8,9,2.8z"/>
	<path d="M7.5,13c-0.6,0-1-0.4-1-1s0.4-1,1-1s1,0.4,1,1S8,13,7.5,13z"/>
	<path d="M11.4,13c-0.6,0-1-0.4-1-1s0.4-1,1-1s1,0.4,1,1S11.9,13,11.4,13z"/>
	<path d="M16.5,13c-0.6,0-1-0.4-1-1s0.4-1,1-1c0.5,0,1,0.4,1,1S17.1,13,16.5,13z M16.5,9.8c-1.2,0-2.2,1-2.2,2.2
		s1,2.2,2.2,2.2s2.2-1,2.2-2.2S17.7,9.8,16.5,9.8z"/>
</g>
</svg>
