<?xml version="1.0" encoding="utf-8"?>
<!-- Generator: Adobe Illustrator 25.4.1, SVG Export Plug-In . SVG Version: 6.00 Build 0)  -->
<svg version="1.1" id="Layer_1" xmlns="http://www.w3.org/2000/svg" xmlns:xlink="http://www.w3.org/1999/xlink" x="0px" y="0px"
	 viewBox="0 0 24 24" style="enable-background:new 0 0 24 24;" xml:space="preserve">
<style type="text/css">
	.st0{fill:#292D32;}
</style>
<path class="st0" d="M9.2,5.5c0.8,0,1.6,0.2,2.4,0.7l4.1,2.4c1.5,0.8,2.3,2,2.3,3.3s-0.8,2.4-2.3,3.3l-4.1,2.4c-1.5,0.8-2.9,1-4,0.3
	C6.6,17.3,6,16,6,14.3V9.5c0-1.7,0.6-3,1.7-3.6C8.1,5.7,8.7,5.5,9.2,5.5z M9.2,17c0.5,0,1.1-0.2,1.7-0.5l4.1-2.4
	c1-0.6,1.6-1.3,1.6-2.1c0-0.8-0.6-1.5-1.6-2.1L11,7.4c-1-0.6-2-0.7-2.6-0.3c-0.7,0.4-1,1.3-1,2.4v4.8c0,1.2,0.4,2,1,2.4
	C8.6,16.9,8.9,17,9.2,17z"/>
<path class="st0" d="M7.3,17.7c-1.5,0.8-3.2,1.1-4.3,0.5c-1.1-0.6-1.7-1.9-1.7-3.6V9.7c0-1.7,0.6-3,1.7-3.6c0.5-0.3,1-0.4,1.6-0.4
	c0.8,0,1.6,0.2,2.4,0.7 M6.3,7.6c-1-0.6-2-0.7-2.6-0.3c-0.7,0.4-1,1.3-1,2.4v4.8c0,1.2,0.4,2,1,2.4c0.3,0.2,0.6,0.2,0.9,0.2
	c0.5,0,1.1-0.2,1.7-0.5"/>
<path class="st0" d="M13.9,5.5c0.8,0,1.6,0.2,2.4,0.7l4.1,2.4c1.5,0.8,2.3,2,2.3,3.3s-0.8,2.4-2.3,3.3l-4.1,2.4
	c-1.5,0.8-2.9,1-4,0.3c-1.1-0.6-1.7-1.9-1.7-3.6V9.5c0-1.7,0.6-3,1.7-3.6C12.8,5.7,13.4,5.5,13.9,5.5z"/>
</svg>
