<?xml version="1.0" encoding="utf-8"?>
<!-- Generator: Adobe Illustrator 25.2.1, SVG Export Plug-In . SVG Version: 6.00 Build 0)  -->
<svg version="1.1" xmlns="http://www.w3.org/2000/svg" xmlns:xlink="http://www.w3.org/1999/xlink" x="0px" y="0px"
	 viewBox="0 0 24 24" style="enable-background:new 0 0 24 24;" xml:space="preserve">
<style type="text/css">
	.st0{fill:#2B2B2B;}
</style>
<g id="Layer_1">
</g>
<g id="Layer_2">
	<path class="st0" d="M15.4,22.7H9.7c-5.1,0-7.3-2.2-7.3-7.4V9.7c0-5.1,2.2-7.3,7.3-7.3h5.7c5.1,0,7.4,2.2,7.4,7.3v5.7
		C22.7,20.6,20.5,22.7,15.4,22.7z M9.7,3.7c-4.4,0-6,1.5-6,6v5.7c0,4.4,1.5,6,5.9,6h5.7c4.4,0,5.9-1.5,5.9-6V9.7
		c0-4.4-1.5-5.9-5.9-5.9L9.7,3.7z"/>
	
		<rect x="16.8" y="8.7" transform="matrix(-1.836970e-16 1 -1 -1.836970e-16 27.2826 -9.2442)" class="st0" width="2.9" height="0.7"/>
	
		<rect x="15.7" y="9.8" transform="matrix(-1 -1.224647e-16 1.224647e-16 -1 34.3462 20.2398)" class="st0" width="2.9" height="0.7"/>
	<path class="st0" d="M7.7,12.5l-1,0c0,0,0.2-2.9,1.6-4c0,0,1.6-1.6,3.6-1.7c0,0,3.1-0.4,5.3,2l0.9,1l-1.2,0c0,0-2-2.4-4.9-2.1
		c0,0-1.9,0-2.9,1.3C9.2,9,7.8,10.2,7.7,12.5z"/>
	<rect x="5.7" y="15.6" transform="matrix(6.123234e-17 -1 1 6.123234e-17 -8.856 23.1362)" class="st0" width="2.9" height="0.7"/>
	<rect x="6.8" y="14.5" class="st0" width="2.9" height="0.7"/>
	<path class="st0" d="M17.7,12.5l1,0c0,0-0.2,2.9-1.6,4c0,0-1.6,1.6-3.6,1.7c0,0-3.1,0.4-5.3-2l-0.9-1l1.2,0c0,0,2,2.4,4.9,2.1
		c0,0,1.9,0,2.9-1.3C16.2,16,17.6,14.8,17.7,12.5z"/>
</g>
</svg>
