<?xml version="1.0" encoding="utf-8"?>
<!-- Generator: Adobe Illustrator 23.0.3, SVG Export Plug-In . SVG Version: 6.00 Build 0)  -->
<svg version="1.1" xmlns="http://www.w3.org/2000/svg" xmlns:xlink="http://www.w3.org/1999/xlink" x="0px" y="0px"
	 viewBox="0 0 36 36" style="enable-background:new 0 0 36 36;" xml:space="preserve">
<style type="text/css">
	.st0{display:none;}
	.st1{display:inline;fill:#2B2B2B;}
	.st2{display:inline;}
	.st3{fill:#2B2B2B;}
</style>
<g class="st0">
	<path class="st1" d="M11,11.3L22.2,0.1v35.8L11,24.8H2V11.5h9V11.3z M30.9,23.4c-1,1.6-2.4,2.8-4.2,3.6V9.1c1.8,0.8,3.2,2,4.2,3.6
		s1.6,3.4,1.6,5.4C32.3,20,31.9,21.8,30.9,23.4z"/>
</g>
<g class="st0">
	<path class="st1" d="M33.6,29.1v1.8H2.8v-1.8l3.4-3.4V15.4c0-2.7,0.8-5.1,2.4-7.2c1.6-2.1,3.6-3.5,6.1-4.3V3.4c0-0.9,0.3-1.7,1-2.4
		c0.7-0.7,1.5-1,2.4-1s1.8,0.3,2.4,1c0.7,0.7,1,1.5,1,2.4V4c2.5,0.7,4.6,2.2,6.1,4.3c1.6,2.1,2.4,4.5,2.4,7.2v10.3L33.6,29.1z
		 M21.6,32.5c0,1-0.3,1.8-1,2.4c-0.7,0.7-1.5,1-2.4,1s-1.8-0.3-2.4-1c-0.7-0.7-1-1.5-1-2.4H21.6z"/>
</g>
<g class="st0">
	<path class="st1" d="M25.2,31.3H0.1v-3.5L0.2,27c0.1-0.6,0.3-1.2,0.7-1.8C1.4,24.4,2,23.6,2.8,23c1-0.7,2.2-1.3,3.7-1.8
		c1.7-0.5,3.8-0.8,6.1-0.8c3.7,0,6.6,0.6,8.8,1.8c1.6,0.9,2.7,2.1,3.3,3.5c0.3,0.7,0.4,1.3,0.4,1.8V31.3z M18.9,10.7
		c0-1.3-0.4-2.5-1.1-3.5c-0.7-1-1.7-1.8-2.8-2.3s-2.4-0.6-3.6-0.4S9.1,5.3,8.2,6.2c-0.9,0.9-1.5,2-1.7,3.2s-0.1,2.5,0.4,3.6
		c0.5,1.1,1.3,2.1,2.3,2.8c1,0.7,2.2,1.1,3.5,1.1c1.7,0,3.2-0.6,4.5-1.8C18.3,13.9,18.9,12.4,18.9,10.7z M23.4,4.4
		c-1.3,0-2.4,0.4-3.4,1.1c1.1,1.6,1.7,3.3,1.7,5.2c0,1.9-0.6,3.6-1.7,5.2c1,0.7,2.2,1.1,3.4,1.1c1.7,0,3.2-0.6,4.5-1.8
		c1.2-1.2,1.8-2.7,1.8-4.5c0-1.7-0.6-3.2-1.8-4.5C26.6,5,25.1,4.4,23.4,4.4z M25.1,20.5c1.1,0.9,2,2,2.6,3.2c0.6,1.3,1,2.6,1.1,4
		v3.5h7.1v-3.5l-0.1-0.7c-0.1-0.6-0.3-1.1-0.6-1.7c-0.4-0.8-1-1.5-1.7-2c-0.8-0.8-1.9-1.4-3.2-1.8C28.9,21,27.1,20.7,25.1,20.5z"/>
</g>
<g class="st0">
	<path class="st1" d="M34.9,4.7c0.7,0.7,1.1,1.6,1.1,2.6v21.5c0,1-0.4,1.9-1.1,2.6c-0.7,0.7-1.5,1.1-2.5,1.1H3.7
		c-1,0-1.8-0.3-2.5-1.1c-0.7-0.7-1.1-1.6-1.1-2.6V7.3c0-1,0.4-1.9,1.1-2.6C1.9,4,2.7,3.7,3.7,3.7h28.7C33.4,3.7,34.2,4,34.9,4.7z
		 M32.4,7.3l-14.4,9l-14.4-9v3.6L18,19.8l14.4-8.9V7.3z"/>
</g>
<g class="st0">
	<path class="st1" d="M24.7,5.1h5.8v3.6l3.7,2.3c0.5,0.3,0.9,0.8,1.2,1.3c0.3,0.5,0.5,1.1,0.5,1.8v17.8c0,1-0.3,1.8-1,2.5
		c-0.7,0.7-1.5,1-2.5,1H3.7c-0.9,0-1.8-0.3-2.5-1c-0.7-0.7-1-1.5-1-2.5V14.1c0-0.7,0.2-1.3,0.5-1.8c0.3-0.5,0.7-1,1.2-1.3l3.7-2.3
		V5.1h5.8L18,1L24.7,5.1z M3.7,14.1l1.8,1.1v-2.3L3.7,14.1z M9.1,17.4l8.9,5.5l8.9-5.5V8.7H9.1V17.4z M25.1,10.5v2.7H10.9v-2.7H25.1
		z M25.1,14.9v2.7H10.9v-2.7H25.1z M30.4,15.2l1.8-1.1l-1.8-1.2V15.2z"/>
</g>
<g class="st0">
	<path class="st1" d="M7.1,0.2h21.4c1,0,1.9,0.3,2.6,1c0.7,0.7,1,1.5,1,2.5v28.6c0,0.9-0.3,1.8-1,2.5c-0.7,0.7-1.5,1-2.6,1H7.1
		c-1,0-1.9-0.3-2.6-1c-0.7-0.7-1-1.5-1-2.5V3.7c0-0.9,0.3-1.8,1-2.5C5.2,0.5,6.1,0.2,7.1,0.2z M17.8,3.7c-2,0-3.7,0.5-5.4,1.5
		c-1.6,1-2.9,2.3-3.9,3.9c-0.9,1.6-1.4,3.4-1.4,5.4s0.5,3.7,1.5,5.4c1,1.6,2.3,2.9,3.9,3.9c1.6,0.9,3.5,1.4,5.5,1.4l-1.6-3.9
		c-0.2-0.4-0.3-0.9-0.1-1.4c0.1-0.5,0.4-0.8,0.8-1l1.6-0.9c0.4-0.2,0.8-0.3,1.3-0.2c0.5,0.1,0.9,0.4,1.1,0.8l3.4,4.3
		c1.2-1,2.2-2.2,2.9-3.7c0.7-1.4,1.1-3,1.1-4.7c0-1.9-0.5-3.7-1.4-5.3c-0.9-1.6-2.2-3-3.9-3.9C21.5,4.2,19.7,3.7,17.8,3.7z
		 M8.8,28.7c-0.5,0-0.9,0.2-1.3,0.5c-0.3,0.3-0.5,0.8-0.5,1.3s0.2,0.9,0.5,1.3c0.3,0.4,0.8,0.5,1.3,0.5c0.5,0,0.9-0.2,1.3-0.5
		c0.4-0.4,0.5-0.8,0.5-1.3s-0.2-0.9-0.5-1.3C9.8,28.8,9.3,28.7,8.8,28.7z M17.8,12.6c0.5,0,0.9,0.2,1.3,0.5c0.3,0.3,0.5,0.8,0.5,1.3
		c0,0.5-0.2,0.9-0.5,1.3c-0.3,0.4-0.8,0.5-1.3,0.5s-0.9-0.2-1.3-0.5c-0.3-0.4-0.5-0.8-0.5-1.3c0-0.5,0.2-0.9,0.5-1.3
		C16.9,12.8,17.3,12.6,17.8,12.6z M18,20.2l4.4,11.3l4.6-2.7l-7.5-9.5L18,20.2z"/>
</g>
<g class="st0">
	<path class="st1" d="M34.8,1.2c0.7,0.7,1,1.5,1,2.5V25c0,1-0.3,1.9-1,2.5c-0.7,0.7-1.5,1-2.5,1H21.4l-6.6,6.6
		c-0.4,0.3-0.8,0.5-1.3,0.5h-0.9c-0.6,0-1-0.2-1.3-0.5c-0.3-0.3-0.5-0.7-0.5-1.3v-5.3H3.7c-0.9,0-1.8-0.3-2.5-1
		c-0.7-0.7-1-1.5-1-2.5V3.6c0-0.9,0.3-1.8,1-2.5c0.7-0.7,1.5-1,2.5-1h28.6C33.2,0.1,34.1,0.5,34.8,1.2z M16.3,12.6h-3.8L15,7.2h-3.6
		l-2.3,5v7.4h7.2V12.6z M26.9,12.6h-3.8l2.5-5.3h-3.6l-2.3,5v7.4h7.2V12.6z"/>
</g>
<g class="st0">
	<path class="st1" d="M30,3.8c1,0,1.8,0.3,2.5,1c0.7,0.7,1,1.5,1,2.5v24.8c0,1-0.3,1.8-1,2.5c-0.7,0.7-1.5,1-2.5,1H5.2
		c-1,0-1.8-0.3-2.5-1c-0.7-0.7-1-1.5-1-2.5V7.4c0-1,0.3-1.8,1-2.5c0.7-0.7,1.5-1,2.5-1H7V0.2h3.6v3.6h14.1V0.2h3.6v3.6H30z M30,32.2
		V12.7H5.2v19.5H30z M12.3,16.2v3.6H8.7v-3.6H12.3z M12.3,23.4v3.5H8.7v-3.5H12.3z M19.4,16.2v3.6h-3.5v-3.6H19.4z M19.4,23.4v3.5
		h-3.5v-3.5H19.4z M26.5,16.2v3.6h-3.6v-3.6H26.5z M26.5,23.4v3.5h-3.6v-3.5H26.5z"/>
</g>
<g class="st0">
	<path class="st1" d="M0.3,9.1h19.4v3.6H3.8v10.6h15.9v3.6H0.3V9.1z M26.8,9.1h8.8v17.7h-8.8v3.5c0,0.5,0.2,0.9,0.5,1.3
		c0.3,0.4,0.7,0.5,1.2,0.5h3.6v3.5h-4.5c-0.5,0-1.1-0.2-1.7-0.5c-0.6-0.4-1-0.8-1-1.2c0,0.4-0.3,0.8-0.9,1.2
		c-0.6,0.4-1.2,0.5-1.7,0.5h-4.4v-3.5h3.6c0.5,0,0.9-0.2,1.2-0.5c0.3-0.4,0.5-0.8,0.5-1.3V5.6c0-0.5-0.2-0.9-0.5-1.3
		C22.4,4,22,3.8,21.5,3.8h-3.6V0.3h4.4c0.6,0,1.1,0.2,1.7,0.5C24.7,1.2,25,1.6,25,2.1c0-0.4,0.3-0.8,1-1.2c0.6-0.4,1.2-0.5,1.7-0.5
		h4.5v3.5h-3.6c-0.5,0-0.9,0.2-1.2,0.5c-0.3,0.4-0.5,0.8-0.5,1.3V9.1z M32.1,23.3V12.7h-5.3v10.6H32.1z"/>
</g>
<g class="st0">
	<g class="st2">
		<path class="st3" d="M18.1,0.2c0.3,0,0.6,0.1,1,0.3C19.7,0.8,20,1.3,20,2.1v4h2c0.3,0,0.6,0.1,0.9,0.3c0.7,0.3,1,0.9,1,1.7v2h4
			c0.3,0,0.6,0.1,0.9,0.2c0.7,0.4,1,1,1,1.8V14h4c0.2,0,0.4,0.1,0.6,0.2c0.5,0.1,0.8,0.4,1,0.8c0.2,0.9,0.3,1.9,0.3,3
			c0,3.2-0.8,6.2-2.4,8.9c-1.6,2.7-3.8,4.9-6.5,6.5c-2.7,1.6-5.7,2.4-8.9,2.4s-6.2-0.8-8.9-2.4c-2.7-1.6-4.9-3.8-6.5-6.5
			c-1.6-2.7-2.4-5.7-2.4-8.9c0-3.2,0.8-6.2,2.4-8.9c1.6-2.7,3.8-4.9,6.5-6.5C11.9,1,14.9,0.2,18.1,0.2z M5.1,14.9
			c-0.6,0.6-0.8,1.3-0.8,2.1c0,0.8,0.3,1.5,0.8,2.1S6.3,20,7.2,20s1.5-0.3,2.1-0.8c0.6-0.6,0.9-1.3,0.9-2.1c0-0.8-0.3-1.5-0.9-2.1
			C8.7,14.3,8,14,7.2,14C6.4,14,5.6,14.3,5.1,14.9z M11,7c-0.6,0.6-0.8,1.3-0.8,2.1c0,0.8,0.3,1.5,0.8,2.1c0.6,0.6,1.3,0.9,2.1,0.9
			s1.5-0.3,2.1-0.9c0.6-0.6,0.9-1.3,0.9-2.1c0-0.8-0.3-1.5-0.9-2.1c-0.6-0.6-1.3-0.9-2.1-0.9C12.3,6.1,11.6,6.4,11,7z M14,26.8
			c-0.6,0.6-0.8,1.3-0.8,2.1c0,0.8,0.3,1.5,0.8,2.1c0.6,0.6,1.3,0.8,2.1,0.8c0.8,0,1.5-0.3,2.1-0.8c0.6-0.6,0.9-1.3,0.9-2.1
			c0-0.8-0.3-1.5-0.9-2.1c-0.6-0.6-1.3-0.9-2.1-0.9C15.3,25.9,14.5,26.2,14,26.8z M15,16.9c-0.6,0.6-0.9,1.3-0.9,2.1
			c0,0.8,0.3,1.5,0.9,2.1c0.6,0.6,1.3,0.9,2.1,0.9c0.8,0,1.5-0.3,2.1-0.9c0.6-0.6,0.8-1.3,0.8-2.1c0-0.8-0.3-1.5-0.8-2.1
			c-0.6-0.6-1.3-0.8-2.1-0.8C16.2,16.1,15.6,16.3,15,16.9z M24.9,20.8c-0.6,0.6-0.9,1.3-0.9,2.1c0,0.9,0.3,1.6,0.9,2.1
			c0.6,0.6,1.3,0.8,2.1,0.8s1.5-0.3,2.1-0.8c0.6-0.6,0.9-1.3,0.9-2.1c0-0.8-0.3-1.5-0.9-2.1C28.5,20.3,27.8,20,27,20
			S25.5,20.3,24.9,20.8z"/>
	</g>
</g>
<g class="st0">
	<g class="st2">
		<path class="st3" d="M18.1,26.2l-5-5l-8.1,8L2.7,27l8.2-8.1c-2-2.2-3.6-4.7-4.8-7.3h3.3c1,2,2.2,3.8,3.7,5.4
			c2.3-2.5,4-5.4,5.1-8.6H0.1V5h11.3V1.9h3.2V5H26v3.3h-4.8c-1.2,3.9-3.2,7.4-6,10.5l-0.1,0.1l4.2,4L18.1,26.2z M35.7,34.1h-3.3
			l-1.8-4.8H23l-1.8,4.8h-3.3l7.3-19.4h3.3L35.7,34.1z M29.4,26.1l-2.6-7l-2.6,7H29.4z"/>
	</g>
</g>
<g>
	<g>
		<path d="M35.8,19.8c0,1-0.3,1.8-1,2.5L22.3,34.8c-0.7,0.7-1.5,1-2.5,1c-1,0-1.8-0.3-2.5-1l-16-16c-0.7-0.7-1-1.5-1-2.5V3.7
			c0-0.9,0.3-1.8,1-2.5c0.7-0.7,1.5-1,2.5-1h12.5c0.9,0,1.8,0.3,2.5,1l16,16C35.5,18,35.8,18.8,35.8,19.8z M8.4,8.3
			c0.5-0.5,0.8-1.1,0.8-1.9S8.9,5,8.4,4.5C7.9,4,7.3,3.7,6.5,3.7S5.1,4,4.6,4.5C4.1,5,3.8,5.7,3.8,6.4s0.3,1.4,0.8,1.9
			C5.1,8.8,5.7,9,6.5,9C7.2,9,7.9,8.8,8.4,8.3z"/>
	</g>
</g>
</svg>
