<?xml version="1.0" encoding="utf-8"?>
<!-- Generator: Adobe Illustrator 23.0.3, SVG Export Plug-In . SVG Version: 6.00 Build 0)  -->
<svg version="1.1" id="Layer_1" xmlns="http://www.w3.org/2000/svg" xmlns:xlink="http://www.w3.org/1999/xlink" x="0px" y="0px"
	 viewBox="0 0 36 36" style="enable-background:new 0 0 36 36;" xml:space="preserve">
<style type="text/css">
	.st0{fill:#2B2B2B;}
</style>
<g>
	<path class="st0" d="M29.7,18.7c0,0.6-0.2,1.1-0.6,1.6l-7.9,7.9c-0.4,0.4-0.9,0.6-1.6,0.6s-1.2-0.2-1.6-0.6L7.8,18
		c-0.4-0.4-0.6-0.9-0.6-1.6V8.5c0-0.6,0.2-1.1,0.7-1.6c0.4-0.4,1-0.7,1.6-0.7h7.9c0.6,0,1.1,0.2,1.6,0.6L29,17.1
		C29.4,17.5,29.7,18.1,29.7,18.7z M12.3,11.4c0.3-0.3,0.5-0.7,0.5-1.2S12.6,9.4,12.3,9c-0.3-0.3-0.7-0.5-1.2-0.5S10.2,8.7,9.9,9
		c-0.3,0.3-0.5,0.7-0.5,1.2s0.2,0.9,0.5,1.2s0.7,0.5,1.2,0.5C11.6,11.9,12,11.7,12.3,11.4z"/>
</g>
</svg>
