<?xml version="1.0" encoding="utf-8"?>
<!-- Generator: Adobe Illustrator 25.4.1, SVG Export Plug-In . SVG Version: 6.00 Build 0)  -->
<svg version="1.1" id="Layer_1" xmlns="http://www.w3.org/2000/svg" xmlns:xlink="http://www.w3.org/1999/xlink" x="0px" y="0px"
	 viewBox="0 0 24 24" style="enable-background:new 0 0 24 24;" xml:space="preserve">
<style type="text/css">
	.st0{fill:#292D32;}
</style>
<path class="st0" d="M12.2,22.8c-1.5,0-3.1-0.6-4.2-1.7L3,16.2c-1.2-1.2-1.8-2.8-1.7-4.5l0.3-5.4c0.1-2.6,2.2-4.6,4.8-4.8l5.4-0.3
	c1.7-0.1,3.3,0.6,4.5,1.7l4.9,4.9c2.3,2.3,2.3,6.1,0,8.5l-4.8,4.8C15.2,22.2,13.7,22.8,12.2,22.8z M4.2,15l4.9,4.9
	c0.8,0.8,1.9,1.3,3.1,1.3s2.3-0.5,3.1-1.3l4.8-4.8c0.8-0.8,1.3-1.9,1.3-3.1S20.8,9.8,20,9l-4.9-4.9c-0.9-0.9-2.1-1.3-3.3-1.3
	L6.4,3.1C4.6,3.2,3.2,4.5,3.1,6.3l-0.3,5.4C2.8,12.9,3.3,14.1,4.2,15z"/>
<path class="st0" d="M9.4,12.8c-1.9,0-3.5-1.6-3.5-3.5s1.6-3.5,3.5-3.5s3.5,1.6,3.5,3.5S11.3,12.8,9.4,12.8z M9.4,7.4
	c-1,0-1.9,0.9-1.9,1.9s0.9,1.9,1.9,1.9s1.9-0.9,1.9-1.9S10.4,7.4,9.4,7.4z"/>
</svg>
