<?xml version="1.0" encoding="utf-8"?>
<!-- Generator: Adobe Illustrator 25.4.1, SVG Export Plug-In . SVG Version: 6.00 Build 0)  -->
<svg version="1.1" xmlns="http://www.w3.org/2000/svg" xmlns:xlink="http://www.w3.org/1999/xlink" x="0px" y="0px"
	 viewBox="0 0 24 24" style="enable-background:new 0 0 24 24;" xml:space="preserve">
<style type="text/css">
	.st0{fill:#2B2B2B;}
</style>
<path d="M12.2,22.7c-1.5,0-3.1-0.6-4.2-1.7l-5-4.9c-1.2-1.2-1.8-2.8-1.7-4.5l0.3-5.4c0.1-2.6,2.2-4.6,4.8-4.8l5.4-0.3
	c1.7-0.1,3.3,0.6,4.5,1.7l4.9,4.9c2.3,2.3,2.3,6.1,0,8.5L16.4,21C15.2,22.1,13.7,22.7,12.2,22.7z M4.2,14.9l4.9,4.9
	c0.8,0.8,1.9,1.3,3.1,1.3s2.3-0.5,3.1-1.3l4.8-4.8c0.8-0.8,1.3-1.9,1.3-3.1s-0.6-2.2-1.4-3L15.1,4c-0.9-0.9-2.1-1.3-3.3-1.3L6.4,3
	C4.6,3.1,3.2,4.4,3.1,6.2l-0.3,5.4C2.8,12.8,3.3,14,4.2,14.9z"/>
<path d="M9.4,12.7c-1.9,0-3.5-1.6-3.5-3.5s1.6-3.5,3.5-3.5s3.5,1.6,3.5,3.5S11.3,12.7,9.4,12.7z M9.4,7.3
	c-1,0-1.9,0.9-1.9,1.9s0.9,1.9,1.9,1.9s1.9-0.9,1.9-1.9S10.4,7.3,9.4,7.3z"/>
</svg>
