<svg id="Layer_1" data-name="Layer 1" xmlns="http://www.w3.org/2000/svg" viewBox="0 0 47.74 42.16"><title>3</title><g id="_Group_" data-name="&lt;Group&gt;"><path id="_Compound_Path_" data-name="&lt;Compound Path&gt;" d="M599.07,494.33H562.34a5.53,5.53,0,0,0-5.51,5.55h0v24a5.53,5.53,0,0,0,5.51,5.55h21.17l7.6,6.59a1.8,1.8,0,0,0,2,.28,1.85,1.85,0,0,0,1.1-1.68v-5.18h4.9a5.53,5.53,0,0,0,5.51-5.55h0v-24a5.53,5.53,0,0,0-5.51-5.55h0Z" transform="translate(-556.83 -494.33)" style="fill:#0a0a9b"/><rect id="_Rectangle_" data-name="&lt;Rectangle&gt;" x="9.47" y="11.84" width="29.07" height="2.47" rx="1.23" ry="1.23" style="fill:#fff"/><rect id="_Rectangle_2" data-name="&lt;Rectangle&gt;" x="9.47" y="20.47" width="17.37" height="2.47" rx="1.23" ry="1.23" style="fill:#fff"/></g></svg>