<?xml version="1.0" encoding="utf-8"?>
<!-- Generator: Adobe Illustrator 25.2.1, SVG Export Plug-In . SVG Version: 6.00 Build 0)  -->
<svg version="1.1" xmlns="http://www.w3.org/2000/svg" xmlns:xlink="http://www.w3.org/1999/xlink" x="0px" y="0px"
	 viewBox="0 0 24 24" style="enable-background:new 0 0 24 24;" xml:space="preserve">
<style type="text/css">
	.st0{fill:#2B2B2B;}
</style>
<g id="Layer_1_1_">
</g>
<g>
	<g>
		<path d="M16.5,2.5h-8c-4,0-6,2-6,6v5c0,5,2,6,6,6H9c0.3,0,0.6,0.2,0.8,0.4l1.5,2c0.1,0.2,0.3,0.3,0.4,0.4
			c0.7,0.4,1.5,0.2,2-0.4l1.5-2c0.2-0.3,0.5-0.4,0.8-0.4h0.5c4,0,6-2,6-6v-5C22.5,4.5,20.5,2.5,16.5,2.5z M21.5,13.1
			c0,3.5-1.8,5.2-5.4,5.2h-0.4c-0.3,0-0.5,0.1-0.7,0.3l-1.3,1.7c-0.4,0.6-1.2,0.8-1.8,0.4c-0.2-0.1-0.3-0.2-0.4-0.4l-1.3-1.7
			c-0.2-0.2-0.4-0.3-0.7-0.3H8.9c-3.6,0-5.4-0.9-5.4-5.2V8.7c0-3.5,1.8-5.2,5.4-5.2h7.2c3.6,0,5.4,1.7,5.4,5.2
			C21.5,8.7,21.5,13.1,21.5,13.1z"/>
		<rect x="7.6" y="7.9" class="st0" width="10.1" height="1"/>
		<rect x="7.6" y="13" class="st0" width="6.4" height="1"/>
	</g>
</g>
</svg>
