<?xml version="1.0" encoding="utf-8"?>
<!-- Generator: Adobe Illustrator 25.4.1, SVG Export Plug-In . SVG Version: 6.00 Build 0)  -->
<svg version="1.1" id="Layer_1" xmlns="http://www.w3.org/2000/svg" xmlns:xlink="http://www.w3.org/1999/xlink" x="0px" y="0px"
	 viewBox="0 0 24 24" style="enable-background:new 0 0 24 24;" xml:space="preserve">
<style type="text/css">
	.st0{fill:none;stroke:#2B2B2B;stroke-width:1.5;stroke-linecap:round;stroke-linejoin:round;}
</style>
<g id="_48" transform="translate(-1.25 -1.25)">
	<path id="Vector" class="st0" d="M9.7,20.2H9.2c-4,0-6-1-6-6v-5c0-4,2-6,6-6h8c4,0,6,2,6,6v5c0,4-2,6-6,6h-0.5
		c-0.3,0-0.6,0.1-0.8,0.4l-1.5,2c-0.4,0.7-1.3,0.9-2,0.4c-0.2-0.1-0.3-0.3-0.4-0.4l-1.5-2C10.3,20.3,10,20.2,9.7,20.2z"/>
	<path id="Vector-2" class="st0" d="M8.2,9.2h10"/>
	<path id="Vector-3" class="st0" d="M8.2,14.2h6"/>
</g>
</svg>
