<svg xmlns="http://www.w3.org/2000/svg" width="21.5" height="21.56" viewBox="0 0 21.5 21.56">
  <g id="_48" data-name="48" transform="translate(-1.25 -1.25)">
    <path id="Vector" d="M6.5,17H6c-4,0-6-1-6-6V6Q0,0,6,0h8q6,0,6,6v5q0,6-6,6h-.5a1.014,1.014,0,0,0-.8.4l-1.5,2a1.421,1.421,0,0,1-2.4,0l-1.5-2A1.13,1.13,0,0,0,6.5,17Z" transform="translate(2 2)" fill="none" stroke="#292d32" stroke-linecap="round" stroke-linejoin="round" stroke-width="1.5"/>
    <path id="Vector-2" data-name="Vector" d="M0,0H10" transform="translate(7 8)" fill="none" stroke="#292d32" stroke-linecap="round" stroke-linejoin="round" stroke-width="1.5"/>
    <path id="Vector-3" data-name="Vector" d="M0,0H6" transform="translate(7 13)" fill="none" stroke="#292d32" stroke-linecap="round" stroke-linejoin="round" stroke-width="1.5"/>
  </g>
</svg>
