<?xml version="1.0" encoding="utf-8"?>
<!-- Generator: Adobe Illustrator 25.4.1, SVG Export Plug-In . SVG Version: 6.00 Build 0)  -->
<svg version="1.1" xmlns="http://www.w3.org/2000/svg" xmlns:xlink="http://www.w3.org/1999/xlink" x="0px" y="0px"
	 viewBox="0 0 24 24" style="enable-background:new 0 0 24 24;" xml:space="preserve">
<style type="text/css">
	.st0{fill:#292D32;}
</style>
<path d="M12,12.8H4.9c-0.4,0-0.8-0.3-0.8-0.8V4.5c0-1.5,1.2-2.8,2.8-2.8H12c3,0,5.5,2.5,5.5,5.5S15,12.8,12,12.8z
	 M5.6,11.2H12c2.2,0,4-1.8,4-4s-1.8-4-4-4H6.9c-0.7,0-1.2,0.6-1.2,1.2L5.6,11.2L5.6,11.2z"/>
<path d="M14.4,22.2H6.9c-1.5,0-2.8-1.2-2.8-2.8V12c0-0.4,0.3-0.8,0.8-0.8h9.5c3,0,5.5,2.5,5.5,5.5S17.4,22.2,14.4,22.2z
	 M5.6,12.8v6.8c0,0.7,0.6,1.2,1.2,1.2h7.5c2.2,0,4-1.8,4-4s-1.8-4-4-4H5.6z"/>
</svg>
