<?xml version="1.0" encoding="utf-8"?>
<!-- Generator: Adobe Illustrator 25.4.1, SVG Export Plug-In . SVG Version: 6.00 Build 0)  -->
<svg version="1.1" id="Layer_1" xmlns="http://www.w3.org/2000/svg" xmlns:xlink="http://www.w3.org/1999/xlink" x="0px" y="0px"
	 viewBox="0 0 24 24" style="enable-background:new 0 0 24 24;" xml:space="preserve">
<style type="text/css">
	.st0{fill:#292D32;stroke:#2B2B2B;stroke-width:0.5;stroke-miterlimit:10;}
</style>
<path class="st0" d="M21,7.8H3C2.6,7.8,2.2,7.4,2.2,7S2.6,6.2,3,6.2h18c0.4,0,0.8,0.3,0.8,0.8S21.4,7.8,21,7.8z"/>
<path class="st0" d="M21,12.8H3c-0.4,0-0.8-0.3-0.8-0.8s0.3-0.8,0.8-0.8h18c0.4,0,0.8,0.3,0.8,0.8S21.4,12.8,21,12.8z"/>
<path class="st0" d="M21,17.8H3c-0.4,0-0.8-0.3-0.8-0.8s0.3-0.8,0.8-0.8h18c0.4,0,0.8,0.3,0.8,0.8S21.4,17.8,21,17.8z"/>
</svg>
