<?xml version="1.0" encoding="utf-8"?>
<!-- Generator: Adobe Illustrator 23.0.3, SVG Export Plug-In . SVG Version: 6.00 Build 0)  -->
<svg version="1.1" id="Layer_1" xmlns="http://www.w3.org/2000/svg" xmlns:xlink="http://www.w3.org/1999/xlink" x="0px" y="0px"
	 viewBox="0 0 36 36" style="enable-background:new 0 0 36 36;" xml:space="preserve">
<style type="text/css">
	.st0{display:none;}
	.st1{display:inline;fill:#2B2B2B;}
	.st2{fill:#2B2B2B;}
</style>
<g class="st0">
	<path class="st1" d="M11,11.3L22.2,0.1v35.8L11,24.8H2V11.5h9V11.3z M30.9,23.4c-1,1.6-2.4,2.8-4.2,3.6V9.1c1.8,0.8,3.2,2,4.2,3.6
		s1.6,3.4,1.6,5.4C32.3,20,31.9,21.8,30.9,23.4z"/>
</g>
<g class="st0">
	<path class="st1" d="M33.6,29.1v1.8H2.8v-1.8l3.4-3.4V15.4c0-2.7,0.8-5.1,2.4-7.2c1.6-2.1,3.6-3.5,6.1-4.3V3.4c0-0.9,0.3-1.7,1-2.4
		c0.7-0.7,1.5-1,2.4-1s1.8,0.3,2.4,1c0.7,0.7,1,1.5,1,2.4V4c2.5,0.7,4.6,2.2,6.1,4.3c1.6,2.1,2.4,4.5,2.4,7.2v10.3L33.6,29.1z
		 M21.6,32.5c0,1-0.3,1.8-1,2.4c-0.7,0.7-1.5,1-2.4,1s-1.8-0.3-2.4-1c-0.7-0.7-1-1.5-1-2.4H21.6z"/>
</g>
<g class="st0">
	<path class="st1" d="M25.2,31.3H0.1v-3.5L0.2,27c0.1-0.6,0.3-1.2,0.7-1.8C1.4,24.4,2,23.6,2.8,23c1-0.7,2.2-1.3,3.7-1.8
		c1.7-0.5,3.8-0.8,6.1-0.8c3.7,0,6.6,0.6,8.8,1.8c1.6,0.9,2.7,2.1,3.3,3.5c0.3,0.7,0.4,1.3,0.4,1.8V31.3z M18.9,10.7
		c0-1.3-0.4-2.5-1.1-3.5c-0.7-1-1.7-1.8-2.8-2.3s-2.4-0.6-3.6-0.4S9.1,5.3,8.2,6.2c-0.9,0.9-1.5,2-1.7,3.2s-0.1,2.5,0.4,3.6
		c0.5,1.1,1.3,2.1,2.3,2.8c1,0.7,2.2,1.1,3.5,1.1c1.7,0,3.2-0.6,4.5-1.8C18.3,13.9,18.9,12.4,18.9,10.7z M23.4,4.4
		c-1.3,0-2.4,0.4-3.4,1.1c1.1,1.6,1.7,3.3,1.7,5.2c0,1.9-0.6,3.6-1.7,5.2c1,0.7,2.2,1.1,3.4,1.1c1.7,0,3.2-0.6,4.5-1.8
		c1.2-1.2,1.8-2.7,1.8-4.5c0-1.7-0.6-3.2-1.8-4.5C26.6,5,25.1,4.4,23.4,4.4z M25.1,20.5c1.1,0.9,2,2,2.6,3.2c0.6,1.3,1,2.6,1.1,4
		v3.5h7.1v-3.5l-0.1-0.7c-0.1-0.6-0.3-1.1-0.6-1.7c-0.4-0.8-1-1.5-1.7-2c-0.8-0.8-1.9-1.4-3.2-1.8C28.9,21,27.1,20.7,25.1,20.5z"/>
</g>
<g class="st0">
	<path class="st1" d="M34.9,4.7c0.7,0.7,1.1,1.6,1.1,2.6v21.5c0,1-0.4,1.9-1.1,2.6c-0.7,0.7-1.5,1.1-2.5,1.1H3.7
		c-1,0-1.8-0.3-2.5-1.1c-0.7-0.7-1.1-1.6-1.1-2.6V7.3c0-1,0.4-1.9,1.1-2.6C1.9,4,2.7,3.7,3.7,3.7h28.7C33.4,3.7,34.2,4,34.9,4.7z
		 M32.4,7.3l-14.4,9l-14.4-9v3.6L18,19.8l14.4-8.9V7.3z"/>
</g>
<g>
	<path class="st2" d="M0.2,5.6h35.6v4H0.2V5.6z M0.2,15.5h35.6v3.9H0.2V15.5z M0.2,25.3h35.6v4H0.2V25.3z"/>
</g>
</svg>
