<?xml version="1.0" encoding="utf-8"?>
<!-- Generator: Adobe Illustrator 25.4.1, SVG Export Plug-In . SVG Version: 6.00 Build 0)  -->
<svg version="1.1" xmlns="http://www.w3.org/2000/svg" xmlns:xlink="http://www.w3.org/1999/xlink" x="0px" y="0px"
	 viewBox="0 0 24 24" style="enable-background:new 0 0 24 24;" xml:space="preserve">
<style type="text/css">
	.st0{fill:#2B2B2B;stroke:#2B2B2B;stroke-width:0.5;stroke-miterlimit:10;}
</style>
<g>
	<path d="M21.7,7.5H2.3c-0.4,0-0.9-0.4-0.9-0.9s0.4-0.9,0.9-0.9h19.4c0.4,0,0.9,0.3,0.9,0.9S22.1,7.5,21.7,7.5z"/>
	<path d="M21.7,12.9H2.3c-0.4,0-0.9-0.3-0.9-0.9c0-0.5,0.3-0.9,0.9-0.9h19.4c0.4,0,0.9,0.3,0.9,0.9
		C22.5,12.5,22.1,12.9,21.7,12.9z"/>
	<path d="M21.7,18.2H2.3c-0.4,0-0.9-0.3-0.9-0.9s0.3-0.9,0.9-0.9h19.4c0.4,0,0.9,0.3,0.9,0.9S22.1,18.2,21.7,18.2z"/>
</g>
</svg>
