<?xml version="1.0" encoding="utf-8"?>
<!-- Generator: Adobe Illustrator 25.4.1, SVG Export Plug-In . SVG Version: 6.00 Build 0)  -->
<svg version="1.1" id="Layer_1" xmlns="http://www.w3.org/2000/svg" xmlns:xlink="http://www.w3.org/1999/xlink" x="0px" y="0px"
	 viewBox="0 0 24 24" style="enable-background:new 0 0 24 24;" xml:space="preserve">
<style type="text/css">
	.st0{fill:#292D32;}
</style>
<path class="st0" d="M22.6,16.8c0,0.3,0,0.6-0.1,0.9c0,0.2-0.1,0.3-0.1,0.5c-0.1,0.2-0.1,0.3-0.2,0.5c0,0,0,0.1,0,0.1
	c-0.2,0.4-0.4,0.7-0.6,0.9c0,0,0,0,0,0c-0.1,0.1-0.2,0.3-0.4,0.4c-0.1,0.1-0.3,0.2-0.4,0.4c-0.3,0.2-0.6,0.4-1,0.6c0,0-0.1,0-0.1,0
	c-0.1,0.1-0.3,0.1-0.4,0.2c-0.2,0.1-0.4,0.1-0.5,0.1c-0.4,0.1-0.7,0.1-1,0.1H4.4c-1.9,0-3.2-1.3-3.2-3.2v-3c0-1.9,1.3-3.3,3.2-3.3
	h13.5c1.2,0,2.4,0.5,3.3,1.4c0.2,0.2,0.3,0.3,0.4,0.4c0.3,0.3,0.5,0.7,0.7,1.2c0,0.1,0.1,0.2,0.1,0.3C22.6,15.8,22.6,16.3,22.6,16.8
	z M20.9,18c0-0.1,0.1-0.2,0.1-0.3c0-0.1,0.1-0.2,0.1-0.3c0.1-0.6,0.1-1.1-0.1-1.6c0-0.1-0.1-0.2-0.1-0.3c-0.1-0.3-0.3-0.6-0.5-0.8
	c-0.1-0.1-0.1-0.2-0.2-0.2c-0.6-0.6-1.4-1-2.3-1H4.4c-1.1,0-1.7,0.7-1.7,1.7v3c0,1.1,0.7,1.8,1.7,1.8h13.5c0.2,0,0.4,0,0.7-0.1
	c0.1,0,0.2,0,0.3-0.1c0.1,0,0.2-0.1,0.3-0.1c0,0,0.1,0,0.1,0s0,0,0.1,0c0.2-0.1,0.4-0.2,0.6-0.4c0.1-0.1,0.2-0.2,0.3-0.2
	c0.1-0.1,0.2-0.2,0.3-0.3c0,0,0,0,0,0c0.1-0.2,0.2-0.3,0.3-0.5C20.8,18.2,20.8,18.1,20.9,18C20.9,18.1,20.9,18.1,20.9,18z"/>
<path class="st0" d="M22.5,17.9c0,0.1,0,0.1,0,0.2c-0.2,0.7-0.6,1.4-1.2,2c-0.5,0.5-1.2,1-2,1.2c-0.4,0.1-0.8-0.1-0.9-0.5
	c-0.1-0.4,0.1-0.8,0.5-0.9c1-0.3,1.8-1.1,2.1-2.1c0.1-0.4,0.5-0.6,0.9-0.5C22.3,17.3,22.5,17.6,22.5,17.9z"/>
<path class="st0" d="M22.6,6.1c0,0.3,0,0.6-0.1,0.9c0,0.2-0.1,0.3-0.1,0.5c-0.1,0.2-0.1,0.3-0.2,0.5c0,0,0,0.1,0,0.1
	C22,8.5,21.9,8.8,21.7,9c0,0,0,0,0,0c-0.1,0.2-0.2,0.3-0.4,0.4c-0.1,0.1-0.3,0.2-0.4,0.4c-0.3,0.2-0.6,0.4-1,0.6c0,0-0.1,0-0.1,0
	c-0.1,0.1-0.3,0.1-0.4,0.2c-0.2,0.1-0.4,0.1-0.5,0.1c-0.4,0.1-0.7,0.1-1,0.1H4.4c-1.9,0-3.2-1.3-3.2-3.2v-3c0-1.9,1.3-3.3,3.2-3.3
	h13.5c1.2,0,2.4,0.5,3.3,1.4c0.2,0.2,0.3,0.3,0.4,0.4c0.3,0.3,0.5,0.7,0.7,1.2c0,0.1,0.1,0.2,0.1,0.3C22.6,5.1,22.6,5.6,22.6,6.1z
	 M20.9,7.4c0-0.1,0.1-0.2,0.1-0.3c0-0.1,0.1-0.2,0.1-0.3c0.1-0.6,0.1-1.1-0.1-1.6c0-0.1-0.1-0.2-0.1-0.3c-0.1-0.3-0.3-0.6-0.5-0.8
	c-0.1-0.1-0.1-0.2-0.2-0.2c-0.6-0.6-1.4-1-2.3-1H4.4c-1.1,0-1.7,0.7-1.7,1.7v3c0,1.1,0.7,1.8,1.7,1.8h13.5c0.2,0,0.4,0,0.7-0.1
	c0.1,0,0.2,0,0.3-0.1c0.1,0,0.2-0.1,0.3-0.1c0,0,0.1,0,0.1,0c0,0,0,0,0.1,0c0.2-0.1,0.4-0.2,0.6-0.4c0.1-0.1,0.2-0.2,0.3-0.2
	c0.1-0.1,0.2-0.2,0.3-0.3c0,0,0,0,0,0c0.1-0.2,0.2-0.3,0.3-0.5C20.8,7.5,20.8,7.5,20.9,7.4C20.9,7.5,20.9,7.4,20.9,7.4z"/>
<path class="st0" d="M22.5,7.3c0,0.1,0,0.1,0,0.2c-0.2,0.7-0.6,1.4-1.2,2c-0.5,0.5-1.2,1-2,1.2c-0.4,0.1-0.8-0.1-0.9-0.5
	c-0.1-0.4,0.1-0.8,0.5-0.9c1-0.3,1.8-1.1,2.1-2.1c0.1-0.4,0.5-0.6,0.9-0.5C22.3,6.7,22.5,7,22.5,7.3z"/>
<path class="st0" d="M14.1,5.2c0-0.1,0-0.2,0.1-0.3c0.1-0.1,0.4-0.1,0.5,0l1.5,1.5L17.7,5c0.1-0.1,0.4-0.1,0.5,0
	c0.1,0.1,0.1,0.4,0,0.5l-1.8,1.8c-0.1,0.1-0.4,0.1-0.5,0l-1.8-1.8C14.1,5.4,14.1,5.3,14.1,5.2z"/>
<path class="st0" d="M14.1,16.3c0-0.1,0-0.2,0.1-0.3c0.1-0.1,0.4-0.1,0.5,0l1.5,1.5l1.5-1.5c0.1-0.1,0.4-0.1,0.5,0
	c0.1,0.1,0.1,0.4,0,0.5l-1.8,1.8c-0.1,0.1-0.4,0.1-0.5,0l-1.8-1.8C14.1,16.5,14.1,16.4,14.1,16.3z"/>
</svg>
