<svg xmlns="http://www.w3.org/2000/svg" height="40" viewBox="0 96 960 960" width="40"><path d="M202.565 955.999q-25.788 0-44.176-18.388t-18.388-44.176V413.693q0-25.788 18.388-44.176 18.388-18.387 44.176-18.387h102.308q0-73.025 49.897-124.076 49.897-51.051 122.794-51.051 72.897 0 125.23 51.113t52.333 124.014h102.308q25.788 0 44.176 18.387 18.388 18.388 18.388 44.176v479.742q0 25.788-18.388 44.176t-44.176 18.388h-554.87Zm0-50.255h554.87q4.616 0 8.462-3.847 3.847-3.846 3.847-8.462V413.693q0-4.616-3.847-8.462-3.846-3.846-8.462-3.846h-554.87q-4.616 0-8.462 3.846-3.847 3.846-3.847 8.462v479.742q0 4.616 3.847 8.462 3.846 3.847 8.462 3.847ZM480 621.383q73.025 0 125.358-52.333t52.333-125.358h-50.255q0 52.564-37.594 90-37.595 37.436-89.872 37.436-52.278 0-89.714-37.436t-37.436-90h-50.254q0 73.025 52.204 125.358 52.205 52.333 125.23 52.333ZM355.128 351.13h249.744q0-52.308-36.282-88.59-36.282-36.282-88.59-36.282-52.308 0-88.59 36.282-36.282 36.282-36.282 88.59ZM190.256 905.744V401.385v504.359Z"/></svg>