<?xml version="1.0" encoding="utf-8"?>
<!-- Generator: Adobe Illustrator 23.0.3, SVG Export Plug-In . SVG Version: 6.00 Build 0)  -->
<svg version="1.1" id="_x3C_Layer_x3E_" xmlns="http://www.w3.org/2000/svg" xmlns:xlink="http://www.w3.org/1999/xlink" x="0px"
	 y="0px" viewBox="0 0 1790.3 1330" style="enable-background:new 0 0 1790.3 1330;" xml:space="preserve">
<style type="text/css">
	.st0{fill:#F0F9FF;}
	.st1{fill:#599DAD;}
	.st2{fill:#6BB7BF;}
	.st3{fill:#86D1CD;}
	.st4{fill:#EE9849;}
	.st5{fill:#F3B175;}
	.st6{fill:#FFB27D;}
	.st7{fill:#E3F0FF;}
	.st8{fill:#D2E4FF;}
	.st9{fill:#ED985F;}
	.st10{fill:#B64C41;}
	.st11{fill:#2F5196;}
	.st12{fill:#E58638;}
	.st13{fill:#2C3A64;}
	.st14{fill:#F99746;}
	.st15{fill:#ED7D2B;}
	.st16{fill:#B56F40;}
	.st17{fill:#99592E;}
	.st18{fill:#739AF0;}
	.st19{fill:#2B478B;}
	.st20{fill:#233862;}
	.st21{fill:#D9935C;}
	.st22{fill:#CB7D45;}
	.st23{fill:#163560;}
	.st24{fill:#1C468A;}
	.st25{fill:#FF9843;}
	.st26{fill:#FCA56B;}
	.st27{fill:#AA413E;}
	.st28{fill:#C65447;}
	.st29{fill:#74ACBE;}
</style>
<g>
	<path class="st0" d="M126.1,1318.9c0,0-217.4-279.7-36.8-582.6C249.6,467.6,436.4,486,573.5,595c58.4,46.4,226.7,5.7,370-267.7
		c195.4-372.9,872.6-146.7,749.1,427c-59.8,277.6,181.9,287.7,58.7,565.2L126.1,1318.9z"/>
	<g>
		<g>
			<path class="st1" d="M1445.7,1223.2c0,0,14.5-16.9,0.9-27.7c0,0-9.9-6-18-5.5c0,0,11.5,19.3,7.8,21.2
				c-3.7,1.9-11.3-22.4-11.3-22.4s-22.6-2.2-29.9,1.3c0,0,19.3,15.8,15.3,16.8c-4.1,0.9-25-14.6-25-14.6s-21.1,3.6-19.9,16.4
				c1.1,12.8,8.4,16.8,11.6,16.5c3.2-0.3,21.8-7.5,22.3-4.8c0.4,2.6-10.8,11.2-18.7,11.6c0,0,14.8,16.4,24.7,11.6
				c9.9-4.7,10.7-12.2,16.9-15c6.2-2.8,11.4-2.8,8.9,0.1c-2.5,2.9-13.7,5.6-17.2,11.9c-3.5,6.2-6.7,10.4,3.5,8.9
				c10.2-1.5,26.8-9,27.5-17.6C1445.7,1223.2,1445.7,1223.2,1445.7,1223.2z"/>
			<g>
				<path class="st1" d="M1375.9,1209c0,0,57.2-2.2,69.8,14.2c0,0,2.8,8.4,11.4,16l1.3,3.7c0,0-9.9-10.4-13.5-11.1
					C1445,1231.7,1450.5,1211.5,1375.9,1209z"/>
				<path class="st1" d="M1457.1,1239.2c0,0,12.3,9.1,13.1,25.3l-2.2,0.2c0,0-3.9-16.8-11-23.3
					C1449.9,1234.8,1457.1,1239.2,1457.1,1239.2z"/>
			</g>
		</g>
		<g>
			<path class="st2" d="M1496.4,1201.9c0,0-23.1-12.9-12.3-30.5c0,0,8.6-10.8,17.8-13.5c0,0-4.9,26.2,0,26.8
				c4.9,0.6,3.4-29.5,3.4-29.5s24.3-11.7,33.8-10.8c0,0-15.1,25.5-10.2,24.9c4.9-0.6,21.8-26.5,21.8-26.5s24.9-4.6,28.9,10.2
				c4,14.8-2.5,22.2-6.2,23.1c-3.7,0.9-27.4,0.6-26.8,3.7c0.6,3.1,16.6,8,25.5,5.2c0,0-9.8,24.3-22.8,23.1
				c-12.9-1.2-16.9-9.2-24.9-9.8c-8-0.6-13.8,1.5-9.8,3.7c4,2.2,17.5,0.7,24,6.2c6.5,5.5,11.7,8.9-0.3,11.3
				c-12,2.5-33.5,0.9-37.8-8.3C1496.4,1201.9,1496.4,1201.9,1496.4,1201.9z"/>
			<g>
				<path class="st2" d="M1568.4,1157.6c0,0-64.6,20.9-72,44.3c0,0,0.3,10.5-6.2,22.5v4.6c0,0,6.8-15.7,10.5-17.8
					C1500.7,1211.1,1486.3,1190.8,1568.4,1157.6z"/>
				<path class="st2" d="M1490.3,1224.4c0,0-10,15.1-4.3,33.5l2.6-0.7c0,0-2.5-20.3,2.7-30.5
					C1496.5,1216.5,1490.3,1224.4,1490.3,1224.4z"/>
			</g>
		</g>
		<g>
			<path class="st3" d="M1459.7,1184.1c0,0,30.4-17,16.2-40.2c0,0-11.4-14.2-23.5-17.8c0,0,6.5,34.5,0,35.3
				c-6.5,0.8-4.5-38.9-4.5-38.9s-32-15.4-44.6-14.2c0,0,19.9,33.7,13.4,32.9c-6.5-0.8-28.8-34.9-28.8-34.9s-32.9-6.1-38.1,13.4
				c-5.3,19.5,3.2,29.2,8.1,30.4c4.9,1.2,36.1,0.8,35.3,4.9c-0.8,4.1-21.9,10.5-33.7,6.9c0,0,13,32,30,30.4
				c17-1.6,22.3-12.2,32.9-13c10.5-0.8,18.3,2,13,4.9c-5.3,2.8-23.1,0.9-31.6,8.2c-8.5,7.2-15.4,11.7,0.4,14.9
				c15.8,3.2,44.2,1.2,49.9-11C1459.7,1184.1,1459.7,1184.1,1459.7,1184.1z"/>
			<g>
				<path class="st2" d="M1364.8,1125.7c0,0,85.2,27.6,94.9,58.4c0,0-0.4,13.8,8.1,29.6v6.1c0,0-8.9-20.7-13.8-23.5
					C1454,1196.2,1473.1,1169.5,1364.8,1125.7z"/>
				<path class="st2" d="M1467.8,1213.7c0,0,13.1,19.9,5.6,44.2l-3.4-0.9c0,0,3.3-26.7-3.6-40.2
					C1459.6,1203.4,1467.8,1213.7,1467.8,1213.7z"/>
			</g>
		</g>
		<path class="st4" d="M1461.4,1310.6c32.9,0,59.6-26.7,59.6-59.6h-119.2C1401.8,1283.9,1428.5,1310.6,1461.4,1310.6z"/>
		<path class="st5" d="M1476,1310.1c-2.4,0.3-4.9,0.5-7.4,0.5c-32.9,0-59.6-26.7-59.6-59.6h14.8
			C1423.8,1281.4,1446.6,1306.5,1476,1310.1z"/>
		<path class="st4" d="M1521.8,1313.6H1401l0,0c0-4.1,3.3-7.4,7.4-7.4h106.1C1518.5,1306.2,1521.8,1309.5,1521.8,1313.6
			L1521.8,1313.6z"/>
		<rect x="1399.8" y="1251" class="st4" width="122.5" height="1.8"/>
	</g>
	<g>
		<path class="st6" d="M311.4,625.7c-4.9,1.4-12.3,7.5-22.4,2.1c-7.2-3.8-14.9-6.8-18.7-8.2c-1.5-0.5-2.4-0.8-2.4-0.8l5.6-11.7
			c0,0,0.1,0.1,0.5,0.2c2.6,0.9,16.1,5.5,22.7,4.8c7.4-0.8,18.6,9.3,18.6,9.3S316.3,624.3,311.4,625.7z"/>
		<g>
			<path class="st7" d="M529.9,790.5H302.3c-32.7,0-59.2-26.5-59.2-59.2V503.7c0-32.7,26.5-59.2,59.2-59.2h227.6
				c32.7,0,59.2,26.5,59.2,59.2v227.6C589.1,764,562.6,790.5,529.9,790.5z"/>
			<path class="st8" d="M544.3,529.7v168.9c0,5-0.8,9.8-2.4,14.3c-5.3,15.4-19,26.9-35.6,29.2c-1.9,0.3-3.9,0.4-5.9,0.4H331.4
				c-19,0-35.2-12.1-41.3-29c-1.7-4.6-2.6-9.6-2.6-14.8V529.7c0-24.2,19.6-43.9,43.9-43.9h168.9
				C524.6,485.8,544.3,505.5,544.3,529.7z"/>
			<g>
				<path class="st6" d="M393.8,602.3c0,0-0.9,26.4-4.2,38.3l-26.8,18.7l100.8,15.1l-24-33.2c0,0-7.3-35.5-3.5-48.6
					C440,579.4,393.8,602.3,393.8,602.3z"/>
				<path class="st9" d="M393.7,605.9c0,0,8,19.2,23,18.8c15-0.4,18.4-17.4,18.4-17.4L393.7,605.9z"/>
				<path class="st10" d="M384.7,590.4c0,0-4.9-24.2-8.2-31.5c-3.4-7.3-6.2-40.1,31.3-41.7c0,0,14.4,1.7,22.3-3.1c0,0,0,4.8-2,6.5
					c0,0,13-3.1,23.1,8.2s-6.8,50.8-5.9,60.1L384.7,590.4z"/>
				<path class="st6" d="M415,617.3c-10.9-0.2-30.9-14.7-30.9-32.6v-28c0-6.6,4.6-11.9,10.2-11.9h41.5c5.6,0,10.2,5.4,10.2,11.9
					v26.4C445.9,601.9,427.5,617.5,415,617.3z"/>
				<path class="st10" d="M384.1,571.6c0,0,0.1-16.8,13.4-19.4c13.3-2.6,43.2,8.2,47.4-4.1c4.2-12.3-57.7-12.1-60.8-4.2
					C380.9,551.7,384.1,571.6,384.1,571.6z"/>
				<path class="st11" d="M478.2,648.6C478.2,648.5,478.2,648.5,478.2,648.6c-2.9-1.1-4.3-1.2-4.3-1.2v0c-11-2.8-21.3-4.7-31-5.9
					c-1.1-0.1-2.2-0.3-3.3-0.4c-6.6,8.8-11.9,12.8-17.5,15.6c-1.2,0.6-2.5,1.2-3.8,1.7c-1.1,0.5-2.2,0.9-3.4,1.4
					c-1.5-0.2-2.9-0.6-4.3-1.1c-0.8-0.3-1.6-0.6-2.4-1c-10.7-5-18.7-16.9-18.7-17.2c-1.5,0.2-2.9,0.3-4.3,0.5
					c-12.6,1.6-21.2,3.9-24.9,5.1c0,0,0,0,0,0c-0.8,0.1-28.2,3.9-70.3,67.4c6.1,16.9,22.3,29,41.3,29h168.9c2,0,4-0.1,5.9-0.4
					c16.6-2.2,30.2-13.8,35.6-29.2C510,664.7,487.3,651.9,478.2,648.6z"/>
				<path class="st4" d="M391,634.1c0,0-4.5,1.9-5.7,6.9c0,0,18,18.5,29.7,18.8L391,634.1z"/>
				<path class="st4" d="M415,659.8l23.2-26.6c0,0,4.8,3.1,4.7,8.3C442.9,641.5,424.9,660.5,415,659.8z"/>
				<path class="st4" d="M425.3,742.5h-23.2c2.7-31.1,6.1-61.9,7.7-76.3c0.3-2.9,0.6-5.2,0.7-6.6c0-0.2,0-0.5,0.1-0.7
					c0-0.1,0-0.2,0-0.3c0.1-0.6,0.1-0.9,0.1-0.9l2.3,0l3.7-0.1h0l1.5,0c0,0,0,0.2,0.1,0.7c0,0.2,0,0.6,0.1,1c0,0.3,0,0.6,0.1,1
					c0.1,1.7,0.4,4.2,0.6,7.3C420.4,682.7,422.9,712.6,425.3,742.5z"/>
				<path class="st12" d="M406.2,650.4c0,0,10.7-1.1,17.2-0.4c1.3,0.1,2,1.5,1.4,2.7c-1.8,3.3-5.5,9-9.4,9
					C409.8,661.6,401.3,650.7,406.2,650.4z"/>
			</g>
		</g>
	</g>
	<g>
		<path class="st7" d="M656.7,371.5h-230c-33,0-59.8-26.8-59.8-59.8v-230c0-33,26.8-59.8,59.8-59.8h230c33,0,59.8,26.8,59.8,59.8
			v230C716.4,344.7,689.7,371.5,656.7,371.5z"/>
		<path class="st8" d="M671.2,108v170.7c0,3.9-0.5,7.6-1.4,11.2c-3.6,13.9-13.8,25.1-26.9,30.2c-0.5,0.2-1,0.4-1.5,0.6
			c-4.5,1.6-9.4,2.4-14.5,2.4H456.1c-2.2,0-4.5-0.2-6.6-0.5c-13.8-2.1-25.6-10.5-32.1-22.2c-3.6-6.4-5.6-13.8-5.6-21.6V108
			c0-24.5,19.9-44.4,44.4-44.4h170.7C651.3,63.6,671.2,83.5,671.2,108z"/>
		<g>
			<path class="st6" d="M526.9,172c0,0-0.8,23.2-3.7,33.6L499.7,222l88.6,13.3l-21.1-29.2c0,0-6.4-31.2-3-42.7
				C567.5,151.9,526.9,172,526.9,172z"/>
			<path class="st9" d="M526.8,175.2c0,0,7,16.9,20.2,16.5c13.2-0.4,16.2-15.3,16.2-15.3L526.8,175.2z"/>
			<path class="st13" d="M518.9,161.5c0,0-4.3-21.3-7.2-27.7c-3-6.4-5.5-35.2,27.5-36.7c0,0,12.6,1.5,19.6-2.7c0,0,0,4.2-1.7,5.7
				c0,0,11.4-2.7,20.3,7.2c8.9,9.9-5.9,44.6-5.2,52.8L518.9,161.5z"/>
			<path class="st6" d="M572.7,131.9v23.2c0,3.9-0.9,7.6-2.4,11h0c-2.6,5.9-7,11-11.9,14.3c-4.3,3-8.9,4.8-12.9,4.7
				c-3.4-0.1-7.9-1.7-12.2-4.6c-5.8-3.9-11.4-9.9-13.7-16.9l0-0.1l-0.1-0.3c-0.7-2.2-1.1-4.4-1.1-6.7v-24.6c0-5.8,4-10.5,8.9-10.5
				h36.5C568.6,121.4,572.7,126.1,572.7,131.9z"/>
			<path class="st14" d="M597.3,211.7c0,0-20.8-4.5-30.1-5.6c-8.2,10.9-14.1,13.9-21.6,16.8c-12.1-1.7-22.3-17-22.3-17.3
				c-13.2,1.4-22,4.2-25.7,5.3c0,0,0,0,0,0c-0.8,0.1-33.1,4.6-80.2,89.8c6.6,11.7,18.3,20.2,32.1,22.2c6.1-5.2,19.1-16.6,29.3-25.4
				c-0.1,2.9-0.1,5.5-0.1,7.7c0.2,6.1,0.4,12.2,0.5,18.2h128.5c-0.2-3.1-0.4-6-0.6-8.9c-0.4-8.8-0.9-16.9-1.2-24.3
				c0-0.1,0-0.1,0-0.2c0-0.1,0-0.2,0-0.2c0,0,0,0,0,0c1.9,1.6,4.1,3.5,6.5,5.6c0.5,0.4,1,0.8,1.5,1.3c0.4,0.4,0.9,0.7,1.3,1.1
				c0.6,0.5,1.2,1,1.8,1.6c1.1,1,2.2,1.9,3.3,2.9c0.5,0.4,1,0.9,1.5,1.3c0.3,0.2,0.5,0.5,0.8,0.7c0.3,0.3,0.6,0.5,0.9,0.8
				c0.2,0.2,0.5,0.4,0.7,0.6c0.6,0.5,1.1,1,1.6,1.4c0.5,0.4,0.9,0.8,1.3,1.2c0.4,0.3,0.7,0.6,1.1,1c1.3,1.2,2.7,2.3,4,3.4
				c0.5,0.4,1,0.9,1.5,1.3c0.5,0.5,1,0.9,1.5,1.3c0.4,0.3,0.7,0.6,1.1,0.9c0.2,0.1,0.3,0.3,0.5,0.4c0.5,0.5,1.1,0.9,1.6,1.3
				c0.5,0.5,1,0.9,1.5,1.3c0.2,0.2,0.4,0.3,0.6,0.5c0.2,0.2,0.4,0.4,0.6,0.5c0.5-0.2,1-0.4,1.5-0.6c13.2-5.1,23.3-16.3,26.9-30.2
				C625.6,213.9,597.3,211.7,597.3,211.7z"/>
			<path class="st13" d="M518.3,145c0,0,0.1-14.8,11.8-17.1c11.7-2.3,37.9,7.2,41.6-3.6c3.7-10.8-50.7-10.6-53.4-3.7
				C515.6,127.5,518.3,145,518.3,145z"/>
			<path class="st15" d="M494.4,323h-15.2c-0.1-6.1-0.3-12.1-0.5-18.2c-0.1-2.3,0-4.9,0.1-7.7c0-0.6,0-1.3,0.1-2
				c0.1,0.2,0.4,0.7,0.8,1.2C481.9,300.1,488.1,310.4,494.4,323z"/>
			<path class="st13" d="M558.4,170.2v10.2c-4.3,3-8.9,4.8-12.9,4.7c-3.4-0.1-7.9-1.7-12.2-4.6v-10.3c0-5.7,4.7-10.4,10.4-10.4h4.3
				C553.7,159.8,558.4,164.5,558.4,170.2z"/>
			<path class="st15" d="M642.8,320.1c-0.5,0.2-1,0.4-1.5,0.6c-0.2-0.2-0.4-0.3-0.6-0.5c-0.2-0.2-0.4-0.3-0.6-0.5
				c-0.5-0.4-1-0.9-1.5-1.3c-0.5-0.4-1-0.9-1.6-1.3c-0.2-0.1-0.3-0.3-0.5-0.4c-0.4-0.3-0.7-0.6-1.1-0.9c-0.5-0.4-1-0.9-1.5-1.3
				c-0.5-0.4-1-0.9-1.5-1.3c-1.3-1.1-2.6-2.3-4-3.4c-0.4-0.3-0.7-0.6-1.1-1c-0.4-0.4-0.9-0.8-1.3-1.2c-0.5-0.5-1.1-1-1.6-1.4
				c-0.2-0.2-0.5-0.4-0.7-0.6c-0.3-0.3-0.6-0.6-0.9-0.8c-0.3-0.2-0.6-0.5-0.8-0.7c-0.5-0.5-1-0.9-1.5-1.3c-1.1-1-2.2-1.9-3.3-2.9
				c-0.6-0.5-1.2-1.1-1.8-1.6c-0.4-0.4-0.9-0.8-1.3-1.1c-0.5-0.4-1-0.9-1.5-1.3c-2.4-2.1-4.6-4-6.5-5.6c0,0-0.1-0.1-0.1-0.1
				c0,0,0,0,0.1-0.1c1.2-0.9,12.3-8.2,19.3,4.2C630.2,302.6,638,313.7,642.8,320.1z"/>
			<path class="st13" d="M570.3,166.1c-4.9,11.2-16.4,19.2-24.8,19c-8.1-0.1-21.9-9.2-26-21.5l0-0.1l-0.1-0.3c0,0,8.7,7.4,14.4,3.7
				h24.1C557.9,166.9,564.2,170.5,570.3,166.1z"/>
			<path class="st6" d="M548.4,169h-5.2c-1.2,0-2.7-1.9-2.7-3.1c0,0,1.5-1.2,2.7-1.2h5.2c1.2,0,2.9,1,3.2,1.7
				C551.6,166.3,550.9,169,548.4,169z"/>
		</g>
	</g>
	<g>
		<path class="st7" d="M1074.9,364.4h-230c-33,0-59.8-26.8-59.8-59.8v-230c0-33,26.8-59.8,59.8-59.8h230c33,0,59.8,26.8,59.8,59.8
			v230C1134.7,337.6,1107.9,364.4,1074.9,364.4z"/>
		<path class="st8" d="M1089.4,100.8v170.7c0,10.9-3.9,20.9-10.5,28.6c-8.1,9.6-20.3,15.7-33.9,15.7H874.3c-11.2,0-21.4-4.1-29.2-11
			c-9.3-8.1-15.1-20.1-15.1-33.4V100.8c0-24.5,19.9-44.4,44.4-44.4H1045C1069.5,56.5,1089.4,76.3,1089.4,100.8z"/>
		<g>
			<path class="st13" d="M941.6,215.3c0,0-27.8-1.4-28.6-17.5c-0.8-16.1-23.8-27.8-17.1-40.7c8.2-15.8,0.7-31,11-41.7
				c11.4-11.7,25.7-5.4,33.3-12.2c7.6-6.8,21.4-13.1,35.1-4.7c13.7,8.4,24.1,3.9,33.1,12c9.9,9,6.2,20.3,14.3,26.4
				c7.5,5.6,4.4,21-1.9,33.5c-4.6,9,5.9,17.4-12.1,27.8c-7.5,4.3-5.9,15.1-28.6,17C969.8,216.2,947.5,211.4,941.6,215.3z"/>
			<path class="st16" d="M942.4,201.1c0,0-0.8,25.1-4,36.4l-25.4,17.7l95.8,14.3L985.8,238c0,0-6.9-33.7-3.3-46.1
				C986.2,179.4,942.4,201.1,942.4,201.1z"/>
			<path class="st17" d="M942.2,204.5c0,0,7.6,18.2,21.8,17.8c14.3-0.4,17.5-16.5,17.5-16.5L942.2,204.5z"/>
			<path class="st16" d="M962.4,215.3c-10.3-0.2-29.4-13.9-29.4-31v-26.6c0-6.2,4.3-11.3,9.6-11.3h39.4c5.3,0,9.6,5.1,9.6,11.3v25.1
				C991.8,200.7,974.3,215.5,962.4,215.3z"/>
			<path class="st10" d="M1018.4,244.4C1018.4,244.4,1018.4,244.4,1018.4,244.4c-11.6-2.9-22.5-5.2-32.6-6.4
				c-8.9,11.8-15.3,14.9-23.4,18.2c-13.1-1.8-24.1-18.3-24.1-18.7c-14.2,1.5-23.8,4.5-27.7,5.7c0,0,0,0,0,0
				c-1.1,0.1-26.6,4.1-65.5,62.2c7.8,6.9,18,11,29.2,11h17.6h14.2H1027c0-0.1,0-0.3,0-0.4h18c13.6,0,25.7-6.1,33.9-15.7
				C1051.6,253.3,1018.4,244.4,1018.4,244.4z"/>
			<path class="st13" d="M933.1,168.5c0,0,7.2-21.9,30.7-18.5c23.5,3.4,25.5,8.4,28,14.3c2.5,5.8,7.3-21.3,7.3-21.3l-27.7-8.2
				c0,0-33.5,3.8-36,9.4c-2.4,5.6-2.4,5.6-2.4,5.6L933.1,168.5z"/>
			<path class="st13" d="M989.3,171.4c-1.3-1.6-3.5-2.5-5.9-2.5h-12.5c-2.4,0-4,0.7-4.9,2c-0.4,0.6-0.6,1.3-0.7,2.1c0,0,0,0,0,0
				c-2.1-0.5-4.1-0.3-5.5,0.1l0,0v0c-0.1-0.8-0.3-1.5-0.7-2.2c-0.9-1.3-2.6-2-4.9-2h-12.5c-2.5,0-4.6,0.9-5.9,2.5
				c-1.2,1.5-1.6,3.4-1.2,5.5c1.4,7.1,9.5,8,13.6,8c1.3,0,2.1-0.1,2.3-0.1c3.8,0,6.5-2.2,8.4-6.8c0.3-0.8,0.9-2.3,0.9-3.8v0
				c1.3-0.4,3.4-0.7,5.5-0.1v0c0.1,1.6,0.6,3.1,0.9,3.9c1.9,4.6,4.6,6.8,8.4,6.8c0.2,0,1,0.1,2.3,0.1c4.1,0,12.2-0.9,13.6-7.9
				C990.9,174.8,990.5,172.9,989.3,171.4z M958.9,174.4c-0.1,1.4-0.6,2.7-0.9,3.3c-1.8,4.3-4.2,6.3-7.7,6.3h-0.1
				c0,0-3.4,0.4-6.9-0.3c-4.6-0.9-7.3-3.3-8.1-6.9c-0.4-1.9,0-3.5,1-4.8c1.2-1.4,3.1-2.2,5.3-2.2h12.5c2.1,0,3.5,0.6,4.2,1.7
				c0.4,0.6,0.5,1.2,0.6,1.9v0c-0.6,0.2-1,0.4-1.1,0.4c-0.2,0.1-0.4,0.4-0.2,0.7c0.1,0.2,0.3,0.3,0.4,0.3c0.1,0,0.1,0,0.2,0
				C958.2,174.6,958.5,174.5,958.9,174.4C958.9,174.4,958.9,174.4,958.9,174.4z M989.6,176.7c-0.7,3.6-3.5,5.9-8.1,6.9
				c-3.5,0.7-6.9,0.3-6.9,0.3h0c-3.4,0-5.9-2-7.7-6.3c-0.2-0.6-0.7-1.9-0.9-3.3c0,0,0,0,0,0c0.2,0.1,0.5,0.2,0.7,0.3
				c0.2,0.1,0.5,0,0.7-0.2c0.1-0.2,0-0.5-0.2-0.7c-0.4-0.2-0.8-0.4-1.2-0.5c0,0,0,0,0,0c0-0.7,0.2-1.3,0.6-1.8
				c0.7-1.1,2.2-1.7,4.2-1.7h12.5c2.2,0,4.2,0.8,5.3,2.2C989.7,173.2,990,174.9,989.6,176.7z"/>
		</g>
	</g>
	<g>
		<path class="st7" d="M1487.6,601.3h-229.9c-33,0-59.7-26.7-59.7-59.7V311.6c0-33,26.7-59.7,59.7-59.7h229.9
			c33,0,59.7,26.7,59.7,59.7v229.9C1547.4,574.5,1520.6,601.3,1487.6,601.3z"/>
		<path class="st8" d="M1502.1,337.9v170.6c0,4.3-0.6,8.4-1.7,12.3c-5.1,17.8-21.2,31.1-40.4,32c-0.7,0-1.4,0.1-2.2,0.1h-170.6
			c-0.3,0-0.6,0-0.9,0c-0.3,0-0.6,0-0.9,0c-19.3-0.8-35.5-13.9-40.7-31.7c-1.2-4-1.8-8.2-1.8-12.6V337.9c0-24.5,19.8-44.3,44.3-44.3
			h170.6C1482.3,293.6,1502.1,313.4,1502.1,337.9z"/>
		<g>
			<path class="st6" d="M1346.9,417c0,0-1,30.3-4.9,43.9l-30.7,21.4l115.7,17.3l-27.6-38.1c0,0-8.3-40.7-4-55.7
				C1399.8,390.7,1346.9,417,1346.9,417z"/>
			<path class="st9" d="M1346.8,421.1c0,0,9.1,22,26.4,21.5c17.2-0.5,21.2-20,21.2-20L1346.8,421.1z"/>
			<path class="st13" d="M1336.5,403.3c0,0-5.6-27.8-9.4-36.2c-3.9-8.4-7.1-46,35.9-47.9c0,0,16.5,1.9,25.6-3.6c0,0,0,5.5-2.3,7.4
				c0,0,14.9-3.6,26.5,9.4c11.7,12.9-7.8,58.3-6.8,68.9L1336.5,403.3z"/>
			<path class="st6" d="M1371.2,434.2c-12.5-0.2-35.5-16.8-35.5-37.4v-32.1c0-7.5,5.2-13.7,11.7-13.7h47.6c6.4,0,11.7,6.2,11.7,13.7
				v30.3C1406.6,416.5,1385.5,434.4,1371.2,434.2z"/>
			<path class="st13" d="M1335.7,381.8c0,0,0.1-19.3,15.4-22.3c15.3-3,49.5,9.4,54.4-4.7c4.9-14.1-66.2-13.8-69.7-4.9
				C1332.1,358.9,1335.7,381.8,1335.7,381.8z"/>
			<path class="st18" d="M1449.1,552.8h-161.9c-0.3,0-0.6,0-0.9,0c4.1-37.1,12.9-81.8,19.9-84.8c0,0,0.8-0.3,2.4-0.8c0,0,0,0,0,0
				c3.7-1.1,11.5-3.3,22.8-5c0,0,0.1,0,0.1,0c3.3-0.5,6.8-1,10.7-1.4c0,0.5,13.3,19.9,29.1,22.1c9.8-3.9,17.5-7.2,28.3-21.5
				c3.5,0.4,7.2,0.9,10.9,1.5c9,1.4,18.5,3.3,28.5,5.8c1.2,0.3,2.4,0.6,3.5,0.9h0c0.5,0.1,0.9,0.2,1.4,0.4c0,0,0.1,0.5,0.4,3.4
				c0,0,0,0,0,0C1444.7,480.1,1446.2,499.1,1449.1,552.8z"/>
			<g>
				<path class="st19" d="M1307.4,467.5c0,0-0.1,0-0.1,0c-0.6,0.1-1.4,0.4-2.5,0.7c-0.1,0-0.1,0-0.2,0.1c-0.1,0-0.1,0-0.1,0
					c-0.1,0-0.1,0-0.1,0c-8.5,3-29.9,13.8-59.8,52.7c5.2,17.8,21.4,31,40.7,31.7c0.3,0,0.6,0,0.9,0c0.3,0,0.6,0,0.9,0h16.1h26.9
					c0.5-27.4,0.8-51.2,1-67.6c0.1-7.2,0.2-13,0.2-16.9c0-4,0.1-6.1,0.1-6.1c0,0-0.1,0-0.1,0C1322.9,463.3,1312.5,466,1307.4,467.5z
					"/>
				<path class="st19" d="M1443.7,470.1c-2.2-0.8-3.7-1.1-4.4-1.3c0,0,0,0,0,0c-5.7-1.4-18.6-4.6-29-5.8c0,0,0,0,0,0
					c0,0.2,0,5.2,0.1,13.7v0c0,5.5,0.1,12.4,0.2,20.5c0.1,15.1,0.4,34.3,0.6,55.7h30.7h15.8c0.7,0,1.5,0,2.2-0.1
					c19.3-0.9,35.3-14.2,40.4-32C1472.4,484.2,1452.5,473.3,1443.7,470.1z"/>
			</g>
			<path class="st10" d="M1401.3,380.2c-1.5-1.8-3.9-2.8-6.7-2.8h-14c-2.7,0-4.5,0.8-5.5,2.3c-0.5,0.7-0.7,1.5-0.8,2.3c0,0,0,0,0,0
				c-2.4-0.6-4.6-0.3-6.2,0.1l0,0v0c-0.1-0.9-0.3-1.7-0.8-2.4c-1-1.5-2.9-2.3-5.5-2.3h-14c-2.8,0-5.2,1-6.7,2.8
				c-1.3,1.6-1.8,3.8-1.3,6.2c1.6,7.9,10.7,8.9,15.3,8.9c1.4,0,2.4-0.1,2.6-0.1c4.3,0,7.3-2.4,9.5-7.7c0.4-0.9,1-2.6,1.1-4.3v0
				c1.5-0.4,3.8-0.8,6.2-0.1v0c0.1,1.8,0.7,3.5,1.1,4.4c2.2,5.2,5.2,7.7,9.5,7.7c0.2,0,1.2,0.1,2.6,0.1c4.6,0,13.7-1,15.3-8.9
				C1403.1,384,1402.7,381.8,1401.3,380.2z M1367.1,383.5c-0.2,1.6-0.7,3-1,3.7c-2,4.8-4.8,7.1-8.6,7.1h-0.1c0,0-3.8,0.4-7.8-0.4
				c-5.2-1.1-8.3-3.7-9.1-7.7c-0.4-2.1,0-4,1.1-5.4c1.3-1.6,3.5-2.5,6-2.5h14c2.3,0,3.9,0.6,4.8,1.9c0.4,0.6,0.6,1.4,0.7,2.2
				c0,0,0,0,0,0c-0.7,0.2-1.2,0.4-1.2,0.5c-0.3,0.1-0.4,0.5-0.3,0.7c0.1,0.2,0.3,0.3,0.5,0.3c0.1,0,0.2,0,0.2,0
				C1366.4,383.8,1366.7,383.7,1367.1,383.5C1367.1,383.5,1367.1,383.5,1367.1,383.5z M1401.7,386.2c-0.8,4.1-3.9,6.7-9.1,7.7
				c-4,0.8-7.7,0.4-7.8,0.4h-0.1c-3.9,0-6.6-2.3-8.6-7.1c-0.3-0.6-0.8-2.2-1-3.8c0,0,0,0,0,0c0.3,0.1,0.5,0.2,0.8,0.4
				c0.3,0.1,0.6,0,0.7-0.2c0.1-0.3,0-0.6-0.2-0.7c-0.4-0.2-0.9-0.4-1.3-0.6c0,0,0,0,0,0c0.1-0.7,0.3-1.5,0.7-2.1
				c0.8-1.2,2.4-1.9,4.8-1.9h14c2.5,0,4.7,0.9,6,2.5C1401.8,382.2,1402.2,384.1,1401.7,386.2z"/>
		</g>
	</g>
	<g>
		<path class="st7" d="M1020.3,833.7H753.7c-38.3,0-69.3-31-69.3-69.3V497.8c0-38.3,31-69.3,69.3-69.3h266.6
			c38.3,0,69.3,31,69.3,69.3v266.6C1089.6,802.7,1058.6,833.7,1020.3,833.7z"/>
		<path class="st8" d="M1037.1,528.2v197.9c0,21.6-13.3,40-32.1,47.7c-1.1,0.4-2.2,0.9-3.4,1.2c-5,1.6-10.4,2.5-15.9,2.5H787.8
			c-28.4,0-51.4-23-51.4-51.4V528.2c0-28.4,23-51.4,51.4-51.4h197.9C1014.1,476.8,1037.1,499.8,1037.1,528.2z"/>
		<g>
			<path class="st20" d="M888.5,529.3L888.5,529.3c-5.5-1.3-12-1.6-19.5-0.6c0,0-13.4,1.3-26,9.8c-10,6.8-24.5,21.4-8.3,61.5
				l7.7,13.8c-2.6,30-14.8,30-14.8,30s5.4,2.6,8,2.6c0,0,3.8-1.4,4.5-3.5c0,0-0.7,3.3-1.7,4.3c0,0,20.9,2,31.3-5.9
				c5.7-4.3,11.9-14.3,15.9-24.6l15.8,1.1c0.2,6.8-2.3,14.5-9.8,22.7c0,0,19.5,1.9,26-3.5c0,0-1.3,2.6-2.5,3.8c0,0,21.8,0.8,30.7-6
				C954.6,628.1,948.9,516.8,888.5,529.3z"/>
			<path class="st21" d="M963.9,777.5h-154c-1.9-12-3-23.1-2.3-33.8c0.9-13.4,6.8-25.5,13.8-35.4c11.4-16,25.6-26,25.6-26
				s0.4-0.1,1-0.2c1.1-0.2,3-0.5,5-0.7h0c1.9-1,2.7-8,2.9-16.2c0.1-2.3,0.1-4.6,0.1-7c0-2,0-4.1-0.1-6.1c0-0.9,0-1.9-0.1-2.8
				c0-0.3,0-0.5,0-0.8c0-0.4,0-0.8,0-1.2c0-0.3,0-0.6,0-0.9c0-0.5,0-0.9,0-1.4c0-0.6,0-1.2-0.1-1.8c0-0.1,0-0.2,0-0.4
				c0-0.6,0-1.1-0.1-1.6c0-0.6-0.1-1.3-0.1-1.9l0-0.5c0-1-0.1-1.8-0.1-2.6c0-0.2,0-0.4,0-0.6c0-0.2,0-0.5,0-0.7c0-0.2,0-0.4,0-0.6
				c0-0.7-0.1-1.2-0.1-1.7c0-0.1,0-0.2,0-0.3c0-0.1,0-0.2,0-0.3c0-0.4,0-0.7,0-0.7l26-5.1h0l17.8-3.5l2.1-0.4l0.5-0.1v0
				c0,6.7,0.3,12.9,1,18.5c0.5,4.8,1.3,9.1,2.2,13.1v0c3.2,14.4,8.3,23,11.9,24.4h0c0.1,0.1,0.2,0.1,0.4,0.1
				C934.7,682.1,961.6,728.1,963.9,777.5z"/>
			<path class="st22" d="M855,631.6c0,0,1,13.8,1,26.8c24.5-0.7,37.5-23.1,42.8-35.5L855,631.6z"/>
			<path class="st21" d="M846.8,643.9c0,0,58,1,58.1-35.2c0-36.1,7.6-60.4-29.5-62.5c-37-2.1-44.3,11.6-47.2,23.7
				C825.2,581.9,831.7,642.7,846.8,643.9z"/>
			<path class="st20" d="M849,545.3c0,0,15.9,42.4,40.3,48.7c24.4,6.3,35-0.3,35-0.3s-18.7-14.9-22.6-40.8
				C901.6,552.9,860.9,525.1,849,545.3z"/>
			<path class="st20" d="M852.9,548.7c0,0-11.9,9.5-14.8,18.7c-2.9,9.2-4.2,28.2-9.7,27.5c0,0-12-28.8,1.5-45.1
				C844.2,532.5,852.9,548.7,852.9,548.7z"/>
			<path class="st20" d="M850.7,550.2c0,0,11.3,44.4,42.1,58.6c0,0-30.8-27.3-33.4-56.6C856.8,522.9,850.7,550.2,850.7,550.2z"/>
			<path class="st14" d="M997.5,755.6c-1-2.4-2-4.7-2.9-7c-0.5-1.1-1-2.3-1.4-3.4c0-0.1,0-0.1,0-0.1c-13.4-31.8-24-55.9-25.1-57.6
				c-3-5.1-43.9-10.1-49.8-10c-4.3,0-6.7-14.4-7.7-22.3c-0.3-2.2-2.7-3.3-4.5-2.1c-0.4,0.3-0.9,0.6-1.3,0.9c-0.5,0.3-1.1,0.7-1.6,1
				c-0.5,0.3-1.1,0.7-1.6,1c-0.4,0.2-0.7,0.4-1.1,0.6c-0.4,0.2-0.8,0.4-1.2,0.7c-0.4,0.2-0.7,0.4-1.1,0.6c-0.4,0.2-0.7,0.4-1.1,0.6
				c-0.4,0.2-0.7,0.4-1.1,0.5c-0.3,0.1-0.6,0.3-0.9,0.4c-0.5,0.2-1.1,0.5-1.6,0.7c-0.4,0.2-0.8,0.3-1.2,0.5
				c-0.3,0.1-0.5,0.2-0.8,0.3c-1.5,0.6-3,1.1-4.5,1.6c-12.5,4.1-24.1,4.5-30.8,2.9c-0.2,0-0.3-0.1-0.5-0.1c-3.4-0.9-6.5,2.2-5.8,5.6
				c0.9,4.1,1.1,8.6-1.2,10.8c-10.4,2.3-35.6,8.8-40.4,17.7c-3.4,6.4-3.7,44.4-5.5,78.1h4h48.5h130.6c5.6,0,10.9-0.9,15.9-2.5
				c1.1-0.4,2.3-0.8,3.4-1.2C1002.4,767.6,999.9,761.5,997.5,755.6z"/>
			<path class="st15" d="M941.9,777.5h-24.6c6.2-10.3,12.1-17.8,15.6-18.2C935.9,759,939,766.7,941.9,777.5z"/>
			<path class="st15" d="M918.2,677.4c0,0-30.6,19.4-53.7,14.8c0,0-5.6-3.5,2.1-7c7.2-3.3,23.9-13.1,20.3-22.7
				c6.4-2.1,12.9-5.1,19.1-9.4c1.8-1.2,4.3-0.1,4.5,2.1C911.4,663,913.8,677.4,918.2,677.4z"/>
		</g>
	</g>
	<g>
		<path class="st15" d="M1235.7,784.1c0,0,46.6,47.7,48.9,66c2.3,18.4-22.5,47.1-22.5,47.1L1235.7,784.1z"/>
		<path class="st23" d="M1214.9,1289.2c0,0-1.6,25.9-6.6,26.3c-0.7,0-25.4,0-25.4,0l-31.6-0.2c0,0,0.2-7.6,9.4-9.2
			c9.2-1.6,24.7-8.1,30.3-20.3C1196.8,1273,1214.9,1289.2,1214.9,1289.2z"/>
		<path class="st23" d="M1285.2,1289.2c0,0-1.6,25.9-6.6,26.3c-0.7,0-25.4,0-25.4,0l-31.6-0.2c0,0,0.2-7.6,9.4-9.2
			c9.2-1.6,24.7-8.1,30.3-20.3C1267.2,1273,1285.2,1289.2,1285.2,1289.2z"/>
		<path class="st23" d="M1179.8,1010.7c0,0,8.3,52.9,39.1,146.7c30.8,93.8,35,134.5,35,134.5l33.1-0.9c0,0,0.3-102.6-13.9-149.8
			c-14.2-47.2-3.1-170.1-3.1-170.1L1179.8,1010.7z"/>
		<path class="st24" d="M1163.8,974c0,0-1.2,79.7,12.6,177.5c13.8,97.8,9.1,139.3,9.1,139.3l33,1.1c0,0,19.7-97.9,14.1-146.8
			c-5.7-49,27-168,27-168L1163.8,974z"/>
		<path class="st6" d="M1227.7,787.6l-17.6,11.5l-25.4-4.7c0.4-2.1,2-10.6,3.6-18.3c0.1-0.5,0.2-0.9,0.3-1.4
			c1.3-6.6,2.4-12.2,2.4-12.2l23.7-10.5l8.9-3.9c0,0.1-0.7,7.3-0.8,8.3C1221.1,775,1227.7,787.6,1227.7,787.6z"/>
		<path class="st15" d="M1191.2,781.8c0.5-0.2,30.6-9.1,33.9-8c3.3,1.1,5.2,7.4,5.2,7.4l-49.3,11.1
			C1181,792.3,1184.9,784.4,1191.2,781.8z"/>
		<path class="st25" d="M1272.3,983.8c-5.1,23.3-90.1,26.1-112,4.9c-2.5-2.4-2.6-13.6-1.7-28.7c1.8-29.5,7.7-74,8-96.7
			c0.1-11,1.6-22.2,3.6-32.4c4.3-21.7,10.8-38.7,10.8-38.7s41.5-13.4,49.3-11.1C1267.7,792.2,1277.4,960.6,1272.3,983.8z"/>
		<path class="st15" d="M1158.6,960c1.8-29.5,7.7-74,8-96.7c0.1-11,1.6-22.2,3.6-32.4l25-4.4C1195.2,826.6,1219.6,926.3,1158.6,960z
			"/>
		<path class="st6" d="M1172.1,918.9c0,0,1.7,4.1-1.9,6.8c-3.6,2.7-5.9,7.2-5.1,10.4c0.8,3.2,8.7,8.5,11.4,7.7
			c2.7-0.9,8.2-5.1,7.7-6.8s3.7-15-2.9-20.1C1174.7,911.7,1172.1,918.9,1172.1,918.9z"/>
		<path class="st25" d="M1200.1,786.3c0,0-24.3,4.6-43.7,33.1c-19.4,28.6-32.2,49.8-28.6,60.1c3.6,10.3,36.1,46,41.8,46
			c5.6,0,14.7-4.1,15.2-13.3c0,0-22.9-34.4-18.4-39.5c1.9-2.2,29.8-24.8,33.7-14.6C1206.6,875.2,1200.1,786.3,1200.1,786.3z"/>
		<path class="st26" d="M1221,756.8c-5.2,8.8-24.6,16.5-32.7,19.3c0.1-0.5,0.2-0.9,0.3-1.4c1.3-6.6,2.4-12.2,2.4-12.2l23.7-10.5
			C1219.9,752,1223.1,753.2,1221,756.8z"/>
		<path class="st6" d="M1182,761.1c0,0,38.2,11.9,45.3-12c7.1-23.9,16.8-38.5-7.4-47.1c-24.1-8.6-31.6-0.9-35.9,6.5
			C1179.7,715.9,1172.2,757.4,1182,761.1z"/>
		<path class="st23" d="M1185.5,706.2c0,0,2.4,27.8,8.2,26.6s11-2.1,10.1,6.3c-0.8,8.4-4.8,21.7,13,23.2
			c17.7,1.5,39.2-47.9,34.3-56.6C1237.1,680.7,1165.2,675.7,1185.5,706.2z"/>
	</g>
	<path class="st13" d="M633.7,826.9c0,0,2-22-22.5-22c0,0,7.4,2,11.3,6c0,0-15.6-9.2-32.7,4.9c-17,14.1-6.4,49.5-11.6,56.2
		c-5.2,6.7-25.3,8.1-22.9,29.8c2.5,21.7,64,48.9,60,66.9c0,0,24.1-35.4,6.9-51.6c0,0,8.4,7.9,9.3,17.3c0,0,2.3-18.4-9.4-24.2
		c-10.3-5.2-18.8-24.2-17.9-27.6C605,879.3,633.7,826.9,633.7,826.9z"/>
	<path class="st9" d="M611.4,930.1c-3.8-18.2-27.4-23.9-38.6-9c-2,2.7-3.4,5.8-3.9,9.6c-2.5,20.7,30.5,104.9,35.2,112.5
		c8.6,13.9,59.4,61.5,59.4,61.5l9.4-5.7c0,0-36-60.9-41.6-66.6C624.9,1025.8,618.6,964.7,611.4,930.1z"/>
	<path class="st27" d="M606,918.8c0,0,7.2,7.5,10.5,16.4c0,0-11.5,32.9-38.3,37.1C578.1,972.4,599.4,918.8,606,918.8z"/>
	<path class="st13" d="M626.7,823.8c0.3-1.3-29.1,13.3-30.5,14.9c-13.8,15.3-9.9,35.2-2,35.4c5.1,0.1,4.1,8.5,4.1,8.5l56.3-23.8
		C654.6,858.8,647.9,819.3,626.7,823.8z"/>
	<path class="st19" d="M564.8,1301.5l-12.2-1.8c0,0-41-32.6-47.1-93.4c-0.6-6.2-0.8-12.5-0.3-18.8c0.1-0.7,0-1.5-0.4-2.1
		c0,0,0,0,0,0c-1.3-2-4.6-7.1-9-14.2c-4.4-7.1-11.8-20.4-20-35.4c-14.8-27-32-59.2-37.9-69.5c-18.8-32.8-9.7-54.8-9.7-54.8
		s52.5-5.2,66.9-17.8l5.2,8c0,0,11.4,50.3,10.8,50.6c0.6,1.7,1.1,3.5,1.7,5.2c9,27.7,19.3,62.3,24.9,90.5
		c3.2,15.9,4.8,29.7,3.9,39.1c-0.3,3.2,0.1,8.2,0.9,14.3C547.5,1237.6,564.8,1301.5,564.8,1301.5z"/>
	<path class="st20" d="M590.4,1316.9h-50.9c0,0-1.2-7.8,1.4-13.6c2.5-5.6,6.2-5.8,0.5-14.7c3.2,3.3,13.6,4.7,21,3.7
		c0.9,1.5,5.8,11.3,8.8,13.4C574.5,1308.1,589.3,1307.3,590.4,1316.9z"/>
	<path class="st20" d="M512.7,1057.5c-4.4,24.5-14.9,65.3-36.9,78.3c-14.8-27-32-59.2-37.9-69.5c-18.8-32.8-9.7-54.8-9.7-54.8
		s52.5-5.2,66.9-17.8l5.2,8c0,0,11.4,50.3,10.8,50.6C511.5,1054,512.1,1055.8,512.7,1057.5z"/>
	<path class="st19" d="M477,1015.3l0.2-9.5c-19,2.4-65.4-22.7-65.4-22.7s-19.8,13.2-22.5,50.9c-1.3,18.4-9.7,96.1-10.6,119.4
		c-0.3,8.4-0.5,14.4-0.5,16.8c0,0,0,0,0,0c0,0.7-0.4,1.4-0.8,2c-3.9,5-7.3,10.3-10.3,15.7c-28.9,53.8-13.8,126.9-13.8,126.9l6.7-1.7
		c0,0,24.5-75.8,40.4-108.6c2.7-5.6,5.2-9.9,7.2-12.4c6-7.3,12.3-19.7,18.6-34.6c11.8-28.2,23.3-65.4,31.4-94.2
		C458.3,1063.4,477,1015.3,477,1015.3z"/>
	<path class="st6" d="M587.9,951.8c-31-7.1-11.2-50.7-9.4-49.9c4.3-0.9,13.7-8.4,22.2-23.1l1.1,1l19,16.7c0,0-4.4,6.5-8.1,12.8
		c-2.9,5-5.4,9.9-5,11.6C609.3,922.1,596.2,953.7,587.9,951.8z"/>
	<path class="st9" d="M620.8,896.5c0,0-4.4,6.5-8.1,12.8c-11.8-7.3-11.8-21.9-10.9-29.5L620.8,896.5z"/>
	<path class="st6" d="M621.4,904.8c0,0-28.7-16-18.5-33.7c10.2-17.7,13.4-31.8,32.2-22.3c18.8,9.5,18.4,18.3,16.4,25
		C649.5,880.6,629.1,908.5,621.4,904.8z"/>
	<path class="st13" d="M656.4,863.5c-1.3-7.9-5.3-8.6-8.1-8.1c-10.6-17.5-27.9-10.7-27.9-10.7c-9.3,11.6-22.6,13.6-22.6,13.6
		s3.3,6.2,17.1,10c4.2,1.2,9,0.5,13.6-1.1c-9.5,5.3-19.5,7.3-19.5,7.3c18.1,1.7,35.3-14.9,37.1-16.7c0.8,2.6,2.3,7.9,1.4,11.9
		c-1.2,5.3-5.9,15-3,16.2C644.3,886,658.3,875.3,656.4,863.5z"/>
	<path class="st20" d="M393.7,1316.9h-50.9c0,0-1.2-7.8,1.4-13.6c2.5-5.6,6.5-8.2,5.6-15c3.2,3.3,8.5,7.1,15.9,6.1
		c0.9,1.5,5.8,9.3,8.8,11.4C377.9,1308.1,392.7,1307.3,393.7,1316.9z"/>
	<path class="st28" d="M591.6,986.3c-6.5,2.3-15.7,3.5-25.1,4.6c-13.4,1.5-27.2,2.5-34.4,5.3c-2.6,1.1-4.4,2.4-5,4
		c-3.1,9.4-17,24-17,24c-88.6-4-98.3-41.1-98.3-41.1c59.6-69.3,160.5-89.4,160.5-89.4s7.2-3.1,25.4,11.4
		c12.1,9.6,10.5,13.3,10.5,13.3S610.8,979.6,591.6,986.3z"/>
	<path class="st27" d="M566.4,990.9c-13.4,1.5-27.2,2.5-34.4,5.3c-3-44.2,17.9-77.4,17.9-77.4S563.5,974.2,566.4,990.9z"/>
	<path class="st7" d="M962.4,1315.5H717.2c-35.2,0-63.7-28.5-63.7-63.7v-245.2c0-35.2,28.5-63.7,63.7-63.7h245.2
		c35.2,0,63.7,28.5,63.7,63.7v245.2C1026.1,1287,997.6,1315.5,962.4,1315.5z"/>
	<path class="st8" d="M977.9,1034.6v181.9c0,12.5-4.8,23.8-12.7,32.2c-8.6,9.3-20.9,15.1-34.6,15.1H748.6c-14,0-26.6-6.1-35.3-15.8
		c-7.5-8.4-12-19.4-12-31.5v-181.9c0-26.1,21.2-47.3,47.3-47.3h181.9C956.7,987.4,977.9,1008.5,977.9,1034.6z"/>
	<g>
		<path class="st13" d="M804,1124.3c0,0-26.4-47.9-2.2-69c24.2-21.2,66.9-8.5,74.7,0c7.8,8.5,18.3,32.8-3.4,67.3L804,1124.3z"/>
		<path class="st16" d="M814.9,1144c0,0-1,29.6-4.7,42.8l-30,20.9l112.8,16.9l-26.9-37.2c0,0-8.1-39.7-3.9-54.3
			C866.5,1118.5,814.9,1144,814.9,1144z"/>
		<path class="st17" d="M814.8,1148.1c0,0,8.9,21.5,25.7,21c16.8-0.5,20.6-19.5,20.6-19.5L814.8,1148.1z"/>
		<path class="st16" d="M838.6,1160.8c-12.2-0.2-34.6-16.4-34.6-36.5V1093c0-7.3,5.1-13.3,11.4-13.3h46.4c6.2,0,11.4,6,11.4,13.3
			v29.5C873.1,1143.6,852.5,1161.1,838.6,1160.8z"/>
		<path class="st29" d="M965.2,1248.8c-8.6,9.3-20.9,15.1-34.6,15.1H748.6c-14,0-26.6-6.1-35.3-15.8c39-51.8,63.7-55.1,64.4-55.2
			c4.6-1.4,15.8-4.7,32.6-6.4c0,0.4,13.1,19.6,28.5,21.7c9.6-3.8,16.7-7.5,27.2-21.4c11.9,1.4,25,4.1,38.7,7.6l0-0.1
			C904.7,1194.3,927.8,1200.1,965.2,1248.8z"/>
		<path class="st13" d="M804,1105.7c0,0,8.4-25.8,36.1-21.8c27.7,4,30.1,9.9,33,16.8c2.9,6.9,8.6-25.1,8.6-25.1l-32.7-9.7
			c0,0-39.5,4.5-42.4,11.1c-2.8,6.6-2.8,6.6-2.8,6.6L804,1105.7z"/>
		<path class="st13" d="M836.3,1055.8c0,0-29.3-26.6-16.7-32.3C832.2,1017.9,836.3,1055.8,836.3,1055.8z"/>
		<path class="st13" d="M835.1,1056.5c0,0-37-13.9-27.4-23.8C817.3,1022.8,835.1,1056.5,835.1,1056.5z"/>
		<path class="st13" d="M837.5,1057.3c0,0-6.1-34.3,8.6-34C860.7,1023.5,837.5,1057.3,837.5,1057.3z"/>
		<path class="st13" d="M839.6,1055c0,0,15.8-36.9,30.6-33.4C884.9,1025.1,839.6,1055,839.6,1055z"/>
		<path class="st13" d="M838.8,1057.3c0,0,25.2-31.2,38.5-23.9C890.5,1040.7,838.8,1057.3,838.8,1057.3z"/>
	</g>
	<path class="st6" d="M580.2,910.3c0,0-33.5,3.3-36.2,25.1c-2.7,21.8,32.1,110.5,37.1,118.5c9.1,14.6,62.6,64.8,62.6,64.8l9.9-6
		c0,0-37.9-64.2-43.8-70.2C600.5,1033.1,591.5,917.8,580.2,910.3z"/>
	<path class="st28" d="M545,948.5c0.1,0.5,30.9,10.1,50.8,0c0,0,4.2-45.8-19.5-43.3c-23.7,2.5-37.7,10-38.3,21.3
		C537.4,937.8,545,948.5,545,948.5z"/>
	<path class="st6" d="M643.7,1118.7c0,0-4.1,15.7,0,22.8c4.1,7.1,9.9,12.6,9.9,12.6v-41.4L643.7,1118.7z"/>
</g>
</svg>
