<svg id="Слой_2" data-name="Слой 2" xmlns="http://www.w3.org/2000/svg" viewBox="0 0 1890.65 1171.29"><defs><style>.cls-1{fill:#ebf2f9;}.cls-2{fill:#e0e0e0;}.cls-3{fill:#cecece;}.cls-4{fill:#fff;}.cls-5{fill:#d86713;}.cls-6{fill:#f1a34f;}.cls-7{fill:#c95c12;}.cls-8{fill:#ffd5ab;}.cls-9{fill:#4a75cb;}.cls-10{fill:#699dee;}.cls-11{fill:#a6c7f9;}.cls-12{fill:#1c468a;}.cls-13{fill:#efba95;}.cls-14{fill:#d88029;}.cls-15{fill:#233862;}.cls-16{fill:#2b478b;}.cls-17{fill:#e2923d;}.cls-18{fill:#8cb3ed;}.cls-19{fill:#82b378;}.cls-20{fill:#a8d29f;}.cls-21{fill:#ffb973;}</style></defs><title>no_orders_vector</title><path class="cls-1" d="M1638.18,817.34s188.4,35,248.38-97.54c77.81-172-82-302.45-204.65-278.15-267.16,53-263.82-729.14-625.88-284.33C960.24,275,831.14,63.94,674.83,324.43c-36.53,60.88-259.79-56.79-370.9-8.61-217.45,94.29-118,503.11,37.35,504.71S1638.18,817.34,1638.18,817.34Z" transform="translate(-16.43 -19.91)"/><rect class="cls-2" x="1196.27" y="122.52" width="508.3" height="1048.76"/><rect class="cls-3" x="1195.81" y="122.52" width="90.63" height="1048.76"/><rect class="cls-4" x="1308.6" y="122.52" width="508.3" height="1048.76"/><rect class="cls-3" x="1705.78" y="122.52" width="94.31" height="1048.76"/><rect class="cls-5" x="730.44" y="868.15" width="191.08" height="191.08"/><rect class="cls-6" x="789.35" y="868.15" width="191.08" height="191.08"/><polygon class="cls-7" points="789.35 868.15 730.44 903.87 730.44 868.15 789.35 868.15"/><polygon class="cls-8" points="826.14 979.75 752.07 979.75 755.18 971.1 752.07 961.75 825.45 961.75 820.95 971.44 826.14 979.75"/><polygon class="cls-7" points="789.1 961.75 789.1 979.75 752.07 979.75 755.18 971.1 752.07 961.75 789.1 961.75"/><rect class="cls-5" x="741.92" y="758.28" width="109.88" height="109.88"/><rect class="cls-6" x="775.8" y="758.28" width="109.88" height="109.88"/><polygon class="cls-7" points="775.8 758.28 741.92 778.82 741.92 758.28 775.8 758.28"/><rect class="cls-9" x="819.32" y="781.62" width="86.54" height="86.54"/><rect class="cls-10" x="846" y="781.62" width="86.54" height="86.54"/><rect class="cls-1" x="870.7" y="863.94" width="32.75" height="16.64" transform="translate(-170.08 170.7) rotate(-11.29)"/><polygon class="cls-1" points="861.57 803.68 830.3 803.68 831.62 800.02 830.3 796.08 861.28 796.08 859.38 800.17 861.57 803.68"/><polygon class="cls-11" points="845.94 796.08 845.94 803.68 830.3 803.68 831.62 800.02 830.3 796.08 845.94 796.08"/><polygon class="cls-8" points="794.29 782.05 757.34 782.05 758.89 777.74 757.34 773.08 793.94 773.08 791.7 777.91 794.29 782.05"/><polygon class="cls-7" points="775.81 773.08 775.81 782.05 757.34 782.05 758.89 777.74 757.34 773.08 775.81 773.08"/><polygon class="cls-8" points="794.29 848.41 757.34 848.41 758.89 844.1 757.34 839.43 793.94 839.43 791.7 844.27 794.29 848.41"/><polygon class="cls-7" points="775.81 839.43 775.81 848.41 757.34 848.41 758.89 844.1 757.34 839.43 775.81 839.43"/><rect class="cls-9" x="892.88" y="907.22" width="152.02" height="152.02"/><rect class="cls-10" x="939.75" y="907.22" width="152.02" height="152.02"/><rect class="cls-1" x="1060.69" y="939.74" width="37.14" height="18.87" transform="translate(-181.42 209.82) rotate(-11.29)"/><polygon class="cls-1" points="959.94 931.29 918.74 931.29 920.47 926.48 918.74 921.28 959.55 921.28 957.05 926.67 959.94 931.29"/><polygon class="cls-11" points="939.34 921.28 939.34 931.29 918.74 931.29 920.47 926.48 918.74 921.28 939.34 921.28"/><polygon class="cls-1" points="959.94 1044.53 918.74 1044.53 920.47 1039.71 918.74 1034.52 959.55 1034.52 957.05 1039.91 959.94 1044.53"/><polygon class="cls-11" points="939.34 1034.52 939.34 1044.53 918.74 1044.53 920.47 1039.71 918.74 1034.52 939.34 1034.52"/><path class="cls-12" d="M694.67,1112.35a20.87,20.87,0,1,0,20.87,20.87A20.87,20.87,0,0,0,694.67,1112.35Z" transform="translate(-16.43 -19.91)"/><path class="cls-10" d="M694.67,1119.65A13.39,13.39,0,1,0,708.06,1133,13.39,13.39,0,0,0,694.67,1119.65Z" transform="translate(-16.43 -19.91)"/><path class="cls-12" d="M1114.71,1112.35a20.87,20.87,0,1,0,20.87,20.87A20.87,20.87,0,0,0,1114.71,1112.35Z" transform="translate(-16.43 -19.91)"/><path class="cls-10" d="M1114.71,1119.65A13.39,13.39,0,1,0,1128.1,1133,13.39,13.39,0,0,0,1114.71,1119.65Z" transform="translate(-16.43 -19.91)"/><path class="cls-12" d="M1158.2,1079.15H731.29L560.9,613.76a11.08,11.08,0,0,0-9.93-7.25l-56.82-2.34a11.06,11.06,0,0,0-.91,22.1l49.43,2,165.07,450.84H670.62a10.72,10.72,0,0,0-10.69,10.69v12.76a10.73,10.73,0,0,0,10.69,10.7H1158.2a10.73,10.73,0,0,0,10.69-10.7v-12.76A10.72,10.72,0,0,0,1158.2,1079.15Z" transform="translate(-16.43 -19.91)"/><g id="man"><path class="cls-13" d="M486.62,570.3s21.26,14,37.62,14.64,26.12,17,28.37,23.82-4.25,17.3-9.3,11.09c-7.62-9.38-23.19-2.06-38.06-14.35s-37.06-20.17-37.06-20.17Z" transform="translate(-16.43 -19.91)"/><path class="cls-14" d="M297,340.21s45.67,163.35,82.11,196.34c18.9,17.12,123.57,86.93,132.19,64.66,0,0,12.93-15.8,5.75-25.14,0,0-88-63.28-94.84-67.54-11.93-7.41,2.76-155.73-28.49-181.28S314.44,295.1,297,340.21Z" transform="translate(-16.43 -19.91)"/><path class="cls-15" d="M481.37,1153.72s-3.41.12-9,.28H386.15a15.3,15.3,0,0,1-4.11-.85c-7.75-3.69-4.17-37.86-4.17-37.86s33.55-28,38.65-7.17,33,29.61,48.81,31.85S481.37,1153.72,481.37,1153.72Z" transform="translate(-16.43 -19.91)"/><path class="cls-16" d="M208.94,731c16.6,33.86,55.95,81,70.46,117.58,3.44,8.64,5.48,16.68,5.51,23.82.34,82,89.38,243.77,89.38,243.77,8.49,5.49,44.73-5.5,44.73-5.5s-4.2-35.95-25-160.14C382.55,882,363.21,780,348.17,702.27c-3.87-20-7.47-38.41-10.55-54.21C330.94,614,326.56,592,326.56,592l-34.53.57-93.25,1.54S160.08,631.21,208.94,731Z" transform="translate(-16.43 -19.91)"/><path class="cls-15" d="M208.94,731c16.6,33.86,55.95,81,70.46,117.58C300,805,331.18,738.83,348.17,702.27c-3.87-20-7.47-38.41-10.55-54.21C324.2,631.63,307,610.58,292,592.56l-93.25,1.54S160.08,631.21,208.94,731Z" transform="translate(-16.43 -19.91)"/><path class="cls-15" d="M96.1,1154H49.35c-4.36-3.4-8.09-9.32-9.68-17.55-2.71-14-18.78-21-22.66-32.34s12.91-28.26,12.91-28.26l5.64-7.91,29.24,5.62s3,20.35,2.76,35.71,5.6,31.67,19.35,34.09C96.91,1145.12,96.87,1151,96.1,1154Z" transform="translate(-16.43 -19.91)"/><path class="cls-16" d="M225.28,933.13C207.76,964.94,78.5,1112.68,78.5,1112.68s-40.75-13.76-48-38.51c0,0,76.46-125.62,111.22-179.15,9.94-15.31,15.47-249.31,50.9-291.95,44.41-53.46,124.82,48,124.82,48s-25.16,81.84-33,107.61C267.12,815.81,237.35,911.2,225.28,933.13Z" transform="translate(-16.43 -19.91)"/><path class="cls-13" d="M474.4,582.52s21.27,14,37.63,14.63,26.12,17,28.37,23.83-4.26,17.3-9.3,11.08c-7.62-9.38-23.19-2.06-38.06-14.34S456,597.55,456,597.55Z" transform="translate(-16.43 -19.91)"/><path class="cls-13" d="M397.13,310.4c12.82-21.29,18.25-34.76,18.25-34.76L385.25,222.8c-17.55,49.49-58.07,60.68-58.07,60.68s47.38,52,85.54,54.62A87.53,87.53,0,0,0,397.13,310.4Z" transform="translate(-16.43 -19.91)"/><path class="cls-13" d="M426.08,278.91s-59.74-12.71-51.25-49.79,6.5-63.69,45-57.14,42.65,22.39,42.82,35.45S441.83,281.26,426.08,278.91Z" transform="translate(-16.43 -19.91)"/><path class="cls-15" d="M374.25,231.69s19.55-46.46,73.6-33.91c37,8.59,27.32-29,25.14-35.18,0,0-28.76-5.41-58.5-10.15C352.06,142.48,370.92,222.33,374.25,231.69Z" transform="translate(-16.43 -19.91)"/><path class="cls-17" d="M424.35,393.09c-1.18,18.54-6.77,46.63-14.36,77.8-2.95,12.07-6.2,24.6-9.6,37.22-5.53,20.48-11.28,41.07-17.22,60.46l-.23.69c-.43,2-1.09,4.06-1.7,6-5.15,17.12-10.09,33-14.39,46.42-8.24,25.74-8.29,40.07-14.87,43-13.21,5.84-65.24-.42-96.41-13.93-26.33-11.22-66.46-45-66.26-62.05.24-19.73,26.72-79.13,44.27-148.49,21.65-84.72,69.68-152.37,109.73-166.32,3-1,6.19,5.31,17.8,16.46,10.73,10.29,24.24,16.72,37,18.08l7.63,12.73C416.09,339.32,426.27,362.85,424.35,393.09Z" transform="translate(-16.43 -19.91)"/><path class="cls-14" d="M400.39,508.11c-2.95,12.07,3.4-12.62,0,0-5.53,20.48-11.28,41.07-17.22,60.46l-.23.69c-.43,2-1.09,4.06-1.7,6-5.15,17.12-10.09,33-14.39,46.42-83.3-105.81-36.06-232.53-36.06-232.53Z" transform="translate(-16.43 -19.91)"/><path class="cls-17" d="M283.71,353.5s45.67,163.36,82.11,196.34C384.72,567,489.39,636.78,498,614.5c0,0,12.93-15.8,5.75-25.14,0,0-88-63.28-94.84-67.53-11.93-7.41,2.76-155.74-28.49-181.28S301.15,308.39,283.71,353.5Z" transform="translate(-16.43 -19.91)"/><path class="cls-15" d="M407.24,208.57s6.72-11.11,24.63-12.91c0,0-52.66,1.1-54.85,17.28s-2.77,18.75-2.77,18.75S402.07,232.82,407.24,208.57Z" transform="translate(-16.43 -19.91)"/></g><rect class="cls-18" x="1325.41" y="660.59" width="115.29" height="102.45"/><rect class="cls-11" x="1346.48" y="660.59" width="115.29" height="102.45"/><rect class="cls-18" x="1473.41" y="645.19" width="145.26" height="117.85"/><rect class="cls-11" x="1499.96" y="645.19" width="145.26" height="117.85"/><path class="cls-19" d="M1642.72,994.28s-29.15,24.11-34.84,22.65,21.31-26,21.31-26c-10.16-5.43-41.73-2-41.73-2s-10.52,37.71-15.71,34.74,10.85-32.87,10.85-32.87c-11.32-.76-25.19,8.58-25.19,8.58-19,16.69,1.25,42.95,1.25,42.95a65.23,65.23,0,0,1-15.89,24.81,57.21,57.21,0,0,0-18.33,39.26l3.11.31s5-23.68,14-34.7l1.34-1.52c1.45-1.49,2.47-2.61,3.15-3.45,4.46-4.76,10.63-10.85,13.61-11.44a7,7,0,0,1-.13-1.66c0,.54.08,1.08.13,1.66,1,13.28,24.17,24.87,38.41,27.26s9.85-4.13,4.94-13.79-20.45-14-24-18.42,3.78-4.46,12.37-.1,9.76,16,23.53,23.32,34.48-18.08,34.48-18.08c-11-.62-26.64-13.87-26.07-17.93s26.6,7,31.05,7.53,14.57-5.63,16.14-25.56S1642.72,994.28,1642.72,994.28Z" transform="translate(-16.43 -19.91)"/><path class="cls-20" d="M1487.88,1009.25s32.2-20,17.18-47.27c0,0-12-16.71-24.91-21,0,0,6.87,40.59,0,41.54s-4.72-45.84-4.72-45.84-33.92-18.14-47.23-16.71c0,0,21,39.63,14.17,38.68s-30.48-41.07-30.48-41.07-34.78-7.16-40.36,15.76,3.43,34.38,8.59,35.81,38.21,1,37.35,5.73-23.18,12.42-35.64,8.12c0,0,13.74,37.72,31.78,35.81s23.61-14.32,34.77-15.28,19.32,2.39,13.74,5.73-24.47,1.1-33.49,9.62-16.31,13.78.43,17.6,46.8,1.43,52.81-12.89Z" transform="translate(-16.43 -19.91)"/><path class="cls-19" d="M1496.47,1044.11c-9-18.62-8.59-34.86-8.59-34.86-10.3-36.29-100.46-68.76-100.46-68.76,114.63,51.57,94.45,83.09,94.45,83.09,3.09,2,7.73,11.56,10.94,18.89.46,1.25,1.18,3,2.25,5.31.44,1.06.79,1.94,1,2.54,5.9,16.43,2.77,44.79,2.77,44.79l3.58,1.06C1510.37,1067.59,1496.47,1044.11,1496.47,1044.11Z" transform="translate(-16.43 -19.91)"/><path class="cls-20" d="M1539.11,981.59s-42.44-26.43-22.64-62.31c0,0,15.85-22,32.83-27.69,0,0-9.06,53.5,0,54.76s6.23-60.43,6.23-60.43,44.71-23.92,62.25-22c0,0-27.73,52.24-18.68,51s40.19-54.12,40.19-54.12,45.84-9.45,53.2,20.77-4.53,45.31-11.32,47.2-50.37,1.26-49.24,7.55,30.56,16.37,47,10.71c0,0-18.11,49.72-41.88,47.2S1605.9,975.3,1591.18,974s-25.47,3.15-18.11,7.55,32.26,1.45,44.14,12.68,21.51,18.16-.56,23.2-61.69,1.89-69.61-17Z" transform="translate(-16.43 -19.91)"/><path class="cls-19" d="M1671.55,891s-118.85,42.8-132.44,90.63c0,0,.57,21.4-11.32,45.95,0,0-18.33,31-7.88,68.63l4.72-1.4s-4.12-37.39,3.66-59c.32-.8.78-1.94,1.35-3.34h0c1.42-3.09,2.38-5.37,3-7,4.24-9.67,10.34-22.26,14.42-24.9C1547,1000.48,1520.44,958.93,1671.55,891Z" transform="translate(-16.43 -19.91)"/><path class="cls-6" d="M1454.54,1085.41c0,51.07,37.22,92.47,83.14,92.47s83.15-41.4,83.15-92.47Z" transform="translate(-16.43 -19.91)"/><path class="cls-21" d="M1558.14,1177.18a75,75,0,0,1-10.33.7c-45.92,0-83.14-41.4-83.14-92.47h20.66C1485.33,1132.59,1517.1,1171.52,1558.14,1177.18Z" transform="translate(-16.43 -19.91)"/><path class="cls-6" d="M1611.72,1171.18H1463.65c-5.67,0-10.26,5.11-10.26,11.41H1622C1622,1176.29,1617.38,1171.18,1611.72,1171.18Z" transform="translate(-16.43 -19.91)"/><rect class="cls-5" x="1435.37" y="1065.5" width="170.92" height="2.84"/><rect class="cls-2" x="1308.38" y="263.87" width="478.33" height="16.82"/><rect class="cls-3" x="1195.54" y="122.52" width="621.44" height="16.82"/><rect class="cls-2" x="1308.38" y="430.27" width="478.33" height="16.82"/><rect class="cls-2" x="1308.38" y="596.67" width="478.33" height="16.82"/><rect class="cls-2" x="1308.38" y="763.07" width="478.33" height="16.82"/><rect class="cls-5" x="1324.89" y="294.49" width="135.78" height="135.78"/><rect class="cls-6" x="1366.76" y="294.49" width="135.78" height="135.78"/><polygon class="cls-7" points="1366.76 294.49 1324.89 319.87 1324.89 294.49 1366.76 294.49"/><rect class="cls-9" x="1420.54" y="323.34" width="106.93" height="106.93"/><rect class="cls-10" x="1453.51" y="323.34" width="106.93" height="106.93"/><rect class="cls-1" x="1480.16" y="420.89" width="40.46" height="20.56" transform="translate(-71.82 282.28) rotate(-11.29)"/><polygon class="cls-1" points="1472.75 351.12 1434.11 351.12 1435.74 346.61 1434.11 341.73 1472.39 341.73 1470.04 346.79 1472.75 351.12"/><polygon class="cls-11" points="1453.43 341.73 1453.43 351.12 1434.11 351.12 1435.74 346.61 1434.11 341.73 1453.43 341.73"/><polygon class="cls-8" points="1389.61 323.61 1343.95 323.61 1345.87 318.28 1343.95 312.52 1389.18 312.52 1386.41 318.49 1389.61 323.61"/><polygon class="cls-7" points="1366.78 312.52 1366.78 323.61 1343.95 323.61 1345.87 318.28 1343.95 312.52 1366.78 312.52"/><polygon class="cls-8" points="1389.61 405.61 1343.95 405.61 1345.87 400.27 1343.95 394.51 1389.18 394.51 1386.41 400.49 1389.61 405.61"/><polygon class="cls-7" points="1366.78 394.51 1366.78 405.61 1343.95 405.61 1345.87 400.27 1343.95 394.51 1366.78 394.51"/><rect class="cls-9" x="1390.84" y="157.19" width="106.93" height="106.93"/><rect class="cls-10" x="1423.81" y="157.19" width="106.93" height="106.93"/><rect class="cls-1" x="1450.46" y="254.21" width="40.46" height="20.56" transform="translate(-39.75 273.24) rotate(-11.29)"/><polygon class="cls-1" points="1443.05 184.44 1404.42 184.44 1406.04 179.93 1404.42 175.06 1442.69 175.06 1440.35 180.11 1443.05 184.44"/><polygon class="cls-11" points="1423.73 175.06 1423.73 184.44 1404.42 184.44 1406.04 179.93 1404.42 175.06 1423.73 175.06"/><rect class="cls-5" x="1544.94" y="188.29" width="75.56" height="75.56"/><rect class="cls-6" x="1568.24" y="188.29" width="75.56" height="75.56"/><polygon class="cls-7" points="1568.24 188.29 1544.94 202.42 1544.94 188.29 1568.24 188.29"/><polygon class="cls-8" points="1580.95 204.64 1555.54 204.64 1556.61 201.67 1555.54 198.47 1580.72 198.47 1579.17 201.79 1580.95 204.64"/><polygon class="cls-7" points="1568.25 198.47 1568.25 204.64 1555.54 204.64 1556.61 201.67 1555.54 198.47 1568.25 198.47"/><polygon class="cls-8" points="1580.95 250.27 1555.54 250.27 1556.61 247.3 1555.54 244.1 1580.72 244.1 1579.17 247.42 1580.95 250.27"/><polygon class="cls-7" points="1568.25 244.1 1568.25 250.27 1555.54 250.27 1556.61 247.3 1555.54 244.1 1568.25 244.1"/><rect class="cls-9" x="1326.17" y="507.89" width="88.84" height="88.84"/><rect class="cls-10" x="1353.56" y="507.89" width="88.84" height="88.84"/><rect class="cls-1" x="1378.48" y="591.87" width="33.62" height="17.08" transform="translate(-107 264.98) rotate(-11.29)"/><polygon class="cls-1" points="1369.55 530.54 1337.45 530.54 1338.8 526.79 1337.45 522.74 1369.25 522.74 1367.3 526.94 1369.55 530.54"/><polygon class="cls-11" points="1353.5 522.74 1353.5 530.54 1337.45 530.54 1338.8 526.79 1337.45 522.74 1353.5 522.74"/><rect class="cls-9" x="1453.17" y="507.89" width="88.84" height="88.84"/><rect class="cls-10" x="1480.56" y="507.89" width="88.84" height="88.84"/><rect class="cls-1" x="1505.48" y="591.87" width="33.62" height="17.08" transform="translate(-104.54 289.86) rotate(-11.29)"/><polygon class="cls-1" points="1496.55 530.54 1464.45 530.54 1465.8 526.79 1464.45 522.74 1496.25 522.74 1494.3 526.94 1496.55 530.54"/><polygon class="cls-11" points="1480.5 522.74 1480.5 530.54 1464.45 530.54 1465.8 526.79 1464.45 522.74 1480.5 522.74"/><rect class="cls-5" x="1573.53" y="365.48" width="64.79" height="64.79"/><rect class="cls-6" x="1593.51" y="365.48" width="64.79" height="64.79"/><polygon class="cls-7" points="1593.51 365.48 1573.53 377.59 1573.53 365.48 1593.51 365.48"/><rect class="cls-9" x="1619.17" y="379.25" width="51.02" height="51.02"/><rect class="cls-10" x="1634.9" y="379.25" width="51.02" height="51.02"/><rect class="cls-1" x="1656.21" y="436.48" width="19.31" height="9.81" transform="translate(-70.62 314.87) rotate(-11.29)"/><polygon class="cls-1" points="1644.08 392.78 1625.65 392.78 1626.42 390.63 1625.65 388.3 1643.91 388.3 1642.79 390.71 1644.08 392.78"/><polygon class="cls-11" points="1634.87 388.3 1634.87 392.78 1625.65 392.78 1626.42 390.63 1625.65 388.3 1634.87 388.3"/><polygon class="cls-8" points="1604.41 379.65 1582.63 379.65 1583.54 377.11 1582.63 374.36 1604.21 374.36 1602.88 377.21 1604.41 379.65"/><polygon class="cls-7" points="1593.52 374.36 1593.52 379.65 1582.63 379.65 1583.54 377.11 1582.63 374.36 1593.52 374.36"/><polygon class="cls-8" points="1604.41 418.78 1582.63 418.78 1583.54 416.23 1582.63 413.48 1604.21 413.48 1602.88 416.33 1604.41 418.78"/><polygon class="cls-7" points="1593.52 413.48 1593.52 418.78 1582.63 418.78 1583.54 416.23 1582.63 413.48 1593.52 413.48"/><polygon class="cls-10" points="1718.49 478.51 1691.19 597.05 1766.63 597.05 1793.93 478.51 1718.49 478.51"/><path class="cls-6" d="M1706.9,561.86l0,51.51a3.56,3.56,0,0,1-3.54,3.54l-85.67.06a3.56,3.56,0,0,1-3.54-3.54l0-51.5a3.54,3.54,0,0,1,3.54-3.54l85.67-.06A3.54,3.54,0,0,1,1706.9,561.86Z" transform="translate(-16.43 -19.91)"/><path class="cls-5" d="M1706.9,561.86v1.49l-46.36,24.3-46.4-25.72a3.54,3.54,0,0,1,3.54-3.54l85.67-.06A3.54,3.54,0,0,1,1706.9,561.86Z" transform="translate(-16.43 -19.91)"/><path class="cls-5" d="M1700.21,608.15l-16.06,0a1.42,1.42,0,1,0,0,2.84h16.07a1.43,1.43,0,1,0,0-2.85Z" transform="translate(-16.43 -19.91)"/><path class="cls-6" d="M1691.09,561.48a3.55,3.55,0,0,0-3.54-3.54l-85.68.06a3.53,3.53,0,0,0-3.53,3.55l0,51.5a3.54,3.54,0,0,0,3.54,3.53l85.68-.06a3.56,3.56,0,0,0,3.54-3.54Z" transform="translate(-16.43 -19.91)"/><path class="cls-5" d="M1691.09,561.48V563l-46.36,24.29-46.39-25.71a3.53,3.53,0,0,1,3.53-3.55l85.68-.06A3.55,3.55,0,0,1,1691.09,561.48Z" transform="translate(-16.43 -19.91)"/><path class="cls-5" d="M1684.41,607.77h-16.07a1.43,1.43,0,0,0,0,2.85h16.07a1.43,1.43,0,0,0,0-2.85Z" transform="translate(-16.43 -19.91)"/></svg>