<?xml version="1.0" encoding="utf-8"?>
<!-- Generator: Adobe Illustrator 25.4.1, SVG Export Plug-In . SVG Version: 6.00 Build 0)  -->
<svg version="1.1" xmlns="http://www.w3.org/2000/svg" xmlns:xlink="http://www.w3.org/1999/xlink" x="0px" y="0px"
	 viewBox="0 0 24 24" style="enable-background:new 0 0 24 24;" xml:space="preserve">
<style type="text/css">
	.st0{fill:#2B2B2B;}
</style>
<path d="M11.9,13.1c-0.1,0-0.3,0-0.4-0.1L2.7,7.9c-0.3-0.2-0.5-0.7-0.3-1s0.7-0.5,1-0.3l8.4,4.9l8.4-4.9
	c0.4-0.2,0.8-0.1,1,0.3s0.1,0.8-0.3,1L12.1,13C12.2,13.1,12,13.1,11.9,13.1z"/>
<path d="M11.9,22.2c-0.4,0-0.8-0.3-0.8-0.8v-9.1c0-0.4,0.3-0.8,0.8-0.8s0.8,0.3,0.8,0.8v9.1
	C12.7,21.8,12.3,22.2,11.9,22.2z"/>
<path d="M11.9,22.6c-0.9,0-1.8-0.2-2.4-0.6l-5.3-3c-1.5-0.8-2.6-2.7-2.6-4.4V9c0-1.7,1.1-3.6,2.6-4.4l5.3-3
	c1.4-0.8,3.5-0.8,4.9,0l5.3,3c1.5,0.8,2.6,2.7,2.6,4.4v5.6c0,1.7-1.1,3.6-2.6,4.4l-5.3,3C13.7,22.4,12.8,22.6,11.9,22.6z M11.9,2.6
	c-0.6,0-1.2,0.1-1.7,0.4L4.9,5.9c-1,0.5-1.8,2-1.8,3.1v5.6c0,1.1,0.8,2.5,1.8,3.1l5.3,3c0.9,0.5,2.5,0.5,3.4,0l5.3-3
	c1-0.5,1.8-2,1.8-3.1V9c0-1.1-0.9-2.5-1.8-3.1l-5.3-3C13.2,2.7,12.5,2.6,11.9,2.6z"/>
</svg>
