<?xml version="1.0" encoding="utf-8"?>
<!-- Generator: Adobe Illustrator 23.0.3, SVG Export Plug-In . SVG Version: 6.00 Build 0)  -->
<svg version="1.1" id="Layer_1" xmlns="http://www.w3.org/2000/svg" xmlns:xlink="http://www.w3.org/1999/xlink" x="0px" y="0px"
	 viewBox="0 0 36 36" style="enable-background:new 0 0 36 36;" xml:space="preserve">
<style type="text/css">
	.st0{fill:#2B2B2B;}
	.st1{fill:#FFFFFF;}
</style>
<g>
	<path class="st0" d="M29.1,22.5c0,0.5-0.2,0.8-0.6,1l-8.9,5c-0.2,0.1-0.4,0.2-0.6,0.2c-0.2,0-0.5-0.1-0.6-0.2l-8.9-5
		c-0.4-0.2-0.6-0.5-0.6-1V12.3c0-0.5,0.2-0.8,0.6-1l8.9-5c0.2-0.1,0.4-0.2,0.6-0.2c0.2,0,0.5,0.1,0.6,0.2l8.9,5
		c0.4,0.2,0.6,0.5,0.6,1V22.5z M19,8.6l-6.7,3.7l6.7,3.7l6.7-3.7L19,8.6z"/>
</g>
<polygon class="st1" points="20.1,30.1 18,29.1 18.2,14.1 20.2,15 "/>
<path class="st1" d="M24.9,21.5h-1v-0.9h1.9V20h-1.4c-0.1,0-0.2,0-0.3-0.1c-0.1-0.1-0.1-0.2-0.1-0.3v-1.4c0-0.1,0-0.2,0.1-0.3
	c0.1-0.1,0.2-0.1,0.3-0.1h0.5v-0.5h0.9v0.5h1v0.9h-1.9v0.5h1.4c0.1,0,0.2,0,0.3,0.1c0.1,0.1,0.1,0.2,0.1,0.3V21c0,0.1,0,0.2-0.1,0.3
	c-0.1,0.1-0.2,0.1-0.3,0.1h-0.5V22h-0.9V21.5z"/>
<path class="st1" d="M12.5,21.6h-1v-0.9h1.9v-0.5H12c-0.1,0-0.2,0-0.3-0.1c-0.1-0.1-0.1-0.2-0.1-0.3v-1.4c0-0.1,0-0.2,0.1-0.3
	c0.1-0.1,0.2-0.1,0.3-0.1h0.5v-0.5h0.9v0.5h1v0.9h-1.9v0.5h1.4c0.1,0,0.2,0,0.3,0.1c0.1,0.1,0.1,0.2,0.1,0.3v1.4
	c0,0.1,0,0.2-0.1,0.3c-0.1,0.1-0.2,0.1-0.3,0.1h-0.5v0.5h-0.9V21.6z"/>
</svg>
