<svg xmlns="http://www.w3.org/2000/svg" xmlns:xlink="http://www.w3.org/1999/xlink" viewBox="0 0 47.27 30.3"><defs><linearGradient id="linear-gradient" x1="589.01" y1="593.23" x2="596.87" y2="600.59" gradientUnits="userSpaceOnUse"><stop offset="0" stop-color="#fff"/><stop offset="1" stop-color="#fff" stop-opacity="0"/></linearGradient><linearGradient id="linear-gradient-2" x1="564.72" y1="580.87" x2="577.43" y2="592.77" xlink:href="#linear-gradient"/></defs><title>products</title><g style="isolation:isolate"><g id="Layer_1" data-name="Layer 1"><g id="_Group_" data-name="&lt;Group&gt;" style="opacity:0.9"><g id="_Group_2" data-name="&lt;Group&gt;"><g id="_Group_3" data-name="&lt;Group&gt;"><rect id="_Path_" data-name="&lt;Path&gt;" x="26.43" y="12.97" width="20.65" height="14.15" style="fill:#af5830"/><path id="_Compound_Path_" data-name="&lt;Compound Path&gt;" d="M606.24,614.32H585.59a0.14,0.14,0,0,1-.16-0.12V600a0.14,0.14,0,0,1,.16-0.12h20.65a0.14,0.14,0,0,1,.16.12V614.2A0.14,0.14,0,0,1,606.24,614.32Zm-20.5-.23h20.34V600.16H585.75v13.92Z" transform="translate(-559.16 -587.08)" style="fill:#7f3e1c"/></g><g id="_Group_4" data-name="&lt;Group&gt;"><rect id="_Path_2" data-name="&lt;Path&gt;" x="28.26" y="14.23" width="16.98" height="11.64" style="fill:#c18253"/><path id="_Compound_Path_2" data-name="&lt;Compound Path&gt;" d="M604.41,613.06h-17a0.14,0.14,0,0,1-.16-0.12V601.31a0.14,0.14,0,0,1,.16-0.12h17a0.14,0.14,0,0,1,.16.12v11.64A0.14,0.14,0,0,1,604.41,613.06Zm-16.82-.23h16.67v-11.4H587.58v11.4Z" transform="translate(-559.16 -587.08)" style="fill:#5d2a07"/></g><g id="_Group_5" data-name="&lt;Group&gt;"><g id="_Group_6" data-name="&lt;Group&gt;"><rect id="_Path_3" data-name="&lt;Path&gt;" x="39.13" y="14.23" width="3.87" height="11.64" style="fill:#c18253"/><path id="_Compound_Path_3" data-name="&lt;Compound Path&gt;" d="M602.17,613.06H598.3a0.14,0.14,0,0,1-.16-0.12V601.31a0.14,0.14,0,0,1,.16-0.12h3.87a0.14,0.14,0,0,1,.16.12v11.64A0.14,0.14,0,0,1,602.17,613.06Zm-3.72-.23H602v-11.4h-3.56v11.4Z" transform="translate(-559.16 -587.08)" style="fill:#5d2a07"/></g><g id="_Group_7" data-name="&lt;Group&gt;"><rect id="_Path_4" data-name="&lt;Path&gt;" x="31.26" y="14.23" width="3.87" height="11.64" style="fill:#c18253"/><path id="_Compound_Path_4" data-name="&lt;Compound Path&gt;" d="M594.29,613.06h-3.87a0.14,0.14,0,0,1-.16-0.12V601.31a0.14,0.14,0,0,1,.16-0.12h3.87a0.14,0.14,0,0,1,.16.12v11.64A0.14,0.14,0,0,1,594.29,613.06Zm-3.72-.23h3.56v-11.4h-3.56v11.4Z" transform="translate(-559.16 -587.08)" style="fill:#5d2a07"/></g></g></g><g id="_Group_8" data-name="&lt;Group&gt;"><g id="_Group_9" data-name="&lt;Group&gt;"><polygon id="_Path_5" data-name="&lt;Path&gt;" points="47.08 12.97 26.43 12.97 28.83 10.38 44.68 10.38 47.08 12.97" style="fill:#af5830"/><path id="_Compound_Path_5" data-name="&lt;Compound Path&gt;" d="M606.25,600.16H585.59a0.17,0.17,0,0,1-.14-0.06,0.09,0.09,0,0,1,0-.12l2.4-2.59a0.18,0.18,0,0,1,.13-0.05h15.85a0.18,0.18,0,0,1,.13.05l2.38,2.57a0.11,0.11,0,0,1,.05.09A0.14,0.14,0,0,1,606.25,600.16Zm-20.36-.23h20.06l-2.19-2.36H588.07Z" transform="translate(-559.16 -587.08)" style="fill:#7f3e1c"/></g><g id="_Group_10" data-name="&lt;Group&gt;"><polygon id="_Path_6" data-name="&lt;Path&gt;" points="45.78 12.55 27.72 12.55 29.82 10.54 43.68 10.54 45.78 12.55" style="fill:#c18253"/><path id="_Compound_Path_6" data-name="&lt;Compound Path&gt;" d="M605,599.74H586.88a0.17,0.17,0,0,1-.14-0.06,0.09,0.09,0,0,1,0-.12l2.1-2a0.18,0.18,0,0,1,.12,0h13.86a0.18,0.18,0,0,1,.12,0l2.08,2a0.11,0.11,0,0,1,.06.09A0.14,0.14,0,0,1,605,599.74Zm-17.75-.23h17.43l-1.86-1.78H589.06Z" transform="translate(-559.16 -587.08)" style="fill:#5d2a07"/></g><g id="_Group_11" data-name="&lt;Group&gt;"><g id="_Group_12" data-name="&lt;Group&gt;"><polygon id="_Path_7" data-name="&lt;Path&gt;" points="30.04 12.55 33.36 12.55 32.94 10.54 30.46 10.54 30.04 12.55" style="fill:#c18253"/><path id="_Compound_Path_7" data-name="&lt;Compound Path&gt;" d="M592.53,599.74H589.2a0.18,0.18,0,0,1-.12,0,0.1,0.1,0,0,1,0-.09l0.42-2a0.15,0.15,0,0,1,.15-0.1h2.49a0.15,0.15,0,0,1,.15.1l0.42,2a0.1,0.1,0,0,1,0,.09A0.18,0.18,0,0,1,592.53,599.74Zm-3.14-.23h3L592,597.73h-2.22Z" transform="translate(-559.16 -587.08)" style="fill:#5d2a07"/></g><g id="_Group_13" data-name="&lt;Group&gt;"><polygon id="_Path_8" data-name="&lt;Path&gt;" points="37.8 10.54 35.35 10.54 34.93 12.55 38.22 12.55 37.8 10.54" style="fill:#c18253"/><path id="_Compound_Path_8" data-name="&lt;Compound Path&gt;" d="M597.38,599.74H594.1a0.18,0.18,0,0,1-.12,0,0.1,0.1,0,0,1,0-.09l0.42-2a0.15,0.15,0,0,1,.15-0.1H597a0.15,0.15,0,0,1,.15.1l0.42,2a0.1,0.1,0,0,1,0,.09A0.18,0.18,0,0,1,597.38,599.74Zm-3.1-.23h2.92l-0.37-1.78h-2.18Z" transform="translate(-559.16 -587.08)" style="fill:#5d2a07"/></g><g id="_Group_14" data-name="&lt;Group&gt;"><polygon id="_Path_9" data-name="&lt;Path&gt;" points="42.91 10.54 40.48 10.54 40.06 12.55 43.33 12.55 42.91 10.54" style="fill:#c18253"/><path id="_Compound_Path_9" data-name="&lt;Compound Path&gt;" d="M602.49,599.74h-3.27a0.18,0.18,0,0,1-.12,0,0.1,0.1,0,0,1,0-.09l0.42-2a0.15,0.15,0,0,1,.15-0.1h2.43a0.15,0.15,0,0,1,.15.1l0.42,2a0.1,0.1,0,0,1,0,.09A0.18,0.18,0,0,1,602.49,599.74Zm-3.08-.23h2.9l-0.37-1.78h-2.16Z" transform="translate(-559.16 -587.08)" style="fill:#5d2a07"/></g></g></g><path id="_Path_10" data-name="&lt;Path&gt;" d="M606.38,599.81L604,597.24a0.18,0.18,0,0,0-.13-0.05H588a0.18,0.18,0,0,0-.13.05l-2.4,2.59a0.09,0.09,0,0,0,0,.12,0.17,0.17,0,0,0,.14.06h20.66a0.14,0.14,0,0,0,.16-0.12A0.11,0.11,0,0,0,606.38,599.81Z" transform="translate(-559.16 -587.08)" style="mix-blend-mode:overlay;fill:url(#linear-gradient)"/></g><g id="_Group_15" data-name="&lt;Group&gt;" style="opacity:0.9"><g id="_Group_16" data-name="&lt;Group&gt;"><g id="_Group_17" data-name="&lt;Group&gt;"><rect id="_Path_11" data-name="&lt;Path&gt;" x="0.25" y="5.06" width="32.96" height="25.04" style="fill:#af5830"/><path id="_Compound_Path_10" data-name="&lt;Compound Path&gt;" d="M592.37,617.38h-33a0.23,0.23,0,0,1-.25-0.2v-25a0.23,0.23,0,0,1,.25-0.2h33a0.23,0.23,0,0,1,.25.2v25A0.23,0.23,0,0,1,592.37,617.38ZM559.66,617h32.46V592.34H559.66V617Z" transform="translate(-559.16 -587.08)" style="fill:#965b32"/></g><g id="_Group_18" data-name="&lt;Group&gt;"><rect id="_Path_12" data-name="&lt;Path&gt;" x="3.18" y="7.29" width="27.09" height="20.58" style="fill:#c18253"/><path id="_Compound_Path_11" data-name="&lt;Compound Path&gt;" d="M589.44,615.15H562.35a0.23,0.23,0,0,1-.25-0.2V594.37a0.23,0.23,0,0,1,.25-0.2h27.09a0.23,0.23,0,0,1,.25.2v20.58A0.23,0.23,0,0,1,589.44,615.15Zm-26.85-.41h26.6V594.57h-26.6v20.17Z" transform="translate(-559.16 -587.08)" style="fill:#5d2a07"/></g><g id="_Group_19" data-name="&lt;Group&gt;"><g id="_Group_20" data-name="&lt;Group&gt;"><rect id="_Path_13" data-name="&lt;Path&gt;" x="20.53" y="7.29" width="6.18" height="20.58" style="fill:#c18253"/><path id="_Compound_Path_12" data-name="&lt;Compound Path&gt;" d="M585.88,615.15H579.7a0.23,0.23,0,0,1-.25-0.2V594.37a0.23,0.23,0,0,1,.25-0.2h6.18a0.23,0.23,0,0,1,.25.2v20.58A0.23,0.23,0,0,1,585.88,615.15Zm-5.93-.41h5.69V594.57h-5.69v20.17Z" transform="translate(-559.16 -587.08)" style="fill:#5d2a07"/></g><g id="_Group_21" data-name="&lt;Group&gt;"><rect id="_Path_14" data-name="&lt;Path&gt;" x="7.96" y="7.29" width="6.18" height="20.58" style="fill:#c18253"/><path id="_Compound_Path_13" data-name="&lt;Compound Path&gt;" d="M573.3,615.15h-6.18a0.23,0.23,0,0,1-.25-0.2V594.37a0.23,0.23,0,0,1,.25-0.2h6.18a0.23,0.23,0,0,1,.25.2v20.58A0.23,0.23,0,0,1,573.3,615.15Zm-5.93-.41h5.69V594.57h-5.69v20.17Z" transform="translate(-559.16 -587.08)" style="fill:#5d2a07"/></g></g></g><g id="_Group_22" data-name="&lt;Group&gt;"><g id="_Group_23" data-name="&lt;Group&gt;"><polygon id="_Path_15" data-name="&lt;Path&gt;" points="33.21 5.06 0.25 5.06 4.08 0.47 29.38 0.47 33.21 5.06" style="fill:#af5830"/><path id="_Compound_Path_14" data-name="&lt;Compound Path&gt;" d="M592.38,592.34h-33a0.26,0.26,0,0,1-.22-0.11,0.17,0.17,0,0,1,0-.21l3.83-4.59a0.27,0.27,0,0,1,.2-0.09h25.3a0.27,0.27,0,0,1,.2.09l3.8,4.55a0.19,0.19,0,0,1,.09.15A0.23,0.23,0,0,1,592.38,592.34Zm-32.5-.41h32l-3.49-4.18h-25Z" transform="translate(-559.16 -587.08)" style="fill:#7f3e1c"/></g><g id="_Group_24" data-name="&lt;Group&gt;"><polygon id="_Path_16" data-name="&lt;Path&gt;" points="31.14 4.32 2.31 4.32 5.67 0.76 27.79 0.76 31.14 4.32" style="fill:#c18253"/><path id="_Compound_Path_15" data-name="&lt;Compound Path&gt;" d="M590.32,591.6H561.48a0.26,0.26,0,0,1-.22-0.11,0.17,0.17,0,0,1,0-.21l3.35-3.56a0.27,0.27,0,0,1,.2-0.08H587a0.27,0.27,0,0,1,.2.08l3.32,3.52a0.19,0.19,0,0,1,.1.16A0.23,0.23,0,0,1,590.32,591.6ZM562,591.2H589.8l-3-3.15H565Z" transform="translate(-559.16 -587.08)" style="fill:#5d2a07"/></g><g id="_Group_25" data-name="&lt;Group&gt;"><g id="_Group_26" data-name="&lt;Group&gt;"><polygon id="_Path_17" data-name="&lt;Path&gt;" points="6.01 4.32 11.32 4.32 10.65 0.76 6.68 0.76 6.01 4.32" style="fill:#c18253"/><path id="_Compound_Path_16" data-name="&lt;Compound Path&gt;" d="M570.48,591.6h-5.31a0.27,0.27,0,0,1-.19-0.07,0.18,0.18,0,0,1-.06-0.16l0.67-3.56a0.24,0.24,0,0,1,.25-0.17h4a0.24,0.24,0,0,1,.25.17l0.67,3.56a0.18,0.18,0,0,1-.06.16A0.27,0.27,0,0,1,570.48,591.6Zm-5-.41h4.73L569.6,588h-3.54Z" transform="translate(-559.16 -587.08)" style="fill:#5d2a07"/></g><g id="_Group_27" data-name="&lt;Group&gt;"><polygon id="_Path_18" data-name="&lt;Path&gt;" points="18.4 0.76 14.49 0.76 13.82 4.32 19.07 4.32 18.4 0.76" style="fill:#c18253"/><path id="_Compound_Path_17" data-name="&lt;Compound Path&gt;" d="M578.23,591.6H573a0.27,0.27,0,0,1-.19-0.07,0.18,0.18,0,0,1-.06-0.16l0.67-3.56a0.24,0.24,0,0,1,.25-0.17h3.9a0.24,0.24,0,0,1,.25.17l0.67,3.56a0.18,0.18,0,0,1-.06.16A0.27,0.27,0,0,1,578.23,591.6Zm-5-.41h4.67L577.35,588h-3.48Z" transform="translate(-559.16 -587.08)" style="fill:#5d2a07"/></g><g id="_Group_28" data-name="&lt;Group&gt;"><polygon id="_Path_19" data-name="&lt;Path&gt;" points="26.55 0.76 22.68 0.76 22.01 4.32 27.22 4.32 26.55 0.76" style="fill:#c18253"/><path id="_Compound_Path_18" data-name="&lt;Compound Path&gt;" d="M586.39,591.6h-5.21a0.27,0.27,0,0,1-.19-0.07,0.18,0.18,0,0,1-.06-0.16l0.67-3.56a0.24,0.24,0,0,1,.25-0.17h3.87a0.24,0.24,0,0,1,.25.17l0.67,3.56a0.18,0.18,0,0,1-.06.16A0.27,0.27,0,0,1,586.39,591.6Zm-4.92-.41h4.63L585.5,588h-3.44Z" transform="translate(-559.16 -587.08)" style="fill:#5d2a07"/></g></g></g><path id="_Path_20" data-name="&lt;Path&gt;" d="M592.59,591.71l-3.8-4.55a0.27,0.27,0,0,0-.2-0.09h-25.3a0.27,0.27,0,0,0-.2.09l-3.83,4.59a0.17,0.17,0,0,0,0,.21,0.26,0.26,0,0,0,.22.11h33a0.23,0.23,0,0,0,.25-0.2A0.19,0.19,0,0,0,592.59,591.71Z" transform="translate(-559.16 -587.08)" style="mix-blend-mode:overlay;fill:url(#linear-gradient-2)"/></g></g></g></svg>