<?xml version="1.0" encoding="utf-8"?>
<!-- Generator: Adobe Illustrator 25.4.1, SVG Export Plug-In . SVG Version: 6.00 Build 0)  -->
<svg version="1.1" xmlns="http://www.w3.org/2000/svg" xmlns:xlink="http://www.w3.org/1999/xlink" x="0px" y="0px"
	 viewBox="0 0 24 24" style="enable-background:new 0 0 24 24;" xml:space="preserve">
<style type="text/css">
	.st0{fill:#2B2B2B;}
</style>
<g>
	<path d="M12,14.8c-1.5,0-2.8-1.2-2.8-2.8s1.3-2.8,2.8-2.8s2.8,1.2,2.8,2.8S13.5,14.8,12,14.8z"/>
	<path d="M19.9,14.8c-1.5,0-2.8-1.2-2.8-2.8s1.2-2.8,2.8-2.8s2.8,1.2,2.8,2.8S21.4,14.8,19.9,14.8z M19.9,10.8
		c-0.7,0-1.2,0.6-1.2,1.2s0.6,1.2,1.2,1.2s1.2-0.6,1.2-1.2S20.6,10.8,19.9,10.8z"/>
	<path d="M4.1,14.8c-1.5,0-2.8-1.2-2.8-2.8s1.2-2.8,2.8-2.8s2.8,1.2,2.8,2.8S5.6,14.8,4.1,14.8z M4.1,10.8
		c-0.7,0-1.2,0.6-1.2,1.2s0.6,1.2,1.2,1.2s1.2-0.6,1.2-1.2S4.8,10.8,4.1,10.8z"/>
</g>
</svg>
