<?xml version="1.0" encoding="utf-8"?>
<!-- Generator: Adobe Illustrator 23.0.3, SVG Export Plug-In . SVG Version: 6.00 Build 0)  -->
<svg version="1.1" xmlns="http://www.w3.org/2000/svg" xmlns:xlink="http://www.w3.org/1999/xlink" x="0px" y="0px"
	 viewBox="0 0 45 30" style="enable-background:new 0 0 45 30;" xml:space="preserve">
<style type="text/css">
	.st0{fill:#2B2B2B;}
	.st1{fill:#FAFCFB;}
</style>
<g id="Layer_1">
	<path class="st0" d="M3.5,23V11h-3v-3h6V23H3.5z M44.6,20c0,0.8-0.3,1.6-0.9,2.2c-0.6,0.6-1.3,0.9-2.1,0.9h-6.1v-3h6.1v-3h-3v-3h3
		v-3h-6.1v-3h6.1c0.8,0,1.5,0.3,2.1,0.9c0.6,0.6,0.9,1.3,0.9,2.2v2.3c0,0.6-0.2,1.1-0.6,1.6c-0.4,0.4-1,0.7-1.6,0.7
		c0.7,0,1.2,0.2,1.6,0.7c0.4,0.4,0.6,1,0.6,1.6V20z M33.2,26.7H9.5V4.3h23.7V26.7z"/>
</g>
<g id="Layer_2">
	<path class="st1" d="M25.8,19.7v3h-9v-6.1c0-0.8,0.3-1.5,0.9-2.1c0.6-0.6,1.3-0.9,2.1-0.9h3v-3h-6v-3h6c0.8,0,1.6,0.3,2.2,0.9
		c0.6,0.6,0.9,1.3,0.9,2.2v3c0,0.8-0.3,1.5-0.9,2.1c-0.6,0.6-1.3,0.9-2.2,0.9h-3v3H25.8z"/>
</g>
</svg>
