<?xml version="1.0" encoding="utf-8"?>
<!-- Generator: Adobe Illustrator 25.4.1, SVG Export Plug-In . SVG Version: 6.00 Build 0)  -->
<svg version="1.1" xmlns="http://www.w3.org/2000/svg" xmlns:xlink="http://www.w3.org/1999/xlink" x="0px" y="0px"
	 viewBox="0 0 24 24" style="enable-background:new 0 0 24 24;" xml:space="preserve">
<style type="text/css">
	.st0{fill:#2B2B2B;}
	.st1{fill:none;stroke:#2B2B2B;}
</style>
<g>
	<path d="M15,22.8H9c-5.4,0-7.8-2.3-7.8-7.8V9c0-5.4,2.3-7.8,7.8-7.8h6c5.4,0,7.8,2.3,7.8,7.8v6
		C22.8,20.4,20.4,22.8,15,22.8z M9,2.8C4.4,2.8,2.8,4.4,2.8,9v6c0,4.6,1.6,6.2,6.2,6.2h6c4.6,0,6.2-1.6,6.2-6.2V9
		c0-4.6-1.6-6.2-6.2-6.2H9z"/>
	<path class="st1" d="M10.6,9.2l0,0.3c-0.3,1.4-0.9,3-2,4.8c-0.2,0.4-0.5,0.8-0.9,1l-0.3,0.2c-0.7,0.5-1.2,1-1.6,1.4
		c-0.5,0.6-0.6,1.2-0.4,1.6s0.6,0.6,1,0.5c0.5-0.1,0.9-0.5,1.5-1.1c0.3-0.4,0.7-0.9,1-1.4c0.4-0.6,1-1.1,1.7-1.3h0
		c0.1,0,0.2-0.1,0.3-0.1c0.8-0.1,1.6-0.3,2.3-0.4c0.5-0.1,0.9,0,1.3,0.2L15,15c0.8,0.3,1.5,0.5,2.1,0.4c0.8,0,1.3-0.4,1.5-1
		s-0.1-1.1-0.7-1.3c-0.4-0.2-1.1-0.3-1.9-0.3c-0.6,0-1.1,0.1-1.5,0.2l-0.6-0.5c-0.5-0.4-0.9-0.8-1.2-1.3c-0.1-0.2-0.2-0.3-0.3-0.5
		c-0.4-0.7-0.5-1.5-0.3-2.2l0.1-0.2c0-0.1,0.1-0.3,0.1-0.4c0.1-0.8,0.2-1.4,0.1-1.9c-0.1-0.8-0.5-1.1-1-1.1c-0.8,0-1.2,0.7-1.3,1.9
		C10.2,7.6,10.3,8.2,10.6,9.2z"/>
</g>
</svg>
