<?xml version="1.0" encoding="utf-8"?>
<!-- Generator: Adobe Illustrator 25.4.1, SVG Export Plug-In . SVG Version: 6.00 Build 0)  -->
<svg version="1.1" id="Layer_1" xmlns="http://www.w3.org/2000/svg" xmlns:xlink="http://www.w3.org/1999/xlink" x="0px" y="0px"
	 viewBox="0 0 24 24" style="enable-background:new 0 0 24 24;" xml:space="preserve">
<style type="text/css">
	.st0{fill:none;stroke:#2B2B2B;stroke-width:0.75;}
</style>
<g>
	<path class="st0" d="M19.5,1.7c0.6,0,1.1,0.2,1.5,0.7c0.4,0.4,0.6,1,0.6,1.6v16c0,0.6-0.2,1.2-0.6,1.6c-0.4,0.4-0.9,0.7-1.5,0.7
		H4.5c-0.6,0-1.1-0.2-1.5-0.7c-0.4-0.4-0.6-1-0.6-1.6V4c0-0.6,0.2-1.2,0.6-1.6c0.4-0.4,0.9-0.7,1.5-0.7H19.5z M10.5,9.8L10.5,9.8
		c-0.3,1.6-1.1,3.3-2.3,5.4l-0.9,0.6c-0.7,0.5-1.2,1-1.6,1.4c-0.5,0.6-0.6,1.2-0.4,1.6c0.2,0.4,0.6,0.6,1,0.5
		c0.5-0.1,0.9-0.5,1.5-1.1c0.5-0.6,1-1.4,1.5-2.4l1.3-0.4c1.1-0.2,2.2-0.4,3.2-0.5l1.1,0.4c0.8,0.3,1.5,0.5,2.1,0.4
		c0.8,0,1.3-0.4,1.5-1c0.2-0.6-0.1-1.1-0.7-1.3c-0.4-0.2-1.1-0.3-1.9-0.3c-0.6,0-1.1,0.1-1.5,0.2l-0.6-0.5c-0.5-0.4-0.9-0.8-1.2-1.3
		c-0.5-0.6-0.8-1.2-0.9-1.9l0.3-1.2c0.1-0.9,0.2-1.6,0.1-2.1c-0.1-0.8-0.5-1.1-1-1.1c-0.8,0-1.2,0.7-1.3,1.9
		C10.1,7.9,10.2,8.8,10.5,9.8z M8,16.2c-0.2,0.6-0.6,1.2-1,1.7c-0.4,0.4-0.6,0.6-0.7,0.6c-0.1,0-0.1-0.2,0.1-0.5
		c0.2-0.3,0.4-0.7,0.7-1C7.3,16.6,7.7,16.4,8,16.2z M11.3,11l0.1,0.1c0.5,1,1.1,1.9,2,2.7L12,14.1c-1,0.3-1.8,0.5-2.3,0.7l0.6-1.2
		C10.8,12.6,11.1,11.8,11.3,11z M11.3,8.3C11.3,8,11.2,7.5,11.2,7c-0.1-0.8,0-1.2,0.2-1.2c0.3,0,0.4,0.8,0.1,2.4L11.3,8.3z
		 M17.1,14.2c0.7,0.1,1,0.3,0.9,0.5c0,0.2-0.5,0.1-1.3-0.1c-0.4-0.1-0.8-0.2-1.2-0.4C15.9,14,16.4,14.1,17.1,14.2z"/>
</g>
</svg>
