<?xml version="1.0" encoding="utf-8"?>
<!-- Generator: Adobe Illustrator 23.0.3, SVG Export Plug-In . SVG Version: 6.00 Build 0)  -->
<svg version="1.1" id="Layer_1" xmlns="http://www.w3.org/2000/svg" xmlns:xlink="http://www.w3.org/1999/xlink" x="0px" y="0px"
	 viewBox="0 0 36 36" style="enable-background:new 0 0 36 36;" xml:space="preserve">
<style type="text/css">
	.st0{fill:#2B2B2B;}
</style>
<g>
	<path class="st0" d="M28.2,5c0.8,0,1.6,0.3,2.1,0.9C31,6.5,31.3,7.2,31.3,8v21c0,0.8-0.3,1.6-0.9,2.1c-0.6,0.6-1.3,0.9-2.1,0.9h-21
		c-0.8,0-1.6-0.3-2.1-0.9c-0.6-0.6-0.9-1.3-0.9-2.1V8c0-0.8,0.3-1.6,0.9-2.1C5.7,5.3,6.4,5,7.3,5H28.2z M15.6,15.6L15.6,15.6
		c-0.4,2-1.5,4.4-3.2,7l-1.3,0.8c-1,0.7-1.7,1.3-2.3,1.8c-0.7,0.8-0.8,1.5-0.5,2.1c0.3,0.6,0.8,0.8,1.4,0.6c0.6-0.2,1.3-0.6,2-1.4
		c0.7-0.8,1.4-1.8,2.1-3.1l1.8-0.6c1.5-0.3,3-0.6,4.5-0.7l1.5,0.6c1.2,0.4,2.2,0.6,3,0.6c1.2,0,1.9-0.5,2.1-1.3
		c0.2-0.8-0.1-1.4-0.9-1.7c-0.6-0.3-1.5-0.4-2.6-0.4c-0.9,0-1.6,0.1-2,0.2l-0.8-0.6C20,19,19.5,18.4,19,17.8
		c-0.7-0.8-1.1-1.6-1.3-2.5l0.4-1.5c0.2-1.2,0.2-2.1,0.1-2.8c-0.2-1-0.7-1.5-1.4-1.5c-1.1,0-1.7,0.9-1.8,2.5
		C15.1,13.2,15.3,14.4,15.6,15.6z M12.1,24.1c-0.3,0.8-0.8,1.5-1.4,2.2c-0.5,0.5-0.9,0.8-1,0.8c-0.2,0-0.1-0.2,0.1-0.7
		c0.3-0.4,0.6-0.9,0.9-1.3C11.3,24.6,11.7,24.3,12.1,24.1z M16.8,17.2l0.1,0.1c0.7,1.3,1.6,2.5,2.8,3.6l-2,0.4
		c-1.5,0.3-2.5,0.6-3.2,0.9l0.8-1.6C16.1,19.4,16.6,18.2,16.8,17.2z M16.8,13.7c-0.1-0.4-0.2-1-0.2-1.7c-0.1-1.1,0-1.6,0.2-1.5
		c0.5,0,0.5,1.1,0.1,3.1L16.8,13.7z M24.8,21.4c0.9,0.2,1.3,0.4,1.3,0.6c0,0.2-0.6,0.2-1.8-0.2c-0.6-0.1-1.1-0.3-1.6-0.6
		C23.2,21.2,23.9,21.2,24.8,21.4z"/>
</g>
</svg>
