<svg xmlns="http://www.w3.org/2000/svg" height="40" viewBox="0 96 960 960" width="40"><path d="M113.274 902.667q-30.274 0-51.774-21.559T40 829.275Q40 799 61.496 777.501q21.496-21.5 51.682-21.5 5.488 0 10.322.333 4.833.333 11.833 2.333l194.001-194q-2-7-2.334-11.834-.333-4.833-.333-10.321 0-30.186 21.559-51.682 21.559-21.496 51.833-21.496 30.274 0 51.774 21.589 21.5 21.59 21.5 51.906 0 1.838-2.667 21.838L578 672q7-2 11.833-2.333 4.834-.333 10.167-.333t10.167.333Q615 670 622 672l154-154q-2-7-2.333-11.833-.333-4.834-.333-10.322 0-30.186 21.559-51.682 21.559-21.496 51.833-21.496 30.274 0 51.774 21.559t21.5 51.833q0 30.274-21.496 51.774t-51.682 21.5q-5.488 0-10.322-.333-4.833-.334-11.833-2.334L670.666 720.667q2 7 2.334 11.833.333 4.834.333 10.322 0 30.186-21.559 51.682Q630.215 816 599.941 816q-30.274 0-51.774-21.496t-21.5-51.682q0-5.488.333-10.322.334-4.833 2.334-11.833L422 613.333q-7 2-11.833 2.334-4.834.333-10.334.333Q398 616 378 613.333L184 807.334q2 7 2.333 11.833.333 4.833.333 10.322 0 30.186-21.559 51.682-21.559 21.496-51.833 21.496ZM160 474.333l-21.835-47.165L91 405.333l47.165-21.835L160 336.333l21.835 47.165L229 405.333l-47.165 21.835L160 474.333Zm440-47.001-33.144-71.521-71.522-33.145 71.522-33.144L600 218l33.144 71.522 71.522 33.144-71.522 33.145L600 427.332Z"/></svg>