<svg xmlns="http://www.w3.org/2000/svg" height="40" viewBox="0 96 960 960" width="40"><path d="M162.975 875.999q-25.788 0-44.176-18.564-18.387-18.564-18.387-44V353.951q0-25.436 18.387-44 18.388-18.564 44.176-18.564H425.54l54.87 54.871h317.435q25.436 0 44 18.564t18.564 43.999v404.614q0 25.436-18.564 44t-44 18.564h-634.87Zm-12.308-522.048v459.484q0 5.385 3.59 8.847 3.59 3.462 8.718 3.462h634.87q5.385 0 8.847-3.462 3.462-3.462 3.462-8.847V408.821q0-5.385-3.462-8.846-3.462-3.462-8.847-3.462H459.924l-54.871-54.871H162.975q-5.128 0-8.718 3.462t-3.59 8.847Zm0 0v-12.309 484.102-471.793Z"/></svg>