<svg id="OBJECTS" xmlns="http://www.w3.org/2000/svg" xmlns:xlink="http://www.w3.org/1999/xlink" viewBox="0 0 472.68 394.31"><defs><style>.cls-1{fill:#fafafa;}.cls-2{fill:#fff;}.cls-3{fill:#e0e0e0;}.cls-4{fill:#f2f3f5;}.cls-5{fill:#795aa1;}.cls-6{fill:none;stroke:#f0cab3;stroke-linecap:round;stroke-miterlimit:10;stroke-width:1.08px;}.cls-7{fill:#af9cc7;}.cls-8{fill:#fdffff;}.cls-9{fill:#e7d0fc;}.cls-10{fill:#ebe8ec;}.cls-11{fill:#1e2322;}.cls-12{fill:#a751e5;}.cls-13{fill:#28243f;}.cls-14{fill:#333049;}.cls-15{fill:url(#linear-gradient);}.cls-16{fill:url(#linear-gradient-2);}.cls-17{fill:url(#linear-gradient-3);}.cls-18{fill:url(#linear-gradient-4);}.cls-19{fill:#3f2a3f;}.cls-20{fill:url(#linear-gradient-5);}.cls-21{fill:url(#linear-gradient-6);}.cls-22{fill:url(#linear-gradient-7);}.cls-23{fill:#9211ef;}.cls-24{fill:#4592ff;}.cls-25{fill:#a0bcea;}.cls-26{fill:#d2e1f7;}.cls-27{fill:#d8d8d8;}.cls-28{fill:#ebebeb;}.cls-29{fill:#3e3e3d;}.cls-30{fill:#585857;}.cls-31{fill:#e4e4e4;}.cls-32{fill:#dfdfdf;}</style><linearGradient id="linear-gradient" x1="382.82" y1="257.56" x2="447.41" y2="257.56" gradientUnits="userSpaceOnUse"><stop offset="0" stop-color="#fff"/><stop offset="1" stop-color="#dcced0"/></linearGradient><linearGradient id="linear-gradient-2" x1="261.32" y1="282.08" x2="324.58" y2="282.08" gradientTransform="translate(585.9 564.16) rotate(-180)" gradientUnits="userSpaceOnUse"><stop offset="0" stop-color="#e6e6e6"/><stop offset="1" stop-color="#bdbdbd"/></linearGradient><linearGradient id="linear-gradient-3" x1="241.49" y1="251.26" x2="308.19" y2="251.26" gradientTransform="matrix(1, 0, 0, 1, 0, 0)" xlink:href="#linear-gradient-2"/><linearGradient id="linear-gradient-4" x1="267.66" y1="254.09" x2="276.23" y2="254.09" gradientUnits="userSpaceOnUse"><stop offset="1" stop-color="#fff"/><stop offset="1" stop-color="#bdbdbd"/></linearGradient><linearGradient id="linear-gradient-5" x1="195.87" y1="203.96" x2="200.4" y2="203.96" gradientTransform="matrix(1, 0, 0, 1, 0, 0)" xlink:href="#linear-gradient-2"/><linearGradient id="linear-gradient-6" x1="208.58" y1="205.43" x2="213.42" y2="205.43" gradientTransform="matrix(1, 0, 0, 1, 0, 0)" xlink:href="#linear-gradient-2"/><linearGradient id="linear-gradient-7" x1="201.24" y1="206.24" x2="204.03" y2="206.24" gradientTransform="matrix(1, 0, 0, 1, 0, 0)" xlink:href="#linear-gradient-2"/></defs><path class="cls-1" d="M467.4,254.22c-7.95-20.83-20.46-27.17-32.37-40.54-14.53-16.32-24.34-28.18-20.56-49.18,6.16-34.3,8.8-119.85-87.77-108.67-34.61,4-62,29-81.86,53.85-16.93,21.19-47.39,23.06-71.91,28-30.12,6.07-60.8,15.23-88.67,28.67C26.87,194,9.72,233.78,12.06,284.67c.71,15.37,3,39.58,30.64,67.92C80,390.83,134.13,396,199.32,378.39c14.92-4,29-10.33,43.7-15.07a217.69,217.69,0,0,1,47.17-9.63c37.44-3.41,76.25,2.75,112.17-7.76a119.77,119.77,0,0,0,50.17-29.26C469.68,299.77,475.78,276.21,467.4,254.22Z" transform="translate(-11.86 -54.83)"/><rect class="cls-2" x="137.24" y="85.01" width="134.46" height="99.59" rx="5.37"/><path class="cls-3" d="M281.61,139.84H151a1.94,1.94,0,0,0-1.94,1.94v4.71H283.55v-4.71A1.94,1.94,0,0,0,281.61,139.84Z" transform="translate(-11.86 -54.83)"/><path class="cls-4" d="M156.81,143.13a1.46,1.46,0,1,1-1.45-1.47A1.46,1.46,0,0,1,156.81,143.13Z" transform="translate(-11.86 -54.83)"/><path class="cls-4" d="M161.35,143.15a1.46,1.46,0,1,1-1.45-1.47A1.47,1.47,0,0,1,161.35,143.15Z" transform="translate(-11.86 -54.83)"/><path class="cls-4" d="M165.89,143.16a1.46,1.46,0,1,1-1.46-1.46A1.47,1.47,0,0,1,165.89,143.16Z" transform="translate(-11.86 -54.83)"/><rect class="cls-3" x="147.71" y="98.42" width="113.53" height="27.31"/><rect class="cls-3" x="147.71" y="132.58" width="35.24" height="22.33"/><rect class="cls-3" x="187" y="132.58" width="35.24" height="22.33"/><rect class="cls-3" x="225.99" y="132.58" width="35.24" height="22.33"/><rect class="cls-3" x="147.71" y="161.49" width="113.05" height="4.11"/><rect class="cls-3" x="147.71" y="169.68" width="113.05" height="4.11"/><path class="cls-5" d="M285.85,236.44c.65-2.1,1.44-4.28,3.11-5.66s4.52-1.6,6,.13c.7.8,1,1.9,1.94,2.54a1.55,1.55,0,0,0,1.34.24c.65-.23.73-.81.79-1.36.31-2.72.63-5.44.94-8.17s.75-5.74,2.71-7.61a3.28,3.28,0,0,1,1.76-1,3,3,0,0,1,1.67.3,5.13,5.13,0,0,0,6.74-2.13,63.16,63.16,0,0,1,3.51-5.73,2,2,0,0,1,.8-.79,1.57,1.57,0,0,1,1.34.19c1.9,1.1,1.82,3.88,1.1,5.88s-1.82,4.13-1,6.18a11.88,11.88,0,0,0,2.44,3.2c1.56,1.83,2.54,4.4,1.73,6.57C321,234,313,233.11,311,237.72c-1.46,3.37,3.34,8.65,2.51,12.26-.76,3.28-6.23,6-9.29,7.34-3.35,1.45-19.62,7.69-22.15,3.59-1.61-2.61.42-9.35.88-12.11A97.84,97.84,0,0,1,285.85,236.44Z" transform="translate(-11.86 -54.83)"/><path class="cls-5" d="M340.77,254.92c2.72-3.13,5.46-6.89,6.35-11.11,1.12-5.33-1.32-9.73-4.84-10.63s-7.81,1.08-11.64,4-7.35,6.87-11,10.41c-6.84,6.64-14.11,12-21.22,17.85a13.17,13.17,0,0,0-3.66,4.08c-6.31,12.36,14.61,6.8,17.59,5.75C322.21,271.85,332.22,264.77,340.77,254.92Z" transform="translate(-11.86 -54.83)"/><path class="cls-6" d="M333.32,249.24c-10.83,7.63-21.69,15.28-32.74,21.23-10,5.4-20.18,9.38-30.16,15.31" transform="translate(-11.86 -54.83)"/><path class="cls-6" d="M330,258.27a9.28,9.28,0,0,1-5.69-.31,2.48,2.48,0,0,1-1.76-2.25,5.62,5.62,0,0,1,.22-1.54,15.17,15.17,0,0,1,3.53-6.42" transform="translate(-11.86 -54.83)"/><path class="cls-6" d="M322.13,264.86c-1.09.24-2.18.44-3.25.6a7.06,7.06,0,0,1-3.89-.19,3.61,3.61,0,0,1-1.92-3.64,9.91,9.91,0,0,1,2.14-5c1.09-1.46,2.32-2.7,3.36-4.22" transform="translate(-11.86 -54.83)"/><path class="cls-6" d="M308.85,271.94a6.75,6.75,0,0,1-4.94-.87,2.3,2.3,0,0,1-1.11-1.41,4.64,4.64,0,0,1,.53-2.84,14.44,14.44,0,0,1,1.69-2.48l2.51-3.18" transform="translate(-11.86 -54.83)"/><path class="cls-7" d="M337.85,250a6.11,6.11,0,0,0,.71-1.08,2,2,0,0,0,.23-1.22.31.31,0,0,0-.1-.19c-.09-.05-.21,0-.31.09a12.71,12.71,0,0,0-2.52,2.55,4.34,4.34,0,0,0-.63.93,1.2,1.2,0,0,0-.06,1c.23.33.73.08,1.11-.27A16.56,16.56,0,0,0,337.85,250Z" transform="translate(-11.86 -54.83)"/><path class="cls-7" d="M333.27,252.63c.12-.16.16-.41.06-.5a.22.22,0,0,0-.11,0,1.71,1.71,0,0,0-1.37.58.67.67,0,0,0-.24.44.26.26,0,0,0,.12.22.58.58,0,0,0,.53,0A2.5,2.5,0,0,0,333.27,252.63Z" transform="translate(-11.86 -54.83)"/><path class="cls-7" d="M339.84,249.23c0,.12,0,.26.06.28l.08,0a1.75,1.75,0,0,0,.81-.77.43.43,0,0,0,.07-.3.12.12,0,0,0-.12-.08.59.59,0,0,0-.36.18A2.27,2.27,0,0,0,339.84,249.23Z" transform="translate(-11.86 -54.83)"/><path class="cls-7" d="M345.12,241.25c0,.1.1.17.19.11a.22.22,0,0,0,.07-.09,2.24,2.24,0,0,0,.42-1.15c0-.1,0-.22-.08-.24s-.1,0-.15.06a1,1,0,0,0-.27.42A2.61,2.61,0,0,0,345.12,241.25Z" transform="translate(-11.86 -54.83)"/><path class="cls-7" d="M332.63,254.85a.27.27,0,0,0-.21.23.2.2,0,0,0,0,.11.79.79,0,0,0,.54.65.2.2,0,0,0,.23-.07.51.51,0,0,0,.06-.21.67.67,0,0,0-.12-.39C333,255,332.8,254.83,332.63,254.85Z" transform="translate(-11.86 -54.83)"/><path class="cls-7" d="M344.16,237.48a.66.66,0,0,0-.13-.57.57.57,0,0,0-.57-.07,2,2,0,0,0-.85.45,1.39,1.39,0,0,0-.44.64,1.13,1.13,0,0,0,0,.71.63.63,0,0,0,.36.45.75.75,0,0,0,.65-.25A3.17,3.17,0,0,0,344.16,237.48Z" transform="translate(-11.86 -54.83)"/><path class="cls-7" d="M342.77,244.3a1.05,1.05,0,0,0-.19-.9.78.78,0,0,0-.68-.25.73.73,0,0,0-.53.25,1.13,1.13,0,0,0-.27.76,1,1,0,0,0,.22.63,1,1,0,0,0,.5.34C342.16,245.23,342.66,244.85,342.77,244.3Z" transform="translate(-11.86 -54.83)"/><path class="cls-7" d="M339.45,245.31a.36.36,0,0,0-.06-.28.23.23,0,0,0-.21-.07.2.2,0,0,0-.16.07.36.36,0,0,0-.09.24.29.29,0,0,0,.07.19.25.25,0,0,0,.15.1C339.26,245.6,339.41,245.48,339.45,245.31Z" transform="translate(-11.86 -54.83)"/><path class="cls-7" d="M337.73,253.2a.3.3,0,0,0-.06-.27.21.21,0,0,0-.21-.08.21.21,0,0,0-.16.08.38.38,0,0,0-.08.23.29.29,0,0,0,.07.19.33.33,0,0,0,.15.11C337.54,253.49,337.7,253.37,337.73,253.2Z" transform="translate(-11.86 -54.83)"/><path class="cls-7" d="M335.51,253.9a.39.39,0,0,0-.22.22.78.78,0,0,0-.09.33.28.28,0,0,0,0,.19c0,.05.11,0,.17,0a.64.64,0,0,0,.16-.2.79.79,0,0,0,.1-.27C335.71,254,335.64,253.86,335.51,253.9Z" transform="translate(-11.86 -54.83)"/><path class="cls-7" d="M334.17,256.54a.16.16,0,0,0,0-.14.14.14,0,0,0-.1,0,.12.12,0,0,0-.09,0,.25.25,0,0,0,0,.12.13.13,0,0,0,0,.09.12.12,0,0,0,.07.05C334.08,256.68,334.15,256.62,334.17,256.54Z" transform="translate(-11.86 -54.83)"/><path class="cls-7" d="M334.64,253.68a.2.2,0,0,0,0-.14.15.15,0,0,0-.11,0,.12.12,0,0,0-.08,0,.17.17,0,0,0,0,.12.19.19,0,0,0,0,.09.1.1,0,0,0,.08.05C334.55,253.82,334.63,253.76,334.64,253.68Z" transform="translate(-11.86 -54.83)"/><path class="cls-7" d="M332.47,257.25a.16.16,0,0,0,0-.14.12.12,0,0,0-.1,0,.09.09,0,0,0-.08,0,.17.17,0,0,0,0,.12.14.14,0,0,0,0,.09.14.14,0,0,0,.08.05C332.38,257.39,332.46,257.33,332.47,257.25Z" transform="translate(-11.86 -54.83)"/><path class="cls-7" d="M331.07,255.45a.32.32,0,0,0-.06-.28.26.26,0,0,0-.21-.08.3.3,0,0,0-.17.08.41.41,0,0,0-.08.24.27.27,0,0,0,.07.19.26.26,0,0,0,.16.11C330.88,255.74,331,255.62,331.07,255.45Z" transform="translate(-11.86 -54.83)"/><path class="cls-7" d="M331.13,257.75a.36.36,0,0,0-.06-.28.23.23,0,0,0-.21-.07.2.2,0,0,0-.16.07.36.36,0,0,0-.09.24.29.29,0,0,0,.07.19.33.33,0,0,0,.15.11C330.94,258,331.09,257.92,331.13,257.75Z" transform="translate(-11.86 -54.83)"/><path class="cls-7" d="M303.19,250.88c3.85-3.33,8.15-5,12.08-8.08a30.91,30.91,0,0,0,9.37-12.39,40.13,40.13,0,0,0,3-18.94c3.78,12.32,1.13,28.94-5.81,36.56-2.06,2.26-4.4,3.76-6.56,5.75a36.77,36.77,0,0,0-7.95,11.06,68.2,68.2,0,0,1-4,7.88c-2.89,4.31-9.77,4.54-9.06-4.46C294.86,261.07,299.6,254,303.19,250.88Z" transform="translate(-11.86 -54.83)"/><path class="cls-8" d="M291.67,276.18a63.85,63.85,0,0,1,8.1-17.52,43.57,43.57,0,0,1,6.34-7.46,35.33,35.33,0,0,1,3.89-3.06c1.35-.91,2.69-1.67,4-2.43a26,26,0,0,0,6.62-5.05,27,27,0,0,0,4.46-7.22,44.36,44.36,0,0,0,3.52-17.3,45.54,45.54,0,0,1-1.16,18.14,26.92,26.92,0,0,1-10.59,15.54c-1.19,1-2.35,1.86-3.38,2.78a27.71,27.71,0,0,0-2.81,2.93,36.85,36.85,0,0,0-4.39,6.94,55.13,55.13,0,0,0-4.81,15.92Z" transform="translate(-11.86 -54.83)"/><path class="cls-8" d="M303.61,252.16a1.67,1.67,0,0,0-.11.89.59.59,0,0,0,.12.29.24.24,0,0,0,.15.09.6.6,0,0,0,.61-.2,2.5,2.5,0,0,0,.48-.68,2.35,2.35,0,0,0,.29-.82,1.17,1.17,0,0,0-.17-.85.34.34,0,0,0-.47,0A3.53,3.53,0,0,0,303.61,252.16Z" transform="translate(-11.86 -54.83)"/><path class="cls-8" d="M313.37,247.74a.47.47,0,0,0,.19-.46s0-.08,0-.11a.43.43,0,0,0-.28-.19.58.58,0,0,0-.29.06.56.56,0,0,0-.25.19.55.55,0,0,0-.06.4.25.25,0,0,0,.17.21A.74.74,0,0,0,313.37,247.74Z" transform="translate(-11.86 -54.83)"/><path class="cls-8" d="M310.52,254.63a.88.88,0,0,0-.21.63,1.2,1.2,0,0,0,.05.33,1.65,1.65,0,0,0,.1.19.65.65,0,0,0,.5.3.75.75,0,0,0,.46-.19.83.83,0,0,0,.33-.43,1.36,1.36,0,0,0,0-.82.54.54,0,0,0-.35-.37A1.07,1.07,0,0,0,310.52,254.63Z" transform="translate(-11.86 -54.83)"/><path class="cls-8" d="M314.82,244.88a.54.54,0,0,0-.12.36.63.63,0,0,0,0,.19.21.21,0,0,0,.06.1.33.33,0,0,0,.28.17.39.39,0,0,0,.26-.1.54.54,0,0,0,.18-.25.66.66,0,0,0,0-.46.27.27,0,0,0-.2-.21A.59.59,0,0,0,314.82,244.88Z" transform="translate(-11.86 -54.83)"/><path class="cls-8" d="M316.12,248.69a.44.44,0,0,0-.09.28.77.77,0,0,0,0,.15.22.22,0,0,0,.05.08.26.26,0,0,0,.22.13.32.32,0,0,0,.2-.08.41.41,0,0,0,.14-.19.55.55,0,0,0,0-.36.23.23,0,0,0-.16-.16A.45.45,0,0,0,316.12,248.69Z" transform="translate(-11.86 -54.83)"/><path class="cls-8" d="M322.94,237.33a.5.5,0,0,0-.12.36.57.57,0,0,0,0,.18.39.39,0,0,0,.06.11.35.35,0,0,0,.28.17.46.46,0,0,0,.26-.11.53.53,0,0,0,.19-.24.84.84,0,0,0,0-.47.34.34,0,0,0-.2-.21A.64.64,0,0,0,322.94,237.33Z" transform="translate(-11.86 -54.83)"/><path class="cls-8" d="M308,249.72a.45.45,0,0,0-.08.26.68.68,0,0,0,0,.14.43.43,0,0,0,0,.07.28.28,0,0,0,.21.13.44.44,0,0,0,.32-.26.53.53,0,0,0,0-.33.21.21,0,0,0-.14-.15A.46.46,0,0,0,308,249.72Z" transform="translate(-11.86 -54.83)"/><path class="cls-8" d="M308.93,247.83a.3.3,0,0,0-.05.18.19.19,0,0,0,0,.08l0,0a.17.17,0,0,0,.13.09.22.22,0,0,0,.13-.06.2.2,0,0,0,.08-.11.33.33,0,0,0,0-.22.15.15,0,0,0-.09-.1A.32.32,0,0,0,308.93,247.83Z" transform="translate(-11.86 -54.83)"/><path class="cls-8" d="M316.51,244.92a.26.26,0,0,0-.05.17.28.28,0,0,0,0,.09l0,0a.16.16,0,0,0,.13.08.21.21,0,0,0,.13-.05.28.28,0,0,0,.08-.12.33.33,0,0,0,0-.22.14.14,0,0,0-.1-.1A.32.32,0,0,0,316.51,244.92Z" transform="translate(-11.86 -54.83)"/><path class="cls-8" d="M317,243.27a.23.23,0,0,0-.05.17.28.28,0,0,0,0,.09l0,.05a.16.16,0,0,0,.13.08.18.18,0,0,0,.12,0,.19.19,0,0,0,.09-.12.41.41,0,0,0,0-.22c0-.05-.06-.09-.1-.09A.26.26,0,0,0,317,243.27Z" transform="translate(-11.86 -54.83)"/><path class="cls-8" d="M320.18,241.61a.24.24,0,0,0-.06.17.19.19,0,0,0,0,.08.08.08,0,0,0,0,0,.17.17,0,0,0,.14.09.31.31,0,0,0,.12-.05.23.23,0,0,0,.09-.12.34.34,0,0,0,0-.22.15.15,0,0,0-.09-.1A.27.27,0,0,0,320.18,241.61Z" transform="translate(-11.86 -54.83)"/><path class="cls-8" d="M321.07,239.05a.17.17,0,0,0-.05.13s0,0,0,.07l0,0a.13.13,0,0,0,.11.06.13.13,0,0,0,.1,0,.43.43,0,0,0,.07-.1.34.34,0,0,0,0-.17.14.14,0,0,0-.07-.08A.22.22,0,0,0,321.07,239.05Z" transform="translate(-11.86 -54.83)"/><path class="cls-8" d="M321.88,239.84a.2.2,0,0,0-.05.14.19.19,0,0,0,0,.07.08.08,0,0,0,0,0,.14.14,0,0,0,.1.06.18.18,0,0,0,.1,0,.22.22,0,0,0,.07-.09.33.33,0,0,0,0-.17s0-.08-.07-.08A.24.24,0,0,0,321.88,239.84Z" transform="translate(-11.86 -54.83)"/><path class="cls-8" d="M326,231.27a.22.22,0,0,0,0,.13.15.15,0,0,0,0,.07l0,0a.13.13,0,0,0,.11.07.18.18,0,0,0,.09,0,.15.15,0,0,0,.07-.1.25.25,0,0,0,0-.17s-.05-.07-.08-.07A.22.22,0,0,0,326,231.27Z" transform="translate(-11.86 -54.83)"/><path class="cls-8" d="M327.19,227.15a.17.17,0,0,0-.05.13.64.64,0,0,0,0,.07.05.05,0,0,0,0,0,.13.13,0,0,0,.1.07.18.18,0,0,0,.1,0,.2.2,0,0,0,.07-.1.25.25,0,0,0,0-.17.08.08,0,0,0-.07-.07A.19.19,0,0,0,327.19,227.15Z" transform="translate(-11.86 -54.83)"/><path class="cls-8" d="M324.48,233.43a.22.22,0,0,0,0,.13.15.15,0,0,0,0,.07.05.05,0,0,0,0,0,.14.14,0,0,0,.1.06.13.13,0,0,0,.1,0,.13.13,0,0,0,.07-.09.25.25,0,0,0,0-.17.13.13,0,0,0-.08-.08A.23.23,0,0,0,324.48,233.43Z" transform="translate(-11.86 -54.83)"/><path class="cls-8" d="M324.23,235.35a.26.26,0,0,0,0,.14.13.13,0,0,0,0,.06.05.05,0,0,0,0,0,.13.13,0,0,0,.1.07.18.18,0,0,0,.1,0,.16.16,0,0,0,.07-.09.28.28,0,0,0,0-.18s-.05-.07-.08-.07A.22.22,0,0,0,324.23,235.35Z" transform="translate(-11.86 -54.83)"/><path class="cls-8" d="M325.34,233.43a.2.2,0,0,0,0,.14.2.2,0,0,0,0,.07.05.05,0,0,1,0,0,.15.15,0,0,0,.11.06.21.21,0,0,0,.1,0,.2.2,0,0,0,.06-.09.25.25,0,0,0,0-.17c0-.05,0-.08-.07-.08A.21.21,0,0,0,325.34,233.43Z" transform="translate(-11.86 -54.83)"/><path class="cls-8" d="M309.69,249.82a.13.13,0,0,0-.09.12.25.25,0,0,0,0,.09.13.13,0,0,0,0,.06.28.28,0,0,0,.1.16.22.22,0,0,0,.13,0,.13.13,0,0,0,.11,0A.31.31,0,0,0,310,250a.3.3,0,0,0-.07-.15A.26.26,0,0,0,309.69,249.82Z" transform="translate(-11.86 -54.83)"/><path class="cls-8" d="M313.27,245.26a.17.17,0,0,0-.09.12.28.28,0,0,0,0,.09s0,.05,0,.07a.29.29,0,0,0,.11.16.14.14,0,0,0,.12,0,.12.12,0,0,0,.11,0,.33.33,0,0,0,.05-.21.26.26,0,0,0-.06-.15A.29.29,0,0,0,313.27,245.26Z" transform="translate(-11.86 -54.83)"/><path class="cls-8" d="M318.73,243.2a.16.16,0,0,0-.1.12.27.27,0,0,0,0,.09.13.13,0,0,0,0,.06.28.28,0,0,0,.1.16.2.2,0,0,0,.13,0,.15.15,0,0,0,.11,0,.32.32,0,0,0,0-.21.23.23,0,0,0-.06-.15A.23.23,0,0,0,318.73,243.2Z" transform="translate(-11.86 -54.83)"/><path class="cls-8" d="M321.27,245a.55.55,0,0,0-.12.36.57.57,0,0,0,0,.18l.06.11a.36.36,0,0,0,.28.17.59.59,0,0,0,.45-.35.76.76,0,0,0,0-.47.34.34,0,0,0-.2-.21A.61.61,0,0,0,321.27,245Z" transform="translate(-11.86 -54.83)"/><path class="cls-8" d="M323.19,241.81a.45.45,0,0,0-.09.29.32.32,0,0,0,0,.14.25.25,0,0,0,0,.09.29.29,0,0,0,.22.13.34.34,0,0,0,.21-.08.41.41,0,0,0,.15-.2.63.63,0,0,0,0-.36c0-.1-.1-.16-.16-.17A.51.51,0,0,0,323.19,241.81Z" transform="translate(-11.86 -54.83)"/><path class="cls-8" d="M310.11,248.59a.39.39,0,0,0,.3.23.52.52,0,0,0,.33-.09,2.3,2.3,0,0,0,.72-.76,1.57,1.57,0,0,0,.26-.77C311.74,245.58,309.53,247.36,310.11,248.59Z" transform="translate(-11.86 -54.83)"/><path class="cls-8" d="M318.21,248.2a.67.67,0,0,0,.2.43.62.62,0,0,0,.33.15,1.25,1.25,0,0,0,.85-.16.81.81,0,0,0,.43-.5C320.47,246.67,318,246.69,318.21,248.2Z" transform="translate(-11.86 -54.83)"/><path class="cls-9" d="M316.78,229a7.92,7.92,0,0,0,.11-3.55,2.35,2.35,0,0,0-.59-1.08c-1.31-1.32-2.81.84-3.7,3.31s-1.57,5.51-2.84,7c-.47-2.47.39-5.31.1-7.9-.21-1.86-1-3.26-1.91-3.42s-1.75.83-2.26,2.39c-1.13,3.44-.38,8.26-.82,12.38a7.79,7.79,0,0,1-.76,2.94c-.41.71-1.05.88-1.46.15-.88-1.54-.11-5.44-1.09-6.66-.42-.53-1-.17-1.33.57a10.11,10.11,0,0,0-.63,2.82,42.67,42.67,0,0,0-.19,7.42,19.06,19.06,0,0,1,.08,2.72c-.07.9-.34,1.8-.74,2-1.23.63-1.83-4.86-3-4-.69.52-.66,2.63-.5,4.18l1.11,10.9c.21,2,.48,4.17,1.28,5.21a2.06,2.06,0,0,0,1.38.77,13.56,13.56,0,0,0,7.84-.71,2.6,2.6,0,0,0,1.59-1.43,4.49,4.49,0,0,0,0-3.36c-.3-.49-.84-.91-.69-1.66a.64.64,0,0,1,.46-.52c2.73-.91,5.77-1,7.81-5a4.12,4.12,0,0,0,.44-1.35,3.13,3.13,0,0,0-1.12-3c-.66-.31-1.35,0-2-.32a3,3,0,0,1-1.17-3c1.85-.55,3.63-2.26,5.06-4.87.56-1,1.09-2.89.59-4.07a1,1,0,0,0-1.11-.68,5.3,5.3,0,0,0-2.56,1c-.4.3-1.32,1-1.28-.48,0-.78,1.25-1.94,1.51-2.37A20.52,20.52,0,0,0,316.78,229Z" transform="translate(-11.86 -54.83)"/><path class="cls-9" d="M313.5,229.63a3.36,3.36,0,0,0-.19.61,1.7,1.7,0,0,0,0,.71c0,.05,0,.1.06.12s.07,0,.11,0a5.46,5.46,0,0,0,.78-1.39,1.94,1.94,0,0,0,.17-.53,1.08,1.08,0,0,0,0-.6c-.11-.21-.29-.09-.41.1A8.68,8.68,0,0,0,313.5,229.63Z" transform="translate(-11.86 -54.83)"/><path class="cls-9" d="M315.06,228.28a.35.35,0,0,0,0,.3s0,0,0,0c.17.06.35,0,.48-.27a.41.41,0,0,0,.07-.25.31.31,0,0,0-.06-.14.17.17,0,0,0-.21,0A.76.76,0,0,0,315.06,228.28Z" transform="translate(-11.86 -54.83)"/><path class="cls-9" d="M312.8,230c0-.07,0-.16,0-.17h0a.68.68,0,0,0-.26.42.55.55,0,0,0,0,.18.13.13,0,0,0,.06.05s.08,0,.12-.09A1.17,1.17,0,0,0,312.8,230Z" transform="translate(-11.86 -54.83)"/><path class="cls-9" d="M311.34,234.45c0-.07,0-.11-.08-.08s0,0,0,0a1.56,1.56,0,0,0-.08.66c0,.07,0,.14,0,.16s0,0,.05,0a.48.48,0,0,0,.07-.23A1.82,1.82,0,0,0,311.34,234.45Z" transform="translate(-11.86 -54.83)"/><path class="cls-9" d="M315.15,227s.06-.06.06-.13a.15.15,0,0,0,0-.07.63.63,0,0,0-.25-.42s-.06,0-.08,0a.49.49,0,0,0,0,.12.68.68,0,0,0,.07.24C315,226.85,315.08,227,315.15,227Z" transform="translate(-11.86 -54.83)"/><path class="cls-9" d="M312,236.75a.61.61,0,0,0,.09.35.19.19,0,0,0,.22.08.55.55,0,0,0,.29-.23.66.66,0,0,0,.12-.36,1,1,0,0,0-.06-.42.53.53,0,0,0-.17-.29c-.07,0-.16,0-.23.11A1.63,1.63,0,0,0,312,236.75Z" transform="translate(-11.86 -54.83)"/><path class="cls-9" d="M312,232.75a1,1,0,0,0,.13.55.35.35,0,0,0,.27.18.18.18,0,0,0,.19-.12.88.88,0,0,0,.05-.44,1,1,0,0,0-.13-.38.64.64,0,0,0-.21-.24C312.19,232.22,312,232.42,312,232.75Z" transform="translate(-11.86 -54.83)"/><path class="cls-9" d="M313.22,232.32a.29.29,0,0,0,0,.17.09.09,0,0,0,.08.06.06.06,0,0,0,.06,0,.27.27,0,0,0,0-.13.83.83,0,0,0,0-.12.23.23,0,0,0-.07-.07S313.22,232.22,313.22,232.32Z" transform="translate(-11.86 -54.83)"/><path class="cls-9" d="M313.32,227.69a.39.39,0,0,0,0,.17.12.12,0,0,0,.09.06.07.07,0,0,0,.06,0,.28.28,0,0,0,0-.13.21.21,0,0,0,0-.12.14.14,0,0,0-.06-.07C313.37,227.53,313.32,227.59,313.32,227.69Z" transform="translate(-11.86 -54.83)"/><path class="cls-9" d="M314.12,227.4s.05-.06.07-.12a1.27,1.27,0,0,0,0-.2s0-.09,0-.11,0,0-.06,0a.16.16,0,0,0-.05.11.77.77,0,0,0,0,.15C314,227.32,314.07,227.42,314.12,227.4Z" transform="translate(-11.86 -54.83)"/><path class="cls-9" d="M314.45,225.89s0,.07,0,.08,0,0,0,0h0a.09.09,0,0,0,0-.07.08.08,0,0,0,0-.06s0,0,0,0S314.45,225.84,314.45,225.89Z" transform="translate(-11.86 -54.83)"/><path class="cls-9" d="M314.46,227.58a.19.19,0,0,0,0,.08s0,0,0,0a0,0,0,0,0,0,0,.15.15,0,0,0,0-.07.14.14,0,0,0,0-.06l0,0S314.46,227.53,314.46,227.58Z" transform="translate(-11.86 -54.83)"/><path class="cls-9" d="M315,225.56a.19.19,0,0,0,0,.08.05.05,0,0,0,0,0s0,0,0,0,0,0,0-.07a.08.08,0,0,0,0-.05l0,0S315,225.51,315,225.56Z" transform="translate(-11.86 -54.83)"/><path class="cls-9" d="M315.7,226.71a.29.29,0,0,0,0,.17.11.11,0,0,0,.09.06.05.05,0,0,0,.05,0,.3.3,0,0,0,0-.14.34.34,0,0,0,0-.12.16.16,0,0,0-.07-.07S315.7,226.61,315.7,226.71Z" transform="translate(-11.86 -54.83)"/><path class="cls-9" d="M315.52,225.33a.29.29,0,0,0,0,.17.09.09,0,0,0,.08.06.06.06,0,0,0,.06,0,.3.3,0,0,0,0-.14s0-.08,0-.11a.19.19,0,0,0-.07-.08S315.52,225.23,315.52,225.33Z" transform="translate(-11.86 -54.83)"/><path class="cls-9" d="M306.53,230.7a5.85,5.85,0,0,0-.07.72,1.48,1.48,0,0,0,.13.67s0,.06.06.06.07-.06.1-.12a9.51,9.51,0,0,0,.47-1.94,3.38,3.38,0,0,0,.07-.63.77.77,0,0,0-.15-.52c-.14-.1-.28.16-.35.43A10.8,10.8,0,0,0,306.53,230.7Z" transform="translate(-11.86 -54.83)"/><path class="cls-9" d="M307.72,228.14c0,.11,0,.25.07.27h0a1,1,0,0,0,.39-.66.53.53,0,0,0,0-.28c0-.05-.05-.07-.08-.07s-.14,0-.19.13A1.87,1.87,0,0,0,307.72,228.14Z" transform="translate(-11.86 -54.83)"/><path class="cls-9" d="M305.94,231.6c0-.07,0-.14-.07-.12l0,0a1.34,1.34,0,0,0-.15.59.28.28,0,0,0,0,.17s0,0,.06,0a.48.48,0,0,0,.1-.19A1.93,1.93,0,0,0,305.94,231.6Z" transform="translate(-11.86 -54.83)"/><path class="cls-9" d="M305.4,237c0-.05-.07-.06-.09,0s0,0,0,.06a1.7,1.7,0,0,0,.05.68c0,.05,0,.11.07.1s0,0,0-.07a.86.86,0,0,0,0-.28A1.78,1.78,0,0,0,305.4,237Z" transform="translate(-11.86 -54.83)"/><path class="cls-9" d="M307.58,226.88a.21.21,0,0,0,0-.18s0,0,0,0-.2-.21-.31-.17a.11.11,0,0,0-.07.09.37.37,0,0,0,0,.12.22.22,0,0,0,.11.16C307.39,226.89,307.52,226.93,307.58,226.88Z" transform="translate(-11.86 -54.83)"/><path class="cls-9" d="M306.39,238.56a.31.31,0,0,0,.14.24c.08,0,.15,0,.22-.11a1.35,1.35,0,0,0,.23-.45,1.07,1.07,0,0,0,0-.44.71.71,0,0,0-.13-.34c-.06-.09-.14-.15-.21-.13a.44.44,0,0,0-.19.3A2.61,2.61,0,0,0,306.39,238.56Z" transform="translate(-11.86 -54.83)"/><path class="cls-9" d="M305.73,234.82a.51.51,0,0,0,.22.39c.09.06.19,0,.29-.06a.4.4,0,0,0,.14-.26.84.84,0,0,0,0-.45.43.43,0,0,0-.19-.25.29.29,0,0,0-.24,0C305.79,234.2,305.67,234.52,305.73,234.82Z" transform="translate(-11.86 -54.83)"/><path class="cls-9" d="M306.75,233.42c0,.07,0,.11.07.12a.08.08,0,0,0,.09,0,.23.23,0,0,0,0-.22.1.1,0,0,0-.06-.08.08.08,0,0,0-.07,0S306.73,233.33,306.75,233.42Z" transform="translate(-11.86 -54.83)"/><path class="cls-9" d="M306,229.07a.18.18,0,0,0,.07.12.1.1,0,0,0,.09,0,.15.15,0,0,0,0-.08.22.22,0,0,0,0-.14.16.16,0,0,0,0-.08.11.11,0,0,0-.08,0S306,229,306,229.07Z" transform="translate(-11.86 -54.83)"/><path class="cls-9" d="M306.7,228.12a.25.25,0,0,0,0-.16.39.39,0,0,0,0-.19.15.15,0,0,0-.05-.09s0,0-.06,0a.59.59,0,0,0,0,.14.43.43,0,0,0,0,.16C306.61,228.12,306.66,228.18,306.7,228.12Z" transform="translate(-11.86 -54.83)"/><path class="cls-9" d="M306.73,226.46a.09.09,0,0,0,0,.06s0,0,0,0a.05.05,0,0,0,0,0,.09.09,0,0,0,0-.07l0,0s0,0,0,0S306.73,226.41,306.73,226.46Z" transform="translate(-11.86 -54.83)"/><path class="cls-9" d="M307.05,228a.16.16,0,0,0,0,.06s0,0,.05,0a.05.05,0,0,0,0,0s0,0,0-.07l0,0a0,0,0,0,0,0,0S307,228,307.05,228Z" transform="translate(-11.86 -54.83)"/><path class="cls-9" d="M307.22,225.65a.09.09,0,0,0,0,.06s0,0,0,0a.05.05,0,0,0,0,0s0,0,0-.07l0,0h0S307.22,225.6,307.22,225.65Z" transform="translate(-11.86 -54.83)"/><path class="cls-9" d="M308,226.16a.22.22,0,0,0,.07.12.1.1,0,0,0,.09,0,.16.16,0,0,0,.05-.08.32.32,0,0,0,0-.14.18.18,0,0,0-.06-.08.06.06,0,0,0-.07,0C308.05,226,308,226.06,308,226.16Z" transform="translate(-11.86 -54.83)"/><path class="cls-9" d="M307.62,225a.18.18,0,0,0,.07.12s.06,0,.09,0a.1.1,0,0,0,0-.08.22.22,0,0,0,0-.14.16.16,0,0,0-.05-.08h-.08S307.61,225,307.62,225Z" transform="translate(-11.86 -54.83)"/><path class="cls-9" d="M300.66,240.77a.59.59,0,0,0,0,.27.21.21,0,0,0,.21.14.1.1,0,0,0,.07,0,.23.23,0,0,0,.08-.09,2.44,2.44,0,0,0,.17-.86.45.45,0,0,0,0-.23.17.17,0,0,0-.21-.08.43.43,0,0,0-.27.32A2.15,2.15,0,0,0,300.66,240.77Z" transform="translate(-11.86 -54.83)"/><path class="cls-9" d="M301.37,238.66c0,.11.06.22.11.19l0,0a2.28,2.28,0,0,0,.24-1,.52.52,0,0,0,0-.27.05.05,0,0,0-.08,0,.65.65,0,0,0-.16.3A3.26,3.26,0,0,0,301.37,238.66Z" transform="translate(-11.86 -54.83)"/><path class="cls-9" d="M300.38,243.38c0-.06-.06-.09-.08,0a.08.08,0,0,0,0,0,1.77,1.77,0,0,0,0,.69c0,.06,0,.12.06.13s0,0,.05,0a1,1,0,0,0,.06-.26A2.24,2.24,0,0,0,300.38,243.38Z" transform="translate(-11.86 -54.83)"/><path class="cls-9" d="M300.88,248.76s-.07,0-.08.08v.07a1.28,1.28,0,0,0,.17.58s.06.06.08,0a.18.18,0,0,0,0-.11,1.33,1.33,0,0,0,0-.28A1.06,1.06,0,0,0,300.88,248.76Z" transform="translate(-11.86 -54.83)"/><path class="cls-9" d="M301,237.63a.31.31,0,0,0,0-.19s0,0,0,0-.22,0-.31.11a.23.23,0,0,0-.05.15.19.19,0,0,0,0,.09.12.12,0,0,0,.13.06A.44.44,0,0,0,301,237.63Z" transform="translate(-11.86 -54.83)"/><path class="cls-9" d="M302.08,249.36c.05.1.12.13.18.1s.13-.16.17-.29a2.27,2.27,0,0,0,.13-.62,1.26,1.26,0,0,0,0-.44.31.31,0,0,0-.19-.2.18.18,0,0,0-.21.07.85.85,0,0,0-.12.44A2.59,2.59,0,0,0,302.08,249.36Z" transform="translate(-11.86 -54.83)"/><path class="cls-9" d="M300.78,246.52c.07.15.18.2.28.17a.63.63,0,0,0,.25-.31.84.84,0,0,0,.09-.37.62.62,0,0,0-.12-.39.19.19,0,0,0-.21-.06.45.45,0,0,0-.23.17A1,1,0,0,0,300.78,246.52Z" transform="translate(-11.86 -54.83)"/><path class="cls-9" d="M301.6,242.74c.07.15.18.21.28.17a.55.55,0,0,0,.25-.31,1.25,1.25,0,0,0,.09-.37.57.57,0,0,0-.12-.38.18.18,0,0,0-.21-.07.54.54,0,0,0-.23.18A.91.91,0,0,0,301.6,242.74Z" transform="translate(-11.86 -54.83)"/><path class="cls-9" d="M301.46,244.35a.08.08,0,0,0,.09.05s.05-.05.07-.1a.2.2,0,0,0,0-.11.19.19,0,0,0,0-.12.07.07,0,0,0-.07,0,.13.13,0,0,0-.07.06A.28.28,0,0,0,301.46,244.35Z" transform="translate(-11.86 -54.83)"/><path class="cls-9" d="M300,241s.05.07.08.06a.21.21,0,0,0,.08-.1.35.35,0,0,0,0-.11.19.19,0,0,0,0-.12s0,0-.06,0a.12.12,0,0,0-.07.05A.28.28,0,0,0,300,241Z" transform="translate(-11.86 -54.83)"/><path class="cls-9" d="M300.44,239.54a.45.45,0,0,0,0-.2.53.53,0,0,0-.05-.15s0,0-.06,0a.15.15,0,0,0-.05.1.33.33,0,0,0,0,.14.58.58,0,0,0,0,.14C300.35,239.61,300.41,239.62,300.44,239.54Z" transform="translate(-11.86 -54.83)"/><path class="cls-9" d="M300.16,238a.05.05,0,0,0,0,0,.1.1,0,0,0,0,0,.11.11,0,0,0,0-.06.07.07,0,0,0,0-.05,0,0,0,0,0,0,0l0,0A.13.13,0,0,0,300.16,238Z" transform="translate(-11.86 -54.83)"/><path class="cls-9" d="M300.73,239.11s0,0,0,0,0,0,0,0a.08.08,0,0,0,0-.05.08.08,0,0,0,0-.06h0s0,0,0,0A.14.14,0,0,0,300.73,239.11Z" transform="translate(-11.86 -54.83)"/><path class="cls-9" d="M300.46,236.81s0,0,0,0a.11.11,0,0,0,0-.05.43.43,0,0,0,0,0,.08.08,0,0,0,0-.06h0l0,0A.11.11,0,0,0,300.46,236.81Z" transform="translate(-11.86 -54.83)"/><path class="cls-9" d="M301.29,236.57c0,.05.06.06.09.05a.18.18,0,0,0,.08-.09.5.5,0,0,0,0-.12.19.19,0,0,0,0-.12.07.07,0,0,0-.07,0l-.07,0A.31.31,0,0,0,301.29,236.57Z" transform="translate(-11.86 -54.83)"/><path class="cls-9" d="M300.71,235.91s.05.06.08.05a.17.17,0,0,0,.08-.1.2.2,0,0,0,0-.11.19.19,0,0,0,0-.12s0,0-.06,0a.18.18,0,0,0-.07,0A.3.3,0,0,0,300.71,235.91Z" transform="translate(-11.86 -54.83)"/><path class="cls-9" d="M310,240.38c-5.39,14.29-12.12,26.19-19.66,34.75a1.11,1.11,0,0,0-.29.91c.07.38.35-.31.16-.26" transform="translate(-11.86 -54.83)"/><path class="cls-9" d="M305.3,261.76c-1.85,1.75-3.62,2.34-5.27-.21a20.09,20.09,0,0,1-1-7" transform="translate(-11.86 -54.83)"/><path class="cls-9" d="M310,251.49c-1.91,2.59-4.64,1.83-6.19-1.72a9.3,9.3,0,0,1-.79-4.05" transform="translate(-11.86 -54.83)"/><path class="cls-9" d="M312.55,242.06a5.48,5.48,0,0,1-2.41,1.61,1.55,1.55,0,0,1-2-.9,7.3,7.3,0,0,1-.54-2.89,25.58,25.58,0,0,1,.18-3.17" transform="translate(-11.86 -54.83)"/><ellipse class="cls-3" cx="318.7" cy="383.97" rx="153.97" ry="10.35"/><path class="cls-10" d="M391.23,436.93a219.77,219.77,0,0,0,32.73,2.7,200.63,200.63,0,0,0,30.87-2.7l-1.23-2.73c-5.42-12-25.92-7.34-30.57-19.74h0c-3.88,12.4-25.16,7.73-30.57,19.74Z" transform="translate(-11.86 -54.83)"/><rect class="cls-10" x="419.15" y="343.7" width="8.53" height="79.81" transform="translate(834.97 712.39) rotate(180)"/><polygon class="cls-9" points="409.72 362.14 406 354.01 397.84 357.01 400.1 365.37 409.72 362.14"/><path class="cls-11" d="M421.56,416.84l2,6.65-8.63,2.72s-19.47,8.17-23.09,4.38c-1.66-1.73,4.67-3.45,8.74-6.14S411,418,411,418A40.64,40.64,0,0,0,421.56,416.84Z" transform="translate(-11.86 -54.83)"/><polygon class="cls-9" points="366.62 374.16 365.35 365.31 356.68 365.88 356.48 374.55 366.62 374.16"/><path class="cls-11" d="M378.5,428.86v6.93l-9,.18s-21,2.34-23.4-2.31c-1.1-2.14,5.46-2,10.12-3.42S368.05,427,368.05,427A41.2,41.2,0,0,0,378.5,428.86Z" transform="translate(-11.86 -54.83)"/><path class="cls-9" d="M300.05,276.39l12-4,10.61,2.68c6-1.55,8-1.46,20.19-4.61A166.72,166.72,0,0,0,365,262.55l8.79-14.72c5.68.52,17.63,6.71,17.63,6.71s-16.34,22.22-21,23.77-36,5.37-48,4c-3.77-.44-11.14-4.42-11.14-4.42l-9.46,1.57-7.37,5-1.29-1.06,2.93-3.21Z" transform="translate(-11.86 -54.83)"/><path class="cls-12" d="M382.88,219.79s15.24,2.55,15,16.24c-.17,8.92-12.41,25.57-12.41,25.57s-6.72-9.3-15-11.88c0,0,5.37-15.75,7-20.67A23.35,23.35,0,0,1,382.88,219.79Z" transform="translate(-11.86 -54.83)"/><rect class="cls-10" x="408.29" y="341.38" width="30.25" height="16.27" transform="translate(834.97 644.2) rotate(180)"/><path class="cls-10" d="M412.34,278.1q-2.23-29.53-3.21-59.13c18.7-8.32,60.41-4.6,64.31,7.74,4.14,13.09-11.63,50.36-11.63,64.31s5.43,24,6.2,30.21a15.39,15.39,0,0,1-3.1,10.85H417.1C415.88,314.06,413.7,296.07,412.34,278.1Z" transform="translate(-11.86 -54.83)"/><path class="cls-2" d="M412.34,278.1q-2.32-30.78-3.28-61.62c20.55-4.8,53.2-.62,56.63,10.23,4.14,13.09-11.64,50.36-11.64,64.31s5.43,24,6.21,30.21a15.44,15.44,0,0,1-3.1,10.85H417.1C415.88,314.06,413.7,296.07,412.34,278.1Z" transform="translate(-11.86 -54.83)"/><path class="cls-2" d="M382.9,332.08h82a0,0,0,0,1,0,0V346.8a0,0,0,0,1,0,0h-90a0,0,0,0,1,0,0V340A8,8,0,0,1,382.9,332.08Z" transform="translate(827.99 624.06) rotate(180)"/><path class="cls-13" d="M392,298.25s-43,25.54-45.6,36.09c-3,12.59,17.59,87.12,17.59,87.12,4.87,3.27,13.89,2.17,17.21-.81,0,0-16.6-63.77-14.79-68,4.42-10.42,42.14-22.85,54-34.22s12.93-22.21,12.93-22.21Z" transform="translate(-11.86 -54.83)"/><path class="cls-14" d="M441.21,286.82s14.66,30.54,1.47,42.94c-6,5.67-42.15.51-44.21,6.2l21.8,72.35s-3.85,2.34-11.6,6.21c0,0-45.37-79.86-40.71-90.19s35.93-16.27,37.49-21.95a125.39,125.39,0,0,0,2.58-15Z" transform="translate(-11.86 -54.83)"/><path class="cls-9" d="M379.89,204.55c.88,3.33,2.44,7,5.71,8.07,3,1,6.19-.61,8.9-2.23,3.2-1.9,6.44-4,8.48-7.09,3.11-4.71,5.61-10.47,5.27-16.09-.13-2-3-4.43-4.25-6a9,9,0,0,0-3.4-2.44,35.93,35.93,0,0,0-9.55-3c-5.51-.9-11.64.34-12.75,6.39C377,189.35,378.05,197.55,379.89,204.55Z" transform="translate(-11.86 -54.83)"/><path class="cls-9" d="M420.51,213.66s-.07-1.16-4.21-2.19c-1.18-.3-2.67-.3-3.61-1.13-3.35-2.92-6.42-8.36-7.56-12.37a3.49,3.49,0,0,1-.18-1.83q-4.2,3.56-8.1,7.43c-.89.88-6.28.38-5.62,1.58.18.34,1.55,3.47,2.9,6.51-2.61,1.71-5.49,3.94-5.49,3.94L385,235.74l10.6,5.95s11.89-2.59,19.65-6.72S420.51,213.66,420.51,213.66Z" transform="translate(-11.86 -54.83)"/><path class="cls-15" d="M416.3,211.47a23.41,23.41,0,0,1-10.85,9c-7.76,3.35-14.74-6.72-14.74-6.72l-7.83,6s-.7,27.47,2.66,42.45,6.46,36,6.46,36,3.47,5.07,7.9,5.37c5.42.37,12.88-3.87,24.68-1.76a65.41,65.41,0,0,0,22.83.29S437.34,253,435,243.2s-8.36-29.93-8.36-29.93A82.51,82.51,0,0,0,416.3,211.47Z" transform="translate(-11.86 -54.83)"/><path class="cls-16" d="M261.32,279.53h60.26a3,3,0,0,1,3,3v2.09a0,0,0,0,1,0,0H261.32a0,0,0,0,1,0,0v-5.1A0,0,0,0,1,261.32,279.53Z" transform="translate(574.04 509.33) rotate(180)"/><path class="cls-17" d="M284.17,221.45a4.18,4.18,0,0,1,3.93,2.76l20.09,55.39-1.24.52.32,1-45.95-1.55-19.56-52.46a4.17,4.17,0,0,1,3.91-5.63Z" transform="translate(-11.86 -54.83)"/><path class="cls-18" d="M268.45,254.25c1.36,5.22,4,9.39,6,9.31s2.39-4.39,1-9.62-4-9.39-6-9.31S267.08,249,268.45,254.25Z" transform="translate(-11.86 -54.83)"/><path class="cls-19" d="M384.29,186.83c.06,3.1-1.19,5.43-2.49,8.14a5.71,5.71,0,0,0-.58,4.12.48.48,0,0,0,.45.34,11.16,11.16,0,0,0,3.67-1.35c.45-.2.13-1-.34-.81s-1,.46-1.56.6c-1.12.31-1.31.49-1.35-.69-.06-1.46,1.25-3.05,1.79-4.37a12.49,12.49,0,0,0,.92-6c0-.32-.52-.33-.51,0Z" transform="translate(-11.86 -54.83)"/><path class="cls-14" d="M387.71,181.43c-5-.33-10.32-.36-14.72-2.65-2.14-1.11-4.06-2.88-4.47-5.12a4.3,4.3,0,0,1,3.68-5,3.13,3.13,0,0,0,1.47-.24,2,2,0,0,0,.71-1.61c.55-4,3.91-8,8.24-7.9,3.54.08,6.83,2.8,10.25,2a14.5,14.5,0,0,0,2.94-1.29,15.87,15.87,0,0,1,9.54-1.29c3.39.6,7,3.27,6.16,6.38-.28,1-1,1.94-1.22,3-.71,3.76,5.29,5.63,6.47,9.29,1.08,3.32-2.21,6.63-2,10.1.14,1.92,1.26,4.18-.2,5.55-.79.73-2.12.91-2.65,1.82-.71,1.24.62,2.64.74,4,.14,1.73-1.84,3.18-3.71,3a5.26,5.26,0,0,1-4.16-3.13,11.18,11.18,0,0,1-.73-5.13c3.16-.89,5.11-6.1,2.13-7.43-1.58-.71-3.27,1-3.88,2.48C399.2,183.31,394.18,181.43,387.71,181.43Z" transform="translate(-11.86 -54.83)"/><path class="cls-14" d="M400.56,189.45c-1,2.41-2.09,4.81-3.14,7.22a6.85,6.85,0,0,1-1.66,2.64,5.4,5.4,0,0,1-4.58.79c-1.58-.32-4.59-1.19-6.19-1-3.65.31-6.34,2.06-6.58,2.51-.47.89.19,2.28.21,3.29a5.86,5.86,0,0,1-.7,3.05,10.12,10.12,0,0,1-1.37,1.63c-1.3,1.38-2.47,3.1-2.36,5,.14,2.58,2.53,4.39,4.69,5.82a12.31,12.31,0,0,0,4.44,2.16,12.8,12.8,0,0,0,3.33,0,33.73,33.73,0,0,0,6.86-1.1,11.17,11.17,0,0,0,5.74-3.73,16.58,16.58,0,0,0,2.33-5.42,39.33,39.33,0,0,0,1.89-9.39,67.44,67.44,0,0,0-.78-9,48.9,48.9,0,0,1-.17-7.84c0-.32.05-1.09-.42-1.16s-.33.71-.41,1A18.71,18.71,0,0,1,400.56,189.45Z" transform="translate(-11.86 -54.83)"/><path class="cls-9" d="M381.28,203.17a2.94,2.94,0,0,0,.6,3.27,1.86,1.86,0,0,0,1.44.58,1.08,1.08,0,0,0,1-1.06c0-.2-.09-.41,0-.58a.62.62,0,0,1,.52-.2c.71,0,1.58,0,1.92.64.1.19.13.41.25.6a1.47,1.47,0,0,0,1.4.45,8.44,8.44,0,0,0,2.17-.49,2.38,2.38,0,0,0,1-.57,1,1,0,0,0,.28-1,1.59,1.59,0,0,0-.63-.68C389,202.5,383.07,199.28,381.28,203.17Z" transform="translate(-11.86 -54.83)"/><path class="cls-19" d="M382.38,203.15a5.1,5.1,0,0,0,4.77-.08c.27-.21.21-.69-.18-.68-.74,0-1.46.29-2.21.33s-1.49-.11-2.24-.08a.28.28,0,0,0-.14.51Z" transform="translate(-11.86 -54.83)"/><path class="cls-10" d="M414,336.49s-1.49-41.69,7.82-44.44,29.81-2,29.81-2l1.87,7.47s-26.83-2-30.56,3.15,0,36.18,0,36.18Z" transform="translate(-11.86 -54.83)"/><path class="cls-9" d="M338.89,275.09l12-4,10.61,2.68c6-1.55,8-1.46,20.19-4.6a167.64,167.64,0,0,0,22.19-7.95l13.45-20.08c5.69.51,13,12.08,13,12.08S414,275.46,409.3,277s-40.16,5.66-52.12,4.29c-3.77-.43-10.43-4.55-10.43-4.55l-6,1.41-7.37,5-1.29-1.06,2.93-3.21Z" transform="translate(-11.86 -54.83)"/><path class="cls-12" d="M426.65,213.27s16,2.59,15.77,16.28c-.17,8.91-12.41,25.57-12.41,25.57s-6.72-9.3-15-11.89c0,0,6.47-12.65,7-17.82S426.65,213.27,426.65,213.27Z" transform="translate(-11.86 -54.83)"/><path class="cls-9" d="M312,280.73h45.41a3,3,0,0,1,3,3v.89a0,0,0,0,1,0,0H312a0,0,0,0,1,0,0v-3.9A0,0,0,0,1,312,280.73Z" transform="translate(660.63 510.52) rotate(180)"/><rect class="cls-9" x="339.8" y="281.97" width="16.14" height="1.21" transform="translate(683.87 510.31) rotate(180)"/><rect class="cls-9" x="334.99" y="281.97" width="2.39" height="1.21" transform="translate(660.5 510.31) rotate(180)"/><polygon class="cls-20" points="198.04 213.42 195.87 197.41 196.65 194.5 198.39 196.94 200.4 213.26 198.04 213.42"/><polygon class="cls-21" points="208.58 214.47 210.85 198.48 212.4 195.89 213.42 198.72 210.9 214.96 208.58 214.47"/><polygon class="cls-22" points="201.24 215.71 201.43 199.33 202.83 196.74 204.03 199.37 203.81 215.73 201.24 215.71"/><polygon class="cls-23" points="210.97 231.52 198.57 231.52 196.33 210.98 212.61 210.98 210.97 231.52"/><polygon class="cls-10" points="399.35 386.9 402.32 386.9 368.85 241.41 362.54 241.41 399.35 386.9"/><polygon class="cls-10" points="308.65 385.38 311.62 385.38 333.15 241.41 326.85 241.41 308.65 385.38"/><polygon class="cls-10" points="263.54 386.25 266.51 386.25 242.84 241.41 236.54 241.41 263.54 386.25"/><polygon class="cls-10" points="180.14 384.72 183.11 384.72 211.59 241.41 205.29 241.41 180.14 384.72"/><rect class="cls-24" x="241.49" y="289.73" width="157.03" height="6.5" transform="translate(628.15 531.14) rotate(180)"/><rect class="cls-25" x="191.14" y="289.73" width="144.81" height="6.5" transform="translate(515.22 531.14) rotate(180)"/><rect class="cls-25" x="244.98" y="284.29" width="167.95" height="8.7" transform="translate(646.05 522.46) rotate(180)"/><rect class="cls-26" x="169.12" y="284.29" width="155.72" height="8.7" transform="translate(482.1 522.46) rotate(180)"/><path class="cls-27" d="M260.79,126.3c.48,5.75-.83,10.55-2.92,10.72s-4.18-4.34-4.66-10.09.83-10.56,2.92-10.73S260.31,120.55,260.79,126.3Z" transform="translate(-11.86 -54.83)"/><ellipse class="cls-27" cx="268.03" cy="126.61" rx="10.45" ry="3.8" transform="translate(117.48 333.77) rotate(-87.39)"/><path class="cls-23" d="M273.25,91c-5,4.54-2.4,14.35-5.89,16.44a2.48,2.48,0,0,0,2.32,1.27c1.54-2.42,1.81-6.18,1.88-9.13S271.76,93.41,273.25,91Z" transform="translate(-11.86 -54.83)"/><path class="cls-23" d="M268.21,90.48c-3.5,5.77,1.78,14.44-1,17.44a2.47,2.47,0,0,0,2.59.55c.78-2.76,0-6.43-.8-9.29S267.48,93.26,268.21,90.48Z" transform="translate(-11.86 -54.83)"/><path class="cls-23" d="M263.5,91.37c-1.81,6.5,5.61,13.43,3.77,17a2.47,2.47,0,0,0,2.64-.16c0-2.87-1.76-6.19-3.27-8.73S263.55,94.24,263.5,91.37Z" transform="translate(-11.86 -54.83)"/><path class="cls-23" d="M259.33,95.33c.31,6.17,8.75,10,8.2,13.72a2.28,2.28,0,0,0,2.25-.9c-.82-2.5-3.32-4.87-5.37-6.64S260.21,97.81,259.33,95.33Z" transform="translate(-11.86 -54.83)"/><path class="cls-23" d="M255.7,99c2.27,5.79,11.56,6.78,12.22,10.46.91-.25,1.73-.77,1.85-1.57-1.58-2.12-4.73-3.58-7.24-4.62S257.33,101.12,255.7,99Z" transform="translate(-11.86 -54.83)"/><path class="cls-23" d="M254.44,104.28c3.79,4.44,12.35,2.47,14.06,5.53a2.13,2.13,0,0,0,1.16-2c-2.05-1.39-5.3-1.72-7.85-1.87S256.52,105.64,254.44,104.28Z" transform="translate(-11.86 -54.83)"/><path class="cls-23" d="M257.06,108.36c3.84,2.71,10.12-.52,12.06,1.53a1.7,1.7,0,0,0,.51-1.76c-1.87-.68-4.47-.3-6.48.09S259,109,257.06,108.36Z" transform="translate(-11.86 -54.83)"/><path class="cls-28" d="M267.67,136.47h0l-1,3.85h-8.32c-.35-1.33-.71-2.65-1.07-4-1.5-5.68-2.79-11.24-2.46-15.92,0-.46.07-.91.13-1.34a5.19,5.19,0,0,1,4-4.09,13.28,13.28,0,0,1,7.24,0,5.15,5.15,0,0,1,3.88,4.08c.07.49.12,1,.15,1.48C270.48,125.4,269.13,130.9,267.67,136.47Z" transform="translate(-11.86 -54.83)"/><path class="cls-28" d="M272.16,106.73c-.46-1.6-13.59-4.67-13.47,10.09.12,1.31,9.67,7.07,10.08,4C267.58,107.5,272.73,114.69,272.16,106.73Z" transform="translate(-11.86 -54.83)"/><path class="cls-28" d="M268.52,105.16a3,3,0,0,0,.16,3.37c.74,1,2.06,1.87,3.21,1.51,1.15-2.21.85-5.36.48-7.83s-.73-5.1.38-7.33c-3.09,2-2.23,7.83-3.1,9.11C269.2,104.67,269,104.48,268.52,105.16Z" transform="translate(-11.86 -54.83)"/><path class="cls-28" d="M271.91,107.76c-.4-.79-.84-1.55-1.27-2.23-1.31-2.12-2.68-4.41-2.54-6.89-1.89,2.75.54,7.21.75,9.12Z" transform="translate(-11.86 -54.83)"/><path class="cls-28" d="M270.68,107.76l-.71-.67c-1.84-1.68-3.78-3.51-4.32-5.94-.76,2.24.8,4.72,2,6.61Z" transform="translate(-11.86 -54.83)"/><path class="cls-29" d="M269.49,111.05a3.75,3.75,0,0,1-.79,2.48c1.57,1.1,3.1,1.36,4.55-.15l.11.07C272.7,112,270.48,112.55,269.49,111.05Z" transform="translate(-11.86 -54.83)"/><path class="cls-30" d="M272.2,109.05a9.25,9.25,0,0,1-2.71,2h0c1,1.5,3.21,1,3.87,2.4l.5.32C275.15,111.41,274,109.56,272.2,109.05Z" transform="translate(-11.86 -54.83)"/><path class="cls-29" d="M271.66,111.08c0,.18-.22.33-.49.33s-.49-.15-.49-.33.22-.34.49-.34S271.66,110.89,271.66,111.08Z" transform="translate(-11.86 -54.83)"/><path class="cls-9" d="M257.55,141.24l-.29-.77c-1.5-6.74-2.79-13.34-2.46-18.91a41.81,41.81,0,0,1,1.59,8.06c.08-.24.17-.48.25-.73a17.49,17.49,0,0,1,.13,5.59l.37-.82A36.32,36.32,0,0,0,257.55,141.24Z" transform="translate(-11.86 -54.83)"/><path class="cls-9" d="M267.67,140.6c.32-3.72.26-7.4.79-11.1.08-.58.68-1.43.77-2,.3-2,.6-3.74,1-5.71C270.48,127.44,269.13,134,267.67,140.6Z" transform="translate(-11.86 -54.83)"/><path class="cls-30" d="M258.37,136.05a.78.78,0,0,1,1,.44,1.58,1.58,0,0,1,0,.53,8.06,8.06,0,0,0,.35,2.16.76.76,0,0,1-.1.61.77.77,0,0,1-.56.15.54.54,0,0,1-.31-.06c-.06,0-.11-.1-.17-.15a.19.19,0,0,0-.21,0,.78.78,0,0,0,.11-.6l-.15-2.19a.5.5,0,0,0-.07-.29c0-.07-.12-.12-.15-.2S258.21,136.1,258.37,136.05Z" transform="translate(-11.86 -54.83)"/><path class="cls-30" d="M265.17,136.05a.78.78,0,0,1,1,.44,1.58,1.58,0,0,1,0,.53,8,8,0,0,0,.34,2.16.69.69,0,0,1-.1.61.76.76,0,0,1-.56.15.52.52,0,0,1-.3-.06,1.22,1.22,0,0,1-.17-.15.19.19,0,0,0-.21,0,.82.82,0,0,0,.11-.6l-.15-2.19a.73.73,0,0,0-.07-.29,1,1,0,0,1-.15-.2C264.85,136.25,265,136.1,265.17,136.05Z" transform="translate(-11.86 -54.83)"/><path class="cls-29" d="M259,138.56a.51.51,0,0,0-.56-.09.46.46,0,0,0-.26.5,3.31,3.31,0,0,0,.22.47,2.7,2.7,0,0,1,0,.89c0,.68.66,1.29.48,1.95a6.13,6.13,0,0,0,.4-2.95A1.09,1.09,0,0,0,259,138.56Z" transform="translate(-11.86 -54.83)"/><path class="cls-29" d="M260.25,138.56a.52.52,0,0,0-.57-.09.47.47,0,0,0-.25.5c0,.17.16.3.21.47a2.45,2.45,0,0,1,0,.89c0,.68.66,1.29.48,1.95a6.25,6.25,0,0,0,.4-2.95A1.09,1.09,0,0,0,260.25,138.56Z" transform="translate(-11.86 -54.83)"/><path class="cls-29" d="M257.84,138.56a.5.5,0,0,0-.56-.09.48.48,0,0,0-.26.5,5,5,0,0,0,.22.47c.1.28,0,.59,0,.89,0,.68.66,1.29.48,1.95a6.38,6.38,0,0,0,.4-2.95A1,1,0,0,0,257.84,138.56Z" transform="translate(-11.86 -54.83)"/><path class="cls-29" d="M266.87,138.56a.5.5,0,0,0-.56-.09.48.48,0,0,0-.26.5,5,5,0,0,0,.22.47c.1.28,0,.59,0,.89,0,.68.66,1.29.48,1.95a6.38,6.38,0,0,0,.4-2.95A1.09,1.09,0,0,0,266.87,138.56Z" transform="translate(-11.86 -54.83)"/><path class="cls-29" d="M268.12,138.56a.51.51,0,0,0-.56-.09.48.48,0,0,0-.26.5,3.31,3.31,0,0,0,.22.47c.1.28,0,.59,0,.89,0,.68.66,1.29.47,1.95a6.26,6.26,0,0,0,.41-2.95A1.09,1.09,0,0,0,268.12,138.56Z" transform="translate(-11.86 -54.83)"/><path class="cls-29" d="M265.72,138.56a.51.51,0,0,0-.56-.09.46.46,0,0,0-.26.5c0,.17.16.3.21.47a2.45,2.45,0,0,1,0,.89c0,.68.66,1.29.48,1.95a6.13,6.13,0,0,0,.4-2.95A1.09,1.09,0,0,0,265.72,138.56Z" transform="translate(-11.86 -54.83)"/><path class="cls-3" d="M262.65,136.23a4.25,4.25,0,0,0,.75-1c.08.24.15.48.21.73a8.3,8.3,0,0,0,2.58-4.54,8.61,8.61,0,0,1-3.42,7,1.55,1.55,0,0,1-.1-.77,1.53,1.53,0,0,1-.33.69c-.2-.31-.4-.62-.57-.95a1.21,1.21,0,0,1-.36.78c-.27-.75-1.13-1.1-1.61-1.74a3.58,3.58,0,0,1-.49-1.07,9.93,9.93,0,0,1-.52-3.89,7,7,0,0,0,1.58,3.63l.22-.87a7.66,7.66,0,0,0,1.27,1.72,1.25,1.25,0,0,1,.35-.75A1.29,1.29,0,0,0,262.65,136.23Z" transform="translate(-11.86 -54.83)"/><path class="cls-28" d="M123.65,371.88a20.68,20.68,0,0,1,12.81-1.55c2.32.38,4.74,1.08,6.32,2.82s1.88,4.81.07,6.31a6.06,6.06,0,0,1-4,1c-3.39,0-7.14-.63-9.85,1.4-1.54,1.16-2.57,3.09-4.41,3.66a4.36,4.36,0,0,1-4.8-2.13,7.42,7.42,0,0,1-.54-5.5A8.4,8.4,0,0,1,123.65,371.88Z" transform="translate(-11.86 -54.83)"/><path class="cls-28" d="M114.73,354.67c2.38,3.4,7,2.28,9.15.2s3.06-5.08,3.88-7.94c1.89-6.55,3.79-13.43,2.39-20.1a11.2,11.2,0,0,0-2.57-5.46,5.84,5.84,0,0,0-5.53-1.84c-2.33.62-3.79,2.9-4.83,5.07a47.72,47.72,0,0,0-4.74,20.56c0,3.31.38,6.78,2.25,9.51" transform="translate(-11.86 -54.83)"/><path class="cls-28" d="M108.19,359.55c2.58-3.07,3.07-7.54,1.92-11.38a22,22,0,0,0-6.74-9.78,36.57,36.57,0,0,0-12.09-7.12,13,13,0,0,0-5.43-.92,5.72,5.72,0,0,0-4.56,2.76c-1.27,2.42-.05,5.36,1.27,7.76a92.63,92.63,0,0,0,7.93,12.07c2.38,3.06,5.11,6.08,8.73,7.47s7.39,1.22,9.31-1.29" transform="translate(-11.86 -54.83)"/><path class="cls-31" d="M114.57,405.94a8.42,8.42,0,0,0,.21-1.55c.11-1.12.25-2.53.41-4.21a62.08,62.08,0,0,1,1-6.18,47.11,47.11,0,0,1,2.25-7.3,26.79,26.79,0,0,1,3.73-6.6,14,14,0,0,1,4.71-3.92,13.49,13.49,0,0,1,4-1.23,7.76,7.76,0,0,0,1.54-.22,7,7,0,0,0-1.56,0,12,12,0,0,0-4.14,1.08,13.88,13.88,0,0,0-5,4,26.23,26.23,0,0,0-3.86,6.73,43.48,43.48,0,0,0-2.23,7.42,52,52,0,0,0-.83,6.26c-.13,1.79-.18,3.24-.21,4.24A6.62,6.62,0,0,0,114.57,405.94Z" transform="translate(-11.86 -54.83)"/><path class="cls-32" d="M114.86,402.69a3.51,3.51,0,0,0,0-.71c0-.54,0-1.22,0-2.05,0-1.78,0-4.35.09-7.53.16-6.36.71-13.2,1.77-22.84,1-9.06,2.34-19.62,3.76-26.48.31-1.56.61-3,.9-4.19s.51-2.3.74-3.16.35-1.46.48-2a3,3,0,0,0,.12-.7,3.29,3.29,0,0,0-.25.67c-.15.51-.35,1.16-.59,2s-.54,1.91-.84,3.14-.67,2.62-1,4.18a233.33,233.33,0,0,0-4,24.57c-1.06,9.66-1.53,18.46-1.58,24.83,0,3.19,0,5.77.11,7.54.06.84.1,1.51.13,2.05A2.65,2.65,0,0,0,114.86,402.69Z" transform="translate(-11.86 -54.83)"/><path class="cls-31" d="M114.49,390.31a16.31,16.31,0,0,0,0-2.49c-.09-1.6-.31-3.91-.76-6.74a89.33,89.33,0,0,0-2.2-9.83,79.55,79.55,0,0,0-4.11-11.63,62,62,0,0,0-12.08-18.79,31.35,31.35,0,0,0-2.84-2.64c-.44-.37-.83-.73-1.22-1l-1.1-.76a17.08,17.08,0,0,0-2.1-1.34c-.12.16,3,2,6.88,6.13a65.36,65.36,0,0,1,11.78,18.73,91.41,91.41,0,0,1,4.13,11.52,99.06,99.06,0,0,1,2.34,9.73c.52,2.8.81,5.09,1,6.68A16.11,16.11,0,0,0,114.49,390.31Z" transform="translate(-11.86 -54.83)"/><polygon class="cls-3" points="86.62 360.83 88.33 384.12 118.28 384.12 119.99 360.83 86.62 360.83"/><rect class="cls-3" x="83.73" y="351.65" width="39.83" height="9.18"/><polygon class="cls-28" points="83.73 383.23 83.73 385.78 85.6 385.78 122.9 385.78 122.9 383.23 83.73 383.23"/><polygon class="cls-32" points="87.44 390.26 85.6 385.78 121.47 385.78 119.33 390.26 87.44 390.26"/><path class="cls-28" d="M131.29,423.27a1.22,1.22,0,0,1-.14.22l-.45.59L129,426.31l-.07.1-.08-.1-4.29-5.93h.25l-4.22,6-.13.19-.15-.18-5-5.95h.29l-.27.35-4.48,5.6-.15.19-.14-.2c-1.52-2.14-2.94-4.15-4.22-6l.24,0-5.2,5.92-.09.1-.07-.12-1.63-2.73-.42-.73c-.09-.16-.13-.25-.12-.26l.17.23.46.7,1.71,2.69-.16,0,5.12-6,.13-.15.11.16,4.26,5.95h-.28l4.46-5.62c.1-.11.19-.23.28-.34l.14-.18.15.17,5,6h-.28l4.26-5.94.13-.18.12.18,4.2,6h-.16l1.82-2.17.49-.57Z" transform="translate(-11.86 -54.83)"/><path class="cls-32" d="M132.26,415.5c0,.11-7.51.19-16.76.19s-16.77-.08-16.77-.19,7.5-.18,16.77-.18S132.26,415.4,132.26,415.5Z" transform="translate(-11.86 -54.83)"/><path class="cls-32" d="M133.77,440.86c0,.1-8.16.18-18.22.18s-18.22-.08-18.22-.18,8.16-.19,18.22-.19S133.77,440.76,133.77,440.86Z" transform="translate(-11.86 -54.83)"/></svg>