<?xml version="1.0" encoding="utf-8"?>
<!-- Generator: Adobe Illustrator 25.2.1, SVG Export Plug-In . SVG Version: 6.00 Build 0)  -->
<svg version="1.1" id="Layer_1" xmlns="http://www.w3.org/2000/svg" xmlns:xlink="http://www.w3.org/1999/xlink" x="0px" y="0px"
	 viewBox="0 0 472.7 394.3" style="enable-background:new 0 0 472.7 394.3;" xml:space="preserve">
<style type="text/css">
	.st0{display:none;fill:#FAFAFA;}
	.st1{fill:#FFFFFF;}
	.st2{fill:#E0E0E0;}
	.st3{fill:#F2F3F5;}
	.st4{fill:#795AA1;}
	.st5{fill:none;stroke:#F0CAB3;stroke-width:1.08;stroke-linecap:round;stroke-miterlimit:10;}
	.st6{fill:#AF9CC7;}
	.st7{fill:#FDFFFF;}
	.st8{fill:#E7D0FC;}
	.st9{fill:#EBE8EC;}
	.st10{fill:#1E2322;}
	.st11{fill:#A751E5;}
	.st12{fill:#28243F;}
	.st13{fill:#333049;}
	.st14{fill:url(#SVGID_1_);}
	.st15{fill:url(#SVGID_2_);}
	.st16{fill:url(#SVGID_3_);}
	.st17{fill:url(#SVGID_4_);}
	.st18{fill:#3F2A3F;}
	.st19{fill:url(#SVGID_5_);}
	.st20{fill:url(#SVGID_6_);}
	.st21{fill:url(#SVGID_7_);}
	.st22{fill:#9211EF;}
	.st23{fill:#4592FF;}
	.st24{fill:#A0BCEA;}
	.st25{fill:#D2E1F7;}
	.st26{fill:#D8D8D8;}
	.st27{fill:#EBEBEB;}
	.st28{fill:#3E3E3D;}
	.st29{fill:#585857;}
	.st30{fill:#E4E4E4;}
	.st31{fill:#DFDFDF;}
</style>
<g id="OBJECTS">
	<path id="background" class="st0" d="M455.5,199.4c-8-20.8-20.5-27.2-32.4-40.5c-14.5-16.3-24.3-28.2-20.6-49.2
		c6.2-34.3,8.8-119.8-87.8-108.7c-34.6,4-62,29-81.9,53.8c-16.9,21.2-47.4,23.1-71.9,28c-30.1,6.1-60.8,15.2-88.7,28.7
		C15,139.2-2.1,178.9,0.2,229.8c0.7,15.4,3,39.6,30.6,67.9c37.3,38.2,91.4,43.4,156.6,25.8c14.9-4,29-10.3,43.7-15.1
		c15.3-4.9,31.1-8.2,47.2-9.6c37.4-3.4,76.2,2.8,112.2-7.8c18.9-5.5,36.1-15.5,50.2-29.3C457.8,244.9,463.9,221.4,455.5,199.4z"/>
	<path class="st1" d="M142.6,85h123.7c3,0,5.4,2.4,5.4,5.4v88.9c0,3-2.4,5.4-5.4,5.4H142.6c-3,0-5.4-2.4-5.4-5.4V90.4
		C137.2,87.4,139.6,85,142.6,85z"/>
	<path class="st2" d="M269.8,85H139.1c-1.1,0-1.9,0.9-1.9,1.9l0,0v4.7h134.5v-4.7C271.7,85.9,270.8,85,269.8,85L269.8,85z"/>
	<path class="st3" d="M144.9,88.3c0,0.8-0.7,1.5-1.5,1.4c-0.8,0-1.5-0.7-1.4-1.5c0-0.8,0.7-1.5,1.5-1.4
		C144.3,86.8,145,87.5,144.9,88.3L144.9,88.3z"/>
	<path class="st3" d="M149.5,88.3c0,0.8-0.7,1.5-1.5,1.4c-0.8,0-1.5-0.7-1.4-1.5c0-0.8,0.7-1.5,1.5-1.4
		C148.8,86.9,149.5,87.5,149.5,88.3z"/>
	<path class="st3" d="M154,88.3c0,0.8-0.7,1.5-1.5,1.5s-1.5-0.7-1.5-1.5s0.7-1.5,1.5-1.5C153.4,86.9,154,87.5,154,88.3z"/>
	<rect x="147.7" y="98.4" class="st2" width="113.5" height="27.3"/>
	<rect x="147.7" y="132.6" class="st2" width="35.2" height="22.3"/>
	<rect x="187" y="132.6" class="st2" width="35.2" height="22.3"/>
	<rect x="226" y="132.6" class="st2" width="35.2" height="22.3"/>
	<rect x="147.7" y="161.5" class="st2" width="113.1" height="4.1"/>
	<rect x="147.7" y="169.7" class="st2" width="113.1" height="4.1"/>
	<path class="st4" d="M274,181.6c0.6-2.1,1.4-4.3,3.1-5.7s4.5-1.6,6,0.1c0.7,0.8,1,1.9,1.9,2.5c0.4,0.3,0.9,0.4,1.3,0.2
		c0.6-0.2,0.7-0.8,0.8-1.4c0.3-2.7,0.6-5.4,0.9-8.2s0.8-5.7,2.7-7.6c0.5-0.5,1.1-0.9,1.8-1c0.6-0.1,1.2,0,1.7,0.3
		c2.5,1.2,5.4,0.3,6.7-2.1c1.1-2,2.2-3.9,3.5-5.7c0.2-0.3,0.5-0.6,0.8-0.8c0.5-0.1,0.9-0.1,1.3,0.2c1.9,1.1,1.8,3.9,1.1,5.9
		s-1.8,4.1-1,6.2c0.6,1.2,1.5,2.3,2.4,3.2c1.6,1.8,2.5,4.4,1.7,6.6c-1.8,4.8-9.8,3.9-11.8,8.5c-1.5,3.4,3.3,8.6,2.5,12.3
		c-0.8,3.3-6.2,6-9.3,7.3c-3.4,1.5-19.6,7.7-22.1,3.6c-1.6-2.6,0.4-9.4,0.9-12.1C271.8,189.8,272.8,185.7,274,181.6z"/>
	<path class="st4" d="M328.9,200.1c2.7-3.1,5.5-6.9,6.4-11.1c1.1-5.3-1.3-9.7-4.8-10.6s-7.8,1.1-11.6,4s-7.4,6.9-11,10.4
		c-6.8,6.6-14.1,12-21.2,17.9c-1.5,1.1-2.7,2.5-3.7,4.1c-6.3,12.4,14.6,6.8,17.6,5.8C310.4,217,320.4,209.9,328.9,200.1z"/>
	<path class="st5" d="M321.5,194.4c-10.8,7.6-21.7,15.3-32.7,21.2c-10,5.4-20.2,9.4-30.2,15.3"/>
	<path class="st5" d="M318.1,203.4c-1.9,0.5-3.9,0.4-5.7-0.3c-1-0.3-1.7-1.2-1.8-2.2c0-0.5,0.1-1,0.2-1.5c0.6-2.4,1.8-4.6,3.5-6.4"
		/>
	<path class="st5" d="M310.3,210c-1.1,0.2-2.2,0.4-3.2,0.6c-1.3,0.3-2.6,0.2-3.9-0.2c-1.3-0.7-2.1-2.1-1.9-3.6c0.2-1.8,1-3.6,2.1-5
		c1.1-1.5,2.3-2.7,3.4-4.2"/>
	<path class="st5" d="M297,217.1c-1.7,0.4-3.5,0-4.9-0.9c-0.5-0.3-0.9-0.8-1.1-1.4c-0.1-1,0.1-2,0.5-2.8c0.5-0.9,1-1.7,1.7-2.5
		l2.5-3.2"/>
	<path class="st6" d="M326,195.2c0.3-0.3,0.5-0.7,0.7-1.1c0.2-0.4,0.3-0.8,0.2-1.2c0-0.1,0-0.1-0.1-0.2c-0.1-0.1-0.2,0-0.3,0.1
		c-1,0.7-1.8,1.6-2.5,2.6c-0.2,0.3-0.5,0.6-0.6,0.9c-0.2,0.3-0.2,0.7-0.1,1c0.2,0.3,0.7,0.1,1.1-0.3
		C325,196.4,325.5,195.8,326,195.2z"/>
	<path class="st6" d="M321.4,197.8c0.1-0.2,0.2-0.4,0.1-0.5h-0.1c-0.5,0-1,0.2-1.4,0.6c-0.1,0.1-0.2,0.3-0.2,0.4
		c0,0.1,0,0.2,0.1,0.2c0.2,0.1,0.4,0.1,0.5,0C320.8,198.4,321.1,198.1,321.4,197.8z"/>
	<path class="st6" d="M328,194.4c0,0.1,0,0.3,0.1,0.3h0.1c0.3-0.2,0.6-0.4,0.8-0.8c0.1-0.1,0.1-0.2,0.1-0.3s-0.1-0.1-0.1-0.1
		c-0.1,0-0.3,0.1-0.4,0.2C328.3,193.9,328.1,194.1,328,194.4z"/>
	<path class="st6" d="M333.3,186.4c0,0.1,0.1,0.2,0.2,0.1l0.1-0.1c0.2-0.3,0.4-0.7,0.4-1.1c0-0.1,0-0.2-0.1-0.2s-0.1,0-0.1,0.1
		c-0.1,0.1-0.2,0.3-0.3,0.4C333.3,185.8,333.3,186.1,333.3,186.4z"/>
	<path class="st6" d="M320.8,200c-0.1,0-0.2,0.1-0.2,0.2v0.1c0,0.3,0.2,0.6,0.5,0.6c0.1,0,0.2,0,0.2-0.1s0.1-0.1,0.1-0.2
		c0-0.1,0-0.3-0.1-0.4C321.1,200.2,320.9,200,320.8,200z"/>
	<path class="st6" d="M332.3,182.6c0-0.2,0-0.4-0.1-0.6c-0.2-0.1-0.4-0.2-0.6-0.1c-0.3,0.1-0.6,0.2-0.9,0.4
		c-0.2,0.2-0.4,0.4-0.4,0.6c-0.1,0.2-0.1,0.5,0,0.7c0,0.2,0.2,0.4,0.4,0.4c0.2,0,0.5-0.1,0.6-0.2
		C331.8,183.7,332.1,183.2,332.3,182.6z"/>
	<path class="st6" d="M330.9,189.5c0.1-0.3,0-0.6-0.2-0.9c-0.2-0.2-0.4-0.3-0.7-0.2c-0.2,0-0.4,0.1-0.5,0.2
		c-0.2,0.2-0.3,0.5-0.3,0.8c0,0.2,0.1,0.5,0.2,0.6c0.1,0.2,0.3,0.3,0.5,0.3C330.3,190.4,330.8,190,330.9,189.5z"/>
	<path class="st6" d="M327.6,190.5c0-0.1,0-0.2-0.1-0.3s-0.1-0.1-0.2-0.1s-0.1,0-0.2,0.1s-0.1,0.2-0.1,0.2c0,0.1,0,0.1,0.1,0.2
		c0,0.1,0.1,0.1,0.1,0.1C327.4,190.8,327.6,190.6,327.6,190.5z"/>
	<path class="st6" d="M325.9,198.4c0-0.1,0-0.2-0.1-0.3c0-0.1-0.1-0.1-0.2-0.1s-0.1,0-0.2,0.1s-0.1,0.1-0.1,0.2c0,0.1,0,0.1,0.1,0.2
		c0,0.1,0.1,0.1,0.1,0.1C325.7,198.7,325.8,198.5,325.9,198.4z"/>
	<path class="st6" d="M323.7,199.1c-0.1,0-0.2,0.1-0.2,0.2c-0.1,0.1-0.1,0.2-0.1,0.3s0,0.1,0,0.2c0,0.1,0.1,0,0.2,0
		c0.1-0.1,0.1-0.1,0.2-0.2c0-0.1,0.1-0.2,0.1-0.3C323.9,199.2,323.8,199,323.7,199.1z"/>
	<path class="st6" d="M322.3,201.7v-0.1h-0.1h-0.1v0.1v0.1c0,0,0,0,0.1,0C322.2,201.8,322.3,201.8,322.3,201.7z"/>
	<path class="st6" d="M322.8,198.8v-0.1h-0.1h-0.1v0.1v0.1c0,0,0,0,0.1,0.1C322.7,199,322.8,198.9,322.8,198.8z"/>
	<path class="st6" d="M320.6,202.4v-0.1h-0.1h-0.1v0.1v0.1c0,0,0,0,0.1,0C320.5,202.6,320.6,202.5,320.6,202.4z"/>
	<path class="st6" d="M319.2,200.6c0-0.1,0-0.2-0.1-0.3s-0.1-0.1-0.2-0.1s-0.1,0-0.2,0.1s-0.1,0.2-0.1,0.2c0,0.1,0,0.1,0.1,0.2
		c0,0.1,0.1,0.1,0.2,0.1C319,200.9,319.1,200.8,319.2,200.6z"/>
	<path class="st6" d="M319.3,202.9c0-0.1,0-0.2-0.1-0.3s-0.1-0.1-0.2-0.1s-0.1,0-0.2,0.1s-0.1,0.2-0.1,0.2c0,0.1,0,0.1,0.1,0.2
		c0,0.1,0.1,0.1,0.1,0.1C319.1,203.2,319.2,203.1,319.3,202.9z"/>
	<path class="st6" d="M291.3,196.1c3.9-3.3,8.1-5,12.1-8.1c4.1-3.3,7.4-7.5,9.4-12.4c2.5-6,3.5-12.5,3-18.9
		c3.8,12.3,1.1,28.9-5.8,36.6c-2.1,2.3-4.4,3.8-6.6,5.8c-3.3,3.2-6,6.9-8,11.1c-1.2,2.7-2.5,5.3-4,7.9c-2.9,4.3-9.8,4.5-9.1-4.5
		C283,206.2,287.7,199.2,291.3,196.1z"/>
	<path class="st7" d="M291.8,197.3c-0.1,0.3-0.2,0.6-0.1,0.9c0,0.1,0.1,0.2,0.1,0.3l0.1,0.1c0.2,0.1,0.5,0,0.6-0.2
		c0.2-0.2,0.4-0.4,0.5-0.7s0.2-0.5,0.3-0.8c0.1-0.3,0-0.6-0.2-0.9c-0.1-0.1-0.3-0.1-0.5,0C292.3,196.4,292,196.8,291.8,197.3z"/>
	<path class="st7" d="M301.5,192.9c0.1-0.1,0.2-0.3,0.2-0.5v-0.1c-0.1-0.1-0.2-0.2-0.3-0.2c-0.1,0-0.2,0-0.3,0.1
		c-0.1,0-0.2,0.1-0.2,0.2c-0.1,0.1-0.1,0.3-0.1,0.4c0,0.1,0.1,0.2,0.2,0.2C301.2,193,301.4,193,301.5,192.9z"/>
	<path class="st7" d="M298.7,199.8c-0.1,0.2-0.2,0.4-0.2,0.6c0,0.1,0,0.2,0,0.3s0.1,0.1,0.1,0.2c0.1,0.2,0.3,0.3,0.5,0.3
		s0.3-0.1,0.5-0.2c0.2-0.1,0.3-0.3,0.3-0.4c0.1-0.3,0.1-0.6,0-0.8c0-0.2-0.2-0.3-0.4-0.4C299.2,199.4,298.9,199.5,298.7,199.8z"/>
	<path class="st7" d="M303,190.1c-0.1,0.1-0.1,0.2-0.1,0.4c0,0.1,0,0.1,0,0.2c0,0,0,0.1,0.1,0.1c0.1,0.1,0.2,0.2,0.3,0.2
		c0.1,0,0.2,0,0.3-0.1c0.1-0.1,0.1-0.2,0.2-0.2c0.1-0.1,0.1-0.3,0-0.5c0-0.1-0.1-0.2-0.2-0.2C303.2,189.8,303.1,189.9,303,190.1z"/>
	<path class="st7" d="M304.3,193.9c-0.1,0.1-0.1,0.2-0.1,0.3v0.1v0.1c0,0.1,0.1,0.1,0.2,0.1s0.1,0,0.2-0.1c0.1,0,0.1-0.1,0.1-0.2
		c0-0.1,0-0.2,0-0.4c0-0.1-0.1-0.1-0.2-0.2C304.5,193.7,304.4,193.8,304.3,193.9z"/>
	<path class="st7" d="M311.1,182.5c-0.1,0.1-0.1,0.2-0.1,0.4c0,0.1,0,0.1,0,0.2c0,0,0,0.1,0.1,0.1c0.1,0.1,0.2,0.2,0.3,0.2
		c0.1,0,0.2,0,0.3-0.1c0.1-0.1,0.2-0.1,0.2-0.2c0-0.2,0-0.3,0-0.5c0-0.1-0.1-0.2-0.2-0.2C311.4,182.3,311.2,182.4,311.1,182.5z"/>
	<path class="st7" d="M296.1,194.9c-0.1,0.1-0.1,0.2-0.1,0.3v0.1c0,0,0,0,0,0.1s0.1,0.1,0.2,0.1s0.3-0.1,0.3-0.3c0-0.1,0-0.2,0-0.3
		s-0.1-0.1-0.1-0.1C296.3,194.8,296.2,194.8,296.1,194.9z"/>
	<path class="st7" d="M297.1,193c0,0.1-0.1,0.1,0,0.2v0.1l0,0l0.1,0.1c0,0,0.1,0,0.1-0.1l0.1-0.1c0-0.1,0-0.1,0-0.2
		c0,0,0-0.1-0.1-0.1S297.1,192.9,297.1,193z"/>
	<path class="st7" d="M304.7,190.1c0,0-0.1,0.1,0,0.2v0.1l0,0l0.1,0.1c0,0,0.1,0,0.1-0.1l0.1-0.1c0-0.1,0-0.1,0-0.2l-0.1-0.1
		C304.8,190,304.7,190,304.7,190.1z"/>
	<path class="st7" d="M305.1,188.4c0,0-0.1,0.1,0,0.2v0.1v0.1l0.1,0.1h0.1l0.1-0.1c0-0.1,0-0.1,0-0.2c0-0.1-0.1-0.1-0.1-0.1
		C305.3,188.4,305.2,188.4,305.1,188.4z"/>
	<path class="st7" d="M308.3,186.8c0,0-0.1,0.1-0.1,0.2v0.1l0,0c0,0.1,0.1,0.1,0.1,0.1s0.1,0,0.1-0.1l0.1-0.1c0-0.1,0-0.1,0-0.2
		c0,0,0-0.1-0.1-0.1C308.4,186.6,308.4,186.7,308.3,186.8z"/>
	<path class="st7" d="M309.2,184.2c0,0-0.1,0.1,0,0.1c0,0,0,0,0,0.1l0,0l0.1,0.1h0.1l0.1-0.1c0-0.1,0-0.1,0-0.2c0,0,0-0.1-0.1-0.1
		C309.3,184.1,309.2,184.2,309.2,184.2z"/>
	<path class="st7" d="M310,185c0,0-0.1,0.1,0,0.1c0,0,0,0,0,0.1l0,0l0.1,0.1h0.1l0.1-0.1c0-0.1,0-0.1,0-0.2c0,0,0-0.1-0.1-0.1
		C310.1,184.9,310.1,185,310,185z"/>
	<path class="st7" d="M314.1,176.4v0.1c0,0,0,0,0,0.1l0,0l0.1,0.1h0.1l0.1-0.1c0-0.1,0-0.1,0-0.2c0,0,0-0.1-0.1-0.1
		C314.3,176.4,314.2,176.4,314.1,176.4z"/>
	<path class="st7" d="M315.3,172.3c0,0-0.1,0.1,0,0.1c0,0,0,0,0,0.1l0,0l0.1,0.1h0.1l0.1-0.1c0-0.1,0-0.1,0-0.2c0,0,0-0.1-0.1-0.1
		C315.4,172.2,315.4,172.3,315.3,172.3z"/>
	<path class="st7" d="M312.6,178.6v0.1c0,0,0,0,0,0.1l0,0l0.1,0.1h0.1l0.1-0.1c0-0.1,0-0.1,0-0.2c0,0,0-0.1-0.1-0.1
		C312.7,178.5,312.7,178.5,312.6,178.6z"/>
	<path class="st7" d="M312.4,180.5v0.1c0,0,0,0,0,0.1l0,0l0.1,0.1h0.1l0.1-0.1c0-0.1,0-0.1,0-0.2c0,0,0-0.1-0.1-0.1
		C312.5,180.4,312.4,180.5,312.4,180.5z"/>
	<path class="st7" d="M313.5,178.6v0.1c0,0,0,0,0,0.1l0,0l0.1,0.1h0.1c0,0,0-0.1,0.1-0.1c0-0.1,0-0.1,0-0.2c0-0.1,0-0.1-0.1-0.1
		C313.6,178.5,313.5,178.5,313.5,178.6z"/>
	<path class="st7" d="M297.8,195c-0.1,0-0.1,0.1-0.1,0.1v0.1c0,0,0,0,0,0.1s0,0.1,0.1,0.2h0.1h0.1c0.1-0.1,0.1-0.2,0.1-0.2
		c0-0.1,0-0.1-0.1-0.1C298,195,297.9,195,297.8,195z"/>
	<path class="st7" d="M301.4,190.4l-0.1,0.1v0.1v0.1c0,0.1,0.1,0.1,0.1,0.2h0.1h0.1c0-0.1,0.1-0.1,0-0.2c0-0.1,0-0.1-0.1-0.1
		C301.6,190.4,301.5,190.4,301.4,190.4z"/>
	<path class="st7" d="M306.9,188.4c-0.1,0-0.1,0.1-0.1,0.1v0.1c0,0,0,0,0,0.1s0,0.1,0.1,0.2h0.1h0.1c0-0.1,0-0.1,0-0.2
		c0-0.1,0-0.1-0.1-0.1C307,188.4,306.9,188.4,306.9,188.4z"/>
	<path class="st7" d="M309.4,190.2c-0.1,0.1-0.1,0.2-0.1,0.4c0,0.1,0,0.1,0,0.2l0.1,0.1c0.1,0.1,0.2,0.2,0.3,0.2
		c0.2,0,0.4-0.2,0.5-0.4c0-0.2,0-0.3,0-0.5c0-0.1-0.1-0.2-0.2-0.2C309.7,190,309.5,190,309.4,190.2z"/>
	<path class="st7" d="M311.3,187c-0.1,0.1-0.1,0.2-0.1,0.3v0.1v0.1c0,0.1,0.1,0.1,0.2,0.1s0.2,0,0.2-0.1c0.1,0,0.1-0.1,0.1-0.2
		c0-0.1,0-0.2,0-0.4c0-0.1-0.1-0.2-0.2-0.2C311.5,186.8,311.4,186.9,311.3,187z"/>
	<path class="st7" d="M298.2,193.8c0.1,0.1,0.2,0.2,0.3,0.2c0.1,0,0.2,0,0.3-0.1c0.3-0.2,0.5-0.5,0.7-0.8c0.2-0.2,0.2-0.5,0.3-0.8
		C299.9,190.8,297.7,192.5,298.2,193.8z"/>
	<path class="st7" d="M306.4,193.4c0,0.2,0.1,0.3,0.2,0.4c0.1,0.1,0.2,0.1,0.3,0.1c0.3,0,0.6,0,0.9-0.2c0.2-0.1,0.4-0.3,0.4-0.5
		C308.6,191.8,306.1,191.9,306.4,193.4z"/>
	<path class="st8" d="M304.9,174.2c0.3-1.2,0.3-2.4,0.1-3.6c-0.1-0.4-0.3-0.8-0.6-1.1c-1.3-1.3-2.8,0.8-3.7,3.3s-1.6,5.5-2.8,7
		c-0.5-2.5,0.4-5.3,0.1-7.9c-0.2-1.9-1-3.3-1.9-3.4s-1.8,0.8-2.3,2.4c-1.1,3.4-0.4,8.3-0.8,12.4c-0.1,1-0.3,2-0.8,2.9
		c-0.4,0.7-1,0.9-1.5,0.1c-0.9-1.5-0.1-5.4-1.1-6.7c-0.4-0.5-1-0.2-1.3,0.6c-0.3,0.9-0.6,1.9-0.6,2.8c-0.3,2.5-0.3,4.9-0.2,7.4
		c0.1,0.9,0.1,1.8,0.1,2.7c-0.1,0.9-0.3,1.8-0.7,2c-1.2,0.6-1.8-4.9-3-4c-0.7,0.5-0.7,2.6-0.5,4.2l1.1,10.9c0.2,2,0.5,4.2,1.3,5.2
		c0.3,0.4,0.8,0.7,1.4,0.8c2.6,0.5,5.4,0.3,7.8-0.7c0.7-0.2,1.3-0.7,1.6-1.4c0.4-1.1,0.4-2.3,0-3.4c-0.3-0.5-0.8-0.9-0.7-1.7
		c0-0.2,0.2-0.5,0.5-0.5c2.7-0.9,5.8-1,7.8-5c0.2-0.4,0.4-0.9,0.4-1.4c0.2-1.1-0.2-2.3-1.1-3c-0.7-0.3-1.4,0-2-0.3
		c-0.9-0.7-1.4-1.9-1.2-3c1.9-0.6,3.6-2.3,5.1-4.9c0.6-1,1.1-2.9,0.6-4.1c-0.2-0.5-0.6-0.8-1.1-0.7c-0.9,0.1-1.8,0.4-2.6,1
		c-0.4,0.3-1.3,1-1.3-0.5c0-0.8,1.2-1.9,1.5-2.4C303.7,178.5,304.5,176.4,304.9,174.2z"/>
	<path class="st8" d="M301.6,174.8c-0.1,0.2-0.1,0.4-0.2,0.6c0,0.2,0,0.5,0,0.7c0,0.1,0,0.1,0.1,0.1s0.1,0,0.1,0
		c0.3-0.4,0.6-0.9,0.8-1.4c0.1-0.2,0.1-0.3,0.2-0.5s0.1-0.4,0-0.6c-0.1-0.2-0.3-0.1-0.4,0.1C302,174.1,301.8,174.5,301.6,174.8z"/>
	<path class="st8" d="M303.2,173.4c0,0.1,0,0.2,0,0.3l0,0c0.2,0.1,0.4,0,0.5-0.3c0-0.1,0.1-0.2,0.1-0.2c0-0.1,0-0.1-0.1-0.1
		s-0.1,0-0.2,0C303.4,173.2,303.3,173.3,303.2,173.4z"/>
	<path class="st8" d="M300.9,175.2c0-0.1,0-0.2,0-0.2l0,0c-0.1,0.1-0.2,0.3-0.3,0.4c0,0.1,0,0.1,0,0.2c0,0,0,0,0.1,0.1
		c0,0,0.1,0,0.1-0.1C300.9,175.4,300.9,175.3,300.9,175.2z"/>
	<path class="st8" d="M299.5,179.6C299.5,179.5,299.5,179.5,299.5,179.6C299.3,179.6,299.4,179.5,299.5,179.6
		c-0.2,0.1-0.2,0.4-0.2,0.6c0,0.1,0,0.1,0,0.2s0,0,0,0c0-0.1,0.1-0.1,0.1-0.2C299.5,180,299.5,179.8,299.5,179.6z"/>
	<path class="st8" d="M303.3,172.2l0.1-0.1c0,0,0,0,0-0.1c0-0.2-0.1-0.3-0.2-0.4h-0.1v0.1c0,0.1,0,0.2,0.1,0.2
		C303.1,172,303.2,172.2,303.3,172.2z"/>
	<path class="st8" d="M300.1,181.9c0,0.1,0,0.2,0.1,0.4c0,0.1,0.1,0.1,0.2,0.1s0.2-0.1,0.3-0.2c0.1-0.1,0.1-0.2,0.1-0.4
		c0-0.1,0-0.3-0.1-0.4c0-0.1-0.1-0.2-0.2-0.3c-0.1,0-0.2,0-0.2,0.1C300.3,181.4,300.2,181.6,300.1,181.9z"/>
	<path class="st8" d="M300.1,177.9c0,0.2,0,0.4,0.1,0.6c0.1,0.1,0.2,0.2,0.3,0.2c0.1,0,0.2,0,0.2-0.1c0.1-0.1,0.1-0.3,0-0.4
		c0-0.1-0.1-0.3-0.1-0.4c0-0.1-0.1-0.2-0.2-0.2C300.3,177.4,300.1,177.6,300.1,177.9z"/>
	<path class="st8" d="M301.4,177.5c0,0.1,0,0.1,0,0.2c0,0,0,0.1,0.1,0.1c0,0,0,0,0.1,0v-0.1v-0.1
		C301.5,177.4,301.5,177.4,301.4,177.5C301.4,177.4,301.4,177.4,301.4,177.5z"/>
	<path class="st8" d="M301.5,172.9c0,0.1,0,0.1,0,0.2l0.1,0.1c0,0,0,0,0.1,0v-0.1V173C301.6,172.8,301.6,172.8,301.5,172.9
		C301.5,172.7,301.5,172.8,301.5,172.9z"/>
	<path class="st8" d="M302.3,172.6c0,0,0-0.1,0.1-0.1c0-0.1,0-0.1,0-0.2v-0.1c0,0,0,0-0.1,0v0.1v0.1
		C302.1,172.5,302.2,172.6,302.3,172.6z"/>
	<path class="st8" d="M302.6,171.1L302.6,171.1L302.6,171.1L302.6,171.1L302.6,171.1C302.6,171.1,302.6,171,302.6,171.1L302.6,171.1
		C302.6,171,302.6,171,302.6,171.1z"/>
	<path class="st8" d="M302.6,172.8L302.6,172.8L302.6,172.8L302.6,172.8L302.6,172.8C302.6,172.7,302.6,172.7,302.6,172.8
		L302.6,172.8C302.6,172.7,302.6,172.7,302.6,172.8z"/>
	<path class="st8" d="M303.1,170.7C303.1,170.8,303.1,170.8,303.1,170.7L303.1,170.7L303.1,170.7
		C303.1,170.8,303.1,170.8,303.1,170.7L303.1,170.7L303.1,170.7L303.1,170.7z"/>
	<path class="st8" d="M303.8,171.9c0,0.1,0,0.1,0,0.2l0.1,0.1l0,0v-0.1V172C303.9,172,303.9,171.9,303.8,171.9
		C303.9,171.8,303.8,171.8,303.8,171.9z"/>
	<path class="st8" d="M303.7,170.5c0,0.1,0,0.1,0,0.2c0,0,0,0.1,0.1,0.1c0,0,0,0,0.1,0v-0.1v-0.1c0,0,0-0.1-0.1-0.1
		C303.7,170.4,303.7,170.4,303.7,170.5z"/>
	<path class="st8" d="M294.7,175.9c0,0.2-0.1,0.5-0.1,0.7s0,0.5,0.1,0.7c0,0,0,0.1,0.1,0.1s0.1-0.1,0.1-0.1c0.2-0.6,0.4-1.3,0.5-1.9
		c0-0.2,0.1-0.4,0.1-0.6c0-0.2,0-0.4-0.1-0.5s-0.3,0.2-0.4,0.4C294.8,175,294.7,175.4,294.7,175.9z"/>
	<path class="st8" d="M295.9,173.3c0,0.1,0,0.2,0.1,0.3l0,0c0.2-0.2,0.4-0.4,0.4-0.7c0-0.1,0-0.2,0-0.3s0-0.1-0.1-0.1
		s-0.1,0-0.2,0.1C296,172.9,295.9,173.1,295.9,173.3z"/>
	<path class="st8" d="M294.1,176.8c0-0.1,0-0.1-0.1-0.1l0,0c-0.1,0.2-0.1,0.4-0.1,0.6c0,0.1,0,0.1,0,0.2c0,0,0,0,0.1,0
		c0-0.1,0.1-0.1,0.1-0.2C294.1,177.1,294.1,176.9,294.1,176.8z"/>
	<path class="st8" d="M293.5,182.2C293.5,182.1,293.5,182.1,293.5,182.2C293.4,182.2,293.5,182.2,293.5,182.2
		c-0.1,0.3-0.1,0.5,0,0.7c0,0.1,0,0.1,0.1,0.1s0,0,0-0.1s0-0.2,0-0.3C293.6,182.5,293.6,182.3,293.5,182.2z"/>
	<path class="st8" d="M295.7,172.1c0-0.1,0-0.1,0-0.2l0,0c0,0-0.2-0.2-0.3-0.2c0,0-0.1,0-0.1,0.1v0.1c0,0.1,0.1,0.1,0.1,0.2
		C295.5,172.1,295.7,172.1,295.7,172.1z"/>
	<path class="st8" d="M294.5,183.7c0,0.1,0.1,0.2,0.1,0.2c0.1,0,0.1,0,0.2-0.1s0.2-0.3,0.2-0.4c0-0.1,0-0.3,0-0.4
		c0-0.1-0.1-0.2-0.1-0.3c-0.1-0.1-0.1-0.1-0.2-0.1c-0.1,0.1-0.2,0.2-0.2,0.3C294.5,183.1,294.5,183.4,294.5,183.7z"/>
	<path class="st8" d="M293.9,180c0,0.2,0.1,0.3,0.2,0.4c0.1,0.1,0.2,0,0.3-0.1c0.1-0.1,0.1-0.2,0.1-0.3s0-0.3,0-0.4
		c0-0.1-0.1-0.2-0.2-0.2s-0.2,0-0.2,0C293.9,179.4,293.8,179.7,293.9,180z"/>
	<path class="st8" d="M294.9,178.6c0,0.1,0,0.1,0.1,0.1h0.1c0-0.1,0-0.2,0-0.2s0-0.1-0.1-0.1c0,0,0,0-0.1,0
		C294.9,178.4,294.9,178.5,294.9,178.6z"/>
	<path class="st8" d="M294.1,174.2c0,0,0,0.1,0.1,0.1h0.1v-0.1v-0.1V174h-0.1C294.2,174.1,294.1,174.2,294.1,174.2z"/>
	<path class="st8" d="M294.8,173.3c0-0.1,0-0.1,0-0.2c0-0.1,0-0.1,0-0.2v-0.1c0,0,0,0-0.1,0v0.1c0,0.1,0,0.1,0,0.2
		C294.8,173.3,294.8,173.3,294.8,173.3z"/>
	<path class="st8" d="M294.9,171.6C294.9,171.6,294.9,171.7,294.9,171.6L294.9,171.6L294.9,171.6
		C294.9,171.7,294.9,171.6,294.9,171.6L294.9,171.6L294.9,171.6L294.9,171.6z"/>
	<path class="st8" d="M295.2,173.2L295.2,173.2L295.2,173.2L295.2,173.2L295.2,173.2L295.2,173.2L295.2,173.2
		C295.2,173.2,295.1,173.2,295.2,173.2z"/>
	<path class="st8" d="M295.4,170.8C295.4,170.8,295.4,170.9,295.4,170.8L295.4,170.8L295.4,170.8
		C295.4,170.9,295.4,170.9,295.4,170.8L295.4,170.8L295.4,170.8L295.4,170.8z"/>
	<path class="st8" d="M296.1,171.3c0,0,0,0.1,0.1,0.1h0.1c0,0,0,0,0-0.1v-0.1c0,0,0-0.1-0.1-0.1c0,0,0,0-0.1,0
		C296.2,171.2,296.1,171.2,296.1,171.3z"/>
	<path class="st8" d="M295.8,170.2c0,0,0,0.1,0.1,0.1h0.1v-0.1v-0.1V170h-0.1C295.8,170,295.8,170.2,295.8,170.2z"/>
	<path class="st8" d="M288.8,185.9c0,0.1,0,0.2,0,0.3s0.1,0.1,0.2,0.1c0,0,0,0,0.1,0l0.1-0.1c0.1-0.3,0.2-0.6,0.2-0.9
		c0-0.1,0-0.2,0-0.2c0-0.1-0.1-0.1-0.2-0.1c-0.1,0.1-0.2,0.2-0.3,0.3C288.8,185.6,288.8,185.8,288.8,185.9z"/>
	<path class="st8" d="M289.5,183.8c0,0.1,0.1,0.2,0.1,0.2l0,0c0.2-0.3,0.2-0.7,0.2-1c0-0.1,0-0.2,0-0.3c0,0,0,0-0.1,0l0,0
		c-0.1,0.1-0.1,0.2-0.2,0.3C289.6,183.3,289.5,183.6,289.5,183.8z"/>
	<path class="st8" d="M288.5,188.6C288.5,188.5,288.5,188.5,288.5,188.6L288.5,188.6c-0.1,0.2-0.1,0.5-0.1,0.7c0,0.1,0,0.1,0.1,0.1
		s0,0,0,0c0-0.1,0.1-0.2,0.1-0.3C288.6,188.9,288.6,188.7,288.5,188.6z"/>
	<path class="st8" d="M289,193.9L289,193.9l-0.1,0.2c0,0.2,0.1,0.4,0.2,0.6c0,0,0.1,0.1,0.1,0v-0.1c0-0.1,0-0.2,0-0.3
		C289.2,194.1,289.1,194,289,193.9z"/>
	<path class="st8" d="M289.1,182.8c0-0.1,0-0.1,0-0.2l0,0c0,0-0.2,0-0.3,0.1c0,0-0.1,0.1,0,0.1v0.1l0.1,0.1
		C289,183,289.1,182.9,289.1,182.8z"/>
	<path class="st8" d="M290.2,194.5c0,0.1,0.1,0.1,0.2,0.1s0.1-0.2,0.2-0.3c0.1-0.2,0.1-0.4,0.1-0.6c0-0.1,0-0.3,0-0.4
		c0-0.1-0.1-0.2-0.2-0.2s-0.2,0-0.2,0.1c-0.1,0.1-0.1,0.3-0.1,0.4C290.1,193.9,290.1,194.2,290.2,194.5z"/>
	<path class="st8" d="M288.9,191.7c0.1,0.1,0.2,0.2,0.3,0.2c0.1-0.1,0.2-0.2,0.2-0.3c0.1-0.1,0.1-0.2,0.1-0.4c0-0.1,0-0.3-0.1-0.4
		c-0.1-0.1-0.1-0.1-0.2-0.1s-0.2,0.1-0.2,0.2C288.9,191.1,288.8,191.4,288.9,191.7z"/>
	<path class="st8" d="M289.7,187.9c0.1,0.1,0.2,0.2,0.3,0.2c0.1-0.1,0.2-0.2,0.2-0.3s0.1-0.2,0.1-0.4c0-0.1,0-0.3-0.1-0.4
		c0-0.1-0.1-0.1-0.2-0.1s-0.2,0.1-0.2,0.2C289.7,187.4,289.6,187.7,289.7,187.9z"/>
	<path class="st8" d="M289.6,189.5C289.6,189.6,289.7,189.6,289.6,189.5c0.1,0.1,0.1,0,0.2-0.1v-0.1v-0.1c0,0,0,0-0.1,0
		c0,0-0.1,0-0.1,0.1S289.6,189.4,289.6,189.5z"/>
	<path class="st8" d="M288.1,186.2C288.1,186.2,288.2,186.2,288.1,186.2c0.1,0,0.1,0,0.2,0v-0.1V186c0,0,0,0-0.1,0
		c0,0-0.1,0-0.1,0.1C288.1,186,288.1,186.1,288.1,186.2z"/>
	<path class="st8" d="M288.6,184.7c0-0.1,0-0.1,0-0.2c0-0.1,0-0.1,0-0.1s0,0-0.1,0v0.1v0.1v0.1C288.5,184.8,288.6,184.8,288.6,184.7
		z"/>
	<path class="st8" d="M288.3,183.2L288.3,183.2L288.3,183.2C288.3,183.2,288.3,183.1,288.3,183.2c0-0.1,0-0.1,0-0.1l0,0l0,0
		C288.3,183.1,288.3,183.1,288.3,183.2z"/>
	<path class="st8" d="M288.9,184.3L288.9,184.3L288.9,184.3C288.9,184.3,288.9,184.2,288.9,184.3c0-0.1,0-0.1,0-0.1l0,0l0,0
		C288.9,184.2,288.9,184.2,288.9,184.3z"/>
	<path class="st8" d="M288.6,182L288.6,182C288.6,182,288.6,181.9,288.6,182L288.6,182c0-0.1,0-0.1,0-0.1l0,0l0,0
		C288.6,181.9,288.6,181.9,288.6,182z"/>
	<path class="st8" d="M289.4,181.7C289.4,181.8,289.5,181.8,289.4,181.7c0.1,0,0.2,0,0.2,0v-0.1v-0.1c0,0,0,0-0.1,0h-0.1
		C289.4,181.5,289.4,181.6,289.4,181.7z"/>
	<path class="st8" d="M288.9,181.1L288.9,181.1c0.1,0,0.1,0,0.2-0.1v-0.1v-0.1c0,0,0,0-0.1,0c0,0,0,0-0.1,0
		C288.8,180.9,288.8,181,288.9,181.1z"/>
	<path class="st8" d="M298.1,185.6c-5.4,14.3-12.1,26.2-19.7,34.8c-0.2,0.2-0.3,0.6-0.3,0.9c0.1,0.4,0.4-0.3,0.2-0.3"/>
	<path class="st8" d="M293.4,206.9c-1.9,1.8-3.6,2.3-5.3-0.2c-0.7-2.3-1.1-4.6-1-7"/>
	<path class="st8" d="M298.1,196.7c-1.9,2.6-4.6,1.8-6.2-1.7c-0.6-1.3-0.8-2.7-0.8-4.1"/>
	<path class="st8" d="M300.7,187.2c-0.6,0.7-1.5,1.3-2.4,1.6c-0.8,0.3-1.7-0.1-2-0.9l0,0c-0.4-0.9-0.6-1.9-0.5-2.9
		c0-1.1,0.1-2.1,0.2-3.2"/>
	<path class="st9" d="M379.4,382.1c10.8,1.7,21.8,2.6,32.7,2.7c10.3-0.1,20.7-1,30.9-2.7l-1.2-2.7c-5.4-12-25.9-7.3-30.6-19.7l0,0
		c-3.9,12.4-25.2,7.7-30.6,19.7L379.4,382.1z"/>
	<rect x="407.3" y="288.9" class="st9" width="8.5" height="79.8"/>
	<polygon class="st8" points="409.7,362.1 406,354 397.8,357 400.1,365.4 	"/>
	<path class="st10" d="M409.7,362l2,6.6l-8.6,2.7c0,0-19.5,8.2-23.1,4.4c-1.7-1.7,4.7-3.5,8.7-6.1s10.4-6.5,10.4-6.5
		C402.7,363.2,406.2,362.9,409.7,362z"/>
	<polygon class="st8" points="366.6,374.2 365.4,365.3 356.7,365.9 356.5,374.5 	"/>
	<path class="st10" d="M366.6,374v6.9l-9,0.2c0,0-21,2.3-23.4-2.3c-1.1-2.1,5.5-2,10.1-3.4c4.7-1.4,11.8-3.2,11.8-3.2
		C359.6,373.2,363.1,373.9,366.6,374z"/>
	<path class="st8" d="M288.2,221.6l12-4l10.6,2.7c6-1.5,8-1.5,20.2-4.6c7.6-2.1,15-4.8,22.2-7.9l8.8-14.7c5.7,0.5,17.6,6.7,17.6,6.7
		s-16.3,22.2-21,23.8s-36,5.4-48,4c-3.8-0.4-11.1-4.4-11.1-4.4l-9.5,1.6l-7.4,5l-1.3-1.1l2.9-3.2L288.2,221.6z"/>
	<path class="st11" d="M371,165c0,0,15.2,2.6,15,16.2c-0.2,8.9-12.4,25.6-12.4,25.6s-6.7-9.3-15-11.9c0,0,5.4-15.8,7-20.7
		C366.7,170.8,368.5,167.6,371,165z"/>
	<rect x="396.4" y="286.6" class="st9" width="30.2" height="16.3"/>
	<path class="st9" d="M400.5,223.3c-1.5-19.7-2.6-39.4-3.2-59.1c18.7-8.3,60.4-4.6,64.3,7.7c4.1,13.1-11.6,50.4-11.6,64.3
		s5.4,24,6.2,30.2c0.4,3.9-0.7,7.8-3.1,10.8h-47.8C404,259.2,401.8,241.2,400.5,223.3z"/>
	<path class="st1" d="M400.5,223.3c-1.5-20.5-2.6-41.1-3.3-61.6c20.5-4.8,53.2-0.6,56.6,10.2c4.1,13.1-11.6,50.4-11.6,64.3
		s5.4,24,6.2,30.2c0.4,3.9-0.7,7.8-3.1,10.8h-40.1C404,259.2,401.8,241.2,400.5,223.3z"/>
	<path class="st1" d="M445.1,292h-82l0,0v-14.7l0,0h90l0,0v6.8C453,288.4,449.5,292,445.1,292z"/>
	<path class="st12" d="M380.1,243.4c0,0-43,25.5-45.6,36.1c-3,12.6,17.6,87.1,17.6,87.1c4.9,3.3,13.9,2.2,17.2-0.8
		c0,0-16.6-63.8-14.8-68c4.4-10.4,42.1-22.9,54-34.2c11.9-11.4,12.9-22.2,12.9-22.2L380.1,243.4z"/>
	<path class="st13" d="M429.4,232c0,0,14.7,30.5,1.5,42.9c-6,5.7-42.1,0.5-44.2,6.2l21.8,72.4c0,0-3.9,2.3-11.6,6.2
		c0,0-45.4-79.9-40.7-90.2s35.9-16.3,37.5-21.9c1.2-4.9,2-10,2.6-15L429.4,232z"/>
	<path class="st8" d="M368,149.7c0.9,3.3,2.4,7,5.7,8.1c3,1,6.2-0.6,8.9-2.2c3.2-1.9,6.4-4,8.5-7.1c3.1-4.7,5.6-10.5,5.3-16.1
		c-0.1-2-3-4.4-4.2-6c-0.9-1.1-2.1-1.9-3.4-2.4c-3-1.4-6.2-2.5-9.5-3c-5.5-0.9-11.6,0.3-12.8,6.4C365.1,134.5,366.2,142.7,368,149.7
		z"/>
	<path class="st8" d="M408.7,158.8c0,0-0.1-1.2-4.2-2.2c-1.2-0.3-2.7-0.3-3.6-1.1c-3.4-2.9-6.4-8.4-7.6-12.4
		c-0.2-0.6-0.3-1.2-0.2-1.8c-2.8,2.4-5.5,4.8-8.1,7.4c-0.9,0.9-6.3,0.4-5.6,1.6c0.2,0.3,1.5,3.5,2.9,6.5c-2.6,1.7-5.5,3.9-5.5,3.9
		l-3.6,20.1l10.6,5.9c0,0,11.9-2.6,19.6-6.7S408.7,158.8,408.7,158.8z"/>
	
		<linearGradient id="SVGID_1_" gradientUnits="userSpaceOnUse" x1="382.8004" y1="2861.5432" x2="447.391" y2="2861.5432" gradientTransform="matrix(1 0 0 1 -11.86 -2658.8301)">
		<stop  offset="0" style="stop-color:#FFFFFF"/>
		<stop  offset="1" style="stop-color:#DCCED0"/>
	</linearGradient>
	<path class="st14" d="M404.4,156.6c-2.6,4-6.4,7.2-10.9,9c-7.8,3.4-14.7-6.7-14.7-6.7l-7.8,6c0,0-0.7,27.5,2.7,42.5s6.5,36,6.5,36
		s3.5,5.1,7.9,5.4c5.4,0.4,12.9-3.9,24.7-1.8c7.5,1.4,15.3,1.5,22.8,0.3c0,0-10.1-49.1-12.4-58.9s-8.4-29.9-8.4-29.9
		C411.4,157.6,407.9,157,404.4,156.6z"/>
	
		<linearGradient id="SVGID_2_" gradientUnits="userSpaceOnUse" x1="261.26" y1="2886.0801" x2="324.56" y2="2886.0801" gradientTransform="matrix(1 0 0 1 -11.86 -2658.8301)">
		<stop  offset="0" style="stop-color:#E6E6E6"/>
		<stop  offset="1" style="stop-color:#BDBDBD"/>
	</linearGradient>
	<path class="st15" d="M312.7,229.8h-60.3c-1.7,0-3-1.3-3-3v-2.1l0,0h63.3l0,0V229.8L312.7,229.8z"/>
	
		<linearGradient id="SVGID_3_" gradientUnits="userSpaceOnUse" x1="241.4949" y1="2855.28" x2="308.2567" y2="2855.28" gradientTransform="matrix(1 0 0 1 -11.86 -2658.8301)">
		<stop  offset="0" style="stop-color:#E6E6E6"/>
		<stop  offset="1" style="stop-color:#BDBDBD"/>
	</linearGradient>
	<path class="st16" d="M272.3,166.6c1.8,0,3.3,1.1,3.9,2.8l20.1,55.4l-1.2,0.5l0.3,1l-46-1.5l-19.6-52.5c-0.8-2.2,0.3-4.6,2.4-5.4
		c0.5-0.2,1-0.3,1.5-0.3L272.3,166.6z"/>
	
		<linearGradient id="SVGID_4_" gradientUnits="userSpaceOnUse" x1="267.66" y1="2858.0801" x2="276.23" y2="2858.0801" gradientTransform="matrix(1 0 0 1 -11.86 -2658.8301)">
		<stop  offset="1" style="stop-color:#FFFFFF"/>
		<stop  offset="1" style="stop-color:#BDBDBD"/>
	</linearGradient>
	<path class="st17" d="M256.6,199.4c1.4,5.2,4,9.4,6,9.3s2.4-4.4,1-9.6s-4-9.4-6-9.3C255.6,189.9,255.2,194.2,256.6,199.4z"/>
	<path class="st18" d="M372.4,132c0.1,3.1-1.2,5.4-2.5,8.1c-0.7,1.3-0.9,2.7-0.6,4.1c0.1,0.2,0.2,0.3,0.5,0.3
		c1.3-0.2,2.5-0.7,3.7-1.4c0.5-0.2,0.1-1-0.3-0.8s-1,0.5-1.6,0.6c-1.1,0.3-1.3,0.5-1.4-0.7c-0.1-1.5,1.2-3.1,1.8-4.4
		c0.8-1.9,1.1-4,0.9-6C372.9,131.7,372.4,131.6,372.4,132L372.4,132z"/>
	<path class="st13" d="M375.9,126.6c-5-0.3-10.3-0.4-14.7-2.6c-2.1-1.1-4.1-2.9-4.5-5.1c-0.4-2.3,1.2-4.6,3.5-5c0.1,0,0.1,0,0.2,0
		c0.5,0,1,0,1.5-0.2c0.5-0.4,0.7-1,0.7-1.6c0.5-4,3.9-8,8.2-7.9c3.5,0.1,6.8,2.8,10.2,2c1-0.3,2-0.8,2.9-1.3c3-1.4,6.3-1.9,9.5-1.3
		c3.4,0.6,7,3.3,6.2,6.4c-0.3,1-1,1.9-1.2,3c-0.7,3.8,5.3,5.6,6.5,9.3c1.1,3.3-2.2,6.6-2,10.1c0.1,1.9,1.3,4.2-0.2,5.6
		c-0.8,0.7-2.1,0.9-2.6,1.8c-0.7,1.2,0.6,2.6,0.7,4c0.1,1.7-1.8,3.2-3.7,3c-1.8-0.2-3.4-1.4-4.2-3.1c-0.6-1.6-0.9-3.4-0.7-5.1
		c3.2-0.9,5.1-6.1,2.1-7.4c-1.6-0.7-3.3,1-3.9,2.5C387.3,128.5,382.3,126.6,375.9,126.6z"/>
	<path class="st13" d="M388.7,134.6c-1,2.4-2.1,4.8-3.1,7.2c-0.3,1-0.9,1.9-1.7,2.6c-1.3,0.9-3,1.2-4.6,0.8c-1.6-0.3-4.6-1.2-6.2-1
		c-3.6,0.3-6.3,2.1-6.6,2.5c-0.5,0.9,0.2,2.3,0.2,3.3c0,1.1-0.2,2.1-0.7,3.1c-0.4,0.6-0.9,1.1-1.4,1.6c-1.3,1.4-2.5,3.1-2.4,5
		c0.1,2.6,2.5,4.4,4.7,5.8c1.3,1,2.8,1.7,4.4,2.2c1.1,0.1,2.2,0.1,3.3,0c2.3-0.1,4.6-0.5,6.9-1.1s4.3-1.9,5.7-3.7
		c1.1-1.7,1.9-3.5,2.3-5.4c1-3,1.6-6.2,1.9-9.4c-0.1-3-0.3-6-0.8-9c-0.3-2.6-0.3-5.2-0.2-7.8c0-0.3,0-1.1-0.4-1.2s-0.3,0.7-0.4,1
		C389.6,132.3,389.2,133.5,388.7,134.6z"/>
	<path class="st8" d="M369.4,148.3c-0.5,1.1-0.3,2.4,0.6,3.3c0.4,0.4,0.9,0.6,1.4,0.6c0.6,0,1-0.5,1-1.1c0-0.2-0.1-0.4,0-0.6
		c0.1-0.1,0.3-0.2,0.5-0.2c0.7,0,1.6,0,1.9,0.6c0.1,0.2,0.1,0.4,0.2,0.6c0.4,0.4,0.9,0.6,1.4,0.4c0.7-0.1,1.5-0.2,2.2-0.5
		c0.4-0.1,0.7-0.3,1-0.6s0.4-0.6,0.3-1c-0.1-0.3-0.4-0.5-0.6-0.7C377.1,147.7,371.2,144.4,369.4,148.3z"/>
	<path class="st18" d="M370.5,148.3c1.5,0.8,3.3,0.7,4.8-0.1c0.3-0.2,0.2-0.7-0.2-0.7c-0.7,0-1.5,0.3-2.2,0.3s-1.5-0.1-2.2-0.1
		c-0.2,0-0.3,0.1-0.3,0.3C370.4,148.2,370.4,148.3,370.5,148.3z"/>
	<path class="st9" d="M402.1,281.7c0,0-1.5-41.7,7.8-44.4s29.8-2,29.8-2l1.9,7.5c0,0-26.8-2-30.6,3.1s0,36.2,0,36.2L402.1,281.7z"/>
	<path class="st8" d="M327,220.3l12-4l10.6,2.7c6-1.5,8-1.5,20.2-4.6c7.6-2.1,15-4.8,22.2-8l13.5-20.1c5.7,0.5,13,12.1,13,12.1
		s-16.3,22.2-21,23.8s-40.2,5.7-52.1,4.3c-3.8-0.4-10.4-4.5-10.4-4.5l-6,1.4l-7.4,5l-1.3-1.1l2.9-3.2L327,220.3z"/>
	<path class="st11" d="M414.8,158.4c0,0,16,2.6,15.8,16.3c-0.2,8.9-12.4,25.6-12.4,25.6s-6.7-9.3-15-11.9c0,0,6.5-12.6,7-17.8
		S414.8,158.4,414.8,158.4z"/>
	<path class="st8" d="M348.6,229.8h-45.4c-1.7,0-3-1.3-3-3v-0.9l0,0h48.4l0,0V229.8L348.6,229.8z"/>
	<rect x="327.9" y="227.1" class="st8" width="16.1" height="1.2"/>
	<rect x="323.1" y="227.1" class="st8" width="2.4" height="1.2"/>
	
		<linearGradient id="SVGID_5_" gradientUnits="userSpaceOnUse" x1="195.87" y1="2807.95" x2="200.4" y2="2807.95" gradientTransform="matrix(1 0 0 1 0 -2604)">
		<stop  offset="0" style="stop-color:#E6E6E6"/>
		<stop  offset="1" style="stop-color:#BDBDBD"/>
	</linearGradient>
	<polygon class="st19" points="198,213.4 195.9,197.4 196.6,194.5 198.4,196.9 200.4,213.3 	"/>
	
		<linearGradient id="SVGID_6_" gradientUnits="userSpaceOnUse" x1="208.58" y1="2809.45" x2="213.42" y2="2809.45" gradientTransform="matrix(1 0 0 1 0 -2604)">
		<stop  offset="0" style="stop-color:#E6E6E6"/>
		<stop  offset="1" style="stop-color:#BDBDBD"/>
	</linearGradient>
	<polygon class="st20" points="208.6,214.5 210.9,198.5 212.4,195.9 213.4,198.7 210.9,215 	"/>
	
		<linearGradient id="SVGID_7_" gradientUnits="userSpaceOnUse" x1="201.24" y1="2810.2" x2="204.03" y2="2810.2" gradientTransform="matrix(1 0 0 1 0 -2604)">
		<stop  offset="0" style="stop-color:#E6E6E6"/>
		<stop  offset="1" style="stop-color:#BDBDBD"/>
	</linearGradient>
	<polygon class="st21" points="201.2,215.7 201.4,199.3 202.8,196.7 204,199.4 203.8,215.7 	"/>
	<polygon class="st22" points="211,231.5 198.6,231.5 196.3,211 212.6,211 	"/>
	<polygon class="st9" points="399.4,386.9 402.3,386.9 368.9,241.4 362.5,241.4 	"/>
	<polygon class="st9" points="308.6,385.4 311.6,385.4 333.1,241.4 326.9,241.4 	"/>
	<polygon class="st9" points="263.5,386.2 266.5,386.2 242.8,241.4 236.5,241.4 	"/>
	<polygon class="st9" points="180.1,384.7 183.1,384.7 211.6,241.4 205.3,241.4 	"/>
	<rect x="229.6" y="234.9" class="st23" width="157" height="6.5"/>
	<rect x="179.3" y="234.9" class="st24" width="144.8" height="6.5"/>
	<rect x="233.1" y="229.5" class="st24" width="167.9" height="8.7"/>
	<rect x="157.3" y="229.5" class="st25" width="155.7" height="8.7"/>
	<path class="st26" d="M248.9,71.5c0.5,5.8-0.8,10.6-2.9,10.7s-4.2-4.3-4.7-10.1s0.8-10.6,2.9-10.7
		C246.4,61.2,248.4,65.7,248.9,71.5z"/>
	
		<ellipse transform="matrix(4.553565e-02 -0.999 0.999 4.553565e-02 172.855 324.3912)" class="st26" cx="256.2" cy="71.7" rx="10.5" ry="3.8"/>
	<path class="st22" d="M261.4,36.2c-5,4.5-2.4,14.3-5.9,16.4c0.5,0.8,1.4,1.3,2.3,1.3c1.5-2.4,1.8-6.2,1.9-9.1
		S259.9,38.6,261.4,36.2z"/>
	<path class="st22" d="M256.4,35.7c-3.5,5.8,1.8,14.4-1,17.4c0.7,0.7,1.7,0.9,2.6,0.6c0.8-2.8,0-6.4-0.8-9.3S255.6,38.4,256.4,35.7z
		"/>
	<path class="st22" d="M251.6,36.5c-1.8,6.5,5.6,13.4,3.8,17c0.8,0.5,1.9,0.4,2.6-0.2c0-2.9-1.8-6.2-3.3-8.7
		C253.3,42.1,251.7,39.4,251.6,36.5z"/>
	<path class="st22" d="M247.5,40.5c0.3,6.2,8.8,10,8.2,13.7c0.9,0.2,1.7-0.2,2.3-0.9c-0.8-2.5-3.3-4.9-5.4-6.6S248.3,43,247.5,40.5z
		"/>
	<path class="st22" d="M243.8,44.2c2.3,5.8,11.6,6.8,12.2,10.5c0.9-0.2,1.7-0.8,1.9-1.6c-1.6-2.1-4.7-3.6-7.2-4.6
		S245.5,46.3,243.8,44.2z"/>
	<path class="st22" d="M242.6,49.4c3.8,4.4,12.4,2.5,14.1,5.5c0.7-0.4,1.2-1.2,1.2-2c-2.1-1.4-5.3-1.7-7.9-1.9
		S244.7,50.8,242.6,49.4z"/>
	<path class="st22" d="M245.2,53.5c3.8,2.7,10.1-0.5,12.1,1.5c0.5-0.4,0.7-1.1,0.5-1.8c-1.9-0.7-4.5-0.3-6.5,0.1
		S247.1,54.2,245.2,53.5z"/>
	<path class="st27" d="M255.8,81.6L255.8,81.6l-1,3.9h-8.3c-0.4-1.3-0.7-2.6-1.1-4c-1.5-5.7-2.8-11.2-2.5-15.9
		c0-0.5,0.1-0.9,0.1-1.3c0.4-2,2-3.7,4-4.1c2.4-0.7,4.9-0.7,7.2,0c2,0.5,3.5,2.1,3.9,4.1c0.1,0.5,0.1,1,0.1,1.5
		C258.6,70.6,257.3,76.1,255.8,81.6z"/>
	<path class="st27" d="M260.3,51.9c-0.5-1.6-13.6-4.7-13.5,10.1c0.1,1.3,9.7,7.1,10.1,4C255.7,52.7,260.9,59.9,260.3,51.9z"/>
	<path class="st27" d="M256.7,50.3c-0.6,1-0.6,2.4,0.2,3.4c0.7,1,2.1,1.9,3.2,1.5c1.1-2.2,0.9-5.4,0.5-7.8s-0.7-5.1,0.4-7.3
		c-3.1,2-2.2,7.8-3.1,9.1C257.3,49.8,257.1,49.7,256.7,50.3z"/>
	<path class="st27" d="M260.1,52.9c-0.4-0.8-0.8-1.6-1.3-2.2c-1.3-2.1-2.7-4.4-2.5-6.9c-1.9,2.8,0.5,7.2,0.8,9.1H260.1z"/>
	<path class="st27" d="M258.8,52.9l-0.7-0.7c-1.8-1.7-3.8-3.5-4.3-5.9c-0.8,2.2,0.8,4.7,2,6.6C255.8,52.9,258.8,52.9,258.8,52.9z"/>
	<path class="st28" d="M257.6,56.2c0,0.9-0.2,1.8-0.8,2.5c1.6,1.1,3.1,1.4,4.5-0.2l0.1,0.1C260.8,57.2,258.6,57.7,257.6,56.2z"/>
	<path class="st29" d="M260.3,54.2c-0.8,0.8-1.7,1.5-2.7,2l0,0c1,1.5,3.2,1,3.9,2.4l0.5,0.3C263.3,56.6,262.1,54.7,260.3,54.2z"/>
	<path class="st28" d="M259.8,56.2c0,0.2-0.2,0.3-0.5,0.3s-0.5-0.2-0.5-0.3s0.2-0.3,0.5-0.3S259.8,56.1,259.8,56.2z"/>
	<path class="st8" d="M245.7,86.4l-0.3-0.8c-1.5-6.7-2.8-13.3-2.5-18.9c0.8,2.6,1.3,5.3,1.6,8.1c0.1-0.2,0.2-0.5,0.2-0.7
		c0.3,1.8,0.4,3.7,0.1,5.6l0.4-0.8C245.2,81.4,245.3,83.9,245.7,86.4z"/>
	<path class="st8" d="M255.8,85.8c0.3-3.7,0.3-7.4,0.8-11.1c0.1-0.6,0.7-1.4,0.8-2c0.3-2,0.6-3.7,1-5.7
		C258.6,72.6,257.3,79.2,255.8,85.8z"/>
	<path class="st29" d="M246.5,81.2c0.4-0.2,0.8,0,1,0.4c0,0.2,0,0.4,0,0.5c0,0.7,0.1,1.5,0.4,2.2c0.1,0.2,0,0.4-0.1,0.6
		c-0.2,0.1-0.4,0.2-0.6,0.1c-0.1,0-0.2,0-0.3-0.1c-0.1,0-0.1-0.1-0.2-0.1c-0.1,0-0.1,0-0.2,0c0.1-0.2,0.2-0.4,0.1-0.6l-0.1-2.2
		c0-0.1,0-0.2-0.1-0.3c0-0.1-0.1-0.1-0.1-0.2S246.3,81.3,246.5,81.2z"/>
	<path class="st29" d="M253.3,81.2c0.4-0.2,0.8,0,1,0.4c0,0.2,0,0.4,0,0.5c0,0.7,0.1,1.5,0.3,2.2c0.1,0.2,0,0.4-0.1,0.6
		c-0.2,0.1-0.4,0.2-0.6,0.1c-0.1,0-0.2,0-0.3-0.1c-0.1,0-0.1-0.1-0.2-0.1c-0.1,0-0.1,0-0.2,0c0.1-0.2,0.2-0.4,0.1-0.6l-0.1-2.2
		c0-0.1,0-0.2-0.1-0.3c-0.1-0.1-0.1-0.1-0.1-0.2C253,81.4,253.1,81.3,253.3,81.2z"/>
	<path class="st28" d="M247.1,83.7c-0.2-0.1-0.4-0.2-0.6-0.1c-0.2,0.1-0.3,0.3-0.3,0.5c0.1,0.2,0.1,0.3,0.2,0.5c0,0.3,0,0.6,0,0.9
		c0,0.7,0.7,1.3,0.5,1.9c0.4-0.9,0.5-1.9,0.4-2.9C247.4,84.2,247.3,83.9,247.1,83.7z"/>
	<path class="st28" d="M248.4,83.7c-0.2-0.1-0.4-0.2-0.6-0.1c-0.2,0.1-0.3,0.3-0.2,0.5c0,0.2,0.2,0.3,0.2,0.5c0.1,0.3,0.1,0.6,0,0.9
		c0,0.7,0.7,1.3,0.5,1.9c0.4-0.9,0.5-1.9,0.4-2.9C248.7,84.2,248.6,83.9,248.4,83.7z"/>
	<path class="st28" d="M246,83.7c-0.1-0.1-0.4-0.2-0.6-0.1c-0.2,0.1-0.3,0.3-0.3,0.5c0.1,0.2,0.1,0.3,0.2,0.5c0.1,0.3,0,0.6,0,0.9
		c0,0.7,0.7,1.3,0.5,1.9c0.4-0.9,0.5-1.9,0.4-2.9C246.3,84.2,246.2,83.9,246,83.7z"/>
	<path class="st28" d="M255,83.7c-0.1-0.1-0.4-0.2-0.6-0.1c-0.2,0.1-0.3,0.3-0.3,0.5c0.1,0.2,0.1,0.3,0.2,0.5c0.1,0.3,0,0.6,0,0.9
		c0,0.7,0.7,1.3,0.5,1.9c0.4-0.9,0.5-1.9,0.4-2.9C255.3,84.2,255.2,83.9,255,83.7z"/>
	<path class="st28" d="M256.3,83.7c-0.2-0.1-0.4-0.2-0.6-0.1c-0.2,0.1-0.3,0.3-0.3,0.5c0.1,0.2,0.1,0.3,0.2,0.5c0.1,0.3,0,0.6,0,0.9
		c0,0.7,0.7,1.3,0.5,1.9c0.4-0.9,0.5-1.9,0.4-2.9C256.6,84.2,256.4,83.9,256.3,83.7z"/>
	<path class="st28" d="M253.9,83.7c-0.2-0.1-0.4-0.2-0.6-0.1c-0.2,0.1-0.3,0.3-0.3,0.5s0.2,0.3,0.2,0.5c0.1,0.3,0.1,0.6,0,0.9
		c0,0.7,0.7,1.3,0.5,1.9c0.4-0.9,0.5-1.9,0.4-2.9C254.1,84.2,254,83.9,253.9,83.7z"/>
	<path class="st2" d="M250.8,81.4c0.3-0.3,0.6-0.6,0.8-1c0.1,0.2,0.1,0.5,0.2,0.7c1.3-1.2,2.2-2.8,2.6-4.5c0,2.7-1.2,5.3-3.4,7
		c-0.1-0.2-0.1-0.5-0.1-0.8c0,0.3-0.2,0.5-0.3,0.7c-0.2-0.3-0.4-0.6-0.6-0.9c0,0.3-0.1,0.6-0.4,0.8c-0.3-0.8-1.1-1.1-1.6-1.7
		c-0.2-0.3-0.4-0.7-0.5-1.1c-0.4-1.2-0.6-2.6-0.5-3.9c0.2,1.3,0.7,2.6,1.6,3.6l0.2-0.9c0.3,0.6,0.8,1.2,1.3,1.7
		c0-0.3,0.2-0.5,0.4-0.8C250.3,80.8,250.5,81.1,250.8,81.4z"/>
	<path class="st27" d="M111.8,317c4-1.9,8.5-2.4,12.8-1.5c2.3,0.4,4.7,1.1,6.3,2.8c1.6,1.7,1.9,4.8,0.1,6.3c-1.2,0.8-2.6,1.1-4,1
		c-3.4,0-7.1-0.6-9.9,1.4c-1.5,1.2-2.6,3.1-4.4,3.7c-1.9,0.4-3.9-0.4-4.8-2.1s-1.1-3.7-0.5-5.5C107.8,320.5,109.5,318.3,111.8,317z"
		/>
	<path class="st27" d="M102.9,299.8c2.4,3.4,7,2.3,9.2,0.2c2.2-2.1,3.1-5.1,3.9-7.9c1.9-6.5,3.8-13.4,2.4-20.1
		c-0.3-2-1.2-3.9-2.6-5.5s-3.5-2.3-5.5-1.8c-2.3,0.6-3.8,2.9-4.8,5.1c-3.1,6.4-4.7,13.4-4.7,20.6C100.6,293.6,101,297.1,102.9,299.8
		"/>
	<path class="st27" d="M96.3,304.7c2.6-3.1,3.1-7.5,1.9-11.4c-1.3-3.8-3.6-7.2-6.7-9.8c-3.5-3.1-7.6-5.5-12.1-7.1
		c-1.7-0.7-3.6-1-5.4-0.9c-1.9,0.1-3.6,1.1-4.6,2.8c-1.3,2.4-0.1,5.4,1.3,7.8c2.3,4.2,5,8.3,7.9,12.1c2.4,3.1,5.1,6.1,8.7,7.5
		s7.4,1.2,9.3-1.3"/>
	<path class="st30" d="M102.7,351.1c0.1-0.5,0.2-1,0.2-1.5c0.1-1.1,0.2-2.5,0.4-4.2c0.2-2.1,0.6-4.1,1-6.2c0.6-2.5,1.3-4.9,2.2-7.3
		c0.9-2.4,2.2-4.6,3.7-6.6c1.3-1.6,2.9-3,4.7-3.9c1.3-0.6,2.6-1,4-1.2c0.5,0,1-0.1,1.5-0.2c-0.5-0.1-1-0.1-1.6,0
		c-1.4,0.1-2.8,0.5-4.1,1.1c-2,0.9-3.7,2.3-5,4c-1.6,2-2.9,4.3-3.9,6.7c-1,2.4-1.7,4.9-2.2,7.4c-0.4,2.1-0.7,4.2-0.8,6.3
		c-0.1,1.8-0.2,3.2-0.2,4.2C102.7,350.1,102.7,350.6,102.7,351.1z"/>
	<path class="st31" d="M103,347.9c0-0.2,0-0.5,0-0.7c0-0.5,0-1.2,0-2c0-1.8,0-4.4,0.1-7.5c0.2-6.4,0.7-13.2,1.8-22.8
		c1-9.1,2.3-19.6,3.8-26.5c0.3-1.6,0.6-3,0.9-4.2s0.5-2.3,0.7-3.2c0.2-0.9,0.3-1.5,0.5-2c0.1-0.2,0.1-0.5,0.1-0.7
		c-0.1,0.2-0.2,0.4-0.2,0.7c-0.2,0.5-0.3,1.2-0.6,2c-0.2,0.8-0.5,1.9-0.8,3.1s-0.7,2.6-1,4.2c-1.8,8.1-3.1,16.3-4,24.6
		c-1.1,9.7-1.5,18.5-1.6,24.8c0,3.2,0,5.8,0.1,7.5c0.1,0.8,0.1,1.5,0.1,2C102.9,347.4,102.9,347.6,103,347.9z"/>
	<path class="st30" d="M102.6,335.5c0.1-0.8,0.1-1.7,0-2.5c-0.1-1.6-0.3-3.9-0.8-6.7c-0.5-3.3-1.3-6.6-2.2-9.8
		c-1.1-4-2.4-7.9-4.1-11.6c-2.9-6.9-6.9-13.3-12.1-18.8c-0.9-0.9-1.8-1.8-2.8-2.6c-0.4-0.4-0.8-0.7-1.2-1l-1.1-0.8
		c-0.7-0.5-1.4-0.9-2.1-1.3c-0.1,0.2,3,2,6.9,6.1c5,5.5,8.9,11.9,11.8,18.7c1.6,3.7,3,7.6,4.1,11.5c0.9,3.2,1.7,6.4,2.3,9.7
		c0.5,2.8,0.8,5.1,1,6.7C102.4,333.9,102.5,334.7,102.6,335.5z"/>
	<polygon class="st2" points="86.6,360.8 88.3,384.1 118.3,384.1 120,360.8 	"/>
	<rect x="83.7" y="351.6" class="st2" width="39.8" height="9.2"/>
	<polygon class="st27" points="83.7,383.2 83.7,385.8 85.6,385.8 122.9,385.8 122.9,383.2 	"/>
	<polygon class="st31" points="87.4,390.3 85.6,385.8 121.5,385.8 119.3,390.3 	"/>
	<path class="st27" d="M119.4,368.4c0,0.1-0.1,0.2-0.1,0.2l-0.4,0.6l-1.7,2.2l-0.1,0.1l-0.1-0.1l-4.3-5.9h0.2l-4.2,6l-0.1,0.2
		l-0.2-0.2l-5-6h0.3l-0.3,0.4l-4.5,5.6l-0.2,0.2l-0.1-0.2c-1.5-2.1-2.9-4.1-4.2-6h0.2l-5.2,5.9l-0.1,0.1l-0.1-0.1l-1.6-2.7l-0.4-0.7
		c-0.1-0.2-0.1-0.2-0.1-0.3l0.2,0.2l0.5,0.7l1.7,2.7h-0.2l5.1-6l0.1-0.2l0.1,0.2l4.3,6h-0.3l4.5-5.6c0.1-0.1,0.2-0.2,0.3-0.3
		l0.1-0.2l0.2,0.2l5,6h-0.3l4.3-5.9l0.1-0.2l0.1,0.2l4.2,6H117l1.8-2.2l0.5-0.6L119.4,368.4z"/>
	<path class="st31" d="M120.4,360.7c0,0.1-7.5,0.2-16.8,0.2s-16.8-0.1-16.8-0.2s7.5-0.2,16.8-0.2S120.4,360.6,120.4,360.7z"/>
	<path class="st31" d="M121.9,386c0,0.1-8.2,0.2-18.2,0.2s-18.2-0.1-18.2-0.2s8.2-0.2,18.2-0.2S121.9,385.9,121.9,386z"/>
</g>
<g id="Layer_2_1_">
</g>
</svg>
