<?xml version="1.0" encoding="utf-8"?>
<!-- Generator: Adobe Illustrator 25.2.1, SVG Export Plug-In . SVG Version: 6.00 Build 0)  -->
<svg version="1.1" xmlns="http://www.w3.org/2000/svg" xmlns:xlink="http://www.w3.org/1999/xlink" x="0px" y="0px"
	 viewBox="0 0 582.4 446" style="enable-background:new 0 0 582.4 446;" xml:space="preserve">
<style type="text/css">
	.st0{fill:#A751E5;}
	.st1{opacity:0.6;}
	.st2{fill:#FFFFFF;}
	.st3{fill:#263238;}
	.st4{opacity:0.3;}
	.st5{fill:#E6D2F9;}
	.st6{fill:#455A64;}
	.st7{fill-rule:evenodd;clip-rule:evenodd;fill:#A751E5;}
	.st8{fill:#E7D0FC;}
	.st9{fill:#FAFAFA;}
	.st10{opacity:0.2;}
	.st11{fill:#FEFEFE;}
	.st12{fill:#FDFDFD;}
	.st13{fill:#FCFCFC;}
	.st14{fill:#FBFBFB;}
	.st15{fill:#F9F9F9;}
	.st16{fill:#F8F8F8;}
	.st17{fill:#F8F7F7;}
	.st18{fill:#F7F6F6;}
	.st19{fill:#F6F5F5;}
	.st20{fill:#F5F4F4;}
	.st21{fill:#F4F3F3;}
	.st22{fill:#F3F2F2;}
	.st23{fill:#F2F2F1;}
	.st24{fill:#F1F1F0;}
	.st25{fill:#F0F0EF;}
	.st26{fill:#EFEFEE;}
	.st27{fill:#EEEEED;}
	.st28{fill:#EDEDEC;}
	.st29{fill:#ECECEB;}
	.st30{fill:#EBEBEA;}
	.st31{fill:#EAEAE9;}
	.st32{fill:#EAE9E8;}
	.st33{fill:#E9E8E7;}
	.st34{fill:#E8E7E6;}
	.st35{fill:#E7E6E5;}
	.st36{fill:#E6E5E4;}
	.st37{fill:#E5E4E3;}
	.st38{fill:#E4E3E2;}
	.st39{fill:#E3E2E1;}
	.st40{fill:#E2E1E0;}
	.st41{fill:#E1E0DF;}
	.st42{fill:#E0DFDE;}
	.st43{fill:#DFDEDD;}
	.st44{fill:#DEDDDC;}
	.st45{fill:#DDDCDB;}
	.st46{fill:#DCDBDA;}
	.st47{fill:#DCDAD9;}
	.st48{fill:#DBD9D8;}
	.st49{fill:#DAD8D7;}
	.st50{fill:#D9D7D6;}
	.st51{fill:#D8D7D5;}
	.st52{fill:#D7D6D4;}
	.st53{fill:#D6D5D3;}
	.st54{fill:#D5D4D2;}
	.st55{fill:#D4D3D1;}
	.st56{fill:#D3D2D0;}
	.st57{fill:#D2D1CF;}
	.st58{fill:#D1D0CE;}
	.st59{fill:#D0CFCD;}
	.st60{fill:#CFCECC;}
	.st61{fill:#CECDCB;}
	.st62{fill:#CECCCA;}
	.st63{fill:#CDCBC9;}
	.st64{fill:#CCCAC8;}
	.st65{fill:#CBC9C7;}
	.st66{fill:#CAC8C6;}
	.st67{fill:#C9C7C5;}
	.st68{fill:#C8C6C4;}
	.st69{fill:#C7C5C3;}
	.st70{fill:#C6C4C2;}
	.st71{fill:#C5C3C1;}
	.st72{fill:#C4C2C0;}
	.st73{fill:#C3C1BF;}
	.st74{fill:#C2C0BE;}
	.st75{fill:#C1BFBD;}
	.st76{fill:#C0BEBC;}
	.st77{fill:#C0BDBB;}
	.st78{fill:#BFBCBA;}
	.st79{fill:#BEBCB9;}
	.st80{fill:#BDBBB8;}
	.st81{fill:#BCBAB7;}
	.st82{fill:#BBB9B6;}
	.st83{fill:#BAB8B5;}
	.st84{fill:#B9B7B4;}
	.st85{fill:#B8B6B3;}
	.st86{fill:#B7B5B2;}
	.st87{fill:#B6B4B1;}
	.st88{fill:#B5B3B0;}
	.st89{fill:#B4B2AF;}
	.st90{fill:#B3B1AE;}
	.st91{fill:#B2B0AD;}
	.st92{fill:#B2AFAC;}
	.st93{fill:#B1AEAB;}
	.st94{fill:#B0ADAA;}
	.st95{fill:#AFACA9;}
	.st96{fill:#AEABA8;}
	.st97{fill:#ADAAA7;}
	.st98{fill:#ACA9A6;}
	.st99{fill:#ABA8A5;}
	.st100{fill:#AAA7A4;}
	.st101{fill:#A9A6A3;}
	.st102{fill:#A8A5A2;}
	.st103{fill:#A7A4A1;}
	.st104{fill:#A6A3A0;}
	.st105{fill:#A5A29F;}
	.st106{fill:#A4A19E;}
	.st107{fill:#A3A09D;}
	.st108{fill:#A3A09C;}
	.st109{fill:#A29F9B;}
	.st110{fill:#A19E9A;}
	.st111{fill:#A09D99;}
	.st112{fill:#9F9C98;}
	.st113{fill:#9E9B97;}
	.st114{fill:#9D9A96;}
	.st115{fill:#9C9995;}
	.st116{fill:#9B9894;}
	.st117{fill:#9A9793;}
	.st118{fill:#999692;}
	.st119{fill:#989591;}
	.st120{fill:#979490;}
	.st121{fill:#96938F;}
	.st122{fill:#95928E;}
	.st123{fill:#95918D;}
	.st124{fill:#94908C;}
	.st125{fill:#938F8B;}
	.st126{fill:#928E8A;}
	.st127{fill:#918D89;}
	.st128{fill:#908C88;}
	.st129{fill:#8F8B87;}
	.st130{fill:#8E8A86;}
	.st131{fill:#8D8985;}
	.st132{fill:#8C8884;}
	.st133{fill:#8B8783;}
	.st134{fill:#8A8682;}
	.st135{fill:#898581;}
	.st136{fill:#888580;}
	.st137{fill:#87847F;}
	.st138{fill:#87837E;}
	.st139{fill:#86827D;}
	.st140{fill:#85817C;}
	.st141{fill:#84807B;}
	.st142{fill:#837F7A;}
	.st143{fill:#827E79;}
	.st144{fill:#817D78;}
	.st145{fill:#807C77;}
	.st146{fill:#7F7B76;}
	.st147{fill:#7E7A75;}
	.st148{fill:#7D7974;}
	.st149{fill:#7C7873;}
	.st150{fill:#7B7772;}
	.st151{fill:#7A7671;}
	.st152{fill:#797570;}
	.st153{fill:#79746F;}
	.st154{fill:#78736E;}
	.st155{fill:#77726D;}
	.st156{fill:#76716C;}
	.st157{fill:#75706B;}
	.st158{fill:#746F6A;}
	.st159{fill:#736E69;}
	.st160{fill:#726D68;}
	.st161{fill:#716C67;}
	.st162{fill:#706B66;}
	.st163{fill:#6F6A65;}
	.st164{fill:#6E6A64;}
	.st165{fill:#6D6963;}
	.st166{fill:#6C6862;}
	.st167{fill:#6B6761;}
	.st168{fill:#6B6660;}
	.st169{fill:#6A655F;}
	.st170{fill:#69645E;}
	.st171{fill:#68635D;}
	.st172{fill:#67625C;}
	.st173{fill:#66615B;}
	.st174{fill:#65605A;}
	.st175{fill:#645F59;}
	.st176{fill:#635E58;}
	.st177{fill:#625D57;}
	.st178{fill:#615C56;}
	.st179{fill:#605B55;}
	.st180{fill:#5F5A54;}
	.st181{fill:#5E5953;}
	.st182{fill:#5D5852;}
	.st183{fill:#5D5751;}
	.st184{fill:#5C5650;}
	.st185{fill:#5B554F;}
	.st186{fill:#5A544E;}
	.st187{fill:#59534D;}
	.st188{fill:#58524C;}
	.st189{fill:#57514B;}
	.st190{fill:#56504A;}
	.st191{fill:#554F49;}
	.st192{fill:#544F48;}
	.st193{fill:#534E47;}
	.st194{fill:#524D46;}
	.st195{fill:#514C45;}
	.st196{fill:#504B44;}
	.st197{fill:#4F4A43;}
	.st198{fill:#4F4942;}
	.st199{fill:#4E4841;}
	.st200{fill:#4D4740;}
	.st201{fill:#4C463F;}
	.st202{fill:#4B453E;}
	.st203{fill:#4A443D;}
	.st204{fill:#49433C;}
	.st205{fill:#48423B;}
	.st206{fill:url(#SVGID_1_);}
	.st207{fill:url(#SVGID_2_);}
</style>
<g id="Layer_2">
</g>
<g id="Layer_1">
	<path class="st0" d="M246,416.6l-1.3,19.2c0,0,19.1,6.3,19.2,9.9l-37.3,0.3l0.8-30L246,416.6z"/>
	<g class="st1">
		<path class="st2" d="M233.2,433.9c-0.8,0.2-1.2,0.9-1.1,1.7c0.2,0.8,0.9,1.3,1.7,1.1c0.8-0.2,1.3-1,1.2-1.8
			c-0.2-0.8-1.1-1.2-1.9-1"/>
	</g>
	<g class="st1">
		<path class="st2" d="M226.6,446l0.1-3l36.1,1c0.8,0.4,1.3,1.1,1.4,2H226.6z"/>
	</g>
	<path class="st3" d="M245.3,435.7c0,0.2-0.9,0.2-1.8,0.8s-1.4,1.3-1.6,1.2s0.1-1.1,1.2-1.8S245.4,435.5,245.3,435.7z"/>
	<path class="st3" d="M249.2,437.4c0,0.2-0.8,0.5-1.4,1.2s-0.8,1.6-1,1.5s-0.3-1,0.5-2S249.2,437.2,249.2,437.4z"/>
	<path class="st3" d="M251.3,442.2c-0.2,0-0.4-0.9,0.1-1.9s1.4-1.3,1.4-1.2s-0.5,0.7-0.9,1.5S251.4,442.1,251.3,442.2z"/>
	<path class="st3" d="M245.1,431.2c-0.1,0.2-0.9-0.1-1.9-0.1s-1.8,0.3-1.9,0.2s0.7-0.8,1.9-0.8S245.2,431.1,245.1,431.2z"/>
	<g class="st4">
		<polygon points="245.7,420.4 245.5,423.9 227.2,423.1 227.2,420 		"/>
	</g>
	<path class="st3" d="M245.3,427.4c-0.6,0.2-1.3,0.1-1.9-0.1c-0.7-0.1-1.3-0.4-1.9-0.7c-0.4-0.2-0.7-0.4-1.1-0.6
		c-0.2-0.1-0.4-0.3-0.5-0.5c-0.2-0.3-0.3-0.7,0-1c0.2-0.3,0.5-0.4,0.8-0.4c0.2,0,0.5,0,0.7,0.1c0.4,0.1,0.8,0.3,1.2,0.4
		c0.6,0.3,1.2,0.7,1.7,1.2c0.8,0.8,1.1,1.5,1,1.5s-0.5-0.5-1.3-1.2c-0.5-0.4-1.1-0.7-1.6-1c-0.3-0.1-0.7-0.3-1.1-0.4
		c-0.4-0.1-0.7-0.1-0.8,0s0,0.1,0,0.2c0.1,0.1,0.3,0.2,0.4,0.3c0.3,0.2,0.7,0.4,1,0.6c0.6,0.3,1.2,0.5,1.8,0.7
		C244.1,426.9,244.7,427.1,245.3,427.4z"/>
	<path class="st3" d="M245.1,427.6c-0.3-0.5-0.5-1.2-0.4-1.8c0-0.7,0.1-1.4,0.3-2c0.1-0.4,0.3-0.8,0.5-1.1c0.2-0.5,0.7-0.8,1.2-0.9
		c0.3,0,0.6,0.2,0.8,0.5c0.1,0.2,0.1,0.5,0.2,0.7c0.1,0.4,0.1,0.8,0,1.3c-0.1,0.7-0.4,1.3-0.9,1.9c-0.8,1-1.5,1.1-1.5,1.1
		s0.6-0.4,1.2-1.3c0.3-0.5,0.6-1.1,0.6-1.7c0.1-0.4,0.1-0.7,0-1.1c0-0.4-0.2-0.7-0.3-0.7s-0.5,0.3-0.7,0.6c-0.2,0.3-0.4,0.7-0.5,1
		c-0.2,0.6-0.4,1.2-0.4,1.8C245,426.9,245.2,427.6,245.1,427.6z"/>
	<path class="st0" d="M174.1,126.1c0-0.1,0-0.3,0-0.4c0-0.3,0-0.6,0-1.1c0-1,0-2.4,0-4.2c0-3.6-0.1-8.7-0.1-14.8l0.2,0.2h-25.5
		c0,0,0.4-0.4,0.2-0.2l0,0v2.7c0,0.9,0,1.8,0,2.7v5.2c0,3.4,0,6.7,0,9.7l-0.2-0.2l18.4,0.1l5.2,0.1h1.4h0.5c-0.2,0-0.3,0-0.5,0h-1.3
		l-5.2,0.1l-18.5,0.1h-0.2V126c0-3,0-6.3,0-9.7v-10.5l0,0c-0.2,0.2,0.3-0.3,0.2-0.2h25.5h0.2v0.2c0,6.2-0.1,11.3-0.1,14.9
		c0,1.8,0,3.1,0,4.1c0,0.4,0,0.8,0,1.1S174.1,126.2,174.1,126.1z"/>
	<path class="st0" d="M170.8,118.7c-0.6-0.4-1.1-0.9-1.6-1.4c-1-0.9-2.4-2.2-4-3.8h0.3l-4,4.6l-0.2,0.2l-0.2,0.2l-0.2-0.1
		c-0.9-0.7-1.7-1.4-2.5-2.1h0.3c-2.2,2-4.1,3.7-5.5,4.9l-1.6,1.4c-0.2,0.2-0.4,0.3-0.6,0.5c0,0,0.2-0.2,0.5-0.6l1.5-1.5
		c1.3-1.2,3.2-3,5.4-5l0.1-0.1l0.2,0.1l2.5,2.1H161l0.2-0.2l4.1-4.6l0.2-0.2l0.2,0.1c1.6,1.6,3,2.9,3.9,3.9
		C170,117.6,170.4,118.1,170.8,118.7z"/>
	<path class="st0" d="M157.5,111.7c0,0-0.2-0.1-0.4-0.4c-0.4-0.3-0.8-0.5-1.3-0.6c-1.1-0.1-2.2,0.7-2.3,1.9c0,0.4,0.1,0.8,0.3,1.2
		c0.6,1,1.9,1.3,2.8,0.7c0.4-0.2,0.7-0.5,0.8-0.9c0.2-0.4,0.3-0.9,0.2-1.4C157.6,111.9,157.5,111.7,157.5,111.7
		c0.1,0,0.2,0.1,0.3,0.5c0.2,0.5,0.2,1.1,0,1.6c-0.3,0.8-1,1.3-1.8,1.5c-1.3,0.2-2.6-0.7-2.9-2c-0.1-0.7,0.1-1.5,0.5-2
		c0.5-0.6,1.4-0.9,2.2-0.8c0.5,0.1,1,0.4,1.4,0.8C157.4,111.5,157.5,111.7,157.5,111.7z"/>
	<path class="st0" d="M145.6,120.6c0,0-0.1-0.1-0.4-0.4c-0.4-0.3-0.8-0.5-1.3-0.6c-0.7-0.1-1.4,0.2-1.8,0.8
		c-0.7,0.9-0.6,2.2,0.3,2.9c0.5,0.4,1.1,0.5,1.7,0.4c0.7-0.1,1.3-0.6,1.6-1.2c0.2-0.4,0.3-0.9,0.1-1.4
		C145.7,121,145.7,120.8,145.6,120.6c0,0,0.2,0.1,0.3,0.5c0.2,0.5,0.2,1.1,0,1.6c-0.3,0.8-1,1.3-1.8,1.5c-1.3,0.2-2.6-0.7-2.9-2
		c-0.1-0.7,0.1-1.5,0.5-2c0.5-0.6,1.4-0.9,2.2-0.8c0.5,0.1,1,0.3,1.4,0.8C145.6,120.4,145.7,120.6,145.6,120.6z"/>
	<path class="st0" d="M161.4,127.1c0,0.1,0,0.3,0,0.4c0,0.3,0,0.7,0,1.3c0,1.2,0,2.8,0.1,4.8v0.1h-0.2c-5.3,0.1-13.5,0.1-22.9,0.1
		h-1.4v-0.2c0-7.2,0-13.8,0.1-18.8v-0.2h0.2l6.8,0.1h1.9c0.2,0,0.4,0,0.6,0.1c-0.2,0-0.4,0.1-0.6,0.1h-1.9l-6.8,0.1l0.2-0.2
		c0,5,0,11.5,0.1,18.8l-0.2-0.2h1.2c9.3,0,17.6,0,22.8,0.1l-0.1,0.1c0-2,0-3.6,0.1-4.8c0-0.5,0-0.9,0-1.3
		C161.3,127.3,161.3,127.2,161.4,127.1z"/>
	<path class="st0" d="M147.2,124.9c-1.1,1.3-2.4,2.4-3.7,3.5c-1.2,1.2-2.5,2.3-3.9,3.3C141.9,129.1,144.4,126.8,147.2,124.9z"/>
	<path class="st0" d="M152.4,130c-0.1,0.1-0.8-0.3-1.4-1.1s-1-1.5-0.9-1.6s0.6,0.5,1.3,1.2S152.5,129.9,152.4,130z"/>
	<path class="st0" d="M182.3,144.8c0,0,0-0.3,0-0.9s0-1.5,0-2.7c0-2.4,0-5.9,0-10.4c0-9,0-22-0.1-37.9l0.2,0.2L95.3,93l0,0l0.2-0.2
		c0,18.4,0,36,0,51.9l-0.2-0.2l62.6,0.1l18,0.1h4.8h1.3h-1.2H176l-17.9,0.1l-62.8,0.1h-0.3v-0.2c0-16,0-33.6,0-51.9v-0.2h0.2
		l87.1,0.1h0.2v0.2c0,15.9-0.1,28.9-0.1,38c0,4.5,0,8,0,10.4c0,1.2,0,2.1,0,2.7S182.3,144.8,182.3,144.8z"/>
	<rect x="102.3" y="105" class="st0" width="26.5" height="1.9"/>
	<path class="st3" d="M127.7,114.6c0,0.1-5.8,0.2-12.9,0.2s-12.9-0.1-12.9-0.2s5.8-0.2,12.9-0.2S127.7,114.4,127.7,114.6z"/>
	<path class="st3" d="M127.7,118.9c0,0.1-5.8,0.2-12.9,0.2s-12.9-0.1-12.9-0.2s5.8-0.2,12.9-0.2S127.7,118.7,127.7,118.9z"/>
	<path class="st3" d="M127.7,123.1c0,0.1-5.8,0.2-12.9,0.2s-12.9-0.1-12.9-0.2s5.8-0.2,12.9-0.2S127.7,123,127.7,123.1z"/>
	<path class="st3" d="M127.7,127.4c0,0.1-5.8,0.2-12.9,0.2s-12.9-0.1-12.9-0.2s5.8-0.2,12.9-0.2S127.7,127.3,127.7,127.4z"/>
	<path class="st3" d="M113.5,131.7c-3.9,0.3-7.8,0.3-11.6,0C105.8,131.4,109.7,131.4,113.5,131.7z"/>
	<polygon class="st0" points="167.5,422.4 161.7,444 180.7,445.8 184.7,425.2 	"/>
	<path class="st0" d="M181.2,444c-0.9,0.1-1.9,0-2.8-0.1c-1.7-0.1-4.1-0.4-6.7-0.7l-6.6-0.9c-0.9-0.1-1.8-0.2-2.7-0.5
		c0.9-0.1,1.9,0,2.8,0.1c1.7,0.1,4.1,0.4,6.7,0.7l6.6,0.9C179.4,443.6,180.3,443.8,181.2,444z"/>
	<g class="st1">
		<polyline class="st5" points="161.7,444 180.7,445.8 181,444.2 162.2,441.8 161.7,443.8 		"/>
	</g>
	<path class="st3" d="M171.1,443.1c0.5-2.8,1.1-5.6,1.8-8.3c0.6-2.8,1.4-5.5,2.2-8.2c-0.5,2.8-1.1,5.6-1.8,8.3
		C172.8,437.7,172,440.4,171.1,443.1z"/>
	<path class="st3" d="M180.2,443.9c0.3-1.3,0.3-2.7,0-4c-0.3-1.4-1.1-2.7-2.1-3.8c-1.3-1.2-2.9-2-4.7-2.2c-1.8-0.2-3.6,0.2-5.1,1.2
		c-1.2,0.8-2.3,1.9-3,3.2c-0.6,1.2-1,2.5-1.2,3.8c0-0.1,0-0.2,0-0.3c0-0.3,0-0.5,0-0.8c0.1-1,0.4-2,0.9-2.9c0.7-1.4,1.7-2.5,3-3.3
		c1.6-1,3.5-1.5,5.3-1.3c3.5,0.3,6.4,2.9,7.1,6.3c0.2,1,0.2,2,0,3c-0.1,0.3-0.1,0.5-0.2,0.8C180.2,443.7,180.2,443.8,180.2,443.9z"
		/>
	<polygon class="st3" points="246,249.8 189.1,249.4 161.6,430 185.2,433 215.5,284.5 224.5,433.5 224.5,433.9 250.1,433.5 	"/>
	<path class="st6" d="M220.1,264.4c0.4-0.1,0.8-0.1,1.2-0.1l3.4-0.1l12.3-0.4h0.2v0.2c0,3.6,0,7.6,0,11.8v0.1l-0.1,0.1
		c-0.7,0.6-1.4,1.3-2.2,2l-6.3,5.8l-0.2,0.1l-0.2-0.1l-8.4-7.5l-0.1-0.1v-0.1c0-3.6,0.1-6.5,0.1-8.6c0-1,0-1.7,0-2.3
		c0-0.3,0-0.5,0-0.8c0,0.3,0.1,0.6,0,0.9c0,0.6,0,1.4,0,2.4c0,2.1,0.1,5,0.1,8.5l-0.1-0.1l8.5,7.4h-0.3l6.3-5.8l2.1-2l-0.1,0.2
		c0-4.2,0-8.2,0-11.8l0.2,0.2l-12.2,0.1h-4.4C220.2,264.4,220.1,264.4,220.1,264.4z"/>
	<path class="st6" d="M193.3,263.7c0.3,0,0.7,0,1,0l3.1,0.2l11.1,1h0.2v0.2c-0.4,3.5-0.9,7.5-1.4,11.7v0.1l-0.1,0.1l-2.5,2l-6,4.8
		l-0.2,0.2l-0.2-0.2l-6.6-8.4v-0.1v-0.1c0.5-3.5,0.9-6.5,1.2-8.6c0.1-1,0.2-1.7,0.3-2.3C193.2,264.1,193.3,263.9,193.3,263.7
		c0,0.3,0,0.5,0,0.8c-0.1,0.6-0.1,1.4-0.2,2.4c-0.2,2.1-0.5,5-0.9,8.5v-0.2l6.7,8.3h-0.3l6-4.8l2.5-2l-0.1,0.2
		c0.5-4.2,1-8.2,1.5-11.7l0.2,0.2l-10.9-1.2l-3.1-0.4C193.7,263.7,193.3,263.7,193.3,263.7z"/>
	<path class="st6" d="M228.1,291.1c-0.9-0.4-1.8-0.8-2.6-1.3c-1.6-0.8-3.7-1.9-6.1-3.1s-4.6-2.2-6.2-3c-0.9-0.4-1.7-0.8-2.5-1.3
		c0.9,0.2,1.8,0.6,2.7,1c1.6,0.7,3.9,1.7,6.3,2.9s4.6,2.4,6.1,3.3C226.6,290,227.4,290.5,228.1,291.1z"/>
	<path class="st6" d="M227.4,295.5c-0.7-0.1-1.3-0.4-1.9-0.7c-3-1.6-5.4-4-7-7c-0.4-0.6-0.6-1.2-0.8-1.9c1.1,2,2.5,3.9,4.1,5.6
		C223.5,292.9,225.4,294.3,227.4,295.5z"/>
	<path class="st6" d="M243.5,347.6c0,0.3-0.1,0.6-0.2,0.9c-0.3,0.8-0.7,1.7-1.2,2.4c-3.2,5.2-9.4,7.8-15.3,6.5
		c-0.9-0.2-1.7-0.5-2.5-0.8c-0.3-0.1-0.6-0.3-0.9-0.5c1.1,0.4,2.3,0.7,3.5,0.9c5.8,1.1,11.7-1.4,15-6.3
		C242.4,349.8,243,348.7,243.5,347.6z"/>
	<path class="st6" d="M239.7,346.1c-0.7,0.5-1.4,0.8-2.2,1c-1.8,0.6-3.7,0.9-5.7,0.9c-1.9,0.1-3.8,0-5.7-0.3
		c-0.8-0.1-1.6-0.3-2.3-0.5c0-0.2,3.6,0.5,8,0.4c1.9-0.1,3.8-0.3,5.6-0.8C238.8,346.4,239.7,346,239.7,346.1z"/>
	<path class="st6" d="M197.4,347.2c-0.6,0.7-1.3,1.3-2,1.8c-3.5,2.6-7.7,4.1-12,4.5c-0.9,0.1-1.8,0.1-2.7-0.1
		c0.9-0.2,1.7-0.3,2.6-0.3c4.2-0.5,8.3-2,11.8-4.4C195.9,348.1,196.6,347.6,197.4,347.2z"/>
	<path class="st6" d="M192.4,347c-3.4,0.9-7,0.6-10.3-0.8c0-0.1,2.3,0.5,5.1,0.7S192.4,346.8,192.4,347z"/>
	<path class="st6" d="M215.1,285.7c-0.8,0.5-1.7,0.9-2.6,1.2c-2.1,0.8-4.3,1.3-6.6,1.7c-2.2,0.4-4.5,0.5-6.8,0.4
		c-0.9,0-1.9-0.1-2.8-0.3c0.9-0.1,1.9-0.1,2.8-0.1c4.5-0.1,8.9-0.8,13.2-2.1C213.3,286.2,214.2,285.9,215.1,285.7z"/>
	<path class="st6" d="M213.6,279.9c0.2,0,0.3,0.5,0.3,1s-0.1,1-0.2,1s-0.3-0.4-0.3-1S213.4,279.9,213.6,279.9z"/>
	<path class="st6" d="M213.6,275.9c0.1,0,0.3,0.5,0.2,1s-0.1,1-0.3,1s-0.3-0.5-0.3-1S213.4,275.9,213.6,275.9z"/>
	<path class="st6" d="M213.7,271.9c0.1,0,0.2,0.5,0.2,1s-0.2,1-0.3,1s-0.2-0.5-0.2-1S213.5,271.9,213.7,271.9z"/>
	<path class="st6" d="M213.8,267.9c0.1,0,0.2,0.5,0.2,1s-0.2,1-0.3,1s-0.2-0.5-0.2-1S213.7,267.9,213.8,267.9z"/>
	<path class="st6" d="M214.1,263.9c0.1,0,0.2,0.5,0.2,1s-0.2,1-0.3,1s-0.2-0.5-0.2-1S213.9,263.9,214.1,263.9z"/>
	<path class="st6" d="M214.4,259.9c0.2,0,0.2,0.5,0.2,1s-0.2,1-0.3,1s-0.2-0.5-0.2-1S214.2,259.9,214.4,259.9z"/>
	<path class="st6" d="M214.7,256.6c0.1,0,0.2,0.3,0.2,0.7s-0.2,0.6-0.3,0.6s-0.2-0.3-0.2-0.7S214.5,256.6,214.7,256.6z"/>
	<path class="st6" d="M182.5,429c0.1,0,0.2,0.5,0.1,1s-0.3,1-0.5,0.9s-0.2-0.5-0.1-1S182.4,429,182.5,429z"/>
	<path class="st6" d="M183.3,425.1c0.1,0,0.2,0.5,0.1,1s-0.3,1-0.5,0.9s-0.2-0.5-0.1-1S183.2,425,183.3,425.1z"/>
	<path class="st6" d="M184.1,421.2c0.1,0,0.2,0.5,0.1,1s-0.3,1-0.5,0.9s-0.2-0.5-0.1-1S183.9,421.1,184.1,421.2z"/>
	<path class="st6" d="M184.9,417.2c0.1,0,0.2,0.5,0.1,1s-0.3,1-0.5,0.9s-0.2-0.5,0-1S184.7,417.2,184.9,417.2z"/>
	<path class="st6" d="M185.7,413.3c0.1,0,0.2,0.5,0.1,1s-0.3,1-0.5,0.9s-0.2-0.5-0.1-1S185.5,413.3,185.7,413.3z"/>
	<path class="st6" d="M186.4,409.4c0.1,0,0.2,0.5,0.1,1s-0.3,1-0.5,0.9s-0.2-0.5-0.1-1S186.3,409.3,186.4,409.4z"/>
	<path class="st6" d="M187.2,405.5c0.1,0,0.2,0.5,0.1,1s-0.3,1-0.5,0.9s-0.2-0.5-0.1-1S187.1,405.4,187.2,405.5z"/>
	<path class="st6" d="M188.1,401.5c0.1,0,0.2,0.5,0,1s-0.3,1-0.5,0.9s-0.2-0.5-0.1-1S187.9,401.5,188.1,401.5z"/>
	<path class="st7" d="M312,128.9h31.6c1.9,0,3.5,1.6,3.5,3.5v32.4c0,1.9-1.6,3.5-3.5,3.5H286c-1.9,0-3.5-1.6-3.5-3.5v-17v-15.4v-7
		c0-2.2,1.8-4,4-4H308c2.2,0,4,1.8,4,4V128.9L312,128.9z"/>
	<path class="st6" d="M188.8,397.6c0.1,0,0.2,0.5,0.1,1s-0.3,1-0.5,0.9s-0.2-0.5-0.1-1S188.7,397.6,188.8,397.6z"/>
	<path class="st6" d="M189.6,393.7c0.2,0,0.2,0.5,0.1,1s-0.3,1-0.5,0.9s-0.2-0.5-0.1-1S189.4,393.7,189.6,393.7z"/>
	<path class="st6" d="M190.4,389.8c0.1,0,0.2,0.5,0.1,1s-0.3,1-0.5,0.9s-0.2-0.5-0.1-1S190.2,389.7,190.4,389.8z"/>
	<path class="st6" d="M191.1,385.9c0.1,0,0.2,0.5,0.1,1s-0.3,1-0.5,0.9s-0.2-0.5-0.1-1S191.1,385.8,191.1,385.9z"/>
	<path class="st6" d="M191.9,381.9c0.1,0,0.2,0.5,0.1,1s-0.3,1-0.5,0.9s-0.2-0.5-0.1-1S191.8,381.9,191.9,381.9z"/>
	<path class="st6" d="M192.7,378c0.1,0,0.2,0.5,0.1,1s-0.3,1-0.5,0.9s-0.2-0.5-0.1-1S192.6,378,192.7,378z"/>
	<path class="st6" d="M193.5,374.1c0.1,0,0.2,0.5,0.1,1s-0.3,1-0.5,0.9s-0.2-0.5-0.1-1S193.4,374,193.5,374.1z"/>
	<path class="st6" d="M194.3,370.2c0.1,0,0.2,0.5,0.1,1s-0.3,1-0.5,0.9s-0.2-0.5-0.1-1S194.1,370.1,194.3,370.2z"/>
	<path class="st6" d="M195.1,366.2c0.1,0,0.2,0.5,0.1,1s-0.3,1-0.5,0.9s-0.2-0.5,0-1S194.9,366.2,195.1,366.2z"/>
	<path class="st6" d="M195.9,362.3c0.1,0,0.2,0.5,0.1,1s-0.3,1-0.5,0.9s-0.2-0.5-0.1-1S195.7,362.3,195.9,362.3z"/>
	<path class="st6" d="M196.6,358.4c0.1,0,0.2,0.5,0.1,1s-0.3,1-0.5,0.9s-0.2-0.5-0.1-1S196.5,358.4,196.6,358.4z"/>
	<path class="st6" d="M197.4,354.5c0.1,0,0.2,0.5,0.1,1s-0.3,1-0.5,0.9s-0.2-0.5-0.1-1S197.3,354.4,197.4,354.5z"/>
	<path class="st6" d="M198.2,350.5c0.1,0,0.2,0.5,0,1s-0.3,1-0.5,0.9s-0.2-0.5-0.1-1S198.1,350.5,198.2,350.5z"/>
	<path class="st6" d="M199,346.6c0.1,0,0.2,0.5,0.1,1s-0.3,1-0.5,0.9s-0.2-0.5-0.1-1S198.9,346.6,199,346.6z"/>
	<path class="st6" d="M199.8,342.7c0.2,0,0.2,0.5,0.1,1s-0.3,1-0.5,0.9s-0.2-0.5-0.1-1S199.6,342.7,199.8,342.7z"/>
	<path class="st6" d="M200.6,338.8c0.1,0,0.2,0.5,0.1,1s-0.3,1-0.5,0.9s-0.2-0.5-0.1-1S200.4,338.8,200.6,338.8z"/>
	<path class="st6" d="M201.3,334.9c0.2,0,0.2,0.5,0.1,1s-0.3,1-0.5,0.9s-0.2-0.5-0.1-1S201.2,334.8,201.3,334.9z"/>
	<path class="st6" d="M202.1,330.9c0.1,0,0.2,0.5,0.1,1s-0.3,1-0.5,0.9s-0.2-0.5-0.1-1S202,330.9,202.1,330.9z"/>
	<path class="st6" d="M202.9,327c0.1,0,0.2,0.5,0.1,1s-0.3,1-0.5,0.9s-0.2-0.5-0.1-1S202.8,327,202.9,327z"/>
	<path class="st6" d="M203.7,323.1c0.1,0,0.2,0.5,0.1,1s-0.3,1-0.5,0.9s-0.2-0.5-0.1-1S203.6,323.1,203.7,323.1z"/>
	<path class="st6" d="M204.5,319.2c0.1,0,0.2,0.5,0.1,1s-0.3,1-0.5,0.9s-0.2-0.5-0.1-1S204.3,319.1,204.5,319.2z"/>
	<path class="st6" d="M205.3,315.2c0.1,0,0.2,0.5,0.1,1s-0.3,1-0.5,0.9s-0.2-0.5-0.1-1S205.1,315.2,205.3,315.2z"/>
	<path class="st6" d="M206.1,311.3c0.1,0,0.2,0.5,0.1,1s-0.3,1-0.5,0.9s-0.2-0.5-0.1-1S205.9,311.3,206.1,311.3z"/>
	<path class="st6" d="M206.8,307.4c0.1,0,0.2,0.5,0.1,1s-0.3,1-0.5,0.9s-0.2-0.5,0-1S206.7,307.4,206.8,307.4z"/>
	<path class="st6" d="M207.6,303.5c0.1,0,0.2,0.5,0.1,1s-0.3,1-0.5,0.9s-0.2-0.5-0.1-1S207.5,303.5,207.6,303.5z"/>
	<path class="st6" d="M208.4,299.6c0.1,0,0.2,0.5,0.1,1s-0.3,1-0.5,0.9s-0.2-0.5-0.1-1S208.3,299.5,208.4,299.6z"/>
	<path class="st6" d="M209.2,295.6c0.1,0,0.2,0.5,0.1,1s-0.3,1-0.5,0.9s-0.2-0.5-0.1-1S209.1,295.6,209.2,295.6z"/>
	<path class="st6" d="M210,291.7c0.1,0,0.2,0.5,0,1s-0.3,1-0.5,0.9s-0.2-0.5-0.1-1S209.8,291.7,210,291.7z"/>
	<path class="st6" d="M210.8,287.8c0.1,0,0.2,0.5,0.1,1s-0.3,1-0.5,0.9s-0.2-0.5-0.1-1S210.6,287.8,210.8,287.8z"/>
	<path class="st8" d="M289.2,166.8c0,0,6.7-10,6.8-10.1l0,0c0,0,6-10.1,8-10.1s1.3,2.1-0.8,5.7c-1,1.6-1.7,3.3-2,5.2l4.9,3
		c0,0,3.3-1.3,3.4,1.8c0,1.4-0.2,2.8-0.6,4.2c-0.2,1.1-0.7,2.3-1.7,1.9c-0.5-0.2-0.9-0.7-0.9-1.2c-0.1-1.8,0.3-2.5,0-2.5
		s-3.5,9.5-3.5,9.5L289.2,166.8z"/>
	<path class="st8" d="M302.6,159c0.5-0.4,1-0.7,1.6-1c0.6-0.3,1.2-0.4,1.8-0.3c0.8,0.1,1.4,0.8,1.3,1.6c0,0.2-0.1,0.3-0.1,0.5
		c-0.2,0.5-0.5,1-0.8,1.4"/>
	<path class="st8" d="M300.4,157c0.5-0.3,1-0.6,1.5-0.9c0.5-0.3,1.1-0.3,1.7-0.3c0.4,0,0.7,0.2,1,0.5c0.3,0.4,0.4,1,0.2,1.4
		c-0.4,0.7-1,1.4-1.5,2"/>
	<path class="st8" d="M291.5,161.2l-9.6,20.6l10.6,10.8l5.6-15.3c0,0,3,0.6,4.2-1.4c1.3-2.2,3.1-8.5,3.1-8.5L291.5,161.2z"/>
	<path class="st8" d="M298.4,160.6c0.1-1,0.5-2,1.1-2.8c0.4-0.6,1-1.1,1.7-1.5c0.5-0.3,0.8-0.4,0.9-0.3s-1.2,0.8-2.1,2.1
		S298.5,160.7,298.4,160.6z"/>
	<path class="st8" d="M309.1,160.7c0,0.1-0.4-0.1-0.9-0.2c-0.7-0.1-1.5,0-2.1,0.3c-0.6,0.4-1.2,0.9-1.6,1.5
		c-0.3,0.5-0.6,0.8-0.6,0.8s0-0.4,0.3-0.9c0.3-0.8,0.9-1.4,1.6-1.8c0.8-0.4,1.6-0.5,2.5-0.2C308.8,160.4,309.1,160.7,309.1,160.7z"
		/>
	<path class="st8" d="M305.5,157.8c-0.8,0.4-1.5,0.8-2.3,1.3c-1.1,1-1.6,2.1-1.8,2c0.1-1,0.6-1.8,1.4-2.4c0.5-0.4,1.1-0.8,1.8-0.9
		C305.2,157.7,305.5,157.8,305.5,157.8z"/>
	<path class="st8" d="M307.8,162.3c0.1,0,0.4,0.7-0.1,1.5s-1.3,0.9-1.3,0.8s0.5-0.4,0.9-1S307.7,162.3,307.8,162.3z"/>
	<path class="st8" d="M289.2,166.4c0,0-0.3-6.1,1.2-7.5s5.7,0.1,5.7,0.1"/>
	<path class="st8" d="M296.7,156c-0.6,1.3-1.3,2.4-2.2,3.5c-0.7,1.2-1.6,2.2-2.6,3.2C293.2,160.3,294.8,158,296.7,156z"/>
	<path class="st8" d="M193.1,161.6c0.2-0.8,0.3-1.8,0.6-2.9c0.2-1,0.7-1.9,1.2-2.7c0.6-1.1,1.4-2,2.3-2.8c0.5-0.3,0.7-1,0.4-1.6
		c-0.2-0.3-0.5-0.5-0.9-0.5c-1,0-3.6,1.8-5.3,5s-2.8-2.5-3.2-4.5s-2-8.4-2.7-8.7c-1.1-0.6-1.9,0.5-1.4,2.5s1.4,8.3,0.3,8.4
		s-3-10.3-3-10.3s-0.1-2.3-1.3-2.2c-2.3,0.3,0.6,11.3,0.9,12.3c0.2,0.7-1,1-1.2,0.2s-1.7-10.5-4.1-10.2c-1.8,0.2,2.3,9.1,1.5,11.2
		s-2.4-7-4.1-6.8c-0.6,0.1-1.1,0.2,0.6,5.4c0.8,2.5,4,14.2,4,14.2l-1.8,9.6l14.6,3.7L193.1,161.6z"/>
	<path class="st8" d="M211.5,109.5l-0.2,47.9l20.6,1l0.6-11.6c0,0,7.3,1.4,9.2-5.3c1.2-4.3,0.9-37.8,0.9-37.8L211.5,109.5z"/>
	<path class="st3" d="M245.3,107c-3.2,0.9-4,6.2-4,6.2l-5.1,11.2c-2.6-2-6.1-1.9-6.7,2.6c-0.5,3.3,3.6,3.9,3.6,3.9
		c-2.4,4-4,7.3-7.5,11.2c-3.7,4.2-5.8,4.6-9.9,4.6h-4.5c0,0-2.2-7.1-6.2-24.9c-4.5-19.8,18.8-17.2,23.2-22.2
		C235.3,91.4,255.5,104,245.3,107z"/>
	<path class="st3" d="M205.5,123.7c-3.8-2.6-4.1-9.7-1.9-13.9c2.3-4.3,6.8-7.1,11.7-7.2c0.6,0,1.3,0,1.9-0.2c0.8-0.5,1.5-1.1,2-1.9
		c3.4-4.4,6.7-8.7,13-8.7c1.4-0.1,2.8,0.3,4,1c1.1,0.8,2,1.9,2.4,3.2c1.2-0.6,2.4-1.1,3.7-1.3c1.3-0.3,2.7,0.1,3.7,0.9
		c1,0.9,1.3,2.4,0.6,3.6c2.2,0,4.1,1.6,4.5,3.7c0.3,2.1-2.7,3.6-3,3.7c0,0,1.7,3.5-2.3,5.5c-1.6,0.8-3.7-0.2-3.9-0.3"/>
	<path class="st6" d="M220.5,128.3c0.3,1.2,0.2,2.5-0.1,3.6c-0.2,1.2-0.7,2.4-1.5,3.3c-0.1-0.1,0.5-1.5,1-3.4
		S220.4,128.4,220.5,128.3z"/>
	<path class="st6" d="M223.1,126c0.2,1.2,0.1,2.4-0.2,3.5c-0.1,1.2-0.5,2.3-1.1,3.3c0.1-1.2,0.3-2.3,0.6-3.4
		C222.5,128.3,222.7,127.1,223.1,126z"/>
	<path class="st6" d="M230.1,118.1c0,0.1-0.5,0.5-1.3,1.4c-1,1.1-1.7,2.4-2.2,3.8c-0.5,1.4-0.9,2.8-1.2,4.3
		c-0.1,0.6-0.3,1.2-0.5,1.8c0-0.6,0-1.3,0.2-1.9c0.2-1.5,0.6-3,1.1-4.4c0.5-1.5,1.4-2.8,2.4-3.9C229,118.7,229.6,118.3,230.1,118.1z
		"/>
	<path class="st6" d="M233.1,112.7c0.1,0,0.3,0.5,0.4,1.3c0.3,2.2-0.3,4.4-1.6,6.2c-0.5,0.7-0.9,1-1,0.9c0.8-1.3,1.4-2.6,1.8-4.1
		C233,115.7,233.1,114.2,233.1,112.7z"/>
	<path class="st6" d="M208.5,124.7c-0.1,0.1-0.7-0.1-1.4-0.5s-1.2-0.8-1.2-0.9s0.7,0.1,1.4,0.5S208.6,124.5,208.5,124.7z"/>
	<path class="st6" d="M218.4,119.6c0.1,0.7-0.1,1.5-0.6,2.1c-0.6,1.1-1.5,1.6-1.6,1.5s0.5-0.8,1.1-1.8S218.3,119.5,218.4,119.6z"/>
	<path class="st6" d="M221.5,117.9c0,0.9-0.3,1.8-0.9,2.5c-0.8,1.2-1.9,1.9-1.9,1.8c0.5-0.7,1-1.4,1.5-2.1
		C220.5,119.3,221,118.6,221.5,117.9z"/>
	<path class="st6" d="M236.7,97.9c0,0-0.4-0.3-1.1-0.7c-1.1-0.6-2.2-0.9-3.4-0.9c-1.8,0-3.5,0.4-5,1.4c-1.8,1.2-3.3,2.8-4.3,4.8
		c-0.8,1.4-1.3,2.9-1.8,4.5l-0.1,0.3l-0.3-0.1c-1.4-0.7-3-1.1-4.6-1.2c-1.3,0-2.5,0.2-3.7,0.6c-1.1,0.4-2.1,0.9-3,1.5
		c0.2-0.2,0.4-0.4,0.7-0.6c0.7-0.5,1.5-0.9,2.3-1.2c2.8-1.1,6-0.9,8.7,0.5l-0.4,0.2c0.4-1.6,1-3.1,1.8-4.6c1-2,2.6-3.8,4.5-5
		c1.6-1,3.4-1.4,5.3-1.3c1.3,0.1,2.5,0.4,3.5,1.1c0.3,0.2,0.5,0.4,0.8,0.6C236.6,97.7,236.7,97.8,236.7,97.9z"/>
	<path class="st6" d="M247.5,100.4c0,0,0.6-0.1,1.2,0.5c0.3,0.4,0.5,1,0.5,1.5c-0.1,0.7-0.6,1.4-1.2,1.7c-0.8,0.4-1.6,0.6-2.5,0.3
		c-0.9-0.2-1.8-0.7-2.6-1.2c-0.8-0.6-1.6-1.2-2.5-1.7c-0.9-0.5-2-0.9-3-1.1c-2.1-0.4-4.2-0.2-6.2,0.4c-1.6,0.5-3.2,1.3-4.6,2.3
		c-1.3,1-2.5,2-3.7,3.1c0.2-0.4,0.5-0.7,0.8-1c0.8-0.9,1.7-1.7,2.6-2.4c1.4-1.1,3-1.9,4.7-2.5c2.1-0.7,4.3-0.9,6.4-0.5
		c1.1,0.2,2.2,0.6,3.2,1.1c0.9,0.5,1.7,1.1,2.5,1.8c0.7,0.6,1.5,1,2.4,1.2c0.7,0.2,1.5,0.1,2.2-0.2c0.6-0.3,1-0.8,1.1-1.4
		c0.1-0.5-0.1-1-0.3-1.3C248.3,100.8,247.9,100.5,247.5,100.4z"/>
	<path class="st0" d="M190.6,159.7l-25.1,44.9c-1.4,4-0.7,8.5,1.9,11.9l-0.5-0.7c2,2.5,5.1,4,8.3,4h0.5c4.3,0,8.1-2.5,9.8-6.5l5.9-9
		L190.6,159.7z"/>
	<path class="st0" d="M245.1,156.5c-4.9-2.5-9.8-3.1-15.1-3.2c-6.2-0.2-14.9-1-21.6-0.3c0,0-20.3-0.6-20.4,15.1l2.7,60.4l-4.3,25.9
		l60.8,1.8l-0.4-30.5c0.8-15.9-0.8-38.4-0.8-38.4c0.9-8.5,5.6-12.4,6.3-18C252.7,164.4,249.4,158.8,245.1,156.5z"/>
	<path class="st3" d="M227.9,229.3c-0.3,0.3-0.6,0.6-0.9,0.9c-0.9,0.7-1.8,1.3-2.8,1.9c-6.6,3.8-14.7,3.9-21.4,0.4
		c-1-0.5-1.9-1.1-2.8-1.8c-0.3-0.2-0.7-0.5-0.9-0.8c0.1-0.1,1.4,1.1,3.9,2.3c6.7,3.3,14.5,3.1,21-0.4
		C226.5,230.4,227.8,229.2,227.9,229.3z"/>
	<path class="st3" d="M188,168c0.1,0.2,0.1,0.4,0.1,0.6c0,0.5,0.1,1,0.1,1.7c0.1,1.5,0.2,3.7,0.3,6.3c0.2,5.4,0.5,12.7,0.9,20.7
		s0.7,15.4,0.9,20.7c0.1,2.6,0.2,4.7,0.3,6.3c0,0.7,0,1.3,0.1,1.7c0,0.2,0,0.4,0,0.6c-0.1-0.2-0.1-0.4-0.1-0.6c0-0.4-0.1-1-0.2-1.7
		c-0.1-1.5-0.3-3.6-0.5-6.3c-0.4-5.3-0.8-12.6-1.1-20.7s-0.6-15.4-0.7-20.7c0-2.6-0.1-4.7-0.1-6.3c0-0.7,0-1.3,0-1.7
		C188,168.5,188,168.2,188,168z"/>
	<path class="st0" d="M175.2,173.3c0,0-2.3,6.8-2.7,7.7c0,0-5.7,16.4-7.5,27.5l18.2-32.8C183.3,175.7,175.5,173.3,175.2,173.3z"/>
	<path class="st3" d="M184.2,171.3c-0.1,0.2-0.1,0.3-0.2,0.5l-0.7,1.3c-0.6,1.1-1.5,2.8-2.7,4.8c-2.3,4-5.8,9.3-9.3,15.4
		c-1.8,3-3.2,6-4.5,8.8c-1.2,2.4-1.8,5-1.8,7.7c0.1,1.8,0.6,3.6,1.4,5.2c0.6,1.1,1.1,1.6,1.1,1.7s-0.1-0.1-0.4-0.4
		c-0.3-0.4-0.6-0.8-0.9-1.2c-0.9-1.6-1.5-3.4-1.6-5.2c-0.1-2.7,0.5-5.5,1.7-7.9c1.3-2.8,2.8-5.8,4.5-8.9c3.5-6.1,7-11.4,9.4-15.3
		l2.8-4.7l0.8-1.3C184.1,171.4,184.2,171.3,184.2,171.3z"/>
	<path class="st0" d="M296.1,188.1l-14.1-9.2l-8.9,15.4c0,0-12.3-17.1-17.9-27.1c-5.2-9.2-11.8-11.7-15-12.4
		c-0.8-0.2-1.5,0.3-1.7,1.1c0,0.1,0,0.3,0,0.4l4.8,33.3c0.6,1.7,10.8,16.5,16.4,23.9c9.5,12.4,23.4,4.5,27.3-4.2
		C290.1,202.4,294.8,191.9,296.1,188.1z"/>
	<path class="st0" d="M277.2,208.1c-0.2-0.7-0.3-1.5-0.3-2.2c-0.1-1.8-0.3-3.5-0.7-5.2c-0.3-1.7-1-3.4-1.8-4.9
		c-0.7-1.2-1.2-1.8-1.2-1.9c0.6,0.4,1.1,1,1.5,1.7c1,1.5,1.6,3.2,2,5c0.3,1.8,0.5,3.5,0.5,5.3C277.3,206.7,277.3,207.4,277.2,208.1z
		"/>
	<path class="st0" d="M281.3,201.3c-0.1,0-0.2-0.7-0.5-1.8c-0.5-1.4-1.2-2.7-2.2-3.8c-0.9-1.1-2.3-1.9-3.8-2c-0.6,0-1.2,0.1-1.7,0.4
		c0.5-0.5,1.1-0.7,1.8-0.7c1.6,0.1,3.1,0.8,4.1,2.1c1.1,1.1,1.8,2.5,2.2,4C281.4,200,281.4,200.6,281.3,201.3z"/>
	<path class="st0" d="M239.3,158.8c0,0-0.1,0.1-0.3,0.4l-0.4,0.4l-0.5,0.6c-1.1,1.4-1.9,3-2.4,4.7c-0.7,2.6-0.9,5.2-0.5,7.9
		c0.2,1.6,0.6,3.1,1.2,4.5c0.6,1.5,1.5,3,2.3,4.5c3.5,6,7,11.3,9.6,15.1c1.3,1.8,2.3,3.3,3.1,4.4c0.4,0.5,0.8,1.1,1.1,1.6
		c0,0-0.1-0.1-0.4-0.4s-0.5-0.6-0.9-1.1c-0.8-1-1.9-2.5-3.2-4.4c-2.7-3.7-6.2-8.9-9.7-15c-0.8-1.5-1.6-3-2.3-4.6
		c-0.6-1.5-1-3-1.2-4.6c-0.4-2.7-0.1-5.4,0.7-8c0.5-1.7,1.4-3.4,2.6-4.8l0.6-0.6l0.5-0.4C239.1,158.9,239.2,158.8,239.3,158.8z"/>
	<g class="st4">
		<path d="M223.6,232c4.5-2,8-6.7,8.2-11.5c0.1-1.3-0.3-2.6-1.1-3.6c-1.3-1.3-3.6-1.1-5.2-0.2c-2.7,1.4-4.5,4.1-6.4,6.5
			s-4.3,4.8-7.4,5.1c-1.3,0-2.6-0.1-3.9-0.3c-1.3-0.2-2.6-0.1-3.9,0.5c-1.2,0.6-1.9,1.9-1.6,3.3c0,0,5.4,3.3,11,3
			C216.8,234.4,220.3,233.5,223.6,232z"/>
	</g>
	<path class="st3" d="M239.3,247.3c-0.1,0.1-0.3,0.1-0.4,0.2l-1.3,0.4c-0.5,0.2-1.2,0.4-2,0.6s-1.7,0.5-2.7,0.7
		c-2.4,0.6-4.8,1-7.2,1.3c-5.9,0.8-11.9,0.8-17.9,0c-2.4-0.3-4.8-0.7-7.2-1.3c-1-0.2-1.9-0.5-2.7-0.7s-1.5-0.4-2-0.6l-1.3-0.4
		c-0.2,0-0.3-0.1-0.4-0.2c0.2,0,0.3,0,0.5,0.1l1.3,0.3c0.5,0.2,1.2,0.4,2,0.5s1.7,0.4,2.7,0.6c2,0.4,4.5,0.8,7.2,1.2
		c2.9,0.3,5.9,0.5,8.9,0.5c3,0,5.9-0.2,8.9-0.5c2.7-0.3,5.2-0.8,7.2-1.2c1-0.2,1.9-0.4,2.7-0.6s1.5-0.4,2-0.5l1.3-0.4
		C239,247.3,239.1,247.3,239.3,247.3z"/>
	<path class="st0" d="M441.4,350.9c-4.1-2.6-8.7-4.2-13.5-4.7c-2.2-0.2-4.6-0.2-6.4,1.2c-0.4,0.2-0.7,0.7-0.7,1.2
		c0.1,0.3,0.3,0.6,0.6,0.8C427.3,353.6,435,354.2,441.4,350.9"/>
	<path class="st0" d="M441,350.5c-3.1-2.3-6.1-4.9-8.8-7.7c-2.7-2.8-4.6-6.3-5.5-10.1c-0.4-1.1-0.2-2.4,0.4-3.4
		C434.2,334.7,439.7,341.8,441,350.5"/>
	<path class="st0" d="M441.3,350.8c-0.7-3.8-0.6-7.7,0.2-11.5c0.8-3.8,3-7.2,6.1-9.5c1.2,2.8,0.7,6.1-0.2,9
		c-1.3,4.6-3.4,8.9-6.1,12.8"/>
	<path class="st0" d="M448.2,363.1c-4.2,0.5-7.8,2.7-10.9,5.5c-3.1,2.8-5.3,6.6-6.2,10.7c4.1-0.2,7.5-3.1,10-6.3
		S445.3,366.2,448.2,363.1"/>
	<path class="st0" d="M449.6,365c-3.3-8.4-2.2-18,3.1-25.3C455.1,348.1,454.2,357.6,449.6,365"/>
	<path class="st0" d="M458.7,375.8c-7.8-0.5-15,3.7-18.5,10.7c-0.2,0.5-0.4,1-0.1,1.5c0.3,0.3,0.8,0.4,1.2,0.4
		c3.7-0.2,6.9-2.4,9.6-4.9S455.8,378,458.7,375.8"/>
	<path class="st0" d="M458.4,375.2c-1.9-6.3-2.1-13-0.3-19.3c0.7-2.5,1.8-5.1,4.1-6.3c0.2-0.1,0.4-0.2,0.6-0.1
		c0.2,0.1,0.3,0.3,0.4,0.5c0.8,1.7,1.1,3.6,1,5.5c-0.1,1.9-0.4,3.8-0.9,5.6c-0.7,3.4-1.1,7.1-3,10c-0.4,0.7-0.8,1.4-1.2,2.2
		c-0.4,0.8-0.4,1-0.7,1.6"/>
	<path class="st0" d="M482.3,378.8c-1.8-6.7,0.1-14.9,4.3-20.4c0.3-0.4,0.7-0.8,1.2-0.8c0.8,0.1,1,1.1,1,1.9
		C488.6,366.4,486.3,373.1,482.3,378.8"/>
	<path class="st0" d="M484.5,380.3c8.5,2,17.4,0.2,24.4-5c-4.1-2-8.8-2.6-13.2-1.6C491.2,374.6,487.2,376.6,484.5,380.3"/>
	<path class="st0" d="M486.3,375.8c4.6-7.5,13.4-12.4,22.1-12.8c-1,3.6-3.9,6.3-7.2,8c-3.4,1.5-7,2.6-10.6,3.1
		C489.1,374.3,487.2,374.6,486.3,375.8"/>
	<path class="st0" d="M482.8,354c1.4-4.2,2.3-8.6,2.8-13c0.5-4.4-0.5-8.9-2.6-12.8c-4.3,8.3-4.7,18-0.4,26.2"/>
	<path class="st0" d="M497.2,346.7c5-9.1,15.2-16.4,25.6-17.4C518.8,339.2,507.9,346.9,497.2,346.7"/>
	<path class="st0" d="M494,348.5c7.5,1.1,13.8,5.9,20.8,8.8c1.5,0.7,3.1,1,4.7,0.9c2,0,3.7-1.7,3.6-3.7c0-1.1-0.5-2.1-1.3-2.8
		c-1-0.9-2.2-1.6-3.4-2.1c-7.6-3.2-15.8-3.2-23.8-1.3"/>
	<path class="st0" d="M489.7,353.7c1.7,0.5,2.3,1.4,3.6,2.5c4.6,3.9,10,6.7,15.8,8.1c0.6,0.1,1.4,0.2,1.7-0.3s-0.1-1-0.4-1.5
		c-2.5-3-5.8-5.2-9.5-6.5c-3.6-1.4-6.8-3-11.2-2.6"/>
	<path class="st0" d="M484.8,322.1c6.2,5.7,14.5,8.5,22.9,7.8c0.4,0,0.7-0.1,1-0.4c0.6-0.6-0.1-1.6-0.8-2.1
		C501.2,322.1,493,320,484.8,322.1"/>
	<path class="st0" d="M490.6,320c8.2-6,18.8-7.8,28.6-4.7c-3.7,3.5-8.5,5.6-13.6,6C500.5,321.7,495.5,321.3,490.6,320"/>
	<path class="st0" d="M488.3,305.4c-0.7-6.7-0.2-12-0.7-18.8c0-0.5-0.2-1.2-0.7-1.4c-0.7-0.3-1.3,0.6-1.5,1.3
		c-2,6.3-0.9,13.2,2.9,18.7"/>
	<path class="st0" d="M487.8,306.2c4.4-2.8,8.2-6.5,11.1-10.8c2.2-3,4-6.6,3.5-10.3c-3.1,0.1-6,1.6-8,4c-1.9,2.4-3.3,5.2-4.1,8.2
		C489.5,300.3,488.9,303.3,487.8,306.2"/>
	<path class="st0" d="M498.8,303.1c10-3.7,19.3-9.2,27.4-16.1c-3.3-1.3-7-0.5-10.3,0.8c-7.4,2.8-13.6,8.3-17.2,15.3"/>
	<path class="st0" d="M490.9,309.9c5,0.7,10.2,0.7,15.2,0.1c4.9-0.8,9.6-2.8,14.2-4.7c0.4-0.1,0.8-0.4,1-0.7c0.1-0.4,0-0.9-0.3-1.2
		c-0.4-0.3-0.8-0.5-1.2-0.6c-5-1.4-10.4-0.7-15.3,0.9C499.7,305.2,495.2,307.3,490.9,309.9"/>
	<path class="st0" d="M462,322.3c-3.5-7-3.2-15.1-0.2-22.3c2.1,3.2,2.4,7.3,2,11.1s-1.5,7.7-1.6,11.5"/>
	<path class="st0" d="M448.2,315.4c-8.7-0.1-17.1,3.4-23.1,9.8c4.4,0.5,8.8-0.3,12.6-2.3c3.8-2,7.5-4.5,10.8-7.2"/>
	<path class="st0" d="M439,312.3c-4.2-0.3-8.3-0.9-12.3,0.4c-4.1,1.2-7.6,4.1-9.4,8c4,0.3,8-0.4,11.5-2.2
		C432.4,316.7,435.8,314.6,439,312.3"/>
	<path class="st0" d="M452.7,312.4c-3.8-2.5-7.7-5-12.1-6s-9.5-0.3-12.6,3c3.6,2.1,7.9,2.4,12,2.4s9.2,0,13.1,1.3"/>
	<path class="st0" d="M452.7,312.6c-6.5-6.4-8.9-17.8-6.3-26.5C451.5,293.9,453.7,303.3,452.7,312.6"/>
	<path class="st0" d="M470.5,294.6c1.2-2.8,2.1-5.8,3.2-8.7c1-2.9,2.5-5.6,4.5-8c2-2.4,4.9-3.9,8-4.2c-2,8.9-7.7,16.5-15.6,21"/>
	<path class="st0" d="M467.3,298.3c-2-2.8-4.4-6.6-7.1-8.6s-6.3-3.3-9.7-2.5C454.1,293.3,460.3,297.5,467.3,298.3"/>
	<path class="st0" d="M468,294.8c-1.5-3.3-2.5-6.8-3.2-10.4c-0.7-3.6-0.1-7.3,1.6-10.5c3.6,6.7,4.7,14,1.8,21"/>
	<path class="st0" d="M470.6,273.9c2-6.7,8.1-11.6,14.7-13.8c0.8-0.3,1.7-0.5,2.6-0.4c0.9,0.1,1.6,0.7,1.9,1.6
		c0.2,1.1-0.7,2.1-1.6,2.9C483,268.6,477,271.9,470.6,273.9"/>
	<path class="st0" d="M470.6,268.5c0.3-4.3,0.5-8.7,1.9-12.7s4.1-7.9,8-9.7c0.7,4.3-1.2,8.7-3.6,12.4s-5.1,7.3-6.5,11.4"/>
	<path class="st0" d="M470.5,271.4c-1.7-4.9-1.8-11-4.8-15.3c-2-3-5.3-5-7-8.1c-1.1,3-0.9,6.3,0.4,9.2c1.3,2.9,3.2,5.5,5.4,7.7
		C466.7,267.3,468.5,269,470.5,271.4"/>
	<path class="st3" d="M470.6,414.5c-0.1,0-0.2-32.4-0.2-72.4s0.1-72.4,0.2-72.4s0.2,32.4,0.2,72.4S470.7,414.5,470.6,414.5z"/>
	<path class="st3" d="M498.9,317.4c-0.4,0.2-0.8,0.3-1.2,0.5l-3.4,1.1c-2.8,1-6.7,2.4-10.9,4.1s-8.1,3.2-10.3,5.2
		c-0.9,0.7-1.6,1.7-2.1,2.8c-0.3,0.8-0.4,1.2-0.4,1.2s0-0.1,0-0.3c0.1-0.3,0.1-0.6,0.2-0.9c0.4-1.1,1.1-2.1,2-2.9
		c1.3-1.2,2.9-2.1,4.5-2.8c1.8-0.8,3.8-1.7,5.9-2.6c4.2-1.7,8.1-3.1,11-4c1.4-0.4,2.6-0.8,3.4-1C498,317.5,498.5,317.5,498.9,317.4z
		"/>
	<path class="st3" d="M508.2,294.6c-0.1,0.1-0.2,0.3-0.3,0.4l-1,1l-3.9,3.5L490,311c-5,4.5-9.4,8.8-12.4,12c-1.5,1.6-2.7,3-3.5,3.9
		l-0.9,1.1c-0.1,0.1-0.2,0.2-0.3,0.4c0,0,0.1-0.1,0.3-0.4s0.5-0.6,0.9-1.1c0.8-1,1.9-2.4,3.4-4c3.9-4.3,8-8.3,12.4-12.1
		c5.1-4.5,9.7-8.5,13-11.4l4-3.4l1.1-0.9C507.9,294.8,508,294.7,508.2,294.6z"/>
	<path class="st3" d="M484.6,315.6c-0.1,0,0.9-2.5,2-5.6s1.6-5.7,1.7-5.6c-0.1,2-0.5,3.9-1.2,5.8c-0.5,1.3-1,2.6-1.6,3.9
		C485.2,314.6,484.9,315.1,484.6,315.6z"/>
	<path class="st3" d="M470.6,335.2c-0.3-0.3-0.6-0.6-0.8-0.9l-2-2.5c-1.7-2.2-4-5.1-6.6-8.4s-5-6.2-6.7-8.3l-2-2.5
		c-0.3-0.3-0.5-0.6-0.7-1c0.3,0.2,0.6,0.5,0.8,0.8c0.5,0.6,1.2,1.4,2.2,2.4c1.8,2.1,4.2,5,6.8,8.2s4.9,6.3,6.5,8.5
		c0.8,1.1,1.5,2,1.9,2.6C470.2,334.5,470.4,334.8,470.6,335.2z"/>
	<path class="st3" d="M464.4,327.2c-1.3-1.4-2.2-3.1-2.6-4.9c-0.5-1.6-0.7-3.3-0.6-4.9h0.2c-0.1,0.4-0.2,0.6-0.2,0.6s0-0.2,0-0.6
		h0.2c0.1,1.6,0.4,3.2,0.8,4.8C462.8,323.9,463.5,325.6,464.4,327.2z"/>
	<path class="st3" d="M456.4,317.1c-0.6-0.4-1.2-0.8-1.8-1c-1.6-0.5-3.3-0.6-5-0.4c-1.7,0.1-3.4,0.4-5.1,0.8
		c-0.7,0.2-1.4,0.4-2.1,0.5c0.6-0.4,1.3-0.7,2-0.8c1.7-0.5,3.4-0.9,5.1-1c1.8-0.2,3.5,0,5.2,0.6C455.4,316,456,316.5,456.4,317.1z"
		/>
	<path class="st3" d="M454.5,314.7c0,0.1-1.1-0.4-2.8-1c-4.5-1.5-9.3-1.9-14-1.1c-1.8,0.3-2.9,0.6-2.9,0.6c0.2-0.1,0.5-0.3,0.7-0.3
		c0.7-0.2,1.4-0.4,2.1-0.6c4.7-1,9.7-0.7,14.2,1.1c0.7,0.3,1.4,0.6,2,0.9C454.1,314.4,454.3,314.5,454.5,314.7z"/>
	<path class="st3" d="M470.5,304.3c-0.8-2.3-1.5-4.6-2-7c-0.7-2.4-1.2-4.7-1.6-7.2c0.8,2.3,1.5,4.7,2,7.1
		C469.6,299.6,470.2,301.9,470.5,304.3z"/>
	<path class="st3" d="M470.7,304.3c-0.7-1.5-1.4-2.9-2.2-4.2c-1-1.3-2.1-2.4-3.3-3.4c0.5,0.1,0.9,0.3,1.3,0.7
		c0.9,0.7,1.8,1.5,2.4,2.5C469.8,301.2,470.4,302.7,470.7,304.3z"/>
	<path class="st3" d="M470.6,397.2c0,0-0.2-0.8-0.5-2.1c-0.5-1.9-1.3-3.8-2.2-5.6c-3.1-5.9-7-11.3-11.5-16.2
		c-2.6-2.9-5.1-5.7-7.2-8.3c-1.9-2.3-3.6-4.8-5.1-7.4c-1-1.8-1.9-3.6-2.6-5.5c-0.2-0.7-0.4-1.2-0.5-1.6c-0.1-0.2-0.1-0.4-0.1-0.6
		c0,0,0.3,0.7,0.8,2.1c0.8,1.9,1.7,3.7,2.7,5.4c1.5,2.5,3.3,5,5.2,7.3c2.1,2.6,4.6,5.4,7.2,8.3c5.2,5.8,9.3,11.7,11.4,16.4
		c0.9,1.8,1.5,3.7,2,5.7c0.2,0.7,0.2,1.2,0.3,1.6C470.5,396.9,470.6,397.1,470.6,397.2z"/>
	<path class="st3" d="M496.2,368.3c-0.4,0.3-0.9,0.5-1.3,0.8c-1.2,0.7-2.4,1.5-3.5,2.3c-1.6,1.3-3.2,2.7-4.6,4.2
		c-1.6,1.7-3.3,3.7-5,5.8c-3.4,4.2-6.5,8-8.4,11c-1,1.5-1.7,2.7-2.1,3.6c-0.2,0.5-0.5,0.9-0.7,1.4c0,0,0-0.1,0.1-0.4s0.2-0.6,0.5-1
		c0.6-1.3,1.3-2.5,2-3.7c2.6-3.9,5.4-7.6,8.4-11.2c1.7-2.1,3.4-4.1,5-5.8c1.4-1.5,3-2.9,4.7-4.1c1.1-0.8,2.3-1.6,3.6-2.2
		c0.5-0.2,0.8-0.4,1-0.5S496.2,368.3,496.2,368.3z"/>
	<path class="st3" d="M496.7,377.7c-0.9,0.2-1.9,0.3-2.8,0.4c-2.3,0.2-4.5,0.7-6.7,1.3c-2.2,0.7-4.2,1.8-6,3.2c-1.4,1.1-2,2-2.1,1.9
		c0.1-0.2,0.2-0.5,0.4-0.6c0.4-0.6,0.9-1.1,1.5-1.5c1.8-1.5,3.8-2.6,6.1-3.4c2.2-0.7,4.5-1.1,6.8-1.2
		C494.8,377.7,495.7,377.7,496.7,377.7z"/>
	<path class="st3" d="M479.8,383.5c-0.2-0.1,1.1-2,2.1-4.7s1.2-5,1.3-4.9c0.1,0.5,0.1,1,0,1.5c-0.1,1.2-0.4,2.4-0.8,3.6
		c-0.4,1.2-1,2.3-1.7,3.3C480.2,383.1,479.9,383.5,479.8,383.5z"/>
	<path class="st3" d="M504.5,343.2c-0.1,0.1-0.3,0.2-0.5,0.2l-1.3,0.6c-0.6,0.2-1.3,0.6-2.1,1s-1.7,0.8-2.7,1.4l-1.5,0.9
		c-0.5,0.3-1.1,0.7-1.6,1c-1.1,0.7-2.3,1.5-3.5,2.4c-2.6,2-5,4.1-7.3,6.4c-2.2,2.4-4.3,4.9-6.2,7.5c-0.8,1.2-1.6,2.4-2.3,3.6
		c-0.3,0.6-0.7,1.1-1,1.7l-0.8,1.6c-0.5,1-0.9,1.9-1.3,2.8s-0.7,1.5-0.9,2.1s-0.4,1-0.6,1.4c-0.1,0.2-0.1,0.3-0.2,0.5
		c0-0.2,0.1-0.3,0.1-0.5c0.1-0.4,0.3-0.8,0.5-1.4s0.5-1.3,0.8-2.2s0.7-1.8,1.3-2.8l0.8-1.6c0.3-0.5,0.6-1.1,1-1.7
		c0.7-1.2,1.5-2.4,2.3-3.6c1.9-2.7,3.9-5.2,6.2-7.6c2.3-2.3,4.8-4.5,7.4-6.5c1.2-0.9,2.4-1.7,3.5-2.4c0.6-0.4,1.1-0.7,1.7-1
		s1.1-0.6,1.6-0.9c1-0.6,1.9-1,2.8-1.4c0.7-0.3,1.4-0.7,2.1-0.9l1.4-0.5C504.1,343.2,504.3,343.2,504.5,343.2z"/>
	<path class="st3" d="M484.2,356.7c0.2-0.7,0.6-1.2,1.1-1.7c1.2-1.1,2.8-1.7,4.5-1.7c1.6,0,3.2,0.3,4.7,0.9c0.6,0.2,1.2,0.5,1.8,0.9
		c-0.6-0.1-1.3-0.3-1.9-0.5c-1.5-0.5-3-0.8-4.6-0.8c-1.6,0-3.1,0.6-4.3,1.5C485.1,355.8,484.6,356.2,484.2,356.7z"/>
	<path class="st3" d="M481.2,359.9c1.4-2.6,1.7-5.6,1-8.5c0.3,0.4,0.4,0.8,0.5,1.2c0.3,1,0.4,2.1,0.2,3.2c-0.1,1.1-0.5,2.1-1,3
		C481.6,359.5,481.2,359.9,481.2,359.9z"/>
	<path class="st6" d="M448.2,401.9c0.7,12.4,4.4,25,10.2,37.7h25c5.5-12.6,9-25.2,9.6-37.7H448.2z"/>
	<path class="st9" d="M488.9,421.9c0,0.1-8.2,0.2-18.4,0.2s-18.4-0.1-18.4-0.2s8.2-0.2,18.4-0.2S488.9,421.8,488.9,421.9z"/>
	<path class="st9" d="M488.3,426.4c0,0.1-7.7,0.2-17.2,0.2s-17.2-0.1-17.2-0.2s7.7-0.2,17.2-0.2S488.3,426.3,488.3,426.4z"/>
	<g>
		<g class="st10">
			<rect x="378.9" y="165.1" class="st2" width="189.7" height="38.3"/>
			<rect x="379" y="165.1" class="st11" width="189.5" height="38.2"/>
			<rect x="379.1" y="165.1" class="st12" width="189.3" height="38"/>
			<rect x="379.2" y="165.1" class="st13" width="189.2" height="37.9"/>
			<rect x="379.3" y="165.1" class="st14" width="189" height="37.7"/>
			<rect x="379.3" y="165.1" class="st9" width="188.8" height="37.6"/>
			<rect x="379.4" y="165.1" class="st15" width="188.7" height="37.4"/>
			<rect x="379.5" y="165.1" class="st16" width="188.5" height="37.3"/>
			<rect x="379.6" y="165.1" class="st17" width="188.3" height="37.1"/>
			<rect x="379.7" y="165.1" class="st18" width="188.2" height="37"/>
			<rect x="379.8" y="165.1" class="st19" width="188" height="36.8"/>
			<rect x="379.9" y="165.1" class="st20" width="187.8" height="36.7"/>
			<rect x="380" y="165.1" class="st21" width="187.7" height="36.5"/>
			<rect x="380" y="165.1" class="st22" width="187.5" height="36.4"/>
			<rect x="380.1" y="165.1" class="st23" width="187.3" height="36.2"/>
			<rect x="380.2" y="165.1" class="st24" width="187.2" height="36.1"/>
			<rect x="380.3" y="165.1" class="st25" width="187" height="35.9"/>
			<rect x="380.4" y="165.1" class="st26" width="186.8" height="35.8"/>
			<rect x="380.5" y="165.1" class="st27" width="186.7" height="35.6"/>
			<rect x="380.6" y="165.1" class="st28" width="186.5" height="35.5"/>
			<rect x="380.6" y="165.1" class="st29" width="186.3" height="35.3"/>
			<rect x="380.7" y="165.1" class="st30" width="186.2" height="35.2"/>
			<rect x="380.8" y="165.1" class="st31" width="186" height="35"/>
			<rect x="380.9" y="165.1" class="st32" width="185.8" height="34.9"/>
			<rect x="381" y="165.1" class="st33" width="185.7" height="34.7"/>
			<rect x="381.1" y="165.1" class="st34" width="185.5" height="34.6"/>
			<rect x="381.2" y="165.1" class="st35" width="185.3" height="34.4"/>
			<rect x="381.2" y="165.1" class="st36" width="185.2" height="34.3"/>
			<rect x="381.3" y="165.1" class="st37" width="185" height="34.1"/>
			<rect x="381.4" y="165.1" class="st38" width="184.9" height="34"/>
			<rect x="381.5" y="165.1" class="st39" width="184.7" height="33.8"/>
			<rect x="381.6" y="165.1" class="st40" width="184.5" height="33.7"/>
			<rect x="381.7" y="165.1" class="st41" width="184.4" height="33.5"/>
			<rect x="381.8" y="165.1" class="st42" width="184.2" height="33.4"/>
			<rect x="381.8" y="165.1" class="st43" width="184" height="33.2"/>
			<rect x="381.9" y="165.1" class="st44" width="183.9" height="33.1"/>
			<rect x="382" y="165.1" class="st45" width="183.7" height="32.9"/>
			<rect x="382.1" y="165.1" class="st46" width="183.5" height="32.8"/>
			<rect x="382.2" y="165.1" class="st47" width="183.4" height="32.6"/>
			<rect x="382.3" y="165.1" class="st48" width="183.2" height="32.5"/>
			<rect x="382.4" y="165.1" class="st49" width="183" height="32.4"/>
			<rect x="382.4" y="165.1" class="st50" width="182.9" height="32.2"/>
			<rect x="382.5" y="165.1" class="st51" width="182.7" height="32.1"/>
			<rect x="382.6" y="165.1" class="st52" width="182.5" height="31.9"/>
			<rect x="382.7" y="165.1" class="st53" width="182.4" height="31.8"/>
			<rect x="382.8" y="165.1" class="st54" width="182.2" height="31.6"/>
			<rect x="382.9" y="165.1" class="st55" width="182" height="31.5"/>
			<rect x="383" y="165.1" class="st56" width="181.9" height="31.3"/>
			<rect x="383" y="165.1" class="st57" width="181.7" height="31.2"/>
			<rect x="383.1" y="165.1" class="st58" width="181.5" height="31"/>
			<rect x="383.2" y="165.1" class="st59" width="181.4" height="30.9"/>
			<rect x="383.3" y="165.1" class="st60" width="181.2" height="30.7"/>
			<rect x="383.4" y="165.1" class="st61" width="181" height="30.6"/>
			<rect x="383.5" y="165.1" class="st62" width="180.9" height="30.4"/>
			<rect x="383.6" y="165.1" class="st63" width="180.7" height="30.3"/>
			<rect x="383.6" y="165.1" class="st64" width="180.5" height="30.1"/>
			<rect x="383.7" y="165.1" class="st65" width="180.4" height="30"/>
			<rect x="383.8" y="165.1" class="st66" width="180.2" height="29.8"/>
			<rect x="383.9" y="165.1" class="st67" width="180" height="29.7"/>
			<rect x="384" y="165.1" class="st68" width="179.9" height="29.5"/>
			<rect x="384.1" y="165.1" class="st69" width="179.7" height="29.4"/>
			<rect x="384.2" y="165.1" class="st70" width="179.5" height="29.2"/>
			<rect x="384.2" y="165.1" class="st71" width="179.4" height="29.1"/>
			<rect x="384.3" y="165.1" class="st72" width="179.2" height="28.9"/>
			<rect x="384.4" y="165.1" class="st73" width="179" height="28.8"/>
			<rect x="384.5" y="165.1" class="st74" width="178.9" height="28.6"/>
			<rect x="384.6" y="165.1" class="st75" width="178.7" height="28.5"/>
			<rect x="384.7" y="165.1" class="st76" width="178.5" height="28.3"/>
			<rect x="384.8" y="165.1" class="st77" width="178.4" height="28.2"/>
			<rect x="384.8" y="165.1" class="st78" width="178.2" height="28"/>
			<rect x="384.9" y="165.1" class="st79" width="178.1" height="27.9"/>
			<rect x="385" y="165.1" class="st80" width="177.9" height="27.7"/>
			<rect x="385.1" y="165.1" class="st81" width="177.7" height="27.6"/>
			<rect x="385.2" y="165.1" class="st82" width="177.6" height="27.4"/>
			<rect x="385.3" y="165.1" class="st83" width="177.4" height="27.3"/>
			<rect x="385.4" y="165.1" class="st84" width="177.2" height="27.1"/>
			<rect x="385.4" y="165.1" class="st85" width="177.1" height="27"/>
			<rect x="385.5" y="165.1" class="st86" width="176.9" height="26.8"/>
			<rect x="385.6" y="165.1" class="st87" width="176.7" height="26.7"/>
			<rect x="385.7" y="165.1" class="st88" width="176.6" height="26.5"/>
			<rect x="385.8" y="165.1" class="st89" width="176.4" height="26.4"/>
			<rect x="385.9" y="165.1" class="st90" width="176.2" height="26.2"/>
			<rect x="386" y="165.1" class="st91" width="176.1" height="26.1"/>
			<rect x="386" y="165.1" class="st92" width="175.9" height="25.9"/>
			<rect x="386.1" y="165.1" class="st93" width="175.7" height="25.8"/>
			<rect x="386.2" y="165.1" class="st94" width="175.6" height="25.6"/>
			<rect x="386.3" y="165.1" class="st95" width="175.4" height="25.5"/>
			<rect x="386.4" y="165.1" class="st96" width="175.2" height="25.3"/>
			<rect x="386.5" y="165.1" class="st97" width="175.1" height="25.2"/>
			<rect x="386.6" y="165.1" class="st98" width="174.9" height="25"/>
			<rect x="386.6" y="165.1" class="st99" width="174.7" height="24.9"/>
			<rect x="386.7" y="165.1" class="st100" width="174.6" height="24.7"/>
			<rect x="386.8" y="165.1" class="st101" width="174.4" height="24.6"/>
			<rect x="386.9" y="165.1" class="st102" width="174.2" height="24.4"/>
			<rect x="387" y="165.1" class="st103" width="174.1" height="24.3"/>
			<rect x="387.1" y="165.1" class="st104" width="173.9" height="24.1"/>
			<rect x="387.2" y="165.1" class="st105" width="173.7" height="24"/>
			<rect x="387.2" y="165.1" class="st106" width="173.6" height="23.8"/>
			<rect x="387.3" y="165.1" class="st107" width="173.4" height="23.7"/>
			<rect x="387.4" y="165.1" class="st108" width="173.2" height="23.5"/>
			<rect x="387.5" y="165.1" class="st109" width="173.1" height="23.4"/>
			<rect x="387.6" y="165.1" class="st110" width="172.9" height="23.2"/>
			<rect x="387.7" y="165.1" class="st111" width="172.7" height="23.1"/>
			<rect x="387.8" y="165.1" class="st112" width="172.6" height="22.9"/>
			<rect x="387.8" y="165.1" class="st113" width="172.4" height="22.8"/>
			<rect x="387.9" y="165.1" class="st114" width="172.2" height="22.6"/>
			<rect x="388" y="165.1" class="st115" width="172.1" height="22.5"/>
			<rect x="388.1" y="165.1" class="st116" width="171.9" height="22.3"/>
			<rect x="388.2" y="165.1" class="st117" width="171.7" height="22.2"/>
			<rect x="388.3" y="165.1" class="st118" width="171.6" height="22"/>
			<rect x="388.4" y="165.1" class="st119" width="171.4" height="21.9"/>
			<rect x="388.4" y="165.1" class="st120" width="171.2" height="21.7"/>
			<rect x="388.5" y="165.1" class="st121" width="171.1" height="21.6"/>
			<rect x="388.6" y="165.1" class="st122" width="170.9" height="21.4"/>
			<rect x="388.7" y="165.1" class="st123" width="170.8" height="21.3"/>
			<rect x="388.8" y="165.1" class="st124" width="170.6" height="21.1"/>
			<rect x="388.9" y="165.1" class="st125" width="170.4" height="21"/>
			<rect x="389" y="165.1" class="st126" width="170.3" height="20.8"/>
			<rect x="389.1" y="165.1" class="st127" width="170.1" height="20.7"/>
			<rect x="389.1" y="165.1" class="st128" width="169.9" height="20.5"/>
			<rect x="389.2" y="165.1" class="st129" width="169.8" height="20.4"/>
			<rect x="389.3" y="165.1" class="st130" width="169.6" height="20.2"/>
			<rect x="389.4" y="165.1" class="st131" width="169.4" height="20.1"/>
			<rect x="389.5" y="165.1" class="st132" width="169.3" height="19.9"/>
			<rect x="389.6" y="165.1" class="st133" width="169.1" height="19.8"/>
			<rect x="389.7" y="165.1" class="st134" width="168.9" height="19.6"/>
			<rect x="389.7" y="165.1" class="st135" width="168.8" height="19.5"/>
			<rect x="389.8" y="165.1" class="st136" width="168.6" height="19.3"/>
			<rect x="389.9" y="165.1" class="st137" width="168.4" height="19.2"/>
			<rect x="390" y="165.1" class="st138" width="168.3" height="19"/>
			<rect x="390.1" y="165.1" class="st139" width="168.1" height="18.9"/>
			<rect x="390.2" y="165.1" class="st140" width="167.9" height="18.7"/>
			<rect x="390.3" y="165.1" class="st141" width="167.8" height="18.6"/>
			<rect x="390.3" y="165.1" class="st142" width="167.6" height="18.4"/>
			<rect x="390.4" y="165.1" class="st143" width="167.4" height="18.3"/>
			<rect x="390.5" y="165.1" class="st144" width="167.3" height="18.1"/>
			<rect x="390.6" y="165.1" class="st145" width="167.1" height="18"/>
			<rect x="390.7" y="165.1" class="st146" width="166.9" height="17.8"/>
			<rect x="390.8" y="165.1" class="st147" width="166.8" height="17.7"/>
			<rect x="390.9" y="165.1" class="st148" width="166.6" height="17.5"/>
			<rect x="390.9" y="165.1" class="st149" width="166.4" height="17.4"/>
			<rect x="391" y="165.1" class="st150" width="166.3" height="17.3"/>
			<rect x="391.1" y="165.1" class="st151" width="166.1" height="17.1"/>
			<rect x="391.2" y="165.1" class="st152" width="165.9" height="17"/>
			<rect x="391.3" y="165.1" class="st153" width="165.8" height="16.8"/>
			<rect x="391.4" y="165.1" class="st154" width="165.6" height="16.7"/>
			<rect x="391.5" y="165.1" class="st155" width="165.4" height="16.5"/>
			<rect x="391.5" y="165.1" class="st156" width="165.3" height="16.4"/>
			<rect x="391.6" y="165.1" class="st157" width="165.1" height="16.2"/>
			<rect x="391.7" y="165.1" class="st158" width="164.9" height="16.1"/>
			<rect x="391.8" y="165.1" class="st159" width="164.8" height="15.9"/>
			<rect x="391.9" y="165.1" class="st160" width="164.6" height="15.8"/>
			<rect x="392" y="165.1" class="st161" width="164.4" height="15.6"/>
			<rect x="392.1" y="165.1" class="st162" width="164.3" height="15.5"/>
			<rect x="392.1" y="165.1" class="st163" width="164.1" height="15.3"/>
			<rect x="392.2" y="165.1" class="st164" width="163.9" height="15.2"/>
			<rect x="392.3" y="165.1" class="st165" width="163.8" height="15"/>
			<rect x="392.4" y="165.1" class="st166" width="163.6" height="14.9"/>
			<rect x="392.5" y="165.1" class="st167" width="163.5" height="14.7"/>
			<rect x="392.6" y="165.1" class="st168" width="163.3" height="14.6"/>
			<rect x="392.7" y="165.1" class="st169" width="163.1" height="14.4"/>
			<rect x="392.7" y="165.1" class="st170" width="163" height="14.3"/>
			<rect x="392.8" y="165.1" class="st171" width="162.8" height="14.1"/>
			<rect x="392.9" y="165.1" class="st172" width="162.6" height="14"/>
			<rect x="393" y="165.1" class="st173" width="162.5" height="13.8"/>
			<rect x="393.1" y="165.1" class="st174" width="162.3" height="13.7"/>
			<rect x="393.2" y="165.1" class="st175" width="162.1" height="13.5"/>
			<rect x="393.3" y="165.1" class="st176" width="162" height="13.4"/>
			<rect x="393.3" y="165.1" class="st177" width="161.8" height="13.2"/>
			<rect x="393.4" y="165.1" class="st178" width="161.6" height="13.1"/>
			<rect x="393.5" y="165.1" class="st179" width="161.5" height="12.9"/>
			<rect x="393.6" y="165.1" class="st180" width="161.3" height="12.8"/>
			<rect x="393.7" y="165.1" class="st181" width="161.1" height="12.6"/>
			<rect x="393.8" y="165.1" class="st182" width="161" height="12.5"/>
			<rect x="393.9" y="165.1" class="st183" width="160.8" height="12.3"/>
			<rect x="393.9" y="165.1" class="st184" width="160.6" height="12.2"/>
			<rect x="394" y="165.1" class="st185" width="160.5" height="12"/>
			<rect x="394.1" y="165.1" class="st186" width="160.3" height="11.9"/>
			<rect x="394.2" y="165.1" class="st187" width="160.1" height="11.7"/>
			<rect x="394.3" y="165.1" class="st188" width="160" height="11.6"/>
			<rect x="394.4" y="165.1" class="st189" width="159.8" height="11.4"/>
			<rect x="394.5" y="165.1" class="st190" width="159.6" height="11.3"/>
			<rect x="394.5" y="165.1" class="st191" width="159.5" height="11.1"/>
			<rect x="394.6" y="165.1" class="st192" width="159.3" height="11"/>
			<rect x="394.7" y="165.1" class="st193" width="159.1" height="10.8"/>
			<rect x="394.8" y="165.1" class="st194" width="159" height="10.7"/>
			<rect x="394.9" y="165.1" class="st195" width="158.8" height="10.5"/>
			<rect x="395" y="165.1" class="st196" width="158.6" height="10.4"/>
			<rect x="395.1" y="165.1" class="st197" width="158.5" height="10.2"/>
			<rect x="395.1" y="165.1" class="st198" width="158.3" height="10.1"/>
			<rect x="395.2" y="165.1" class="st199" width="158.1" height="9.9"/>
			<rect x="395.3" y="165.1" class="st200" width="158" height="9.8"/>
			<rect x="395.4" y="165.1" class="st201" width="157.8" height="9.6"/>
			<rect x="395.5" y="165.1" class="st202" width="157.6" height="9.5"/>
			<rect x="395.6" y="165.1" class="st203" width="157.5" height="9.3"/>
			<rect x="395.7" y="165.1" class="st204" width="157.3" height="9.2"/>
			<rect x="395.7" y="165.1" class="st205" width="157.1" height="9"/>
		</g>
		<g class="st10">
			<path class="st2" d="M569.7,171.2c0,2.2-42.7,4.1-95.4,4.1c-52.7,0-95.4-1.8-95.4-4.1c0-2.2,42.7-4.1,95.4-4.1
				C527,167.1,569.7,168.9,569.7,171.2z"/>
			<path class="st11" d="M569.4,171.2c0,2.2-42.6,4-95.1,4c-52.5,0-95.1-1.8-95.1-4c0-2.2,42.6-4,95.1-4
				C526.8,167.1,569.4,168.9,569.4,171.2z"/>
			<path class="st12" d="M569.1,171.2c0,2.2-42.4,4-94.7,4c-52.3,0-94.8-1.8-94.8-4c0-2.2,42.4-4,94.8-4
				C526.7,167.1,569.1,168.9,569.1,171.2z"/>
			<path class="st13" d="M568.8,171.2c0,2.2-42.3,4-94.4,4c-52.1,0-94.4-1.8-94.4-4c0-2.2,42.3-4,94.4-4
				C526.5,167.1,568.8,168.9,568.8,171.2z"/>
			<path class="st14" d="M568.4,171.2c0,2.2-42.1,4-94.1,4c-52,0-94.1-1.8-94.1-4c0-2.2,42.1-4,94.1-4
				C526.3,167.2,568.4,169,568.4,171.2z"/>
			<path class="st9" d="M568.1,171.2c0,2.2-42,4-93.8,4c-51.8,0-93.8-1.8-93.8-4c0-2.2,42-4,93.8-4
				C526.1,167.2,568.1,169,568.1,171.2z"/>
			<path class="st15" d="M567.8,171.2c0,2.2-41.8,4-93.4,4c-51.6,0-93.4-1.8-93.4-4c0-2.2,41.8-4,93.4-4
				C525.9,167.2,567.8,169,567.8,171.2z"/>
			<path class="st16" d="M567.5,171.2c0,2.2-41.7,4-93.1,4c-51.4,0-93.1-1.8-93.1-4c0-2.2,41.7-4,93.1-4
				C525.8,167.2,567.5,169,567.5,171.2z"/>
			<path class="st17" d="M567.1,171.2c0,2.2-41.5,3.9-92.8,3.9c-51.2,0-92.8-1.8-92.8-3.9c0-2.2,41.5-3.9,92.8-3.9
				C525.6,167.2,567.1,169,567.1,171.2z"/>
			<path class="st18" d="M566.8,171.2c0,2.2-41.4,3.9-92.5,3.9c-51.1,0-92.5-1.8-92.5-3.9c0-2.2,41.4-3.9,92.5-3.9
				C525.4,167.2,566.8,169,566.8,171.2z"/>
			<path class="st19" d="M566.5,171.2c0,2.2-41.3,3.9-92.1,3.9c-50.9,0-92.1-1.8-92.1-3.9c0-2.2,41.3-3.9,92.1-3.9
				C525.2,167.2,566.5,169,566.5,171.2z"/>
			<path class="st20" d="M566.2,171.2c0,2.2-41.1,3.9-91.8,3.9c-50.7,0-91.8-1.7-91.8-3.9c0-2.2,41.1-3.9,91.8-3.9
				C525.1,167.3,566.2,169,566.2,171.2z"/>
			<path class="st21" d="M565.8,171.2c0,2.1-41,3.9-91.5,3.9c-50.5,0-91.5-1.7-91.5-3.9c0-2.1,41-3.9,91.5-3.9
				C524.9,167.3,565.8,169,565.8,171.2z"/>
			<path class="st22" d="M565.5,171.2c0,2.1-40.8,3.9-91.2,3.9c-50.3,0-91.2-1.7-91.2-3.9c0-2.1,40.8-3.9,91.2-3.9
				C524.7,167.3,565.5,169,565.5,171.2z"/>
			<path class="st23" d="M565.2,171.2c0,2.1-40.7,3.9-90.8,3.9c-50.2,0-90.8-1.7-90.8-3.9c0-2.1,40.7-3.9,90.8-3.9
				C524.5,167.3,565.2,169,565.2,171.2z"/>
			<path class="st24" d="M564.9,171.2c0,2.1-40.5,3.8-90.5,3.8c-50,0-90.5-1.7-90.5-3.8c0-2.1,40.5-3.8,90.5-3.8
				C524.3,167.3,564.9,169,564.9,171.2z"/>
			<path class="st25" d="M564.5,171.2c0,2.1-40.4,3.8-90.2,3.8c-49.8,0-90.2-1.7-90.2-3.8c0-2.1,40.4-3.8,90.2-3.8
				C524.2,167.3,564.5,169,564.5,171.2z"/>
			<path class="st26" d="M564.2,171.2c0,2.1-40.2,3.8-89.9,3.8c-49.6,0-89.9-1.7-89.9-3.8c0-2.1,40.2-3.8,89.9-3.8
				C524,167.3,564.2,169.1,564.2,171.2z"/>
			<path class="st27" d="M563.9,171.2c0,2.1-40.1,3.8-89.5,3.8c-49.4,0-89.5-1.7-89.5-3.8c0-2.1,40.1-3.8,89.5-3.8
				C523.8,167.4,563.9,169.1,563.9,171.2z"/>
			<path class="st28" d="M563.6,171.2c0,2.1-39.9,3.8-89.2,3.8c-49.3,0-89.2-1.7-89.2-3.8c0-2.1,39.9-3.8,89.2-3.8
				C523.6,167.4,563.6,169.1,563.6,171.2z"/>
			<path class="st29" d="M563.2,171.2c0,2.1-39.8,3.8-88.9,3.8c-49.1,0-88.9-1.7-88.9-3.8c0-2.1,39.8-3.8,88.9-3.8
				C523.5,167.4,563.2,169.1,563.2,171.2z"/>
			<path class="st30" d="M562.9,171.2c0,2.1-39.6,3.8-88.6,3.8c-48.9,0-88.6-1.7-88.6-3.8c0-2.1,39.6-3.8,88.6-3.8
				C523.3,167.4,562.9,169.1,562.9,171.2z"/>
			<path class="st31" d="M562.6,171.2c0,2.1-39.5,3.7-88.2,3.7c-48.7,0-88.2-1.7-88.2-3.7c0-2.1,39.5-3.7,88.2-3.7
				C523.1,167.4,562.6,169.1,562.6,171.2z"/>
			<path class="st32" d="M562.3,171.2c0,2.1-39.4,3.7-87.9,3.7c-48.5,0-87.9-1.7-87.9-3.7c0-2.1,39.4-3.7,87.9-3.7
				C522.9,167.4,562.3,169.1,562.3,171.2z"/>
			<path class="st33" d="M562,171.2c0,2.1-39.2,3.7-87.6,3.7c-48.4,0-87.6-1.7-87.6-3.7c0-2.1,39.2-3.7,87.6-3.7
				C522.7,167.4,562,169.1,562,171.2z"/>
			<path class="st34" d="M561.6,171.2c0,2-39.1,3.7-87.2,3.7c-48.2,0-87.2-1.7-87.2-3.7c0-2,39.1-3.7,87.2-3.7
				C522.6,167.5,561.6,169.1,561.6,171.2z"/>
			<path class="st35" d="M561.3,171.2c0,2-38.9,3.7-86.9,3.7c-48,0-86.9-1.7-86.9-3.7c0-2,38.9-3.7,86.9-3.7
				C522.4,167.5,561.3,169.1,561.3,171.2z"/>
			<path class="st36" d="M561,171.2c0,2-38.8,3.7-86.6,3.7c-47.8,0-86.6-1.6-86.6-3.7c0-2,38.8-3.7,86.6-3.7
				C522.2,167.5,561,169.1,561,171.2z"/>
			<path class="st37" d="M560.7,171.2c0,2-38.6,3.7-86.3,3.7c-47.6,0-86.3-1.6-86.3-3.7c0-2,38.6-3.7,86.3-3.7
				C522,167.5,560.7,169.1,560.7,171.2z"/>
			<path class="st38" d="M560.3,171.2c0,2-38.5,3.7-85.9,3.7c-47.5,0-85.9-1.6-85.9-3.7c0-2,38.5-3.7,85.9-3.7
				C521.9,167.5,560.3,169.1,560.3,171.2z"/>
			<path class="st39" d="M560,171.2c0,2-38.3,3.6-85.6,3.6c-47.3,0-85.6-1.6-85.6-3.6c0-2,38.3-3.6,85.6-3.6
				C521.7,167.5,560,169.2,560,171.2z"/>
			<path class="st40" d="M559.7,171.2c0,2-38.2,3.6-85.3,3.6c-47.1,0-85.3-1.6-85.3-3.6c0-2,38.2-3.6,85.3-3.6
				C521.5,167.5,559.7,169.2,559.7,171.2z"/>
			<path class="st41" d="M559.4,171.2c0,2-38,3.6-85,3.6c-46.9,0-85-1.6-85-3.6c0-2,38-3.6,85-3.6
				C521.3,167.6,559.4,169.2,559.4,171.2z"/>
			<path class="st42" d="M559,171.2c0,2-37.9,3.6-84.6,3.6c-46.7,0-84.6-1.6-84.6-3.6c0-2,37.9-3.6,84.6-3.6
				C521.1,167.6,559,169.2,559,171.2z"/>
			<path class="st43" d="M558.7,171.2c0,2-37.7,3.6-84.3,3.6c-46.6,0-84.3-1.6-84.3-3.6c0-2,37.7-3.6,84.3-3.6
				C521,167.6,558.7,169.2,558.7,171.2z"/>
			<path class="st44" d="M558.4,171.2c0,2-37.6,3.6-84,3.6c-46.4,0-84-1.6-84-3.6c0-2,37.6-3.6,84-3.6
				C520.8,167.6,558.4,169.2,558.4,171.2z"/>
			<path class="st45" d="M558.1,171.2c0,2-37.5,3.6-83.7,3.6c-46.2,0-83.7-1.6-83.7-3.6c0-2,37.5-3.6,83.7-3.6
				C520.6,167.6,558.1,169.2,558.1,171.2z"/>
			<path class="st46" d="M557.7,171.2c0,2-37.3,3.5-83.3,3.5c-46,0-83.3-1.6-83.3-3.5c0-2,37.3-3.5,83.3-3.5
				C520.4,167.6,557.7,169.2,557.7,171.2z"/>
			<path class="st47" d="M557.4,171.2c0,1.9-37.2,3.5-83,3.5c-45.8,0-83-1.6-83-3.5c0-1.9,37.2-3.5,83-3.5
				C520.3,167.6,557.4,169.2,557.4,171.2z"/>
			<path class="st48" d="M557.1,171.2c0,1.9-37,3.5-82.7,3.5c-45.7,0-82.7-1.6-82.7-3.5c0-1.9,37-3.5,82.7-3.5
				C520.1,167.6,557.1,169.2,557.1,171.2z"/>
			<path class="st49" d="M556.8,171.2c0,1.9-36.9,3.5-82.4,3.5c-45.5,0-82.4-1.6-82.4-3.5c0-1.9,36.9-3.5,82.4-3.5
				C519.9,167.7,556.8,169.2,556.8,171.2z"/>
			<path class="st50" d="M556.5,171.2c0,1.9-36.7,3.5-82,3.5c-45.3,0-82-1.6-82-3.5c0-1.9,36.7-3.5,82-3.5
				C519.7,167.7,556.5,169.2,556.5,171.2z"/>
			<path class="st51" d="M556.1,171.2c0,1.9-36.6,3.5-81.7,3.5c-45.1,0-81.7-1.6-81.7-3.5c0-1.9,36.6-3.5,81.7-3.5
				C519.5,167.7,556.1,169.2,556.1,171.2z"/>
			<path class="st52" d="M555.8,171.2c0,1.9-36.4,3.5-81.4,3.5c-44.9,0-81.4-1.5-81.4-3.5c0-1.9,36.4-3.5,81.4-3.5
				C519.4,167.7,555.8,169.3,555.8,171.2z"/>
			<path class="st53" d="M555.5,171.2c0,1.9-36.3,3.4-81.1,3.4c-44.8,0-81.1-1.5-81.1-3.4c0-1.9,36.3-3.4,81.1-3.4
				C519.2,167.7,555.5,169.3,555.5,171.2z"/>
			<path class="st54" d="M555.2,171.2c0,1.9-36.1,3.4-80.7,3.4c-44.6,0-80.7-1.5-80.7-3.4c0-1.9,36.1-3.4,80.7-3.4
				C519,167.7,555.2,169.3,555.2,171.2z"/>
			<path class="st55" d="M554.8,171.2c0,1.9-36,3.4-80.4,3.4c-44.4,0-80.4-1.5-80.4-3.4c0-1.9,36-3.4,80.4-3.4
				C518.8,167.7,554.8,169.3,554.8,171.2z"/>
			<path class="st56" d="M554.5,171.2c0,1.9-35.8,3.4-80.1,3.4c-44.2,0-80.1-1.5-80.1-3.4c0-1.9,35.8-3.4,80.1-3.4
				C518.7,167.8,554.5,169.3,554.5,171.2z"/>
			<path class="st57" d="M554.2,171.2c0,1.9-35.7,3.4-79.7,3.4c-44,0-79.7-1.5-79.7-3.4c0-1.9,35.7-3.4,79.7-3.4
				C518.5,167.8,554.2,169.3,554.2,171.2z"/>
			<path class="st58" d="M553.9,171.2c0,1.9-35.6,3.4-79.4,3.4c-43.9,0-79.4-1.5-79.4-3.4c0-1.9,35.6-3.4,79.4-3.4
				C518.3,167.8,553.9,169.3,553.9,171.2z"/>
			<path class="st59" d="M553.5,171.2c0,1.9-35.4,3.4-79.1,3.4c-43.7,0-79.1-1.5-79.1-3.4c0-1.9,35.4-3.4,79.1-3.4
				C518.1,167.8,553.5,169.3,553.5,171.2z"/>
			<path class="st60" d="M553.2,171.2c0,1.8-35.3,3.3-78.8,3.3c-43.5,0-78.8-1.5-78.8-3.3c0-1.8,35.3-3.3,78.8-3.3
				C517.9,167.8,553.2,169.3,553.2,171.2z"/>
			<path class="st61" d="M552.9,171.2c0,1.8-35.1,3.3-78.4,3.3c-43.3,0-78.4-1.5-78.4-3.3c0-1.8,35.1-3.3,78.4-3.3
				C517.8,167.8,552.9,169.3,552.9,171.2z"/>
			<path class="st62" d="M552.6,171.2c0,1.8-35,3.3-78.1,3.3c-43.1,0-78.1-1.5-78.1-3.3c0-1.8,35-3.3,78.1-3.3
				C517.6,167.8,552.6,169.3,552.6,171.2z"/>
			<path class="st63" d="M552.2,171.2c0,1.8-34.8,3.3-77.8,3.3c-43,0-77.8-1.5-77.8-3.3c0-1.8,34.8-3.3,77.8-3.3
				C517.4,167.9,552.2,169.3,552.2,171.2z"/>
			<path class="st64" d="M551.9,171.2c0,1.8-34.7,3.3-77.5,3.3c-42.8,0-77.5-1.5-77.5-3.3c0-1.8,34.7-3.3,77.5-3.3
				C517.2,167.9,551.9,169.3,551.9,171.2z"/>
			<path class="st65" d="M551.6,171.2c0,1.8-34.5,3.3-77.1,3.3c-42.6,0-77.1-1.5-77.1-3.3c0-1.8,34.5-3.3,77.1-3.3
				C517.1,167.9,551.6,169.4,551.6,171.2z"/>
			<path class="st66" d="M551.3,171.2c0,1.8-34.4,3.3-76.8,3.3c-42.4,0-76.8-1.5-76.8-3.3c0-1.8,34.4-3.3,76.8-3.3
				C516.9,167.9,551.3,169.4,551.3,171.2z"/>
			<path class="st67" d="M550.9,171.2c0,1.8-34.2,3.2-76.5,3.2c-42.2,0-76.5-1.5-76.5-3.2c0-1.8,34.2-3.2,76.5-3.2
				C516.7,167.9,550.9,169.4,550.9,171.2z"/>
			<path class="st68" d="M550.6,171.2c0,1.8-34.1,3.2-76.2,3.2c-42.1,0-76.2-1.4-76.2-3.2c0-1.8,34.1-3.2,76.2-3.2
				C516.5,167.9,550.6,169.4,550.6,171.2z"/>
			<path class="st69" d="M550.3,171.2c0,1.8-34,3.2-75.8,3.2c-41.9,0-75.8-1.4-75.8-3.2c0-1.8,34-3.2,75.8-3.2
				C516.3,167.9,550.3,169.4,550.3,171.2z"/>
			<path class="st70" d="M550,171.2c0,1.8-33.8,3.2-75.5,3.2c-41.7,0-75.5-1.4-75.5-3.2c0-1.8,33.8-3.2,75.5-3.2
				C516.2,168,550,169.4,550,171.2z"/>
			<path class="st71" d="M549.7,171.2c0,1.8-33.7,3.2-75.2,3.2c-41.5,0-75.2-1.4-75.2-3.2c0-1.8,33.7-3.2,75.2-3.2
				C516,168,549.7,169.4,549.7,171.2z"/>
			<path class="st72" d="M549.3,171.2c0,1.8-33.5,3.2-74.9,3.2c-41.3,0-74.9-1.4-74.9-3.2c0-1.8,33.5-3.2,74.9-3.2
				C515.8,168,549.3,169.4,549.3,171.2z"/>
			<path class="st73" d="M549,171.2c0,1.7-33.4,3.2-74.5,3.2c-41.2,0-74.5-1.4-74.5-3.2c0-1.7,33.4-3.2,74.5-3.2
				C515.6,168,549,169.4,549,171.2z"/>
			<path class="st74" d="M548.7,171.2c0,1.7-33.2,3.2-74.2,3.2c-41,0-74.2-1.4-74.2-3.2c0-1.7,33.2-3.2,74.2-3.2
				C515.5,168,548.7,169.4,548.7,171.2z"/>
			<path class="st75" d="M548.4,171.2c0,1.7-33.1,3.1-73.9,3.1c-40.8,0-73.9-1.4-73.9-3.1c0-1.7,33.1-3.1,73.9-3.1
				C515.3,168,548.4,169.4,548.4,171.2z"/>
			<path class="st76" d="M548,171.2c0,1.7-32.9,3.1-73.5,3.1c-40.6,0-73.5-1.4-73.5-3.1c0-1.7,32.9-3.1,73.5-3.1
				C515.1,168,548,169.4,548,171.2z"/>
			<path class="st77" d="M547.7,171.2c0,1.7-32.8,3.1-73.2,3.1c-40.4,0-73.2-1.4-73.2-3.1c0-1.7,32.8-3.1,73.2-3.1
				C514.9,168,547.7,169.4,547.7,171.2z"/>
			<path class="st78" d="M547.4,171.2c0,1.7-32.6,3.1-72.9,3.1c-40.3,0-72.9-1.4-72.9-3.1c0-1.7,32.6-3.1,72.9-3.1
				C514.7,168.1,547.4,169.4,547.4,171.2z"/>
			<path class="st79" d="M547.1,171.2c0,1.7-32.5,3.1-72.6,3.1c-40.1,0-72.6-1.4-72.6-3.1c0-1.7,32.5-3.1,72.6-3.1
				C514.6,168.1,547.1,169.5,547.1,171.2z"/>
			<path class="st80" d="M546.7,171.2c0,1.7-32.3,3.1-72.2,3.1c-39.9,0-72.2-1.4-72.2-3.1c0-1.7,32.3-3.1,72.2-3.1
				C514.4,168.1,546.7,169.5,546.7,171.2z"/>
			<path class="st81" d="M546.4,171.2c0,1.7-32.2,3.1-71.9,3.1c-39.7,0-71.9-1.4-71.9-3.1c0-1.7,32.2-3.1,71.9-3.1
				C514.2,168.1,546.4,169.5,546.4,171.2z"/>
			<path class="st82" d="M546.1,171.2c0,1.7-32.1,3-71.6,3c-39.5,0-71.6-1.4-71.6-3c0-1.7,32.1-3,71.6-3
				C514,168.1,546.1,169.5,546.1,171.2z"/>
			<path class="st83" d="M545.8,171.2c0,1.7-31.9,3-71.3,3c-39.4,0-71.3-1.4-71.3-3c0-1.7,31.9-3,71.3-3
				C513.9,168.1,545.8,169.5,545.8,171.2z"/>
			<path class="st84" d="M545.4,171.2c0,1.7-31.8,3-70.9,3c-39.2,0-70.9-1.3-70.9-3c0-1.7,31.8-3,70.9-3
				C513.7,168.1,545.4,169.5,545.4,171.2z"/>
			<path class="st85" d="M545.1,171.2c0,1.7-31.6,3-70.6,3c-39,0-70.6-1.3-70.6-3c0-1.7,31.6-3,70.6-3
				C513.5,168.2,545.1,169.5,545.1,171.2z"/>
			<path class="st86" d="M544.8,171.2c0,1.6-31.5,3-70.3,3c-38.8,0-70.3-1.3-70.3-3c0-1.6,31.5-3,70.3-3
				C513.3,168.2,544.8,169.5,544.8,171.2z"/>
			<path class="st87" d="M544.5,171.2c0,1.6-31.3,3-70,3c-38.6,0-70-1.3-70-3c0-1.6,31.3-3,70-3
				C513.2,168.2,544.5,169.5,544.5,171.2z"/>
			<path class="st88" d="M544.1,171.2c0,1.6-31.2,3-69.6,3c-38.5,0-69.6-1.3-69.6-3c0-1.6,31.2-3,69.6-3
				C513,168.2,544.1,169.5,544.1,171.2z"/>
			<path class="st89" d="M543.8,171.2c0,1.6-31,2.9-69.3,2.9c-38.3,0-69.3-1.3-69.3-2.9c0-1.6,31-2.9,69.3-2.9
				C512.8,168.2,543.8,169.5,543.8,171.2z"/>
			<path class="st90" d="M543.5,171.2c0,1.6-30.9,2.9-69,2.9c-38.1,0-69-1.3-69-2.9c0-1.6,30.9-2.9,69-2.9
				C512.6,168.2,543.5,169.5,543.5,171.2z"/>
			<path class="st91" d="M543.2,171.2c0,1.6-30.7,2.9-68.7,2.9c-37.9,0-68.7-1.3-68.7-2.9c0-1.6,30.7-2.9,68.7-2.9
				C512.4,168.2,543.2,169.5,543.2,171.2z"/>
			<path class="st92" d="M542.9,171.2c0,1.6-30.6,2.9-68.3,2.9c-37.7,0-68.3-1.3-68.3-2.9c0-1.6,30.6-2.9,68.3-2.9
				C512.3,168.3,542.9,169.6,542.9,171.2z"/>
			<path class="st93" d="M542.5,171.2c0,1.6-30.4,2.9-68,2.9c-37.6,0-68-1.3-68-2.9c0-1.6,30.4-2.9,68-2.9
				C512.1,168.3,542.5,169.6,542.5,171.2z"/>
			<path class="st94" d="M542.2,171.2c0,1.6-30.3,2.9-67.7,2.9c-37.4,0-67.7-1.3-67.7-2.9c0-1.6,30.3-2.9,67.7-2.9
				C511.9,168.3,542.2,169.6,542.2,171.2z"/>
			<path class="st95" d="M541.9,171.2c0,1.6-30.2,2.9-67.4,2.9c-37.2,0-67.4-1.3-67.4-2.9c0-1.6,30.2-2.9,67.4-2.9
				C511.7,168.3,541.9,169.6,541.9,171.2z"/>
			<path class="st96" d="M541.6,171.2c0,1.6-30,2.8-67,2.8c-37,0-67-1.3-67-2.8c0-1.6,30-2.8,67-2.8
				C511.6,168.3,541.6,169.6,541.6,171.2z"/>
			<path class="st97" d="M541.2,171.2c0,1.6-29.9,2.8-66.7,2.8c-36.8,0-66.7-1.3-66.7-2.8c0-1.6,29.9-2.8,66.7-2.8
				C511.4,168.3,541.2,169.6,541.2,171.2z"/>
			<path class="st98" d="M540.9,171.2c0,1.6-29.7,2.8-66.4,2.8c-36.7,0-66.4-1.3-66.4-2.8c0-1.6,29.7-2.8,66.4-2.8
				C511.2,168.3,540.9,169.6,540.9,171.2z"/>
			<path class="st99" d="M540.6,171.2c0,1.5-29.6,2.8-66,2.8c-36.5,0-66-1.3-66-2.8c0-1.5,29.6-2.8,66-2.8
				C511,168.4,540.6,169.6,540.6,171.2z"/>
			<path class="st100" d="M540.3,171.2c0,1.5-29.4,2.8-65.7,2.8c-36.3,0-65.7-1.3-65.7-2.8c0-1.5,29.4-2.8,65.7-2.8
				C510.8,168.4,540.3,169.6,540.3,171.2z"/>
			<path class="st101" d="M539.9,171.2c0,1.5-29.3,2.8-65.4,2.8c-36.1,0-65.4-1.2-65.4-2.8c0-1.5,29.3-2.8,65.4-2.8
				C510.7,168.4,539.9,169.6,539.9,171.2z"/>
			<path class="st102" d="M539.6,171.2c0,1.5-29.1,2.8-65.1,2.8c-35.9,0-65.1-1.2-65.1-2.8c0-1.5,29.1-2.8,65.1-2.8
				C510.5,168.4,539.6,169.6,539.6,171.2z"/>
			<path class="st103" d="M539.3,171.2c0,1.5-29,2.8-64.7,2.8c-35.8,0-64.7-1.2-64.7-2.8c0-1.5,29-2.8,64.7-2.8
				C510.3,168.4,539.3,169.6,539.3,171.2z"/>
			<path class="st104" d="M539,171.2c0,1.5-28.8,2.7-64.4,2.7c-35.6,0-64.4-1.2-64.4-2.7c0-1.5,28.8-2.7,64.4-2.7
				C510.1,168.4,539,169.6,539,171.2z"/>
			<path class="st105" d="M538.6,171.2c0,1.5-28.7,2.7-64.1,2.7c-35.4,0-64.1-1.2-64.1-2.7c0-1.5,28.7-2.7,64.1-2.7
				C510,168.4,538.6,169.7,538.6,171.2z"/>
			<path class="st106" d="M538.3,171.2c0,1.5-28.5,2.7-63.8,2.7c-35.2,0-63.8-1.2-63.8-2.7c0-1.5,28.5-2.7,63.8-2.7
				C509.8,168.5,538.3,169.7,538.3,171.2z"/>
			<path class="st107" d="M538,171.2c0,1.5-28.4,2.7-63.4,2.7c-35,0-63.4-1.2-63.4-2.7c0-1.5,28.4-2.7,63.4-2.7
				C509.6,168.5,538,169.7,538,171.2z"/>
			<path class="st108" d="M537.7,171.2c0,1.5-28.3,2.7-63.1,2.7c-34.9,0-63.1-1.2-63.1-2.7c0-1.5,28.3-2.7,63.1-2.7
				C509.4,168.5,537.7,169.7,537.7,171.2z"/>
			<path class="st109" d="M537.4,171.2c0,1.5-28.1,2.7-62.8,2.7c-34.7,0-62.8-1.2-62.8-2.7c0-1.5,28.1-2.7,62.8-2.7
				C509.2,168.5,537.4,169.7,537.4,171.2z"/>
			<path class="st110" d="M537,171.2c0,1.5-28,2.7-62.5,2.7c-34.5,0-62.5-1.2-62.5-2.7c0-1.5,28-2.7,62.5-2.7
				C509.1,168.5,537,169.7,537,171.2z"/>
			<path class="st111" d="M536.7,171.2c0,1.5-27.8,2.6-62.1,2.6c-34.3,0-62.1-1.2-62.1-2.6c0-1.5,27.8-2.6,62.1-2.6
				C508.9,168.5,536.7,169.7,536.7,171.2z"/>
			<path class="st112" d="M536.4,171.2c0,1.5-27.7,2.6-61.8,2.6c-34.1,0-61.8-1.2-61.8-2.6c0-1.4,27.7-2.6,61.8-2.6
				C508.7,168.5,536.4,169.7,536.4,171.2z"/>
			<path class="st113" d="M536.1,171.2c0,1.4-27.5,2.6-61.5,2.6c-34,0-61.5-1.2-61.5-2.6c0-1.4,27.5-2.6,61.5-2.6
				C508.5,168.5,536.1,169.7,536.1,171.2z"/>
			<path class="st114" d="M535.7,171.2c0,1.4-27.4,2.6-61.2,2.6c-33.8,0-61.2-1.2-61.2-2.6c0-1.4,27.4-2.6,61.2-2.6
				C508.4,168.6,535.7,169.7,535.7,171.2z"/>
			<path class="st115" d="M535.4,171.2c0,1.4-27.2,2.6-60.8,2.6c-33.6,0-60.8-1.2-60.8-2.6c0-1.4,27.2-2.6,60.8-2.6
				C508.2,168.6,535.4,169.7,535.4,171.2z"/>
			<path class="st116" d="M535.1,171.2c0,1.4-27.1,2.6-60.5,2.6c-33.4,0-60.5-1.2-60.5-2.6c0-1.4,27.1-2.6,60.5-2.6
				C508,168.6,535.1,169.7,535.1,171.2z"/>
			<path class="st117" d="M534.8,171.2c0,1.4-26.9,2.6-60.2,2.6c-33.2,0-60.2-1.1-60.2-2.6c0-1.4,26.9-2.6,60.2-2.6
				C507.8,168.6,534.8,169.7,534.8,171.2z"/>
			<path class="st118" d="M534.4,171.2c0,1.4-26.8,2.5-59.8,2.5c-33.1,0-59.8-1.1-59.8-2.5c0-1.4,26.8-2.5,59.8-2.5
				C507.6,168.6,534.4,169.8,534.4,171.2z"/>
			<path class="st119" d="M534.1,171.2c0,1.4-26.6,2.5-59.5,2.5c-32.9,0-59.5-1.1-59.5-2.5c0-1.4,26.6-2.5,59.5-2.5
				C507.5,168.6,534.1,169.8,534.1,171.2z"/>
			<path class="st120" d="M533.8,171.2c0,1.4-26.5,2.5-59.2,2.5c-32.7,0-59.2-1.1-59.2-2.5c0-1.4,26.5-2.5,59.2-2.5
				C507.3,168.6,533.8,169.8,533.8,171.2z"/>
			<path class="st121" d="M533.5,171.2c0,1.4-26.4,2.5-58.9,2.5c-32.5,0-58.9-1.1-58.9-2.5c0-1.4,26.4-2.5,58.9-2.5
				C507.1,168.7,533.5,169.8,533.5,171.2z"/>
			<path class="st122" d="M533.1,171.2c0,1.4-26.2,2.5-58.5,2.5c-32.3,0-58.5-1.1-58.5-2.5c0-1.4,26.2-2.5,58.5-2.5
				C506.9,168.7,533.1,169.8,533.1,171.2z"/>
			<path class="st123" d="M532.8,171.2c0,1.4-26.1,2.5-58.2,2.5c-32.2,0-58.2-1.1-58.2-2.5c0-1.4,26.1-2.5,58.2-2.5
				C506.8,168.7,532.8,169.8,532.8,171.2z"/>
			<path class="st124" d="M532.5,171.2c0,1.4-25.9,2.5-57.9,2.5c-32,0-57.9-1.1-57.9-2.5c0-1.4,25.9-2.5,57.9-2.5
				C506.6,168.7,532.5,169.8,532.5,171.2z"/>
			<path class="st125" d="M532.2,171.2c0,1.4-25.8,2.4-57.6,2.4c-31.8,0-57.6-1.1-57.6-2.4c0-1.4,25.8-2.4,57.6-2.4
				C506.4,168.7,532.2,169.8,532.2,171.2z"/>
			<path class="st126" d="M531.8,171.2c0,1.3-25.6,2.4-57.2,2.4c-31.6,0-57.2-1.1-57.2-2.4c0-1.3,25.6-2.4,57.2-2.4
				C506.2,168.7,531.8,169.8,531.8,171.2z"/>
			<path class="st127" d="M531.5,171.2c0,1.3-25.5,2.4-56.9,2.4c-31.4,0-56.9-1.1-56.9-2.4c0-1.3,25.5-2.4,56.9-2.4
				C506,168.7,531.5,169.8,531.5,171.2z"/>
			<path class="st128" d="M531.2,171.2c0,1.3-25.3,2.4-56.6,2.4c-31.3,0-56.6-1.1-56.6-2.4c0-1.3,25.3-2.4,56.6-2.4
				C505.9,168.8,531.2,169.8,531.2,171.2z"/>
			<path class="st129" d="M530.9,171.2c0,1.3-25.2,2.4-56.3,2.4c-31.1,0-56.3-1.1-56.3-2.4c0-1.3,25.2-2.4,56.3-2.4
				C505.7,168.8,530.9,169.8,530.9,171.2z"/>
			<path class="st130" d="M530.6,171.2c0,1.3-25,2.4-55.9,2.4c-30.9,0-55.9-1.1-55.9-2.4c0-1.3,25-2.4,55.9-2.4
				C505.5,168.8,530.6,169.8,530.6,171.2z"/>
			<path class="st131" d="M530.2,171.2c0,1.3-24.9,2.4-55.6,2.4c-30.7,0-55.6-1.1-55.6-2.4c0-1.3,24.9-2.4,55.6-2.4
				C505.3,168.8,530.2,169.9,530.2,171.2z"/>
			<path class="st132" d="M529.9,171.2c0,1.3-24.8,2.3-55.3,2.3c-30.5,0-55.3-1.1-55.3-2.3c0-1.3,24.8-2.3,55.3-2.3
				C505.2,168.8,529.9,169.9,529.9,171.2z"/>
			<path class="st133" d="M529.6,171.2c0,1.3-24.6,2.3-55,2.3c-30.4,0-55-1-55-2.3c0-1.3,24.6-2.3,55-2.3
				C505,168.8,529.6,169.9,529.6,171.2z"/>
			<path class="st134" d="M529.3,171.2c0,1.3-24.5,2.3-54.6,2.3c-30.2,0-54.6-1-54.6-2.3c0-1.3,24.5-2.3,54.6-2.3
				C504.8,168.8,529.3,169.9,529.3,171.2z"/>
			<path class="st135" d="M528.9,171.2c0,1.3-24.3,2.3-54.3,2.3c-30,0-54.3-1-54.3-2.3c0-1.3,24.3-2.3,54.3-2.3
				C504.6,168.9,528.9,169.9,528.9,171.2z"/>
			<path class="st136" d="M528.6,171.2c0,1.3-24.2,2.3-54,2.3c-29.8,0-54-1-54-2.3c0-1.3,24.2-2.3,54-2.3
				C504.4,168.9,528.6,169.9,528.6,171.2z"/>
			<path class="st137" d="M528.3,171.2c0,1.3-24,2.3-53.7,2.3c-29.6,0-53.7-1-53.7-2.3c0-1.3,24-2.3,53.7-2.3
				C504.3,168.9,528.3,169.9,528.3,171.2z"/>
			<path class="st138" d="M528,171.2c0,1.3-23.9,2.3-53.3,2.3c-29.5,0-53.3-1-53.3-2.3c0-1.3,23.9-2.3,53.3-2.3
				C504.1,168.9,528,169.9,528,171.2z"/>
			<path class="st139" d="M527.6,171.2c0,1.2-23.7,2.3-53,2.3c-29.3,0-53-1-53-2.3c0-1.2,23.7-2.3,53-2.3
				C503.9,168.9,527.6,169.9,527.6,171.2z"/>
			<path class="st140" d="M527.3,171.2c0,1.2-23.6,2.2-52.7,2.2c-29.1,0-52.7-1-52.7-2.2c0-1.2,23.6-2.2,52.7-2.2
				C503.7,168.9,527.3,169.9,527.3,171.2z"/>
			<path class="st141" d="M527,171.2c0,1.2-23.4,2.2-52.3,2.2c-28.9,0-52.3-1-52.3-2.2c0-1.2,23.4-2.2,52.3-2.2
				C503.6,168.9,527,169.9,527,171.2z"/>
			<path class="st142" d="M526.7,171.2c0,1.2-23.3,2.2-52,2.2c-28.7,0-52-1-52-2.2c0-1.2,23.3-2.2,52-2.2
				C503.4,168.9,526.7,169.9,526.7,171.2z"/>
			<path class="st143" d="M526.3,171.2c0,1.2-23.1,2.2-51.7,2.2c-28.6,0-51.7-1-51.7-2.2c0-1.2,23.1-2.2,51.7-2.2
				C503.2,169,526.3,169.9,526.3,171.2z"/>
			<path class="st144" d="M526,171.2c0,1.2-23,2.2-51.4,2.2c-28.4,0-51.4-1-51.4-2.2c0-1.2,23-2.2,51.4-2.2
				C503,169,526,170,526,171.2z"/>
			<path class="st145" d="M525.7,171.2c0,1.2-22.9,2.2-51,2.2c-28.2,0-51-1-51-2.2c0-1.2,22.9-2.2,51-2.2
				C502.8,169,525.7,170,525.7,171.2z"/>
			<path class="st146" d="M525.4,171.2c0,1.2-22.7,2.2-50.7,2.2c-28,0-50.7-1-50.7-2.2c0-1.2,22.7-2.2,50.7-2.2
				C502.7,169,525.4,170,525.4,171.2z"/>
			<path class="st147" d="M525.1,171.2c0,1.2-22.6,2.1-50.4,2.1c-27.8,0-50.4-1-50.4-2.1c0-1.2,22.6-2.1,50.4-2.1
				C502.5,169,525.1,170,525.1,171.2z"/>
			<path class="st148" d="M524.7,171.2c0,1.2-22.4,2.1-50.1,2.1c-27.7,0-50.1-1-50.1-2.1c0-1.2,22.4-2.1,50.1-2.1
				C502.3,169,524.7,170,524.7,171.2z"/>
			<path class="st149" d="M524.4,171.2c0,1.2-22.3,2.1-49.7,2.1c-27.5,0-49.7-0.9-49.7-2.1c0-1.2,22.3-2.1,49.7-2.1
				C502.1,169,524.4,170,524.4,171.2z"/>
			<path class="st150" d="M524.1,171.2c0,1.2-22.1,2.1-49.4,2.1c-27.3,0-49.4-0.9-49.4-2.1c0-1.2,22.1-2.1,49.4-2.1
				C502,169.1,524.1,170,524.1,171.2z"/>
			<path class="st151" d="M523.8,171.2c0,1.2-22,2.1-49.1,2.1c-27.1,0-49.1-0.9-49.1-2.1c0-1.2,22-2.1,49.1-2.1
				C501.8,169.1,523.8,170,523.8,171.2z"/>
			<path class="st152" d="M523.4,171.2c0,1.1-21.8,2.1-48.8,2.1c-26.9,0-48.8-0.9-48.8-2.1c0-1.1,21.8-2.1,48.8-2.1
				C501.6,169.1,523.4,170,523.4,171.2z"/>
			<path class="st153" d="M523.1,171.2c0,1.1-21.7,2.1-48.4,2.1c-26.7,0-48.4-0.9-48.4-2.1c0-1.1,21.7-2.1,48.4-2.1
				C501.4,169.1,523.1,170,523.1,171.2z"/>
			<path class="st154" d="M522.8,171.2c0,1.1-21.5,2-48.1,2c-26.6,0-48.1-0.9-48.1-2c0-1.1,21.5-2,48.1-2
				C501.2,169.1,522.8,170,522.8,171.2z"/>
			<path class="st155" d="M522.5,171.2c0,1.1-21.4,2-47.8,2c-26.4,0-47.8-0.9-47.8-2c0-1.1,21.4-2,47.8-2
				C501.1,169.1,522.5,170,522.5,171.2z"/>
			<path class="st156" d="M522.1,171.2c0,1.1-21.2,2-47.5,2c-26.2,0-47.5-0.9-47.5-2c0-1.1,21.2-2,47.5-2
				C500.9,169.1,522.1,170,522.1,171.2z"/>
			<path class="st157" d="M521.8,171.2c0,1.1-21.1,2-47.1,2c-26,0-47.1-0.9-47.1-2c0-1.1,21.1-2,47.1-2
				C500.7,169.2,521.8,170.1,521.8,171.2z"/>
			<path class="st158" d="M521.5,171.2c0,1.1-21,2-46.8,2c-25.8,0-46.8-0.9-46.8-2c0-1.1,21-2,46.8-2
				C500.5,169.2,521.5,170.1,521.5,171.2z"/>
			<path class="st159" d="M521.2,171.2c0,1.1-20.8,2-46.5,2c-25.7,0-46.5-0.9-46.5-2c0-1.1,20.8-2,46.5-2
				C500.4,169.2,521.2,170.1,521.2,171.2z"/>
			<path class="st160" d="M520.8,171.2c0,1.1-20.7,2-46.1,2c-25.5,0-46.2-0.9-46.2-2c0-1.1,20.7-2,46.2-2
				C500.2,169.2,520.8,170.1,520.8,171.2z"/>
			<path class="st161" d="M520.5,171.2c0,1.1-20.5,1.9-45.8,1.9c-25.3,0-45.8-0.9-45.8-1.9c0-1.1,20.5-1.9,45.8-1.9
				C500,169.2,520.5,170.1,520.5,171.2z"/>
			<path class="st162" d="M520.2,171.2c0,1.1-20.4,1.9-45.5,1.9c-25.1,0-45.5-0.9-45.5-1.9c0-1.1,20.4-1.9,45.5-1.9
				C499.8,169.2,520.2,170.1,520.2,171.2z"/>
			<path class="st163" d="M519.9,171.2c0,1.1-20.2,1.9-45.2,1.9c-24.9,0-45.2-0.9-45.2-1.9c0-1.1,20.2-1.9,45.2-1.9
				C499.6,169.2,519.9,170.1,519.9,171.2z"/>
			<path class="st164" d="M519.5,171.2c0,1.1-20.1,1.9-44.8,1.9c-24.8,0-44.8-0.9-44.8-1.9c0-1.1,20.1-1.9,44.8-1.9
				C499.5,169.3,519.5,170.1,519.5,171.2z"/>
			<path class="st165" d="M519.2,171.2c0,1-19.9,1.9-44.5,1.9c-24.6,0-44.5-0.8-44.5-1.9c0-1,19.9-1.9,44.5-1.9
				C499.3,169.3,519.2,170.1,519.2,171.2z"/>
			<path class="st166" d="M518.9,171.2c0,1-19.8,1.9-44.2,1.9c-24.4,0-44.2-0.8-44.2-1.9c0-1,19.8-1.9,44.2-1.9
				C499.1,169.3,518.9,170.1,518.9,171.2z"/>
			<path class="st167" d="M518.6,171.2c0,1-19.6,1.9-43.9,1.9c-24.2,0-43.9-0.8-43.9-1.9c0-1,19.6-1.9,43.9-1.9
				C498.9,169.3,518.6,170.1,518.6,171.2z"/>
			<path class="st168" d="M518.3,171.2c0,1-19.5,1.9-43.5,1.9c-24,0-43.5-0.8-43.5-1.9c0-1,19.5-1.8,43.5-1.8
				C498.8,169.3,518.3,170.1,518.3,171.2z"/>
			<path class="st169" d="M517.9,171.2c0,1-19.3,1.8-43.2,1.8c-23.9,0-43.2-0.8-43.2-1.8c0-1,19.3-1.8,43.2-1.8
				C498.6,169.3,517.9,170.1,517.9,171.2z"/>
			<path class="st170" d="M517.6,171.2c0,1-19.2,1.8-42.9,1.8c-23.7,0-42.9-0.8-42.9-1.8c0-1,19.2-1.8,42.9-1.8
				C498.4,169.3,517.6,170.2,517.6,171.2z"/>
			<path class="st171" d="M517.3,171.2c0,1-19.1,1.8-42.6,1.8c-23.5,0-42.6-0.8-42.6-1.8c0-1,19.1-1.8,42.6-1.8
				C498.2,169.4,517.3,170.2,517.3,171.2z"/>
			<path class="st172" d="M517,171.2c0,1-18.9,1.8-42.2,1.8c-23.3,0-42.2-0.8-42.2-1.8c0-1,18.9-1.8,42.2-1.8
				C498,169.4,517,170.2,517,171.2z"/>
			<path class="st173" d="M516.6,171.2c0,1-18.8,1.8-41.9,1.8c-23.1,0-41.9-0.8-41.9-1.8c0-1,18.8-1.8,41.9-1.8
				C497.9,169.4,516.6,170.2,516.6,171.2z"/>
			<path class="st174" d="M516.3,171.2c0,1-18.6,1.8-41.6,1.8c-23,0-41.6-0.8-41.6-1.8c0-1,18.6-1.8,41.6-1.8
				C497.7,169.4,516.3,170.2,516.3,171.2z"/>
			<path class="st175" d="M516,171.2c0,1-18.5,1.8-41.3,1.8c-22.8,0-41.3-0.8-41.3-1.8c0-1,18.5-1.8,41.3-1.8
				C497.5,169.4,516,170.2,516,171.2z"/>
			<path class="st176" d="M515.7,171.2c0,1-18.3,1.7-40.9,1.7c-22.6,0-40.9-0.8-40.9-1.7c0-1,18.3-1.7,40.9-1.7
				C497.3,169.4,515.7,170.2,515.7,171.2z"/>
			<path class="st177" d="M515.3,171.2c0,1-18.2,1.7-40.6,1.7c-22.4,0-40.6-0.8-40.6-1.7c0-1,18.2-1.7,40.6-1.7
				C497.2,169.4,515.3,170.2,515.3,171.2z"/>
			<path class="st178" d="M515,171.2c0,0.9-18,1.7-40.3,1.7c-22.2,0-40.3-0.8-40.3-1.7c0-0.9,18-1.7,40.3-1.7
				C497,169.4,515,170.2,515,171.2z"/>
			<path class="st179" d="M514.7,171.2c0,0.9-17.9,1.7-40,1.7c-22.1,0-40-0.8-40-1.7c0-0.9,17.9-1.7,40-1.7
				C496.8,169.5,514.7,170.2,514.7,171.2z"/>
			<path class="st180" d="M514.4,171.2c0,0.9-17.7,1.7-39.6,1.7c-21.9,0-39.6-0.8-39.6-1.7c0-0.9,17.7-1.7,39.6-1.7
				C496.6,169.5,514.4,170.2,514.4,171.2z"/>
			<path class="st181" d="M514,171.2c0,0.9-17.6,1.7-39.3,1.7c-21.7,0-39.3-0.7-39.3-1.7c0-0.9,17.6-1.7,39.3-1.7
				C496.4,169.5,514,170.2,514,171.2z"/>
			<path class="st182" d="M513.7,171.2c0,0.9-17.4,1.7-39,1.7c-21.5,0-39-0.7-39-1.7c0-0.9,17.4-1.7,39-1.7
				C496.3,169.5,513.7,170.2,513.7,171.2z"/>
			<path class="st183" d="M513.4,171.2c0,0.9-17.3,1.6-38.6,1.6c-21.3,0-38.6-0.7-38.6-1.6c0-0.9,17.3-1.6,38.6-1.6
				C496.1,169.5,513.4,170.3,513.4,171.2z"/>
			<path class="st184" d="M513.1,171.2c0,0.9-17.2,1.6-38.3,1.6c-21.2,0-38.3-0.7-38.3-1.6c0-0.9,17.2-1.6,38.3-1.6
				C495.9,169.5,513.1,170.3,513.1,171.2z"/>
			<path class="st185" d="M512.7,171.2c0,0.9-17,1.6-38,1.6c-21,0-38-0.7-38-1.6c0-0.9,17-1.6,38-1.6
				C495.7,169.5,512.7,170.3,512.7,171.2z"/>
			<path class="st186" d="M512.4,171.2c0,0.9-16.9,1.6-37.7,1.6c-20.8,0-37.7-0.7-37.7-1.6c0-0.9,16.9-1.6,37.7-1.6
				C495.6,169.6,512.4,170.3,512.4,171.2z"/>
			<path class="st187" d="M512.1,171.2c0,0.9-16.7,1.6-37.3,1.6c-20.6,0-37.3-0.7-37.3-1.6c0-0.9,16.7-1.6,37.3-1.6
				C495.4,169.6,512.1,170.3,512.1,171.2z"/>
			<path class="st188" d="M511.8,171.2c0,0.9-16.6,1.6-37,1.6c-20.4,0-37-0.7-37-1.6c0-0.9,16.6-1.6,37-1.6
				C495.2,169.6,511.8,170.3,511.8,171.2z"/>
			<path class="st189" d="M511.5,171.2c0,0.9-16.4,1.6-36.7,1.6c-20.3,0-36.7-0.7-36.7-1.6c0-0.9,16.4-1.6,36.7-1.6
				C495,169.6,511.5,170.3,511.5,171.2z"/>
			<path class="st190" d="M511.1,171.2c0,0.9-16.3,1.5-36.4,1.5c-20.1,0-36.4-0.7-36.4-1.5c0-0.9,16.3-1.5,36.4-1.5
				C494.8,169.6,511.1,170.3,511.1,171.2z"/>
			<path class="st191" d="M510.8,171.2c0,0.8-16.1,1.5-36,1.5c-19.9,0-36-0.7-36-1.5c0-0.8,16.1-1.5,36-1.5
				C494.7,169.6,510.8,170.3,510.8,171.2z"/>
			<path class="st192" d="M510.5,171.2c0,0.8-16,1.5-35.7,1.5c-19.7,0-35.7-0.7-35.7-1.5c0-0.8,16-1.5,35.7-1.5
				C494.5,169.6,510.5,170.3,510.5,171.2z"/>
			<path class="st193" d="M510.2,171.2c0,0.8-15.8,1.5-35.4,1.5c-19.5,0-35.4-0.7-35.4-1.5c0-0.8,15.8-1.5,35.4-1.5
				C494.3,169.7,510.2,170.3,510.2,171.2z"/>
			<path class="st194" d="M509.8,171.2c0,0.8-15.7,1.5-35.1,1.5c-19.4,0-35.1-0.7-35.1-1.5c0-0.8,15.7-1.5,35.1-1.5
				C494.1,169.7,509.8,170.3,509.8,171.2z"/>
			<path class="st195" d="M509.5,171.2c0,0.8-15.6,1.5-34.7,1.5c-19.2,0-34.7-0.7-34.7-1.5c0-0.8,15.6-1.5,34.7-1.5
				C494,169.7,509.5,170.3,509.5,171.2z"/>
			<path class="st196" d="M509.2,171.2c0,0.8-15.4,1.5-34.4,1.5c-19,0-34.4-0.7-34.4-1.5c0-0.8,15.4-1.5,34.4-1.5
				C493.8,169.7,509.2,170.4,509.2,171.2z"/>
			<path class="st197" d="M508.9,171.2c0,0.8-15.3,1.4-34.1,1.4c-18.8,0-34.1-0.6-34.1-1.4c0-0.8,15.3-1.4,34.1-1.4
				C493.6,169.7,508.9,170.4,508.9,171.2z"/>
			<path class="st198" d="M508.5,171.2c0,0.8-15.1,1.4-33.8,1.4c-18.6,0-33.8-0.6-33.8-1.4c0-0.8,15.1-1.4,33.8-1.4
				C493.4,169.7,508.5,170.4,508.5,171.2z"/>
			<path class="st199" d="M508.2,171.2c0,0.8-15,1.4-33.4,1.4c-18.5,0-33.4-0.6-33.4-1.4c0-0.8,15-1.4,33.4-1.4
				C493.3,169.7,508.2,170.4,508.2,171.2z"/>
			<path class="st200" d="M507.9,171.2c0,0.8-14.8,1.4-33.1,1.4c-18.3,0-33.1-0.6-33.1-1.4c0-0.8,14.8-1.4,33.1-1.4
				C493.1,169.8,507.9,170.4,507.9,171.2z"/>
			<path class="st201" d="M507.6,171.2c0,0.8-14.7,1.4-32.8,1.4c-18.1,0-32.8-0.6-32.8-1.4c0-0.8,14.7-1.4,32.8-1.4
				C492.9,169.8,507.6,170.4,507.6,171.2z"/>
			<path class="st202" d="M507.2,171.2c0,0.8-14.5,1.4-32.5,1.4c-17.9,0-32.5-0.6-32.5-1.4c0-0.8,14.5-1.4,32.5-1.4
				C492.7,169.8,507.2,170.4,507.2,171.2z"/>
			<path class="st203" d="M506.9,171.2c0,0.8-14.4,1.4-32.1,1.4c-17.7,0-32.1-0.6-32.1-1.4c0-0.8,14.4-1.4,32.1-1.4
				C492.5,169.8,506.9,170.4,506.9,171.2z"/>
			<path class="st204" d="M506.6,171.2c0,0.7-14.2,1.4-31.8,1.4c-17.6,0-31.8-0.6-31.8-1.4c0-0.7,14.2-1.4,31.8-1.4
				C492.4,169.8,506.6,170.4,506.6,171.2z"/>
			<path class="st205" d="M506.3,171.2c0,0.7-14.1,1.3-31.5,1.3c-17.4,0-31.5-0.6-31.5-1.3c0-0.7,14.1-1.3,31.5-1.3
				C492.2,169.8,506.3,170.4,506.3,171.2z"/>
		</g>
		
			<radialGradient id="SVGID_1_" cx="452.1168" cy="164.4492" r="39.56" gradientTransform="matrix(1.7 0 0 0.7286 -294.8476 47.9167)" gradientUnits="userSpaceOnUse">
			<stop  offset="0" style="stop-color:#E3E3E3"/>
			<stop  offset="1" style="stop-color:#D9D9D9"/>
		</radialGradient>
		<rect x="378.9" y="164.6" class="st206" width="189.7" height="6.2"/>
		
			<radialGradient id="SVGID_2_" cx="452.1168" cy="163.541" r="39.4543" gradientTransform="matrix(1.7 0 0 1 -294.8476 0)" gradientUnits="userSpaceOnUse">
			<stop  offset="0" style="stop-color:#F7F7F7"/>
			<stop  offset="0.5286" style="stop-color:#F2F2F2"/>
			<stop  offset="1" style="stop-color:#E8E8E8"/>
		</radialGradient>
		<polygon class="st207" points="552.8,162.3 396.2,162.3 378.9,164.8 568.6,164.8 		"/>
	</g>
	<path class="st0" d="M459.9,137.3h-19.2v-2.1c0-1.3-1.1-2.4-2.4-2.4h-13.1c-1.3,0-2.4,1.1-2.4,2.4v4.2v9.3V159c0,1.2,1,2.1,2.1,2.1
		h34.9c1.2,0,2.1-1,2.1-2.1v-19.6C462,138.3,461,137.3,459.9,137.3z M441.2,142.9c1.2,0,2.2,1,2.2,2.2c0,1.2-1.1,2.2-2.2,2.2
		c-1.2,0-2.2-1-2.2-2.2C439,143.9,440,142.9,441.2,142.9z M450.2,154.6c-0.4,0.8-1.3,1.2-2.1,1.2h-7.7c-0.9,0-1.7-0.5-2.2-1.3
		c-0.5-0.8-0.5-1.7-0.1-2.5l1-2c0.4-0.7,0.9-1.1,1.5-1.2s1.2,0.2,1.7,0.8l0.1,0.2c0.2,0.3,0.5,0.5,0.8,0.5c0.3,0,0.6-0.2,0.8-0.6
		l1.2-2.1c0.5-0.8,1.1-1.3,1.7-1.3c0.7,0.1,1.3,0.5,1.6,1.4l1.9,4.4C450.9,153,450.7,153.9,450.2,154.6z"/>
	<path class="st0" d="M505.9,149.1l-1.7-1c-0.2-0.1-0.5-0.2-0.6-0.2c-0.1,0-0.2,0-0.3,0.1c-0.3,0.1-0.4,0.5-0.4,0.8v1.9
		c0,0.4,0.1,0.7,0.3,0.8s0.5,0.1,0.9-0.1l1.7-1c0.4-0.2,0.6-0.5,0.6-0.7C506.5,149.6,506.3,149.3,505.9,149.1z"/>
	<path class="st0" d="M521.6,138.1h-19.2V136c0-1.3-1.1-2.4-2.4-2.4H487c-1.3,0-2.4,1.1-2.4,2.4v4.2v9.3v10.3c0,1.2,1,2.1,2.1,2.1
		h34.9c1.2,0,2.1-1,2.1-2.1v-19.6C523.8,139.1,522.8,138.1,521.6,138.1z M511.4,151.8c0,3.5-1.6,5.1-5.1,5.1h-3.9
		c-3.5,0-5.1-1.5-5.1-5.1v-3.9c0-3.5,1.5-5.1,5.1-5.1h3.9c3.5,0,5.1,1.5,5.1,5.1V151.8z"/>
</g>
</svg>
