<?xml version="1.0" encoding="utf-8"?>
<!-- Generator: Adobe Illustrator 25.2.1, SVG Export Plug-In . SVG Version: 6.00 Build 0)  -->
<svg version="1.1" xmlns="http://www.w3.org/2000/svg" xmlns:xlink="http://www.w3.org/1999/xlink" x="0px" y="0px"
	 viewBox="0 0 582.4 446" style="enable-background:new 0 0 582.4 446;" xml:space="preserve">
<style type="text/css">
	.st0{fill:#A751E5;}
	.st1{opacity:0.6;}
	.st2{fill:#FFFFFF;}
	.st3{fill:#263238;}
	.st4{opacity:0.3;}
	.st5{fill:#E6D2F9;}
	.st6{fill:#455A64;}
	.st7{fill-rule:evenodd;clip-rule:evenodd;fill:#A751E5;}
	.st8{fill:#E7D0FC;}
	.st9{fill:#FAFAFA;}
	.st10{opacity:0.2;}
	.st11{fill:url(#SVGID_1_);}
	.st12{fill:url(#SVGID_2_);}
</style>
<g id="Layer_2">
</g>
<g id="Layer_1">
	<path class="st0" d="M246,416.6l-1.3,19.2c0,0,19.1,6.3,19.2,9.9l-37.3,0.3l0.8-30L246,416.6z"/>
	<g class="st1">
		<path class="st2" d="M233.2,433.9c-0.8,0.2-1.2,0.9-1.1,1.7c0.2,0.8,0.9,1.3,1.7,1.1c0.8-0.2,1.3-1,1.2-1.8
			c-0.2-0.8-1.1-1.2-1.9-1"/>
	</g>
	<g class="st1">
		<path class="st2" d="M226.6,446l0.1-3l36.1,1c0.8,0.4,1.3,1.1,1.4,2H226.6z"/>
	</g>
	<path class="st3" d="M245.3,435.7c0,0.2-0.9,0.2-1.8,0.8s-1.4,1.3-1.6,1.2s0.1-1.1,1.2-1.8S245.4,435.5,245.3,435.7z"/>
	<path class="st3" d="M249.2,437.4c0,0.2-0.8,0.5-1.4,1.2s-0.8,1.6-1,1.5s-0.3-1,0.5-2S249.2,437.2,249.2,437.4z"/>
	<path class="st3" d="M251.3,442.2c-0.2,0-0.4-0.9,0.1-1.9s1.4-1.3,1.4-1.2s-0.5,0.7-0.9,1.5S251.4,442.1,251.3,442.2z"/>
	<path class="st3" d="M245.1,431.2c-0.1,0.2-0.9-0.1-1.9-0.1s-1.8,0.3-1.9,0.2s0.7-0.8,1.9-0.8S245.2,431.1,245.1,431.2z"/>
	<g class="st4">
		<polygon points="245.7,420.4 245.5,423.9 227.2,423.1 227.2,420 		"/>
	</g>
	<path class="st3" d="M245.3,427.4c-0.6,0.2-1.3,0.1-1.9-0.1c-0.7-0.1-1.3-0.4-1.9-0.7c-0.4-0.2-0.7-0.4-1.1-0.6
		c-0.2-0.1-0.4-0.3-0.5-0.5c-0.2-0.3-0.3-0.7,0-1c0.2-0.3,0.5-0.4,0.8-0.4c0.2,0,0.5,0,0.7,0.1c0.4,0.1,0.8,0.3,1.2,0.4
		c0.6,0.3,1.2,0.7,1.7,1.2c0.8,0.8,1.1,1.5,1,1.5s-0.5-0.5-1.3-1.2c-0.5-0.4-1.1-0.7-1.6-1c-0.3-0.1-0.7-0.3-1.1-0.4
		c-0.4-0.1-0.7-0.1-0.8,0s0,0.1,0,0.2c0.1,0.1,0.3,0.2,0.4,0.3c0.3,0.2,0.7,0.4,1,0.6c0.6,0.3,1.2,0.5,1.8,0.7
		C244.1,426.9,244.7,427.1,245.3,427.4z"/>
	<path class="st3" d="M245.1,427.6c-0.3-0.5-0.5-1.2-0.4-1.8c0-0.7,0.1-1.4,0.3-2c0.1-0.4,0.3-0.8,0.5-1.1c0.2-0.5,0.7-0.8,1.2-0.9
		c0.3,0,0.6,0.2,0.8,0.5c0.1,0.2,0.1,0.5,0.2,0.7c0.1,0.4,0.1,0.8,0,1.3c-0.1,0.7-0.4,1.3-0.9,1.9c-0.8,1-1.5,1.1-1.5,1.1
		s0.6-0.4,1.2-1.3c0.3-0.5,0.6-1.1,0.6-1.7c0.1-0.4,0.1-0.7,0-1.1c0-0.4-0.2-0.7-0.3-0.7s-0.5,0.3-0.7,0.6c-0.2,0.3-0.4,0.7-0.5,1
		c-0.2,0.6-0.4,1.2-0.4,1.8C245,426.9,245.2,427.6,245.1,427.6z"/>
	<path class="st0" d="M174.1,126.1c0-0.1,0-0.3,0-0.4c0-0.3,0-0.6,0-1.1c0-1,0-2.4,0-4.2c0-3.6-0.1-8.7-0.1-14.8l0.2,0.2h-25.5
		c0,0,0.4-0.4,0.2-0.2l0,0v2.7c0,0.9,0,1.8,0,2.7v5.2c0,3.4,0,6.7,0,9.7l-0.2-0.2l18.4,0.1l5.2,0.1h1.4h0.5c-0.2,0-0.3,0-0.5,0h-1.3
		l-5.2,0.1l-18.5,0.1h-0.2V126c0-3,0-6.3,0-9.7v-10.5l0,0c-0.2,0.2,0.3-0.3,0.2-0.2h25.5h0.2v0.2c0,6.2-0.1,11.3-0.1,14.9
		c0,1.8,0,3.1,0,4.1c0,0.4,0,0.8,0,1.1S174.1,126.2,174.1,126.1z"/>
	<path class="st0" d="M170.8,118.7c-0.6-0.4-1.1-0.9-1.6-1.4c-1-0.9-2.4-2.2-4-3.8h0.3l-4,4.6l-0.2,0.2l-0.2,0.2l-0.2-0.1
		c-0.9-0.7-1.7-1.4-2.5-2.1h0.3c-2.2,2-4.1,3.7-5.5,4.9l-1.6,1.4c-0.2,0.2-0.4,0.3-0.6,0.5c0,0,0.2-0.2,0.5-0.6l1.5-1.5
		c1.3-1.2,3.2-3,5.4-5l0.1-0.1l0.2,0.1l2.5,2.1H161l0.2-0.2l4.1-4.6l0.2-0.2l0.2,0.1c1.6,1.6,3,2.9,3.9,3.9
		C170,117.6,170.4,118.1,170.8,118.7z"/>
	<path class="st0" d="M157.5,111.7c0,0-0.2-0.1-0.4-0.4c-0.4-0.3-0.8-0.5-1.3-0.6c-1.1-0.1-2.2,0.7-2.3,1.9c0,0.4,0.1,0.8,0.3,1.2
		c0.6,1,1.9,1.3,2.8,0.7c0.4-0.2,0.7-0.5,0.8-0.9c0.2-0.4,0.3-0.9,0.2-1.4C157.6,111.9,157.5,111.7,157.5,111.7
		c0.1,0,0.2,0.1,0.3,0.5c0.2,0.5,0.2,1.1,0,1.6c-0.3,0.8-1,1.3-1.8,1.5c-1.3,0.2-2.6-0.7-2.9-2c-0.1-0.7,0.1-1.5,0.5-2
		c0.5-0.6,1.4-0.9,2.2-0.8c0.5,0.1,1,0.4,1.4,0.8C157.4,111.5,157.5,111.7,157.5,111.7z"/>
	<path class="st0" d="M145.6,120.6c0,0-0.1-0.1-0.4-0.4c-0.4-0.3-0.8-0.5-1.3-0.6c-0.7-0.1-1.4,0.2-1.8,0.8
		c-0.7,0.9-0.6,2.2,0.3,2.9c0.5,0.4,1.1,0.5,1.7,0.4c0.7-0.1,1.3-0.6,1.6-1.2c0.2-0.4,0.3-0.9,0.1-1.4
		C145.7,121,145.7,120.8,145.6,120.6c0,0,0.2,0.1,0.3,0.5c0.2,0.5,0.2,1.1,0,1.6c-0.3,0.8-1,1.3-1.8,1.5c-1.3,0.2-2.6-0.7-2.9-2
		c-0.1-0.7,0.1-1.5,0.5-2c0.5-0.6,1.4-0.9,2.2-0.8c0.5,0.1,1,0.3,1.4,0.8C145.6,120.4,145.7,120.6,145.6,120.6z"/>
	<path class="st0" d="M161.4,127.1c0,0.1,0,0.3,0,0.4c0,0.3,0,0.7,0,1.3c0,1.2,0,2.8,0.1,4.8v0.1h-0.2c-5.3,0.1-13.5,0.1-22.9,0.1
		h-1.4v-0.2c0-7.2,0-13.8,0.1-18.8v-0.2h0.2l6.8,0.1h1.9c0.2,0,0.4,0,0.6,0.1c-0.2,0-0.4,0.1-0.6,0.1h-1.9l-6.8,0.1l0.2-0.2
		c0,5,0,11.5,0.1,18.8l-0.2-0.2h1.2c9.3,0,17.6,0,22.8,0.1l-0.1,0.1c0-2,0-3.6,0.1-4.8c0-0.5,0-0.9,0-1.3
		C161.3,127.3,161.3,127.2,161.4,127.1z"/>
	<path class="st0" d="M147.2,124.9c-1.1,1.3-2.4,2.4-3.7,3.5c-1.2,1.2-2.5,2.3-3.9,3.3C141.9,129.1,144.4,126.8,147.2,124.9z"/>
	<path class="st0" d="M152.4,130c-0.1,0.1-0.8-0.3-1.4-1.1s-1-1.5-0.9-1.6s0.6,0.5,1.3,1.2S152.5,129.9,152.4,130z"/>
	<path class="st0" d="M182.3,144.8c0,0,0-0.3,0-0.9s0-1.5,0-2.7c0-2.4,0-5.9,0-10.4c0-9,0-22-0.1-37.9l0.2,0.2L95.3,93l0,0l0.2-0.2
		c0,18.4,0,36,0,51.9l-0.2-0.2l62.6,0.1l18,0.1h4.8h1.3h-1.2H176l-17.9,0.1l-62.8,0.1h-0.3v-0.2c0-16,0-33.6,0-51.9v-0.2h0.2
		l87.1,0.1h0.2v0.2c0,15.9-0.1,28.9-0.1,38c0,4.5,0,8,0,10.4c0,1.2,0,2.1,0,2.7S182.3,144.8,182.3,144.8z"/>
	<rect x="102.3" y="105" class="st0" width="26.5" height="1.9"/>
	<path class="st3" d="M127.7,114.6c0,0.1-5.8,0.2-12.9,0.2s-12.9-0.1-12.9-0.2s5.8-0.2,12.9-0.2S127.7,114.4,127.7,114.6z"/>
	<path class="st3" d="M127.7,118.9c0,0.1-5.8,0.2-12.9,0.2s-12.9-0.1-12.9-0.2s5.8-0.2,12.9-0.2S127.7,118.7,127.7,118.9z"/>
	<path class="st3" d="M127.7,123.1c0,0.1-5.8,0.2-12.9,0.2s-12.9-0.1-12.9-0.2s5.8-0.2,12.9-0.2S127.7,123,127.7,123.1z"/>
	<path class="st3" d="M127.7,127.4c0,0.1-5.8,0.2-12.9,0.2s-12.9-0.1-12.9-0.2s5.8-0.2,12.9-0.2S127.7,127.3,127.7,127.4z"/>
	<path class="st3" d="M113.5,131.7c-3.9,0.3-7.8,0.3-11.6,0C105.8,131.4,109.7,131.4,113.5,131.7z"/>
	<polygon class="st0" points="167.5,422.4 161.7,444 180.7,445.8 184.7,425.2 	"/>
	<path class="st0" d="M181.2,444c-0.9,0.1-1.9,0-2.8-0.1c-1.7-0.1-4.1-0.4-6.7-0.7l-6.6-0.9c-0.9-0.1-1.8-0.2-2.7-0.5
		c0.9-0.1,1.9,0,2.8,0.1c1.7,0.1,4.1,0.4,6.7,0.7l6.6,0.9C179.4,443.6,180.3,443.8,181.2,444z"/>
	<g class="st1">
		<polyline class="st5" points="161.7,444 180.7,445.8 181,444.2 162.2,441.8 161.7,443.8 		"/>
	</g>
	<path class="st3" d="M171.1,443.1c0.5-2.8,1.1-5.6,1.8-8.3c0.6-2.8,1.4-5.5,2.2-8.2c-0.5,2.8-1.1,5.6-1.8,8.3
		C172.8,437.7,172,440.4,171.1,443.1z"/>
	<path class="st3" d="M180.2,443.9c0.3-1.3,0.3-2.7,0-4c-0.3-1.4-1.1-2.7-2.1-3.8c-1.3-1.2-2.9-2-4.7-2.2c-1.8-0.2-3.6,0.2-5.1,1.2
		c-1.2,0.8-2.3,1.9-3,3.2c-0.6,1.2-1,2.5-1.2,3.8c0-0.1,0-0.2,0-0.3c0-0.3,0-0.5,0-0.8c0.1-1,0.4-2,0.9-2.9c0.7-1.4,1.7-2.5,3-3.3
		c1.6-1,3.5-1.5,5.3-1.3c3.5,0.3,6.4,2.9,7.1,6.3c0.2,1,0.2,2,0,3c-0.1,0.3-0.1,0.5-0.2,0.8C180.2,443.7,180.2,443.8,180.2,443.9z"
		/>
	<polygon class="st3" points="246,249.8 189.1,249.4 161.6,430 185.2,433 215.5,284.5 224.5,433.5 224.5,433.9 250.1,433.5 	"/>
	<path class="st6" d="M220.1,264.4c0.4-0.1,0.8-0.1,1.2-0.1l3.4-0.1l12.3-0.4h0.2v0.2c0,3.6,0,7.6,0,11.8v0.1l-0.1,0.1
		c-0.7,0.6-1.4,1.3-2.2,2l-6.3,5.8l-0.2,0.1l-0.2-0.1l-8.4-7.5l-0.1-0.1v-0.1c0-3.6,0.1-6.5,0.1-8.6c0-1,0-1.7,0-2.3
		c0-0.3,0-0.5,0-0.8c0,0.3,0.1,0.6,0,0.9c0,0.6,0,1.4,0,2.4c0,2.1,0.1,5,0.1,8.5l-0.1-0.1l8.5,7.4h-0.3l6.3-5.8l2.1-2l-0.1,0.2
		c0-4.2,0-8.2,0-11.8l0.2,0.2l-12.2,0.1h-4.4C220.2,264.4,220.1,264.4,220.1,264.4z"/>
	<path class="st6" d="M193.3,263.7c0.3,0,0.7,0,1,0l3.1,0.2l11.1,1h0.2v0.2c-0.4,3.5-0.9,7.5-1.4,11.7v0.1l-0.1,0.1l-2.5,2l-6,4.8
		l-0.2,0.2l-0.2-0.2l-6.6-8.4v-0.1v-0.1c0.5-3.5,0.9-6.5,1.2-8.6c0.1-1,0.2-1.7,0.3-2.3C193.2,264.1,193.3,263.9,193.3,263.7
		c0,0.3,0,0.5,0,0.8c-0.1,0.6-0.1,1.4-0.2,2.4c-0.2,2.1-0.5,5-0.9,8.5v-0.2l6.7,8.3h-0.3l6-4.8l2.5-2l-0.1,0.2
		c0.5-4.2,1-8.2,1.5-11.7l0.2,0.2l-10.9-1.2l-3.1-0.4C193.7,263.7,193.3,263.7,193.3,263.7z"/>
	<path class="st6" d="M228.1,291.1c-0.9-0.4-1.8-0.8-2.6-1.3c-1.6-0.8-3.7-1.9-6.1-3.1s-4.6-2.2-6.2-3c-0.9-0.4-1.7-0.8-2.5-1.3
		c0.9,0.2,1.8,0.6,2.7,1c1.6,0.7,3.9,1.7,6.3,2.9s4.6,2.4,6.1,3.3C226.6,290,227.4,290.5,228.1,291.1z"/>
	<path class="st6" d="M227.4,295.5c-0.7-0.1-1.3-0.4-1.9-0.7c-3-1.6-5.4-4-7-7c-0.4-0.6-0.6-1.2-0.8-1.9c1.1,2,2.5,3.9,4.1,5.6
		C223.5,292.9,225.4,294.3,227.4,295.5z"/>
	<path class="st6" d="M243.5,347.6c0,0.3-0.1,0.6-0.2,0.9c-0.3,0.8-0.7,1.7-1.2,2.4c-3.2,5.2-9.4,7.8-15.3,6.5
		c-0.9-0.2-1.7-0.5-2.5-0.8c-0.3-0.1-0.6-0.3-0.9-0.5c1.1,0.4,2.3,0.7,3.5,0.9c5.8,1.1,11.7-1.4,15-6.3
		C242.4,349.8,243,348.7,243.5,347.6z"/>
	<path class="st6" d="M239.7,346.1c-0.7,0.5-1.4,0.8-2.2,1c-1.8,0.6-3.7,0.9-5.7,0.9c-1.9,0.1-3.8,0-5.7-0.3
		c-0.8-0.1-1.6-0.3-2.3-0.5c0-0.2,3.6,0.5,8,0.4c1.9-0.1,3.8-0.3,5.6-0.8C238.8,346.4,239.7,346,239.7,346.1z"/>
	<path class="st6" d="M197.4,347.2c-0.6,0.7-1.3,1.3-2,1.8c-3.5,2.6-7.7,4.1-12,4.5c-0.9,0.1-1.8,0.1-2.7-0.1
		c0.9-0.2,1.7-0.3,2.6-0.3c4.2-0.5,8.3-2,11.8-4.4C195.9,348.1,196.6,347.6,197.4,347.2z"/>
	<path class="st6" d="M192.4,347c-3.4,0.9-7,0.6-10.3-0.8c0-0.1,2.3,0.5,5.1,0.7S192.4,346.8,192.4,347z"/>
	<path class="st6" d="M215.1,285.7c-0.8,0.5-1.7,0.9-2.6,1.2c-2.1,0.8-4.3,1.3-6.6,1.7c-2.2,0.4-4.5,0.5-6.8,0.4
		c-0.9,0-1.9-0.1-2.8-0.3c0.9-0.1,1.9-0.1,2.8-0.1c4.5-0.1,8.9-0.8,13.2-2.1C213.3,286.2,214.2,285.9,215.1,285.7z"/>
	<path class="st6" d="M213.6,279.9c0.2,0,0.3,0.5,0.3,1s-0.1,1-0.2,1s-0.3-0.4-0.3-1S213.4,279.9,213.6,279.9z"/>
	<path class="st6" d="M213.6,275.9c0.1,0,0.3,0.5,0.2,1s-0.1,1-0.3,1s-0.3-0.5-0.3-1S213.4,275.9,213.6,275.9z"/>
	<path class="st6" d="M213.7,271.9c0.1,0,0.2,0.5,0.2,1s-0.2,1-0.3,1s-0.2-0.5-0.2-1S213.5,271.9,213.7,271.9z"/>
	<path class="st6" d="M213.8,267.9c0.1,0,0.2,0.5,0.2,1s-0.2,1-0.3,1s-0.2-0.5-0.2-1S213.7,267.9,213.8,267.9z"/>
	<path class="st6" d="M214.1,263.9c0.1,0,0.2,0.5,0.2,1s-0.2,1-0.3,1s-0.2-0.5-0.2-1S213.9,263.9,214.1,263.9z"/>
	<path class="st6" d="M214.4,259.9c0.2,0,0.2,0.5,0.2,1s-0.2,1-0.3,1s-0.2-0.5-0.2-1S214.2,259.9,214.4,259.9z"/>
	<path class="st6" d="M214.7,256.6c0.1,0,0.2,0.3,0.2,0.7s-0.2,0.6-0.3,0.6s-0.2-0.3-0.2-0.7S214.5,256.6,214.7,256.6z"/>
	<path class="st6" d="M182.5,429c0.1,0,0.2,0.5,0.1,1s-0.3,1-0.5,0.9s-0.2-0.5-0.1-1S182.4,429,182.5,429z"/>
	<path class="st6" d="M183.3,425.1c0.1,0,0.2,0.5,0.1,1s-0.3,1-0.5,0.9s-0.2-0.5-0.1-1S183.2,425,183.3,425.1z"/>
	<path class="st6" d="M184.1,421.2c0.1,0,0.2,0.5,0.1,1s-0.3,1-0.5,0.9s-0.2-0.5-0.1-1S183.9,421.1,184.1,421.2z"/>
	<path class="st6" d="M184.9,417.2c0.1,0,0.2,0.5,0.1,1s-0.3,1-0.5,0.9s-0.2-0.5,0-1S184.7,417.2,184.9,417.2z"/>
	<path class="st6" d="M185.7,413.3c0.1,0,0.2,0.5,0.1,1s-0.3,1-0.5,0.9s-0.2-0.5-0.1-1S185.5,413.3,185.7,413.3z"/>
	<path class="st6" d="M186.4,409.4c0.1,0,0.2,0.5,0.1,1s-0.3,1-0.5,0.9s-0.2-0.5-0.1-1S186.3,409.3,186.4,409.4z"/>
	<path class="st6" d="M187.2,405.5c0.1,0,0.2,0.5,0.1,1s-0.3,1-0.5,0.9s-0.2-0.5-0.1-1S187.1,405.4,187.2,405.5z"/>
	<path class="st6" d="M188.1,401.5c0.1,0,0.2,0.5,0,1s-0.3,1-0.5,0.9s-0.2-0.5-0.1-1S187.9,401.5,188.1,401.5z"/>
	<path class="st7" d="M312,128.9h31.6c1.9,0,3.5,1.6,3.5,3.5v32.4c0,1.9-1.6,3.5-3.5,3.5H286c-1.9,0-3.5-1.6-3.5-3.5v-17v-15.4v-7
		c0-2.2,1.8-4,4-4H308c2.2,0,4,1.8,4,4V128.9L312,128.9z"/>
	<path class="st6" d="M188.8,397.6c0.1,0,0.2,0.5,0.1,1s-0.3,1-0.5,0.9s-0.2-0.5-0.1-1S188.7,397.6,188.8,397.6z"/>
	<path class="st6" d="M189.6,393.7c0.2,0,0.2,0.5,0.1,1s-0.3,1-0.5,0.9s-0.2-0.5-0.1-1S189.4,393.7,189.6,393.7z"/>
	<path class="st6" d="M190.4,389.8c0.1,0,0.2,0.5,0.1,1s-0.3,1-0.5,0.9s-0.2-0.5-0.1-1S190.2,389.7,190.4,389.8z"/>
	<path class="st6" d="M191.1,385.9c0.1,0,0.2,0.5,0.1,1s-0.3,1-0.5,0.9s-0.2-0.5-0.1-1S191.1,385.8,191.1,385.9z"/>
	<path class="st6" d="M191.9,381.9c0.1,0,0.2,0.5,0.1,1s-0.3,1-0.5,0.9s-0.2-0.5-0.1-1S191.8,381.9,191.9,381.9z"/>
	<path class="st6" d="M192.7,378c0.1,0,0.2,0.5,0.1,1s-0.3,1-0.5,0.9s-0.2-0.5-0.1-1S192.6,378,192.7,378z"/>
	<path class="st6" d="M193.5,374.1c0.1,0,0.2,0.5,0.1,1s-0.3,1-0.5,0.9s-0.2-0.5-0.1-1S193.4,374,193.5,374.1z"/>
	<path class="st6" d="M194.3,370.2c0.1,0,0.2,0.5,0.1,1s-0.3,1-0.5,0.9s-0.2-0.5-0.1-1S194.1,370.1,194.3,370.2z"/>
	<path class="st6" d="M195.1,366.2c0.1,0,0.2,0.5,0.1,1s-0.3,1-0.5,0.9s-0.2-0.5,0-1S194.9,366.2,195.1,366.2z"/>
	<path class="st6" d="M195.9,362.3c0.1,0,0.2,0.5,0.1,1s-0.3,1-0.5,0.9s-0.2-0.5-0.1-1S195.7,362.3,195.9,362.3z"/>
	<path class="st6" d="M196.6,358.4c0.1,0,0.2,0.5,0.1,1s-0.3,1-0.5,0.9s-0.2-0.5-0.1-1S196.5,358.4,196.6,358.4z"/>
	<path class="st6" d="M197.4,354.5c0.1,0,0.2,0.5,0.1,1s-0.3,1-0.5,0.9s-0.2-0.5-0.1-1S197.3,354.4,197.4,354.5z"/>
	<path class="st6" d="M198.2,350.5c0.1,0,0.2,0.5,0,1s-0.3,1-0.5,0.9s-0.2-0.5-0.1-1S198.1,350.5,198.2,350.5z"/>
	<path class="st6" d="M199,346.6c0.1,0,0.2,0.5,0.1,1s-0.3,1-0.5,0.9s-0.2-0.5-0.1-1S198.9,346.6,199,346.6z"/>
	<path class="st6" d="M199.8,342.7c0.2,0,0.2,0.5,0.1,1s-0.3,1-0.5,0.9s-0.2-0.5-0.1-1S199.6,342.7,199.8,342.7z"/>
	<path class="st6" d="M200.6,338.8c0.1,0,0.2,0.5,0.1,1s-0.3,1-0.5,0.9s-0.2-0.5-0.1-1S200.4,338.8,200.6,338.8z"/>
	<path class="st6" d="M201.3,334.9c0.2,0,0.2,0.5,0.1,1s-0.3,1-0.5,0.9s-0.2-0.5-0.1-1S201.2,334.8,201.3,334.9z"/>
	<path class="st6" d="M202.1,330.9c0.1,0,0.2,0.5,0.1,1s-0.3,1-0.5,0.9s-0.2-0.5-0.1-1S202,330.9,202.1,330.9z"/>
	<path class="st6" d="M202.9,327c0.1,0,0.2,0.5,0.1,1s-0.3,1-0.5,0.9s-0.2-0.5-0.1-1S202.8,327,202.9,327z"/>
	<path class="st6" d="M203.7,323.1c0.1,0,0.2,0.5,0.1,1s-0.3,1-0.5,0.9s-0.2-0.5-0.1-1S203.6,323.1,203.7,323.1z"/>
	<path class="st6" d="M204.5,319.2c0.1,0,0.2,0.5,0.1,1s-0.3,1-0.5,0.9s-0.2-0.5-0.1-1S204.3,319.1,204.5,319.2z"/>
	<path class="st6" d="M205.3,315.2c0.1,0,0.2,0.5,0.1,1s-0.3,1-0.5,0.9s-0.2-0.5-0.1-1S205.1,315.2,205.3,315.2z"/>
	<path class="st6" d="M206.1,311.3c0.1,0,0.2,0.5,0.1,1s-0.3,1-0.5,0.9s-0.2-0.5-0.1-1S205.9,311.3,206.1,311.3z"/>
	<path class="st6" d="M206.8,307.4c0.1,0,0.2,0.5,0.1,1s-0.3,1-0.5,0.9s-0.2-0.5,0-1S206.7,307.4,206.8,307.4z"/>
	<path class="st6" d="M207.6,303.5c0.1,0,0.2,0.5,0.1,1s-0.3,1-0.5,0.9s-0.2-0.5-0.1-1S207.5,303.5,207.6,303.5z"/>
	<path class="st6" d="M208.4,299.6c0.1,0,0.2,0.5,0.1,1s-0.3,1-0.5,0.9s-0.2-0.5-0.1-1S208.3,299.5,208.4,299.6z"/>
	<path class="st6" d="M209.2,295.6c0.1,0,0.2,0.5,0.1,1s-0.3,1-0.5,0.9s-0.2-0.5-0.1-1S209.1,295.6,209.2,295.6z"/>
	<path class="st6" d="M210,291.7c0.1,0,0.2,0.5,0,1s-0.3,1-0.5,0.9s-0.2-0.5-0.1-1S209.8,291.7,210,291.7z"/>
	<path class="st6" d="M210.8,287.8c0.1,0,0.2,0.5,0.1,1s-0.3,1-0.5,0.9s-0.2-0.5-0.1-1S210.6,287.8,210.8,287.8z"/>
	<path class="st8" d="M289.2,166.8c0,0,6.7-10,6.8-10.1l0,0c0,0,6-10.1,8-10.1s1.3,2.1-0.8,5.7c-1,1.6-1.7,3.3-2,5.2l4.9,3
		c0,0,3.3-1.3,3.4,1.8c0,1.4-0.2,2.8-0.6,4.2c-0.2,1.1-0.7,2.3-1.7,1.9c-0.5-0.2-0.9-0.7-0.9-1.2c-0.1-1.8,0.3-2.5,0-2.5
		s-3.5,9.5-3.5,9.5L289.2,166.8z"/>
	<path class="st8" d="M302.6,159c0.5-0.4,1-0.7,1.6-1c0.6-0.3,1.2-0.4,1.8-0.3c0.8,0.1,1.4,0.8,1.3,1.6c0,0.2-0.1,0.3-0.1,0.5
		c-0.2,0.5-0.5,1-0.8,1.4"/>
	<path class="st8" d="M300.4,157c0.5-0.3,1-0.6,1.5-0.9c0.5-0.3,1.1-0.3,1.7-0.3c0.4,0,0.7,0.2,1,0.5c0.3,0.4,0.4,1,0.2,1.4
		c-0.4,0.7-1,1.4-1.5,2"/>
	<path class="st8" d="M291.5,161.2l-9.6,20.6l10.6,10.8l5.6-15.3c0,0,3,0.6,4.2-1.4c1.3-2.2,3.1-8.5,3.1-8.5L291.5,161.2z"/>
	<path class="st8" d="M298.4,160.6c0.1-1,0.5-2,1.1-2.8c0.4-0.6,1-1.1,1.7-1.5c0.5-0.3,0.8-0.4,0.9-0.3s-1.2,0.8-2.1,2.1
		S298.5,160.7,298.4,160.6z"/>
	<path class="st8" d="M309.1,160.7c0,0.1-0.4-0.1-0.9-0.2c-0.7-0.1-1.5,0-2.1,0.3c-0.6,0.4-1.2,0.9-1.6,1.5
		c-0.3,0.5-0.6,0.8-0.6,0.8s0-0.4,0.3-0.9c0.3-0.8,0.9-1.4,1.6-1.8c0.8-0.4,1.6-0.5,2.5-0.2C308.8,160.4,309.1,160.7,309.1,160.7z"
		/>
	<path class="st8" d="M305.5,157.8c-0.8,0.4-1.5,0.8-2.3,1.3c-1.1,1-1.6,2.1-1.8,2c0.1-1,0.6-1.8,1.4-2.4c0.5-0.4,1.1-0.8,1.8-0.9
		C305.2,157.7,305.5,157.8,305.5,157.8z"/>
	<path class="st8" d="M307.8,162.3c0.1,0,0.4,0.7-0.1,1.5s-1.3,0.9-1.3,0.8s0.5-0.4,0.9-1S307.7,162.3,307.8,162.3z"/>
	<path class="st8" d="M289.2,166.4c0,0-0.3-6.1,1.2-7.5s5.7,0.1,5.7,0.1"/>
	<path class="st8" d="M296.7,156c-0.6,1.3-1.3,2.4-2.2,3.5c-0.7,1.2-1.6,2.2-2.6,3.2C293.2,160.3,294.8,158,296.7,156z"/>
	<path class="st8" d="M193.1,161.6c0.2-0.8,0.3-1.8,0.6-2.9c0.2-1,0.7-1.9,1.2-2.7c0.6-1.1,1.4-2,2.3-2.8c0.5-0.3,0.7-1,0.4-1.6
		c-0.2-0.3-0.5-0.5-0.9-0.5c-1,0-3.6,1.8-5.3,5s-2.8-2.5-3.2-4.5s-2-8.4-2.7-8.7c-1.1-0.6-1.9,0.5-1.4,2.5s1.4,8.3,0.3,8.4
		s-3-10.3-3-10.3s-0.1-2.3-1.3-2.2c-2.3,0.3,0.6,11.3,0.9,12.3c0.2,0.7-1,1-1.2,0.2s-1.7-10.5-4.1-10.2c-1.8,0.2,2.3,9.1,1.5,11.2
		s-2.4-7-4.1-6.8c-0.6,0.1-1.1,0.2,0.6,5.4c0.8,2.5,4,14.2,4,14.2l-1.8,9.6l14.6,3.7L193.1,161.6z"/>
	<path class="st8" d="M211.5,109.5l-0.2,47.9l20.6,1l0.6-11.6c0,0,7.3,1.4,9.2-5.3c1.2-4.3,0.9-37.8,0.9-37.8L211.5,109.5z"/>
	<path class="st3" d="M245.3,107c-3.2,0.9-4,6.2-4,6.2l-5.1,11.2c-2.6-2-6.1-1.9-6.7,2.6c-0.5,3.3,3.6,3.9,3.6,3.9
		c-2.4,4-4,7.3-7.5,11.2c-3.7,4.2-5.8,4.6-9.9,4.6h-4.5c0,0-2.2-7.1-6.2-24.9c-4.5-19.8,18.8-17.2,23.2-22.2
		C235.3,91.4,255.5,104,245.3,107z"/>
	<path class="st3" d="M205.5,123.7c-3.8-2.6-4.1-9.7-1.9-13.9c2.3-4.3,6.8-7.1,11.7-7.2c0.6,0,1.3,0,1.9-0.2c0.8-0.5,1.5-1.1,2-1.9
		c3.4-4.4,6.7-8.7,13-8.7c1.4-0.1,2.8,0.3,4,1c1.1,0.8,2,1.9,2.4,3.2c1.2-0.6,2.4-1.1,3.7-1.3c1.3-0.3,2.7,0.1,3.7,0.9
		c1,0.9,1.3,2.4,0.6,3.6c2.2,0,4.1,1.6,4.5,3.7c0.3,2.1-2.7,3.6-3,3.7c0,0,1.7,3.5-2.3,5.5c-1.6,0.8-3.7-0.2-3.9-0.3"/>
	<path class="st6" d="M220.5,128.3c0.3,1.2,0.2,2.5-0.1,3.6c-0.2,1.2-0.7,2.4-1.5,3.3c-0.1-0.1,0.5-1.5,1-3.4
		S220.4,128.4,220.5,128.3z"/>
	<path class="st6" d="M223.1,126c0.2,1.2,0.1,2.4-0.2,3.5c-0.1,1.2-0.5,2.3-1.1,3.3c0.1-1.2,0.3-2.3,0.6-3.4
		C222.5,128.3,222.7,127.1,223.1,126z"/>
	<path class="st6" d="M230.1,118.1c0,0.1-0.5,0.5-1.3,1.4c-1,1.1-1.7,2.4-2.2,3.8c-0.5,1.4-0.9,2.8-1.2,4.3
		c-0.1,0.6-0.3,1.2-0.5,1.8c0-0.6,0-1.3,0.2-1.9c0.2-1.5,0.6-3,1.1-4.4c0.5-1.5,1.4-2.8,2.4-3.9C229,118.7,229.6,118.3,230.1,118.1z
		"/>
	<path class="st6" d="M233.1,112.7c0.1,0,0.3,0.5,0.4,1.3c0.3,2.2-0.3,4.4-1.6,6.2c-0.5,0.7-0.9,1-1,0.9c0.8-1.3,1.4-2.6,1.8-4.1
		C233,115.7,233.1,114.2,233.1,112.7z"/>
	<path class="st6" d="M208.5,124.7c-0.1,0.1-0.7-0.1-1.4-0.5s-1.2-0.8-1.2-0.9s0.7,0.1,1.4,0.5S208.6,124.5,208.5,124.7z"/>
	<path class="st6" d="M218.4,119.6c0.1,0.7-0.1,1.5-0.6,2.1c-0.6,1.1-1.5,1.6-1.6,1.5s0.5-0.8,1.1-1.8S218.3,119.5,218.4,119.6z"/>
	<path class="st6" d="M221.5,117.9c0,0.9-0.3,1.8-0.9,2.5c-0.8,1.2-1.9,1.9-1.9,1.8c0.5-0.7,1-1.4,1.5-2.1
		C220.5,119.3,221,118.6,221.5,117.9z"/>
	<path class="st6" d="M236.7,97.9c0,0-0.4-0.3-1.1-0.7c-1.1-0.6-2.2-0.9-3.4-0.9c-1.8,0-3.5,0.4-5,1.4c-1.8,1.2-3.3,2.8-4.3,4.8
		c-0.8,1.4-1.3,2.9-1.8,4.5l-0.1,0.3l-0.3-0.1c-1.4-0.7-3-1.1-4.6-1.2c-1.3,0-2.5,0.2-3.7,0.6c-1.1,0.4-2.1,0.9-3,1.5
		c0.2-0.2,0.4-0.4,0.7-0.6c0.7-0.5,1.5-0.9,2.3-1.2c2.8-1.1,6-0.9,8.7,0.5l-0.4,0.2c0.4-1.6,1-3.1,1.8-4.6c1-2,2.6-3.8,4.5-5
		c1.6-1,3.4-1.4,5.3-1.3c1.3,0.1,2.5,0.4,3.5,1.1c0.3,0.2,0.5,0.4,0.8,0.6C236.6,97.7,236.7,97.8,236.7,97.9z"/>
	<path class="st6" d="M247.5,100.4c0,0,0.6-0.1,1.2,0.5c0.3,0.4,0.5,1,0.5,1.5c-0.1,0.7-0.6,1.4-1.2,1.7c-0.8,0.4-1.6,0.6-2.5,0.3
		c-0.9-0.2-1.8-0.7-2.6-1.2c-0.8-0.6-1.6-1.2-2.5-1.7c-0.9-0.5-2-0.9-3-1.1c-2.1-0.4-4.2-0.2-6.2,0.4c-1.6,0.5-3.2,1.3-4.6,2.3
		c-1.3,1-2.5,2-3.7,3.1c0.2-0.4,0.5-0.7,0.8-1c0.8-0.9,1.7-1.7,2.6-2.4c1.4-1.1,3-1.9,4.7-2.5c2.1-0.7,4.3-0.9,6.4-0.5
		c1.1,0.2,2.2,0.6,3.2,1.1c0.9,0.5,1.7,1.1,2.5,1.8c0.7,0.6,1.5,1,2.4,1.2c0.7,0.2,1.5,0.1,2.2-0.2c0.6-0.3,1-0.8,1.1-1.4
		c0.1-0.5-0.1-1-0.3-1.3C248.3,100.8,247.9,100.5,247.5,100.4z"/>
	<path class="st0" d="M190.6,159.7l-25.1,44.9c-1.4,4-0.7,8.5,1.9,11.9l-0.5-0.7c2,2.5,5.1,4,8.3,4h0.5c4.3,0,8.1-2.5,9.8-6.5l5.9-9
		L190.6,159.7z"/>
	<path class="st0" d="M245.1,156.5c-4.9-2.5-9.8-3.1-15.1-3.2c-6.2-0.2-14.9-1-21.6-0.3c0,0-20.3-0.6-20.4,15.1l2.7,60.4l-4.3,25.9
		l60.8,1.8l-0.4-30.5c0.8-15.9-0.8-38.4-0.8-38.4c0.9-8.5,5.6-12.4,6.3-18C252.7,164.4,249.4,158.8,245.1,156.5z"/>
	<path class="st3" d="M227.9,229.3c-0.3,0.3-0.6,0.6-0.9,0.9c-0.9,0.7-1.8,1.3-2.8,1.9c-6.6,3.8-14.7,3.9-21.4,0.4
		c-1-0.5-1.9-1.1-2.8-1.8c-0.3-0.2-0.7-0.5-0.9-0.8c0.1-0.1,1.4,1.1,3.9,2.3c6.7,3.3,14.5,3.1,21-0.4
		C226.5,230.4,227.8,229.2,227.9,229.3z"/>
	<path class="st3" d="M188,168c0.1,0.2,0.1,0.4,0.1,0.6c0,0.5,0.1,1,0.1,1.7c0.1,1.5,0.2,3.7,0.3,6.3c0.2,5.4,0.5,12.7,0.9,20.7
		s0.7,15.4,0.9,20.7c0.1,2.6,0.2,4.7,0.3,6.3c0,0.7,0,1.3,0.1,1.7c0,0.2,0,0.4,0,0.6c-0.1-0.2-0.1-0.4-0.1-0.6c0-0.4-0.1-1-0.2-1.7
		c-0.1-1.5-0.3-3.6-0.5-6.3c-0.4-5.3-0.8-12.6-1.1-20.7s-0.6-15.4-0.7-20.7c0-2.6-0.1-4.7-0.1-6.3c0-0.7,0-1.3,0-1.7
		C188,168.5,188,168.2,188,168z"/>
	<path class="st0" d="M175.2,173.3c0,0-2.3,6.8-2.7,7.7c0,0-5.7,16.4-7.5,27.5l18.2-32.8C183.3,175.7,175.5,173.3,175.2,173.3z"/>
	<path class="st3" d="M184.2,171.3c-0.1,0.2-0.1,0.3-0.2,0.5l-0.7,1.3c-0.6,1.1-1.5,2.8-2.7,4.8c-2.3,4-5.8,9.3-9.3,15.4
		c-1.8,3-3.2,6-4.5,8.8c-1.2,2.4-1.8,5-1.8,7.7c0.1,1.8,0.6,3.6,1.4,5.2c0.6,1.1,1.1,1.6,1.1,1.7s-0.1-0.1-0.4-0.4
		c-0.3-0.4-0.6-0.8-0.9-1.2c-0.9-1.6-1.5-3.4-1.6-5.2c-0.1-2.7,0.5-5.5,1.7-7.9c1.3-2.8,2.8-5.8,4.5-8.9c3.5-6.1,7-11.4,9.4-15.3
		l2.8-4.7l0.8-1.3C184.1,171.4,184.2,171.3,184.2,171.3z"/>
	<path class="st0" d="M296.1,188.1l-14.1-9.2l-8.9,15.4c0,0-12.3-17.1-17.9-27.1c-5.2-9.2-11.8-11.7-15-12.4
		c-0.8-0.2-1.5,0.3-1.7,1.1c0,0.1,0,0.3,0,0.4l4.8,33.3c0.6,1.7,10.8,16.5,16.4,23.9c9.5,12.4,23.4,4.5,27.3-4.2
		C290.1,202.4,294.8,191.9,296.1,188.1z"/>
	<path class="st0" d="M277.2,208.1c-0.2-0.7-0.3-1.5-0.3-2.2c-0.1-1.8-0.3-3.5-0.7-5.2c-0.3-1.7-1-3.4-1.8-4.9
		c-0.7-1.2-1.2-1.8-1.2-1.9c0.6,0.4,1.1,1,1.5,1.7c1,1.5,1.6,3.2,2,5c0.3,1.8,0.5,3.5,0.5,5.3C277.3,206.7,277.3,207.4,277.2,208.1z
		"/>
	<path class="st0" d="M281.3,201.3c-0.1,0-0.2-0.7-0.5-1.8c-0.5-1.4-1.2-2.7-2.2-3.8c-0.9-1.1-2.3-1.9-3.8-2c-0.6,0-1.2,0.1-1.7,0.4
		c0.5-0.5,1.1-0.7,1.8-0.7c1.6,0.1,3.1,0.8,4.1,2.1c1.1,1.1,1.8,2.5,2.2,4C281.4,200,281.4,200.6,281.3,201.3z"/>
	<path class="st0" d="M239.3,158.8c0,0-0.1,0.1-0.3,0.4l-0.4,0.4l-0.5,0.6c-1.1,1.4-1.9,3-2.4,4.7c-0.7,2.6-0.9,5.2-0.5,7.9
		c0.2,1.6,0.6,3.1,1.2,4.5c0.6,1.5,1.5,3,2.3,4.5c3.5,6,7,11.3,9.6,15.1c1.3,1.8,2.3,3.3,3.1,4.4c0.4,0.5,0.8,1.1,1.1,1.6
		c0,0-0.1-0.1-0.4-0.4s-0.5-0.6-0.9-1.1c-0.8-1-1.9-2.5-3.2-4.4c-2.7-3.7-6.2-8.9-9.7-15c-0.8-1.5-1.6-3-2.3-4.6
		c-0.6-1.5-1-3-1.2-4.6c-0.4-2.7-0.1-5.4,0.7-8c0.5-1.7,1.4-3.4,2.6-4.8l0.6-0.6l0.5-0.4C239.1,158.9,239.2,158.8,239.3,158.8z"/>
	<g class="st4">
		<path d="M223.6,232c4.5-2,8-6.7,8.2-11.5c0.1-1.3-0.3-2.6-1.1-3.6c-1.3-1.3-3.6-1.1-5.2-0.2c-2.7,1.4-4.5,4.1-6.4,6.5
			s-4.3,4.8-7.4,5.1c-1.3,0-2.6-0.1-3.9-0.3c-1.3-0.2-2.6-0.1-3.9,0.5c-1.2,0.6-1.9,1.9-1.6,3.3c0,0,5.4,3.3,11,3
			C216.8,234.4,220.3,233.5,223.6,232z"/>
	</g>
	<path class="st3" d="M239.3,247.3c-0.1,0.1-0.3,0.1-0.4,0.2l-1.3,0.4c-0.5,0.2-1.2,0.4-2,0.6s-1.7,0.5-2.7,0.7
		c-2.4,0.6-4.8,1-7.2,1.3c-5.9,0.8-11.9,0.8-17.9,0c-2.4-0.3-4.8-0.7-7.2-1.3c-1-0.2-1.9-0.5-2.7-0.7s-1.5-0.4-2-0.6l-1.3-0.4
		c-0.2,0-0.3-0.1-0.4-0.2c0.2,0,0.3,0,0.5,0.1l1.3,0.3c0.5,0.2,1.2,0.4,2,0.5s1.7,0.4,2.7,0.6c2,0.4,4.5,0.8,7.2,1.2
		c2.9,0.3,5.9,0.5,8.9,0.5c3,0,5.9-0.2,8.9-0.5c2.7-0.3,5.2-0.8,7.2-1.2c1-0.2,1.9-0.4,2.7-0.6s1.5-0.4,2-0.5l1.3-0.4
		C239,247.3,239.1,247.3,239.3,247.3z"/>
	<path class="st0" d="M441.4,350.9c-4.1-2.6-8.7-4.2-13.5-4.7c-2.2-0.2-4.6-0.2-6.4,1.2c-0.4,0.2-0.7,0.7-0.7,1.2
		c0.1,0.3,0.3,0.6,0.6,0.8C427.3,353.6,435,354.2,441.4,350.9"/>
	<path class="st0" d="M441,350.5c-3.1-2.3-6.1-4.9-8.8-7.7c-2.7-2.8-4.6-6.3-5.5-10.1c-0.4-1.1-0.2-2.4,0.4-3.4
		C434.2,334.7,439.7,341.8,441,350.5"/>
	<path class="st0" d="M441.3,350.8c-0.7-3.8-0.6-7.7,0.2-11.5c0.8-3.8,3-7.2,6.1-9.5c1.2,2.8,0.7,6.1-0.2,9
		c-1.3,4.6-3.4,8.9-6.1,12.8"/>
	<path class="st0" d="M448.2,363.1c-4.2,0.5-7.8,2.7-10.9,5.5c-3.1,2.8-5.3,6.6-6.2,10.7c4.1-0.2,7.5-3.1,10-6.3
		S445.3,366.2,448.2,363.1"/>
	<path class="st0" d="M449.6,365c-3.3-8.4-2.2-18,3.1-25.3C455.1,348.1,454.2,357.6,449.6,365"/>
	<path class="st0" d="M458.7,375.8c-7.8-0.5-15,3.7-18.5,10.7c-0.2,0.5-0.4,1-0.1,1.5c0.3,0.3,0.8,0.4,1.2,0.4
		c3.7-0.2,6.9-2.4,9.6-4.9S455.8,378,458.7,375.8"/>
	<path class="st0" d="M458.4,375.2c-1.9-6.3-2.1-13-0.3-19.3c0.7-2.5,1.8-5.1,4.1-6.3c0.2-0.1,0.4-0.2,0.6-0.1
		c0.2,0.1,0.3,0.3,0.4,0.5c0.8,1.7,1.1,3.6,1,5.5c-0.1,1.9-0.4,3.8-0.9,5.6c-0.7,3.4-1.1,7.1-3,10c-0.4,0.7-0.8,1.4-1.2,2.2
		c-0.4,0.8-0.4,1-0.7,1.6"/>
	<path class="st0" d="M482.3,378.8c-1.8-6.7,0.1-14.9,4.3-20.4c0.3-0.4,0.7-0.8,1.2-0.8c0.8,0.1,1,1.1,1,1.9
		C488.6,366.4,486.3,373.1,482.3,378.8"/>
	<path class="st0" d="M484.5,380.3c8.5,2,17.4,0.2,24.4-5c-4.1-2-8.8-2.6-13.2-1.6C491.2,374.6,487.2,376.6,484.5,380.3"/>
	<path class="st0" d="M486.3,375.8c4.6-7.5,13.4-12.4,22.1-12.8c-1,3.6-3.9,6.3-7.2,8c-3.4,1.5-7,2.6-10.6,3.1
		C489.1,374.3,487.2,374.6,486.3,375.8"/>
	<path class="st0" d="M482.8,354c1.4-4.2,2.3-8.6,2.8-13c0.5-4.4-0.5-8.9-2.6-12.8c-4.3,8.3-4.7,18-0.4,26.2"/>
	<path class="st0" d="M497.2,346.7c5-9.1,15.2-16.4,25.6-17.4C518.8,339.2,507.9,346.9,497.2,346.7"/>
	<path class="st0" d="M494,348.5c7.5,1.1,13.8,5.9,20.8,8.8c1.5,0.7,3.1,1,4.7,0.9c2,0,3.7-1.7,3.6-3.7c0-1.1-0.5-2.1-1.3-2.8
		c-1-0.9-2.2-1.6-3.4-2.1c-7.6-3.2-15.8-3.2-23.8-1.3"/>
	<path class="st0" d="M489.7,353.7c1.7,0.5,2.3,1.4,3.6,2.5c4.6,3.9,10,6.7,15.8,8.1c0.6,0.1,1.4,0.2,1.7-0.3s-0.1-1-0.4-1.5
		c-2.5-3-5.8-5.2-9.5-6.5c-3.6-1.4-6.8-3-11.2-2.6"/>
	<path class="st0" d="M484.8,322.1c6.2,5.7,14.5,8.5,22.9,7.8c0.4,0,0.7-0.1,1-0.4c0.6-0.6-0.1-1.6-0.8-2.1
		C501.2,322.1,493,320,484.8,322.1"/>
	<path class="st0" d="M490.6,320c8.2-6,18.8-7.8,28.6-4.7c-3.7,3.5-8.5,5.6-13.6,6C500.5,321.7,495.5,321.3,490.6,320"/>
	<path class="st0" d="M488.3,305.4c-0.7-6.7-0.2-12-0.7-18.8c0-0.5-0.2-1.2-0.7-1.4c-0.7-0.3-1.3,0.6-1.5,1.3
		c-2,6.3-0.9,13.2,2.9,18.7"/>
	<path class="st0" d="M487.8,306.2c4.4-2.8,8.2-6.5,11.1-10.8c2.2-3,4-6.6,3.5-10.3c-3.1,0.1-6,1.6-8,4c-1.9,2.4-3.3,5.2-4.1,8.2
		C489.5,300.3,488.9,303.3,487.8,306.2"/>
	<path class="st0" d="M498.8,303.1c10-3.7,19.3-9.2,27.4-16.1c-3.3-1.3-7-0.5-10.3,0.8c-7.4,2.8-13.6,8.3-17.2,15.3"/>
	<path class="st0" d="M490.9,309.9c5,0.7,10.2,0.7,15.2,0.1c4.9-0.8,9.6-2.8,14.2-4.7c0.4-0.1,0.8-0.4,1-0.7c0.1-0.4,0-0.9-0.3-1.2
		c-0.4-0.3-0.8-0.5-1.2-0.6c-5-1.4-10.4-0.7-15.3,0.9C499.7,305.2,495.2,307.3,490.9,309.9"/>
	<path class="st0" d="M462,322.3c-3.5-7-3.2-15.1-0.2-22.3c2.1,3.2,2.4,7.3,2,11.1s-1.5,7.7-1.6,11.5"/>
	<path class="st0" d="M448.2,315.4c-8.7-0.1-17.1,3.4-23.1,9.8c4.4,0.5,8.8-0.3,12.6-2.3c3.8-2,7.5-4.5,10.8-7.2"/>
	<path class="st0" d="M439,312.3c-4.2-0.3-8.3-0.9-12.3,0.4c-4.1,1.2-7.6,4.1-9.4,8c4,0.3,8-0.4,11.5-2.2
		C432.4,316.7,435.8,314.6,439,312.3"/>
	<path class="st0" d="M452.7,312.4c-3.8-2.5-7.7-5-12.1-6s-9.5-0.3-12.6,3c3.6,2.1,7.9,2.4,12,2.4s9.2,0,13.1,1.3"/>
	<path class="st0" d="M452.7,312.6c-6.5-6.4-8.9-17.8-6.3-26.5C451.5,293.9,453.7,303.3,452.7,312.6"/>
	<path class="st0" d="M470.5,294.6c1.2-2.8,2.1-5.8,3.2-8.7c1-2.9,2.5-5.6,4.5-8c2-2.4,4.9-3.9,8-4.2c-2,8.9-7.7,16.5-15.6,21"/>
	<path class="st0" d="M467.3,298.3c-2-2.8-4.4-6.6-7.1-8.6s-6.3-3.3-9.7-2.5C454.1,293.3,460.3,297.5,467.3,298.3"/>
	<path class="st0" d="M468,294.8c-1.5-3.3-2.5-6.8-3.2-10.4c-0.7-3.6-0.1-7.3,1.6-10.5c3.6,6.7,4.7,14,1.8,21"/>
	<path class="st0" d="M470.6,273.9c2-6.7,8.1-11.6,14.7-13.8c0.8-0.3,1.7-0.5,2.6-0.4c0.9,0.1,1.6,0.7,1.9,1.6
		c0.2,1.1-0.7,2.1-1.6,2.9C483,268.6,477,271.9,470.6,273.9"/>
	<path class="st0" d="M470.6,268.5c0.3-4.3,0.5-8.7,1.9-12.7s4.1-7.9,8-9.7c0.7,4.3-1.2,8.7-3.6,12.4s-5.1,7.3-6.5,11.4"/>
	<path class="st0" d="M470.5,271.4c-1.7-4.9-1.8-11-4.8-15.3c-2-3-5.3-5-7-8.1c-1.1,3-0.9,6.3,0.4,9.2c1.3,2.9,3.2,5.5,5.4,7.7
		C466.7,267.3,468.5,269,470.5,271.4"/>
	<path class="st3" d="M470.6,414.5c-0.1,0-0.2-32.4-0.2-72.4s0.1-72.4,0.2-72.4s0.2,32.4,0.2,72.4S470.7,414.5,470.6,414.5z"/>
	<path class="st3" d="M498.9,317.4c-0.4,0.2-0.8,0.3-1.2,0.5l-3.4,1.1c-2.8,1-6.7,2.4-10.9,4.1s-8.1,3.2-10.3,5.2
		c-0.9,0.7-1.6,1.7-2.1,2.8c-0.3,0.8-0.4,1.2-0.4,1.2s0-0.1,0-0.3c0.1-0.3,0.1-0.6,0.2-0.9c0.4-1.1,1.1-2.1,2-2.9
		c1.3-1.2,2.9-2.1,4.5-2.8c1.8-0.8,3.8-1.7,5.9-2.6c4.2-1.7,8.1-3.1,11-4c1.4-0.4,2.6-0.8,3.4-1C498,317.5,498.5,317.5,498.9,317.4z
		"/>
	<path class="st3" d="M508.2,294.6c-0.1,0.1-0.2,0.3-0.3,0.4l-1,1l-3.9,3.5L490,311c-5,4.5-9.4,8.8-12.4,12c-1.5,1.6-2.7,3-3.5,3.9
		l-0.9,1.1c-0.1,0.1-0.2,0.2-0.3,0.4c0,0,0.1-0.1,0.3-0.4s0.5-0.6,0.9-1.1c0.8-1,1.9-2.4,3.4-4c3.9-4.3,8-8.3,12.4-12.1
		c5.1-4.5,9.7-8.5,13-11.4l4-3.4l1.1-0.9C507.9,294.8,508,294.7,508.2,294.6z"/>
	<path class="st3" d="M484.6,315.6c-0.1,0,0.9-2.5,2-5.6s1.6-5.7,1.7-5.6c-0.1,2-0.5,3.9-1.2,5.8c-0.5,1.3-1,2.6-1.6,3.9
		C485.2,314.6,484.9,315.1,484.6,315.6z"/>
	<path class="st3" d="M470.6,335.2c-0.3-0.3-0.6-0.6-0.8-0.9l-2-2.5c-1.7-2.2-4-5.1-6.6-8.4s-5-6.2-6.7-8.3l-2-2.5
		c-0.3-0.3-0.5-0.6-0.7-1c0.3,0.2,0.6,0.5,0.8,0.8c0.5,0.6,1.2,1.4,2.2,2.4c1.8,2.1,4.2,5,6.8,8.2s4.9,6.3,6.5,8.5
		c0.8,1.1,1.5,2,1.9,2.6C470.2,334.5,470.4,334.8,470.6,335.2z"/>
	<path class="st3" d="M464.4,327.2c-1.3-1.4-2.2-3.1-2.6-4.9c-0.5-1.6-0.7-3.3-0.6-4.9h0.2c-0.1,0.4-0.2,0.6-0.2,0.6s0-0.2,0-0.6
		h0.2c0.1,1.6,0.4,3.2,0.8,4.8C462.8,323.9,463.5,325.6,464.4,327.2z"/>
	<path class="st3" d="M456.4,317.1c-0.6-0.4-1.2-0.8-1.8-1c-1.6-0.5-3.3-0.6-5-0.4c-1.7,0.1-3.4,0.4-5.1,0.8
		c-0.7,0.2-1.4,0.4-2.1,0.5c0.6-0.4,1.3-0.7,2-0.8c1.7-0.5,3.4-0.9,5.1-1c1.8-0.2,3.5,0,5.2,0.6C455.4,316,456,316.5,456.4,317.1z"
		/>
	<path class="st3" d="M454.5,314.7c0,0.1-1.1-0.4-2.8-1c-4.5-1.5-9.3-1.9-14-1.1c-1.8,0.3-2.9,0.6-2.9,0.6c0.2-0.1,0.5-0.3,0.7-0.3
		c0.7-0.2,1.4-0.4,2.1-0.6c4.7-1,9.7-0.7,14.2,1.1c0.7,0.3,1.4,0.6,2,0.9C454.1,314.4,454.3,314.5,454.5,314.7z"/>
	<path class="st3" d="M470.5,304.3c-0.8-2.3-1.5-4.6-2-7c-0.7-2.4-1.2-4.7-1.6-7.2c0.8,2.3,1.5,4.7,2,7.1
		C469.6,299.6,470.2,301.9,470.5,304.3z"/>
	<path class="st3" d="M470.7,304.3c-0.7-1.5-1.4-2.9-2.2-4.2c-1-1.3-2.1-2.4-3.3-3.4c0.5,0.1,0.9,0.3,1.3,0.7
		c0.9,0.7,1.8,1.5,2.4,2.5C469.8,301.2,470.4,302.7,470.7,304.3z"/>
	<path class="st3" d="M470.6,397.2c0,0-0.2-0.8-0.5-2.1c-0.5-1.9-1.3-3.8-2.2-5.6c-3.1-5.9-7-11.3-11.5-16.2
		c-2.6-2.9-5.1-5.7-7.2-8.3c-1.9-2.3-3.6-4.8-5.1-7.4c-1-1.8-1.9-3.6-2.6-5.5c-0.2-0.7-0.4-1.2-0.5-1.6c-0.1-0.2-0.1-0.4-0.1-0.6
		c0,0,0.3,0.7,0.8,2.1c0.8,1.9,1.7,3.7,2.7,5.4c1.5,2.5,3.3,5,5.2,7.3c2.1,2.6,4.6,5.4,7.2,8.3c5.2,5.8,9.3,11.7,11.4,16.4
		c0.9,1.8,1.5,3.7,2,5.7c0.2,0.7,0.2,1.2,0.3,1.6C470.5,396.9,470.6,397.1,470.6,397.2z"/>
	<path class="st3" d="M496.2,368.3c-0.4,0.3-0.9,0.5-1.3,0.8c-1.2,0.7-2.4,1.5-3.5,2.3c-1.6,1.3-3.2,2.7-4.6,4.2
		c-1.6,1.7-3.3,3.7-5,5.8c-3.4,4.2-6.5,8-8.4,11c-1,1.5-1.7,2.7-2.1,3.6c-0.2,0.5-0.5,0.9-0.7,1.4c0,0,0-0.1,0.1-0.4s0.2-0.6,0.5-1
		c0.6-1.3,1.3-2.5,2-3.7c2.6-3.9,5.4-7.6,8.4-11.2c1.7-2.1,3.4-4.1,5-5.8c1.4-1.5,3-2.9,4.7-4.1c1.1-0.8,2.3-1.6,3.6-2.2
		c0.5-0.2,0.8-0.4,1-0.5S496.2,368.3,496.2,368.3z"/>
	<path class="st3" d="M496.7,377.7c-0.9,0.2-1.9,0.3-2.8,0.4c-2.3,0.2-4.5,0.7-6.7,1.3c-2.2,0.7-4.2,1.8-6,3.2c-1.4,1.1-2,2-2.1,1.9
		c0.1-0.2,0.2-0.5,0.4-0.6c0.4-0.6,0.9-1.1,1.5-1.5c1.8-1.5,3.8-2.6,6.1-3.4c2.2-0.7,4.5-1.1,6.8-1.2
		C494.8,377.7,495.7,377.7,496.7,377.7z"/>
	<path class="st3" d="M479.8,383.5c-0.2-0.1,1.1-2,2.1-4.7s1.2-5,1.3-4.9c0.1,0.5,0.1,1,0,1.5c-0.1,1.2-0.4,2.4-0.8,3.6
		c-0.4,1.2-1,2.3-1.7,3.3C480.2,383.1,479.9,383.5,479.8,383.5z"/>
	<path class="st3" d="M504.5,343.2c-0.1,0.1-0.3,0.2-0.5,0.2l-1.3,0.6c-0.6,0.2-1.3,0.6-2.1,1s-1.7,0.8-2.7,1.4l-1.5,0.9
		c-0.5,0.3-1.1,0.7-1.6,1c-1.1,0.7-2.3,1.5-3.5,2.4c-2.6,2-5,4.1-7.3,6.4c-2.2,2.4-4.3,4.9-6.2,7.5c-0.8,1.2-1.6,2.4-2.3,3.6
		c-0.3,0.6-0.7,1.1-1,1.7l-0.8,1.6c-0.5,1-0.9,1.9-1.3,2.8s-0.7,1.5-0.9,2.1s-0.4,1-0.6,1.4c-0.1,0.2-0.1,0.3-0.2,0.5
		c0-0.2,0.1-0.3,0.1-0.5c0.1-0.4,0.3-0.8,0.5-1.4s0.5-1.3,0.8-2.2s0.7-1.8,1.3-2.8l0.8-1.6c0.3-0.5,0.6-1.1,1-1.7
		c0.7-1.2,1.5-2.4,2.3-3.6c1.9-2.7,3.9-5.2,6.2-7.6c2.3-2.3,4.8-4.5,7.4-6.5c1.2-0.9,2.4-1.7,3.5-2.4c0.6-0.4,1.1-0.7,1.7-1
		s1.1-0.6,1.6-0.9c1-0.6,1.9-1,2.8-1.4c0.7-0.3,1.4-0.7,2.1-0.9l1.4-0.5C504.1,343.2,504.3,343.2,504.5,343.2z"/>
	<path class="st3" d="M484.2,356.7c0.2-0.7,0.6-1.2,1.1-1.7c1.2-1.1,2.8-1.7,4.5-1.7c1.6,0,3.2,0.3,4.7,0.9c0.6,0.2,1.2,0.5,1.8,0.9
		c-0.6-0.1-1.3-0.3-1.9-0.5c-1.5-0.5-3-0.8-4.6-0.8c-1.6,0-3.1,0.6-4.3,1.5C485.1,355.8,484.6,356.2,484.2,356.7z"/>
	<path class="st3" d="M481.2,359.9c1.4-2.6,1.7-5.6,1-8.5c0.3,0.4,0.4,0.8,0.5,1.2c0.3,1,0.4,2.1,0.2,3.2c-0.1,1.1-0.5,2.1-1,3
		C481.6,359.5,481.2,359.9,481.2,359.9z"/>
	<path class="st6" d="M448.2,401.9c0.7,12.4,4.4,25,10.2,37.7h25c5.5-12.6,9-25.2,9.6-37.7H448.2z"/>
	<path class="st9" d="M488.9,421.9c0,0.1-8.2,0.2-18.4,0.2s-18.4-0.1-18.4-0.2s8.2-0.2,18.4-0.2S488.9,421.8,488.9,421.9z"/>
	<path class="st9" d="M488.3,426.4c0,0.1-7.7,0.2-17.2,0.2s-17.2-0.1-17.2-0.2s7.7-0.2,17.2-0.2S488.3,426.3,488.3,426.4z"/>
	<g>
		<g class="st10">
		</g>
		
			<radialGradient id="SVGID_1_" cx="452.1168" cy="164.4492" r="39.56" gradientTransform="matrix(1.7 0 0 0.7286 -294.8476 47.9167)" gradientUnits="userSpaceOnUse">
			<stop  offset="0" style="stop-color:#E3E3E3"/>
			<stop  offset="1" style="stop-color:#D9D9D9"/>
		</radialGradient>
		<rect x="378.9" y="164.6" class="st11" width="189.7" height="6.2"/>
		
			<radialGradient id="SVGID_2_" cx="452.1168" cy="163.541" r="39.4543" gradientTransform="matrix(1.7 0 0 1 -294.8476 0)" gradientUnits="userSpaceOnUse">
			<stop  offset="0" style="stop-color:#F7F7F7"/>
			<stop  offset="0.5286" style="stop-color:#F2F2F2"/>
			<stop  offset="1" style="stop-color:#E8E8E8"/>
		</radialGradient>
		<polygon class="st12" points="552.8,162.3 396.2,162.3 378.9,164.8 568.6,164.8 		"/>
	</g>
	<path class="st0" d="M459.9,137.3h-19.2v-2.1c0-1.3-1.1-2.4-2.4-2.4h-13.1c-1.3,0-2.4,1.1-2.4,2.4v4.2v9.3V159c0,1.2,1,2.1,2.1,2.1
		h34.9c1.2,0,2.1-1,2.1-2.1v-19.6C462,138.3,461,137.3,459.9,137.3z M441.2,142.9c1.2,0,2.2,1,2.2,2.2c0,1.2-1.1,2.2-2.2,2.2
		c-1.2,0-2.2-1-2.2-2.2C439,143.9,440,142.9,441.2,142.9z M450.2,154.6c-0.4,0.8-1.3,1.2-2.1,1.2h-7.7c-0.9,0-1.7-0.5-2.2-1.3
		c-0.5-0.8-0.5-1.7-0.1-2.5l1-2c0.4-0.7,0.9-1.1,1.5-1.2s1.2,0.2,1.7,0.8l0.1,0.2c0.2,0.3,0.5,0.5,0.8,0.5c0.3,0,0.6-0.2,0.8-0.6
		l1.2-2.1c0.5-0.8,1.1-1.3,1.7-1.3c0.7,0.1,1.3,0.5,1.6,1.4l1.9,4.4C450.9,153,450.7,153.9,450.2,154.6z"/>
	<path class="st0" d="M505.9,149.1l-1.7-1c-0.2-0.1-0.5-0.2-0.6-0.2c-0.1,0-0.2,0-0.3,0.1c-0.3,0.1-0.4,0.5-0.4,0.8v1.9
		c0,0.4,0.1,0.7,0.3,0.8s0.5,0.1,0.9-0.1l1.7-1c0.4-0.2,0.6-0.5,0.6-0.7C506.5,149.6,506.3,149.3,505.9,149.1z"/>
	<path class="st0" d="M521.6,138.1h-19.2V136c0-1.3-1.1-2.4-2.4-2.4H487c-1.3,0-2.4,1.1-2.4,2.4v4.2v9.3v10.3c0,1.2,1,2.1,2.1,2.1
		h34.9c1.2,0,2.1-1,2.1-2.1v-19.6C523.8,139.1,522.8,138.1,521.6,138.1z M511.4,151.8c0,3.5-1.6,5.1-5.1,5.1h-3.9
		c-3.5,0-5.1-1.5-5.1-5.1v-3.9c0-3.5,1.5-5.1,5.1-5.1h3.9c3.5,0,5.1,1.5,5.1,5.1V151.8z"/>
</g>
</svg>
