<?xml version="1.0" encoding="utf-8"?>
<!-- Generator: Adobe Illustrator 24.1.2, SVG Export Plug-In . SVG Version: 6.00 Build 0)  -->
<svg version="1.1" id="Layer_1" xmlns="http://www.w3.org/2000/svg" xmlns:xlink="http://www.w3.org/1999/xlink" x="0px" y="0px"
	 viewBox="0 0 460 424" style="enable-background:new 0 0 460 424;" xml:space="preserve">
<style type="text/css">
	.st0{fill:#E0E0E0;}
	.st1{fill:#F0F0F0;}
	.st2{fill:#053054;}
	.st3{fill:url(#SVGID_1_);}
	.st4{fill:url(#SVGID_2_);}
	.st5{fill:#FFFFFF;}
	.st6{fill:#0063AD;}
	.st7{opacity:0.5;}
	.st8{clip-path:url(#SVGID_4_);fill:#FFFFFF;}
	.st9{clip-path:url(#SVGID_4_);fill:#FEFFFF;}
	.st10{clip-path:url(#SVGID_4_);fill:#FEFEFF;}
	.st11{clip-path:url(#SVGID_4_);fill:#FEFEFE;}
	.st12{clip-path:url(#SVGID_4_);fill:#FDFEFE;}
	.st13{clip-path:url(#SVGID_4_);fill:#FDFDFE;}
	.st14{clip-path:url(#SVGID_4_);fill:#FCFDFE;}
	.st15{clip-path:url(#SVGID_4_);fill:#FBFCFE;}
	.st16{clip-path:url(#SVGID_4_);fill:#FBFCFD;}
	.st17{clip-path:url(#SVGID_4_);fill:#FAFBFD;}
	.st18{clip-path:url(#SVGID_4_);fill:#F9FBFD;}
	.st19{clip-path:url(#SVGID_4_);fill:#F9FAFC;}
	.st20{clip-path:url(#SVGID_4_);fill:#F8FAFC;}
	.st21{clip-path:url(#SVGID_4_);fill:#F7F9FC;}
	.st22{clip-path:url(#SVGID_4_);fill:#F6F9FB;}
	.st23{clip-path:url(#SVGID_4_);fill:#F6F8FB;}
	.st24{clip-path:url(#SVGID_4_);fill:#F5F8FB;}
	.st25{clip-path:url(#SVGID_4_);fill:#F5F7FB;}
	.st26{clip-path:url(#SVGID_4_);fill:#F4F7FB;}
	.st27{clip-path:url(#SVGID_4_);fill:#F4F7FA;}
	.st28{clip-path:url(#SVGID_4_);fill:#F3F6FA;}
	.st29{clip-path:url(#SVGID_4_);fill:#F2F6FA;}
	.st30{clip-path:url(#SVGID_4_);fill:#F2F5FA;}
	.st31{clip-path:url(#SVGID_4_);fill:#F1F5F9;}
	.st32{clip-path:url(#SVGID_4_);fill:#F1F4F9;}
	.st33{clip-path:url(#SVGID_4_);fill:#F0F4F9;}
	.st34{clip-path:url(#SVGID_4_);fill:#EFF4F9;}
	.st35{clip-path:url(#SVGID_4_);fill:#EFF3F8;}
	.st36{clip-path:url(#SVGID_4_);fill:#EEF3F8;}
	.st37{clip-path:url(#SVGID_4_);fill:#EEF2F8;}
	.st38{clip-path:url(#SVGID_4_);fill:#EDF2F8;}
	.st39{clip-path:url(#SVGID_4_);fill:#ECF1F7;}
	.st40{clip-path:url(#SVGID_4_);fill:#EBF0F7;}
	.st41{clip-path:url(#SVGID_4_);fill:#EAF0F6;}
	.st42{clip-path:url(#SVGID_4_);fill:#EAEFF6;}
	.st43{clip-path:url(#SVGID_4_);fill:#E9EFF6;}
	.st44{clip-path:url(#SVGID_4_);fill:#E8EEF6;}
	.st45{clip-path:url(#SVGID_4_);fill:#E7EEF5;}
	.st46{clip-path:url(#SVGID_4_);fill:#E7EDF5;}
	.st47{clip-path:url(#SVGID_4_);fill:#E6EDF5;}
	.st48{clip-path:url(#SVGID_4_);fill:#E5ECF4;}
	.st49{clip-path:url(#SVGID_4_);fill:#E4EBF4;}
	.st50{clip-path:url(#SVGID_4_);fill:#E3EBF4;}
	.st51{clip-path:url(#SVGID_4_);fill:#E2EAF3;}
	.st52{clip-path:url(#SVGID_4_);fill:#E1E9F3;}
	.st53{clip-path:url(#SVGID_4_);fill:#E0E8F2;}
	.st54{clip-path:url(#SVGID_4_);fill:#DFE8F2;}
	.st55{clip-path:url(#SVGID_4_);fill:#DFE7F2;}
	.st56{clip-path:url(#SVGID_4_);fill:#DEE7F1;}
	.st57{clip-path:url(#SVGID_4_);fill:#DDE6F1;}
	.st58{clip-path:url(#SVGID_4_);fill:#DCE6F1;}
	.st59{clip-path:url(#SVGID_4_);fill:#DCE5F0;}
	.st60{clip-path:url(#SVGID_4_);fill:#DBE4F0;}
	.st61{clip-path:url(#SVGID_4_);fill:#DAE4F0;}
	.st62{clip-path:url(#SVGID_4_);fill:#D9E3EF;}
	.st63{clip-path:url(#SVGID_4_);fill:#D8E3EF;}
	.st64{clip-path:url(#SVGID_4_);fill:#D7E2EF;}
	.st65{clip-path:url(#SVGID_4_);fill:#D7E1EE;}
	.st66{clip-path:url(#SVGID_4_);fill:#D6E1EE;}
	.st67{clip-path:url(#SVGID_4_);fill:#D5E0EE;}
	.st68{clip-path:url(#SVGID_4_);fill:#D4E0ED;}
	.st69{clip-path:url(#SVGID_4_);fill:#D3DFED;}
	.st70{clip-path:url(#SVGID_4_);fill:#D2DEED;}
	.st71{clip-path:url(#SVGID_4_);fill:#D2DEEC;}
	.st72{clip-path:url(#SVGID_4_);fill:#D1DDEC;}
	.st73{clip-path:url(#SVGID_4_);fill:#D0DCEC;}
	.st74{clip-path:url(#SVGID_4_);fill:#CFDCEB;}
	.st75{clip-path:url(#SVGID_4_);fill:#CEDBEB;}
	.st76{clip-path:url(#SVGID_4_);fill:#CDDBEB;}
	.st77{clip-path:url(#SVGID_4_);fill:#CCDAEA;}
	.st78{clip-path:url(#SVGID_4_);fill:#CCD9EA;}
	.st79{clip-path:url(#SVGID_4_);fill:#CBD9E9;}
	.st80{clip-path:url(#SVGID_4_);fill:#CAD8E9;}
	.st81{clip-path:url(#SVGID_4_);fill:#C9D7E9;}
	.st82{clip-path:url(#SVGID_4_);fill:#C8D7E8;}
	.st83{clip-path:url(#SVGID_4_);fill:#C7D6E8;}
	.st84{clip-path:url(#SVGID_4_);fill:#C6D5E8;}
	.st85{clip-path:url(#SVGID_4_);fill:#C5D5E7;}
	.st86{clip-path:url(#SVGID_4_);fill:#C4D4E7;}
	.st87{clip-path:url(#SVGID_4_);fill:#C3D3E6;}
	.st88{clip-path:url(#SVGID_4_);fill:#C2D3E6;}
	.st89{clip-path:url(#SVGID_4_);fill:#C1D2E6;}
	.st90{clip-path:url(#SVGID_4_);fill:#C1D1E5;}
	.st91{clip-path:url(#SVGID_4_);fill:#C0D1E5;}
	.st92{clip-path:url(#SVGID_4_);fill:#BFD0E5;}
	.st93{clip-path:url(#SVGID_4_);fill:#BECFE4;}
	.st94{clip-path:url(#SVGID_4_);fill:#BDCEE4;}
	.st95{clip-path:url(#SVGID_4_);fill:#BCCEE3;}
	.st96{clip-path:url(#SVGID_4_);fill:#BBCDE3;}
	.st97{clip-path:url(#SVGID_4_);fill:#BACCE3;}
	.st98{clip-path:url(#SVGID_4_);fill:#B9CCE2;}
	.st99{clip-path:url(#SVGID_4_);fill:#B8CBE2;}
	.st100{clip-path:url(#SVGID_4_);fill:#B7CAE1;}
	.st101{clip-path:url(#SVGID_4_);fill:#B6C9E1;}
	.st102{clip-path:url(#SVGID_4_);fill:#B5C9E1;}
	.st103{clip-path:url(#SVGID_4_);fill:#B4C8E0;}
	.st104{clip-path:url(#SVGID_4_);fill:#B3C7E0;}
	.st105{clip-path:url(#SVGID_4_);fill:#B2C7DF;}
	.st106{clip-path:url(#SVGID_4_);fill:#B1C6DF;}
	.st107{clip-path:url(#SVGID_4_);fill:#B0C5DE;}
	.st108{clip-path:url(#SVGID_4_);fill:#AFC4DE;}
	.st109{clip-path:url(#SVGID_4_);fill:#AEC4DE;}
	.st110{clip-path:url(#SVGID_4_);fill:#ADC3DD;}
	.st111{clip-path:url(#SVGID_4_);fill:#ACC2DD;}
	.st112{clip-path:url(#SVGID_4_);fill:#ABC1DC;}
	.st113{clip-path:url(#SVGID_4_);fill:#AAC1DC;}
	.st114{clip-path:url(#SVGID_4_);fill:#A9C0DC;}
	.st115{clip-path:url(#SVGID_4_);fill:#A8BFDB;}
	.st116{clip-path:url(#SVGID_4_);fill:#A7BEDB;}
	.st117{clip-path:url(#SVGID_4_);fill:#A6BEDA;}
	.st118{clip-path:url(#SVGID_4_);fill:#A5BDDA;}
	.st119{clip-path:url(#SVGID_4_);fill:#A4BCD9;}
	.st120{clip-path:url(#SVGID_4_);fill:#A3BBD9;}
	.st121{clip-path:url(#SVGID_4_);fill:#A1BAD8;}
	.st122{clip-path:url(#SVGID_4_);fill:#A0BAD8;}
	.st123{clip-path:url(#SVGID_4_);fill:#9FB9D8;}
	.st124{clip-path:url(#SVGID_4_);fill:#9EB8D7;}
	.st125{clip-path:url(#SVGID_4_);fill:#9DB7D7;}
	.st126{clip-path:url(#SVGID_4_);fill:#9CB6D6;}
	.st127{clip-path:url(#SVGID_4_);fill:#9BB6D6;}
	.st128{clip-path:url(#SVGID_4_);fill:#9AB5D5;}
	.st129{clip-path:url(#SVGID_4_);fill:#99B4D5;}
	.st130{clip-path:url(#SVGID_4_);fill:#98B3D4;}
	.st131{clip-path:url(#SVGID_4_);fill:#97B2D4;}
	.st132{clip-path:url(#SVGID_4_);fill:#96B2D4;}
	.st133{clip-path:url(#SVGID_4_);fill:#94B1D3;}
	.st134{clip-path:url(#SVGID_4_);fill:#93B0D3;}
	.st135{clip-path:url(#SVGID_4_);fill:#92AFD2;}
	.st136{clip-path:url(#SVGID_4_);fill:#91AED2;}
	.st137{clip-path:url(#SVGID_4_);fill:#90AED1;}
	.st138{clip-path:url(#SVGID_4_);fill:#8FADD1;}
	.st139{clip-path:url(#SVGID_4_);fill:#8EACD0;}
	.st140{clip-path:url(#SVGID_4_);fill:#8DABD0;}
	.st141{clip-path:url(#SVGID_4_);fill:#8CAACF;}
	.st142{clip-path:url(#SVGID_4_);fill:#8AA9CF;}
	.st143{clip-path:url(#SVGID_4_);fill:#89A9CF;}
	.st144{clip-path:url(#SVGID_4_);fill:#88A8CE;}
	.st145{clip-path:url(#SVGID_4_);fill:#87A7CE;}
	.st146{clip-path:url(#SVGID_4_);fill:#86A6CD;}
	.st147{clip-path:url(#SVGID_4_);fill:#85A5CD;}
	.st148{clip-path:url(#SVGID_4_);fill:#84A4CC;}
	.st149{clip-path:url(#SVGID_4_);fill:#82A4CC;}
	.st150{clip-path:url(#SVGID_4_);fill:#81A3CB;}
	.st151{clip-path:url(#SVGID_4_);fill:#80A2CB;}
	.st152{clip-path:url(#SVGID_4_);fill:#7FA1CA;}
	.st153{clip-path:url(#SVGID_4_);fill:#7EA0CA;}
	.st154{clip-path:url(#SVGID_4_);fill:#7D9FC9;}
	.st155{clip-path:url(#SVGID_4_);fill:#7B9EC9;}
	.st156{clip-path:url(#SVGID_4_);fill:#7A9EC8;}
	.st157{clip-path:url(#SVGID_4_);fill:#799DC8;}
	.st158{clip-path:url(#SVGID_4_);fill:#789CC7;}
	.st159{clip-path:url(#SVGID_4_);fill:#779BC7;}
	.st160{clip-path:url(#SVGID_4_);fill:#759AC6;}
	.st161{clip-path:url(#SVGID_4_);fill:#7499C6;}
	.st162{clip-path:url(#SVGID_4_);fill:#7398C5;}
	.st163{clip-path:url(#SVGID_4_);fill:#7297C5;}
	.st164{clip-path:url(#SVGID_4_);fill:#7197C4;}
	.st165{clip-path:url(#SVGID_4_);fill:#6F96C4;}
	.st166{clip-path:url(#SVGID_4_);fill:#6E95C3;}
	.st167{clip-path:url(#SVGID_4_);fill:#6D94C3;}
	.st168{clip-path:url(#SVGID_4_);fill:#6C93C2;}
	.st169{clip-path:url(#SVGID_4_);fill:#6B92C2;}
	.st170{clip-path:url(#SVGID_4_);fill:#6991C1;}
	.st171{clip-path:url(#SVGID_4_);fill:#6890C1;}
	.st172{clip-path:url(#SVGID_4_);fill:#678FC0;}
	.st173{clip-path:url(#SVGID_4_);fill:#668FC0;}
	.st174{clip-path:url(#SVGID_4_);fill:#648EBF;}
	.st175{clip-path:url(#SVGID_4_);fill:#638DBF;}
	.st176{clip-path:url(#SVGID_4_);fill:#628CBE;}
	.st177{clip-path:url(#SVGID_4_);fill:#618BBE;}
	.st178{clip-path:url(#SVGID_4_);fill:#5F8ABD;}
	.st179{clip-path:url(#SVGID_4_);fill:#5E89BD;}
	.st180{clip-path:url(#SVGID_4_);fill:#5D88BC;}
	.st181{clip-path:url(#SVGID_4_);fill:#5C87BC;}
	.st182{clip-path:url(#SVGID_4_);fill:#5A86BB;}
	.st183{clip-path:url(#SVGID_4_);fill:#5985BB;}
	.st184{clip-path:url(#SVGID_4_);fill:#5884BA;}
	.st185{clip-path:url(#SVGID_4_);fill:#5784BA;}
	.st186{clip-path:url(#SVGID_4_);fill:#5583B9;}
	.st187{clip-path:url(#SVGID_4_);fill:#5482B9;}
	.st188{clip-path:url(#SVGID_4_);fill:#5381B8;}
	.st189{clip-path:url(#SVGID_4_);fill:#5280B8;}
	.st190{clip-path:url(#SVGID_4_);fill:#507FB7;}
	.st191{clip-path:url(#SVGID_4_);fill:#4F7EB7;}
	.st192{clip-path:url(#SVGID_4_);fill:#4E7DB6;}
	.st193{clip-path:url(#SVGID_4_);fill:#4C7CB5;}
	.st194{clip-path:url(#SVGID_4_);fill:#4B7BB5;}
	.st195{clip-path:url(#SVGID_4_);fill:#4A7AB4;}
	.st196{clip-path:url(#SVGID_4_);fill:#4979B4;}
	.st197{clip-path:url(#SVGID_4_);fill:#4778B3;}
	.st198{clip-path:url(#SVGID_4_);fill:#4677B3;}
	.st199{clip-path:url(#SVGID_4_);fill:#4576B2;}
	.st200{clip-path:url(#SVGID_4_);fill:#4375B2;}
	.st201{clip-path:url(#SVGID_4_);fill:#4274B1;}
	.st202{clip-path:url(#SVGID_4_);fill:#4173B1;}
	.st203{clip-path:url(#SVGID_4_);fill:#3F72B0;}
	.st204{clip-path:url(#SVGID_4_);fill:#3E72B0;}
	.st205{clip-path:url(#SVGID_4_);fill:#3D71AF;}
	.st206{clip-path:url(#SVGID_4_);fill:#3B70AE;}
	.st207{clip-path:url(#SVGID_4_);fill:#3A6FAE;}
	.st208{clip-path:url(#SVGID_4_);fill:#396EAD;}
	.st209{clip-path:url(#SVGID_4_);fill:#376DAD;}
	.st210{clip-path:url(#SVGID_4_);fill:#366CAC;}
	.st211{clip-path:url(#SVGID_4_);fill:#356BAC;}
	.st212{clip-path:url(#SVGID_4_);fill:#336AAB;}
	.st213{clip-path:url(#SVGID_4_);fill:#3269AB;}
	.st214{clip-path:url(#SVGID_4_);fill:#3168AA;}
	.st215{clip-path:url(#SVGID_4_);fill:#2F67AA;}
	.st216{clip-path:url(#SVGID_4_);fill:#2E66A9;}
	.st217{clip-path:url(#SVGID_4_);fill:#2D65A8;}
	.st218{clip-path:url(#SVGID_4_);fill:#2B64A8;}
	.st219{clip-path:url(#SVGID_4_);fill:#2A63A7;}
	.st220{clip-path:url(#SVGID_4_);fill:#2962A7;}
	.st221{clip-path:url(#SVGID_4_);fill:#2761A6;}
	.st222{clip-path:url(#SVGID_4_);fill:#2660A6;}
	.st223{clip-path:url(#SVGID_4_);fill:#255FA5;}
	.st224{clip-path:url(#SVGID_4_);fill:#235EA4;}
	.st225{clip-path:url(#SVGID_4_);fill:#225DA4;}
	.st226{clip-path:url(#SVGID_4_);fill:#205CA3;}
	.st227{clip-path:url(#SVGID_4_);fill:#1F5BA3;}
	.st228{clip-path:url(#SVGID_4_);fill:#1E5AA2;}
	.st229{clip-path:url(#SVGID_4_);fill:#1C59A2;}
	.st230{clip-path:url(#SVGID_4_);fill:#1B58A1;}
	.st231{clip-path:url(#SVGID_4_);fill:#1957A0;}
	.st232{clip-path:url(#SVGID_4_);fill:#1856A0;}
	.st233{clip-path:url(#SVGID_4_);fill:#17559F;}
	.st234{clip-path:url(#SVGID_4_);fill:#15549F;}
	.st235{clip-path:url(#SVGID_4_);fill:#14539E;}
	.st236{clip-path:url(#SVGID_4_);fill:#12529E;}
	.st237{clip-path:url(#SVGID_4_);fill:#11519D;}
	.st238{clip-path:url(#SVGID_4_);fill:#104F9C;}
	.st239{clip-path:url(#SVGID_4_);fill:#0E4E9C;}
	.st240{clip-path:url(#SVGID_4_);fill:#0D4D9B;}
	.st241{clip-path:url(#SVGID_4_);fill:#0B4C9B;}
	.st242{clip-path:url(#SVGID_4_);fill:#0A4B9A;}
	.st243{clip-path:url(#SVGID_4_);fill:#094A9A;}
	.st244{clip-path:url(#SVGID_4_);fill:#074999;}
	.st245{clip-path:url(#SVGID_4_);fill:#064898;}
	.st246{clip-path:url(#SVGID_4_);fill:#044798;}
	.st247{clip-path:url(#SVGID_4_);fill:#034697;}
	.st248{clip-path:url(#SVGID_4_);fill:#014597;}
	.st249{clip-path:url(#SVGID_4_);fill:#004496;}
	.st250{opacity:0.5;fill:#053054;}
	.st251{fill:url(#SVGID_5_);}
	.st252{fill:url(#SVGID_6_);}
	.st253{fill:url(#SVGID_7_);}
	.st254{fill:url(#SVGID_8_);}
	.st255{fill:#DDE1ED;}
	.st256{clip-path:url(#SVGID_10_);}
	.st257{fill:url(#SVGID_11_);}
	.st258{fill:url(#SVGID_12_);}
	.st259{fill:url(#SVGID_13_);}
	.st260{fill:#A9EBFF;}
	.st261{fill:url(#SVGID_14_);}
	.st262{fill:url(#SVGID_15_);}
	.st263{opacity:0.2;fill:#FFFFFF;}
</style>
<path class="st0" d="M452.79,349.66l-118.82,68.95c-5.31,3.08-13.34,3.41-17.93,0.75L55.59,268.28c-4.6-2.67-4.02-7.32,1.29-10.4
	l118.82-68.95c5.31-3.08,13.34-3.41,17.93-0.75l260.44,151.08C458.67,341.92,458.09,346.58,452.79,349.66z"/>
<path class="st1" d="M104.87,58.59L12.65,222.52c-13.49,23.97-6.36,54.34,16.36,69.74l141.25,95.73
	c12.09,8.19,27.03,10.97,41.24,7.66l191.57-44.58c23.79-5.54,40.64-26.8,40.68-51.33l0.28-161.78
	c0.04-24.81-17.12-46.31-41.24-51.65l-240.89-53.3C139.37,28.03,116.23,38.4,104.87,58.59z"/>
<path class="st2" d="M419.02,124.09l-163.56,94.88c-3.28,1.91-8.25,2.11-11.1,0.46l-100.15-58.09c-2.84-1.65-2.49-4.53,0.8-6.44
	l163.56-94.88c3.28-1.91,8.25-2.11,11.1-0.46l100.15,58.09C422.66,119.3,422.3,122.18,419.02,124.09z"/>
<g>
	<path class="st2" d="M193.63,188.18c-4.6-2.67-12.63-2.33-17.93,0.75L56.88,257.88c-5.31,3.08-5.88,7.74-1.29,10.4l201.34,116.79
		l146.14-34.01c13.64-3.18,25-11.53,32.22-22.71L193.63,188.18z"/>
	<g>
		<linearGradient id="SVGID_1_" gradientUnits="userSpaceOnUse" x1="79.8644" y1="179.4007" x2="423.3543" y2="360.386">
			<stop  offset="0" style="stop-color:#3A9BD5"/>
			<stop  offset="0.3053" style="stop-color:#3A9BD5"/>
			<stop  offset="0.3555" style="stop-color:#3A9BD5"/>
			<stop  offset="0.5988" style="stop-color:#3999D4"/>
			<stop  offset="0.6883" style="stop-color:#3592CF"/>
			<stop  offset="0.7522" style="stop-color:#2F86C7"/>
			<stop  offset="0.8039" style="stop-color:#2676BC"/>
			<stop  offset="0.8102" style="stop-color:#2573BA"/>
		</linearGradient>
		<path class="st3" d="M457.18,298.96l-24.48-4.28L193.63,156c-4.6-2.67-12.63-2.33-17.93,0.75L64.96,221.02l-12.47-2.18l0,12.72
			l0.01,0c-0.01,1.7,1,3.33,3.09,4.54l260.44,151.08c4.6,2.67,12.63,2.33,17.93-0.75l118.82-68.95c2.95-1.71,4.43-3.91,4.38-5.98
			l0.01,0V298.96z"/>
		
			<linearGradient id="SVGID_2_" gradientUnits="userSpaceOnUse" x1="1692.0388" y1="-210.1655" x2="1918.1028" y2="-91.0521" gradientTransform="matrix(1 -0.5774 0.866 0.5 -1420.6034 1376.6752)">
			<stop  offset="0" style="stop-color:#59BDEF"/>
			<stop  offset="1" style="stop-color:#7BDAFF"/>
		</linearGradient>
		<path class="st4" d="M452.79,304.84l-118.82,68.95c-5.31,3.08-13.34,3.41-17.93,0.75L55.59,223.47c-4.6-2.67-4.02-7.32,1.29-10.4
			l118.82-68.95c5.31-3.08,13.34-3.41,17.93-0.75l260.44,151.08C458.67,297.11,458.09,301.76,452.79,304.84z"/>
		<path class="st5" d="M452.79,303.21l-118.82,68.95c-5.31,3.08-13.34,3.41-17.93,0.75L55.59,221.84c-1.74-1.01-2.73-2.3-3.02-3.68
			c-0.36,1.97,0.61,3.92,3.02,5.31l260.44,151.08c4.6,2.67,12.63,2.33,17.93-0.75l118.82-68.95c3.3-1.92,4.77-4.44,4.3-6.72
			C456.76,299.92,455.32,301.75,452.79,303.21z"/>
		<path class="st6" d="M134.1,175.36L115.76,186c-0.8,0.46-2,0.51-2.69,0.11l-0.19-0.11c-0.69-0.4-0.6-1.1,0.19-1.56l18.34-10.64
			c0.8-0.46,2-0.51,2.69-0.11l0.19,0.11C134.98,174.2,134.89,174.9,134.1,175.36z"/>
	</g>
	<g class="st7">
		<g>
			<defs>
				<polygon id="SVGID_3_" points="377.46,295.07 317.59,334.96 123.46,237.95 183.32,198.06 				"/>
			</defs>
			<clipPath id="SVGID_4_">
				<use xlink:href="#SVGID_3_"  style="overflow:visible;"/>
			</clipPath>
			<rect x="123.46" y="198.06" class="st8" width="254" height="136.91"/>
			
				<ellipse transform="matrix(0.4309 -0.9024 0.9024 0.4309 -97.5014 377.3581)" class="st8" cx="250.42" cy="265.98" rx="30.29" ry="102.14"/>
			
				<ellipse transform="matrix(0.4309 -0.9024 0.9024 0.4309 -97.5015 377.358)" class="st8" cx="250.42" cy="265.98" rx="30.17" ry="101.74"/>
			
				<ellipse transform="matrix(0.4309 -0.9024 0.9024 0.4309 -97.5015 377.3578)" class="st8" cx="250.42" cy="265.98" rx="30.05" ry="101.34"/>
			
				<ellipse transform="matrix(0.4309 -0.9024 0.9024 0.4309 -97.5013 377.3584)" class="st8" cx="250.42" cy="265.98" rx="29.93" ry="100.94"/>
			
				<ellipse transform="matrix(0.4309 -0.9024 0.9024 0.4309 -97.5014 377.3582)" class="st9" cx="250.42" cy="265.98" rx="29.81" ry="100.54"/>
			
				<ellipse transform="matrix(0.4309 -0.9024 0.9024 0.4309 -97.5014 377.3582)" class="st10" cx="250.42" cy="265.98" rx="29.69" ry="100.14"/>
			
				<ellipse transform="matrix(0.4309 -0.9024 0.9024 0.4309 -97.5015 377.358)" class="st10" cx="250.42" cy="265.98" rx="29.57" ry="99.74"/>
			
				<ellipse transform="matrix(0.4309 -0.9024 0.9024 0.4309 -97.5013 377.3584)" class="st11" cx="250.42" cy="265.98" rx="29.46" ry="99.34"/>
			
				<ellipse transform="matrix(0.4309 -0.9024 0.9024 0.4309 -97.5014 377.3581)" class="st12" cx="250.42" cy="265.98" rx="29.34" ry="98.94"/>
			
				<ellipse transform="matrix(0.4309 -0.9024 0.9024 0.4309 -97.5014 377.3583)" class="st13" cx="250.42" cy="265.98" rx="29.22" ry="98.54"/>
			
				<ellipse transform="matrix(0.4309 -0.9024 0.9024 0.4309 -97.5015 377.3579)" class="st13" cx="250.42" cy="265.98" rx="29.1" ry="98.14"/>
			
				<ellipse transform="matrix(0.4309 -0.9024 0.9024 0.4309 -97.5015 377.3579)" class="st14" cx="250.42" cy="265.98" rx="28.98" ry="97.74"/>
			
				<ellipse transform="matrix(0.4309 -0.9024 0.9024 0.4309 -97.5014 377.3584)" class="st14" cx="250.42" cy="265.98" rx="28.86" ry="97.34"/>
			
				<ellipse transform="matrix(0.4309 -0.9024 0.9024 0.4309 -97.5013 377.3584)" class="st15" cx="250.42" cy="265.98" rx="28.74" ry="96.94"/>
			
				<ellipse transform="matrix(0.4309 -0.9024 0.9024 0.4309 -97.5015 377.358)" class="st16" cx="250.42" cy="265.98" rx="28.62" ry="96.54"/>
			
				<ellipse transform="matrix(0.4309 -0.9024 0.9024 0.4309 -97.5014 377.3581)" class="st16" cx="250.42" cy="265.98" rx="28.51" ry="96.14"/>
			
				<ellipse transform="matrix(0.4309 -0.9024 0.9024 0.4309 -97.5014 377.3582)" class="st17" cx="250.42" cy="265.98" rx="28.39" ry="95.74"/>
			
				<ellipse transform="matrix(0.4309 -0.9024 0.9024 0.4309 -97.5013 377.3584)" class="st17" cx="250.42" cy="265.98" rx="28.27" ry="95.33"/>
			
				<ellipse transform="matrix(0.4309 -0.9024 0.9024 0.4309 -97.5014 377.3582)" class="st18" cx="250.42" cy="265.98" rx="28.15" ry="94.93"/>
			
				<ellipse transform="matrix(0.4309 -0.9024 0.9024 0.4309 -97.5014 377.3583)" class="st19" cx="250.42" cy="265.98" rx="28.03" ry="94.53"/>
			
				<ellipse transform="matrix(0.4309 -0.9024 0.9024 0.4309 -97.5015 377.3579)" class="st20" cx="250.42" cy="265.98" rx="27.91" ry="94.13"/>
			
				<ellipse transform="matrix(0.4309 -0.9024 0.9024 0.4309 -97.5013 377.3582)" class="st20" cx="250.42" cy="265.98" rx="27.79" ry="93.73"/>
			
				<ellipse transform="matrix(0.4309 -0.9024 0.9024 0.4309 -97.5014 377.3582)" class="st21" cx="250.42" cy="265.98" rx="27.67" ry="93.33"/>
			
				<ellipse transform="matrix(0.4309 -0.9024 0.9024 0.4309 -97.5015 377.358)" class="st21" cx="250.42" cy="265.98" rx="27.55" ry="92.93"/>
			
				<ellipse transform="matrix(0.4309 -0.9024 0.9024 0.4309 -97.5014 377.3581)" class="st22" cx="250.42" cy="265.98" rx="27.44" ry="92.53"/>
			
				<ellipse transform="matrix(0.4309 -0.9024 0.9024 0.4309 -97.5014 377.3582)" class="st23" cx="250.42" cy="265.98" rx="27.32" ry="92.13"/>
			
				<ellipse transform="matrix(0.4309 -0.9024 0.9024 0.4309 -97.5013 377.3585)" class="st24" cx="250.42" cy="265.98" rx="27.2" ry="91.73"/>
			
				<ellipse transform="matrix(0.4309 -0.9024 0.9024 0.4309 -97.5015 377.358)" class="st25" cx="250.42" cy="265.98" rx="27.08" ry="91.33"/>
			
				<ellipse transform="matrix(0.4309 -0.9024 0.9024 0.4309 -97.5014 377.358)" class="st26" cx="250.42" cy="265.98" rx="26.96" ry="90.93"/>
			
				<ellipse transform="matrix(0.4309 -0.9024 0.9024 0.4309 -97.5015 377.3578)" class="st27" cx="250.42" cy="265.98" rx="26.84" ry="90.53"/>
			
				<ellipse transform="matrix(0.4309 -0.9024 0.9024 0.4309 -97.5013 377.3586)" class="st28" cx="250.42" cy="265.98" rx="26.72" ry="90.13"/>
			
				<ellipse transform="matrix(0.4309 -0.9024 0.9024 0.4309 -97.5014 377.3582)" class="st29" cx="250.42" cy="265.98" rx="26.6" ry="89.73"/>
			
				<ellipse transform="matrix(0.4309 -0.9024 0.9024 0.4309 -97.5014 377.3582)" class="st30" cx="250.42" cy="265.98" rx="26.49" ry="89.33"/>
			
				<ellipse transform="matrix(0.4309 -0.9024 0.9024 0.4309 -97.5015 377.3578)" class="st31" cx="250.42" cy="265.98" rx="26.37" ry="88.93"/>
			
				<ellipse transform="matrix(0.4309 -0.9024 0.9024 0.4309 -97.5013 377.3582)" class="st32" cx="250.42" cy="265.98" rx="26.25" ry="88.53"/>
			<path class="st33" d="M329.96,303.92c-6.17,13.05-46.77,6.64-90.7-14.32c-43.93-20.96-74.54-48.52-68.37-61.57
				s46.77-6.64,90.7,14.32C305.52,263.31,336.13,290.88,329.96,303.92z"/>
			
				<ellipse transform="matrix(0.4309 -0.9024 0.9024 0.4309 -97.5014 377.3581)" class="st34" cx="250.42" cy="265.98" rx="26.01" ry="87.72"/>
			
				<ellipse transform="matrix(0.4309 -0.9024 0.9024 0.4309 -97.5015 377.358)" class="st35" cx="250.42" cy="265.98" rx="25.89" ry="87.32"/>
			
				<ellipse transform="matrix(0.4309 -0.9024 0.9024 0.4309 -97.5015 377.358)" class="st36" cx="250.42" cy="265.98" rx="25.77" ry="86.92"/>
			
				<ellipse transform="matrix(0.4309 -0.9024 0.9024 0.4309 -97.5013 377.3586)" class="st37" cx="250.42" cy="265.98" rx="25.65" ry="86.52"/>
			
				<ellipse transform="matrix(0.4309 -0.9024 0.9024 0.4309 -97.5013 377.3584)" class="st38" cx="250.42" cy="265.98" rx="25.54" ry="86.12"/>
			
				<ellipse transform="matrix(0.4309 -0.9024 0.9024 0.4309 -97.5015 377.358)" class="st39" cx="250.42" cy="265.98" rx="25.42" ry="85.72"/>
			
				<ellipse transform="matrix(0.4309 -0.9024 0.9024 0.4309 -97.5015 377.358)" class="st39" cx="250.42" cy="265.98" rx="25.3" ry="85.32"/>
			
				<ellipse transform="matrix(0.4309 -0.9024 0.9024 0.4309 -97.5014 377.3582)" class="st40" cx="250.42" cy="265.98" rx="25.18" ry="84.92"/>
			<path class="st41" d="M326.71,302.37c-5.91,12.51-44.86,6.37-86.99-13.73c-42.13-20.1-71.49-46.54-65.58-59.05
				c5.91-12.51,44.86-6.37,86.99,13.73C303.26,263.42,332.62,289.86,326.71,302.37z"/>
			
				<ellipse transform="matrix(0.4309 -0.9024 0.9024 0.4309 -97.5014 377.3583)" class="st42" cx="250.42" cy="265.98" rx="24.94" ry="84.12"/>
			
				<ellipse transform="matrix(0.4309 -0.9024 0.9024 0.4309 -97.5014 377.3582)" class="st43" cx="250.42" cy="265.98" rx="24.82" ry="83.72"/>
			<path class="st44" d="M325.62,301.85c-5.83,12.34-44.22,6.27-85.75-13.54c-41.53-19.81-70.47-45.87-64.64-58.21
				c5.83-12.34,44.22-6.27,85.75,13.54C302.51,263.46,331.45,289.52,325.62,301.85z"/>
			
				<ellipse transform="matrix(0.4309 -0.9024 0.9024 0.4309 -97.5013 377.3586)" class="st45" cx="250.42" cy="265.98" rx="24.59" ry="82.92"/>
			
				<ellipse transform="matrix(0.4309 -0.9024 0.9024 0.4309 -97.5014 377.3583)" class="st46" cx="250.42" cy="265.98" rx="24.47" ry="82.52"/>
			
				<ellipse transform="matrix(0.4309 -0.9024 0.9024 0.4309 -97.5014 377.3581)" class="st47" cx="250.42" cy="265.98" rx="24.35" ry="82.12"/>
			
				<ellipse transform="matrix(0.4309 -0.9024 0.9024 0.4309 -97.5014 377.3581)" class="st48" cx="250.42" cy="265.98" rx="24.23" ry="81.72"/>
			
				<ellipse transform="matrix(0.4309 -0.9024 0.9024 0.4309 -97.5014 377.3582)" class="st48" cx="250.42" cy="265.98" rx="24.11" ry="81.32"/>
			
				<ellipse transform="matrix(0.4309 -0.9024 0.9024 0.4309 -97.5014 377.3583)" class="st49" cx="250.42" cy="265.98" rx="23.99" ry="80.91"/>
			
				<ellipse transform="matrix(0.4309 -0.9024 0.9024 0.4309 -97.5015 377.3581)" class="st50" cx="250.42" cy="265.98" rx="23.87" ry="80.51"/>
			
				<ellipse transform="matrix(0.4309 -0.9024 0.9024 0.4309 -97.5014 377.3581)" class="st51" cx="250.42" cy="265.98" rx="23.75" ry="80.11"/>
			
				<ellipse transform="matrix(0.4309 -0.9024 0.9024 0.4309 -97.5015 377.3579)" class="st51" cx="250.42" cy="265.98" rx="23.64" ry="79.71"/>
			
				<ellipse transform="matrix(0.4309 -0.9024 0.9024 0.4309 -97.5013 377.3586)" class="st52" cx="250.42" cy="265.98" rx="23.52" ry="79.31"/>
			
				<ellipse transform="matrix(0.4309 -0.9024 0.9024 0.4309 -97.5014 377.3582)" class="st53" cx="250.42" cy="265.98" rx="23.4" ry="78.91"/>
			
				<ellipse transform="matrix(0.4309 -0.9024 0.9024 0.4309 -97.5014 377.358)" class="st54" cx="250.42" cy="265.98" rx="23.28" ry="78.51"/>
			
				<ellipse transform="matrix(0.4309 -0.9024 0.9024 0.4309 -97.5015 377.3576)" class="st55" cx="250.42" cy="265.98" rx="23.16" ry="78.11"/>
			
				<ellipse transform="matrix(0.4309 -0.9024 0.9024 0.4309 -97.5015 377.358)" class="st56" cx="250.42" cy="265.98" rx="23.04" ry="77.71"/>
			
				<ellipse transform="matrix(0.4309 -0.9024 0.9024 0.4309 -97.5014 377.3582)" class="st57" cx="250.42" cy="265.98" rx="22.92" ry="77.31"/>
			
				<ellipse transform="matrix(0.4309 -0.9024 0.9024 0.4309 -97.5014 377.3583)" class="st58" cx="250.42" cy="265.98" rx="22.8" ry="76.91"/>
			
				<ellipse transform="matrix(0.4309 -0.9024 0.9024 0.4309 -97.5014 377.3581)" class="st59" cx="250.42" cy="265.98" rx="22.69" ry="76.51"/>
			
				<ellipse transform="matrix(0.4309 -0.9024 0.9024 0.4309 -97.5015 377.3579)" class="st60" cx="250.42" cy="265.98" rx="22.57" ry="76.11"/>
			
				<ellipse transform="matrix(0.4309 -0.9024 0.9024 0.4309 -97.5013 377.3584)" class="st61" cx="250.42" cy="265.98" rx="22.45" ry="75.71"/>
			
				<ellipse transform="matrix(0.4309 -0.9024 0.9024 0.4309 -97.5014 377.3582)" class="st62" cx="250.42" cy="265.98" rx="22.33" ry="75.31"/>
			
				<ellipse transform="matrix(0.4309 -0.9024 0.9024 0.4309 -97.5014 377.3581)" class="st63" cx="250.42" cy="265.98" rx="22.21" ry="74.91"/>
			
				<ellipse transform="matrix(0.4309 -0.9024 0.9024 0.4309 -97.5014 377.3581)" class="st64" cx="250.42" cy="265.98" rx="22.09" ry="74.51"/>
			<path class="st65" d="M317.31,297.89c-5.19,10.97-39.33,5.58-76.27-12.04c-36.94-17.62-62.68-40.8-57.5-51.77
				c5.19-10.97,39.33-5.58,76.27,12.04C296.75,263.74,322.49,286.92,317.31,297.89z"/>
			
				<ellipse transform="matrix(0.4309 -0.9024 0.9024 0.4309 -97.5012 377.3587)" class="st66" cx="250.42" cy="265.98" rx="21.85" ry="73.7"/>
			
				<ellipse transform="matrix(0.4309 -0.9024 0.9024 0.4309 -97.5014 377.3581)" class="st67" cx="250.42" cy="265.98" rx="21.74" ry="73.3"/>
			<path class="st68" d="M316.22,297.37c-5.1,10.79-38.7,5.49-75.04-11.85c-36.34-17.34-61.66-40.14-56.56-50.93
				c5.1-10.79,38.7-5.49,75.04,11.85C296,263.77,321.33,286.58,316.22,297.37z"/>
			
				<ellipse transform="matrix(0.4309 -0.9024 0.9024 0.4309 -97.5015 377.3578)" class="st69" cx="250.42" cy="265.98" rx="21.5" ry="72.5"/>
			
				<ellipse transform="matrix(0.4309 -0.9024 0.9024 0.4309 -97.5013 377.3585)" class="st70" cx="250.42" cy="265.98" rx="21.38" ry="72.1"/>
			
				<ellipse transform="matrix(0.4309 -0.9024 0.9024 0.4309 -97.5013 377.3584)" class="st71" cx="250.42" cy="265.98" rx="21.26" ry="71.7"/>
			
				<ellipse transform="matrix(0.4309 -0.9024 0.9024 0.4309 -97.5014 377.3581)" class="st72" cx="250.42" cy="265.98" rx="21.14" ry="71.3"/>
			
				<ellipse transform="matrix(0.4309 -0.9024 0.9024 0.4309 -97.5015 377.3577)" class="st73" cx="250.42" cy="265.98" rx="21.02" ry="70.9"/>
			<path class="st74" d="M314.05,296.33c-4.93,10.44-37.42,5.31-72.56-11.46c-35.14-16.76-59.63-38.82-54.7-49.25
				c4.93-10.44,37.42-5.31,72.56,11.46C294.5,263.84,318.99,285.9,314.05,296.33z"/>
			
				<ellipse transform="matrix(0.4309 -0.9024 0.9024 0.4309 -97.5013 377.3584)" class="st75" cx="250.42" cy="265.98" rx="20.79" ry="70.1"/>
			
				<ellipse transform="matrix(0.4309 -0.9024 0.9024 0.4309 -97.5014 377.3581)" class="st76" cx="250.42" cy="265.98" rx="20.67" ry="69.7"/>
			
				<ellipse transform="matrix(0.4309 -0.9024 0.9024 0.4309 -97.5014 377.3583)" class="st77" cx="250.42" cy="265.98" rx="20.55" ry="69.3"/>
			<path class="st78" d="M312.61,295.64c-4.82,10.2-36.57,5.19-70.91-11.19c-34.34-16.38-58.28-37.93-53.46-48.14
				c4.82-10.2,36.57-5.19,70.91,11.19S317.43,285.44,312.61,295.64z"/>
			<path class="st79" d="M312.25,295.47c-4.79,10.14-36.36,5.16-70.5-11.13c-34.14-16.29-57.94-37.71-53.14-47.86
				c4.79-10.14,36.36-5.16,70.5,11.13C293.25,263.91,317.04,285.33,312.25,295.47z"/>
			<path class="st80" d="M311.89,295.3c-4.76,10.08-36.14,5.13-70.09-11.06s-57.6-37.49-52.83-47.58
				c4.76-10.08,36.14-5.13,70.09,11.06C293,263.92,316.65,285.22,311.89,295.3z"/>
			
				<ellipse transform="matrix(0.4309 -0.9024 0.9024 0.4309 -97.5014 377.3581)" class="st81" cx="250.42" cy="265.98" rx="20.07" ry="67.7"/>
			
				<ellipse transform="matrix(0.4309 -0.9024 0.9024 0.4309 -97.5015 377.3579)" class="st82" cx="250.42" cy="265.98" rx="19.95" ry="67.3"/>
			<path class="st83" d="M310.8,294.78c-4.68,9.9-35.51,5.04-68.85-10.87c-33.34-15.91-56.58-36.83-51.9-46.74
				c4.68-9.9,35.51-5.04,68.85,10.87C292.24,263.95,315.48,284.88,310.8,294.78z"/>
			
				<ellipse transform="matrix(0.4309 -0.9024 0.9024 0.4309 -97.5014 377.3583)" class="st84" cx="250.42" cy="265.98" rx="19.72" ry="66.49"/>
			
				<ellipse transform="matrix(0.4309 -0.9024 0.9024 0.4309 -97.5013 377.3585)" class="st85" cx="250.42" cy="265.98" rx="19.6" ry="66.09"/>
			
				<ellipse transform="matrix(0.4309 -0.9024 0.9024 0.4309 -97.5015 377.3579)" class="st86" cx="250.42" cy="265.98" rx="19.48" ry="65.69"/>
			
				<ellipse transform="matrix(0.4309 -0.9024 0.9024 0.4309 -97.5015 377.358)" class="st87" cx="250.42" cy="265.98" rx="19.36" ry="65.29"/>
			<path class="st88" d="M308.99,293.92c-4.54,9.61-34.44,4.89-66.79-10.54c-32.35-15.43-54.89-35.73-50.35-45.34
				c4.54-9.61,34.44-4.89,66.79,10.54C290.99,264.01,313.53,284.31,308.99,293.92z"/>
			
				<ellipse transform="matrix(0.4309 -0.9024 0.9024 0.4309 -97.5013 377.3585)" class="st89" cx="250.42" cy="265.98" rx="19.12" ry="64.49"/>
			
				<ellipse transform="matrix(0.4309 -0.9024 0.9024 0.4309 -97.5014 377.3581)" class="st90" cx="250.42" cy="265.98" rx="19" ry="64.09"/>
			<path class="st91" d="M307.91,293.4c-4.46,9.43-33.81,4.8-65.55-10.35s-53.87-35.07-49.42-44.5c4.46-9.43,33.81-4.8,65.55,10.35
				C290.24,264.05,312.37,283.97,307.91,293.4z"/>
			<path class="st92" d="M307.55,293.23c-4.43,9.37-33.59,4.77-65.14-10.28c-31.55-15.05-53.53-34.85-49.1-44.22
				c4.43-9.37,33.59-4.77,65.14,10.28C289.99,264.06,311.98,283.86,307.55,293.23z"/>
			
				<ellipse transform="matrix(0.4309 -0.9024 0.9024 0.4309 -97.5014 377.3583)" class="st93" cx="250.42" cy="265.98" rx="18.65" ry="62.89"/>
			<path class="st94" d="M306.82,292.89c-4.37,9.25-33.17,4.71-64.32-10.15c-31.15-14.86-52.86-34.41-48.48-43.66
				s33.17-4.71,64.32,10.15C289.49,264.09,311.2,283.63,306.82,292.89z"/>
			
				<ellipse transform="matrix(0.4309 -0.9024 0.9024 0.4309 -97.5014 377.3582)" class="st95" cx="250.42" cy="265.98" rx="18.41" ry="62.09"/>
			
				<ellipse transform="matrix(0.4309 -0.9024 0.9024 0.4309 -97.5015 377.358)" class="st96" cx="250.42" cy="265.98" rx="18.29" ry="61.69"/>
			
				<ellipse transform="matrix(0.4309 -0.9024 0.9024 0.4309 -97.5013 377.3585)" class="st97" cx="250.42" cy="265.98" rx="18.17" ry="61.29"/>
			
				<ellipse transform="matrix(0.4309 -0.9024 0.9024 0.4309 -97.5014 377.3583)" class="st98" cx="250.42" cy="265.98" rx="18.05" ry="60.89"/>
			
				<ellipse transform="matrix(0.4309 -0.9024 0.9024 0.4309 -97.5015 377.3578)" class="st99" cx="250.42" cy="265.98" rx="17.93" ry="60.49"/>
			
				<ellipse transform="matrix(0.4309 -0.9024 0.9024 0.4309 -97.5015 377.3579)" class="st100" cx="250.42" cy="265.98" rx="17.82" ry="60.09"/>
			<path class="st101" d="M304.29,291.68c-4.18,8.84-31.68,4.49-61.43-9.7c-29.75-14.19-50.48-32.86-46.31-41.7
				c4.18-8.84,31.68-4.49,61.43,9.7S308.47,282.84,304.29,291.68z"/>
			
				<ellipse transform="matrix(0.4309 -0.9024 0.9024 0.4309 -97.5012 377.3587)" class="st102" cx="250.42" cy="265.98" rx="17.58" ry="59.28"/>
			
				<ellipse transform="matrix(0.4309 -0.9024 0.9024 0.4309 -97.5014 377.3583)" class="st103" cx="250.42" cy="265.98" rx="17.46" ry="58.88"/>
			
				<ellipse transform="matrix(0.4309 -0.9024 0.9024 0.4309 -97.5014 377.3581)" class="st104" cx="250.42" cy="265.98" rx="17.34" ry="58.48"/>
			
				<ellipse transform="matrix(0.4309 -0.9024 0.9024 0.4309 -97.5017 377.3574)" class="st105" cx="250.42" cy="265.98" rx="17.22" ry="58.08"/>
			
				<ellipse transform="matrix(0.4309 -0.9024 0.9024 0.4309 -97.5013 377.3587)" class="st106" cx="250.42" cy="265.98" rx="17.1" ry="57.68"/>
			
				<ellipse transform="matrix(0.4309 -0.9024 0.9024 0.4309 -97.5014 377.358)" class="st107" cx="250.42" cy="265.98" rx="16.98" ry="57.28"/>
			<path class="st108" d="M301.76,290.47c-3.98,8.42-30.19,4.28-58.54-9.24c-28.35-13.53-48.11-31.32-44.13-39.74
				c3.98-8.42,30.19-4.28,58.54,9.24C285.98,264.26,305.74,282.05,301.76,290.47z"/>
			<path class="st109" d="M301.4,290.3c-3.95,8.36-29.98,4.25-58.13-9.18c-28.15-13.43-47.77-31.1-43.82-39.46
				c3.95-8.36,29.98-4.25,58.13,9.18C285.73,264.27,305.35,281.94,301.4,290.3z"/>
			
				<ellipse transform="matrix(0.4309 -0.9024 0.9024 0.4309 -97.5015 377.3579)" class="st110" cx="250.42" cy="265.98" rx="16.63" ry="56.08"/>
			
				<ellipse transform="matrix(0.4309 -0.9024 0.9024 0.4309 -97.5013 377.3585)" class="st111" cx="250.42" cy="265.98" rx="16.51" ry="55.68"/>
			
				<ellipse transform="matrix(0.4309 -0.9024 0.9024 0.4309 -97.5014 377.3583)" class="st112" cx="250.42" cy="265.98" rx="16.39" ry="55.28"/>
			<path class="st113" d="M299.96,289.61c-3.84,8.13-29.13,4.13-56.48-8.92c-27.35-13.05-46.42-30.22-42.58-38.34
				c3.84-8.13,29.13-4.13,56.48,8.92C284.73,264.32,303.79,281.48,299.96,289.61z"/>
			
				<ellipse transform="matrix(0.4309 -0.9024 0.9024 0.4309 -97.5015 377.3578)" class="st114" cx="250.42" cy="265.98" rx="16.15" ry="54.48"/>
			
				<ellipse transform="matrix(0.4309 -0.9024 0.9024 0.4309 -97.5013 377.3584)" class="st115" cx="250.42" cy="265.98" rx="16.03" ry="54.08"/>
			<path class="st116" d="M298.87,289.09c-3.76,7.95-28.49,4.04-55.25-8.72c-26.76-12.76-45.4-29.55-41.65-37.5
				c3.76-7.95,28.49-4.04,55.25,8.72C283.98,264.35,302.63,281.14,298.87,289.09z"/>
			<path class="st117" d="M298.51,288.92c-3.73,7.89-28.28,4.01-54.83-8.66c-26.56-12.67-45.06-29.33-41.33-37.22
				s28.28-4.01,54.83,8.66C283.73,264.37,302.24,281.03,298.51,288.92z"/>
			
				<ellipse transform="matrix(0.4309 -0.9024 0.9024 0.4309 -97.5014 377.3581)" class="st118" cx="250.42" cy="265.98" rx="15.68" ry="52.87"/>
			<path class="st119" d="M297.79,288.57c-3.67,7.77-27.85,3.95-54.01-8.53c-26.16-12.48-44.38-28.89-40.71-36.66
				c3.67-7.77,27.85-3.95,54.01,8.53S301.46,280.8,297.79,288.57z"/>
			<path class="st120" d="M297.42,288.4c-3.64,7.71-27.64,3.92-53.6-8.46c-25.96-12.38-44.05-28.67-40.4-36.38
				c3.64-7.71,27.64-3.92,53.6,8.46C282.98,264.4,301.07,280.69,297.42,288.4z"/>
			
				<ellipse transform="matrix(0.4309 -0.9024 0.9024 0.4309 -97.5014 377.3583)" class="st121" cx="250.42" cy="265.98" rx="15.32" ry="51.67"/>
			<path class="st122" d="M296.7,288.06c-3.59,7.59-27.21,3.86-52.77-8.33c-25.56-12.19-43.37-28.23-39.78-35.82
				c3.59-7.59,27.21-3.86,52.77,8.33C282.48,264.43,300.29,280.46,296.7,288.06z"/>
			
				<ellipse transform="matrix(0.4309 -0.9024 0.9024 0.4309 -97.5014 377.3581)" class="st123" cx="250.42" cy="265.98" rx="15.08" ry="50.87"/>
			
				<ellipse transform="matrix(0.4309 -0.9024 0.9024 0.4309 -97.5013 377.3585)" class="st124" cx="250.42" cy="265.98" rx="14.97" ry="50.47"/>
			
				<ellipse transform="matrix(0.4309 -0.9024 0.9024 0.4309 -97.5014 377.3583)" class="st125" cx="250.42" cy="265.98" rx="14.85" ry="50.07"/>
			<path class="st126" d="M295.26,287.37c-3.48,7.35-26.36,3.74-51.12-8.07c-24.76-11.81-42.01-27.35-38.54-34.7
				c3.48-7.35,26.36-3.74,51.12,8.07C281.48,264.48,298.73,280.01,295.26,287.37z"/>
			<path class="st127" d="M294.89,287.19c-3.45,7.29-26.15,3.71-50.71-8.01c-24.56-11.72-41.67-27.13-38.23-34.42
				c3.45-7.29,26.15-3.71,50.71,8.01C281.23,264.49,298.34,279.9,294.89,287.19z"/>
			<path class="st128" d="M294.53,287.02c-3.42,7.24-25.94,3.68-50.3-7.94c-24.36-11.62-41.34-26.91-37.92-34.14
				c3.42-7.24,25.94-3.68,50.3,7.94C280.98,264.5,297.95,279.79,294.53,287.02z"/>
			
				<ellipse transform="matrix(0.4309 -0.9024 0.9024 0.4309 -97.5013 377.3586)" class="st129" cx="250.42" cy="265.98" rx="14.37" ry="48.47"/>
			
				<ellipse transform="matrix(0.4309 -0.9024 0.9024 0.4309 -97.5014 377.3581)" class="st130" cx="250.42" cy="265.98" rx="14.25" ry="48.07"/>
			
				<ellipse transform="matrix(0.4309 -0.9024 0.9024 0.4309 -97.5015 377.358)" class="st131" cx="250.42" cy="265.98" rx="14.13" ry="47.67"/>
			<path class="st132" d="M293.09,286.33c-3.31,7-25.09,3.56-48.65-7.68s-39.98-26.02-36.67-33.02c3.31-7,25.09-3.56,48.65,7.68
				C279.97,264.55,296.39,279.33,293.09,286.33z"/>
			<path class="st133" d="M292.72,286.16c-3.28,6.94-24.88,3.53-48.24-7.62c-23.36-11.14-39.64-25.8-36.36-32.74
				c3.28-6.94,24.88-3.53,48.24,7.61C279.72,264.56,296,279.22,292.72,286.16z"/>
			<path class="st134" d="M292.36,285.99c-3.25,6.88-24.66,3.5-47.82-7.55c-23.16-11.05-39.3-25.58-36.05-32.46
				c3.25-6.88,24.66-3.5,47.82,7.55C279.47,264.57,295.61,279.11,292.36,285.99z"/>
			
				<ellipse transform="matrix(0.4309 -0.9024 0.9024 0.4309 -97.5014 377.3583)" class="st135" cx="250.42" cy="265.98" rx="13.66" ry="46.07"/>
			
				<ellipse transform="matrix(0.4309 -0.9024 0.9024 0.4309 -97.5015 377.3578)" class="st136" cx="250.42" cy="265.98" rx="13.54" ry="45.66"/>
			
				<ellipse transform="matrix(0.4309 -0.9024 0.9024 0.4309 -97.5016 377.3575)" class="st137" cx="250.42" cy="265.98" rx="13.42" ry="45.26"/>
			
				<ellipse transform="matrix(0.4309 -0.9024 0.9024 0.4309 -97.5013 377.3585)" class="st138" cx="250.42" cy="265.98" rx="13.3" ry="44.86"/>
			
				<ellipse transform="matrix(0.4309 -0.9024 0.9024 0.4309 -97.5013 377.3586)" class="st139" cx="250.42" cy="265.98" rx="13.18" ry="44.46"/>
			
				<ellipse transform="matrix(0.4309 -0.9024 0.9024 0.4309 -97.5015 377.3578)" class="st140" cx="250.42" cy="265.98" rx="13.06" ry="44.06"/>
			
				<ellipse transform="matrix(0.4309 -0.9024 0.9024 0.4309 -97.5015 377.3579)" class="st141" cx="250.42" cy="265.98" rx="12.95" ry="43.66"/>
			
				<ellipse transform="matrix(0.4309 -0.9024 0.9024 0.4309 -97.5012 377.3588)" class="st142" cx="250.42" cy="265.98" rx="12.83" ry="43.26"/>
			<path class="st143" d="M289.11,284.43c-3,6.35-22.75,3.23-44.11-6.96c-21.36-10.19-36.25-23.6-33.25-29.94
				c3-6.35,22.75-3.23,44.11,6.96C277.22,264.68,292.11,278.09,289.11,284.43z"/>
			
				<ellipse transform="matrix(0.4309 -0.9024 0.9024 0.4309 -97.5014 377.3582)" class="st144" cx="250.42" cy="265.98" rx="12.59" ry="42.46"/>
			<path class="st145" d="M288.39,284.09c-2.94,6.23-22.32,3.17-43.29-6.83s-35.58-23.16-32.63-29.38
				c2.94-6.23,22.32-3.17,43.29,6.83C276.72,264.71,291.33,277.86,288.39,284.09z"/>
			<path class="st146" d="M288.02,283.92c-2.91,6.17-22.11,3.14-42.88-6.77c-20.77-9.91-35.24-22.94-32.32-29.1
				c2.91-6.17,22.11-3.14,42.88,6.77C276.47,264.72,290.94,277.75,288.02,283.92z"/>
			<path class="st147" d="M287.66,283.74c-2.89,6.11-21.9,3.11-42.47-6.7c-20.57-9.81-34.9-22.72-32.01-28.83
				c2.89-6.11,21.9-3.11,42.47,6.7C276.22,264.73,290.55,277.64,287.66,283.74z"/>
			<path class="st148" d="M287.3,283.57c-2.86,6.05-21.69,3.08-42.05-6.64c-20.37-9.72-34.56-22.5-31.7-28.55
				c2.86-6.05,21.69-3.08,42.05,6.64C275.97,264.74,290.16,277.52,287.3,283.57z"/>
			<path class="st149" d="M286.94,283.4c-2.83,5.99-21.47,3.05-41.64-6.57c-20.17-9.62-34.22-22.28-31.39-28.27
				c2.83-5.99,21.47-3.05,41.64,6.57C275.72,264.75,289.77,277.41,286.94,283.4z"/>
			<path class="st150" d="M286.58,283.23c-2.8,5.93-21.26,3.02-41.23-6.51c-19.97-9.53-33.88-22.05-31.08-27.99
				c2.8-5.93,21.26-3.02,41.23,6.51C275.47,264.77,289.38,277.3,286.58,283.23z"/>
			
				<ellipse transform="matrix(0.4309 -0.9024 0.9024 0.4309 -97.5014 377.3583)" class="st151" cx="250.42" cy="265.98" rx="11.76" ry="39.66"/>
			
				<ellipse transform="matrix(0.4309 -0.9024 0.9024 0.4309 -97.5013 377.3585)" class="st152" cx="250.42" cy="265.98" rx="11.64" ry="39.26"/>
			<path class="st153" d="M285.49,282.71c-2.72,5.75-20.62,2.93-39.99-6.31c-19.37-9.24-32.87-21.39-30.15-27.15
				c2.72-5.75,20.62-2.93,39.99,6.31C274.72,264.8,288.21,276.96,285.49,282.71z"/>
			
				<ellipse transform="matrix(0.4309 -0.9024 0.9024 0.4309 -97.5014 377.3582)" class="st154" cx="250.42" cy="265.98" rx="11.4" ry="38.45"/>
			
				<ellipse transform="matrix(0.4309 -0.9024 0.9024 0.4309 -97.5017 377.3574)" class="st155" cx="250.42" cy="265.98" rx="11.28" ry="38.05"/>
			<path class="st156" d="M284.41,282.19c-2.63,5.57-19.99,2.84-38.75-6.12s-31.85-20.73-29.21-26.31
				c2.63-5.57,19.99-2.84,38.75,6.12C273.96,264.84,287.04,276.62,284.41,282.19z"/>
			
				<ellipse transform="matrix(0.4309 -0.9024 0.9024 0.4309 -97.5015 377.3579)" class="st157" cx="250.42" cy="265.98" rx="11.05" ry="37.25"/>
			<path class="st158" d="M283.69,281.85c-2.58,5.46-19.56,2.78-37.93-5.99c-18.37-8.76-31.17-20.29-28.59-25.75
				c2.58-5.46,19.56-2.78,37.93,5.99C273.46,264.86,286.26,276.39,283.69,281.85z"/>
			<path class="st159" d="M283.32,281.67c-2.55,5.4-19.35,2.75-37.52-5.92c-18.17-8.67-30.83-20.07-28.28-25.47
				c2.55-5.4,19.35-2.75,37.52,5.92C273.21,264.88,285.88,276.28,283.32,281.67z"/>
			<path class="st160" d="M282.96,281.5c-2.52,5.34-19.14,2.72-37.11-5.86c-17.97-8.57-30.49-19.85-27.97-25.19
				c2.52-5.34,19.14-2.72,37.11,5.86C272.96,264.89,285.49,276.16,282.96,281.5z"/>
			<path class="st161" d="M282.6,281.33c-2.49,5.28-18.92,2.68-36.69-5.79c-17.77-8.48-30.15-19.63-27.66-24.91
				c2.49-5.28,18.92-2.68,36.69,5.79C272.71,264.9,285.1,276.05,282.6,281.33z"/>
			<path class="st162" d="M282.24,281.16c-2.47,5.22-18.71,2.65-36.28-5.73c-17.57-8.38-29.82-19.41-27.35-24.63
				c2.47-5.22,18.71-2.65,36.28,5.73C272.46,264.91,284.71,275.94,282.24,281.16z"/>
			<path class="st163" d="M281.88,280.98c-2.44,5.16-18.5,2.62-35.87-5.66s-29.48-19.19-27.04-24.35s18.5-2.62,35.87,5.66
				C272.21,264.92,284.32,275.83,281.88,280.98z"/>
			
				<ellipse transform="matrix(0.4309 -0.9024 0.9024 0.4309 -97.5016 377.3575)" class="st164" cx="250.42" cy="265.98" rx="10.21" ry="34.45"/>
			
				<ellipse transform="matrix(0.4309 -0.9024 0.9024 0.4309 -97.5012 377.3588)" class="st165" cx="250.42" cy="265.98" rx="10.1" ry="34.05"/>
			<path class="st166" d="M280.79,280.47c-2.35,4.98-17.86,2.53-34.63-5.47c-16.77-8-28.46-18.53-26.11-23.51
				c2.35-4.98,17.86-2.53,34.63,5.47C271.46,264.96,283.15,275.49,280.79,280.47z"/>
			
				<ellipse transform="matrix(0.4309 -0.9024 0.9024 0.4309 -97.5015 377.3579)" class="st167" cx="250.42" cy="265.98" rx="9.86" ry="33.25"/>
			
				<ellipse transform="matrix(0.4309 -0.9024 0.9024 0.4309 -97.5015 377.3577)" class="st168" cx="250.42" cy="265.98" rx="9.74" ry="32.85"/>
			<path class="st169" d="M279.71,279.95c-2.27,4.8-17.22,2.44-33.39-5.27c-16.17-7.72-27.44-17.86-25.17-22.67
				c2.27-4.8,17.22-2.44,33.39,5.27C270.71,265,281.98,275.15,279.71,279.95z"/>
			
				<ellipse transform="matrix(0.4309 -0.9024 0.9024 0.4309 -97.5012 377.3588)" class="st170" cx="250.42" cy="265.98" rx="9.5" ry="32.05"/>
			
				<ellipse transform="matrix(0.4309 -0.9024 0.9024 0.4309 -97.5016 377.3577)" class="st171" cx="250.42" cy="265.98" rx="9.38" ry="31.64"/>
			<path class="st172" d="M278.62,279.43c-2.19,4.63-16.58,2.35-32.16-5.08c-15.57-7.43-26.43-17.2-24.24-21.83
				c2.19-4.63,16.58-2.35,32.16,5.08C269.96,265.03,280.81,274.81,278.62,279.43z"/>
			<path class="st173" d="M278.26,279.26c-2.16,4.57-16.37,2.32-31.75-5.01c-15.37-7.33-26.09-16.98-23.93-21.55
				c2.16-4.57,16.37-2.32,31.75,5.01S280.42,274.69,278.26,279.26z"/>
			<path class="st174" d="M277.9,279.09c-2.13,4.51-16.16,2.29-31.33-4.95c-15.17-7.24-25.75-16.76-23.62-21.27
				c2.13-4.51,16.16-2.29,31.33,4.95C269.46,265.06,280.03,274.58,277.9,279.09z"/>
			
				<ellipse transform="matrix(0.4309 -0.9024 0.9024 0.4309 -97.5012 377.3589)" class="st175" cx="250.42" cy="265.98" rx="8.91" ry="30.04"/>
			<path class="st176" d="M277.18,278.74c-2.07,4.39-15.73,2.23-30.51-4.82c-14.78-7.05-25.07-16.32-23-20.71
				c2.07-4.39,15.73-2.23,30.51,4.82C268.96,265.08,279.25,274.35,277.18,278.74z"/>
			<path class="st177" d="M276.82,278.57c-2.05,4.33-15.52,2.2-30.1-4.75c-14.58-6.95-24.73-16.1-22.69-20.43
				c2.05-4.33,15.52-2.2,30.1,4.75C268.71,265.09,278.86,274.24,276.82,278.57z"/>
			<path class="st178" d="M276.46,278.4c-2.02,4.27-15.31,2.17-29.68-4.69c-14.38-6.86-24.39-15.88-22.38-20.15
				c2.02-4.27,15.31-2.17,29.68,4.69C268.45,265.11,278.47,274.13,276.46,278.4z"/>
			<path class="st179" d="M276.09,278.23c-1.99,4.21-15.1,2.14-29.27-4.62c-14.18-6.76-24.06-15.66-22.07-19.87
				c1.99-4.21,15.1-2.14,29.27,4.62C268.2,265.12,278.08,274.01,276.09,278.23z"/>
			
				<ellipse transform="matrix(0.4309 -0.9024 0.9024 0.4309 -97.5013 377.3584)" class="st180" cx="250.42" cy="265.98" rx="8.31" ry="28.04"/>
			
				<ellipse transform="matrix(0.4309 -0.9024 0.9024 0.4309 -97.5015 377.3578)" class="st181" cx="250.42" cy="265.98" rx="8.2" ry="27.64"/>
			<path class="st182" d="M275.01,277.71c-1.91,4.03-14.46,2.05-28.04-4.43c-13.58-6.48-23.04-15-21.13-19.03
				c1.91-4.03,14.46-2.05,28.04,4.43C267.45,265.15,276.92,273.67,275.01,277.71z"/>
			<path class="st183" d="M274.65,277.54c-1.88,3.97-14.25,2.02-27.62-4.36c-13.38-6.38-22.7-14.78-20.82-18.75
				c1.88-3.97,14.25-2.02,27.62,4.36C267.2,265.17,276.53,273.56,274.65,277.54z"/>
			<path class="st184" d="M274.29,277.36c-1.85,3.91-14.03,1.99-27.21-4.3c-13.18-6.29-22.36-14.56-20.51-18.47
				c1.85-3.91,14.03-1.99,27.21,4.3C266.95,265.18,276.14,273.45,274.29,277.36z"/>
			<path class="st185" d="M273.92,277.19c-1.82,3.85-13.82,1.96-26.8-4.23c-12.98-6.19-22.02-14.34-20.2-18.19
				c1.82-3.85,13.82-1.96,26.8,4.23C266.7,265.19,275.75,273.34,273.92,277.19z"/>
			<path class="st186" d="M273.56,277.02c-1.79,3.8-13.61,1.93-26.39-4.17c-12.78-6.1-21.68-14.12-19.89-17.91
				c1.79-3.8,13.61-1.93,26.39,4.17C266.45,265.2,275.36,273.22,273.56,277.02z"/>
			
				<ellipse transform="matrix(0.4309 -0.9024 0.9024 0.4309 -97.501 377.3596)" class="st187" cx="250.42" cy="265.98" rx="7.48" ry="25.24"/>
			<path class="st188" d="M272.84,276.67c-1.74,3.68-13.18,1.87-25.56-4.04c-12.38-5.91-21.01-13.67-19.27-17.35
				c1.74-3.68,13.18-1.87,25.56,4.04C265.95,265.23,274.58,273,272.84,276.67z"/>
			
				<ellipse transform="matrix(0.4309 -0.9024 0.9024 0.4309 -97.5014 377.3583)" class="st189" cx="250.42" cy="265.98" rx="7.24" ry="24.43"/>
			<path class="st190" d="M272.12,276.33c-1.68,3.56-12.76,1.81-24.74-3.91c-11.98-5.72-20.33-13.23-18.65-16.79
				c1.68-3.56,12.76-1.81,24.74,3.91C265.45,265.25,273.8,272.77,272.12,276.33z"/>
			<path class="st191" d="M271.76,276.16c-1.65,3.5-12.54,1.78-24.32-3.84c-11.78-5.62-19.99-13.01-18.34-16.51
				c1.65-3.5,12.54-1.78,24.32,3.84C265.2,265.26,273.41,272.66,271.76,276.16z"/>
			<path class="st192" d="M271.39,275.98c-1.63,3.44-12.33,1.75-23.91-3.77c-11.58-5.52-19.65-12.79-18.03-16.23
				c1.63-3.44,12.33-1.75,23.91,3.77C264.95,265.28,273.02,272.54,271.39,275.98z"/>
			<path class="st193" d="M271.03,275.81c-1.6,3.38-12.12,1.72-23.5-3.71c-11.38-5.43-19.31-12.57-17.71-15.95
				c1.6-3.38,12.12-1.72,23.5,3.71C264.7,265.29,272.63,272.43,271.03,275.81z"/>
			<path class="st194" d="M270.67,275.64c-1.57,3.32-11.91,1.69-23.09-3.64c-11.18-5.33-18.97-12.35-17.4-15.67
				c1.57-3.32,11.91-1.69,23.09,3.64C264.45,265.3,272.24,272.32,270.67,275.64z"/>
			<path class="st195" d="M270.31,275.47c-1.54,3.26-11.69,1.66-22.68-3.58c-10.98-5.24-18.63-12.13-17.09-15.39
				c1.54-3.26,11.69-1.66,22.68,3.58C264.2,265.31,271.85,272.2,270.31,275.47z"/>
			<path class="st196" d="M269.95,275.29c-1.51,3.2-11.48,1.63-22.26-3.51c-10.78-5.14-18.3-11.91-16.78-15.11
				c1.51-3.2,11.48-1.63,22.26,3.51C263.95,265.32,271.46,272.09,269.95,275.29z"/>
			<path class="st197" d="M269.59,275.12c-1.49,3.14-11.27,1.6-21.85-3.45c-10.58-5.05-17.96-11.69-16.47-14.83
				c1.49-3.14,11.27-1.6,21.85,3.45C263.7,265.34,271.07,271.98,269.59,275.12z"/>
			<path class="st198" d="M269.22,274.95c-1.46,3.08-11.06,1.57-21.44-3.38c-10.38-4.95-17.62-11.47-16.16-14.55
				c1.46-3.08,11.06-1.57,21.44,3.38C263.45,265.35,270.68,271.86,269.22,274.95z"/>
			<path class="st199" d="M268.86,274.78c-1.43,3.02-10.84,1.54-21.03-3.32c-10.18-4.86-17.28-11.25-15.85-14.27
				c1.43-3.02,10.84-1.54,21.03,3.32C263.2,265.36,270.29,271.75,268.86,274.78z"/>
			
				<ellipse transform="matrix(0.4309 -0.9024 0.9024 0.4309 -97.5017 377.3572)" class="st200" cx="250.42" cy="265.98" rx="5.94" ry="20.03"/>
			<path class="st201" d="M268.14,274.43c-1.37,2.91-10.42,1.48-20.2-3.19c-9.78-4.67-16.6-10.81-15.23-13.71
				c1.37-2.91,10.42-1.48,20.2,3.19C262.7,265.39,269.51,271.52,268.14,274.43z"/>
			<path class="st202" d="M267.78,274.26c-1.35,2.85-10.21,1.45-19.79-3.12c-9.58-4.57-16.26-10.59-14.92-13.43
				c1.35-2.85,10.21-1.45,19.79,3.12C262.44,265.4,269.12,271.41,267.78,274.26z"/>
			<path class="st203" d="M267.42,274.09c-1.32,2.79-9.99,1.42-19.38-3.06c-9.38-4.48-15.92-10.37-14.61-13.15
				c1.32-2.79,9.99-1.42,19.38,3.06C262.19,265.41,268.73,271.3,267.42,274.09z"/>
			<path class="st204" d="M267.06,273.91c-1.29,2.73-9.78,1.39-18.97-2.99c-9.18-4.38-15.59-10.15-14.3-12.87
				c1.29-2.73,9.78-1.39,18.97,2.99C261.94,265.42,268.34,271.19,267.06,273.91z"/>
			<path class="st205" d="M266.69,273.74c-1.26,2.67-9.57,1.36-18.55-2.93c-8.99-4.29-15.25-9.92-13.99-12.59
				c1.26-2.67,9.57-1.36,18.55,2.93C261.69,265.43,267.96,271.07,266.69,273.74z"/>
			<path class="st206" d="M266.33,273.57c-1.23,2.61-9.35,1.33-18.14-2.86c-8.79-4.19-14.91-9.7-13.67-12.31
				c1.23-2.61,9.35-1.33,18.14,2.86C261.44,265.45,267.57,270.96,266.33,273.57z"/>
			<path class="st207" d="M265.97,273.4c-1.21,2.55-9.14,1.3-17.73-2.8c-8.59-4.1-14.57-9.48-13.36-12.03
				c1.21-2.55,9.14-1.3,17.73,2.8C261.19,265.46,267.18,270.85,265.97,273.4z"/>
			<path class="st208" d="M265.61,273.22c-1.18,2.49-8.93,1.27-17.32-2.73c-8.39-4-14.23-9.26-13.05-11.75
				c1.18-2.49,8.93-1.27,17.32,2.73C260.94,265.47,266.79,270.73,265.61,273.22z"/>
			<path class="st209" d="M265.25,273.05c-1.15,2.43-8.72,1.24-16.9-2.67c-8.19-3.91-13.89-9.04-12.74-11.47
				c1.15-2.43,8.72-1.24,16.9,2.67C260.69,265.48,266.4,270.62,265.25,273.05z"/>
			<path class="st210" d="M264.89,272.88c-1.12,2.37-8.5,1.21-16.49-2.6c-7.99-3.81-13.55-8.82-12.43-11.19
				c1.12-2.37,8.5-1.21,16.49,2.6C260.44,265.49,266.01,270.51,264.89,272.88z"/>
			<path class="st211" d="M264.52,272.71c-1.09,2.31-8.29,1.18-16.08-2.54c-7.79-3.71-13.21-8.6-12.12-10.91
				c1.09-2.31,8.29-1.18,16.08,2.54C260.19,265.51,265.62,270.39,264.52,272.71z"/>
			<path class="st212" d="M264.16,272.53c-1.07,2.25-8.08,1.15-15.67-2.47c-7.59-3.62-12.87-8.38-11.81-10.63
				c1.07-2.25,8.08-1.15,15.67,2.47C259.94,265.52,265.23,270.28,264.16,272.53z"/>
			<path class="st213" d="M263.8,272.36c-1.04,2.19-7.87,1.12-15.25-2.41c-7.39-3.52-12.54-8.16-11.5-10.35
				c1.04-2.19,7.87-1.12,15.25,2.41C259.69,265.53,264.84,270.17,263.8,272.36z"/>
			<path class="st214" d="M263.44,272.19c-1.01,2.14-7.65,1.09-14.84-2.34c-7.19-3.43-12.2-7.94-11.19-10.07
				c1.01-2.14,7.65-1.09,14.84,2.34C259.44,265.54,264.45,270.05,263.44,272.19z"/>
			<path class="st215" d="M263.08,272.02c-0.98,2.08-7.44,1.06-14.43-2.28c-6.99-3.33-11.86-7.72-10.88-9.79
				c0.98-2.08,7.44-1.06,14.43,2.28S264.06,269.94,263.08,272.02z"/>
			<path class="st216" d="M262.72,271.84c-0.95,2.02-7.23,1.03-14.02-2.21c-6.79-3.24-11.52-7.5-10.57-9.52
				c0.95-2.02,7.23-1.03,14.02,2.21C258.94,265.57,263.67,269.83,262.72,271.84z"/>
			<path class="st217" d="M262.36,271.67c-0.92,1.96-7.02,1-13.61-2.15c-6.59-3.14-11.18-7.28-10.26-9.24
				c0.92-1.96,7.02-1,13.61,2.15C258.69,265.58,263.28,269.71,262.36,271.67z"/>
			
				<ellipse transform="matrix(0.4309 -0.9024 0.9024 0.4309 -97.502 377.3565)" class="st218" cx="250.42" cy="265.98" rx="3.8" ry="12.82"/>
			<path class="st219" d="M261.63,271.33c-0.87,1.84-6.59,0.94-12.78-2.02c-6.19-2.95-10.5-6.84-9.63-8.68
				c0.87-1.84,6.59-0.94,12.78,2.02C258.19,265.6,262.5,269.49,261.63,271.33z"/>
			<path class="st220" d="M261.27,271.15c-0.84,1.78-6.38,0.9-12.37-1.95c-5.99-2.86-10.16-6.62-9.32-8.4
				c0.84-1.78,6.38-0.9,12.37,1.95C257.94,265.62,262.11,269.37,261.27,271.15z"/>
			<path class="st221" d="M260.91,270.98c-0.81,1.72-6.17,0.87-11.96-1.89c-5.79-2.76-9.83-6.4-9.01-8.12s6.17-0.87,11.96,1.89
				C257.69,265.63,261.72,269.26,260.91,270.98z"/>
			<path class="st222" d="M260.55,270.81c-0.78,1.66-5.95,0.84-11.54-1.82c-5.59-2.67-9.49-6.18-8.7-7.84
				c0.78-1.66,5.95-0.84,11.54,1.82C257.44,265.64,261.33,269.15,260.55,270.81z"/>
			<path class="st223" d="M260.19,270.64c-0.76,1.6-5.74,0.81-11.13-1.76c-5.39-2.57-9.15-5.95-8.39-7.56
				c0.76-1.6,5.74-0.81,11.13,1.76C257.19,265.65,260.94,269.04,260.19,270.64z"/>
			<path class="st224" d="M259.82,270.46c-0.73,1.54-5.53,0.78-10.72-1.69c-5.19-2.48-8.81-5.73-8.08-7.28
				c0.73-1.54,5.53-0.78,10.72,1.69C256.94,265.66,260.55,268.92,259.82,270.46z"/>
			<path class="st225" d="M259.46,270.29c-0.7,1.48-5.32,0.75-10.31-1.63c-4.99-2.38-8.47-5.51-7.77-7
				c0.7-1.48,5.32-0.75,10.31,1.63C256.69,265.68,260.16,268.81,259.46,270.29z"/>
			<path class="st226" d="M259.1,270.12c-0.67,1.42-5.1,0.72-9.89-1.56c-4.79-2.29-8.13-5.29-7.46-6.72
				c0.67-1.42,5.1-0.72,9.89,1.56C256.43,265.69,259.77,268.7,259.1,270.12z"/>
			<path class="st227" d="M258.74,269.95c-0.64,1.36-4.89,0.69-9.48-1.5c-4.59-2.19-7.79-5.07-7.15-6.44
				c0.64-1.36,4.89-0.69,9.48,1.5S259.38,268.58,258.74,269.95z"/>
			<path class="st228" d="M258.38,269.77c-0.62,1.3-4.68,0.66-9.07-1.43c-4.39-2.1-7.45-4.85-6.84-6.16
				c0.62-1.3,4.68-0.66,9.07,1.43C255.93,265.71,259,268.47,258.38,269.77z"/>
			<path class="st229" d="M258.02,269.6c-0.59,1.25-4.46,0.63-8.66-1.37c-4.19-2-7.12-4.63-6.53-5.88c0.59-1.25,4.46-0.63,8.66,1.37
				C255.68,265.73,258.61,268.36,258.02,269.6z"/>
			<path class="st230" d="M257.66,269.43c-0.56,1.19-4.25,0.6-8.25-1.3c-3.99-1.9-6.78-4.41-6.22-5.6c0.56-1.19,4.25-0.6,8.25,1.3
				C255.43,265.74,258.22,268.24,257.66,269.43z"/>
			<path class="st231" d="M257.29,269.26c-0.53,1.13-4.04,0.57-7.83-1.24c-3.79-1.81-6.44-4.19-5.9-5.32
				c0.53-1.13,4.04-0.57,7.83,1.24S257.83,268.13,257.29,269.26z"/>
			<path class="st232" d="M256.93,269.08c-0.5,1.07-3.83,0.54-7.42-1.17c-3.59-1.71-6.1-3.97-5.59-5.04
				c0.5-1.07,3.83-0.54,7.42,1.17C254.93,265.76,257.44,268.02,256.93,269.08z"/>
			<path class="st233" d="M256.57,268.91c-0.48,1.01-3.61,0.51-7.01-1.11c-3.39-1.62-5.76-3.75-5.28-4.76
				c0.48-1.01,3.61-0.51,7.01,1.11C254.68,265.77,257.05,267.9,256.57,268.91z"/>
			<path class="st234" d="M256.21,268.74c-0.45,0.95-3.4,0.48-6.6-1.04c-3.19-1.52-5.42-3.53-4.97-4.48c0.45-0.95,3.4-0.48,6.6,1.04
				C254.43,265.79,256.66,267.79,256.21,268.74z"/>
			<path class="st235" d="M255.85,268.57c-0.42,0.89-3.19,0.45-6.18-0.98c-3-1.43-5.08-3.31-4.66-4.2c0.42-0.89,3.19-0.45,6.18,0.98
				C254.18,265.8,256.27,267.68,255.85,268.57z"/>
			<path class="st236" d="M255.49,268.39c-0.39,0.83-2.98,0.42-5.77-0.91c-2.8-1.33-4.74-3.09-4.35-3.92
				c0.39-0.83,2.98-0.42,5.77,0.91C253.93,265.81,255.88,267.56,255.49,268.39z"/>
			<path class="st237" d="M255.12,268.22c-0.36,0.77-2.76,0.39-5.36-0.85c-2.6-1.24-4.4-2.87-4.04-3.64
				c0.36-0.77,2.76-0.39,5.36,0.85C253.68,265.82,255.49,267.45,255.12,268.22z"/>
			<path class="st238" d="M254.76,268.05c-0.34,0.71-2.55,0.36-4.95-0.78c-2.4-1.14-4.07-2.65-3.73-3.36
				c0.34-0.71,2.55-0.36,4.95,0.78C253.43,265.83,255.1,267.34,254.76,268.05z"/>
			<path class="st239" d="M254.4,267.88c-0.31,0.65-2.34,0.33-4.54-0.72c-2.2-1.05-3.73-2.43-3.42-3.08
				c0.31-0.65,2.34-0.33,4.54,0.72C253.18,265.85,254.71,267.22,254.4,267.88z"/>
			<path class="st240" d="M254.04,267.7c-0.28,0.59-2.13,0.3-4.12-0.65c-2-0.95-3.39-2.21-3.11-2.8c0.28-0.59,2.13-0.3,4.12,0.65
				C252.93,265.86,254.32,267.11,254.04,267.7z"/>
			<path class="st241" d="M253.68,267.53c-0.25,0.53-1.91,0.27-3.71-0.59c-1.8-0.86-3.05-1.98-2.8-2.52
				c0.25-0.53,1.91-0.27,3.71,0.59C252.68,265.87,253.93,267,253.68,267.53z"/>
			<path class="st242" d="M253.32,267.36c-0.22,0.47-1.7,0.24-3.3-0.52c-1.6-0.76-2.71-1.76-2.49-2.24c0.22-0.47,1.7-0.24,3.3,0.52
				C252.43,265.88,253.54,266.89,253.32,267.36z"/>
			<path class="st243" d="M252.96,267.19c-0.2,0.42-1.49,0.21-2.89-0.46c-1.4-0.67-2.37-1.54-2.18-1.96
				c0.2-0.42,1.49-0.21,2.89,0.46C252.18,265.89,253.15,266.77,252.96,267.19z"/>
			<path class="st244" d="M252.59,267.01c-0.17,0.36-1.28,0.18-2.47-0.39c-1.2-0.57-2.03-1.32-1.86-1.68s1.28-0.18,2.47,0.39
				C251.93,265.91,252.76,266.66,252.59,267.01z"/>
			<path class="st245" d="M252.23,266.84c-0.14,0.3-1.06,0.15-2.06-0.33c-1-0.48-1.69-1.1-1.55-1.4c0.14-0.3,1.06-0.15,2.06,0.33
				C251.68,265.92,252.37,266.55,252.23,266.84z"/>
			<path class="st246" d="M251.87,266.67c-0.11,0.24-0.85,0.12-1.65-0.26c-0.8-0.38-1.36-0.88-1.24-1.12
				c0.11-0.24,0.85-0.12,1.65,0.26C251.43,265.93,251.98,266.43,251.87,266.67z"/>
			<path class="st247" d="M251.51,266.5c-0.08,0.18-0.64,0.09-1.24-0.2c-0.6-0.29-1.02-0.66-0.93-0.84c0.08-0.18,0.64-0.09,1.24,0.2
				C251.18,265.94,251.59,266.32,251.51,266.5z"/>
			<path class="st248" d="M251.15,266.32c-0.06,0.12-0.43,0.06-0.82-0.13c-0.4-0.19-0.68-0.44-0.62-0.56
				c0.06-0.12,0.43-0.06,0.82,0.13C250.93,265.96,251.2,266.21,251.15,266.32z"/>
			<path class="st249" d="M250.79,266.15c-0.03,0.06-0.21,0.03-0.41-0.07c-0.2-0.1-0.34-0.22-0.31-0.28
				c0.03-0.06,0.21-0.03,0.41,0.07S250.81,266.09,250.79,266.15z"/>
		</g>
	</g>
	<g>
		<path class="st250" d="M193.63,143.36c-4.6-2.67-12.63-2.33-17.93,0.75l-16.09,9.34l84.75,49.16c2.84,1.65,7.81,1.44,11.1-0.46
			l19.76-11.46L193.63,143.36z"/>
		<path class="st5" d="M441.72,73.37l-2.08,1.65c-0.04-0.03-0.08-0.05-0.12-0.08L325.06,8.54c-3.25-1.89-8.93-1.65-12.68,0.53
			L125.41,117.52c-0.44,0.25-0.83,0.53-1.18,0.81l-1.93-1.42v4.71l0.01-0.01c-0.03,1.22,0.68,2.4,2.18,3.27l114.47,66.4
			c3.25,1.89,8.93,1.65,12.68-0.53L438.61,82.3c2.05-1.19,3.1-2.72,3.1-4.17l0.01,0.01V73.37z"/>
		
			<linearGradient id="SVGID_5_" gradientUnits="userSpaceOnUse" x1="2186.4395" y1="-875.0406" x2="1855.4988" y2="-917.1892" gradientTransform="matrix(1 -0.5774 0.866 0.5 -955.1197 1706.498)">
			<stop  offset="0" style="stop-color:#59BDEF"/>
			<stop  offset="1" style="stop-color:#7BDAFF"/>
		</linearGradient>
		<path class="st251" d="M438.61,77.53L251.66,185.98c-3.75,2.18-9.43,2.41-12.68,0.53l-114.47-66.4c-3.25-1.89-2.84-5.18,0.91-7.36
			L312.37,4.3c3.75-2.18,9.43-2.41,12.68-0.53l114.47,66.4C442.78,72.06,442.37,75.35,438.61,77.53z"/>
		<g>
			<path class="st5" d="M291.09,56.27l-16.08-9.33l3.94-2.28c0.74-0.43,1.46-0.77,2.14-1.01c0.69-0.24,1.4-0.4,2.14-0.47
				c0.73-0.07,1.49-0.01,2.25,0.18c0.76,0.19,1.53,0.51,2.29,0.96c1.98,1.15,2.3,2.26,0.96,3.3c1.13-0.45,2.26-0.62,3.37-0.51
				c1.12,0.11,2.27,0.5,3.45,1.18c1.53,0.88,2.31,1.77,2.33,2.68c0.02,0.9-0.7,1.79-2.18,2.64L291.09,56.27z M284.5,49.04l0.91-0.53
				c0.86-0.5,1.27-0.95,1.22-1.35c-0.05-0.4-0.5-0.86-1.38-1.36c-0.45-0.26-0.87-0.44-1.26-0.55c-0.39-0.1-0.78-0.12-1.17-0.06
				c-0.39,0.06-0.77,0.17-1.12,0.32c-0.35,0.15-0.78,0.38-1.29,0.67L280,46.43L284.5,49.04z M291.95,53.37l1.07-0.62
				c0.87-0.51,1.27-0.97,1.2-1.41c-0.07-0.43-0.58-0.92-1.51-1.46c-0.97-0.56-1.86-0.86-2.68-0.89c-0.82-0.03-1.67,0.21-2.56,0.72
				l-0.92,0.53L291.95,53.37z"/>
			<path class="st5" d="M301.26,50.36l-12.81-11.22l3.05-1.77l19.34,7.44l-2.73,1.58l-4.38-1.79l-2.78,1.61l3.08,2.55L301.26,50.36z
				 M299.35,44.92l2.15-1.25l-7.68-3.21L299.35,44.92z"/>
			<path class="st5" d="M312.43,43.89l-16.08-9.33l2.02-1.17l13.05,3l-9.11-5.28l2.43-1.41l16.08,9.33l-1.92,1.11l-13.55-3.25
				l9.57,5.55L312.43,43.89z"/>
			<path class="st5" d="M323.21,37.63l-16.08-9.33l2.93-1.7l6.98,4.05l-3.82-5.88l2.79-1.62l4.12,5.96l12.28,3.18l-2.92,1.69
				l-10.34-2.78l0.47,0.94l6.52,3.78L323.21,37.63z"/>
		</g>
		<g>
			<polygon class="st5" points="273.62,146.14 237.78,166.92 233.64,164.52 269.47,143.73 			"/>
			<polygon class="st5" points="317.67,120.59 281.83,141.37 277.68,138.97 313.52,118.18 			"/>
			<polygon class="st5" points="361.71,95.03 325.88,115.82 321.73,113.42 357.57,92.63 			"/>
			<polygon class="st5" points="405.76,69.48 369.93,90.27 365.78,87.87 401.61,67.08 			"/>
		</g>
	</g>
	<g>
		<g>
			<path class="st5" d="M447.45,215.75l-62.57-36.61c-12.4-7.19-24.09-8.33-32.92-3.21c-8.83,5.12-13.69,15.86-13.69,30.25v4.61
				c0.44,0.3,0.91,0.59,1.38,0.89v-5.49c0-13.86,4.62-24.18,13-29.04c8.39-4.86,19.59-3.72,31.54,3.21l62.57,36.61
				c0.33,0.2,0.75,0.08,0.94-0.25C447.89,216.36,447.78,215.94,447.45,215.75z"/>
			<path class="st5" d="M252.31,172.14v-38.7c0-28.36-19.89-62.97-44.33-77.15c-11.97-6.94-23.26-8.05-31.8-3.1
				c-8.53,4.95-13.23,15.32-13.23,29.21v9.88c0.46,0.46,0.92,0.92,1.38,1.39V82.41c0-13.37,4.45-23.32,12.54-28.01
				c8.09-4.69,18.89-3.59,30.42,3.1c24.06,13.96,43.64,48.03,43.64,75.95v38.7c0,23.51,13.77,51.33,32.43,68.07
				c0-0.62,0-1.24,0-1.86C265.43,221.79,252.31,194.91,252.31,172.14z"/>
			<g>
				<path class="st5" d="M283.5,239.62c0,0-15.93-16.3-22.13-29.74c-6.2-13.44-9.42-25.88-9.52-36.97
					c-0.11-11.09-0.22-3.48-0.22-3.48s0.68-39.54-0.97-45.78c-1.66-6.24-5.56-39.55-38.02-63.47
					c-32.47-23.92-48.68,1.88-48.49,15.37c0.19,13.48,0,22.11,0,22.11s17.79,14.46,24.5,35.12c6.71,20.66,7.36,17.07,7.47,37.62
					c0.11,20.55,0.22,21.82,0.22,21.82s-1.5,18.31,3.03,32.48c4.53,14.17,12.69,29.88,22.37,40.16
					c9.68,10.29,23.95,22.44,37.16,21.24c13.2-1.2,22.08-6.09,24.62-27.08V239.62z"/>
				<polygon class="st5" points="176.18,53.19 121.46,84.89 164.14,97.66 				"/>
				<linearGradient id="SVGID_6_" gradientUnits="userSpaceOnUse" x1="330.598" y1="221.1135" x2="267.7336" y2="254.9424">
					<stop  offset="0" style="stop-color:#59BDEF"/>
					<stop  offset="1" style="stop-color:#7BDAFF"/>
				</linearGradient>
				<path class="st252" d="M338.26,210.78v6.36c-3.04-2.21-17.36-12.04-30.95-11.56c-15.31,0.54-20.46,14.63-20.46,14.63
					s-3.63,10.51-3.36,15.44c0.05,0.85,0.09,1.86,0.12,2.93c-0.09-0.08-0.17-0.15-0.26-0.23c0,0.62,0,1.24,0,1.86
					c0.1,0.09,0.21,0.18,0.32,0.27c0.12,4.74,0.16,9.96,0.16,9.96s0.13,9.38-1.19,15.55c-2.38,11.09-11.73,17.39-12.45,18.37
					l56.15-32.48c0.05-0.03,0.1-0.05,0.15-0.07c0.08-0.04,0.15-0.1,0.22-0.14l0.28-0.16l0.03-0.04
					c8.12-5.03,12.59-15.17,12.59-28.66v-11.13C339.17,211.38,338.7,211.09,338.26,210.78z"/>
				<path class="st5" d="M294.51,209.34l57.45-33.41c0,0,9.8-5.17,21.64-0.82c11.85,4.36,73.93,41.78,73.93,41.78L392.06,249
					c0,0-64.44-40.11-72-42.13C304.54,202.74,294.51,209.34,294.51,209.34z"/>
			</g>
			<linearGradient id="SVGID_7_" gradientUnits="userSpaceOnUse" x1="137.3384" y1="108.3111" x2="65.1567" y2="132.5677">
				<stop  offset="0" style="stop-color:#59BDEF"/>
				<stop  offset="1" style="stop-color:#7BDAFF"/>
			</linearGradient>
			<path class="st253" d="M162.95,96.62L162.95,96.62c-2.27-2.16-12.83-11.53-28.25-13.89c-17.46-2.68-24.68,17.83-24.68,17.83
				s-2.02,10.66-1.95,16.96c0.07,6.31,0.52,29.21,0.52,29.21l55.35-32.04l0-0.01c0.22-0.11,0.38-0.34,0.38-0.61V97.82
				C163.87,97.36,163.41,97.08,162.95,96.62z"/>
			<g>
				<linearGradient id="SVGID_8_" gradientUnits="userSpaceOnUse" x1="107.5758" y1="184.5367" x2="392.4163" y2="184.5367">
					<stop  offset="0" style="stop-color:#59BDEF"/>
					<stop  offset="1" style="stop-color:#7BDAFF"/>
				</linearGradient>
				<path class="st254" d="M259.41,286.88c-6.1,0-12.86-2.05-19.85-6.1c-24.27-14.08-44.01-48.44-44.01-76.59v-38.7
					c0-27.92-19.58-61.99-43.64-75.95c-11.53-6.68-22.33-7.79-30.41-3.1c-8.09,4.69-12.54,14.64-12.54,28.01v31.67
					c0,0.38-0.31,0.69-0.69,0.69c-0.38,0-0.69-0.31-0.69-0.69v-31.67c0-13.89,4.7-24.26,13.23-29.21c8.53-4.95,19.82-3.85,31.79,3.1
					c24.45,14.18,44.33,48.79,44.33,77.15v38.7c0,27.71,19.43,61.53,43.32,75.39c11.44,6.63,22.16,7.73,30.19,3.07
					c8.02-4.65,12.44-14.53,12.44-27.8v-16.62c0-14.38,4.86-25.12,13.69-30.25c8.83-5.12,20.52-3.98,32.92,3.21l62.57,36.61
					c0.33,0.19,0.44,0.62,0.25,0.95c-0.19,0.33-0.62,0.44-0.94,0.25l-62.57-36.61c-11.95-6.93-23.15-8.07-31.54-3.21
					c-8.39,4.86-13,15.18-13,29.04v16.62c0,13.79-4.66,24.09-13.13,29C267.64,285.88,263.69,286.88,259.41,286.88z"/>
			</g>
		</g>
		<g>
			<g>
				<polygon class="st255" points="219.99,180.86 219.99,185.87 213.18,189.81 213.18,184.81 				"/>
				<polygon class="st255" points="232.38,173.67 232.38,178.68 225.58,182.63 225.58,177.62 				"/>
				<polygon class="st255" points="239.81,160.01 239.81,165.01 213.51,180.27 213.51,175.27 				"/>
				<polygon class="st255" points="226.68,144.19 226.68,139.19 239.81,131.57 239.81,136.57 				"/>
				<polygon class="st255" points="213.18,152.02 213.18,147.02 219.99,143.07 219.99,148.07 				"/>
				<polygon class="st255" points="213.18,161.37 213.18,156.37 226.15,148.85 226.15,153.85 				"/>
				<polygon class="st255" points="231.38,150.82 231.38,145.82 239.81,140.92 239.81,145.92 				"/>
				<polygon class="st255" points="226.68,202.43 226.68,197.43 239.81,189.81 239.81,194.82 				"/>
				<polygon class="st255" points="213.18,210.26 213.18,205.26 219.99,201.31 219.99,206.31 				"/>
				<polygon class="st255" points="213.18,219.61 213.18,214.61 226.15,207.09 226.15,212.09 				"/>
				<polygon class="st255" points="231.38,209.06 231.38,204.06 239.81,199.16 239.81,204.17 				"/>
			</g>
			<g>
				<polygon class="st255" points="366.77,217.22 362.46,214.72 368.27,211.35 372.58,213.85 				"/>
				<polygon class="st255" points="375.1,203.04 370.79,200.54 381.85,194.12 386.16,196.62 				"/>
				<polygon class="st255" points="350.47,207.11 346.16,204.6 373.04,189.01 377.35,191.51 				"/>
				<polygon class="st255" points="376.68,211.47 372.37,208.97 394.81,195.96 399.12,198.46 				"/>
				<polygon class="st255" points="359.28,212.22 354.97,209.72 366.03,203.3 370.34,205.8 				"/>
			</g>
		</g>
	</g>
	<g>
		<polygon class="st5" points="90.33,225.41 88.01,226.76 82.53,223.57 84.84,222.23 		"/>
		<polygon class="st5" points="94.59,222.94 92.28,224.28 86.79,221.1 89.11,219.76 		"/>
		<polygon class="st5" points="98.86,220.47 96.54,221.81 91.06,218.63 93.37,217.28 		"/>
		<polygon class="st5" points="103.12,217.99 100.81,219.33 95.32,216.15 97.64,214.81 		"/>
	</g>
</g>
<g>
	<defs>
		<polygon id="SVGID_9_" points="88.61,246.21 70.49,233.92 89.71,179.2 144.65,197.18 116.62,255.36 		"/>
	</defs>
	<clipPath id="SVGID_10_">
		<use xlink:href="#SVGID_9_"  style="overflow:visible;"/>
	</clipPath>
	<g class="st256">
		<g>
			<g>
				
					<linearGradient id="SVGID_11_" gradientUnits="userSpaceOnUse" x1="-1991.6409" y1="207.5483" x2="-1967.3374" y2="224.3028" gradientTransform="matrix(1 0 0 1 2080.3184 0)">
					<stop  offset="0" style="stop-color:#3A9BD5"/>
					<stop  offset="1" style="stop-color:#2573BA"/>
				</linearGradient>
				<polygon class="st257" points="109.74,225.32 90.4,214.1 90.4,205.49 109.74,216.7 				"/>
				
					<linearGradient id="SVGID_12_" gradientUnits="userSpaceOnUse" x1="-1985.0763" y1="199.2619" x2="-1957.783" y2="210.9876" gradientTransform="matrix(1 0 0 1 2080.3184 0)">
					<stop  offset="0" style="stop-color:#7BDAFF"/>
					<stop  offset="1" style="stop-color:#59BDEF"/>
				</linearGradient>
				<polygon class="st258" points="109.74,216.7 90.4,205.49 109.73,194.27 129.07,205.49 				"/>
				
					<linearGradient id="SVGID_13_" gradientUnits="userSpaceOnUse" x1="-1973.0579" y1="211.7419" x2="-1947.1719" y2="219.5457" gradientTransform="matrix(1 0 0 1 2080.3184 0)">
					<stop  offset="0" style="stop-color:#2573BA"/>
					<stop  offset="1" style="stop-color:#0063AD"/>
				</linearGradient>
				<polygon class="st259" points="129.07,214.1 109.73,225.32 109.73,216.7 129.07,205.49 				"/>
			</g>
			<polygon class="st260" points="109.74,216.27 90.78,205.27 90.4,205.49 109.74,216.7 129.07,205.49 128.69,205.27 			"/>
		</g>
		<polygon class="st5" points="106.01,218.23 94.79,211.65 85.34,219.25 84.54,225.81 84.54,231.8 43.55,256.67 34.22,262.21 
			35.64,266.49 42.13,269.08 51.11,266.4 73.81,252.12 90.4,242.96 95.96,238.67 96.32,229.56 97.03,224.03 		"/>
		<g>
			<path class="st5" d="M42.61,270.59c-1.84,0-3.69-0.49-5.37-1.46c-3.36-1.95-5.37-5.44-5.37-9.34v-30.32
				c0-0.81,0.66-1.47,1.47-1.47c0.81,0,1.47,0.66,1.47,1.47v30.32c0,2.83,1.46,5.37,3.9,6.79c2.44,1.42,5.36,1.42,7.8,0l45.42-26.37
				c1.71-0.99,2.77-2.83,2.77-4.81v-6.75c0-3.03,1.62-5.85,4.23-7.36l5.46-3.17c0.7-0.41,1.6-0.17,2,0.54
				c0.4,0.7,0.16,1.61-0.54,2.01l-5.46,3.17c-1.71,0.99-2.77,2.83-2.77,4.81v6.75c0,3.03-1.62,5.85-4.23,7.36l-45.42,26.37
				C46.29,270.1,44.45,270.59,42.61,270.59z"/>
		</g>
		<path class="st5" d="M95.34,212.19c-0.4-0.7-1.3-0.95-2-0.54l-5.46,3.17c-2.61,1.51-4.23,4.34-4.23,7.36v6.75
			c0,1.98-1.06,3.82-2.77,4.81l-47.53,27.59c-1,0.58-2.09,0.92-3.19,1.02c0.1,0.97,0.06,1.97,0.14,2.95
			c1.55-0.13,3.09-0.6,4.51-1.42l47.53-27.59c2.61-1.51,4.23-4.34,4.23-7.36v-6.75c0-1.98,1.06-3.82,2.77-4.81l5.46-3.17
			C95.5,213.79,95.74,212.89,95.34,212.19z"/>
		
			<linearGradient id="SVGID_14_" gradientUnits="userSpaceOnUse" x1="-2071.9099" y1="250.0984" x2="-2039.0743" y2="250.0984" gradientTransform="matrix(1 0 0 1 2080.3184 0)">
			<stop  offset="0" style="stop-color:#3A9BD5"/>
			<stop  offset="1" style="stop-color:#2573BA"/>
		</linearGradient>
		<path class="st261" d="M38.38,269.71l-4.46-5.6l-0.63-6.63V241.4l0.04-5.97l-11.68,2v-5.46c0-0.81-0.66-1.47-1.47-1.47
			c-0.81,0-1.47,0.66-1.47,1.47v22.58c0,3.9,2.01,7.39,5.37,9.34c0.6,0.35,1.23,0.64,1.87,0.86l0,0L38.38,269.71z"/>
		<g>
			
				<linearGradient id="SVGID_15_" gradientUnits="userSpaceOnUse" x1="-2048.447" y1="244.256" x2="-1973.7357" y2="244.256" gradientTransform="matrix(1 0 0 1 2080.3184 0)">
				<stop  offset="0" style="stop-color:#7BDAFF"/>
				<stop  offset="1" style="stop-color:#59BDEF"/>
			</linearGradient>
			<path class="st262" d="M42.61,270.59c-1.84,0-3.69-0.49-5.37-1.46c-3.36-1.95-5.37-5.44-5.37-9.34v-30.32
				c0-0.81,0.66-1.47,1.47-1.47c0.81,0,1.47,0.66,1.47,1.47v30.32c0,2.83,1.46,5.37,3.9,6.79c2.44,1.42,5.36,1.42,7.8,0l45.42-26.37
				c1.71-0.99,2.77-2.83,2.77-4.81v-6.75c0-3.03,1.62-5.85,4.23-7.36l5.46-3.17c0.7-0.41,1.6-0.17,2,0.54
				c0.4,0.7,0.16,1.61-0.54,2.01l-5.46,3.17c-1.71,0.99-2.77,2.83-2.77,4.81v6.75c0,3.03-1.62,5.85-4.23,7.36l-45.42,26.37
				C46.29,270.1,44.45,270.59,42.61,270.59z"/>
		</g>
		<g>
			<polygon class="st263" points="113.81,221.18 111.84,222.33 111.84,218.35 113.81,217.2 			"/>
			<polygon class="st5" points="117.1,219.28 115.13,220.42 115.13,216.44 117.1,215.3 			"/>
			<polygon class="st5" points="120.39,217.37 118.41,218.52 118.41,214.53 120.39,213.39 			"/>
			<polygon class="st5" points="123.67,215.47 121.7,216.61 121.7,212.63 123.67,211.48 			"/>
			<polygon class="st5" points="126.96,213.56 124.99,214.7 124.99,210.72 126.96,209.58 			"/>
		</g>
	</g>
</g>
</svg>
