<svg id="Layer_1" data-name="Layer 1" xmlns="http://www.w3.org/2000/svg" viewBox="0 0 454.27 229.98"><defs><style>.cls-1,.cls-9{fill:none;stroke-miterlimit:10;}.cls-1{stroke:#3d4fb7;}.cls-2{fill:#e8eefe;}.cls-3{fill:#cddbfc;}.cls-4{fill:#c9ced6;}.cls-5{fill:#e8eaef;}.cls-6{fill:#cfdae5;}.cls-7{fill:#fff;}.cls-8{fill:#93a5f9;}.cls-9{stroke:#7289f7;}.cls-10{fill:#3d4fb7;}.cls-11{fill:#f2f9ff;}</style></defs><line class="cls-1" x1="298.13" y1="138.5" x2="315.72" y2="229.7"/><line class="cls-1" x1="260.36" y1="138.5" x2="242.77" y2="229.7"/><line class="cls-1" x1="280.17" y1="138.5" x2="285.01" y2="229.7"/><path class="cls-2" d="M372.69,72.59c88.2,0,65.46,140.33,27.67,140.33H314c-11.73,0-15.12-14.81-2.93-14.81h21.64S308.33,72.59,372.69,72.59Z" transform="translate(-87.73 -72.59)"/><path class="cls-3" d="M391.47,201.09H305.11c-.29,0-.57,0-.85,0,1.11-1.73,3.32-2.95,6.81-2.95h21.64S311.32,87.93,361.54,74c.75,0,1.49-.06,2.27-.06C452,74,429.26,201.09,391.47,201.09Z" transform="translate(-87.73 -72.59)"/><line class="cls-1" x1="47.92" y1="138.5" x2="30.33" y2="229.7"/><line class="cls-1" x1="85.69" y1="138.5" x2="103.28" y2="229.7"/><line class="cls-1" x1="65.88" y1="138.5" x2="61.04" y2="229.7"/><path class="cls-2" d="M148.83,72.59c-88.2,0-65.46,140.33-27.67,140.33h86.36c11.73,0,15.12-14.81,2.93-14.81H188.81S213.19,72.59,148.83,72.59Z" transform="translate(-87.73 -72.59)"/><path class="cls-3" d="M130.05,201.09h86.36c.29,0,.57,0,.85,0-1.11-1.73-3.31-2.95-6.81-2.95H188.81S210.21,87.93,160,74c-.75,0-1.49-.06-2.26-.06C69.52,74,92.26,201.09,130.05,201.09Z" transform="translate(-87.73 -72.59)"/><path class="cls-4" d="M161.48,144.38h43.24v2.42H159.06A2.42,2.42,0,0,1,161.48,144.38Z" transform="translate(-87.73 -72.59)"/><path class="cls-4" d="M257.42,146.8H196.66l11.62-37.33a4.57,4.57,0,0,1,4.37-3.22h54.93a1.8,1.8,0,0,1,1.72,2.34Z" transform="translate(-87.73 -72.59)"/><path class="cls-5" d="M260.15,146.8H199.39L211,109.47a4.57,4.57,0,0,1,4.37-3.22h54.93a1.8,1.8,0,0,1,1.72,2.34Z" transform="translate(-87.73 -72.59)"/><ellipse class="cls-4" cx="238.15" cy="127.13" rx="4.19" ry="3.07" transform="translate(-112.54 -6.54) rotate(-15.02)"/><path class="cls-5" d="M301.33,141.87h-3.24v-1.55h3.24a1.89,1.89,0,0,0,1.89-1.89v-2.66a1.89,1.89,0,0,0-1.89-1.89h-3.24v-1.55h3.24a3.44,3.44,0,0,1,3.43,3.44v2.66A3.44,3.44,0,0,1,301.33,141.87Z" transform="translate(-87.73 -72.59)"/><path class="cls-5" d="M199.72,57.55h13.07a0,0,0,0,1,0,0v9.66a6.12,6.12,0,0,1-6.12,6.12h-.82a6.12,6.12,0,0,1-6.12-6.12V57.55A0,0,0,0,1,199.72,57.55Z"/><path class="cls-6" d="M285.34,143.73s.13,3.07,4.9,3.07h7.49c4.78,0,4.9-3.07,4.9-3.07Z" transform="translate(-87.73 -72.59)"/><path class="cls-4" d="M416.93,144.38H373.69l-.13,2.42h45.66A2.27,2.27,0,0,0,416.93,144.38Z" transform="translate(-87.73 -72.59)"/><path class="cls-4" d="M320.87,146.8h60.75L372,109.47a4.29,4.29,0,0,0-4.2-3.22H312.83a1.91,1.91,0,0,0-1.85,2.34Z" transform="translate(-87.73 -72.59)"/><path class="cls-5" d="M318.14,146.8h60.75l-9.66-37.33a4.29,4.29,0,0,0-4.2-3.22H310.1a1.91,1.91,0,0,0-1.85,2.34Z" transform="translate(-87.73 -72.59)"/><path class="cls-4" d="M337.09,127.13c.26,1.75,2.3,3.16,4.55,3.16s3.86-1.41,3.59-3.16-2.3-3.15-4.55-3.15S336.83,125.39,337.09,127.13Z" transform="translate(-87.73 -72.59)"/><path class="cls-5" d="M413.35,141.87h-3.23v-1.55h3.23a1.9,1.9,0,0,0,1.9-1.89v-2.66a1.9,1.9,0,0,0-1.9-1.89h-3.23v-1.55h3.23a3.44,3.44,0,0,1,3.44,3.44v2.66A3.45,3.45,0,0,1,413.35,141.87Z" transform="translate(-87.73 -72.59)"/><path class="cls-5" d="M311.74,57.55h13.07a0,0,0,0,1,0,0V68.08a6.12,6.12,0,0,1-6.12,6.12h-.82a6.12,6.12,0,0,1-6.12-6.12V57.55A0,0,0,0,1,311.74,57.55Z"/><path class="cls-7" d="M397.36,143.73s.13,3.07,4.9,3.07h7.49c4.78,0,4.91-3.07,4.91-3.07Z" transform="translate(-87.73 -72.59)"/><path class="cls-8" d="M522.05,212.39c2.13-.34,4.38-.66,6.37.24,1.79.8,3.09,2.47,4.49,3.92s3.17,2.76,5.1,2.56,3.68-2.21,4-4.41a7.35,7.35,0,0,0-2.21-5.92,10.15,10.15,0,0,0-5.53-2.61,27.64,27.64,0,0,0-6.1-.1" transform="translate(-87.73 -72.59)"/><path class="cls-8" d="M534.66,229.7a11.94,11.94,0,0,1,4.42,1,4.78,4.78,0,0,1,2.68,3.58c.15,1.58-1,3.28-2.51,3.31a3.66,3.66,0,0,1-2.48-1.21c-.76-.72-1.44-1.54-2.26-2.2a10.21,10.21,0,0,0-3.07-1.46,4.09,4.09,0,0,1-2.8-2.37" transform="translate(-87.73 -72.59)"/><path class="cls-3" d="M514.75,244.24a16.93,16.93,0,0,1,5.2-13.07,13.38,13.38,0,0,1,13.12-2.94,26.78,26.78,0,0,1,6.57,2.81c-6.49-.83-12.17,4.63-13.21,5.4a23.83,23.83,0,0,0-1.86,1.63c-2.55,2.35-6.78,4.56-9.82,6.17" transform="translate(-87.73 -72.59)"/><path class="cls-3" d="M511.33,232.81c.38-2.33-.3-4.69-.74-7-.9-4.72-.8-9.83,1.34-14.1s6.62-7.46,11.22-6.95c1.66.18,3.24.81,4.89,1.1a24.71,24.71,0,0,0,4.71.21,4.24,4.24,0,0,1,2.16.53c-4.5,1.16-7,5.33-11.41,7.71s-5.12,11.15-12.17,18.51" transform="translate(-87.73 -72.59)"/><path class="cls-3" d="M507.6,227.12a10.35,10.35,0,0,0-3.42-6.37c-1.73-1.71-3.73-3.14-5.29-5a30.77,30.77,0,0,1-2.48-3.68l-3.36-5.59a41,41,0,0,1-2-3.61,33.73,33.73,0,0,1-1.61-4.27c-.47-1.43-.9-2.88-1.3-4.34a14.28,14.28,0,0,1-.61-3.42,5,5,0,0,1,1-3.24,4.33,4.33,0,0,1,4.07-1.28,9.41,9.41,0,0,1,4,2,10.75,10.75,0,0,1,2,1.89c1.56,2,2,4.61,2.89,7,1.55,4.3,4.49,8,5.82,12.34a29.84,29.84,0,0,1,.9,4.32c.45,3.08,1,9.93-.65,13.31" transform="translate(-87.73 -72.59)"/><path class="cls-9" d="M493.55,191.36,501.09,206c.94,1.81,1.87,3.62,2.67,5.5,4.35,10.22,5.77,34,5.35,49.61" transform="translate(-87.73 -72.59)"/><path class="cls-9" d="M527.5,206a8.82,8.82,0,0,0-6.29,2.35c-5.65,4.66-7.79,12.52-9,19.93a132.21,132.21,0,0,0-1.49,27.18" transform="translate(-87.73 -72.59)"/><path class="cls-9" d="M534.29,229.35c-4.86-1.17-10.11.91-13.66,4.55s-5.58,8.67-6.53,13.78a81.42,81.42,0,0,0-.86,15.54" transform="translate(-87.73 -72.59)"/><path class="cls-8" d="M500.77,226.17c-5.09-6.44-12.62-11.51-20.65-9.53a52.58,52.58,0,0,0-9.61,3.72c7.19-1.54,9.68-1.38,14.79,1.2s7.87,9,11.11,13.77c1,1.51,7.59,9.75,8,4.67C504.85,235.34,503.56,229.72,500.77,226.17Z" transform="translate(-87.73 -72.59)"/><path class="cls-9" d="M477.39,217.45c5.67-1.1,11.81-.55,16.16,3.64s8.75,13.76,10.58,19.83,2.69,12.44,3.54,18.77" transform="translate(-87.73 -72.59)"/><polygon class="cls-2" points="431.9 206.8 411.65 206.8 407.75 181.28 435.81 181.28 431.9 206.8"/><polygon class="cls-10" points="434.7 188.49 434.93 187 408.62 187 408.85 188.49 434.7 188.49"/><line class="cls-1" x1="412.94" y1="187.74" x2="406.78" y2="229.91"/><line class="cls-1" x1="430.49" y1="187.74" x2="436.64" y2="229.91"/><line class="cls-1" x1="421.71" y1="187.74" x2="421.71" y2="229.91"/><path class="cls-3" d="M470.64,220.18c-3.08,2.19-4.77,5.25-2.13,9.15,1.91,2.83,6.05,3,9,1.53s5.16-4.29,7.46-6.8,9.5-4.08,9.5-4.08a12,12,0,0,0-3.51-2.46,21.19,21.19,0,0,0-2.78-1,18.78,18.78,0,0,0-6.11-.47A23.89,23.89,0,0,0,470.64,220.18Z" transform="translate(-87.73 -72.59)"/><path class="cls-9" d="M488.22,216.57c-7.27.69-13.39,4.15-15.72,8.42" transform="translate(-87.73 -72.59)"/><line class="cls-1" x1="15.34" y1="78.25" x2="15.34" y2="229.7"/><line class="cls-1" x1="354.01" y1="78.25" x2="354.01" y2="229.7"/><rect class="cls-11" x="3.95" y="73.97" width="361.45" height="8.57"/></svg>