<?xml version="1.0" encoding="utf-8"?>
<!-- Generator: Adobe Illustrator 25.2.1, SVG Export Plug-In . SVG Version: 6.00 Build 0)  -->
<svg version="1.1" id="Слой_2" xmlns="http://www.w3.org/2000/svg" xmlns:xlink="http://www.w3.org/1999/xlink" x="0px" y="0px"
	 viewBox="0 0 1890.7 1171.3" style="enable-background:new 0 0 1890.7 1171.3;" xml:space="preserve">
<style type="text/css">
	.st0{fill:#CECECE;}
	.st1{fill:#D86713;}
	.st2{fill:#F1A34F;}
	.st3{fill:#C95C12;}
	.st4{fill:#FFD5AB;}
	.st5{fill:#4A75CB;}
	.st6{fill:#699DEE;}
	.st7{fill:#EBF2F9;}
	.st8{fill:#A6C7F9;}
	.st9{fill:#1C468A;}
	.st10{fill:#EFBA95;}
	.st11{fill:#D88029;}
	.st12{fill:#233862;}
	.st13{fill:#2B478B;}
	.st14{fill:#E2923D;}
	.st15{fill:#8CB3ED;}
	.st16{fill:#82B378;}
	.st17{fill:#A8D29F;}
	.st18{fill:#FFB973;}
	.st19{fill:#E0E0E0;}
</style>
<g id="Black_Background">
</g>
<rect x="1195.8" y="122.5" class="st0" width="90.6" height="1048.8"/>
<rect x="1705.8" y="122.5" class="st0" width="94.3" height="1048.8"/>
<rect x="730.4" y="868.2" class="st1" width="191.1" height="191.1"/>
<rect x="789.3" y="868.2" class="st2" width="191.1" height="191.1"/>
<polygon class="st3" points="789.3,868.2 730.4,903.9 730.4,868.2 "/>
<polygon class="st4" points="826.1,979.8 752.1,979.8 755.2,971.1 752.1,961.8 825.5,961.8 821,971.4 "/>
<polygon class="st3" points="789.1,961.8 789.1,979.8 752.1,979.8 755.2,971.1 752.1,961.8 "/>
<rect x="741.9" y="758.3" class="st1" width="109.9" height="109.9"/>
<rect x="775.8" y="758.3" class="st2" width="109.9" height="109.9"/>
<polygon class="st3" points="775.8,758.3 741.9,778.8 741.9,758.3 "/>
<rect x="819.3" y="781.6" class="st5" width="86.5" height="86.5"/>
<rect x="846" y="781.6" class="st6" width="86.5" height="86.5"/>
<rect x="854.2" y="844.1" transform="matrix(0.9806 -0.1958 0.1958 0.9806 -150.0342 186.9361)" class="st7" width="32.8" height="16.6"/>
<polygon class="st7" points="861.6,803.7 830.3,803.7 831.6,800 830.3,796.1 861.3,796.1 859.4,800.2 "/>
<polygon class="st8" points="845.9,796.1 845.9,803.7 830.3,803.7 831.6,800 830.3,796.1 "/>
<polygon class="st4" points="794.3,782 757.3,782 758.9,777.7 757.3,773.1 793.9,773.1 791.7,777.9 "/>
<polygon class="st3" points="775.8,773.1 775.8,782 757.3,782 758.9,777.7 757.3,773.1 "/>
<polygon class="st4" points="794.3,848.4 757.3,848.4 758.9,844.1 757.3,839.4 793.9,839.4 791.7,844.3 "/>
<polygon class="st3" points="775.8,839.4 775.8,848.4 757.3,848.4 758.9,844.1 757.3,839.4 "/>
<rect x="892.9" y="907.2" class="st5" width="152" height="152"/>
<rect x="939.8" y="907.2" class="st6" width="152" height="152"/>
<rect x="1044.2" y="919.9" transform="matrix(0.9806 -0.1958 0.1958 0.9806 -161.3746 226.0494)" class="st7" width="37.1" height="18.9"/>
<polygon class="st7" points="959.9,931.3 918.7,931.3 920.5,926.5 918.7,921.3 959.5,921.3 957,926.7 "/>
<polygon class="st8" points="939.3,921.3 939.3,931.3 918.7,931.3 920.5,926.5 918.7,921.3 "/>
<polygon class="st7" points="959.9,1044.5 918.7,1044.5 920.5,1039.7 918.7,1034.5 959.5,1034.5 957,1039.9 "/>
<polygon class="st8" points="939.3,1034.5 939.3,1044.5 918.7,1044.5 920.5,1039.7 918.7,1034.5 "/>
<path class="st9" d="M678.2,1092.4c-11.5,0-20.9,9.3-20.9,20.9s9.3,20.9,20.9,20.9s20.9-9.3,20.9-20.9l0,0
	C699.1,1101.8,689.8,1092.4,678.2,1092.4z"/>
<path class="st6" d="M678.2,1099.7c-7.4,0-13.4,6-13.4,13.4c0,7.4,6,13.4,13.4,13.4c7.4,0,13.4-6,13.4-13.4c0,0,0,0,0,0
	C691.6,1105.7,685.6,1099.7,678.2,1099.7z"/>
<path class="st9" d="M1098.3,1092.4c-11.5,0-20.9,9.3-20.9,20.9s9.3,20.9,20.9,20.9c11.5,0,20.9-9.3,20.9-20.9l0,0
	C1119.1,1101.8,1109.8,1092.4,1098.3,1092.4z"/>
<path class="st6" d="M1098.3,1099.7c-7.4,0-13.4,6-13.4,13.4c0,7.4,6,13.4,13.4,13.4c7.4,0,13.4-6,13.4-13.4c0,0,0,0,0,0
	C1111.6,1105.7,1105.7,1099.7,1098.3,1099.7z"/>
<path class="st9" d="M1141.8,1059.2H714.9L544.5,593.9c-1.5-4.2-5.5-7.1-9.9-7.2l-56.8-2.3c-6.1-0.2-11.2,4.6-11.4,10.7
	c-0.2,6,4.5,11.1,10.5,11.4l49.4,2l165.1,450.8h-37.1c-5.9,0-10.7,4.8-10.7,10.7v12.8c0,5.9,4.8,10.7,10.7,10.7h487.6
	c5.9,0,10.7-4.8,10.7-10.7v-12.8C1152.4,1064,1147.7,1059.3,1141.8,1059.2z"/>
<g id="man">
	<path class="st10" d="M470.2,550.4c0,0,21.3,14,37.6,14.6s26.1,17,28.4,23.8s-4.2,17.3-9.3,11.1c-7.6-9.4-23.2-2.1-38.1-14.3
		s-37.1-20.2-37.1-20.2L470.2,550.4z"/>
	<path class="st11" d="M280.6,320.3c0,0,45.7,163.4,82.1,196.3c18.9,17.1,123.6,86.9,132.2,64.7c0,0,12.9-15.8,5.8-25.1
		c0,0-88-63.3-94.8-67.5c-11.9-7.4,2.8-155.7-28.5-181.3S298,275.2,280.6,320.3z"/>
	<path class="st12" d="M464.9,1133.8c0,0-3.4,0.1-9,0.3h-86.2c-1.4-0.1-2.8-0.4-4.1-0.8c-7.8-3.7-4.2-37.9-4.2-37.9
		s33.5-28,38.6-7.2s33,29.6,48.8,31.8S464.9,1133.8,464.9,1133.8z"/>
	<path class="st13" d="M192.5,711.1c16.6,33.9,56,81,70.5,117.6c3.4,8.6,5.5,16.7,5.5,23.8c0.3,82,89.4,243.8,89.4,243.8
		c8.5,5.5,44.7-5.5,44.7-5.5s-4.2-35.9-25-160.1c-11.5-68.5-30.8-170.5-45.9-248.3c-3.9-20-7.5-38.4-10.5-54.2
		c-6.7-34.1-11.1-56.1-11.1-56.1l-34.5,0.6l-93.2,1.5C182.4,574.2,143.6,611.3,192.5,711.1z"/>
	<path class="st12" d="M192.5,711.1c16.6,33.9,56,81,70.5,117.6c20.6-43.6,51.8-109.8,68.8-146.3c-3.9-20-7.5-38.4-10.5-54.2
		c-13.4-16.4-30.6-37.5-45.6-55.5l-93.2,1.5C182.3,574.2,143.6,611.3,192.5,711.1z"/>
	<path class="st12" d="M79.7,1134.1H32.9c-4.4-3.4-8.1-9.3-9.7-17.6c-2.7-14-18.8-21-22.7-32.3s12.9-28.3,12.9-28.3l5.6-7.9
		l29.2,5.6c0,0,3,20.3,2.8,35.7s5.6,31.7,19.3,34.1C80.5,1125.2,80.4,1131.1,79.7,1134.1z"/>
	<path class="st13" d="M208.9,913.2C191.3,945,62.1,1092.8,62.1,1092.8s-40.8-13.8-48-38.5c0,0,76.5-125.6,111.2-179.1
		c9.9-15.3,15.5-249.3,50.9-292c44.4-53.5,124.8,48,124.8,48s-25.2,81.8-33,107.6C250.7,795.9,220.9,891.3,208.9,913.2z"/>
	<path class="st10" d="M458,562.6c0,0,21.3,14,37.6,14.6s26.1,17,28.4,23.8s-4.3,17.3-9.3,11.1c-7.6-9.4-23.2-2.1-38.1-14.3
		s-37-20.2-37-20.2L458,562.6z"/>
	<path class="st10" d="M380.7,290.5c12.8-21.3,18.2-34.8,18.2-34.8l-30.1-52.8c-17.5,49.5-58.1,60.7-58.1,60.7s47.4,52,85.5,54.6
		C392.8,308.1,387.5,298.7,380.7,290.5z"/>
	<path class="st10" d="M409.6,259c0,0-59.7-12.7-51.2-49.8s6.5-63.7,45-57.1s42.6,22.4,42.8,35.4S425.4,261.4,409.6,259z"/>
	<path class="st12" d="M357.8,211.8c0,0,19.5-46.5,73.6-33.9c37,8.6,27.3-29,25.1-35.2c0,0-28.8-5.4-58.5-10.1
		C335.6,122.6,354.5,202.4,357.8,211.8z"/>
	<path class="st14" d="M407.9,373.2c-1.2,18.5-6.8,46.6-14.4,77.8c-3,12.1-6.2,24.6-9.6,37.2c-5.5,20.5-11.3,41.1-17.2,60.5
		l-0.2,0.7c-0.4,2-1.1,4.1-1.7,6c-5.1,17.1-10.1,33-14.4,46.4c-8.2,25.7-8.3,40.1-14.9,43c-13.2,5.8-65.2-0.4-96.4-13.9
		c-26.3-11.2-66.5-45-66.3-62c0.2-19.7,26.7-79.1,44.3-148.5c21.6-84.7,69.7-152.4,109.7-166.3c3-1,6.2,5.3,17.8,16.5
		c10.7,10.3,24.2,16.7,37,18.1l7.6,12.7C399.7,319.4,409.8,342.9,407.9,373.2z"/>
	<path class="st11" d="M384,488.2C381,500.3,387.4,475.6,384,488.2c-5.5,20.5-11.3,41.1-17.2,60.5l-0.2,0.7c-0.4,2-1.1,4.1-1.7,6
		c-5.1,17.1-10.1,33-14.4,46.4c-83.3-105.8-36.1-232.5-36.1-232.5L384,488.2z"/>
	<path class="st14" d="M267.3,333.6c0,0,45.7,163.4,82.1,196.3c18.9,17.2,123.6,86.9,132.2,64.7c0,0,12.9-15.8,5.8-25.1
		c0,0-88-63.3-94.8-67.5c-11.9-7.4,2.8-155.7-28.5-181.3S284.7,288.5,267.3,333.6z"/>
	<path class="st12" d="M390.8,188.7c0,0,6.7-11.1,24.6-12.9c0,0-52.7,1.1-54.9,17.3s-2.8,18.8-2.8,18.8S385.6,212.9,390.8,188.7z"/>
</g>
<rect x="1325.4" y="660.6" class="st15" width="115.3" height="102.5"/>
<rect x="1346.5" y="660.6" class="st8" width="115.3" height="102.5"/>
<rect x="1473.4" y="645.2" class="st15" width="145.3" height="117.8"/>
<rect x="1500" y="645.2" class="st8" width="145.3" height="117.8"/>
<path class="st16" d="M1626.3,974.4c0,0-29.2,24.1-34.8,22.7s21.3-26,21.3-26c-10.2-5.4-41.7-2-41.7-2s-10.5,37.7-15.7,34.7
	s10.8-32.9,10.8-32.9c-11.3-0.8-25.2,8.6-25.2,8.6c-19,16.7,1.2,43,1.2,43c-3.3,9.4-8.8,17.9-15.9,24.8
	c-11,10.2-17.6,24.3-18.3,39.3l3.1,0.3c0,0,5-23.7,14-34.7l1.3-1.5c1.4-1.5,2.5-2.6,3.2-3.4c4.5-4.8,10.6-10.8,13.6-11.4
	c-0.1-0.5-0.2-1.1-0.1-1.7c0,0.5,0.1,1.1,0.1,1.7c1,13.3,24.2,24.9,38.4,27.3s9.8-4.1,4.9-13.8s-20.4-14-24-18.4s3.8-4.5,12.4-0.1
	s9.8,16,23.5,23.3s34.5-18.1,34.5-18.1c-11-0.6-26.6-13.9-26.1-17.9s26.6,7,31.1,7.5s14.6-5.6,16.1-25.6S1626.3,974.4,1626.3,974.4z
	"/>
<path class="st17" d="M1471.4,989.3c0,0,32.2-20,17.2-47.3c0,0-12-16.7-24.9-21c0,0,6.9,40.6,0,41.5s-4.7-45.8-4.7-45.8
	s-33.9-18.1-47.2-16.7c0,0,21,39.6,14.2,38.7s-30.5-41.1-30.5-41.1s-34.8-7.2-40.4,15.8s3.4,34.4,8.6,35.8s38.2,1,37.3,5.7
	s-23.2,12.4-35.6,8.1c0,0,13.7,37.7,31.8,35.8s23.6-14.3,34.8-15.3s19.3,2.4,13.7,5.7s-24.5,1.1-33.5,9.6c-9,8.5-16.3,13.8,0.4,17.6
	s46.8,1.4,52.8-12.9L1471.4,989.3z"/>
<path class="st16" d="M1480,1024.2c-9-18.6-8.6-34.9-8.6-34.9c-10.3-36.3-100.5-68.8-100.5-68.8c114.6,51.6,94.4,83.1,94.4,83.1
	c3.1,2,7.7,11.6,10.9,18.9c0.5,1.2,1.2,3,2.2,5.3c0.4,1.1,0.8,1.9,1,2.5c5.9,16.4,2.8,44.8,2.8,44.8l3.6,1.1
	C1493.9,1047.7,1480,1024.2,1480,1024.2z"/>
<path class="st17" d="M1522.7,961.7c0,0-42.4-26.4-22.6-62.3c0,0,15.8-22,32.8-27.7c0,0-9.1,53.5,0,54.8s6.2-60.4,6.2-60.4
	s44.7-23.9,62.2-22c0,0-27.7,52.2-18.7,51s40.2-54.1,40.2-54.1s45.8-9.5,53.2,20.8s-4.5,45.3-11.3,47.2s-50.4,1.3-49.2,7.5
	s30.6,16.4,47,10.7c0,0-18.1,49.7-41.9,47.2s-31.1-18.9-45.9-20.2s-25.5,3.2-18.1,7.5s32.3,1.5,44.1,12.7s21.5,18.2-0.6,23.2
	s-61.7,1.9-69.6-17L1522.7,961.7z"/>
<path class="st16" d="M1655.1,871.1c0,0-118.8,42.8-132.4,90.6c0,0,0.6,21.4-11.3,45.9c0,0-18.3,31-7.9,68.6l4.7-1.4
	c0,0-4.1-37.4,3.7-59c0.3-0.8,0.8-1.9,1.3-3.3l0,0c1.4-3.1,2.4-5.4,3-7c4.2-9.7,10.3-22.3,14.4-24.9
	C1530.6,980.6,1504,939,1655.1,871.1z"/>
<path class="st2" d="M1438.1,1065.5c0,51.1,37.2,92.5,83.1,92.5s83.2-41.4,83.2-92.5H1438.1z"/>
<path class="st18" d="M1541.7,1157.3c-3.4,0.5-6.9,0.7-10.3,0.7c-45.9,0-83.1-41.4-83.1-92.5h20.7
	C1468.9,1112.7,1500.7,1151.6,1541.7,1157.3z"/>
<path class="st2" d="M1595.3,1151.3h-148.1c-5.7,0-10.3,5.1-10.3,11.4h168.6C1605.6,1156.4,1600.9,1151.3,1595.3,1151.3z"/>
<rect x="1435.4" y="1065.5" class="st1" width="170.9" height="2.8"/>
<rect x="1285.8" y="263.9" class="st19" width="420" height="16.8"/>
<rect x="1195.8" y="105.9" class="st0" width="604.3" height="16.6"/>
<rect x="1285.8" y="430.3" class="st19" width="420" height="16.8"/>
<rect x="1285.8" y="596.7" class="st19" width="420" height="16.8"/>
<rect x="1285.8" y="763.1" class="st19" width="420" height="16.8"/>
<rect x="1324.9" y="294.5" class="st1" width="135.8" height="135.8"/>
<rect x="1366.8" y="294.5" class="st2" width="135.8" height="135.8"/>
<polygon class="st3" points="1366.8,294.5 1324.9,319.9 1324.9,294.5 "/>
<rect x="1420.5" y="323.3" class="st5" width="106.9" height="106.9"/>
<rect x="1453.5" y="323.3" class="st6" width="106.9" height="106.9"/>
<rect x="1463.7" y="401.1" transform="matrix(0.9806 -0.1958 0.1958 0.9806 -51.8194 298.4803)" class="st7" width="40.5" height="20.6"/>
<polygon class="st7" points="1472.8,351.1 1434.1,351.1 1435.7,346.6 1434.1,341.7 1472.4,341.7 1470,346.8 "/>
<polygon class="st8" points="1453.4,341.7 1453.4,351.1 1434.1,351.1 1435.7,346.6 1434.1,341.7 "/>
<polygon class="st4" points="1389.6,323.6 1343.9,323.6 1345.9,318.3 1343.9,312.5 1389.2,312.5 1386.4,318.5 "/>
<polygon class="st3" points="1366.8,312.5 1366.8,323.6 1343.9,323.6 1345.9,318.3 1343.9,312.5 "/>
<polygon class="st4" points="1389.6,405.6 1343.9,405.6 1345.9,400.3 1343.9,394.5 1389.2,394.5 1386.4,400.5 "/>
<polygon class="st3" points="1366.8,394.5 1366.8,405.6 1343.9,405.6 1345.9,400.3 1343.9,394.5 "/>
<rect x="1390.8" y="157.2" class="st5" width="106.9" height="106.9"/>
<rect x="1423.8" y="157.2" class="st6" width="106.9" height="106.9"/>
<rect x="1434" y="234.4" transform="matrix(0.9806 -0.1958 0.1958 0.9806 -19.7621 289.4429)" class="st7" width="40.5" height="20.6"/>
<polygon class="st7" points="1443.1,184.4 1404.4,184.4 1406,179.9 1404.4,175.1 1442.7,175.1 1440.3,180.1 "/>
<polygon class="st8" points="1423.7,175.1 1423.7,184.4 1404.4,184.4 1406,179.9 1404.4,175.1 "/>
<rect x="1544.9" y="188.3" class="st1" width="75.6" height="75.6"/>
<rect x="1568.2" y="188.3" class="st2" width="75.6" height="75.6"/>
<polygon class="st3" points="1568.2,188.3 1544.9,202.4 1544.9,188.3 "/>
<polygon class="st4" points="1580.9,204.6 1555.5,204.6 1556.6,201.7 1555.5,198.5 1580.7,198.5 1579.2,201.8 "/>
<polygon class="st3" points="1568.2,198.5 1568.2,204.6 1555.5,204.6 1556.6,201.7 1555.5,198.5 "/>
<polygon class="st4" points="1580.9,250.3 1555.5,250.3 1556.6,247.3 1555.5,244.1 1580.7,244.1 1579.2,247.4 "/>
<polygon class="st3" points="1568.2,244.1 1568.2,250.3 1555.5,250.3 1556.6,247.3 1555.5,244.1 "/>
<rect x="1326.2" y="507.9" class="st5" width="88.8" height="88.8"/>
<rect x="1353.6" y="507.9" class="st6" width="88.8" height="88.8"/>
<rect x="1362" y="572.1" transform="matrix(0.9806 -0.1958 0.1958 0.9806 -86.9866 281.1768)" class="st7" width="33.6" height="17.1"/>
<polygon class="st7" points="1369.6,530.5 1337.4,530.5 1338.8,526.8 1337.4,522.7 1369.2,522.7 1367.3,526.9 "/>
<polygon class="st8" points="1353.5,522.7 1353.5,530.5 1337.4,530.5 1338.8,526.8 1337.4,522.7 "/>
<rect x="1453.2" y="507.9" class="st5" width="88.8" height="88.8"/>
<rect x="1480.6" y="507.9" class="st6" width="88.8" height="88.8"/>
<rect x="1489" y="572.1" transform="matrix(0.9806 -0.1958 0.1958 0.9806 -84.5322 306.041)" class="st7" width="33.6" height="17.1"/>
<polygon class="st7" points="1496.6,530.5 1464.4,530.5 1465.8,526.8 1464.4,522.7 1496.2,522.7 1494.3,526.9 "/>
<polygon class="st8" points="1480.5,522.7 1480.5,530.5 1464.4,530.5 1465.8,526.8 1464.4,522.7 "/>
<rect x="1573.5" y="365.5" class="st1" width="64.8" height="64.8"/>
<rect x="1593.5" y="365.5" class="st2" width="64.8" height="64.8"/>
<polygon class="st3" points="1593.5,365.5 1573.5,377.6 1573.5,365.5 "/>
<rect x="1619.2" y="379.2" class="st5" width="51" height="51"/>
<rect x="1634.9" y="379.2" class="st6" width="51" height="51"/>
<rect x="1639.8" y="416.7" transform="matrix(0.9806 -0.1958 0.1958 0.9806 -50.6164 331.0734)" class="st7" width="19.3" height="9.8"/>
<polygon class="st7" points="1644.1,392.8 1625.7,392.8 1626.4,390.6 1625.7,388.3 1643.9,388.3 1642.8,390.7 "/>
<polygon class="st8" points="1634.9,388.3 1634.9,392.8 1625.7,392.8 1626.4,390.6 1625.7,388.3 "/>
<polygon class="st4" points="1604.4,379.6 1582.6,379.6 1583.5,377.1 1582.6,374.4 1604.2,374.4 1602.9,377.2 "/>
<polygon class="st3" points="1593.5,374.4 1593.5,379.6 1582.6,379.6 1583.5,377.1 1582.6,374.4 "/>
<polygon class="st4" points="1604.4,418.8 1582.6,418.8 1583.5,416.2 1582.6,413.5 1604.2,413.5 1602.9,416.3 "/>
<polygon class="st3" points="1593.5,413.5 1593.5,418.8 1582.6,418.8 1583.5,416.2 1582.6,413.5 "/>
<path class="st2" d="M1690.5,542v51.5c0,2-1.6,3.5-3.5,3.5l-85.7,0.1c-2,0-3.5-1.6-3.5-3.5V542c0-2,1.6-3.5,3.5-3.5l0,0l85.7-0.1
	C1688.9,538.4,1690.5,540,1690.5,542z"/>
<path class="st1" d="M1690.5,542v1.5l-46.4,24.3l-46.4-25.7c0-2,1.6-3.5,3.5-3.5l0,0l85.7-0.1C1688.9,538.4,1690.5,540,1690.5,542z"
	/>
<path class="st1" d="M1683.8,588.2h-16.1c-0.8,0-1.4,0.6-1.4,1.4c0,0.8,0.6,1.4,1.4,1.4h16.1c0.8,0.1,1.5-0.5,1.5-1.3
	c0.1-0.8-0.5-1.5-1.3-1.5C1683.9,588.2,1683.9,588.2,1683.8,588.2L1683.8,588.2z"/>
<path class="st2" d="M1674.7,541.6c0-2-1.6-3.5-3.5-3.5l-85.7,0.1c-1.9,0-3.5,1.6-3.5,3.5c0,0,0,0,0,0v51.5c0,2,1.6,3.5,3.5,3.5
	l85.7-0.1c2,0,3.5-1.6,3.5-3.5L1674.7,541.6z"/>
<path class="st1" d="M1674.7,541.6v1.5l-46.4,24.3l-46.4-25.7c0-1.9,1.6-3.5,3.5-3.5c0,0,0,0,0,0l85.7-0.1
	C1673.1,538.1,1674.6,539.6,1674.7,541.6z"/>
<path class="st1" d="M1668,587.9h-16.1c-0.8,0.1-1.4,0.8-1.3,1.5c0.1,0.7,0.6,1.2,1.3,1.3h16.1c0.8-0.1,1.4-0.8,1.3-1.5
	C1669.2,588.5,1668.7,587.9,1668,587.9z"/>
</svg>
