<?xml version="1.0" encoding="utf-8"?>
<!-- Generator: Adobe Illustrator 23.0.3, SVG Export Plug-In . SVG Version: 6.00 Build 0)  -->
<svg version="1.1" id="Layer_1" xmlns="http://www.w3.org/2000/svg" xmlns:xlink="http://www.w3.org/1999/xlink" x="0px" y="0px"
	 viewBox="0 0 439 387" style="enable-background:new 0 0 439 387;" xml:space="preserve">
<style type="text/css">
	.st0{fill:#F5F5F5;}
	.st1{fill:#ECECEC;}
	.st2{fill:#FFFFFF;}
	.st3{fill:#E1E1E1;}
	.st4{fill:#FAFAFA;}
	.st5{fill:#375A64;}
	.st6{fill:#1A2E35;}
	.st7{fill:#FF4F5B;}
	.st8{opacity:0.3;}
	.st9{opacity:0.3;enable-background:new    ;}
	.st10{opacity:0.6;fill:#FFFFFF;enable-background:new    ;}
	.st11{fill:#FFBF9D;}
	.st12{opacity:0.6;}
	.st13{opacity:0.2;fill:#FFFFFF;enable-background:new    ;}
</style>
<g>
	<g>
		<g>
			<rect x="280.3" y="92.5" class="st0" width="117.9" height="81.4"/>
		</g>
	</g>
	<g>
		<g>
			<rect x="280.3" y="92.5" class="st1" width="117.9" height="8.1"/>
		</g>
	</g>
	<g>
		<g>
			<path class="st2" d="M285.4,96.6c0,0.5-0.4,0.9-1,0.9c-0.5,0-1-0.4-1-0.9s0.4-0.9,1-0.9C284.9,95.7,285.4,96.1,285.4,96.6z"/>
		</g>
	</g>
	<g>
		<g>
			<path class="st2" d="M288.4,96.6c0,0.5-0.4,0.9-1,0.9c-0.5,0-1-0.4-1-0.9s0.4-0.9,1-0.9S288.4,96.1,288.4,96.6z"/>
		</g>
	</g>
	<g>
		<g>
			<path class="st2" d="M291.5,96.6c0,0.5-0.4,0.9-1,0.9c-0.5,0-1-0.4-1-0.9s0.4-0.9,1-0.9S291.5,96.1,291.5,96.6z"/>
		</g>
	</g>
	<g>
		<g>
			<g>
				<rect x="35.4" y="25.7" class="st3" width="221.3" height="152.8"/>
			</g>
		</g>
		<g>
			<g>
				<rect x="35.4" y="25.7" class="st3" width="221.3" height="15.3"/>
			</g>
		</g>
		<g>
			<g>
				<path class="st2" d="M45,33.3c0,0.9-0.8,1.7-1.8,1.7s-1.8-0.8-1.8-1.7s0.8-1.7,1.8-1.7S45,32.3,45,33.3z"/>
			</g>
		</g>
		<g>
			<g>
				<path class="st2" d="M50.7,33.3c0,0.9-0.8,1.7-1.8,1.7s-1.8-0.8-1.8-1.7s0.8-1.7,1.8-1.7S50.7,32.3,50.7,33.3z"/>
			</g>
		</g>
		<g>
			<g>
				<path class="st2" d="M56.5,33.3c0,0.9-0.8,1.7-1.8,1.7s-1.8-0.8-1.8-1.7s0.8-1.7,1.8-1.7S56.5,32.3,56.5,33.3z"/>
			</g>
		</g>
	</g>
	<g>
		<g>
			<g>
				<rect x="18.6" y="41.3" class="st0" width="221.3" height="152.8"/>
			</g>
		</g>
		<g>
			<g>
				<rect x="18.6" y="41.3" class="st1" width="221.3" height="15.3"/>
			</g>
		</g>
		<g>
			<g>
				<path class="st2" d="M28.2,48.9c0,0.9-0.8,1.7-1.8,1.7s-1.8-0.8-1.8-1.7s0.8-1.7,1.8-1.7S28.2,48,28.2,48.9z"/>
			</g>
		</g>
		<g>
			<g>
				<path class="st2" d="M33.9,48.9c0,0.9-0.8,1.7-1.8,1.7s-1.8-0.8-1.8-1.7s0.8-1.7,1.8-1.7C33.1,47.2,33.9,48,33.9,48.9z"/>
			</g>
		</g>
		<g>
			<g>
				<path class="st2" d="M39.7,48.9c0,0.9-0.8,1.7-1.8,1.7s-1.8-0.8-1.8-1.7s0.8-1.7,1.8-1.7S39.7,48,39.7,48.9z"/>
			</g>
		</g>
	</g>
	<g>
		<g>
			<g>
				<rect x="223.2" y="83.7" class="st1" width="142.8" height="98.6"/>
			</g>
		</g>
		<g>
			<g>
				<rect x="223.2" y="83.7" class="st3" width="142.8" height="9.8"/>
			</g>
		</g>
		<g>
			<g>
				<path class="st4" d="M229.4,88.6c0,0.6-0.5,1.1-1.2,1.1c-0.6,0-1.2-0.5-1.2-1.1s0.5-1.1,1.2-1.1S229.4,88,229.4,88.6z"/>
			</g>
		</g>
		<g>
			<g>
				<path class="st4" d="M233.2,88.6c0,0.6-0.5,1.1-1.2,1.1c-0.6,0-1.2-0.5-1.2-1.1s0.5-1.1,1.2-1.1C232.6,87.5,233.2,88,233.2,88.6
					z"/>
			</g>
		</g>
		<g>
			<g>
				<path class="st4" d="M236.9,88.6c0,0.6-0.5,1.1-1.2,1.1c-0.6,0-1.2-0.5-1.2-1.1s0.5-1.1,1.2-1.1S236.9,88,236.9,88.6z"/>
			</g>
		</g>
	</g>
</g>
<g>
	<g>
		<g>
			<g>
				<g>
					<g>
						<g>
							<rect x="4.7" y="61.5" class="st4" width="214.1" height="144.6"/>
						</g>
					</g>
				</g>
				<g>
					<g>
						<g>
							<rect x="4.7" y="61.5" class="st5" width="214.1" height="14.4"/>
						</g>
					</g>
				</g>
				<g>
					<g>
						<g>
							<path class="st2" d="M13.9,68.8c0,0.9-0.8,1.6-1.7,1.6c-1,0-1.7-0.7-1.7-1.6s0.8-1.6,1.7-1.6C13.2,67.1,13.9,67.9,13.9,68.8z
								"/>
						</g>
					</g>
				</g>
				<g>
					<g>
						<g>
							<path class="st2" d="M19.5,68.8c0,0.9-0.8,1.6-1.7,1.6c-1,0-1.7-0.7-1.7-1.6s0.8-1.6,1.7-1.6C18.7,67.1,19.5,67.9,19.5,68.8z
								"/>
						</g>
					</g>
				</g>
				<g>
					<g>
						<g>
							<path class="st2" d="M25.1,68.8c0,0.9-0.8,1.6-1.7,1.6c-1,0-1.7-0.7-1.7-1.6s0.8-1.6,1.7-1.6C24.3,67.1,25.1,67.9,25.1,68.8z
								"/>
						</g>
					</g>
				</g>
			</g>
			<g>
				<g>
					<g>
						<g>
							<path class="st6" d="M218.8,206.1c0-1.5-0.1-56.5-0.2-144.6l0.2,0.2c-59,0-133.4,0-214.1,0l0,0l0.2-0.2
								c0,51.5,0,100.5,0,144.6l-0.2-0.2C130.8,206,216.9,206.1,218.8,206.1c-1.8,0-88,0.1-214.1,0.2H4.5v-0.2
								c0-44.1,0-93.1,0-144.6v-0.2h0.2l0,0c80.7,0,155.1,0,214.1,0h0.2v0.2C218.8,149.6,218.8,204.6,218.8,206.1z"/>
						</g>
					</g>
				</g>
			</g>
		</g>
		<g>
			<g>
				<rect x="19.7" y="142.2" class="st5" width="48.7" height="3.3"/>
			</g>
			<g>
				<rect x="82.6" y="96.6" class="st5" width="48.7" height="3.3"/>
			</g>
			<g>
				<g>
					<path class="st5" d="M203.7,108.9c0,0.1-27.1,0.2-60.5,0.2s-60.5-0.1-60.5-0.2s27.1-0.2,60.5-0.2
						C176.6,108.6,203.7,108.7,203.7,108.9z"/>
				</g>
			</g>
			<g>
				<g>
					<path class="st5" d="M203.7,116c0,0.1-27.1,0.2-60.5,0.2s-60.5-0.1-60.5-0.2s27.1-0.2,60.5-0.2S203.7,115.9,203.7,116z"/>
				</g>
			</g>
			<g>
				<g>
					<path class="st5" d="M203.7,123.2c0,0.1-27.1,0.2-60.5,0.2s-60.5-0.1-60.5-0.2s27.1-0.2,60.5-0.2S203.7,123.1,203.7,123.2z"/>
				</g>
			</g>
			<g>
				<g>
					<path class="st5" d="M203.7,130.4c0,0.1-27.1,0.2-60.5,0.2s-60.5-0.1-60.5-0.2c0-0.1,27.1-0.2,60.5-0.2
						C176.6,130.1,203.7,130.2,203.7,130.4z"/>
				</g>
			</g>
			<g>
				<g>
					<path class="st5" d="M203.7,137.5c0,0.1-27.1,0.2-60.5,0.2s-60.5-0.1-60.5-0.2s27.1-0.2,60.5-0.2S203.7,137.4,203.7,137.5z"/>
				</g>
			</g>
			<g>
				<g>
					<path class="st5" d="M129.9,144.7c0,0.1-10.6,0.2-23.6,0.2c-13.1,0-23.6-0.1-23.6-0.2s10.6-0.2,23.6-0.2
						C119.3,144.5,129.9,144.6,129.9,144.7z"/>
				</g>
			</g>
			<g>
				<g>
					<path class="st5" d="M202.8,158.6c0,0.1-17.8,0.2-39.8,0.2s-39.8-0.1-39.8-0.2s17.8-0.2,39.8-0.2
						C185,158.4,202.8,158.5,202.8,158.6z"/>
				</g>
			</g>
			<g>
				<g>
					<path class="st5" d="M202.8,166.2c0,0.1-17.8,0.2-39.8,0.2s-39.8-0.1-39.8-0.2S141,166,163,166S202.8,166.1,202.8,166.2z"/>
				</g>
			</g>
			<g>
				<g>
					<path class="st5" d="M202.8,173.8c0,0.1-17.8,0.2-39.8,0.2s-39.8-0.1-39.8-0.2s17.8-0.2,39.8-0.2S202.8,173.7,202.8,173.8z"/>
				</g>
			</g>
			<g>
				<g>
					<path class="st5" d="M202.8,181.4c0,0.1-17.8,0.2-39.8,0.2s-39.8-0.1-39.8-0.2s17.8-0.2,39.8-0.2S202.8,181.3,202.8,181.4z"/>
				</g>
			</g>
			<g>
				<g>
					<path class="st5" d="M68.5,157.9c0,0.1-10.6,0.2-23.7,0.2c-13.1,0-23.7-0.1-23.7-0.2c0-0.1,10.6-0.2,23.7-0.2
						S68.5,157.8,68.5,157.9z"/>
				</g>
			</g>
			<g>
				<g>
					<path class="st5" d="M68.5,163.9c0,0.1-10.6,0.2-23.7,0.2c-13.1,0-23.7-0.1-23.7-0.2c0-0.1,10.6-0.2,23.7-0.2
						C57.9,163.6,68.5,163.7,68.5,163.9z"/>
				</g>
			</g>
			<g>
				<g>
					<path class="st5" d="M68.5,169.8c0,0.1-10.6,0.2-23.7,0.2c-13.1,0-23.7-0.1-23.7-0.2c0-0.1,10.6-0.2,23.7-0.2
						S68.5,169.7,68.5,169.8z"/>
				</g>
			</g>
			<g>
				<g>
					<path class="st5" d="M68.5,175.8c0,0.1-10.6,0.2-23.7,0.2c-13.1,0-23.7-0.1-23.7-0.2c0-0.1,10.6-0.2,23.7-0.2
						S68.5,175.7,68.5,175.8z"/>
				</g>
			</g>
			<g>
				<g>
					<path class="st5" d="M68.5,181.8c0,0.1-10.6,0.2-23.7,0.2c-13.1,0-23.7-0.1-23.7-0.2c0-0.1,10.6-0.2,23.7-0.2
						S68.5,181.7,68.5,181.8z"/>
				</g>
			</g>
			<g>
				<g>
					<g>
						<g>
							<rect x="82.6" y="155" class="st5" width="34.5" height="33.7"/>
						</g>
					</g>
				</g>
				<g>
					<g>
						<g>
							<polygon class="st7" points="85.3,185.8 94.8,168.5 102.6,179.5 107.4,173.7 114.4,185.8 							"/>
						</g>
					</g>
				</g>
				<g>
					<g>
						<g>
							<path class="st7" d="M106,165.1c0,1.4-1.1,2.5-2.5,2.5s-2.5-1.1-2.5-2.5s1.1-2.5,2.5-2.5C104.8,162.6,106,163.7,106,165.1z"
								/>
						</g>
					</g>
				</g>
				<g>
					<g>
						<g>
							<g>
								<path class="st6" d="M114.4,185.9c0,0,0,0,0-0.1s0-0.2,0-0.4c0-0.4,0-0.9,0-1.5c0-1.3,0-3.3,0-5.7c0-4.9,0-11.9-0.1-20.3
									l0.1,0.1c-8.5,0-18.5,0-29.2,0c0,0,0.3-0.3,0.2-0.2l0,0l0,0l0,0v0.1v0.1v0.2v0.5v1c0,0.6,0,1.3,0,1.9c0,1.3,0,2.5,0,3.8
									c0,2.5,0,4.9,0,7.3c0,4.7,0,9.2,0,13.3l-0.1-0.1c8.7,0,16,0.1,21.1,0.1c2.6,0,4.6,0,6,0c0.7,0,1.2,0,1.6,0
									c0.2,0,0.3,0,0.4,0C114.4,185.9,114.4,185.9,114.4,185.9s0,0-0.1,0s-0.2,0-0.4,0c-0.4,0-0.9,0-1.6,0c-1.4,0-3.4,0-5.9,0
									c-5.1,0-12.4,0-21.2,0.1h-0.1v-0.1c0-4.1,0-8.6,0-13.3c0-2.4,0-4.8,0-7.3c0-1.2,0-2.5,0-3.8c0-0.6,0-1.3,0-1.9v-1v-0.5V158
									v-0.1v-0.1l0,0l0,0l0,0c-0.1,0.1,0.2-0.2,0.2-0.2c10.7,0,20.7,0,29.2,0h0.1v0.1c0,8.5-0.1,15.5-0.1,20.4c0,2.4,0,4.4,0,5.7
									c0,0.6,0,1.1,0,1.5c0,0.2,0,0.3,0,0.4C114.4,185.8,114.4,185.9,114.4,185.9z"/>
							</g>
						</g>
					</g>
				</g>
			</g>
		</g>
	</g>
	<g>
		<g>
			<g>
				<g>
					<rect x="19.7" y="87.2" class="st7" width="48.8" height="47.6"/>
				</g>
			</g>
		</g>
		<g>
			<g>
				<g>
					<polygon class="st4" points="23.5,130.7 37,106.2 48,121.9 54.7,113.6 64.7,130.7 					"/>
				</g>
			</g>
		</g>
		<g>
			<g>
				<g>
					<ellipse class="st4" cx="49.2" cy="101.5" rx="3.5" ry="3.5"/>
				</g>
			</g>
		</g>
		<g>
			<g>
				<g>
					<g>
						<path class="st4" d="M64.7,130.8c0,0,0-0.1,0-0.2c0-0.1,0-0.3,0-0.6c0-0.5,0-1.2,0-2.1c0-1.9,0-4.6-0.1-8.1
							c0-7-0.1-16.9-0.1-28.7l0.2,0.2c-11.9,0-26.1,0-41.2,0c-0.1,0,0.4-0.4,0.2-0.2l0,0l0,0l0,0v0.1v0.2v0.4v0.7v1.3
							c0,0.9,0,1.8,0,2.7c0,1.8,0,3.6,0,5.3c0,3.5,0,6.9,0,10.3c0,6.7,0,13,0,18.8l-0.2-0.2c12.3,0,22.6,0.1,29.8,0.1
							c3.6,0,6.4,0,8.4,0.1c1,0,1.7,0,2.2,0c0.2,0,0.4,0,0.6,0C64.6,130.8,64.7,130.8,64.7,130.8s-0.1,0-0.2,0c-0.1,0-0.3,0-0.6,0
							c-0.5,0-1.2,0-2.2,0c-2,0-4.8,0-8.4,0.1c-7.3,0-17.6,0.1-29.9,0.1h-0.2v-0.2c0-5.8,0-12.1,0-18.8c0-3.3,0-6.8,0-10.3
							c0-1.7,0-3.5,0-5.3c0-0.9,0-1.8,0-2.7v-1.4v-0.7v-0.3v-0.2V91l0,0l0,0l0,0c-0.2,0.2,0.3-0.3,0.2-0.2c15.1,0,29.3,0,41.2,0h0.2
							V91c0,11.9-0.1,21.9-0.1,28.9c0,3.4,0,6.2-0.1,8c0,0.9,0,1.6,0,2.1c0,0.2,0,0.4,0,0.5C64.7,130.8,64.7,130.8,64.7,130.8z"/>
					</g>
				</g>
			</g>
		</g>
	</g>
</g>
<g>
	<g>
		<g>
			<g>
				<g>
					<g>
						<g>
							<rect x="210" y="7.5" class="st2" width="221.3" height="149.4"/>
						</g>
					</g>
					<g>
						<g>
							<rect x="210.3" y="6.5" class="st3" width="221.3" height="14.9"/>
						</g>
					</g>
					<g>
						<g>
							<path class="st4" d="M222,12.9c0,0.9-0.8,1.7-1.8,1.7s-1.8-0.8-1.8-1.7c0-0.9,0.8-1.7,1.8-1.7C221.2,11.2,222,11.9,222,12.9z
								"/>
						</g>
					</g>
					<g>
						<g>
							<path class="st4" d="M227.7,12.9c0,0.9-0.8,1.7-1.8,1.7s-1.8-0.8-1.8-1.7c0-0.9,0.8-1.7,1.8-1.7
								C226.9,11.2,227.7,11.9,227.7,12.9z"/>
						</g>
					</g>
					<g>
						<g>
							<path class="st4" d="M233.5,12.9c0,0.9-0.8,1.7-1.8,1.7s-1.8-0.8-1.8-1.7c0-0.9,0.8-1.7,1.8-1.7
								C232.7,11.2,233.5,11.9,233.5,12.9z"/>
						</g>
					</g>
				</g>
				<g>
					<g>
						<g>
							<path class="st6" d="M431.6,155.9c0-1.6-0.1-58.4-0.2-149.4l0.2,0.2c-61,0-137.9,0-221.3,0l0,0l0.2-0.2
								c0,53.2,0,103.9,0,149.4l-0.2-0.2C340.6,155.8,429.6,155.9,431.6,155.9c-2,0-91,0.1-221.3,0.2h-0.2v-0.2
								c0-45.6,0-96.2,0-149.4V6.3h0.2l0,0c83.4,0,160.3,0,221.3,0h0.2v0.2C431.7,97.5,431.6,154.3,431.6,155.9z"/>
						</g>
					</g>
				</g>
			</g>
			<g>
				<rect x="224.7" y="89.9" class="st7" width="50.3" height="3.4"/>
				<rect x="289.7" y="42.7" class="st7" width="50.3" height="3.4"/>
				<g>
					<path class="st6" d="M414.9,55.4c0,0.1-28,0.2-62.6,0.2s-62.6-0.1-62.6-0.2c0-0.1,28-0.2,62.6-0.2
						C386.8,55.1,414.9,55.2,414.9,55.4z"/>
				</g>
				<g>
					<path class="st6" d="M414.9,62.8c0,0.1-28,0.2-62.6,0.2s-62.6-0.1-62.6-0.2s28-0.2,62.6-0.2C386.8,62.5,414.9,62.6,414.9,62.8z
						"/>
				</g>
				<g>
					<path class="st6" d="M414.9,70.2c0,0.1-28,0.2-62.6,0.2s-62.6-0.1-62.6-0.2s28-0.2,62.6-0.2C386.8,69.9,414.9,70.1,414.9,70.2z
						"/>
				</g>
				<g>
					<path class="st6" d="M414.9,77.6c0,0.1-28,0.2-62.6,0.2s-62.6-0.1-62.6-0.2s28-0.2,62.6-0.2C386.8,77.4,414.9,77.5,414.9,77.6z
						"/>
				</g>
				<g>
					<path class="st6" d="M414.9,85c0,0.1-28,0.2-62.6,0.2s-62.6-0.1-62.6-0.2s28-0.2,62.6-0.2C386.8,84.8,414.9,84.9,414.9,85z"/>
				</g>
				<g>
					<path class="st6" d="M338.5,92.4c0,0.1-10.9,0.2-24.4,0.2s-24.4-0.1-24.4-0.2s10.9-0.2,24.4-0.2
						C327.6,92.2,338.5,92.3,338.5,92.4z"/>
				</g>
				<g>
					<path class="st6" d="M413.9,106.8c0,0.1-18.4,0.2-41.1,0.2s-41.1-0.1-41.1-0.2s18.4-0.2,41.1-0.2
						C395.5,106.6,413.9,106.7,413.9,106.8z"/>
				</g>
				<g>
					<path class="st6" d="M413.9,114.7c0,0.1-18.4,0.2-41.1,0.2s-41.1-0.1-41.1-0.2s18.4-0.2,41.1-0.2
						C395.5,114.4,413.9,114.5,413.9,114.7z"/>
				</g>
				<g>
					<path class="st6" d="M413.9,122.5c0,0.1-18.4,0.2-41.1,0.2s-41.1-0.1-41.1-0.2c0-0.1,18.4-0.2,41.1-0.2
						C395.5,122.3,413.9,122.4,413.9,122.5z"/>
				</g>
				<g>
					<path class="st6" d="M413.9,130.4c0,0.1-18.4,0.2-41.1,0.2s-41.1-0.1-41.1-0.2c0-0.1,18.4-0.2,41.1-0.2
						C395.5,130.2,413.9,130.3,413.9,130.4z"/>
				</g>
				<g>
					<g>
						<path class="st6" d="M275.1,106.1c0,0.1-11,0.2-24.5,0.2c-13.5,0-24.5-0.1-24.5-0.2s11-0.2,24.5-0.2
							C264.1,105.8,275.1,105.9,275.1,106.1z"/>
					</g>
					<g>
						<path class="st6" d="M275.1,112.2c0,0.1-11,0.2-24.5,0.2c-13.5,0-24.5-0.1-24.5-0.2s11-0.2,24.5-0.2
							C264.1,112,275.1,112.1,275.1,112.2z"/>
					</g>
					<g>
						<path class="st6" d="M275.1,118.4c0,0.1-11,0.2-24.5,0.2c-13.5,0-24.5-0.1-24.5-0.2s11-0.2,24.5-0.2
							C264.1,118.2,275.1,118.3,275.1,118.4z"/>
					</g>
					<g>
						<path class="st6" d="M275.1,124.6c0,0.1-11,0.2-24.5,0.2c-13.5,0-24.5-0.1-24.5-0.2c0-0.1,11-0.2,24.5-0.2
							C264.1,124.3,275.1,124.5,275.1,124.6z"/>
					</g>
					<g>
						<path class="st6" d="M275.1,130.8c0,0.1-11,0.2-24.5,0.2c-13.5,0-24.5-0.1-24.5-0.2c0-0.1,11-0.2,24.5-0.2
							C264.1,130.5,275.1,130.6,275.1,130.8z"/>
					</g>
				</g>
				<g>
					<g>
						<g>
							<rect x="289.6" y="103.1" class="st7" width="35.7" height="34.8"/>
						</g>
					</g>
					<g class="st8">
						<g>
							<polygon points="292.4,134.9 302.3,117 310.4,128.4 315.3,122.4 322.6,134.9 							"/>
						</g>
					</g>
					<g class="st8">
						<g>
							<path d="M313.8,113.5c0,1.4-1.2,2.6-2.6,2.6s-2.6-1.2-2.6-2.6s1.2-2.6,2.6-2.6S313.8,112.1,313.8,113.5z"/>
						</g>
					</g>
					<g>
						<g>
							<g>
								<path class="st9" d="M322.6,135v-0.1c0-0.1,0-0.2,0-0.4c0-0.4,0-0.9,0-1.6c0-1.4,0-3.4,0-5.9c0-5.1,0-12.3-0.1-21l0.1,0.1
									c-8.7,0-19.1,0-30.2,0c0,0,0.3-0.3,0.2-0.2l0,0l0,0l0,0v0.1v0.1v0.2v0.5v1c0,0.7,0,1.3,0,2c0,1.3,0,2.6,0,3.9
									c0,2.6,0,5.1,0,7.5c0,4.9,0,9.5,0,13.7l-0.1-0.1c9,0,16.5,0.1,21.8,0.1c2.6,0,4.7,0,6.2,0c0.7,0,1.2,0,1.6,0
									c0.2,0,0.3,0,0.4,0C322.5,135,322.6,135,322.6,135s0,0-0.1,0s-0.2,0-0.4,0c-0.4,0-0.9,0-1.6,0c-1.4,0-3.5,0-6.1,0
									c-5.3,0-12.9,0-21.9,0.1h-0.1v-0.2c0-4.2,0-8.9,0-13.7c0-2.4,0-4.9,0-7.5c0-1.3,0-2.6,0-3.9c0-0.7,0-1.3,0-2v-1v-0.5v-0.2
									V106v-0.1l0,0l0,0l0,0c-0.2,0.2,0.2-0.2,0.2-0.2c11.1,0,21.4,0,30.2,0h0.1v0.1c0,8.7-0.1,16-0.1,21.1c0,2.5,0,4.5,0,5.9
									c0,0.7,0,1.2,0,1.5c0,0.2,0,0.3,0,0.4C322.6,135,322.6,135,322.6,135z"/>
							</g>
						</g>
					</g>
				</g>
			</g>
		</g>
		<g>
			<g>
				<g>
					<rect x="222.6" y="33" class="st7" width="50.5" height="49.2"/>
				</g>
			</g>
			<g class="st8">
				<g>
					<polygon points="226.5,78 240.5,52.7 251.9,68.9 258.8,60.3 269.2,78 					"/>
				</g>
			</g>
			<g class="st8">
				<g>
					<path d="M256.8,47.8c0,2-1.6,3.7-3.6,3.7s-3.6-1.6-3.6-3.7c0-2,1.6-3.7,3.6-3.7S256.8,45.8,256.8,47.8z"/>
				</g>
			</g>
			<g>
				<g>
					<g>
						<path class="st9" d="M269.2,78.2c0,0,0-0.1,0-0.2s0-0.3,0-0.6c0-0.5,0-1.3,0-2.2c0-2,0-4.8-0.1-8.4c0-7.2-0.1-17.4-0.1-29.7
							l0.2,0.2c-12.3,0-27,0-42.6,0c-0.1,0.1,0.5-0.5,0.2-0.2l0,0l0,0l0,0v0.1v0.2v0.4v0.7v1.4c0,0.9,0,1.9,0,2.8c0,1.8,0,3.7,0,5.5
							c0,3.6,0,7.2,0,10.6c0,6.9,0,13.4,0,19.4l-0.2-0.2c12.7,0,23.4,0.1,30.8,0.1c3.7,0,6.7,0,8.7,0.1c1,0,1.8,0,2.3,0
							c0.2,0,0.4,0,0.6,0C269.1,78.2,269.2,78.2,269.2,78.2s-0.1,0-0.2,0s-0.3,0-0.6,0c-0.5,0-1.3,0-2.3,0c-2,0-4.9,0-8.6,0.1
							c-7.5,0-18.2,0.1-31,0.1h-0.2v-0.2c0-6,0-12.5,0-19.4c0-3.4,0-7,0-10.6c0-1.8,0-3.6,0-5.5c0-0.9,0-1.8,0-2.8v-1.4v-0.7v-0.4
							v-0.2v-0.1l0,0l0,0l0,0c-0.2,0.2,0.3-0.3,0.2-0.2c15.6,0,30.3,0,42.6,0h0.2v0.2c0,12.3-0.1,22.6-0.1,29.8c0,3.6,0,6.4-0.1,8.3
							c0,0.9,0,1.7,0,2.2c0,0.2,0,0.4,0,0.6C269.2,78.1,269.2,78.2,269.2,78.2z"/>
					</g>
				</g>
			</g>
		</g>
	</g>
</g>
<g>
	<g>
		<polygon class="st7" points="239.5,374.2 237.3,381.6 252.9,381.4 253.6,373.5 		"/>
		<g>
			<path class="st6" d="M253.2,379.9c0,0.1-0.9,0.1-2.3,0.2c-1.4,0-3.3,0-5.5,0c-2-0.1-3.9-0.1-5.5-0.2c-1.4-0.1-2.3-0.1-2.3-0.2
				s0.9-0.1,2.3-0.2c1.4,0,3.3,0,5.5,0c2,0.1,3.9,0.1,5.5,0.2C252.3,379.8,253.2,379.8,253.2,379.9z"/>
		</g>
		<g>
			<path class="st6" d="M246.5,373.2c0.1,0,0.2,1.5,0.1,3.3s-0.3,3.3-0.4,3.3s-0.2-1.5-0.1-3.3S246.4,373.2,246.5,373.2z"/>
		</g>
		<polyline class="st10" points="237.3,381.6 252.9,381.4 253,379.9 237.6,379.7 237.3,381.4 		"/>
	</g>
	<g>
		<g>
			<path class="st6" d="M299.7,376.3L272.8,236l0,0c-0.1-0.2-0.1-0.4-0.2-0.6l0,0l0,0c-4.1-16.5-7.4-20.5-7.4-20.5L225,216
				c-3.2,5.7-3.6,19.4-3.6,19.4c-0.4,1.7,17.9,139.2,17.9,139.2l13.8-1.1L248.5,244l36,132.6L299.7,376.3z"/>
			<g>
				<path class="st5" d="M259.2,239.6c0,0.1-4.4,1.4-10,2.9c-5.6,1.4-10.1,2.5-10.1,2.4s4.4-1.4,10-2.9
					C254.6,240.6,259.1,239.5,259.2,239.6z"/>
			</g>
			<path class="st11" d="M222.8,167.6l-30.8,1.9l-26.6-24l-0.3-0.8c-0.2-0.4-0.3-1-0.5-1.5c-0.2-0.7-0.3-1.4-0.2-2.1
				c0-0.8,0.1-2,0.4-2.5c0.3-0.7-0.4-1.5-1-1.1s-1.5,2.4-1.4,4.9c0.1,2.6-2.5-0.5-3.4-1.5c-1-1.1-4.1-4.3-4.6-4.2
				c-0.8,0.1-0.9,1,0.1,2c1,1.1,3.7,4.4,3.1,4.9s-5.4-5.1-5.4-5.1s-0.8-1.4-1.5-0.8c-1.2,1,4.3,6.5,4.8,7c0.4,0.4-0.2,0.9-0.6,0.5
				s-4.7-5.7-5.9-4.7c-1,0.8,4.5,4.6,4.8,6.2c0.3,1.6-3.9-3.3-4.8-2.6c-0.3,0.3-0.5,0.5,2.2,3c1.4,1.2,3.5,3.4,5.9,5.1l0,0
				l27.8,30.9l38.8,3.4L222.8,167.6z"/>
			<path class="st11" d="M318.6,117.6c-1.1-0.5-3.7,5.4-3.9,3.8c-0.2-1.6,4-6.8,2.9-7.3c-1.5-0.6-4.1,5.6-4.4,6.1s-1,0.1-0.7-0.3
				c0.4-0.6,4.2-7.5,2.7-8.1c-0.8-0.3-1.2,1.2-1.2,1.2s-3.1,6.7-3.7,6.4c-0.7-0.3,1-4.3,1.6-5.6c0.6-1.3,0.3-2.1-0.5-2
				c-0.5,0.1-2.6,4.1-3.3,5.4c-0.6,1.3-2.3,4.9-2.9,2.4s-2-4.2-2.7-4.4c-0.7-0.2-1.2,0.7-0.7,1.3c0.4,0.5,0.8,1.5,1.1,2.3
				c0.2,0.7,0.3,1.3,0.3,2c0,0.6,0,1.1,0,1.6v0.9l-19,30.5l-30.1,6.8l5.4,19.6l35.4-15.2l18.2-37.5l0,0c1.8-2.3,3.3-5,4.2-6.5
				C319.3,118,319.1,117.8,318.6,117.6z"/>
			<path class="st5" d="M261.7,185l0.5-1.8c1.2-0.8,15.8-9.9,16.3-10c0.6-0.1-6.5-16.8-6.5-16.8l-16.5,2.4c-1.7-0.5-2.8-0.6-2.8-0.6
				l-19.4-0.2c0,0-5.1,0.9-7.4,2.5l-17.6,6.7l4,20.6l13.8-1.2c0.2,1.6,1,7.4,1.4,8.9c1.2,5,2,11.8-0.6,16.2c0,0-5.3,10.7-5.3,19.7
				l49-5.8c0,0-2.1-8.7-11-20.2l0.4-12.2L261.7,185z"/>
			<g>
				<path class="st6" d="M234.3,119.8c-4.1,1.9-5.7,6.4-6.1,10.6c-0.4,4.2,0,8.5-1.6,12.4c-1.3,3.3-4.1,6.3-3.8,9.8
					c0.2,2.6,2.2,4.9,2.5,7.6c0.7,5.1-4.7,9.6-3.7,14.6c0.4,2.3,2.2,4.3,4.3,5.6c2.1,1.4,4.5,2.2,6.9,3c3.2,1.1,6.8,2.2,10,1
					c2.8-1,4.8-3.6,7.7-4.4c2.8-0.7,5.8,0.5,8.7,0.5c2.7,0.1,5.5-0.9,7.2-2.8c1.8-1.9,2.4-4.6,1.5-6.9c-1.3-3.2-5.3-5.3-5.9-8.7
					c-0.6-3.1,1.9-6.1,1.1-9.2c-0.9-3.4-5.4-5.2-6.5-8.5c-1.3-4,2.9-8.3,1.2-12.2c-1-2.3-3.7-3.8-4.4-6.1c-0.5-1.6,0-3.4-0.3-5
					c-0.6-2.8-3.8-4.7-6.9-5.3c-3.8-0.8-8-0.3-11.2,1.6c-3.3,1.9-5.6,5.2-5.8,8.7"/>
				<path class="st6" d="M240.4,116.9c3.7-1.4,8.1-1.1,11.5,0.8c3.5,1.9,6,5.5,6.8,9.4c0.6,3.2,0.2,6.6,1.5,9.5
					c1.5,3.2,5,5.4,5.5,8.8c0.5,3.4-2,6.4-2.5,9.8c-0.5,3.5,1.1,7,0.7,10.5s-2.9,6.6-6.3,7.7c-3.3,1.1-7.2,0-9.5-2.6"/>
				<g>
					<path class="st6" d="M223.9,171.8c0,0,0,0,0-0.1s-0.1-0.2-0.1-0.4c0-0.4,0-1,0.2-1.6c0.2-0.7,0.7-1.5,1.2-2.3
						c0.5-0.9,1.2-1.8,1.5-3s0.2-2.6-0.3-4s-1.3-2.7-2.3-4.1c-0.9-1.4-2-2.9-2.5-4.7c-0.6-1.8-0.5-3.9,0.1-5.8
						c0.3-0.9,0.8-1.8,1.4-2.6s1.3-1.4,1.9-2.1c0.6-0.7,1.2-1.3,1.7-2.1c0.4-0.7,0.7-1.5,0.7-2.3c0.1-1.6-0.4-3.2-0.6-4.7
						s-0.1-3,0.2-4.2c0.7-2.5,2.2-4.2,3.3-5.1c0.6-0.4,1-0.7,1.4-0.9c0.3-0.2,0.5-0.2,0.5-0.2s-0.7,0.4-1.8,1.3
						c-1,0.9-2.4,2.6-3.1,5c-0.3,1.2-0.4,2.6-0.2,4.1c0.2,1.5,0.8,3,0.7,4.8c0,0.9-0.3,1.8-0.8,2.6s-1.1,1.5-1.7,2.2
						s-1.3,1.3-1.9,2.1c-0.6,0.7-1,1.6-1.3,2.5c-0.6,1.8-0.6,3.7-0.1,5.5c0.5,1.7,1.5,3.2,2.4,4.6c0.9,1.4,1.8,2.8,2.3,4.3
						c0.5,1.4,0.6,2.9,0.3,4.2c-0.4,1.3-1.1,2.2-1.6,3.1c-0.6,0.8-1,1.6-1.3,2.2C223.7,171,224,171.8,223.9,171.8z"/>
				</g>
				<g>
					<path class="st5" d="M260.5,179.9c0,0,0.2-0.2,0.5-0.6c0.3-0.4,0.7-1.1,1-2.1c0.2-1,0.2-2.3-0.4-3.6c-0.3-0.7-0.7-1.3-1.3-1.9
						c-0.6-0.5-1.4-0.9-2.3-1.1c-0.9-0.3-1.8-0.4-2.8-0.9c-0.9-0.5-1.7-1.6-1.6-2.8s0.8-2.2,1.5-3.1c0.8-0.9,1.7-1.6,2.5-2.6
						c0.7-0.9,1.3-2.1,0.9-3.3c-0.3-1.2-1.5-1.9-2.6-2.6c-1.1-0.7-2.4-1.2-3.4-2.2c-0.5-0.5-0.9-1.1-1.1-1.9c-0.2-0.7-0.1-1.5,0-2.2
						c0.3-1.4,1-2.7,1.3-4c0.4-1.3,0.3-2.7-0.5-3.7c-1.7-1.9-4.6-2.3-6.2-4.3c-0.8-1-1.2-2.2-1.5-3.3c-0.2-1.2-0.3-2.3-0.2-3.4
						c0.1-2.2,0.4-4.2,0.3-6s-0.6-3.5-1.6-4.6s-2.1-1.7-3.1-1.8c-1-0.2-1.8,0-2.3,0.3c-0.5,0.2-0.7,0.5-0.7,0.4c0,0,0-0.1,0.1-0.2
						s0.3-0.2,0.5-0.4c0.5-0.3,1.3-0.6,2.3-0.4s2.3,0.7,3.3,1.8c1,1.1,1.6,2.9,1.7,4.7c0.1,1.9-0.1,3.9-0.2,6.1c0,1.1,0,2.2,0.3,3.3
						c0.2,1.1,0.6,2.2,1.4,3.1c0.7,0.9,1.8,1.5,3,2.1c1.1,0.6,2.4,1.1,3.3,2.2c0.4,0.5,0.7,1.2,0.8,2c0.1,0.7,0,1.4-0.2,2.1
						c-0.4,1.4-1,2.6-1.3,4c-0.3,1.3,0,2.7,1,3.6c0.9,0.9,2.2,1.5,3.3,2.2c0.6,0.3,1.2,0.7,1.7,1.1c0.5,0.5,0.9,1,1.1,1.7
						s0.2,1.4,0,2s-0.6,1.2-1,1.7c-0.8,1-1.7,1.7-2.5,2.6c-0.7,0.8-1.3,1.8-1.4,2.8s0.5,2,1.4,2.4c0.8,0.5,1.8,0.7,2.7,0.9
						c0.9,0.3,1.7,0.7,2.4,1.3c0.6,0.6,1.1,1.3,1.3,2c0.6,1.4,0.6,2.8,0.3,3.8c-0.2,1-0.7,1.7-1.1,2.1
						C260.8,179.7,260.5,179.9,260.5,179.9z"/>
				</g>
				<g>
					<path class="st5" d="M233.3,182.7c0,0-0.1-0.2-0.3-0.7c-0.2-0.4-0.4-1.1-0.7-1.9c-0.3-0.9-0.6-1.9-0.9-3.2s-0.5-2.7-0.3-4.4
						c0.1-1.6,0.8-3.4,2-4.9c0.6-0.7,1.3-1.4,1.8-2.3c0.5-0.8,0.8-1.8,0.8-2.8c-0.1-2.1-1.1-4.1-2.2-6.1s-2.3-4.2-2.5-6.8
						c-0.1-1.3,0.3-2.6,1.1-3.6c0.8-1,1.9-1.6,2.7-2.3c0.9-0.7,1.5-1.6,1.7-2.7c0.2-1,0.1-2.1-0.1-3.1c-0.4-2.1-1.2-3.9-1.6-5.8
						c-0.3-1.9-0.4-3.7-0.2-5.3c0.4-3.2,1.6-5.6,2.6-7.1c0.5-0.8,0.9-1.3,1.2-1.7c0.3-0.4,0.5-0.5,0.5-0.5s-0.7,0.8-1.6,2.3
						s-2,3.9-2.4,7.1c-0.2,1.6-0.1,3.3,0.2,5.2c0.4,1.8,1.2,3.7,1.6,5.8c0.2,1,0.4,2.2,0.2,3.3c-0.2,1.1-0.9,2.2-1.8,3
						c-0.9,0.7-2,1.3-2.7,2.2s-1,2.1-1,3.2c0.1,2.4,1.3,4.6,2.4,6.5c1.1,2,2.2,4.1,2.2,6.3c0,1.1-0.3,2.2-0.8,3.1
						c-0.5,0.9-1.2,1.6-1.8,2.3c-1.2,1.4-1.8,3.1-2,4.6c-0.2,1.6,0,3,0.3,4.3c0.2,1.2,0.6,2.3,0.8,3.2c0.3,0.8,0.5,1.5,0.7,2
						C233.3,182.5,233.3,182.7,233.3,182.7z"/>
				</g>
			</g>
		</g>
	</g>
	<g>
		<g>
			<g>
				<g>
					<g>
						<path class="st7" d="M300.6,377.7l-0.1-1.6l-16.1,0.5l0.1,5.3h1c4.4,0.1,22.5,0.3,25.4-0.7
							C314.3,380.2,300.6,377.7,300.6,377.7z"/>
					</g>
				</g>
				<g class="st12">
					<g>
						<path class="st2" d="M290.4,381.6c-0.3-1.2-1-2.4-2.1-3.1c-1.1-0.8-2.4-1.1-3.8-1l0.1,4.2L290.4,381.6z"/>
					</g>
				</g>
			</g>
			<g class="st12">
				<g>
					<path class="st2" d="M307.3,379.1c0,0,4.8,1.2,4.2,1.9c-0.6,0.8-18.8,1.2-26.9,0.8v-0.3l21.3-0.4
						C305.9,381.1,306.4,379.2,307.3,379.1z"/>
				</g>
			</g>
			<g>
				<g>
					<g>
						<path class="st6" d="M284.4,381.5c0,0,0.1,0,0.3,0c0.2,0,0.5,0,0.8,0c0.8,0,1.8,0,2.9,0c2.5,0,5.9,0,9.6-0.1
							c3.8-0.1,7.1-0.3,9.6-0.4c1.1-0.1,2.1-0.1,2.9-0.2c0.3,0,0.6,0,0.8-0.1c0.2,0,0.3,0,0.3,0s-0.1,0-0.3,0c-0.2,0-0.5,0-0.8,0
							c-0.8,0-1.8,0.1-2.9,0.1c-2.5,0.1-5.8,0.2-9.6,0.3c-3.7,0.1-7.1,0.1-9.6,0.1c-1.1,0-2.1,0-2.9,0c-0.3,0-0.6,0-0.8,0
							C284.5,381.5,284.4,381.5,284.4,381.5z"/>
					</g>
				</g>
			</g>
			<g>
				<g>
					<g>
						<path class="st6" d="M305.9,381.3c0.1,0,0.1-0.6,0.5-1.3c0.4-0.7,1-1,1-1.1c0,0-0.7,0.3-1.1,1
							C305.8,380.6,305.9,381.3,305.9,381.3z"/>
					</g>
				</g>
			</g>
			<g>
				<g>
					<g>
						<path class="st6" d="M301.1,379.2c0,0,0.3-0.2,0.5-0.6s0.4-0.7,0.3-0.7c0,0-0.3,0.2-0.5,0.6
							C301.2,378.9,301.1,379.2,301.1,379.2z"/>
					</g>
				</g>
			</g>
			<g>
				<g>
					<g>
						<path class="st6" d="M299.8,378.6c0,0,0.3-0.1,0.6-0.4c0.3-0.2,0.5-0.5,0.4-0.5c0,0-0.3,0.1-0.6,0.4
							C300,378.3,299.8,378.6,299.8,378.6z"/>
					</g>
				</g>
			</g>
			<g>
				<g>
					<g>
						<path class="st6" d="M299,377.2c0,0.1,0.4,0.1,0.8,0.1c0.5,0,0.8-0.1,0.8-0.1c0-0.1-0.4-0.1-0.8-0.1
							C299.3,377.1,299,377.2,299,377.2z"/>
					</g>
				</g>
			</g>
			<g>
				<g>
					<g>
						<path class="st6" d="M298.7,376.2c0,0,0.4,0.2,0.9,0.2s1-0.1,1-0.1c0-0.1-0.4,0-0.9,0C299.1,376.2,298.7,376.2,298.7,376.2z"
							/>
					</g>
				</g>
			</g>
			<g>
				<g>
					<g>
						<path class="st6" d="M301.6,377.9c0,0,0.4,0.1,1,0c0.3,0,0.7-0.1,1.1-0.3c0.2-0.1,0.4-0.1,0.6-0.3c0.1-0.1,0.2-0.2,0.2-0.3
							c0-0.1,0-0.3-0.2-0.4c-1-0.5-2,0.1-2.3,0.6c-0.2,0.2-0.3,0.5-0.3,0.7s0,0.3,0,0.3s0.1-0.4,0.4-0.8c0.2-0.2,0.5-0.4,0.9-0.6
							c0.4-0.1,0.9-0.2,1.2,0c0.2,0.1,0.1,0.3-0.1,0.4s-0.4,0.2-0.6,0.2c-0.4,0.1-0.7,0.2-1.1,0.3
							C302,377.8,301.6,377.9,301.6,377.9z"/>
					</g>
				</g>
			</g>
			<g>
				<g>
					<g>
						<path class="st6" d="M301.9,377.9c0,0,0.2-0.2,0.1-0.7c0-0.2-0.1-0.5-0.3-0.7c-0.2-0.2-0.4-0.5-0.9-0.5
							c-0.2,0-0.3,0.3-0.3,0.5s0.1,0.3,0.2,0.4c0.2,0.2,0.3,0.4,0.5,0.6C301.6,377.8,301.8,377.9,301.9,377.9
							c-0.1,0-0.3-0.2-0.6-0.5c-0.1-0.1-0.3-0.3-0.4-0.6c-0.1-0.2-0.3-0.6,0-0.6s0.5,0.2,0.7,0.4c0.2,0.2,0.3,0.4,0.3,0.6
							C302,377.7,301.9,377.9,301.9,377.9z"/>
					</g>
				</g>
			</g>
			<g>
				<g>
					<g>
						<path class="st6" d="M284.6,377.4c0,0,0.5-0.1,1.2,0s1.7,0.3,2.6,0.9s1.4,1.5,1.7,2.1c0.3,0.6,0.3,1.1,0.3,1.1s0-0.1,0-0.3
							c0-0.2-0.1-0.5-0.2-0.8c-0.2-0.7-0.8-1.5-1.7-2.2c-0.9-0.6-2-0.9-2.7-0.9c-0.4,0-0.7,0-0.9,0
							C284.7,377.3,284.6,377.4,284.6,377.4z"/>
					</g>
				</g>
			</g>
			<g>
				<g>
					<g>
						<path class="st6" d="M292.4,380c0,0,1,0.2,2.3,0.2s2.3-0.2,2.3-0.2c0-0.1-1,0-2.3,0.1C293.4,380,292.4,380,292.4,380z"/>
					</g>
				</g>
			</g>
			<g>
				<g>
					<g>
						<path class="st6" d="M289.2,380.1c0,0,0.1,0.2,0.2,0.4c0.1,0.2,0.2,0.4,0.2,0.4c0.1,0,0.1-0.2-0.1-0.5
							C289.5,380.2,289.3,380.1,289.2,380.1z"/>
					</g>
				</g>
			</g>
			<g>
				<g>
					<g>
						<path class="st6" d="M288,378.8c0,0,0.1,0.2,0.2,0.3c0.2,0.2,0.3,0.2,0.4,0.2c0,0-0.1-0.2-0.2-0.3
							C288.2,378.8,288,378.7,288,378.8z"/>
					</g>
				</g>
			</g>
			<g>
				<g>
					<g>
						<path class="st6" d="M286.3,378.2c0,0.1,0.2,0,0.5,0.1c0.2,0.1,0.4,0.2,0.5,0.1c0,0-0.1-0.2-0.4-0.3
							C286.5,378,286.3,378.1,286.3,378.2z"/>
					</g>
				</g>
			</g>
			<g>
				<g>
					<g>
						<path class="st6" d="M285.1,377.9c0,0,0.1,0.1,0.2,0.2c0.1,0,0.3,0,0.3,0s-0.1-0.1-0.2-0.2
							C285.2,377.9,285.1,377.9,285.1,377.9z"/>
					</g>
				</g>
			</g>
		</g>
	</g>
</g>
<g>
	<path class="st7" d="M175.7,326.7c2.9-1.5,6.3-1.7,9.5-1.2c1.7,0.2,3.5,0.9,4.7,2.1c1.2,1.3,1.5,3.6,0,4.7
		c-0.9,0.7-1.9,0.7-2.9,0.7c-2.6,0-5.3-0.5-7.3,1.1c-1.1,0.9-1.9,2.3-3.3,2.8c-1.3,0.4-2.9-0.4-3.5-1.6c-0.6-1.2-0.7-2.8-0.4-4.1
		C172.5,331.2,172.8,328.3,175.7,326.7z"/>
	<path class="st13" d="M175.7,326.7c2.9-1.5,6.3-1.7,9.5-1.2c1.7,0.2,3.5,0.9,4.7,2.1c1.2,1.3,1.5,3.6,0,4.7
		c-0.9,0.7-1.9,0.7-2.9,0.7c-2.6,0-5.3-0.5-7.3,1.1c-1.1,0.9-1.9,2.3-3.3,2.8c-1.3,0.4-2.9-0.4-3.5-1.6c-0.6-1.2-0.7-2.8-0.4-4.1
		C172.5,331.2,172.8,328.3,175.7,326.7z"/>
	<path class="st7" d="M169.1,313.9c1.8,2.6,5.2,1.7,6.8,0.1c1.6-1.6,2.3-3.8,2.9-6c1.5-4.9,2.8-10.1,1.8-15.1
		c-0.4-1.5-0.9-3-1.9-4.1c-1.1-1.1-2.7-1.8-4.1-1.3c-1.7,0.5-2.8,2.2-3.6,3.8c-2.3,4.7-3.5,10.1-3.5,15.4
		C167.4,309.1,167.7,311.8,169.1,313.9"/>
	<path class="st9" d="M169.1,313.9c1.8,2.6,5.2,1.7,6.8,0.1c1.6-1.6,2.3-3.8,2.9-6c1.5-4.9,2.8-10.1,1.8-15.1
		c-0.4-1.5-0.9-3-1.9-4.1c-1.1-1.1-2.7-1.8-4.1-1.3c-1.7,0.5-2.8,2.2-3.6,3.8c-2.3,4.7-3.5,10.1-3.5,15.4
		C167.4,309.1,167.7,311.8,169.1,313.9"/>
	<path class="st7" d="M164.2,317.5c1.9-2.3,2.3-5.7,1.5-8.5c-0.9-2.9-2.8-5.3-5-7.3c-2.7-2.3-5.7-4.1-9-5.3c-1.3-0.5-2.7-0.9-4-0.7
		c-1.3,0.1-2.8,0.9-3.4,2.1c-1,1.8,0,4,1,5.8c1.7,3.2,3.6,6.2,6,9.1c1.8,2.3,3.8,4.6,6.4,5.6c2.7,1.1,5.5,1,6.9-1"/>
	<g>
		<path class="st6" d="M168.9,352.2c0,0,0.1-0.4,0.1-1.2c0.1-0.9,0.2-1.9,0.4-3.2c0.1-1.3,0.4-2.9,0.7-4.6c0.4-1.7,1-3.6,1.7-5.5
			c0.7-1.8,1.7-3.6,2.8-5c1.1-1.3,2.3-2.3,3.5-2.9c1.2-0.6,2.2-0.9,2.9-1c0.7-0.1,1.1-0.1,1.1-0.1s-0.4,0-1.2,0
			c-0.7,0-1.8,0.2-3,0.9c-1.2,0.6-2.6,1.6-3.6,2.9c-1.1,1.3-2.1,3.2-2.9,5.1c-0.7,1.9-1.3,3.8-1.7,5.6c-0.4,1.7-0.5,3.4-0.6,4.7
			c-0.1,1.3-0.1,2.4-0.1,3.2C168.9,351.9,168.9,352.2,168.9,352.2z"/>
	</g>
	<g>
		<path class="st6" d="M169.2,349.8c0,0,0-0.2,0-0.5c0-0.4,0-1,0-1.6c0-1.3,0-3.3,0.1-5.7c0.1-4.7,0.5-10,1.3-17.1
			c0.7-6.8,1.7-14.7,2.8-19.9c0.2-1.2,0.5-2.2,0.7-3.2c0.2-1,0.4-1.7,0.6-2.3c0.1-0.6,0.2-1.1,0.4-1.5c0.1-0.4,0.1-0.5,0.1-0.5
			s-0.1,0.1-0.2,0.5s-0.2,0.9-0.5,1.5c-0.2,0.6-0.4,1.5-0.6,2.3c-0.2,1-0.5,1.9-0.7,3.2c-1.1,4.6-2.2,11.2-2.9,18.5
			c-0.7,7.3-1.1,13.8-1.2,18.6c0,2.4,0,4.4,0.1,5.7c0,0.6,0.1,1.1,0.1,1.6C169.1,349.7,169.2,349.8,169.2,349.8z"/>
	</g>
	<g>
		<path class="st6" d="M169.2,337.2c0,0,0-0.6,0-1.6c0-1.1-0.2-2.6-0.5-4.4c-0.4-1.8-0.7-4-1.5-6.3c-0.2-1.1-1-3.6-2.7-7.5
			c-2.2-5.2-5.1-9.5-7.8-12.1c-0.6-0.7-1.3-1.2-1.8-1.7c-0.2-0.2-0.5-0.5-0.7-0.6c-0.2-0.1-0.5-0.4-0.7-0.5
			c-0.9-0.6-1.3-0.9-1.3-0.9c-0.1,0.1,1.9,1.3,4.4,4c2.4,2.7,5.3,6.9,7.5,12c1.2,2.8,2.1,5.3,2.7,7.4c0.7,2.3,1.1,4.5,1.5,6.3
			c0.4,1.8,0.5,3.3,0.6,4.3C169.1,336.6,169.2,337.2,169.2,337.2z"/>
	</g>
</g>
<g>
	<g>
		<path class="st1" d="M125,317.4c12.6-9.3,15-26,14.1-40.9c-0.2-2.5,0-5.1-1.3-7.2c-1.3-2.1-4.1-3.5-6.4-2.4
			c-1.8,1-2.6,3.1-3.6,4.9c-1.4,2.4-3.3,4.5-5.7,5.7c-1.6,0.9-3.6,1.4-5.2,0.6c-2.2-1.1-2.5-4.1-2.6-6.5c-0.2-4.6-0.2-9.2-0.4-13.8
			c-0.1-2.5-0.2-5-1-7.3c-0.9-2.3-2.6-4.5-5-5c-2.4-0.6-5.3,0.9-5.7,3.3c-0.2,1,0.1,2.1,0,3.1c0,1-0.5,2.1-1.4,2.5
			c-1,0.3-2-0.3-2.8-1c-2.6-2.4-4.5-5.6-6.3-8.7c-1.7-3.1-3.4-6.4-5.9-9c-2.5-2.6-5.7-4.7-9.3-4.8c-3.6-0.1-7.3,2.2-8.1,5.7
			c-0.8,3.5,1.4,7,3.7,9.7c3.4,4.1,7.5,7.6,12,10.6c0.8,0.6,1.7,1.1,2,2c0.6,1.6-1,3.3-2.5,3.9c-1.8,0.6-3.9,0.6-5.8,0.9
			c-1.9,0.3-4.1,1.2-4.7,3c-1,2.5,1.3,5.2,3.4,6.8c4.3,3.3,9.2,5.9,14.4,7.6c1.8,0.6,3.8,1.1,5.3,2.4c1.5,1.2,2.5,3.4,1.7,5.2
			c-0.9,1.7-3.1,2.4-5.1,2.1c-1.9-0.3-3.7-1.3-5.6-1.9c-3.5-1.2-7.9-0.8-10,2.2c-1.4,2-1.4,4.7-0.6,6.9c0.8,2.3,2.4,4.2,4,6
			c5.7,6.2,13,11.1,21,13.6C109.8,320.1,117.1,320.5,125,317.4"/>
	</g>
	<g>
		<g>
			<path class="st3" d="M72,233.2c0,0,0.1,0.1,0.2,0.2s0.5,0.4,0.8,0.6c0.6,0.6,1.7,1.4,2.9,2.5c2.5,2.1,6,5.4,9.9,9.9
				c1.9,2.2,4,4.8,6,7.5c2.1,2.8,4.4,5.7,6.6,8.9c2.2,3.2,4.5,6.6,6.5,10.3c1,1.8,2,3.8,2.9,5.8c1,2,1.9,4,2.9,6
				c3.8,8.2,7.2,16.1,9.7,23.5c2.5,7.4,4.1,14.3,4.8,20.1c0.8,5.9,0.8,10.7,0.6,13.9c-0.1,1.7-0.2,2.9-0.2,3.8c0,0.4-0.1,0.7-0.1,1
				c0,0.2,0,0.3,0,0.3s0.3-1.8,0.5-5.1c0.2-3.3,0.2-8.1-0.6-14c-0.7-5.9-2.3-12.8-4.8-20.2c-2.5-7.4-5.9-15.3-9.7-23.5
				c-1-2.1-1.9-4.1-2.9-6c-1-2-1.9-4-2.9-5.8c-2.1-3.7-4.3-7.2-6.5-10.3c-2.2-3.2-4.5-6.1-6.6-8.9c-2.1-2.8-4.1-5.2-6.1-7.5
				c-3.9-4.5-7.5-7.7-10-9.8c-1.3-1-2.3-1.8-2.9-2.4c-0.3-0.2-0.6-0.5-0.8-0.6C72.1,233.2,72,233.2,72,233.2z"/>
		</g>
	</g>
	<g>
		<g>
			<path class="st3" d="M105.2,272.8c0,0,0.1-0.4,0.2-1c0.1-0.7,0.2-1.7,0.3-2.9c0.2-2.5,0.6-5.9,0.8-9.7c0.2-3.8,0.6-7.2,0.9-9.6
				c0.2-1.2,0.3-2.2,0.4-2.9c0.1-0.7,0.2-1,0.2-1.1c0,0-0.1,0.4-0.2,1c-0.2,0.7-0.3,1.7-0.6,2.9c-0.4,2.5-0.7,5.9-1,9.6
				c-0.2,3.7-0.5,7.2-0.7,9.7c-0.1,1.2-0.2,2.1-0.2,2.9C105.2,272.4,105.2,272.8,105.2,272.8z"/>
		</g>
	</g>
	<g>
		<g>
			<path class="st3" d="M72.9,268c0,0,0.1,0,0.3,0.1c0.2,0,0.6,0,1,0.1c0.8,0,2,0.1,3.5,0.2c2.9,0.2,7,0.6,11.5,1.4
				c4.5,0.7,8.5,1.5,11.4,2.1c1.4,0.3,2.6,0.6,3.4,0.8c0.4,0.1,0.6,0.2,1,0.2c0.2,0.1,0.3,0.1,0.3,0.1s-0.1-0.1-0.3-0.2
				c-0.2-0.1-0.6-0.2-0.9-0.3c-0.8-0.2-2-0.6-3.4-1c-2.9-0.7-6.9-1.6-11.4-2.2c-4.5-0.7-8.6-1.1-11.5-1.2c-1.5-0.1-2.7-0.1-3.5-0.1
				c-0.4,0-0.7,0-1,0C73,268,72.9,268,72.9,268z"/>
		</g>
	</g>
	<g>
		<g>
			<path class="st3" d="M120.4,307.6c0,0,0.1-0.2,0.2-0.4c0.2-0.3,0.3-0.7,0.5-1.2c0.4-1,1-2.5,1.7-4.4c1.4-3.7,3.3-8.8,5.2-14.5
				c1.9-5.7,3.7-10.9,5.1-14.6c0.6-1.8,1.2-3.3,1.6-4.4c0.2-0.5,0.3-0.9,0.5-1.2c0.1-0.2,0.2-0.4,0.2-0.4s-0.1,0.2-0.2,0.4
				c-0.2,0.3-0.3,0.7-0.5,1.2c-0.4,1-1,2.5-1.7,4.4c-1.4,3.7-3.3,8.8-5.2,14.5c-1.9,5.7-3.7,10.9-5.1,14.5c-0.7,1.8-1.2,3.3-1.6,4.4
				c-0.2,0.5-0.3,0.9-0.5,1.2C120.4,307.5,120.4,307.6,120.4,307.6z"/>
		</g>
	</g>
	<g>
		<g>
			<path class="st3" d="M77.2,295.5c0,0,0.2,0.1,0.4,0.2c0.3,0.1,0.7,0.2,1.3,0.4c1.1,0.3,2.7,0.8,4.6,1.3c3.9,1.1,9.3,2.7,15.2,4.5
				c6,1.7,11.4,3.3,15.3,4.4c2,0.6,3.6,1,4.7,1.2c0.6,0.2,1,0.2,1.3,0.3c0.3,0.1,0.5,0.1,0.5,0.1s-0.2-0.1-0.4-0.2
				c-0.3-0.1-0.7-0.2-1.3-0.4c-1.1-0.3-2.7-0.8-4.6-1.3c-3.9-1.1-9.3-2.7-15.2-4.5c-6-1.7-11.3-3.3-15.3-4.4c-2-0.6-3.6-1-4.7-1.2
				c-0.6-0.2-1-0.2-1.3-0.3C77.4,295.5,77.2,295.5,77.2,295.5z"/>
		</g>
	</g>
</g>
<g>
	<g>
		<polygon class="st6" points="328.9,142.8 326.6,142.8 326.6,142.3 328.5,142.3 328.5,140.4 328.9,140.4 		"/>
	</g>
	<path class="st6" d="M322.1,142.8h-4.4v-0.4h4.4V142.8z M313.3,142.8h-4.4v-0.4h4.4V142.8z"/>
	<g>
		<polygon class="st6" points="286.8,142.8 284.5,142.8 284.5,140.4 284.9,140.4 284.9,142.3 286.8,142.3 		"/>
	</g>
	<g>
		<path class="st6" d="M284.9,135.9h-0.4v-4.4h0.4V135.9z M284.9,127h-0.4v-4.4h0.4V127z M284.9,118.1h-0.4v-4.4h0.4V118.1z
			 M284.9,109.2h-0.4v-4.4h0.4V109.2z"/>
	</g>
	<g>
		<polygon class="st6" points="284.9,100.3 284.5,100.3 284.5,98 286.8,98 286.8,98.4 284.9,98.4 		"/>
	</g>
	<g>
		<path class="st6" d="M322.1,98.4h-4.4V98h4.4V98.4z M313.3,98.4h-4.4V98h4.4V98.4z M304.5,98.4h-4.4V98h4.4V98.4z M295.7,98.4
			h-4.4V98h4.4V98.4z"/>
	</g>
	<g>
		<polygon class="st6" points="328.9,100.3 328.5,100.3 328.5,98.4 326.6,98.4 326.6,98 328.9,98 		"/>
	</g>
	<g>
		<path class="st6" d="M328.9,135.9h-0.4v-4.4h0.4V135.9z M328.9,127h-0.4v-4.4h0.4V127z M328.9,118.1h-0.4v-4.4h0.4V118.1z
			 M328.9,109.2h-0.4v-4.4h0.4V109.2z"/>
	</g>
</g>
</svg>
