<?xml version="1.0" encoding="utf-8"?>
<!-- Generator: Adobe Illustrator 23.0.3, SVG Export Plug-In . SVG Version: 6.00 Build 0)  -->
<svg version="1.1" id="Layer_1" xmlns="http://www.w3.org/2000/svg" xmlns:xlink="http://www.w3.org/1999/xlink" x="0px" y="0px"
	 viewBox="0 0 535 387" style="enable-background:new 0 0 535 387;" xml:space="preserve">
<style type="text/css">
	.st0{fill:#F5F5F5;}
	.st1{fill:#ECECEC;}
	.st2{fill:#FFFFFF;}
	.st3{fill:#E1E1E1;}
	.st4{fill:#FAFAFA;}
	.st5{fill:#C78976;}
	.st6{fill:#1A2E35;}
	.st7{fill:#375A64;}
	.st8{fill:#FF4F5B;}
	.st9{opacity:0.2;}
	.st10{fill:#F0F0F0;}
	.st11{opacity:0.3;}
	.st12{opacity:0.6;fill:#FFFFFF;}
	.st13{fill:#FFBF9D;}
	.st14{opacity:0.6;}
	.st15{opacity:0.2;fill:#FFFFFF;}
</style>
<g>
	<g>
		<g>
			<rect x="385.3" y="96.5" class="st0" width="117.9" height="81.4"/>
		</g>
	</g>
	<g>
		<g>
			<rect x="385.3" y="96.5" class="st1" width="117.9" height="8.1"/>
		</g>
	</g>
	<g>
		<g>
			<path class="st2" d="M390.4,100.6c0,0.5-0.4,0.9-1,0.9c-0.5,0-1-0.4-1-0.9c0-0.5,0.4-0.9,1-0.9
				C389.9,99.7,390.4,100.1,390.4,100.6z"/>
		</g>
	</g>
	<g>
		<g>
			<path class="st2" d="M393.4,100.6c0,0.5-0.4,0.9-1,0.9c-0.5,0-1-0.4-1-0.9c0-0.5,0.4-0.9,1-0.9C393,99.7,393.4,100.1,393.4,100.6
				z"/>
		</g>
	</g>
	<g>
		<g>
			<path class="st2" d="M396.5,100.6c0,0.5-0.4,0.9-1,0.9c-0.5,0-1-0.4-1-0.9c0-0.5,0.4-0.9,1-0.9
				C396.1,99.7,396.5,100.1,396.5,100.6z"/>
		</g>
	</g>
	<g>
		<g>
			<g>
				<rect x="140.4" y="29.7" class="st3" width="221.3" height="152.8"/>
			</g>
		</g>
		<g>
			<g>
				<rect x="140.4" y="29.7" class="st3" width="221.3" height="15.3"/>
			</g>
		</g>
		<g>
			<g>
				<path class="st2" d="M150,37.3c0,0.9-0.8,1.7-1.8,1.7c-1,0-1.8-0.8-1.8-1.7s0.8-1.7,1.8-1.7C149.2,35.6,150,36.3,150,37.3z"/>
			</g>
		</g>
		<g>
			<g>
				<path class="st2" d="M155.7,37.3c0,0.9-0.8,1.7-1.8,1.7c-1,0-1.8-0.8-1.8-1.7s0.8-1.7,1.8-1.7C154.9,35.6,155.7,36.3,155.7,37.3
					z"/>
			</g>
		</g>
		<g>
			<g>
				<path class="st2" d="M161.5,37.3c0,0.9-0.8,1.7-1.8,1.7c-1,0-1.8-0.8-1.8-1.7s0.8-1.7,1.8-1.7C160.7,35.6,161.5,36.3,161.5,37.3
					z"/>
			</g>
		</g>
	</g>
	<g>
		<g>
			<g>
				<rect x="201.1" y="288.1" class="st0" width="117.9" height="81.4"/>
			</g>
		</g>
		<g>
			<g>
				<rect x="201.1" y="288.1" class="st1" width="117.9" height="8.1"/>
			</g>
		</g>
		<g>
			<g>
				<path class="st2" d="M206.2,292.2c0,0.5-0.4,0.9-1,0.9c-0.5,0-1-0.4-1-0.9c0-0.5,0.4-0.9,1-0.9
					C205.8,291.2,206.2,291.7,206.2,292.2z"/>
			</g>
		</g>
		<g>
			<g>
				<path class="st2" d="M209.3,292.2c0,0.5-0.4,0.9-1,0.9c-0.5,0-1-0.4-1-0.9c0-0.5,0.4-0.9,1-0.9
					C208.9,291.2,209.3,291.7,209.3,292.2z"/>
			</g>
		</g>
		<g>
			<g>
				<path class="st2" d="M212.4,292.2c0,0.5-0.4,0.9-1,0.9c-0.5,0-1-0.4-1-0.9c0-0.5,0.4-0.9,1-0.9
					C212,291.2,212.4,291.7,212.4,292.2z"/>
			</g>
		</g>
	</g>
	<g>
		<g>
			<g>
				<rect x="123.6" y="45.3" class="st0" width="221.3" height="152.8"/>
			</g>
		</g>
		<g>
			<g>
				<rect x="123.6" y="45.3" class="st1" width="221.3" height="15.3"/>
			</g>
		</g>
		<g>
			<g>
				<path class="st2" d="M133.2,52.9c0,0.9-0.8,1.7-1.8,1.7c-1,0-1.8-0.8-1.8-1.7s0.8-1.7,1.8-1.7C132.4,51.2,133.2,52,133.2,52.9z"
					/>
			</g>
		</g>
		<g>
			<g>
				<path class="st2" d="M138.9,52.9c0,0.9-0.8,1.7-1.8,1.7c-1,0-1.8-0.8-1.8-1.7s0.8-1.7,1.8-1.7C138.1,51.2,138.9,52,138.9,52.9z"
					/>
			</g>
		</g>
		<g>
			<g>
				<path class="st2" d="M144.7,52.9c0,0.9-0.8,1.7-1.8,1.7c-1,0-1.8-0.8-1.8-1.7s0.8-1.7,1.8-1.7C143.9,51.2,144.7,52,144.7,52.9z"
					/>
			</g>
		</g>
	</g>
	<g>
		<g>
			<g>
				<rect x="60.5" y="79.1" class="st0" width="221.3" height="152.8"/>
			</g>
		</g>
		<g>
			<g>
				<rect x="60.5" y="79.1" class="st1" width="221.3" height="15.3"/>
			</g>
		</g>
		<g>
			<g>
				<path class="st2" d="M70.1,86.7c0,0.9-0.8,1.7-1.8,1.7c-1,0-1.8-0.8-1.8-1.7c0-0.9,0.8-1.7,1.8-1.7C69.3,85,70.1,85.7,70.1,86.7
					z"/>
			</g>
		</g>
		<g>
			<g>
				<path class="st2" d="M75.9,86.7c0,0.9-0.8,1.7-1.8,1.7c-1,0-1.8-0.8-1.8-1.7c0-0.9,0.8-1.7,1.8-1.7C75.1,85,75.9,85.7,75.9,86.7
					z"/>
			</g>
		</g>
		<g>
			<g>
				<path class="st2" d="M81.6,86.7c0,0.9-0.8,1.7-1.8,1.7c-1,0-1.8-0.8-1.8-1.7c0-0.9,0.8-1.7,1.8-1.7C80.8,85,81.6,85.7,81.6,86.7
					z"/>
			</g>
		</g>
	</g>
	<g>
		<g>
			<g>
				<rect x="328.2" y="87.7" class="st1" width="142.8" height="98.6"/>
			</g>
		</g>
		<g>
			<g>
				<rect x="328.2" y="87.7" class="st3" width="142.8" height="9.8"/>
			</g>
		</g>
		<g>
			<g>
				<path class="st4" d="M334.4,92.6c0,0.6-0.5,1.1-1.2,1.1c-0.6,0-1.2-0.5-1.2-1.1c0-0.6,0.5-1.1,1.2-1.1
					C333.9,91.5,334.4,92,334.4,92.6z"/>
			</g>
		</g>
		<g>
			<g>
				<path class="st4" d="M338.2,92.6c0,0.6-0.5,1.1-1.2,1.1c-0.6,0-1.2-0.5-1.2-1.1c0-0.6,0.5-1.1,1.2-1.1
					C337.6,91.5,338.2,92,338.2,92.6z"/>
			</g>
		</g>
		<g>
			<g>
				<path class="st4" d="M341.9,92.6c0,0.6-0.5,1.1-1.2,1.1c-0.6,0-1.2-0.5-1.2-1.1c0-0.6,0.5-1.1,1.2-1.1
					C341.4,91.5,341.9,92,341.9,92.6z"/>
			</g>
		</g>
	</g>
</g>
<g>
	<g>
		<g>
			<path class="st5" d="M98.2,111.8c0,0,7.6-13.2,11.4-12.5c3.8,0.8,7.1,3.5,7.1,3.5l-9.6,11.4L98.2,111.8z"/>
		</g>
		<g>
			<polygon class="st6" points="54.2,144 81.4,133.5 98.4,107.6 108.7,113 89.1,148.4 56.8,160.7 			"/>
		</g>
	</g>
	<g>
		<g>
			<g>
				<g>
					<g>
						<g>
							<rect x="109.7" y="65.5" class="st4" width="214.1" height="144.6"/>
						</g>
					</g>
				</g>
				<g>
					<g>
						<g>
							<rect x="109.7" y="65.5" class="st7" width="214.1" height="14.4"/>
						</g>
					</g>
				</g>
				<g>
					<g>
						<g>
							<path class="st2" d="M118.9,72.8c0,0.9-0.8,1.6-1.7,1.6c-1,0-1.7-0.7-1.7-1.6c0-0.9,0.8-1.6,1.7-1.6
								C118.2,71.1,118.9,71.9,118.9,72.8z"/>
						</g>
					</g>
				</g>
				<g>
					<g>
						<g>
							<path class="st2" d="M124.5,72.8c0,0.9-0.8,1.6-1.7,1.6c-1,0-1.7-0.7-1.7-1.6c0-0.9,0.8-1.6,1.7-1.6
								C123.7,71.1,124.5,71.9,124.5,72.8z"/>
						</g>
					</g>
				</g>
				<g>
					<g>
						<g>
							<path class="st2" d="M130.1,72.8c0,0.9-0.8,1.6-1.7,1.6c-1,0-1.7-0.7-1.7-1.6c0-0.9,0.8-1.6,1.7-1.6
								C129.3,71.1,130.1,71.9,130.1,72.8z"/>
						</g>
					</g>
				</g>
			</g>
			<g>
				<g>
					<g>
						<g>
							<path class="st6" d="M323.8,210.1c0-1.5-0.1-56.5-0.2-144.6l0.2,0.2c-59,0-133.4,0-214.1,0h0l0.2-0.2c0,51.5,0,100.5,0,144.6
								l-0.2-0.2C235.8,210,321.9,210.1,323.8,210.1c-1.8,0-88,0.1-214.1,0.2l-0.2,0l0-0.2c0-44.1,0-93.1,0-144.6l0-0.2h0.2h0
								c80.7,0,155.1,0,214.1,0h0.2l0,0.2C323.8,153.6,323.8,208.6,323.8,210.1z"/>
						</g>
					</g>
				</g>
			</g>
		</g>
		<g>
			<g>
				<polygon class="st6" points="171.4,138.2 169.1,138.2 169.1,137.7 171,137.7 171,135.8 171.4,135.8 				"/>
			</g>
			<g>
				<path class="st6" d="M164.6,138.2h-4.4v-0.4h4.4V138.2z M155.8,138.2h-4.4v-0.4h4.4V138.2z M147,138.2h-4.4v-0.4h4.4V138.2z
					 M138.2,138.2h-4.4v-0.4h4.4V138.2z"/>
			</g>
			<g>
				<polygon class="st6" points="129.3,138.2 127,138.2 127,135.8 127.4,135.8 127.4,137.7 129.3,137.7 				"/>
			</g>
			<g>
				<path class="st6" d="M127.4,131.3H127v-4.4h0.4V131.3z M127.4,122.4H127V118h0.4V122.4z M127.4,113.5H127v-4.4h0.4V113.5z
					 M127.4,104.6H127v-4.4h0.4V104.6z"/>
			</g>
			<g>
				<polygon class="st6" points="127.4,95.7 127,95.7 127,93.4 129.3,93.4 129.3,93.8 127.4,93.8 				"/>
			</g>
			<g>
				<path class="st6" d="M164.6,93.8h-4.4v-0.4h4.4V93.8z M155.8,93.8h-4.4v-0.4h4.4V93.8z M147,93.8h-4.4v-0.4h4.4V93.8z
					 M138.2,93.8h-4.4v-0.4h4.4V93.8z"/>
			</g>
			<g>
				<polygon class="st6" points="171.4,95.7 171,95.7 171,93.8 169.1,93.8 169.1,93.4 171.4,93.4 				"/>
			</g>
			<g>
				<path class="st6" d="M171.4,131.3H171v-4.4h0.4V131.3z M171.4,122.4H171V118h0.4V122.4z M171.4,113.5H171v-4.4h0.4V113.5z
					 M171.4,104.6H171v-4.4h0.4V104.6z"/>
			</g>
		</g>
		<g>
			<g>
				<rect x="124.7" y="146.2" class="st7" width="48.7" height="3.3"/>
			</g>
			<g>
				<rect x="187.6" y="100.6" class="st7" width="48.7" height="3.3"/>
			</g>
			<g>
				<g>
					<path class="st7" d="M308.7,112.9c0,0.1-27.1,0.2-60.5,0.2c-33.4,0-60.5-0.1-60.5-0.2c0-0.1,27.1-0.2,60.5-0.2
						C281.6,112.6,308.7,112.7,308.7,112.9z"/>
				</g>
			</g>
			<g>
				<g>
					<path class="st7" d="M308.7,120c0,0.1-27.1,0.2-60.5,0.2c-33.4,0-60.5-0.1-60.5-0.2c0-0.1,27.1-0.2,60.5-0.2
						C281.6,119.8,308.7,119.9,308.7,120z"/>
				</g>
			</g>
			<g>
				<g>
					<path class="st7" d="M308.7,127.2c0,0.1-27.1,0.2-60.5,0.2c-33.4,0-60.5-0.1-60.5-0.2c0-0.1,27.1-0.2,60.5-0.2
						C281.6,127,308.7,127.1,308.7,127.2z"/>
				</g>
			</g>
			<g>
				<g>
					<path class="st7" d="M308.7,134.4c0,0.1-27.1,0.2-60.5,0.2c-33.4,0-60.5-0.1-60.5-0.2c0-0.1,27.1-0.2,60.5-0.2
						C281.6,134.1,308.7,134.2,308.7,134.4z"/>
				</g>
			</g>
			<g>
				<g>
					<path class="st7" d="M308.7,141.5c0,0.1-27.1,0.2-60.5,0.2c-33.4,0-60.5-0.1-60.5-0.2s27.1-0.2,60.5-0.2
						C281.6,141.3,308.7,141.4,308.7,141.5z"/>
				</g>
			</g>
			<g>
				<g>
					<path class="st7" d="M234.9,148.7c0,0.1-10.6,0.2-23.6,0.2c-13.1,0-23.6-0.1-23.6-0.2s10.6-0.2,23.6-0.2
						C224.3,148.5,234.9,148.6,234.9,148.7z"/>
				</g>
			</g>
			<g>
				<g>
					<path class="st7" d="M307.8,162.6c0,0.1-17.8,0.2-39.8,0.2c-22,0-39.8-0.1-39.8-0.2s17.8-0.2,39.8-0.2
						C290,162.4,307.8,162.5,307.8,162.6z"/>
				</g>
			</g>
			<g>
				<g>
					<path class="st7" d="M307.8,170.2c0,0.1-17.8,0.2-39.8,0.2c-22,0-39.8-0.1-39.8-0.2S246,170,268,170
						C290,170,307.8,170.1,307.8,170.2z"/>
				</g>
			</g>
			<g>
				<g>
					<path class="st7" d="M307.8,177.8c0,0.1-17.8,0.2-39.8,0.2c-22,0-39.8-0.1-39.8-0.2s17.8-0.2,39.8-0.2
						C290,177.6,307.8,177.7,307.8,177.8z"/>
				</g>
			</g>
			<g>
				<g>
					<path class="st7" d="M307.8,185.4c0,0.1-17.8,0.2-39.8,0.2c-22,0-39.8-0.1-39.8-0.2s17.8-0.2,39.8-0.2
						C290,185.2,307.8,185.3,307.8,185.4z"/>
				</g>
			</g>
			<g>
				<g>
					<path class="st7" d="M173.5,161.9c0,0.1-10.6,0.2-23.7,0.2c-13.1,0-23.7-0.1-23.7-0.2c0-0.1,10.6-0.2,23.7-0.2
						C162.9,161.7,173.5,161.8,173.5,161.9z"/>
				</g>
			</g>
			<g>
				<g>
					<path class="st7" d="M173.5,167.9c0,0.1-10.6,0.2-23.7,0.2c-13.1,0-23.7-0.1-23.7-0.2c0-0.1,10.6-0.2,23.7-0.2
						C162.9,167.6,173.5,167.7,173.5,167.9z"/>
				</g>
			</g>
			<g>
				<g>
					<path class="st7" d="M173.5,173.8c0,0.1-10.6,0.2-23.7,0.2c-13.1,0-23.7-0.1-23.7-0.2c0-0.1,10.6-0.2,23.7-0.2
						C162.9,173.6,173.5,173.7,173.5,173.8z"/>
				</g>
			</g>
			<g>
				<g>
					<path class="st7" d="M173.5,179.8c0,0.1-10.6,0.2-23.7,0.2c-13.1,0-23.7-0.1-23.7-0.2c0-0.1,10.6-0.2,23.7-0.2
						C162.9,179.6,173.5,179.7,173.5,179.8z"/>
				</g>
			</g>
			<g>
				<g>
					<path class="st7" d="M173.5,185.8c0,0.1-10.6,0.2-23.7,0.2c-13.1,0-23.7-0.1-23.7-0.2c0-0.1,10.6-0.2,23.7-0.2
						C162.9,185.6,173.5,185.7,173.5,185.8z"/>
				</g>
			</g>
			<g>
				<g>
					<g>
						<g>
							<rect x="187.6" y="159" class="st7" width="34.5" height="33.7"/>
						</g>
					</g>
				</g>
				<g>
					<g>
						<g>
							<polygon class="st8" points="190.3,189.8 199.8,172.5 207.6,183.5 212.4,177.7 219.4,189.8 							"/>
						</g>
					</g>
				</g>
				<g>
					<g>
						<g>
							<path class="st8" d="M211,169.1c0,1.4-1.1,2.5-2.5,2.5c-1.4,0-2.5-1.1-2.5-2.5c0-1.4,1.1-2.5,2.5-2.5
								C209.8,166.6,211,167.7,211,169.1z"/>
						</g>
					</g>
				</g>
				<g>
					<g>
						<g>
							<g>
								<path class="st6" d="M219.4,189.9c0,0,0,0,0-0.1c0-0.1,0-0.2,0-0.4c0-0.4,0-0.9,0-1.5c0-1.3,0-3.3,0-5.7
									c0-4.9,0-11.9-0.1-20.3l0.1,0.1c-8.5,0-18.5,0-29.2,0c0,0,0.3-0.3,0.2-0.2v0v0v0v0.1v0.1v0.2v0.5v1c0,0.6,0,1.3,0,1.9
									c0,1.3,0,2.5,0,3.8c0,2.5,0,4.9,0,7.3c0,4.7,0,9.2,0,13.3l-0.1-0.1c8.7,0,16,0.1,21.1,0.1c2.6,0,4.6,0,6,0
									c0.7,0,1.2,0,1.6,0c0.2,0,0.3,0,0.4,0C219.4,189.9,219.4,189.9,219.4,189.9c0,0,0,0-0.1,0c-0.1,0-0.2,0-0.4,0
									c-0.4,0-0.9,0-1.6,0c-1.4,0-3.4,0-5.9,0c-5.1,0-12.4,0-21.2,0.1l-0.1,0v-0.1c0-4.1,0-8.6,0-13.3c0-2.4,0-4.8,0-7.3
									c0-1.2,0-2.5,0-3.8c0-0.6,0-1.3,0-1.9v-1l0-0.5V162v-0.1v-0.1v0v0v0c-0.1,0.1,0.2-0.2,0.2-0.2c10.7,0,20.7,0,29.2,0l0.1,0
									l0,0.1c0,8.5-0.1,15.5-0.1,20.4c0,2.4,0,4.4,0,5.7c0,0.6,0,1.1,0,1.5c0,0.2,0,0.3,0,0.4
									C219.4,189.8,219.4,189.9,219.4,189.9z"/>
							</g>
						</g>
					</g>
				</g>
			</g>
		</g>
	</g>
	<g>
		<g>
			<g>
				<g>
					<rect x="112.6" y="88.4" class="st8" width="48.8" height="47.6"/>
				</g>
			</g>
		</g>
		<g>
			<g>
				<g>
					<polygon class="st4" points="116.4,131.9 129.9,107.4 140.9,123.1 147.6,114.8 157.6,131.9 					"/>
				</g>
			</g>
		</g>
		<g>
			<g>
				<g>
					<ellipse class="st4" cx="142.1" cy="102.7" rx="3.5" ry="3.5"/>
				</g>
			</g>
		</g>
		<g>
			<g>
				<g>
					<g>
						<path class="st4" d="M157.6,132c0,0,0-0.1,0-0.2c0-0.1,0-0.3,0-0.6c0-0.5,0-1.2,0-2.1c0-1.9,0-4.6-0.1-8.1
							c0-7-0.1-16.9-0.1-28.7l0.2,0.2c-11.9,0-26.1,0-41.2,0c-0.1,0,0.4-0.4,0.2-0.2v0v0v0v0.1v0.2V93v0.7V95c0,0.9,0,1.8,0,2.7
							c0,1.8,0,3.6,0,5.3c0,3.5,0,6.9,0,10.3c0,6.7,0,13,0,18.8l-0.2-0.2c12.3,0,22.6,0.1,29.8,0.1c3.6,0,6.4,0,8.4,0.1
							c1,0,1.7,0,2.2,0c0.2,0,0.4,0,0.6,0C157.5,132,157.6,132,157.6,132c0,0-0.1,0-0.2,0c-0.1,0-0.3,0-0.6,0c-0.5,0-1.2,0-2.2,0
							c-2,0-4.8,0-8.4,0.1c-7.3,0-17.6,0.1-29.9,0.1l-0.2,0V132c0-5.8,0-12.1,0-18.8c0-3.3,0-6.8,0-10.3c0-1.7,0-3.5,0-5.3
							c0-0.9,0-1.8,0-2.7v-1.4l0-0.7v-0.3v-0.2v-0.1v0v0v0c-0.2,0.2,0.3-0.3,0.2-0.2c15.1,0,29.3,0,41.2,0l0.2,0l0,0.2
							c0,11.9-0.1,21.9-0.1,28.9c0,3.4,0,6.2-0.1,8c0,0.9,0,1.6,0,2.1c0,0.2,0,0.4,0,0.5C157.6,132,157.6,132,157.6,132z"/>
					</g>
				</g>
			</g>
		</g>
	</g>
	<g>
		<g>
			<path class="st5" d="M126.2,111.3c2.1-2.5,4.5-5.5,5.6-7.2c2-3.2,1.7-3.4,1.3-3.6c-1.1-0.5-3.8,5.5-3.9,3.9
				c-0.2-1.6,4.1-6.9,2.9-7.4c-1.5-0.6-4.2,5.7-4.5,6.2c-0.3,0.5-1,0.1-0.7-0.3c0.4-0.7,4.2-7.6,2.7-8.2c-0.8-0.3-1.3,1.2-1.3,1.2
				s-3.1,6.8-3.8,6.5c-0.7-0.3,1-4.4,1.7-5.7c0.7-1.3,0.3-2.2-0.5-2c-0.6,0.1-2.7,4.1-3.3,5.4c-0.6,1.3-2.3,5-2.9,2.5
				c-0.6-2.5-2-4.2-2.7-4.4c-0.7-0.2-1.2,0.7-0.7,1.3c0.4,0.5,0.8,1.6,1.1,2.4c0.2,0.7,0.3,1.4,0.3,2.1c0,0.6,0,1.1,0,1.6l-0.2,5.1
				l5.8,4L126.2,111.3z"/>
		</g>
		<g>
			<g>
				<path class="st5" d="M57.6,268.8l6,93.2l14-1.6c0,0,0.3-90.8-0.3-90.8C76.7,269.7,57.6,268.8,57.6,268.8z"/>
			</g>
			<g>
				<polygon class="st5" points="27.1,266.1 11.3,358.5 23.8,360.4 45.6,270.5 				"/>
			</g>
		</g>
		<g>
			<g>
				<g>
					<path class="st5" d="M46.9,110.7l-0.1,32l13.6,0.7l0.4-7.8c0,0,4.8,1,6.1-3.6c0.8-2.9,0.6-25.3,0.6-25.3L46.9,110.7z"/>
				</g>
				<g>
					<path class="st6" d="M70.6,110c-0.9,1.9-5.3,5.4-5.3,5.4l-2,5.3c-1.7-1.4-4-1.3-4.5,1.8c-0.3,2.2,2.4,2.6,2.4,2.6
						c-1.6,2.7-2.6,4.9-4.9,7.5c-2.5,2.8-3.9,3.1-6.6,3.1h-3c0,0-6.1-5.1-4.9-18.6c1.2-13.5,12.2-10.9,16.1-12.9
						C58.5,103.9,73.7,103.6,70.6,110z"/>
				</g>
			</g>
			<g>
				<path class="st6" d="M41.6,119.7c-2.3-1.3-5.3-1-7.3,0.8c-2,1.7-2.7,4.5-3.2,7.1c-0.5,2.6-0.9,5.3-2.4,7.4
					c-0.4,0.5-0.9,1.1-1,1.7c-0.2,1,0.5,1.9,1.4,2.3c0.9,0.3,2,0.1,2.7-0.5c0.8-0.6,1.3-1.4,1.7-2.3c0,1.6,1.7,3.1,3.3,2.7
					c1.5-0.3,2.5-1.9,3-3.4c0.6-1.8,0.8-3.8,0.7-5.7c-0.1-1.8-0.6-3.5-0.3-5.3c0.3-1.7,1.7-3.5,3.4-3.4"/>
			</g>
			<g>
				<path class="st6" d="M63.3,120.7c0,0,0.7,4-1.1,4.4c-0.8,0.2-1.8-0.2-1.8-0.2l-1.9,4.1c0,0-1.2,5.9,2.2,6.6
					c3.1,0.7,6.4,0.2,6.7-4.8l0.1-3.6c0,0-2.5,0.6-2.7-0.6c-0.2-1.1-0.4-9-0.4-9L63.3,120.7z"/>
			</g>
			<g>
				<g>
					<path class="st6" d="M28.4,131.3c0,0.1-0.5-0.1-1,0.4c-0.3,0.2-0.5,0.6-0.5,1.1c0,0.5,0.4,1,1,1.2c0.6,0.1,1.3-0.2,1.8-0.8
						c0.5-0.6,0.8-1.4,1-2.2c0.4-1.7,0.2-3.7,0.2-5.8c0-1,0.1-2.1,0.5-3c0.3-1,0.9-1.8,1.6-2.4c1.4-1.2,3.1-1.6,4.5-1.6
						c1.4,0.1,2.4,0.5,3.1,0.8c0.3,0.2,0.6,0.3,0.7,0.5c0.2,0.1,0.2,0.2,0.2,0.2c0,0-0.4-0.2-1-0.5c-0.7-0.3-1.7-0.7-3-0.7
						c-1.3,0-2.9,0.4-4.2,1.6c-0.6,0.6-1.2,1.3-1.5,2.2c-0.3,0.9-0.4,1.9-0.5,2.9c0,2,0.2,4.1-0.2,5.9c-0.2,0.9-0.6,1.7-1.1,2.4
						c-0.5,0.6-1.4,1-2.1,0.8c-0.8-0.2-1.2-0.9-1.2-1.4c0-0.6,0.3-1.1,0.6-1.3C27.9,131.1,28.4,131.3,28.4,131.3z"/>
				</g>
			</g>
			<g>
				<g>
					<path class="st6" d="M63.7,110.1c0,0,0.3,0,0.8,0.1c0.5,0,1.2,0,1.9-0.5c0.7-0.4,1.5-1.2,1.6-2.3c0.1-0.5,0-1.1-0.2-1.7
						c-0.3-0.5-0.7-1-1.2-1.4c-1.1-0.7-2.4-0.8-3.5-0.7c-1.1,0.1-2.2,0.4-3,0.6c-1.7,0.5-2.8,0.6-2.8,0.5c0,0,0.3-0.1,0.7-0.2
						c0.5-0.1,1.2-0.3,2-0.6c0.8-0.3,1.9-0.6,3.1-0.7c1.2-0.1,2.6,0,3.8,0.8c0.6,0.4,1.1,0.9,1.4,1.6c0.3,0.6,0.4,1.3,0.2,1.9
						c-0.2,1.2-1,2.2-1.9,2.6c-0.8,0.4-1.6,0.4-2.1,0.3C63.9,110.3,63.7,110.1,63.7,110.1z"/>
				</g>
			</g>
			<g>
				<g>
					<path class="st2" d="M42.6,128.4c0,0,0.1,0,0.4,0c0.2,0,0.6,0,1.1-0.1c0.9-0.2,2.2-0.7,3.5-1.9c1.3-1.1,2.4-2.8,3.5-4.8
						c1.2-1.9,2.4-4.2,4.6-5.7c2.2-1.5,4.8-1.8,6.9-2.2c2.2-0.4,4.2-1,5.5-2.1c1.3-1,2-2.3,2.2-3.2c0.2-0.9,0.1-1.5,0.1-1.5
						c0,0,0.1,0.5-0.1,1.5c-0.2,0.9-0.9,2.3-2.2,3.3c-1.4,1.1-3.3,1.7-5.5,2.1c-2.2,0.4-4.7,0.7-6.9,2.2c-2.1,1.5-3.4,3.7-4.6,5.6
						c-1.1,1.9-2.3,3.7-3.6,4.8c-1.3,1.1-2.6,1.7-3.6,1.8C43.1,128.5,42.6,128.4,42.6,128.4z"/>
				</g>
			</g>
			<g>
				<g>
					<path class="st2" d="M43.9,131.8c0,0,0.1-0.1,0.3-0.2c0.2-0.1,0.4-0.3,0.8-0.5c0.7-0.5,1.6-1.2,2.7-2.2c1-1,2.2-2.4,3.1-4.1
						c1-1.7,1.7-3.8,3.1-5.5c1.5-1.8,3.6-2.5,5.5-3c1.9-0.5,3.6-0.9,4.9-1.5c1.3-0.6,2.3-1.3,2.8-1.9c0.5-0.6,0.7-1,0.8-1
						c0,0-0.2,0.4-0.7,1.1c-0.5,0.6-1.5,1.4-2.8,2c-1.3,0.6-3.1,1-4.9,1.5c-1.8,0.5-3.9,1.2-5.4,3c-1.4,1.7-2.1,3.8-3.1,5.5
						c-1,1.7-2.1,3.1-3.1,4.1c-1.1,1-2,1.7-2.7,2.2C44.3,131.6,43.9,131.8,43.9,131.8z"/>
				</g>
			</g>
			<g>
				<g>
					<path class="st2" d="M34.9,138c0,0,0.2-0.3,0.4-0.8c0.2-0.5,0.5-1.3,0.6-2.3c0.1-1,0-2.2-0.3-3.5c-0.3-1.3-0.7-2.8-0.8-4.3
						c-0.1-1.6,0.1-3.1,0.9-4.3c0.7-1.2,1.9-1.8,2.8-2.1c1-0.3,1.8-0.3,2.4-0.2c0.6,0.1,0.8,0.3,0.8,0.3c0,0-0.3-0.1-0.9-0.2
						c-0.6-0.1-1.4-0.1-2.3,0.2c-0.9,0.3-2,1-2.7,2.1c-0.7,1.1-0.9,2.7-0.8,4.2c0.1,1.5,0.5,3,0.8,4.3c0.3,1.3,0.4,2.6,0.3,3.6
						c-0.1,1-0.4,1.8-0.7,2.3C35.2,137.8,34.9,138,34.9,138z"/>
				</g>
			</g>
			<g>
				<g>
					<path class="st2" d="M29.4,138.8c0,0,0.4,0.1,0.9-0.3c0.5-0.4,1-1.2,1.4-2.3c0.4-1.1,0.6-2.5,0.8-4c0.2-1.5,0.2-3.2,0.5-5
						c0.3-1.8,0.8-3.4,1.7-4.7c0.9-1.3,2.1-2.1,3.2-2.4c1.1-0.3,2.1-0.2,2.7,0c0.6,0.2,0.9,0.4,0.9,0.4c0,0-0.3-0.2-0.9-0.4
						c-0.6-0.2-1.6-0.3-2.7,0.1c-1.1,0.3-2.3,1.1-3.1,2.4c-0.9,1.3-1.4,2.9-1.7,4.6c-0.3,1.8-0.3,3.4-0.5,5c-0.2,1.5-0.4,2.9-0.8,4
						c-0.4,1.1-0.9,2-1.5,2.3C29.8,139,29.4,138.8,29.4,138.8z"/>
				</g>
			</g>
			<g>
				<g>
					<path class="st8" d="M41.7,122.6c-0.1,0-0.3-0.8-0.5-1.8c-0.1-0.7-0.1-1.4-0.1-1.7l0.1,0.1c0.1,0,0,0,0,0c0,0,0,0,0,0
						c0,0,0,0-0.1,0c0,0-0.1-0.2,0.1-0.2l0,0l0,0.1c0.1,0.3,0.2,0.9,0.3,1.6C41.8,121.7,41.8,122.6,41.7,122.6z"/>
				</g>
			</g>
		</g>
		<g>
			<g>
				<polygon class="st8" points="33.2,212.9 19.3,282.5 44.6,286.9 53.7,236.9 57.6,286.9 81,283.5 75,209.4 				"/>
			</g>
			<g>
				<g>
					<path class="st6" d="M67.7,236c0,0-0.4,0.1-1.1,0.1c-0.8,0.1-1.8,0.1-3,0.2c-2.5,0.2-6,0.5-9.8,0.8c-3.8,0.4-7.3,0.8-9.8,1.1
						c-1.2,0.1-2.2,0.3-3,0.4c-0.7,0.1-1.1,0.1-1.1,0.1c0,0,0.4-0.1,1.1-0.3c0.7-0.1,1.7-0.3,2.9-0.5c2.5-0.4,5.9-0.9,9.8-1.2
						c3.8-0.4,7.3-0.6,9.8-0.7c1.3-0.1,2.3-0.1,3-0.1C67.3,235.9,67.7,235.9,67.7,236z"/>
				</g>
			</g>
			<g>
				<g>
					<g>
						<path class="st8" d="M78.3,250.3c0,0.3,3.6,5.9,3.6,5.9l-1.8,0.8c0,0,4,5.5-0.3,12.6L78.3,250.3z"/>
					</g>
					<g>
						<path class="st8" d="M27.4,246.2c-0.3,0.2-4.5,6.8-4.5,6.8h0.8c0,0-4.9,6.3-1.1,12.6L27.4,246.2z"/>
					</g>
				</g>
				<g class="st9">
					<g>
						<path d="M78.3,250.3c0,0.3,3.6,5.9,3.6,5.9l-1.8,0.8c0,0,4,5.5-0.3,12.6L78.3,250.3z"/>
					</g>
					<g>
						<path d="M27.4,246.2c-0.3,0.2-4.5,6.8-4.5,6.8h0.8c0,0-4.9,6.3-1.1,12.6L27.4,246.2z"/>
					</g>
				</g>
			</g>
			<g>
				<g>
					<path class="st6" d="M81,279.1c0,0-0.3,0.1-0.9,0.2c-0.7,0.1-1.5,0.2-2.5,0.4c-2.2,0.3-5.1,0.7-8.3,1.1
						c-3.2,0.5-6.1,0.9-8.3,1.2c-1,0.1-1.8,0.3-2.5,0.4c-0.6,0.1-0.9,0.1-0.9,0.1c0,0,0.3-0.1,0.9-0.3c0.6-0.1,1.4-0.3,2.5-0.5
						c2.1-0.4,5-0.9,8.3-1.4c3.3-0.5,6.2-0.8,8.3-1c1.1-0.1,1.9-0.2,2.5-0.2C80.6,279.1,81,279.1,81,279.1z"/>
				</g>
			</g>
			<g>
				<g>
					<path class="st6" d="M45,283.8c0,0-0.4,0-1-0.2c-0.7-0.2-1.6-0.3-2.7-0.6c-2.3-0.5-5.4-1.2-8.8-1.9c-3.4-0.7-6.4-1.4-8.8-1.8
						c-1.1-0.2-1.9-0.4-2.7-0.6c-0.6-0.1-1-0.2-1-0.3c0,0,0.4,0,1,0.1c0.6,0.1,1.6,0.2,2.7,0.4c2.3,0.4,5.4,1,8.8,1.7
						c3.4,0.7,6.5,1.5,8.8,2c1.1,0.3,2,0.5,2.6,0.7C44.7,283.6,45,283.7,45,283.8z"/>
				</g>
			</g>
			<g>
				<g>
					<g>
						<path class="st6" d="M51.5,238.7c-0.1,0-0.2-0.3-0.1-0.7c0.1-0.3,0.2-0.6,0.4-0.6c0.1,0,0.2,0.3,0.1,0.7
							C51.8,238.5,51.7,238.7,51.5,238.7z"/>
					</g>
				</g>
				<g>
					<g>
						<path class="st6" d="M50.5,243.8c-0.1,0-0.1-0.6,0.1-1.3c0.2-0.7,0.4-1.3,0.5-1.2c0.1,0,0.1,0.6-0.1,1.3
							C50.8,243.3,50.6,243.9,50.5,243.8z"/>
					</g>
				</g>
				<g>
					<g>
						<path class="st6" d="M49.4,248.9c-0.1,0-0.1-0.6,0.1-1.3c0.2-0.7,0.4-1.3,0.5-1.2c0.1,0,0.1,0.6-0.1,1.3
							C49.7,248.4,49.5,249,49.4,248.9z"/>
					</g>
				</g>
				<g>
					<g>
						<path class="st6" d="M48.3,254c-0.1,0-0.1-0.6,0.1-1.3c0.2-0.7,0.4-1.3,0.5-1.2c0.1,0,0.1,0.6-0.1,1.3
							C48.6,253.5,48.4,254.1,48.3,254z"/>
					</g>
				</g>
				<g>
					<g>
						<path class="st6" d="M47.2,259.2c-0.1,0-0.1-0.6,0.1-1.3c0.2-0.7,0.4-1.3,0.5-1.2c0.1,0,0.1,0.6-0.1,1.3
							C47.5,258.6,47.3,259.2,47.2,259.2z"/>
					</g>
				</g>
				<g>
					<g>
						<path class="st6" d="M46.1,264.3c-0.1,0-0.1-0.6,0.1-1.3c0.2-0.7,0.4-1.3,0.5-1.2c0.1,0,0.1,0.6-0.1,1.3
							C46.4,263.7,46.2,264.3,46.1,264.3z"/>
					</g>
				</g>
				<g>
					<g>
						<path class="st6" d="M45,269.4c-0.1,0-0.1-0.6,0.1-1.3c0.2-0.7,0.4-1.3,0.5-1.2c0.1,0,0.1,0.6-0.1,1.3
							C45.3,268.8,45.1,269.4,45,269.4z"/>
					</g>
				</g>
				<g>
					<g>
						<path class="st6" d="M43.9,274.5c-0.1,0-0.1-0.6,0.1-1.3c0.2-0.7,0.4-1.3,0.5-1.2c0.1,0,0.1,0.6-0.1,1.3
							C44.2,274,44,274.5,43.9,274.5z"/>
					</g>
				</g>
				<g>
					<g>
						<path class="st6" d="M42.8,279.6c-0.1,0-0.1-0.6,0.1-1.3c0.2-0.7,0.4-1.3,0.5-1.2c0.1,0,0.1,0.6-0.1,1.3
							C43.1,279.1,42.9,279.6,42.8,279.6z"/>
					</g>
				</g>
				<g>
					<g>
						<path class="st6" d="M41.9,283.4c-0.1,0-0.2-0.3-0.1-0.7c0.1-0.3,0.2-0.6,0.4-0.6c0.1,0,0.2,0.3,0.1,0.7
							C42.2,283.2,42.1,283.4,41.9,283.4z"/>
					</g>
				</g>
			</g>
			<g>
				<g>
					<g>
						<path class="st6" d="M73.5,215.8c-0.1,0-0.2-0.3-0.3-0.6c0-0.4,0.1-0.7,0.2-0.7c0.1,0,0.2,0.3,0.3,0.6
							C73.7,215.5,73.6,215.8,73.5,215.8z"/>
					</g>
				</g>
				<g>
					<g>
						<path class="st6" d="M73.8,220.9c-0.1,0-0.3-0.6-0.3-1.2c0-0.7,0-1.3,0.1-1.3c0.1,0,0.3,0.6,0.3,1.2
							C74,220.3,74,220.9,73.8,220.9z"/>
					</g>
				</g>
				<g>
					<g>
						<path class="st6" d="M74.2,225.9c-0.1,0-0.3-0.6-0.3-1.2c-0.1-0.7,0-1.3,0.1-1.3c0.1,0,0.3,0.5,0.3,1.2
							C74.4,225.4,74.3,225.9,74.2,225.9z"/>
					</g>
				</g>
				<g>
					<g>
						<path class="st6" d="M74.6,231c-0.1,0-0.3-0.5-0.3-1.2c-0.1-0.7,0-1.3,0.1-1.3c0.1,0,0.3,0.5,0.3,1.2
							C74.8,230.4,74.7,231,74.6,231z"/>
					</g>
				</g>
				<g>
					<g>
						<path class="st6" d="M75,236.1c-0.1,0-0.3-0.5-0.3-1.2c-0.1-0.7,0-1.3,0.1-1.3c0.1,0,0.3,0.5,0.3,1.2
							C75.2,235.5,75.1,236,75,236.1z"/>
					</g>
				</g>
				<g>
					<g>
						<path class="st6" d="M75.4,241.1c-0.1,0-0.3-0.5-0.3-1.2c-0.1-0.7,0-1.3,0.1-1.3c0.1,0,0.3,0.5,0.3,1.2
							C75.6,240.5,75.5,241.1,75.4,241.1z"/>
					</g>
				</g>
				<g>
					<g>
						<path class="st6" d="M75.8,246.2c-0.1,0-0.3-0.5-0.3-1.2c-0.1-0.7,0-1.3,0.1-1.3c0.1,0,0.3,0.5,0.3,1.2
							C76,245.6,76,246.2,75.8,246.2z"/>
					</g>
				</g>
				<g>
					<g>
						<path class="st6" d="M76.3,251.2c-0.1,0-0.3-0.5-0.3-1.2c-0.1-0.7,0-1.3,0.1-1.3c0.1,0,0.3,0.5,0.3,1.2
							C76.5,250.6,76.4,251.2,76.3,251.2z"/>
					</g>
				</g>
				<g>
					<g>
						<path class="st6" d="M76.8,256.3c-0.1,0-0.3-0.5-0.3-1.2c-0.1-0.7,0-1.3,0.1-1.3s0.3,0.5,0.3,1.2
							C76.9,255.7,76.9,256.3,76.8,256.3z"/>
					</g>
				</g>
				<g>
					<g>
						<path class="st6" d="M77.3,261.3c-0.1,0-0.3-0.5-0.3-1.2c-0.1-0.7,0-1.3,0.1-1.3c0.1,0,0.3,0.5,0.3,1.2
							C77.4,260.7,77.4,261.3,77.3,261.3z"/>
					</g>
				</g>
				<g>
					<g>
						<path class="st6" d="M77.8,266.4c-0.1,0-0.3-0.5-0.4-1.2c-0.1-0.7,0-1.3,0.1-1.3c0.1,0,0.3,0.5,0.4,1.2
							C78,265.8,77.9,266.3,77.8,266.4z"/>
					</g>
				</g>
				<g>
					<g>
						<path class="st6" d="M78.3,271.4c-0.1,0-0.3-0.5-0.4-1.2c-0.1-0.7,0-1.3,0.1-1.3c0.1,0,0.3,0.5,0.4,1.2
							C78.5,270.8,78.4,271.4,78.3,271.4z"/>
					</g>
				</g>
				<g>
					<g>
						<path class="st6" d="M78.9,276.5c-0.1,0-0.3-0.5-0.4-1.2c-0.1-0.7,0-1.3,0.1-1.3c0.1,0,0.3,0.5,0.4,1.2
							C79,275.9,79,276.4,78.9,276.5z"/>
					</g>
				</g>
				<g>
					<g>
						<path class="st6" d="M79.3,280.3c-0.1,0-0.3-0.3-0.3-0.6c0-0.4,0-0.7,0.1-0.7c0.1,0,0.3,0.3,0.3,0.6
							C79.5,279.9,79.4,280.2,79.3,280.3z"/>
					</g>
				</g>
			</g>
		</g>
		<g>
			<g>
				<polygon class="st10" points="11.5,355.8 13.8,343.7 27.6,346.2 24.3,358.4 				"/>
			</g>
			<g>
				<g>
					<polygon class="st7" points="11.5,355.8 9.4,365.3 24,367.1 24.5,357.7 					"/>
				</g>
				<g>
					<g>
						<path class="st6" d="M18.1,356.2c0.1,0-0.1,2-0.5,4.4c-0.4,2.4-0.8,4.3-0.9,4.3c-0.1,0,0.1-2,0.5-4.4
							C17.6,358.1,18,356.2,18.1,356.2z"/>
					</g>
				</g>
				<g>
					<g>
						<path class="st6" d="M24.1,366c0,0.1-0.8-0.1-2.1-0.3c-1.5-0.2-3.2-0.5-5.1-0.8c-2-0.3-3.8-0.7-5-1c-1.3-0.3-2.1-0.5-2.1-0.6
							c0-0.1,0.8,0.1,2.1,0.3c1.5,0.2,3.2,0.5,5.1,0.8c2,0.3,3.8,0.7,5,1C23.3,365.8,24.1,366,24.1,366z"/>
					</g>
				</g>
			</g>
			<g>
				<g>
					<path class="st6" d="M27,348.2c0,0.1-0.8,0-2-0.2c-1.2-0.2-2.9-0.5-4.8-0.9c-1.8-0.3-3.4-0.7-4.8-0.9c-1.2-0.2-2-0.4-2-0.5
						c0-0.1,0.8,0,2,0.1c1.2,0.2,2.9,0.4,4.8,0.8c1.9,0.4,3.6,0.7,4.8,1C26.3,347.9,27.1,348.1,27,348.2z"/>
				</g>
			</g>
			<g>
				<g>
					<path class="st8" d="M26.5,349.7c0,0.1-0.8,0-2-0.2c-1.2-0.2-2.9-0.4-4.8-0.8c-1.9-0.3-3.5-0.6-4.8-0.9s-2-0.4-2-0.5
						c0-0.1,0.8,0,2,0.2c1.2,0.2,2.9,0.4,4.8,0.8c1.9,0.3,3.5,0.6,4.8,0.9C25.7,349.4,26.5,349.6,26.5,349.7z"/>
				</g>
			</g>
		</g>
		<g>
			<g>
				<path class="st10" d="M63.7,364c-0.2-1.1-0.9-15.5-0.9-15.5l15.3-1.2l0.5,15L63.7,364z"/>
			</g>
			<g>
				<g>
					<g>
						<g>
							<g>
								<g>
									<path class="st7" d="M79.7,363.6l-0.2-1.7l-15.8,2l0.7,5.6l1-0.1c4.4-0.3,22.2-1.9,25-3.1C93.4,365,79.7,363.6,79.7,363.6z
										"/>
								</g>
							</g>
						</g>
						<g>
							<g>
								<g>
									<path class="st7" d="M70,368.7c-0.4-1.3-1.3-2.4-2.4-3.1c-1.2-0.7-2.5-1-3.8-0.7l0.5,4.4L70,368.7z"/>
								</g>
							</g>
						</g>
					</g>
					<g>
						<g>
							<g>
								<path class="st7" d="M86.4,364.5c0,0,4.8,0.8,4.4,1.6c-0.5,0.9-18.4,3.1-26.4,3.4l0-0.4l21-2.4
									C85.3,366.8,85.5,364.7,86.4,364.5z"/>
							</g>
						</g>
					</g>
					<g>
						<g>
							<g>
								<g>
									<path class="st6" d="M64.1,369.2c0,0,0.1,0,0.3,0c0.2,0,0.5,0,0.8-0.1c0.8-0.1,1.7-0.1,2.9-0.2c2.4-0.2,5.8-0.6,9.5-1
										c3.7-0.5,7-1,9.4-1.3c1.1-0.2,2.1-0.3,2.8-0.5c0.3-0.1,0.5-0.1,0.8-0.1c0.2,0,0.3-0.1,0.3-0.1c0,0-0.1,0-0.3,0
										c-0.2,0-0.5,0.1-0.8,0.1c-0.8,0.1-1.7,0.3-2.9,0.4c-2.4,0.4-5.7,0.8-9.4,1.3c-3.7,0.5-7,0.8-9.4,1.1
										c-1.1,0.1-2.1,0.2-2.9,0.3c-0.3,0-0.5,0.1-0.8,0.1C64.2,369.2,64.1,369.2,64.1,369.2z"/>
								</g>
							</g>
						</g>
					</g>
					<g>
						<g>
							<g>
								<g>
									<path class="st6" d="M85.3,367c0.1,0,0-0.7,0.4-1.4c0.3-0.8,0.9-1.2,0.8-1.2c0,0-0.7,0.3-1,1.1
										C85.1,366.3,85.3,367,85.3,367z"/>
								</g>
							</g>
						</g>
					</g>
					<g>
						<g>
							<g>
								<g>
									<path class="st6" d="M80.4,365.2c0,0,0.2-0.3,0.4-0.7c0.2-0.4,0.3-0.7,0.2-0.8c0,0-0.2,0.3-0.4,0.7
										C80.4,364.8,80.3,365.2,80.4,365.2z"/>
								</g>
							</g>
						</g>
					</g>
					<g>
						<g>
							<g>
								<g>
									<path class="st6" d="M79,364.7c0,0,0.3-0.2,0.5-0.4c0.2-0.3,0.4-0.5,0.4-0.6c0,0-0.3,0.2-0.5,0.4
										C79.1,364.4,79,364.7,79,364.7z"/>
								</g>
							</g>
						</g>
					</g>
					<g>
						<g>
							<g>
								<g>
									<path class="st6" d="M78,363.3c0,0.1,0.4,0.1,0.8,0c0.5-0.1,0.8-0.1,0.8-0.2c0-0.1-0.4-0.1-0.8,0
										C78.4,363.2,78,363.2,78,363.3z"/>
								</g>
							</g>
						</g>
					</g>
					<g>
						<g>
							<g>
								<g>
									<path class="st6" d="M77.6,362.3c0,0,0.4,0.2,0.9,0.2c0.5,0,0.9-0.2,0.9-0.2c0-0.1-0.4,0-0.9,0.1
										C78.1,362.3,77.6,362.2,77.6,362.3z"/>
								</g>
							</g>
						</g>
					</g>
					<g>
						<g>
							<g>
								<g>
									<path class="st6" d="M80.7,363.8c0,0,0.4,0,1-0.1c0.3-0.1,0.7-0.2,1-0.4c0.2-0.1,0.4-0.2,0.6-0.3c0.1-0.1,0.2-0.2,0.2-0.3
										c0-0.2-0.1-0.3-0.2-0.4c-1-0.4-1.9,0.3-2.2,0.8c-0.2,0.3-0.2,0.5-0.2,0.7c0,0.2,0,0.3,0,0.3c0,0,0-0.4,0.4-0.9
										c0.2-0.3,0.4-0.5,0.8-0.7c0.3-0.2,0.8-0.2,1.2-0.1c0.2,0.1,0.1,0.3,0,0.4c-0.2,0.1-0.4,0.2-0.5,0.3c-0.4,0.2-0.7,0.3-1,0.4
										C81.1,363.7,80.7,363.7,80.7,363.8z"/>
								</g>
							</g>
						</g>
					</g>
					<g>
						<g>
							<g>
								<g>
									<path class="st6" d="M81,363.8c0,0,0.1-0.3,0-0.7c-0.1-0.2-0.2-0.5-0.4-0.7c-0.2-0.2-0.5-0.5-0.9-0.4
										c-0.2,0.1-0.3,0.3-0.3,0.5c0,0.2,0.1,0.3,0.2,0.4c0.2,0.2,0.4,0.4,0.6,0.6C80.6,363.7,80.9,363.8,81,363.8
										c-0.1,0-0.3-0.2-0.6-0.5c-0.2-0.1-0.3-0.3-0.5-0.6c-0.2-0.2-0.3-0.6-0.1-0.7c0.2-0.1,0.5,0.2,0.7,0.3
										c0.2,0.2,0.3,0.4,0.4,0.6C81,363.5,81,363.8,81,363.8z"/>
								</g>
							</g>
						</g>
					</g>
					<g>
						<g>
							<g>
								<g>
									<path class="st6" d="M63.9,364.8c0,0,0.4-0.1,1.2-0.1c0.7,0,1.7,0.2,2.7,0.7c0.9,0.6,1.5,1.4,1.9,2.1
										c0.3,0.6,0.4,1.1,0.4,1.1c0,0,0-0.1,0-0.3c0-0.2-0.1-0.5-0.3-0.8c-0.3-0.7-0.9-1.6-1.9-2.2c-1-0.6-2-0.8-2.8-0.7
										c-0.4,0-0.7,0.1-0.9,0.1C64,364.8,63.9,364.8,63.9,364.8z"/>
								</g>
							</g>
						</g>
					</g>
					<g>
						<g>
							<g>
								<g>
									<path class="st6" d="M71.8,366.9c0,0.1,1,0.1,2.3-0.1c1.3-0.1,2.3-0.4,2.3-0.5c0-0.1-1,0.1-2.3,0.3
										C72.8,366.8,71.8,366.9,71.8,366.9z"/>
								</g>
							</g>
						</g>
					</g>
					<g>
						<g>
							<g>
								<g>
									<path class="st6" d="M68.7,367.3c0,0,0.1,0.2,0.2,0.4c0.1,0.2,0.2,0.4,0.3,0.4c0.1,0,0-0.3-0.1-0.5
										C69,367.4,68.8,367.3,68.7,367.3z"/>
								</g>
							</g>
						</g>
					</g>
					<g>
						<g>
							<g>
								<g>
									<path class="st6" d="M67.4,366c0,0,0.1,0.2,0.3,0.3c0.2,0.1,0.4,0.2,0.4,0.2c0,0-0.1-0.2-0.3-0.3
										C67.6,366,67.4,366,67.4,366z"/>
								</g>
							</g>
						</g>
					</g>
					<g>
						<g>
							<g>
								<g>
									<path class="st6" d="M65.6,365.5c0,0.1,0.2,0,0.5,0.1c0.2,0,0.4,0.2,0.5,0.1c0,0-0.1-0.2-0.4-0.3
										C65.9,365.4,65.6,365.5,65.6,365.5z"/>
								</g>
							</g>
						</g>
					</g>
					<g>
						<g>
							<g>
								<g>
									<path class="st6" d="M64.4,365.4c0,0.1,0.1,0.1,0.2,0.2c0.1,0,0.3,0,0.3,0c0-0.1-0.1-0.1-0.2-0.2
										C64.6,365.3,64.4,365.3,64.4,365.4z"/>
								</g>
							</g>
						</g>
					</g>
				</g>
			</g>
			<g>
				<g>
					<path class="st6" d="M77.8,349.8c0,0.1-3.4,0.4-7.6,0.6c-4.2,0.2-7.6,0.3-7.6,0.2c0-0.1,3.4-0.4,7.6-0.6
						C74.4,349.8,77.8,349.7,77.8,349.8z"/>
				</g>
			</g>
			<g>
				<g>
					<path class="st8" d="M77.8,351.7c0,0.1-3.3,0.4-7.4,0.7c-4.1,0.2-7.5,0.3-7.5,0.2c0-0.1,3.3-0.4,7.4-0.7
						C74.5,351.7,77.8,351.6,77.8,351.7z"/>
				</g>
			</g>
		</g>
		<g>
			<g>
				<g>
					<path class="st7" d="M31,182.2l1,19l0.2,16.7l43.5-3.2L73.8,184c-0.3-7.2-0.4-14.6-0.6-21.3c3-1.1,30.6-11.7,32.5-11.9
						c2-0.3,20.1-34,20.1-34c0.6-4-10.3-6.6-10.3-6.6s-16.9,25.7-18.3,27.1c-1.4,1.4-27.9,4.2-27.9,4.2c-8.1-1.8-28.7-2.1-33.7,1.5
						C35.6,143.1,24.4,148.7,31,182.2z"/>
				</g>
				<g>
					<g>
						<path class="st6" d="M99.5,143.1c-0.1,0.1-0.8-1.2-1.4-2.8c-0.6-1.6-1.1-2.9-1-3c0.1-0.1,0.8,1.2,1.4,2.8
							C99.1,141.8,99.6,143.1,99.5,143.1z"/>
					</g>
				</g>
				<g>
					<g>
						<path class="st6" d="M101.4,140.9c-0.1,0.1-1-0.7-2.3-1.6c-1.2-0.9-2.1-1.9-2-2c0.1-0.1,1,0.7,2.3,1.6
							C100.6,139.9,101.5,140.8,101.4,140.9z"/>
					</g>
				</g>
				<g>
					<g>
						<path class="st6" d="M73.6,141.2c0,0.1-1,0.1-2.5,0.6c-1.5,0.5-3.5,1.7-5,3.7c-1.4,2-1.9,4.3-1.8,5.9c0,1.6,0.3,2.6,0.3,2.6
							c0,0-0.1-0.2-0.3-0.7c-0.1-0.4-0.3-1.1-0.3-1.9c-0.1-1.6,0.3-4.1,1.8-6.2c1.5-2.1,3.6-3.3,5.2-3.7c0.8-0.2,1.5-0.3,1.9-0.3
							C73.3,141.2,73.6,141.2,73.6,141.2z"/>
					</g>
				</g>
				<g>
					<g>
						<path class="st6" d="M60.6,140.6c0,0.1-3.1,0.2-6.9,0.3c-3.8,0-6.9,0-6.9-0.2c0-0.1,3.1-0.2,6.9-0.3
							C57.5,140.4,60.6,140.5,60.6,140.6z"/>
					</g>
				</g>
			</g>
			<g>
				<g>
					<g>
						<path class="st6" d="M54,156.9c0,0,0.1,0.2,0.3,0.7c0.2,0.4,0.5,1.1,1.1,1.7c0.3,0.3,0.7,0.6,1.3,0.7c0.5,0.1,1.1,0,1.6-0.4
							c0.5-0.4,0.9-0.9,1.6-1.3c0.6-0.4,1.5-0.6,2.3-0.4c0.8,0.2,1.6,0.6,2.2,1.4c0.6,0.7,0.8,1.7,0.7,2.7c-0.1,1-0.5,2-1.2,2.7
							c-0.7,0.8-1.7,1.3-2.6,1.8c-0.9,0.5-1.8,1.2-2.2,2.2c-0.4,1-0.3,2.1-0.4,3.3c0,0.6-0.2,1.2-0.4,1.8c-0.3,0.6-0.7,1.1-1.1,1.5
							c-1,0.8-2.4,1.1-3.6,0.7c-0.6-0.2-1.2-0.5-1.7-1c-0.5-0.4-0.8-1-1.1-1.5c-0.5-1.1-1-2.2-2.1-2.5c-1-0.3-2.1,0.3-3.3,0.3
							c-1.2,0-2.3-0.8-2.7-1.9c-0.5-1.1-0.2-2.3,0.5-3.1c0.3-0.4,0.8-0.7,1.3-0.9c0.5-0.2,1-0.3,1.4-0.4c0.4-0.1,0.9-0.3,1.2-0.5
							c0.3-0.2,0.6-0.6,0.6-1c0.2-0.8-0.2-1.6-0.3-2.4c-0.4-1.7,0.4-3.2,1.4-4.1c1-0.9,2.3-1,3.1-0.9c0.9,0.2,1.5,0.5,1.9,0.8
							c0.4,0.3,0.5,0.5,0.5,0.5c0,0-0.2-0.2-0.6-0.5c-0.4-0.3-1-0.6-1.9-0.7c-0.9-0.1-2,0-3,0.9c-0.9,0.8-1.6,2.3-1.3,3.8
							c0.1,0.8,0.5,1.6,0.3,2.6c-0.1,0.5-0.4,0.9-0.8,1.2c-0.4,0.3-0.9,0.4-1.3,0.6c-0.9,0.2-1.9,0.4-2.5,1.2
							c-0.6,0.7-0.8,1.8-0.4,2.7c0.4,0.9,1.3,1.6,2.4,1.6c1,0,2.1-0.6,3.4-0.3c0.6,0.2,1.1,0.6,1.5,1.1c0.3,0.5,0.6,1.1,0.9,1.6
							c0.3,0.5,0.6,1,1,1.4c0.4,0.4,0.9,0.7,1.5,0.8c1.1,0.3,2.3,0.1,3.2-0.6c0.4-0.4,0.8-0.8,1-1.3c0.2-0.5,0.3-1.1,0.4-1.6
							c0.1-1.1,0-2.3,0.5-3.4c0.5-1.1,1.5-1.8,2.4-2.4c0.9-0.5,1.8-1,2.5-1.7c0.7-0.7,1.1-1.6,1.2-2.5c0.1-0.9-0.1-1.8-0.6-2.5
							c-0.5-0.7-1.2-1.1-2-1.3c-0.7-0.2-1.5-0.1-2.1,0.3c-0.6,0.4-1,0.9-1.6,1.3c-0.5,0.4-1.2,0.6-1.8,0.4c-0.6-0.1-1-0.4-1.3-0.8
							c-0.6-0.7-0.9-1.4-1.1-1.8c-0.1-0.2-0.1-0.4-0.2-0.5C54,157,54,156.9,54,156.9z"/>
					</g>
				</g>
				<g>
					<g>
						<path class="st6" d="M74.9,195.7c0,0-0.1,0.1-0.4,0.1c-0.2,0-0.6,0-1.1-0.1c-0.5-0.1-1-0.3-1.6-0.7c-0.6-0.4-1-1.1-1.4-1.8
							c-0.4-0.7-0.8-1.6-1.5-2.2c-0.8-0.6-1.8-0.3-2.9,0c-0.6,0.1-1.2,0.1-1.8-0.1c-0.6-0.2-1.1-0.6-1.5-1.1
							c-0.4-0.5-0.6-1.2-0.6-1.9c0-0.7,0.3-1.3,0.7-1.9c0.4-0.6,1.1-0.9,1.7-1.1c0.6-0.2,1.2-0.3,1.7-0.5c0.5-0.2,0.9-0.6,1.1-1.1
							c0.1-0.5,0.1-1.1-0.1-1.6c-0.1-0.5-0.3-1.1-0.3-1.6c0-0.6,0.1-1.1,0.2-1.6c0.4-1,1-1.7,1.8-2.2c0.8-0.5,1.6-0.6,2.3-0.5
							c0.7,0.1,1.3,0.3,1.7,0.5c0.4,0.2,0.7,0.5,0.9,0.7c0.2,0.2,0.2,0.3,0.2,0.3c0,0-0.4-0.4-1.2-0.8c-0.4-0.2-1-0.4-1.6-0.4
							c-0.6,0-1.4,0.1-2.1,0.5c-0.7,0.4-1.3,1.1-1.6,2c-0.2,0.4-0.2,0.9-0.2,1.4c0,0.5,0.2,1,0.3,1.6c0.1,0.5,0.2,1.2,0.1,1.8
							c-0.2,0.6-0.7,1.2-1.3,1.4c-1.2,0.5-2.5,0.5-3.3,1.5c-0.8,0.9-0.8,2.3-0.1,3.2c0.3,0.5,0.8,0.8,1.3,1c0.5,0.2,1,0.2,1.6,0.1
							c0.5-0.1,1.1-0.2,1.6-0.3c0.6,0,1.1,0.1,1.6,0.4c0.9,0.6,1.2,1.6,1.6,2.3c0.4,0.8,0.8,1.4,1.3,1.8c0.5,0.4,1,0.6,1.5,0.8
							C74.3,195.7,74.9,195.6,74.9,195.7z"/>
					</g>
				</g>
				<g>
					<g>
						<path class="st6" d="M34.6,143.6c0-0.1,0.4,0.5,1.3,0.8c0.5,0.1,1.1,0.1,1.6-0.3c0.6-0.4,1-1.1,1.9-1.5c0.8-0.5,2-0.5,3,0
							c0.5,0.2,1,0.6,1.3,1c0.4,0.5,0.6,1,0.7,1.7c0.2,1.2-0.2,2.6-1,3.7c-0.9,1.1-2.1,1.6-3.2,2.4c-0.6,0.4-1.1,0.8-1.4,1.3
							c-0.4,0.5-0.5,1.1-0.6,1.7c-0.2,1.2,0,2.5-0.5,3.7c-0.5,1.2-1.4,2-2.5,2.4c-1,0.4-2.1,0.2-3-0.2c-0.8-0.4-1.5-1-1.7-1.8
							c-0.2-0.7,0-1.4,0-1.8c0-0.5-0.1-0.8-0.3-1c-0.2-0.2-0.3-0.2-0.3-0.2c0,0,0.1,0,0.4,0.2c0.2,0.1,0.5,0.5,0.5,1.1
							c0,0.5-0.1,1.1,0.1,1.8c0.2,0.6,0.8,1.2,1.6,1.6c0.8,0.4,1.8,0.5,2.7,0.1c0.9-0.3,1.8-1.1,2.2-2.2c0.4-1.1,0.3-2.3,0.4-3.6
							c0.1-0.7,0.3-1.4,0.7-1.9c0.4-0.6,1-1,1.5-1.4c1.2-0.7,2.4-1.3,3.1-2.3c0.8-1,1.1-2.2,0.9-3.3c-0.1-0.6-0.3-1.1-0.6-1.5
							c-0.3-0.4-0.7-0.7-1.2-0.9c-0.9-0.4-1.9-0.4-2.6,0c-0.7,0.4-1.3,1.1-1.9,1.5c-0.6,0.4-1.3,0.4-1.8,0.3c-0.5-0.2-0.8-0.4-1-0.6
							C34.7,143.7,34.6,143.6,34.6,143.6z"/>
					</g>
				</g>
				<g>
					<g>
						<path class="st6" d="M88.7,144.2c0,0,0.2,0.3,0.4,0.9c0.3,0.5,0.7,1.4,1.6,1.9c0.4,0.2,1,0.4,1.6,0.1c0.6-0.2,1-0.7,1.6-1.2
							c0.5-0.5,1.3-0.9,2.2-0.9c0.8,0,1.7,0.3,2.4,0.9c0.7,0.6,1.1,1.4,1.3,2.2c0.1,0.8,0,1.6-0.3,2.4c-0.3,0.7-0.7,1.3-1.2,1.8
							c-0.5,0.5-1.1,0.7-1.6,1c-1,0.4-1.8,0.8-2.3,1.2c-0.4,0.4-0.6,0.7-0.6,0.7c0,0,0-0.1,0.1-0.2c0.1-0.1,0.2-0.4,0.4-0.6
							c0.4-0.5,1.3-0.9,2.2-1.4c0.5-0.2,1-0.5,1.4-1c0.4-0.4,0.8-1,1.1-1.6c0.2-0.7,0.4-1.4,0.2-2.1c-0.1-0.7-0.5-1.5-1.1-1.9
							c-0.6-0.5-1.4-0.8-2.1-0.8c-0.7,0-1.4,0.3-1.9,0.8c-0.5,0.5-1,1-1.7,1.3c-0.7,0.3-1.4,0.1-1.9-0.2c-1-0.6-1.4-1.5-1.6-2.1
							C88.8,144.5,88.7,144.2,88.7,144.2z"/>
					</g>
				</g>
				<g>
					<g>
						<path class="st6" d="M110.9,117.3c0,0-0.1,0.3-0.4,0.9c-0.3,0.5-0.7,1.4-0.5,2.4c0.1,0.5,0.3,1.1,0.8,1.4
							c0.5,0.3,1.2,0.4,1.9,0.5c0.7,0.1,1.5,0.5,2,1.2c0.5,0.7,0.8,1.6,0.7,2.4c0,0.9-0.4,1.7-1,2.3c-0.6,0.6-1.3,1-2,1.2
							c-0.7,0.2-1.5,0.2-2.1,0.1c-0.7-0.1-1.2-0.4-1.7-0.7c-0.9-0.6-1.7-1-2.3-1.1c-0.6-0.1-0.9-0.1-0.9-0.1c0,0,0.1,0,0.2-0.1
							c0.2,0,0.4,0,0.7,0c0.6,0.1,1.5,0.5,2.4,1c0.5,0.3,1,0.5,1.6,0.6c0.6,0.1,1.3,0.1,1.9-0.1c0.7-0.2,1.3-0.5,1.8-1.1
							c0.5-0.5,0.9-1.3,0.9-2.1c0-0.8-0.2-1.6-0.6-2.2c-0.4-0.6-1.1-1-1.8-1.1c-0.7-0.2-1.4-0.2-2-0.6c-0.6-0.4-0.9-1.1-0.9-1.6
							c-0.1-1.2,0.4-2,0.7-2.5C110.7,117.6,110.9,117.3,110.9,117.3z"/>
					</g>
				</g>
				<g>
					<g>
						<path class="st6" d="M84.4,158.6c0,0-0.3-0.1-0.9-0.4l0,0c-0.5-0.2-1.2-0.1-2,0.1c-0.4,0.1-0.9,0.2-1.5,0.2
							c-0.6,0-1.1-0.2-1.7-0.6c-0.5-0.4-0.9-0.9-1.1-1.6c-0.2-0.7-0.1-1.5,0.2-2.2c0.3-0.7,1-1.3,1.7-1.5c0.7-0.3,1.5-0.4,2.2-0.7
							c0.4-0.2,0.8-0.5,0.9-0.9c0.2-0.4,0.1-0.9,0.1-1.3c-0.2-0.9-0.5-1.9-0.3-2.8c0.3-1.9,1.7-3.2,3.1-3.5c1.4-0.3,2.5,0.2,3.1,0.6
							c0.3,0.2,0.5,0.4,0.7,0.6c0.1,0.2,0.2,0.2,0.2,0.3c0,0-0.3-0.3-0.9-0.7c-0.6-0.3-1.7-0.7-3-0.4c-1.2,0.3-2.5,1.5-2.8,3.2
							c-0.1,0.8,0.2,1.7,0.4,2.7c0.1,0.5,0.1,1-0.1,1.6c-0.2,0.5-0.6,0.9-1.1,1.2c-0.8,0.3-1.5,0.4-2.2,0.7
							c-0.7,0.2-1.2,0.7-1.5,1.3c-0.3,0.6-0.4,1.3-0.2,1.9c0.2,0.6,0.5,1.1,1,1.4c0.4,0.3,1,0.5,1.4,0.6c0.5,0,1-0.1,1.4-0.1
							c0.9-0.2,1.7-0.2,2.2,0l0,0l0,0C84.1,158.3,84.4,158.5,84.4,158.6z"/>
					</g>
				</g>
				<g>
					<g>
						<path class="st6" d="M55.7,216.2c0,0-0.1-0.2,0-0.5c0.1-0.3,0.3-0.7,0.8-1c0.5-0.3,1.2-0.5,2-0.5c0.8-0.1,1.7,0,2.6-0.3
							c0.9-0.3,1.7-1.1,2.1-2.2c0.4-1,0.3-2.4-0.5-3.4c-0.7-1-2-1.5-3.3-2.3c-0.6-0.4-1.2-0.9-1.6-1.6c-0.4-0.7-0.5-1.5-0.6-2.2
							c-0.1-1.5-0.2-3-1-4.1c-0.8-1.1-2.1-1.8-3.3-1.8c-1.2,0.1-2.3,0.9-2.8,1.9c-0.2,0.5-0.3,1-0.2,1.5c0.1,0.5,0.3,1,0.4,1.5
							c0.1,0.5,0.2,1,0,1.5c-0.1,0.5-0.4,0.8-0.7,1.1c-0.6,0.5-1.4,0.7-1.9,0.7c-0.6,0-1,0-1.3-0.1c-0.3,0-0.4-0.1-0.4-0.1
							c0,0,0.6,0,1.7,0c0.5-0.1,1.2-0.2,1.8-0.7c0.3-0.2,0.5-0.6,0.6-1c0.1-0.4,0-0.9-0.1-1.3c-0.1-0.5-0.3-1-0.4-1.5
							c-0.1-0.6,0-1.2,0.2-1.8c0.5-1.1,1.7-2.1,3.1-2.1c1.4-0.1,2.8,0.7,3.7,1.9c0.4,0.6,0.7,1.3,0.8,2.1c0.1,0.7,0.2,1.5,0.2,2.3
							c0.1,0.7,0.2,1.5,0.5,2.1c0.3,0.6,0.8,1.1,1.4,1.4c1.2,0.7,2.6,1.2,3.4,2.4c0.8,1.1,0.9,2.6,0.5,3.7c-0.5,1.2-1.4,2-2.3,2.3
							c-1,0.4-1.9,0.3-2.7,0.3c-0.8,0-1.4,0.1-1.9,0.4c-0.5,0.3-0.7,0.6-0.8,0.9C55.7,216,55.7,216.2,55.7,216.2z"/>
					</g>
				</g>
				<g>
					<g>
						<path class="st6" d="M49.6,216.6c0,0-0.1-0.2,0-0.7c0-0.4,0.3-1.1,0.2-1.8c0-0.3-0.2-0.7-0.5-1c-0.3-0.3-0.7-0.5-1.2-0.6
							c-0.5-0.1-1-0.2-1.5-0.4c-0.6-0.2-1.1-0.4-1.6-0.9c-0.9-0.8-1.4-2-1.4-3.1c0-1.1,0.4-2,0.9-2.6c0.5-0.6,1.1-1,1.5-1.1
							c0.4-0.2,0.7-0.2,0.7-0.2c0,0.1-1,0.3-1.9,1.5c-0.4,0.6-0.8,1.4-0.8,2.4c0,1,0.5,2,1.3,2.7c0.8,0.8,1.9,0.9,2.9,1.2
							c0.5,0.1,1,0.4,1.3,0.7c0.3,0.4,0.5,0.8,0.5,1.2c0,0.4-0.1,0.8-0.2,1.1c-0.1,0.3-0.1,0.5-0.2,0.8
							C49.6,216.4,49.6,216.6,49.6,216.6z"/>
					</g>
				</g>
				<g>
					<g>
						<path class="st6" d="M30.5,179.4c0,0,0.2-0.2,0.6-0.5c0.2-0.1,0.6-0.2,1-0.1c0.4,0.1,0.8,0.3,1.1,0.7l0,0l0,0
							c0.3,0.8,0.7,1.8,1.6,2.5c0.4,0.3,1,0.6,1.6,0.5c0.6-0.1,1.1-0.6,1.6-1.1c0.5-0.5,1.2-1,2.1-1.1c0.8-0.1,1.7,0.1,2.4,0.6
							c0.7,0.5,1.3,1.3,1.5,2.2c0.2,0.9,0.1,1.9-0.2,2.7c-0.3,0.7-0.7,1.3-1.2,1.7c-0.5,0.5-1.1,0.8-1.7,1.2
							c-1.1,0.6-2.2,1.3-2.7,2.3c-0.5,1-0.4,2.2-0.5,3.3c0,1.1-0.3,2.1-1,2.9c-0.6,0.7-1.4,1.2-2.1,1.3c-0.7,0.2-1.4,0.1-1.9-0.2
							c-0.4-0.3-0.6-0.7-0.8-0.9c-0.2-0.2-0.2-0.3-0.2-0.3c0,0,0.1,0.1,0.3,0.3c0.2,0.2,0.4,0.5,0.8,0.8c0.4,0.3,1,0.3,1.7,0.1
							c0.7-0.2,1.4-0.6,1.9-1.3c0.6-0.7,0.8-1.6,0.9-2.7c0.1-1,0-2.3,0.5-3.4c1.2-2.4,4.6-2.6,5.6-5.2c0.3-0.8,0.4-1.7,0.2-2.5
							c-0.2-0.8-0.7-1.5-1.3-1.9c-0.6-0.4-1.4-0.6-2.1-0.6c-0.7,0.1-1.3,0.5-1.8,1c-0.5,0.5-1.1,1-1.8,1.1c-0.7,0.1-1.4-0.2-1.9-0.6
							c-1-0.8-1.3-1.9-1.6-2.7l0,0c-0.3-0.4-0.6-0.6-1-0.7c-0.3-0.1-0.7,0-0.9,0C30.8,179.3,30.5,179.5,30.5,179.4z"/>
					</g>
				</g>
			</g>
		</g>
	</g>
	<g>
		<path class="st5" d="M107,104.7c0.9,0.2,1.8,0.9,2.1,1.8c1.5-1.2,3.5-1.9,5.4-1.8c-0.1,1.1-0.9,2.1-1.8,2.8
			c-0.9,0.7-1.9,1.2-2.8,1.9c-0.9,0.7-1.7,1.6-1.9,2.8"/>
	</g>
</g>
<g>
	<g>
		<g>
			<g>
				<g>
					<g>
						<g>
							<rect x="311.2" y="16" class="st2" width="221.3" height="149.4"/>
						</g>
					</g>
					<g>
						<g>
							<rect x="311.5" y="15" class="st3" width="221.3" height="14.9"/>
						</g>
					</g>
					<g>
						<g>
							<path class="st4" d="M323.2,21.4c0,0.9-0.8,1.7-1.8,1.7c-1,0-1.8-0.8-1.8-1.7c0-0.9,0.8-1.7,1.8-1.7
								C322.4,19.7,323.2,20.4,323.2,21.4z"/>
						</g>
					</g>
					<g>
						<g>
							<path class="st4" d="M328.9,21.4c0,0.9-0.8,1.7-1.8,1.7c-1,0-1.8-0.8-1.8-1.7c0-0.9,0.8-1.7,1.8-1.7
								C328.1,19.7,328.9,20.4,328.9,21.4z"/>
						</g>
					</g>
					<g>
						<g>
							<path class="st4" d="M334.7,21.4c0,0.9-0.8,1.7-1.8,1.7c-1,0-1.8-0.8-1.8-1.7c0-0.9,0.8-1.7,1.8-1.7
								C333.9,19.7,334.7,20.4,334.7,21.4z"/>
						</g>
					</g>
				</g>
				<g>
					<g>
						<g>
							<path class="st6" d="M532.8,164.4c0-1.6-0.1-58.4-0.2-149.4l0.2,0.2c-61,0-137.9,0-221.3,0h0l0.2-0.2c0,53.2,0,103.9,0,149.4
								l-0.2-0.2C441.8,164.3,530.8,164.4,532.8,164.4c-2,0-91,0.1-221.3,0.2l-0.2,0v-0.2c0-45.6,0-96.2,0-149.4l0-0.2h0.2h0
								c83.4,0,160.3,0,221.3,0l0.2,0l0,0.2C532.9,106,532.8,162.8,532.8,164.4z"/>
						</g>
					</g>
				</g>
			</g>
			<g>
				<rect x="325.9" y="98.4" class="st8" width="50.3" height="3.4"/>
				<rect x="390.9" y="51.2" class="st8" width="50.3" height="3.4"/>
				<g>
					<path class="st6" d="M516.1,63.9c0,0.1-28,0.2-62.6,0.2c-34.6,0-62.6-0.1-62.6-0.2c0-0.1,28-0.2,62.6-0.2
						C488,63.6,516.1,63.7,516.1,63.9z"/>
				</g>
				<g>
					<path class="st6" d="M516.1,71.3c0,0.1-28,0.2-62.6,0.2c-34.6,0-62.6-0.1-62.6-0.2s28-0.2,62.6-0.2
						C488,71,516.1,71.1,516.1,71.3z"/>
				</g>
				<g>
					<path class="st6" d="M516.1,78.7c0,0.1-28,0.2-62.6,0.2c-34.6,0-62.6-0.1-62.6-0.2c0-0.1,28-0.2,62.6-0.2
						C488,78.4,516.1,78.6,516.1,78.7z"/>
				</g>
				<g>
					<path class="st6" d="M516.1,86.1c0,0.1-28,0.2-62.6,0.2c-34.6,0-62.6-0.1-62.6-0.2c0-0.1,28-0.2,62.6-0.2
						C488,85.9,516.1,86,516.1,86.1z"/>
				</g>
				<g>
					<path class="st6" d="M516.1,93.5c0,0.1-28,0.2-62.6,0.2c-34.6,0-62.6-0.1-62.6-0.2c0-0.1,28-0.2,62.6-0.2
						C488,93.3,516.1,93.4,516.1,93.5z"/>
				</g>
				<g>
					<path class="st6" d="M439.7,100.9c0,0.1-10.9,0.2-24.4,0.2c-13.5,0-24.4-0.1-24.4-0.2c0-0.1,10.9-0.2,24.4-0.2
						C428.8,100.7,439.7,100.8,439.7,100.9z"/>
				</g>
				<g>
					<path class="st6" d="M515.1,115.3c0,0.1-18.4,0.2-41.1,0.2c-22.7,0-41.1-0.1-41.1-0.2c0-0.1,18.4-0.2,41.1-0.2
						C496.7,115.1,515.1,115.2,515.1,115.3z"/>
				</g>
				<g>
					<path class="st6" d="M515.1,123.2c0,0.1-18.4,0.2-41.1,0.2c-22.7,0-41.1-0.1-41.1-0.2c0-0.1,18.4-0.2,41.1-0.2
						C496.7,122.9,515.1,123,515.1,123.2z"/>
				</g>
				<g>
					<path class="st6" d="M515.1,131c0,0.1-18.4,0.2-41.1,0.2c-22.7,0-41.1-0.1-41.1-0.2c0-0.1,18.4-0.2,41.1-0.2
						C496.7,130.8,515.1,130.9,515.1,131z"/>
				</g>
				<g>
					<path class="st6" d="M515.1,138.9c0,0.1-18.4,0.2-41.1,0.2c-22.7,0-41.1-0.1-41.1-0.2c0-0.1,18.4-0.2,41.1-0.2
						C496.7,138.7,515.1,138.8,515.1,138.9z"/>
				</g>
				<g>
					<g>
						<path class="st6" d="M376.3,114.6c0,0.1-11,0.2-24.5,0.2c-13.5,0-24.5-0.1-24.5-0.2c0-0.1,11-0.2,24.5-0.2
							C365.3,114.3,376.3,114.4,376.3,114.6z"/>
					</g>
					<g>
						<path class="st6" d="M376.3,120.7c0,0.1-11,0.2-24.5,0.2c-13.5,0-24.5-0.1-24.5-0.2c0-0.1,11-0.2,24.5-0.2
							C365.3,120.5,376.3,120.6,376.3,120.7z"/>
					</g>
					<g>
						<path class="st6" d="M376.3,126.9c0,0.1-11,0.2-24.5,0.2c-13.5,0-24.5-0.1-24.5-0.2c0-0.1,11-0.2,24.5-0.2
							C365.3,126.7,376.3,126.8,376.3,126.9z"/>
					</g>
					<g>
						<path class="st6" d="M376.3,133.1c0,0.1-11,0.2-24.5,0.2c-13.5,0-24.5-0.1-24.5-0.2c0-0.1,11-0.2,24.5-0.2
							C365.3,132.8,376.3,133,376.3,133.1z"/>
					</g>
					<g>
						<path class="st6" d="M376.3,139.3c0,0.1-11,0.2-24.5,0.2c-13.5,0-24.5-0.1-24.5-0.2c0-0.1,11-0.2,24.5-0.2
							C365.3,139,376.3,139.1,376.3,139.3z"/>
					</g>
				</g>
				<g>
					<g>
						<g>
							<rect x="390.8" y="111.6" class="st8" width="35.7" height="34.8"/>
						</g>
					</g>
					<g class="st11">
						<g>
							<polygon points="393.6,143.4 403.5,125.5 411.6,136.9 416.5,130.9 423.8,143.4 							"/>
						</g>
					</g>
					<g class="st11">
						<g>
							<path d="M415,122c0,1.4-1.2,2.6-2.6,2.6s-2.6-1.2-2.6-2.6s1.2-2.6,2.6-2.6S415,120.6,415,122z"/>
						</g>
					</g>
					<g>
						<g>
							<g>
								<path class="st11" d="M423.8,143.5c0,0,0-0.1,0-0.1c0-0.1,0-0.2,0-0.4c0-0.4,0-0.9,0-1.6c0-1.4,0-3.4,0-5.9
									c0-5.1,0-12.3-0.1-21l0.1,0.1c-8.7,0-19.1,0-30.2,0c0,0,0.3-0.3,0.2-0.2v0v0v0v0.1v0.1v0.2v0.5v1c0,0.7,0,1.3,0,2
									c0,1.3,0,2.6,0,3.9c0,2.6,0,5.1,0,7.5c0,4.9,0,9.5,0,13.7l-0.1-0.1c9,0,16.5,0.1,21.8,0.1c2.6,0,4.7,0,6.2,0
									c0.7,0,1.2,0,1.6,0c0.2,0,0.3,0,0.4,0C423.7,143.5,423.8,143.5,423.8,143.5c0,0,0,0-0.1,0c-0.1,0-0.2,0-0.4,0
									c-0.4,0-0.9,0-1.6,0c-1.4,0-3.5,0-6.1,0c-5.3,0-12.9,0-21.9,0.1l-0.1,0v-0.2c0-4.2,0-8.9,0-13.7c0-2.4,0-4.9,0-7.5
									c0-1.3,0-2.6,0-3.9c0-0.7,0-1.3,0-2v-1l0-0.5v-0.2v-0.1v-0.1v0v0v0c-0.2,0.2,0.2-0.2,0.2-0.2c11.1,0,21.4,0,30.2,0l0.1,0
									l0,0.1c0,8.7-0.1,16-0.1,21.1c0,2.5,0,4.5,0,5.9c0,0.7,0,1.2,0,1.5c0,0.2,0,0.3,0,0.4C423.8,143.5,423.8,143.5,423.8,143.5z
									"/>
							</g>
						</g>
					</g>
				</g>
			</g>
		</g>
		<g>
			<g>
				<g>
					<rect x="323.8" y="41.5" class="st8" width="50.5" height="49.2"/>
				</g>
			</g>
			<g class="st11">
				<g>
					<polygon points="327.7,86.5 341.7,61.2 353.1,77.4 360,68.8 370.4,86.5 					"/>
				</g>
			</g>
			<g class="st11">
				<g>
					<path d="M358,56.3c0,2-1.6,3.7-3.6,3.7s-3.6-1.6-3.6-3.7c0-2,1.6-3.7,3.6-3.7S358,54.3,358,56.3z"/>
				</g>
			</g>
			<g>
				<g>
					<g>
						<path class="st11" d="M370.4,86.7c0,0,0-0.1,0-0.2c0-0.1,0-0.3,0-0.6c0-0.5,0-1.3,0-2.2c0-2,0-4.8-0.1-8.4
							c0-7.2-0.1-17.4-0.1-29.7l0.2,0.2c-12.3,0-27,0-42.6,0c-0.1,0.1,0.5-0.5,0.2-0.2v0v0v0v0.1v0.2v0.4V47v1.4c0,0.9,0,1.9,0,2.8
							c0,1.8,0,3.7,0,5.5c0,3.6,0,7.2,0,10.6c0,6.9,0,13.4,0,19.4l-0.2-0.2c12.7,0,23.4,0.1,30.8,0.1c3.7,0,6.7,0,8.7,0.1
							c1,0,1.8,0,2.3,0c0.2,0,0.4,0,0.6,0C370.3,86.7,370.4,86.7,370.4,86.7c0,0-0.1,0-0.2,0c-0.1,0-0.3,0-0.6,0c-0.5,0-1.3,0-2.3,0
							c-2,0-4.9,0-8.6,0.1c-7.5,0-18.2,0.1-31,0.1l-0.2,0v-0.2c0-6,0-12.5,0-19.4c0-3.4,0-7,0-10.6c0-1.8,0-3.6,0-5.5
							c0-0.9,0-1.8,0-2.8V47l0-0.7v-0.4v-0.2v-0.1v0v0v0c-0.2,0.2,0.3-0.3,0.2-0.2c15.6,0,30.3,0,42.6,0l0.2,0l0,0.2
							c0,12.3-0.1,22.6-0.1,29.8c0,3.6,0,6.4-0.1,8.3c0,0.9,0,1.7,0,2.2c0,0.2,0,0.4,0,0.6C370.4,86.6,370.4,86.7,370.4,86.7z"/>
					</g>
				</g>
			</g>
		</g>
	</g>
</g>
<g>
	<g>
		<polygon class="st8" points="344.5,378.2 342.3,385.6 357.9,385.4 358.6,377.5 		"/>
		<g>
			<path class="st6" d="M358.2,383.9c0,0.1-0.9,0.1-2.3,0.2c-1.4,0-3.3,0-5.5,0c-2-0.1-3.9-0.1-5.5-0.2c-1.4-0.1-2.3-0.1-2.3-0.2
				c0-0.1,0.9-0.1,2.3-0.2c1.4,0,3.3,0,5.5,0c2,0.1,3.9,0.1,5.5,0.2C357.3,383.8,358.2,383.8,358.2,383.9z"/>
		</g>
		<g>
			<path class="st6" d="M351.5,377.2c0.1,0,0.2,1.5,0.1,3.3c-0.1,1.8-0.3,3.3-0.4,3.3c-0.1,0-0.2-1.5-0.1-3.3
				C351.2,378.7,351.4,377.2,351.5,377.2z"/>
		</g>
		<polyline class="st12" points="342.3,385.6 357.9,385.4 358,383.9 342.6,383.7 342.3,385.4 		"/>
	</g>
	<g>
		<g>
			<path class="st6" d="M404.7,380.3L377.8,240l0,0c-0.1-0.2-0.1-0.4-0.2-0.6l0,0l0,0c-4.1-16.5-7.4-20.5-7.4-20.5l-40.2,1.1
				c-3.2,5.7-3.6,19.4-3.6,19.4c-0.4,1.7,17.9,139.2,17.9,139.2l13.8-1.1L353.5,248l36,132.6L404.7,380.3z"/>
			<g>
				<path class="st7" d="M364.2,243.6c0,0.1-4.4,1.4-10,2.9c-5.6,1.4-10.1,2.5-10.1,2.4c0-0.1,4.4-1.4,10-2.9
					C359.6,244.6,364.1,243.5,364.2,243.6z"/>
			</g>
			<path class="st13" d="M327.8,171.6l-30.8,1.9l-26.6-24l-0.3-0.8c-0.2-0.4-0.3-1-0.5-1.5c-0.2-0.7-0.3-1.4-0.2-2.1
				c0-0.8,0.1-2,0.4-2.5c0.3-0.7-0.4-1.5-1-1.1c-0.6,0.4-1.5,2.4-1.4,4.9c0.1,2.6-2.5-0.5-3.4-1.5c-1-1.1-4.1-4.3-4.6-4.2
				c-0.8,0.1-0.9,1,0.1,2c1,1.1,3.7,4.4,3.1,4.9c-0.6,0.5-5.4-5.1-5.4-5.1s-0.8-1.4-1.5-0.8c-1.2,1,4.3,6.5,4.8,7
				c0.4,0.4-0.2,0.9-0.6,0.5c-0.4-0.4-4.7-5.7-5.9-4.7c-1,0.8,4.5,4.6,4.8,6.2c0.3,1.6-3.9-3.3-4.8-2.6c-0.3,0.3-0.5,0.5,2.2,3
				c1.4,1.2,3.5,3.4,5.9,5.1l0,0l27.8,30.9l38.8,3.4L327.8,171.6z"/>
			<path class="st13" d="M423.6,121.6c-1.1-0.5-3.7,5.4-3.9,3.8c-0.2-1.6,4-6.8,2.9-7.3c-1.5-0.6-4.1,5.6-4.4,6.1
				c-0.3,0.5-1,0.1-0.7-0.3c0.4-0.6,4.2-7.5,2.7-8.1c-0.8-0.3-1.2,1.2-1.2,1.2s-3.1,6.7-3.7,6.4c-0.7-0.3,1-4.3,1.6-5.6
				c0.6-1.3,0.3-2.1-0.5-2c-0.5,0.1-2.6,4.1-3.3,5.4c-0.6,1.3-2.3,4.9-2.9,2.4c-0.6-2.5-2-4.2-2.7-4.4c-0.7-0.2-1.2,0.7-0.7,1.3
				c0.4,0.5,0.8,1.5,1.1,2.3c0.2,0.7,0.3,1.3,0.3,2c0,0.6,0,1.1,0,1.6l0,0.9l-19,30.5l-30.1,6.8l5.4,19.6l35.4-15.2l18.2-37.5l0,0
				c1.8-2.3,3.3-5,4.2-6.5C424.3,122,424.1,121.8,423.6,121.6z"/>
			<path class="st7" d="M366.7,189l0.5-1.8c1.2-0.8,15.8-9.9,16.3-10c0.6-0.1-6.5-16.8-6.5-16.8l-16.5,2.4c-1.7-0.5-2.8-0.6-2.8-0.6
				l-19.4-0.2c0,0-5.1,0.9-7.4,2.5l-17.6,6.7l4,20.6l13.8-1.2c0.2,1.6,1,7.4,1.4,8.9c1.2,5,2,11.8-0.6,16.2c0,0-5.3,10.7-5.3,19.7
				l49-5.8c0,0-2.1-8.7-11-20.2l0.4-12.2L366.7,189z"/>
			<g>
				<path class="st6" d="M339.3,123.8c-4.1,1.9-5.7,6.4-6.1,10.6c-0.4,4.2,0,8.5-1.6,12.4c-1.3,3.3-4.1,6.3-3.8,9.8
					c0.2,2.6,2.2,4.9,2.5,7.6c0.7,5.1-4.7,9.6-3.7,14.6c0.4,2.3,2.2,4.3,4.3,5.6c2.1,1.4,4.5,2.2,6.9,3c3.2,1.1,6.8,2.2,10,1
					c2.8-1,4.8-3.6,7.7-4.4c2.8-0.7,5.8,0.5,8.7,0.5c2.7,0.1,5.5-0.9,7.2-2.8c1.8-1.9,2.4-4.6,1.5-6.9c-1.3-3.2-5.3-5.3-5.9-8.7
					c-0.6-3.1,1.9-6.1,1.1-9.2c-0.9-3.4-5.4-5.2-6.5-8.5c-1.3-4,2.9-8.3,1.2-12.2c-1-2.3-3.7-3.8-4.4-6.1c-0.5-1.6,0-3.4-0.3-5
					c-0.6-2.8-3.8-4.7-6.9-5.3c-3.8-0.8-8-0.3-11.2,1.6c-3.3,1.9-5.6,5.2-5.8,8.7"/>
				<path class="st6" d="M345.4,120.9c3.7-1.4,8.1-1.1,11.5,0.8c3.5,1.9,6,5.5,6.8,9.4c0.6,3.2,0.2,6.6,1.5,9.5
					c1.5,3.2,5,5.4,5.5,8.8c0.5,3.4-2,6.4-2.5,9.8c-0.5,3.5,1.1,7,0.7,10.5c-0.4,3.5-2.9,6.6-6.3,7.7c-3.3,1.1-7.2,0-9.5-2.6"/>
				<g>
					<path class="st6" d="M328.9,175.8c0,0,0,0,0-0.1c0-0.1-0.1-0.2-0.1-0.4c0-0.4,0-1,0.2-1.6c0.2-0.7,0.7-1.5,1.2-2.3
						c0.5-0.9,1.2-1.8,1.5-3c0.3-1.2,0.2-2.6-0.3-4c-0.5-1.4-1.3-2.7-2.3-4.1c-0.9-1.4-2-2.9-2.5-4.7c-0.6-1.8-0.5-3.9,0.1-5.8
						c0.3-0.9,0.8-1.8,1.4-2.6c0.6-0.8,1.3-1.4,1.9-2.1c0.6-0.7,1.2-1.3,1.7-2.1c0.4-0.7,0.7-1.5,0.7-2.3c0.1-1.6-0.4-3.2-0.6-4.7
						c-0.2-1.5-0.1-3,0.2-4.2c0.7-2.5,2.2-4.2,3.3-5.1c0.6-0.4,1-0.7,1.4-0.9c0.3-0.2,0.5-0.2,0.5-0.2c0,0-0.7,0.4-1.8,1.3
						c-1,0.9-2.4,2.6-3.1,5c-0.3,1.2-0.4,2.6-0.2,4.1c0.2,1.5,0.8,3,0.7,4.8c0,0.9-0.3,1.8-0.8,2.6c-0.5,0.8-1.1,1.5-1.7,2.2
						c-0.6,0.7-1.3,1.3-1.9,2.1c-0.6,0.7-1,1.6-1.3,2.5c-0.6,1.8-0.6,3.7-0.1,5.5c0.5,1.7,1.5,3.2,2.4,4.6c0.9,1.4,1.8,2.8,2.3,4.3
						c0.5,1.4,0.6,2.9,0.3,4.2c-0.4,1.3-1.1,2.2-1.6,3.1c-0.6,0.8-1,1.6-1.3,2.2C328.7,175,329,175.8,328.9,175.8z"/>
				</g>
				<g>
					<path class="st7" d="M365.5,183.9c0,0,0.2-0.2,0.5-0.6c0.3-0.4,0.7-1.1,1-2.1c0.2-1,0.2-2.3-0.4-3.6c-0.3-0.7-0.7-1.3-1.3-1.9
						c-0.6-0.5-1.4-0.9-2.3-1.1c-0.9-0.3-1.8-0.4-2.8-0.9c-0.9-0.5-1.7-1.6-1.6-2.8c0.1-1.2,0.8-2.2,1.5-3.1
						c0.8-0.9,1.7-1.6,2.5-2.6c0.7-0.9,1.3-2.1,0.9-3.3c-0.3-1.2-1.5-1.9-2.6-2.6c-1.1-0.7-2.4-1.2-3.4-2.2
						c-0.5-0.5-0.9-1.1-1.1-1.9c-0.2-0.7-0.1-1.5,0-2.2c0.3-1.4,1-2.7,1.3-4c0.4-1.3,0.3-2.7-0.5-3.7c-1.7-1.9-4.6-2.3-6.2-4.3
						c-0.8-1-1.2-2.2-1.5-3.3c-0.2-1.2-0.3-2.3-0.2-3.4c0.1-2.2,0.4-4.2,0.3-6c-0.1-1.8-0.6-3.5-1.6-4.6c-1-1.1-2.1-1.7-3.1-1.8
						c-1-0.2-1.8,0-2.3,0.3c-0.5,0.2-0.7,0.5-0.7,0.4c0,0,0-0.1,0.1-0.2c0.1-0.1,0.3-0.2,0.5-0.4c0.5-0.3,1.3-0.6,2.3-0.4
						c1,0.2,2.3,0.7,3.3,1.8c1,1.1,1.6,2.9,1.7,4.7c0.1,1.9-0.1,3.9-0.2,6.1c0,1.1,0,2.2,0.3,3.3c0.2,1.1,0.6,2.2,1.4,3.1
						c0.7,0.9,1.8,1.5,3,2.1c1.1,0.6,2.4,1.1,3.3,2.2c0.4,0.5,0.7,1.2,0.8,2c0.1,0.7,0,1.4-0.2,2.1c-0.4,1.4-1,2.6-1.3,4
						c-0.3,1.3,0,2.7,1,3.6c0.9,0.9,2.2,1.5,3.3,2.2c0.6,0.3,1.2,0.7,1.7,1.1c0.5,0.5,0.9,1,1.1,1.7c0.2,0.7,0.2,1.4,0,2
						c-0.2,0.6-0.6,1.2-1,1.7c-0.8,1-1.7,1.7-2.5,2.6c-0.7,0.8-1.3,1.8-1.4,2.8c-0.1,1,0.5,2,1.4,2.4c0.8,0.5,1.8,0.7,2.7,0.9
						c0.9,0.3,1.7,0.7,2.4,1.3c0.6,0.6,1.1,1.3,1.3,2c0.6,1.4,0.6,2.8,0.3,3.8c-0.2,1-0.7,1.7-1.1,2.1
						C365.8,183.7,365.5,183.9,365.5,183.9z"/>
				</g>
				<g>
					<path class="st7" d="M338.3,186.7c0,0-0.1-0.2-0.3-0.7c-0.2-0.4-0.4-1.1-0.7-1.9c-0.3-0.9-0.6-1.9-0.9-3.2
						c-0.3-1.3-0.5-2.7-0.3-4.4c0.1-1.6,0.8-3.4,2-4.9c0.6-0.7,1.3-1.4,1.8-2.3c0.5-0.8,0.8-1.8,0.8-2.8c-0.1-2.1-1.1-4.1-2.2-6.1
						c-1.1-2-2.3-4.2-2.5-6.8c-0.1-1.3,0.3-2.6,1.1-3.6c0.8-1,1.9-1.6,2.7-2.3c0.9-0.7,1.5-1.6,1.7-2.7c0.2-1,0.1-2.1-0.1-3.1
						c-0.4-2.1-1.2-3.9-1.6-5.8c-0.3-1.9-0.4-3.7-0.2-5.3c0.4-3.2,1.6-5.6,2.6-7.1c0.5-0.8,0.9-1.3,1.2-1.7c0.3-0.4,0.5-0.5,0.5-0.5
						c0,0-0.7,0.8-1.6,2.3c-0.9,1.5-2,3.9-2.4,7.1c-0.2,1.6-0.1,3.3,0.2,5.2c0.4,1.8,1.2,3.7,1.6,5.8c0.2,1,0.4,2.2,0.2,3.3
						c-0.2,1.1-0.9,2.2-1.8,3c-0.9,0.7-2,1.3-2.7,2.2c-0.7,0.9-1,2.1-1,3.2c0.1,2.4,1.3,4.6,2.4,6.5c1.1,2,2.2,4.1,2.2,6.3
						c0,1.1-0.3,2.2-0.8,3.1c-0.5,0.9-1.2,1.6-1.8,2.3c-1.2,1.4-1.8,3.1-2,4.6c-0.2,1.6,0,3,0.3,4.3c0.2,1.2,0.6,2.3,0.8,3.2
						c0.3,0.8,0.5,1.5,0.7,2C338.3,186.5,338.3,186.7,338.3,186.7z"/>
				</g>
			</g>
		</g>
	</g>
	<g>
		<g>
			<g>
				<g>
					<g>
						<path class="st8" d="M405.6,381.7l-0.1-1.6l-16.1,0.5l0.1,5.3l1,0c4.4,0.1,22.5,0.3,25.4-0.7
							C419.3,384.2,405.6,381.7,405.6,381.7z"/>
					</g>
				</g>
				<g class="st14">
					<g>
						<path class="st2" d="M395.4,385.6c-0.3-1.2-1-2.4-2.1-3.1c-1.1-0.8-2.4-1.1-3.8-1l0.1,4.2L395.4,385.6z"/>
					</g>
				</g>
			</g>
			<g class="st14">
				<g>
					<path class="st2" d="M412.3,383.1c0,0,4.8,1.2,4.2,1.9c-0.6,0.8-18.8,1.2-26.9,0.8l0-0.3l21.3-0.4
						C410.9,385.1,411.4,383.2,412.3,383.1z"/>
				</g>
			</g>
			<g>
				<g>
					<g>
						<path class="st6" d="M389.4,385.5c0,0,0.1,0,0.3,0c0.2,0,0.5,0,0.8,0c0.8,0,1.8,0,2.9,0c2.5,0,5.9,0,9.6-0.1
							c3.8-0.1,7.1-0.3,9.6-0.4c1.1-0.1,2.1-0.1,2.9-0.2c0.3,0,0.6,0,0.8-0.1c0.2,0,0.3,0,0.3,0c0,0-0.1,0-0.3,0c-0.2,0-0.5,0-0.8,0
							c-0.8,0-1.8,0.1-2.9,0.1c-2.5,0.1-5.8,0.2-9.6,0.3c-3.7,0.1-7.1,0.1-9.6,0.1c-1.1,0-2.1,0-2.9,0c-0.3,0-0.6,0-0.8,0
							C389.5,385.5,389.4,385.5,389.4,385.5z"/>
					</g>
				</g>
			</g>
			<g>
				<g>
					<g>
						<path class="st6" d="M410.9,385.3c0.1,0,0.1-0.6,0.5-1.3c0.4-0.7,1-1,1-1.1c0,0-0.7,0.3-1.1,1
							C410.8,384.6,410.9,385.3,410.9,385.3z"/>
					</g>
				</g>
			</g>
			<g>
				<g>
					<g>
						<path class="st6" d="M406.1,383.2c0,0,0.3-0.2,0.5-0.6s0.4-0.7,0.3-0.7c0,0-0.3,0.2-0.5,0.6
							C406.2,382.9,406.1,383.2,406.1,383.2z"/>
					</g>
				</g>
			</g>
			<g>
				<g>
					<g>
						<path class="st6" d="M404.8,382.6c0,0,0.3-0.1,0.6-0.4c0.3-0.2,0.5-0.5,0.4-0.5c0,0-0.3,0.1-0.6,0.4
							C405,382.3,404.8,382.6,404.8,382.6z"/>
					</g>
				</g>
			</g>
			<g>
				<g>
					<g>
						<path class="st6" d="M404,381.2c0,0.1,0.4,0.1,0.8,0.1c0.5,0,0.8-0.1,0.8-0.1c0-0.1-0.4-0.1-0.8-0.1
							C404.3,381.1,404,381.2,404,381.2z"/>
					</g>
				</g>
			</g>
			<g>
				<g>
					<g>
						<path class="st6" d="M403.7,380.2c0,0,0.4,0.2,0.9,0.2c0.5,0,1-0.1,1-0.1c0-0.1-0.4,0-0.9,0
							C404.1,380.2,403.7,380.2,403.7,380.2z"/>
					</g>
				</g>
			</g>
			<g>
				<g>
					<g>
						<path class="st6" d="M406.6,381.9c0,0,0.4,0.1,1,0c0.3,0,0.7-0.1,1.1-0.3c0.2-0.1,0.4-0.1,0.6-0.3c0.1-0.1,0.2-0.2,0.2-0.3
							c0-0.1,0-0.3-0.2-0.4c-1-0.5-2,0.1-2.3,0.6c-0.2,0.2-0.3,0.5-0.3,0.7c0,0.2,0,0.3,0,0.3c0,0,0.1-0.4,0.4-0.8
							c0.2-0.2,0.5-0.4,0.9-0.6c0.4-0.1,0.9-0.2,1.2,0c0.2,0.1,0.1,0.3-0.1,0.4c-0.2,0.1-0.4,0.2-0.6,0.2c-0.4,0.1-0.7,0.2-1.1,0.3
							C407,381.8,406.6,381.9,406.6,381.9z"/>
					</g>
				</g>
			</g>
			<g>
				<g>
					<g>
						<path class="st6" d="M406.9,381.9c0,0,0.2-0.2,0.1-0.7c0-0.2-0.1-0.5-0.3-0.7c-0.2-0.2-0.4-0.5-0.9-0.5
							c-0.2,0-0.3,0.3-0.3,0.5c0,0.2,0.1,0.3,0.2,0.4c0.2,0.2,0.3,0.4,0.5,0.6C406.6,381.8,406.8,381.9,406.9,381.9
							c-0.1,0-0.3-0.2-0.6-0.5c-0.1-0.1-0.3-0.3-0.4-0.6c-0.1-0.2-0.3-0.6,0-0.6c0.3,0,0.5,0.2,0.7,0.4c0.2,0.2,0.3,0.4,0.3,0.6
							C407,381.7,406.9,381.9,406.9,381.9z"/>
					</g>
				</g>
			</g>
			<g>
				<g>
					<g>
						<path class="st6" d="M389.6,381.4c0,0,0.5-0.1,1.2,0c0.7,0.1,1.7,0.3,2.6,0.9c0.9,0.6,1.4,1.5,1.7,2.1
							c0.3,0.6,0.3,1.1,0.3,1.1c0,0,0-0.1,0-0.3c0-0.2-0.1-0.5-0.2-0.8c-0.2-0.7-0.8-1.5-1.7-2.2c-0.9-0.6-2-0.9-2.7-0.9
							c-0.4,0-0.7,0-0.9,0C389.7,381.3,389.6,381.4,389.6,381.4z"/>
					</g>
				</g>
			</g>
			<g>
				<g>
					<g>
						<path class="st6" d="M397.4,384c0,0,1,0.2,2.3,0.2c1.3,0,2.3-0.2,2.3-0.2c0-0.1-1,0-2.3,0.1C398.4,384,397.4,384,397.4,384z"
							/>
					</g>
				</g>
			</g>
			<g>
				<g>
					<g>
						<path class="st6" d="M394.2,384.1c0,0,0.1,0.2,0.2,0.4c0.1,0.2,0.2,0.4,0.2,0.4c0.1,0,0.1-0.2-0.1-0.5
							C394.5,384.2,394.3,384.1,394.2,384.1z"/>
					</g>
				</g>
			</g>
			<g>
				<g>
					<g>
						<path class="st6" d="M393,382.8c0,0,0.1,0.2,0.2,0.3c0.2,0.2,0.3,0.2,0.4,0.2c0,0-0.1-0.2-0.2-0.3
							C393.2,382.8,393,382.7,393,382.8z"/>
					</g>
				</g>
			</g>
			<g>
				<g>
					<g>
						<path class="st6" d="M391.3,382.2c0,0.1,0.2,0,0.5,0.1c0.2,0.1,0.4,0.2,0.5,0.1c0,0-0.1-0.2-0.4-0.3
							C391.5,382,391.3,382.1,391.3,382.2z"/>
					</g>
				</g>
			</g>
			<g>
				<g>
					<g>
						<path class="st6" d="M390.1,381.9c0,0,0.1,0.1,0.2,0.2c0.1,0,0.3,0,0.3,0c0,0-0.1-0.1-0.2-0.2
							C390.2,381.9,390.1,381.9,390.1,381.9z"/>
					</g>
				</g>
			</g>
		</g>
	</g>
</g>
<g>
	<path class="st8" d="M450.5,334.5c2.4-1.2,5.2-1.4,7.8-1c1.4,0.2,2.9,0.7,3.9,1.7c1,1.1,1.2,3,0,3.9c-0.7,0.6-1.6,0.6-2.4,0.6
		c-2.1,0-4.4-0.4-6,0.9c-0.9,0.7-1.6,1.9-2.7,2.3c-1.1,0.3-2.4-0.3-2.9-1.3s-0.6-2.3-0.3-3.4C447.8,338.2,448.1,335.8,450.5,334.5z"
		/>
	<path class="st15" d="M450.5,334.5c2.4-1.2,5.2-1.4,7.8-1c1.4,0.2,2.9,0.7,3.9,1.7c1,1.1,1.2,3,0,3.9c-0.7,0.6-1.6,0.6-2.4,0.6
		c-2.1,0-4.4-0.4-6,0.9c-0.9,0.7-1.6,1.9-2.7,2.3c-1.1,0.3-2.4-0.3-2.9-1.3s-0.6-2.3-0.3-3.4C447.8,338.2,448.1,335.8,450.5,334.5z"
		/>
	<path class="st8" d="M445,323.9c1.5,2.1,4.3,1.4,5.6,0.1c1.3-1.3,1.9-3.1,2.4-4.9c1.2-4,2.3-8.3,1.5-12.4c-0.3-1.2-0.7-2.5-1.6-3.4
		c-0.9-0.9-2.2-1.5-3.4-1.1c-1.4,0.4-2.3,1.8-3,3.1c-1.9,3.9-2.9,8.3-2.9,12.7C443.6,320,443.9,322.2,445,323.9"/>
	<path class="st11" d="M445,323.9c1.5,2.1,4.3,1.4,5.6,0.1c1.3-1.3,1.9-3.1,2.4-4.9c1.2-4,2.3-8.3,1.5-12.4
		c-0.3-1.2-0.7-2.5-1.6-3.4c-0.9-0.9-2.2-1.5-3.4-1.1c-1.4,0.4-2.3,1.8-3,3.1c-1.9,3.9-2.9,8.3-2.9,12.7
		C443.6,320,443.9,322.2,445,323.9"/>
	<path class="st8" d="M441,326.9c1.6-1.9,1.9-4.7,1.2-7c-0.7-2.4-2.3-4.4-4.1-6c-2.2-1.9-4.7-3.4-7.4-4.4c-1.1-0.4-2.2-0.7-3.3-0.6
		c-1.1,0.1-2.3,0.7-2.8,1.7c-0.8,1.5,0,3.3,0.8,4.8c1.4,2.6,3,5.1,4.9,7.5c1.5,1.9,3.1,3.8,5.3,4.6c2.2,0.9,4.5,0.8,5.7-0.8"/>
	<g>
		<path class="st6" d="M444.9,355.5c0,0,0.1-0.3,0.1-1c0.1-0.7,0.2-1.6,0.3-2.6c0.1-1.1,0.3-2.4,0.6-3.8c0.3-1.4,0.8-3,1.4-4.5
			c0.6-1.5,1.4-3,2.3-4.1c0.9-1.1,1.9-1.9,2.9-2.4c1-0.5,1.8-0.7,2.4-0.8c0.6-0.1,0.9-0.1,0.9-0.1c0,0-0.3,0-1,0
			c-0.6,0-1.5,0.2-2.5,0.7c-1,0.5-2.1,1.3-3,2.4c-0.9,1.1-1.7,2.6-2.4,4.2c-0.6,1.6-1.1,3.1-1.4,4.6c-0.3,1.4-0.4,2.8-0.5,3.9
			c-0.1,1.1-0.1,2-0.1,2.6C444.9,355.2,444.9,355.5,444.9,355.5z"/>
	</g>
	<g>
		<path class="st6" d="M445.1,353.5c0,0,0-0.2,0-0.4c0-0.3,0-0.8,0-1.3c0-1.1,0-2.7,0.1-4.7c0.1-3.9,0.4-8.2,1.1-14.1
			c0.6-5.6,1.4-12.1,2.3-16.4c0.2-1,0.4-1.8,0.6-2.6c0.2-0.8,0.3-1.4,0.5-1.9c0.1-0.5,0.2-0.9,0.3-1.2c0.1-0.3,0.1-0.4,0.1-0.4
			c0,0-0.1,0.1-0.2,0.4c-0.1,0.3-0.2,0.7-0.4,1.2c-0.2,0.5-0.3,1.2-0.5,1.9c-0.2,0.8-0.4,1.6-0.6,2.6c-0.9,3.8-1.8,9.2-2.4,15.2
			c-0.6,6-0.9,11.4-1,15.3c0,2,0,3.6,0.1,4.7c0,0.5,0.1,0.9,0.1,1.3C445,353.4,445.1,353.5,445.1,353.5z"/>
	</g>
	<g>
		<path class="st6" d="M445.1,343.1c0,0,0-0.5,0-1.3c0-0.9-0.2-2.1-0.4-3.6c-0.3-1.5-0.6-3.3-1.2-5.2c-0.2-0.9-0.8-3-2.2-6.2
			c-1.8-4.3-4.2-7.8-6.4-10c-0.5-0.6-1.1-1-1.5-1.4c-0.2-0.2-0.4-0.4-0.6-0.5c-0.2-0.1-0.4-0.3-0.6-0.4c-0.7-0.5-1.1-0.7-1.1-0.7
			c-0.1,0.1,1.6,1.1,3.6,3.3c2,2.2,4.4,5.7,6.2,9.9c1,2.3,1.7,4.4,2.2,6.1c0.6,1.9,0.9,3.7,1.2,5.2c0.3,1.5,0.4,2.7,0.5,3.5
			C445,342.6,445.1,343.1,445.1,343.1z"/>
	</g>
</g>
<g>
	<g>
		<path class="st1" d="M222.3,334.9c15.9-11.7,18.9-32.7,17.7-51.4c-0.2-3.1,0-6.4-1.6-9.1c-1.6-2.7-5.2-4.4-8-3
			c-2.3,1.2-3.3,3.9-4.5,6.2c-1.7,3-4.2,5.6-7.2,7.2c-2,1.1-4.5,1.8-6.5,0.8c-2.8-1.4-3.2-5.1-3.3-8.2c-0.2-5.8-0.3-11.6-0.5-17.4
			c-0.1-3.1-0.2-6.3-1.2-9.2c-1.1-2.9-3.3-5.6-6.3-6.3c-3-0.7-6.7,1.1-7.2,4.2c-0.2,1.3,0.1,2.6,0,3.9c0,1.3-0.6,2.7-1.8,3.1
			c-1.2,0.4-2.5-0.4-3.5-1.3c-3.3-3-5.7-7-7.9-10.9c-2.2-3.9-4.3-8-7.4-11.3c-3.1-3.3-7.2-5.9-11.7-6c-4.5-0.1-9.2,2.8-10.2,7.2
			c-1,4.4,1.7,8.8,4.7,12.2c4.3,5.1,9.4,9.6,15.1,13.3c1,0.7,2.1,1.4,2.5,2.5c0.7,2-1.2,4.2-3.2,4.9c-2.3,0.8-4.9,0.7-7.3,1.1
			c-2.4,0.4-5.1,1.5-5.9,3.8c-1.2,3.2,1.6,6.5,4.3,8.5c5.4,4.2,11.6,7.4,18.1,9.6c2.3,0.8,4.8,1.4,6.7,3c1.9,1.5,3.1,4.3,2.1,6.5
			c-1.1,2.2-3.9,3-6.4,2.7c-2.4-0.4-4.7-1.6-7-2.4c-4.4-1.5-9.9-1-12.6,2.8c-1.7,2.5-1.8,5.9-0.8,8.7c1,2.9,3,5.3,5,7.5
			c7.2,7.8,16.3,14,26.4,17.1C203.1,338.2,212.4,338.8,222.3,334.9"/>
	</g>
	<g>
		<g>
			<path class="st3" d="M155.6,228.9c0,0,0.1,0.1,0.3,0.3c0.2,0.2,0.6,0.5,1,0.8c0.8,0.7,2.1,1.7,3.7,3.1c3.2,2.7,7.6,6.8,12.4,12.4
				c2.4,2.8,5,6,7.6,9.4c2.7,3.5,5.5,7.2,8.3,11.2c2.8,4,5.6,8.3,8.2,13c1.3,2.3,2.5,4.8,3.6,7.3c1.2,2.5,2.4,5,3.6,7.6
				c4.8,10.3,9.1,20.2,12.2,29.5c3.1,9.3,5.1,18,6.1,25.3c1,7.4,1,13.4,0.8,17.5c-0.1,2.1-0.2,3.7-0.3,4.8c0,0.5-0.1,0.9-0.1,1.2
				c0,0.3,0,0.4,0,0.4s0.4-2.3,0.6-6.4c0.2-4.2,0.2-10.2-0.7-17.6c-0.9-7.4-2.9-16.1-6-25.4c-3.1-9.3-7.4-19.3-12.2-29.6
				c-1.2-2.6-2.4-5.1-3.6-7.6c-1.2-2.5-2.4-5-3.7-7.3c-2.6-4.7-5.4-9-8.2-13c-2.8-4-5.7-7.7-8.3-11.2c-2.7-3.5-5.2-6.6-7.7-9.4
				c-4.9-5.6-9.4-9.7-12.6-12.3c-1.6-1.3-2.9-2.3-3.7-3c-0.4-0.3-0.8-0.6-1-0.8C155.7,229,155.6,228.9,155.6,228.9z"/>
		</g>
	</g>
	<g>
		<g>
			<path class="st3" d="M197.4,278.8c0,0,0.1-0.5,0.2-1.3c0.1-0.9,0.3-2.1,0.4-3.7c0.3-3.1,0.7-7.4,1-12.2c0.3-4.8,0.7-9,1.1-12.1
				c0.2-1.5,0.4-2.8,0.5-3.7c0.1-0.9,0.2-1.3,0.2-1.4c0,0-0.1,0.5-0.3,1.3c-0.2,0.9-0.4,2.1-0.7,3.6c-0.5,3.1-0.9,7.4-1.3,12.1
				c-0.3,4.7-0.6,9-0.9,12.2c-0.1,1.5-0.2,2.7-0.3,3.7C197.4,278.3,197.4,278.8,197.4,278.8z"/>
		</g>
	</g>
	<g>
		<g>
			<path class="st3" d="M156.7,272.7c0,0,0.1,0,0.4,0.1c0.3,0,0.7,0,1.2,0.1c1,0,2.5,0.1,4.4,0.3c3.7,0.3,8.8,0.8,14.5,1.7
				c5.6,0.9,10.7,1.9,14.3,2.7c1.8,0.4,3.3,0.8,4.3,1c0.5,0.1,0.8,0.2,1.2,0.3c0.3,0.1,0.4,0.1,0.4,0.1c0,0-0.1-0.1-0.4-0.2
				c-0.3-0.1-0.7-0.2-1.1-0.4c-1-0.3-2.5-0.7-4.3-1.2c-3.6-0.9-8.7-2-14.3-2.8c-5.6-0.9-10.8-1.4-14.5-1.5c-1.9-0.1-3.4-0.1-4.4-0.1
				c-0.5,0-0.9,0-1.2,0C156.9,272.7,156.7,272.7,156.7,272.7z"/>
		</g>
	</g>
	<g>
		<g>
			<path class="st3" d="M216.5,322.6c0,0,0.1-0.2,0.3-0.5c0.2-0.4,0.4-0.9,0.6-1.5c0.5-1.3,1.3-3.1,2.2-5.5
				c1.8-4.6,4.1-11.1,6.5-18.3c2.4-7.2,4.7-13.7,6.4-18.4c0.8-2.3,1.5-4.2,2-5.5c0.2-0.6,0.4-1.1,0.6-1.5c0.1-0.3,0.2-0.5,0.2-0.5
				c0,0-0.1,0.2-0.3,0.5c-0.2,0.4-0.4,0.9-0.6,1.5c-0.5,1.3-1.3,3.1-2.2,5.5c-1.8,4.6-4.1,11.1-6.5,18.3c-2.4,7.2-4.7,13.7-6.4,18.3
				c-0.9,2.3-1.5,4.2-2,5.5c-0.2,0.6-0.4,1.1-0.6,1.5C216.5,322.4,216.5,322.6,216.5,322.6z"/>
		</g>
	</g>
	<g>
		<g>
			<path class="st3" d="M162.2,307.3c0,0,0.2,0.1,0.5,0.2c0.4,0.1,0.9,0.3,1.6,0.5c1.4,0.4,3.4,1,5.8,1.6c4.9,1.4,11.7,3.4,19.1,5.6
				c7.5,2.2,14.3,4.2,19.2,5.5c2.5,0.7,4.5,1.2,5.9,1.5c0.7,0.2,1.2,0.3,1.6,0.4c0.4,0.1,0.6,0.1,0.6,0.1c0,0-0.2-0.1-0.5-0.2
				c-0.4-0.1-0.9-0.3-1.6-0.5c-1.4-0.4-3.4-1-5.8-1.6c-4.9-1.4-11.7-3.4-19.1-5.6c-7.5-2.2-14.2-4.2-19.2-5.5
				c-2.5-0.7-4.5-1.2-5.9-1.5c-0.7-0.2-1.2-0.3-1.6-0.4C162.4,307.3,162.2,307.3,162.2,307.3z"/>
		</g>
	</g>
</g>
</svg>
