<?xml version="1.0" encoding="utf-8"?>
<!-- Generator: Adobe Illustrator 25.4.1, SVG Export Plug-In . SVG Version: 6.00 Build 0)  -->
<svg version="1.1" xmlns="http://www.w3.org/2000/svg" xmlns:xlink="http://www.w3.org/1999/xlink" x="0px" y="0px"
	 viewBox="0 0 24 24" style="enable-background:new 0 0 24 24;" xml:space="preserve">
<style type="text/css">
	.st0{fill:#2B2B2B;}
</style>
<g>
	<path d="M15.5,22.7h-7c-3.4,0-5.7-2.3-5.7-5.7V7c0-3.4,2.3-5.7,5.7-5.7h7c3.4,0,5.7,2.3,5.7,5.7v10
		C21.2,20.4,18.9,22.7,15.5,22.7z M8.5,2.8C5.9,2.8,4.3,4.5,4.3,7v10c0,2.6,1.7,4.2,4.2,4.2h7c2.6,0,4.2-1.7,4.2-4.2V7
		c0-2.6-1.7-4.2-4.2-4.2H8.5z"/>
	<path d="M20.5,15.7H3.5c-0.4,0-0.7-0.3-0.7-0.7s0.3-0.7,0.7-0.7h16.9c0.4,0,0.7,0.3,0.7,0.7S20.9,15.7,20.5,15.7z"/>
	<path d="M7.5,12.7h-1c-0.4,0-0.7-0.3-0.7-0.7s0.3-0.7,0.7-0.7h1c0.4,0,0.7,0.3,0.7,0.7S7.9,12.7,7.5,12.7z"/>
	<path d="M7.5,10.3h-1c-0.4,0-0.7-0.3-0.7-0.7s0.3-0.7,0.7-0.7h1c0.4,0,0.7,0.3,0.7,0.7S7.9,10.3,7.5,10.3z"/>
	<path d="M7.5,7.8h-1C6.1,7.8,5.8,7.4,5.8,7s0.3-0.7,0.7-0.7h1c0.4,0,0.7,0.3,0.7,0.7S7.9,7.8,7.5,7.8z"/>
	<path d="M16.5,19.5c-0.3,0-0.5-0.1-0.7-0.3c-0.2-0.2-0.3-0.4-0.3-0.7c0-0.3,0.1-0.5,0.3-0.7c0.3-0.3,0.7-0.4,1.1-0.2
		c0.1,0,0.2,0.1,0.3,0.2c0.2,0.2,0.3,0.4,0.3,0.7c0,0.3-0.1,0.5-0.3,0.7c-0.1,0.1-0.2,0.2-0.3,0.2C16.7,19.4,16.6,19.5,16.5,19.5z"
		/>
</g>
</svg>
