<?xml version="1.0" encoding="utf-8"?>
<!-- Generator: Adobe Illustrator 25.4.1, SVG Export Plug-In . SVG Version: 6.00 Build 0)  -->
<svg version="1.1" xmlns="http://www.w3.org/2000/svg" xmlns:xlink="http://www.w3.org/1999/xlink" x="0px" y="0px"
	 viewBox="0 0 24 24" style="enable-background:new 0 0 24 24;" xml:space="preserve">
<style type="text/css">
	.st0{fill:#2B2B2B;}
</style>
<path d="M12.1,22.8c-1.2,0-2.3-0.5-3.1-1.3l-6.4-6.4c-0.8-0.8-1.3-1.9-1.3-3.1s0.4-2.3,1.3-3.1L9,2.5
	c0.8-0.8,1.9-1.3,3.1-1.3s2.3,0.4,3.1,1.3l6.4,6.4c0.8,0.8,1.3,1.9,1.3,3.1s-0.4,2.3-1.3,3.1l-6.4,6.4
	C14.4,22.3,13.3,22.8,12.1,22.8z M12.1,2.8c-0.8,0-1.5,0.3-2,0.8L3.7,10c-0.5,0.5-0.8,1.3-0.8,2s0.3,1.5,0.8,2l6.4,6.4
	c1.1,1.1,3,1.1,4,0l6.4-6.4c0.5-0.5,0.8-1.2,0.8-2s-0.3-1.5-0.8-2l-6.4-6.4C13.6,3.1,12.9,2.8,12.1,2.8z"/>
<path d="M17.8,18.5c-0.2,0-0.4-0.1-0.5-0.2L5.8,6.8C5.5,6.5,5.5,6,5.8,5.7s0.8-0.3,1.1,0l11.5,11.5
	c0.3,0.3,0.3,0.8,0,1.1C18.2,18.4,18,18.5,17.8,18.5z"/>
<path d="M6.3,18.5c-0.2,0-0.4-0.1-0.5-0.2c-0.3-0.3-0.3-0.8,0-1.1L17.3,5.7c0.3-0.3,0.8-0.3,1.1,0
	c0.3,0.3,0.3,0.8,0,1.1L6.9,18.3C6.7,18.4,6.5,18.5,6.3,18.5z"/>
</svg>
