<?xml version="1.0" encoding="utf-8"?>
<!-- Generator: Adobe Illustrator 23.0.3, SVG Export Plug-In . SVG Version: 6.00 Build 0)  -->
<svg version="1.1" id="Layer_1" xmlns="http://www.w3.org/2000/svg" xmlns:xlink="http://www.w3.org/1999/xlink" x="0px" y="0px"
	 viewBox="0 0 36 36" style="enable-background:new 0 0 36 36;" xml:space="preserve">
<style type="text/css">
	.st0{fill:#2B2B2B;}
</style>
<g>
	<path class="st0" d="M7.3,6.5h21c0.8,0,1.6,0.3,2.1,0.9C31,8,31.3,8.7,31.3,9.5v18c0,0.8-0.3,1.6-0.9,2.1c-0.6,0.6-1.3,0.9-2.1,0.9
		h-21c-0.8,0-1.6-0.3-2.1-0.9c-0.6-0.6-0.9-1.3-0.9-2.1v-18c0-0.8,0.3-1.6,0.9-2.1C5.7,6.8,6.4,6.5,7.3,6.5z M7.3,12.5v6h9v-6H7.3z
		 M7.3,21.5v6h9v-6H7.3z M19.2,12.5v6h9v-6H19.2z M19.2,21.5v6h9v-6H19.2z"/>
</g>
</svg>
