<?xml version="1.0" encoding="utf-8"?>
<!-- Generator: Adobe Illustrator 25.4.1, SVG Export Plug-In . SVG Version: 6.00 Build 0)  -->
<svg version="1.1" xmlns="http://www.w3.org/2000/svg" xmlns:xlink="http://www.w3.org/1999/xlink" x="0px" y="0px"
	 viewBox="0 0 24 24" style="enable-background:new 0 0 24 24;" xml:space="preserve">
<style type="text/css">
	.st0{fill:#2B2B2B;}
</style>
<path d="M15,22.8H9c-5.4,0-7.8-2.3-7.8-7.8V9c0-5.4,2.3-7.8,7.8-7.8h6c5.4,0,7.8,2.3,7.8,7.8v6
	C22.8,20.4,20.4,22.8,15,22.8z M9,2.8C4.4,2.8,2.8,4.4,2.8,9v6c0,4.6,1.6,6.2,6.2,6.2h6c4.6,0,6.2-1.6,6.2-6.2V9
	c0-4.6-1.6-6.2-6.2-6.2H9z"/>
<path d="M22,9.2H2c-0.4,0-0.8-0.3-0.8-0.8S1.6,7.8,2,7.8h20c0.4,0,0.8,0.3,0.8,0.8S22.4,9.2,22,9.2z"/>
<path d="M22,16.2H2c-0.4,0-0.8-0.3-0.8-0.8s0.3-0.8,0.8-0.8h20c0.4,0,0.8,0.3,0.8,0.8S22.4,16.2,22,16.2z"/>
<path d="M8.5,22.7c-0.4,0-0.8-0.3-0.8-0.8V2c0-0.4,0.3-0.7,0.8-0.7c0.4,0,0.8,0.3,0.8,0.7v20
	C9.3,22.4,8.9,22.7,8.5,22.7z"/>
<path d="M15.5,22.7c-0.4,0-0.8-0.3-0.8-0.8V2c0-0.4,0.3-0.7,0.8-0.7s0.8,0.3,0.8,0.7v20C16.3,22.4,15.9,22.7,15.5,22.7z
	"/>
</svg>
