<?xml version="1.0" encoding="utf-8"?>
<!-- Generator: Adobe Illustrator 25.4.1, SVG Export Plug-In . SVG Version: 6.00 Build 0)  -->
<svg version="1.1" xmlns="http://www.w3.org/2000/svg" xmlns:xlink="http://www.w3.org/1999/xlink" x="0px" y="0px"
	 viewBox="0 0 24 24" style="enable-background:new 0 0 24 24;" xml:space="preserve">
<style type="text/css">
	.st0{fill:#2B2B2B;}
</style>
<g>
	<path d="M11.1,18.2c-0.2,0-0.4-0.1-0.5-0.2l-1.5-1.5c-0.3-0.3-0.3-0.8,0-1.1s0.8-0.3,1.1,0l1,1l2.7-2.5
		c0.3-0.3,0.8-0.3,1.1,0s0.3,0.8,0,1.1l-3.2,3C11.5,18.2,11.3,18.2,11.1,18.2z"/>
	<path d="M5.2,6.4C5,6.4,4.8,6.3,4.7,6.2c-0.3-0.3-0.3-0.8,0-1.1l3.6-3.6c0.3-0.3,0.8-0.3,1.1,0s0.3,0.8,0,1.1L5.7,6.2
		C5.6,6.3,5.4,6.4,5.2,6.4z"/>
	<path d="M18.8,6.4c-0.2,0-0.4-0.1-0.5-0.2l-3.6-3.6c-0.3-0.3-0.3-0.8,0-1.1s0.8-0.3,1.1,0l3.6,3.6
		c0.3,0.3,0.3,0.8,0,1.1C19.2,6.3,19,6.4,18.8,6.4z"/>
	<path d="M20.2,10.6c-0.1,0-0.1,0-0.2,0h-0.2H4c-0.7,0-1.5,0-2.1-0.6C1.5,9.6,1.2,8.9,1.2,7.9c0-2.8,2-2.8,3-2.8h15.6
		c1,0,3,0,3,2.8c0,1-0.2,1.7-0.7,2.2C21.6,10.6,20.9,10.6,20.2,10.6z M4.2,9.1H20c0.4,0,0.9,0,1-0.1s0.2-0.3,0.2-1.1
		c0-1.1-0.3-1.2-1.5-1.2H4.2C3,6.6,2.8,6.7,2.8,7.9C2.8,8.7,3,8.9,3,9c0.1,0.1,0.6,0.1,1,0.1H4.2z"/>
	<path d="M14.9,22.8h-6c-3.6,0-4.4-2.1-4.7-4l-1.4-8.7C2.7,9.7,3,9.3,3.4,9.3c0.4-0.1,0.8,0.2,0.9,0.6l1.4,8.6
		c0.3,1.8,0.9,2.7,3.2,2.7h6c2.6,0,2.9-0.9,3.2-2.6l1.7-8.8c0.1-0.4,0.5-0.7,0.9-0.6c0.4,0.1,0.7,0.5,0.6,0.9l-1.7,8.8
		C19.2,20.9,18.5,22.8,14.9,22.8z"/>
</g>
</svg>
