<svg id="Layer_1" data-name="Layer 1" xmlns="http://www.w3.org/2000/svg" viewBox="0 0 49.54 32.46"><title>2</title><g id="_Group_" data-name="&lt;Group&gt;"><rect id="_Rectangle_" data-name="&lt;Rectangle&gt;" width="49.54" height="32.46" rx="16.23" ry="16.23" style="fill:#316cff"/></g><polygon id="_Path_" data-name="&lt;Path&gt;" points="17.62 13.71 12.86 13.71 12.86 8.94 9.7 8.94 9.7 13.71 4.94 13.71 4.94 16.86 9.7 16.86 9.7 21.62 12.86 21.62 12.86 16.86 17.62 16.86 17.62 13.71 17.62 13.71" style="fill:#fff"/><g id="_Group_2" data-name="&lt;Group&gt;"><g id="_Group_3" data-name="&lt;Group&gt;"><path id="_Compound_Path_" data-name="&lt;Compound Path&gt;" d="M390.27,680.23l-2.25,6a1,1,0,0,1-.94.65H376.91l0.39,1.29a1,1,0,0,0,1,.71h9.08v2h-9.08a3,3,0,0,1-2.87-2.13l-3.11-10.22a1,1,0,0,0-.94-0.66h-2v-2h2a3,3,0,0,1,2.85,2.05l0.29,0.95h14.86A1,1,0,0,1,390.27,680.23Zm-13.44,11.65a1.5,1.5,0,1,0,1.5,1.5A1.5,1.5,0,0,0,376.83,691.88Zm10,0a1.5,1.5,0,1,0,1.5,1.5A1.5,1.5,0,0,0,386.83,691.88Z" transform="translate(-348.14 -670.1)" style="fill:#fff"/></g></g></svg>