<svg id="Layer_1" data-name="Layer 1" xmlns="http://www.w3.org/2000/svg" viewBox="0 0 87.54 32.46"><title>12</title><g id="_Group_" data-name="&lt;Group&gt;"><rect id="_Rectangle_" data-name="&lt;Rectangle&gt;" width="87.54" height="32.46" rx="16.23" ry="16.23" style="fill:#316cff"/><g id="_Group_2" data-name="&lt;Group&gt;"><path id="_Compound_Path_" data-name="&lt;Compound Path&gt;" d="M343.07,690.3l0.09-.67,0.79-.5,1.89-4.71,1.69-.32,1.9,5,0.72,0.45-0.06.72h-3.54l0.08-.67,0.81-.51-0.19-.55h-1.91l-0.18.55,0.92,0.45-0.07.72h-3Zm2.63-2.74h1.23l-0.62-1.82Z" transform="translate(-334.25 -671.18)" style="fill:#fff"/><path id="_Compound_Path_2" data-name="&lt;Compound Path&gt;" d="M350.41,690.3l0.11-.67,0.88-.5V685.4l-0.84-.22,0-.77a17.13,17.13,0,0,1,2.59-.25,11,11,0,0,1,1.56.09,5,5,0,0,1,1,.24,3.2,3.2,0,0,1,.73.37,2.4,2.4,0,0,1,.51.47,2.3,2.3,0,0,1,.32.56,3.18,3.18,0,0,1,.22,1.2,2.71,2.71,0,0,1-.29,1.24,3.26,3.26,0,0,1-.81,1,3.9,3.9,0,0,1-1.29.7,5.19,5.19,0,0,1-1.68.26h-3Zm2.8-1h0.37a1.68,1.68,0,0,0,1.87-1.25,2.64,2.64,0,0,0,.08-0.64,2.59,2.59,0,0,0-.08-0.63,2.4,2.4,0,0,0-.25-0.6,2.18,2.18,0,0,0-.42-0.53,2.1,2.1,0,0,0-1.48-.51h0s0,0,0,0h-0.05v4.15Z" transform="translate(-334.25 -671.18)" style="fill:#fff"/><path id="_Compound_Path_3" data-name="&lt;Compound Path&gt;" d="M357.75,690.3l0.11-.67,0.88-.5V685.4l-0.84-.22,0-.77a17.13,17.13,0,0,1,2.59-.25,11,11,0,0,1,1.56.09,5,5,0,0,1,1,.24,3.2,3.2,0,0,1,.73.37,2.4,2.4,0,0,1,.51.47,2.3,2.3,0,0,1,.32.56,3.18,3.18,0,0,1,.22,1.2,2.71,2.71,0,0,1-.29,1.24,3.26,3.26,0,0,1-.81,1,3.9,3.9,0,0,1-1.29.7,5.19,5.19,0,0,1-1.68.26h-3Zm2.8-1h0.37a1.68,1.68,0,0,0,1.87-1.25,2.64,2.64,0,0,0,.08-0.64,2.59,2.59,0,0,0-.08-0.63,2.4,2.4,0,0,0-.25-0.6,2.18,2.18,0,0,0-.42-0.53,2.1,2.1,0,0,0-1.48-.51h0s0,0,0,0h-0.05v4.15Z" transform="translate(-334.25 -671.18)" style="fill:#fff"/><path id="_Compound_Path_4" data-name="&lt;Compound Path&gt;" d="M368.4,684.23h6.17l-0.16,2.19-0.89-.15-0.31-1.2h-0.9v4.22l1,0.27-0.08.75h-3.6l0.06-.68,0.86-.34v-4.21h-0.88l-0.42,1.4-0.83-.13v-2.11Z" transform="translate(-334.25 -671.18)" style="fill:#fff"/><path id="_Compound_Path_5" data-name="&lt;Compound Path&gt;" d="M374.82,687.28a2.92,2.92,0,0,1,1-2.3,3.92,3.92,0,0,1,2.69-.87q2.68,0,3.3,2a4.31,4.31,0,0,1,.17,1.26,2.93,2.93,0,0,1-.3,1.32,2.71,2.71,0,0,1-.81,1,4.38,4.38,0,0,1-2.7.8,3.35,3.35,0,0,1-2.53-.88A3.16,3.16,0,0,1,374.82,687.28Zm3.59,2.23q1.28,0,1.28-2a5.26,5.26,0,0,0-.07-0.84,3.45,3.45,0,0,0-.18-0.7,2.91,2.91,0,0,0-.25-0.49,1.07,1.07,0,0,0-1-.51Q377,685,377,687a4.11,4.11,0,0,0,.13,1.05,3.77,3.77,0,0,0,.27.76,1.36,1.36,0,0,0,.41.47A1,1,0,0,0,378.41,689.5Z" transform="translate(-334.25 -671.18)" style="fill:#fff"/><path id="_Compound_Path_6" data-name="&lt;Compound Path&gt;" d="M385.52,687.45a3.5,3.5,0,0,1,.47-1.8,3,3,0,0,1,.68-0.8,3.22,3.22,0,0,1,1.08-.55,4.4,4.4,0,0,1,1.35-.21,5.43,5.43,0,0,1,1.26.14,2.19,2.19,0,0,1,.84.35L391,686.65l-0.83-.11-0.31-1.13a1.07,1.07,0,0,0-.42-0.31A1.32,1.32,0,0,0,389,685a1.39,1.39,0,0,0-1.16.46,2.28,2.28,0,0,0-.36,1.42q0,2.45,2,2.45a2.6,2.6,0,0,0,1.59-.53l0.29,0.66a2.59,2.59,0,0,1-1,.73,3.73,3.73,0,0,1-1.51.28,3.51,3.51,0,0,1-2.5-.78A2.89,2.89,0,0,1,385.52,687.45Z" transform="translate(-334.25 -671.18)" style="fill:#fff"/><path id="_Compound_Path_7" data-name="&lt;Compound Path&gt;" d="M391.84,690.3l0.09-.67,0.79-.5,1.89-4.71,1.69-.32,1.9,5,0.72,0.45-0.06.72h-3.54l0.08-.67,0.81-.51-0.19-.55h-1.91l-0.18.55,0.92,0.45-0.07.72h-3Zm2.63-2.74h1.23l-0.62-1.82Z" transform="translate(-334.25 -671.18)" style="fill:#fff"/><path id="_Compound_Path_8" data-name="&lt;Compound Path&gt;" d="M399.18,690.3l0.09-.67,0.93-.39v-3.8l-0.94-.23,0.06-.78q0.54-.09,1.56-0.17t1.55-.08a4.63,4.63,0,0,1,2.16.39,1.37,1.37,0,0,1,.71,1.31,1.74,1.74,0,0,1-.91,1.47,2,2,0,0,1-.44.22h0l0.59,0.79a3.93,3.93,0,0,0,1.08,1.08,1.87,1.87,0,0,0,.48.18l0.19,0-0.15.64a3.67,3.67,0,0,1-1.06.14,2.26,2.26,0,0,1-1.37-.39,3.1,3.1,0,0,1-.9-1.13l-0.44-.86H402v1.12l0.7,0.36-0.06.76h-3.47Zm3.57-3.26a1,1,0,0,0,.58-0.94,1,1,0,0,0-.32-0.74,1.17,1.17,0,0,0-.84-0.31H402v2h0.75Z" transform="translate(-334.25 -671.18)" style="fill:#fff"/><path id="_Compound_Path_9" data-name="&lt;Compound Path&gt;" d="M406.54,684.23h6.17l-0.16,2.19-0.89-.15-0.31-1.2h-0.9v4.22l1,0.27-0.08.75h-3.6l0.06-.68,0.86-.34v-4.21h-0.88l-0.42,1.4-0.83-.13v-2.11Z" transform="translate(-334.25 -671.18)" style="fill:#fff"/></g></g></svg>