<?xml version="1.0" encoding="utf-8"?>
<!-- Generator: Adobe Illustrator 23.0.3, SVG Export Plug-In . SVG Version: 6.00 Build 0)  -->
<svg version="1.1" id="Layer_1" xmlns="http://www.w3.org/2000/svg" xmlns:xlink="http://www.w3.org/1999/xlink" x="0px" y="0px"
	 viewBox="0 0 36 36" style="enable-background:new 0 0 36 36;" xml:space="preserve">
<style type="text/css">
	.st0{fill:#2B2B2B;}
</style>
<g>
	<path class="st0" d="M31.9,7.4c0.6,0.6,0.9,1.3,0.9,2.1v13c-1.1-1.6-2.6-2.8-4.4-3.5c-1.9-0.7-3.8-0.7-5.7-0.1
		c-1.9,0.6-3.4,1.7-4.6,3.3c-1.2,1.6-1.8,3.4-1.8,5.3c0,1,0.2,2,0.5,3h-11c-0.8,0-1.5-0.3-2.1-0.9c-0.6-0.6-0.9-1.3-0.9-2.1v-18
		c0-0.8,0.3-1.6,0.9-2.1c0.6-0.6,1.3-0.9,2.1-0.9h24C30.6,6.5,31.3,6.8,31.9,7.4z M29.8,9.5l-12,7.5l-12-7.5v3l12,7.5l12-7.5V9.5z
		 M19.2,30.5h6V35l7.5-6.8l-7.5-6.8V26h-6V30.5z"/>
</g>
</svg>
