<?xml version="1.0" encoding="utf-8"?>
<!-- Generator: Adobe Illustrator 25.4.1, SVG Export Plug-In . SVG Version: 6.00 Build 0)  -->
<svg version="1.1" id="Layer_1" xmlns="http://www.w3.org/2000/svg" xmlns:xlink="http://www.w3.org/1999/xlink" x="0px" y="0px"
	 viewBox="0 0 24 24" style="enable-background:new 0 0 24 24;" xml:space="preserve">
<style type="text/css">
	.st0{fill:#292D32;}
</style>
<path class="st0" d="M17,21.2H7c-3.7,0-5.8-2.1-5.8-5.8v-7c0-3.7,2.1-5.8,5.8-5.8h5c0.4,0,0.8,0.3,0.8,0.8S12.4,4.2,12,4.2H7
	c-2.9,0-4.2,1.4-4.2,4.2v7c0,2.9,1.4,4.2,4.2,4.2h10c2.9,0,4.2-1.4,4.2-4.2v-4c0-0.4,0.3-0.8,0.8-0.8s0.8,0.3,0.8,0.8v4
	C22.8,19.1,20.6,21.2,17,21.2z"/>
<path class="st0" d="M12,12.9c-0.8,0-1.7-0.3-2.3-0.8L6.5,9.6c-0.3-0.3-0.4-0.7-0.1-1c0.3-0.3,0.7-0.4,1-0.1l3.1,2.5
	c0.8,0.6,2,0.6,2.8,0c0.3-0.3,0.8-0.2,1.1,0.1c0.3,0.3,0.2,0.8-0.1,1C13.7,12.6,12.8,12.9,12,12.9z"/>
<path class="st0" d="M16.7,9.8c-0.4,0-0.7-0.1-0.9-0.3c-0.3-0.2-0.8-0.8-0.5-2.2l0.1-0.2c0-0.1,0-0.3-0.1-0.3l-0.4-0.4
	c-0.6-0.6-0.8-1.3-0.6-1.9c0.2-0.6,0.8-1.1,1.6-1.2l0.4-0.1c0.1,0,0.2-0.1,0.2-0.2l0.3-0.6c0.4-0.8,1-1.2,1.6-1.2s1.3,0.4,1.6,1.2
	l0.3,0.6c0,0.1,0.2,0.2,0.2,0.2l0.4,0.1c0.8,0.1,1.4,0.6,1.6,1.2c0.2,0.6,0,1.3-0.6,1.9l-0.4,0.4c0,0.1-0.1,0.2-0.1,0.3l0,0.2
	c0.3,1.3-0.2,1.9-0.5,2.2s-1,0.5-2.2-0.2l-0.2-0.2c-0.1,0-0.3,0-0.3,0l-0.3,0.2C17.5,9.6,17.1,9.8,16.7,9.8z M18.5,2.8
	c0,0-0.1,0.1-0.3,0.4l-0.3,0.6c-0.2,0.5-0.8,0.9-1.3,1l-0.4,0.1c-0.3,0.1-0.4,0.2-0.4,0.2c0,0,0,0.2,0.3,0.4l0.4,0.4
	c0.4,0.4,0.6,1.1,0.5,1.7l-0.1,0.2c-0.1,0.4,0,0.5,0,0.6c0,0,0.2,0,0.5-0.2l0.3-0.2c0.6-0.3,1.3-0.3,1.9,0L19.7,8
	c0.3,0.2,0.5,0.2,0.6,0.2c0,0,0-0.2-0.1-0.6l0-0.2c-0.1-0.6,0.1-1.3,0.5-1.7L21,5.4C21.2,5.1,21.3,5,21.3,5c0,0-0.1-0.1-0.4-0.2
	l-0.4-0.1c-0.5-0.1-1.1-0.5-1.3-1l-0.3-0.6C18.7,2.9,18.5,2.8,18.5,2.8z"/>
</svg>
