<?xml version="1.0" encoding="utf-8"?>
<!-- Generator: Adobe Illustrator 25.4.1, SVG Export Plug-In . SVG Version: 6.00 Build 0)  -->
<svg version="1.1" xmlns="http://www.w3.org/2000/svg" xmlns:xlink="http://www.w3.org/1999/xlink" x="0px" y="0px"
	 viewBox="0 0 24 24" style="enable-background:new 0 0 24 24;" xml:space="preserve">
<style type="text/css">
	.st0{fill:#2B2B2B;}
</style>
<g>
	<path d="M17,22H7c-3.7,0-5.8-2.1-5.8-5.8v-7c0-3.7,2.1-5.8,5.8-5.8h5c0.4,0,0.8,0.3,0.8,0.8S12.4,5,12,5H7
		C4.1,5,2.8,6.4,2.8,9.2v7c0,2.9,1.4,4.2,4.2,4.2h10c2.9,0,4.2-1.4,4.2-4.2v-4c0-0.4,0.3-0.8,0.8-0.8s0.8,0.3,0.8,0.8v4
		C22.8,19.9,20.6,22,17,22z"/>
	<path d="M12,13.7c-0.8,0-1.7-0.3-2.3-0.8l-3.2-2.5c-0.3-0.3-0.4-0.7-0.1-1s0.7-0.4,1-0.1l3.1,2.5c0.8,0.6,2,0.6,2.8,0
		c0.3-0.3,0.8-0.2,1.1,0.1c0.3,0.3,0.2,0.8-0.1,1C13.7,13.4,12.8,13.7,12,13.7z"/>
	<path d="M16.7,10.6c-0.4,0-0.7-0.1-0.9-0.3c-0.3-0.2-0.8-0.8-0.5-2.2l0.1-0.2c0-0.1,0-0.3-0.1-0.3l-0.4-0.4
		c-0.6-0.6-0.8-1.3-0.6-1.9c0.2-0.6,0.8-1.1,1.6-1.2L16.3,4c0.1,0,0.2-0.1,0.2-0.2l0.3-0.6c0.4-0.8,1-1.2,1.6-1.2s1.3,0.4,1.6,1.2
		l0.3,0.6c0,0.1,0.2,0.2,0.2,0.2l0.4,0.1c0.8,0.1,1.4,0.6,1.6,1.2s0,1.3-0.6,1.9l-0.4,0.4c0,0.1-0.1,0.2-0.1,0.3v0.2
		c0.3,1.3-0.2,1.9-0.5,2.2s-1,0.5-2.2-0.2l-0.2-0.2c-0.1,0-0.3,0-0.3,0l-0.3,0.2C17.5,10.4,17.1,10.6,16.7,10.6z M18.5,3.6
		c0,0-0.1,0.1-0.3,0.4l-0.3,0.6c-0.2,0.5-0.8,0.9-1.3,1l-0.4,0.1c-0.3,0.1-0.4,0.2-0.4,0.2s0,0.2,0.3,0.4l0.4,0.4
		c0.4,0.4,0.6,1.1,0.5,1.7l-0.1,0.2c-0.1,0.4,0,0.5,0,0.6c0,0,0.2,0,0.5-0.2l0.3-0.2c0.6-0.3,1.3-0.3,1.9,0l0.1,0
		C20,9,20.2,9,20.3,9c0,0,0-0.2-0.1-0.6V8.2c-0.1-0.6,0.1-1.3,0.5-1.7L21,6.2c0.2-0.3,0.3-0.4,0.3-0.4s-0.1-0.1-0.4-0.2l-0.4-0.1
		c-0.5-0.1-1.1-0.5-1.3-1l-0.3-0.6C18.7,3.7,18.5,3.6,18.5,3.6z"/>
</g>
</svg>
