<svg id="Layer_1" data-name="Layer 1" xmlns="http://www.w3.org/2000/svg" viewBox="0 0 65.99 30.66"><title>13</title><g id="_Group_" data-name="&lt;Group&gt;"><path id="_Path_" data-name="&lt;Path&gt;" d="M450.5,698.25l2.94-11v-3.93c0-4,3.54-7.3,7.9-7.3l47.25-4.87c4.37,0,7.9,3.27,7.9,7.3,0,0-4.73,22-10.54,23.36l-44.62-3.89a8.2,8.2,0,0,1-5.81-2.35Z" transform="translate(-450.5 -671.15)" style="fill:#07496a"/></g><g id="_Group_2" data-name="&lt;Group&gt;"><path id="_Compound_Path_" data-name="&lt;Compound Path&gt;" d="M459.15,687.2a0.12,0.12,0,0,1-.14-0.11l-0.74-7.19a0.14,0.14,0,0,1,.13-0.16l2-.2a2.55,2.55,0,0,1,3.05,2.53l0.19,1.85a2.6,2.6,0,0,1-2.4,3.07Zm2-5.48a0.27,0.27,0,0,0-.12-0.22,0.4,0.4,0,0,0-.19,0s-0.06,0-.06.1l0.34,3.3c0,0.06,0,.08.07,0.07a0.26,0.26,0,0,0,.25-0.32Z" transform="translate(-450.5 -671.15)" style="fill:#9ab73a"/><path id="_Compound_Path_2" data-name="&lt;Compound Path&gt;" d="M465.37,686.56a0.15,0.15,0,0,1-.16-0.13l-0.75-7.21a0.1,0.1,0,0,1,.09-0.11l1.87-.19a0.11,0.11,0,0,1,.14.09l0.75,7.23a0.14,0.14,0,0,1-.12.14Z" transform="translate(-450.5 -671.15)" style="fill:#9ab73a"/><path id="_Compound_Path_3" data-name="&lt;Compound Path&gt;" d="M471.09,680.86a0.13,0.13,0,0,1-.14-0.1,0.38,0.38,0,0,0-.36-0.32,0.16,0.16,0,0,0-.15.2,2.18,2.18,0,0,0,1.28,1,2.41,2.41,0,0,1,1.44,1.76A2.26,2.26,0,0,1,471.1,686c-1.66.17-2.54-.84-2.7-2.43a0.11,0.11,0,0,1,.12-0.11l1.5-.23a0.12,0.12,0,0,1,.14.12,0.84,0.84,0,0,0,.58.77,0.26,0.26,0,0,0,.22-0.34,3.75,3.75,0,0,0-1.47-1.07,2.5,2.5,0,0,1-1.29-1.85,2.19,2.19,0,0,1,2.07-2.35,2.25,2.25,0,0,1,2.6,2,0.12,0.12,0,0,1-.12.14Z" transform="translate(-450.5 -671.15)" style="fill:#9ab73a"/><path id="_Compound_Path_4" data-name="&lt;Compound Path&gt;" d="M474.22,681c-0.19-1.81.63-3,2.13-3.11a2.44,2.44,0,0,1,2.71,2.41c0,0.27,0,.3-0.07.31l-2,.28a0.2,0.2,0,0,1-.22-0.18l-0.06-.63a0.17,0.17,0,0,0-.19-0.17,0.18,0.18,0,0,0-.16.2l0.32,3.09a0.17,0.17,0,0,0,.19.15,0.17,0.17,0,0,0,.16-0.2l-0.1-1A0.13,0.13,0,0,1,477,682l2.07-.14a0.08,0.08,0,0,1,.1.07c0.25,2.4-.75,3.33-2.12,3.48a2.44,2.44,0,0,1-2.64-2.42Z" transform="translate(-450.5 -671.15)" style="fill:#9ab73a"/><path id="_Compound_Path_5" data-name="&lt;Compound Path&gt;" d="M480.3,679.77a2.28,2.28,0,1,1,4.54-.47l0.3,2.94a2.28,2.28,0,1,1-4.54.47Zm2.4,2.7a0.19,0.19,0,1,0,.35,0l-0.3-2.88a0.23,0.23,0,0,0-.2-0.25,0.23,0.23,0,0,0-.15.29Z" transform="translate(-450.5 -671.15)" style="fill:#9ab73a"/><path id="_Compound_Path_6" data-name="&lt;Compound Path&gt;" d="M487.92,676.69a0.11,0.11,0,0,1,.13.1l0.52,5a0.18,0.18,0,0,0,.21.2,0.18,0.18,0,0,0,.16-0.23l-0.53-5.07a0.12,0.12,0,0,1,.11-0.11l1.84-.19a0.11,0.11,0,0,1,.13.09l0.55,5.33a2.3,2.3,0,0,1-4.54.47L486,677a0.1,0.1,0,0,1,.1-0.12Z" transform="translate(-450.5 -671.15)" style="fill:#9ab73a"/><path id="_Compound_Path_7" data-name="&lt;Compound Path&gt;" d="M491.93,676.4a0.13,0.13,0,0,1,.11-0.14l1.84-.19a0.15,0.15,0,0,1,.17.1l0.89,2.17a0.15,0.15,0,0,0,.09.11s0.06,0,.05-0.14l-0.23-2.22A0.13,0.13,0,0,1,495,676l1.64-.17a0.14,0.14,0,0,1,.16.12l0.74,7.19a0.12,0.12,0,0,1-.11.14l-2,.21a0.13,0.13,0,0,1-.13-0.09l-0.67-1.74a0.15,0.15,0,0,0-.11-0.13s-0.05,0,0,.15l0.18,1.76a0.14,0.14,0,0,1-.13.14l-1.66.17a0.12,0.12,0,0,1-.12-0.13Z" transform="translate(-450.5 -671.15)" style="fill:#9ab73a"/><path id="_Compound_Path_8" data-name="&lt;Compound Path&gt;" d="M500.4,682.93a0.15,0.15,0,0,1-.17-0.12l-0.54-5.19a0.13,0.13,0,0,0-.15-0.1l-1.09.11a0.17,0.17,0,0,1-.16-0.12l-0.18-1.77a0.09,0.09,0,0,1,.09-0.11l4.67-.48a0.13,0.13,0,0,1,.15.1L503.2,677a0.15,0.15,0,0,1-.14.16l-1.09.11a0.13,0.13,0,0,0-.12.15l0.54,5.18a0.14,0.14,0,0,1-.14.14Z" transform="translate(-450.5 -671.15)" style="fill:#9ab73a"/><path id="_Compound_Path_9" data-name="&lt;Compound Path&gt;" d="M507.49,677.09a0.13,0.13,0,0,1-.14-0.1,0.38,0.38,0,0,0-.36-0.32,0.16,0.16,0,0,0-.15.2,2.18,2.18,0,0,0,1.28,1,2.4,2.4,0,0,1,1.44,1.76,2.26,2.26,0,0,1-2.05,2.63c-1.66.17-2.54-.84-2.7-2.43a0.11,0.11,0,0,1,.12-0.11l1.5-.23a0.12,0.12,0,0,1,.14.12,0.84,0.84,0,0,0,.58.77,0.26,0.26,0,0,0,.22-0.34,3.75,3.75,0,0,0-1.47-1.07,2.5,2.5,0,0,1-1.29-1.85,2.19,2.19,0,0,1,2.07-2.35,2.25,2.25,0,0,1,2.6,2,0.12,0.12,0,0,1-.12.14Z" transform="translate(-450.5 -671.15)" style="fill:#9ab73a"/></g><g id="_Group_3" data-name="&lt;Group&gt;"><path id="_Path_2" data-name="&lt;Path&gt;" d="M487.2,699.16c0.09,0.31-.83.82-1.27,0.95l-0.54-1.25c-0.45.12-1.3,0.49-1.38,0.18l-0.45-1.8a0.75,0.75,0,0,1,.65-0.78l1.25-.34a0.75,0.75,0,0,1,1,.34Z" transform="translate(-450.5 -671.15)" style="fill:#92ad37"/></g><g id="_Group_4" data-name="&lt;Group&gt;"><path id="_Path_3" data-name="&lt;Path&gt;" d="M482.89,691.68a3.1,3.1,0,0,0,1.34,5.93L487,697l-1.34-5.93Z" transform="translate(-450.5 -671.15)" style="fill:#9ab73a"/></g><g id="_Group_5" data-name="&lt;Group&gt;"><circle id="_Path_4" data-name="&lt;Path&gt;" cx="494.84" cy="692.05" r="1.66" transform="translate(-730.34 372.57) rotate(-78.85)" style="fill:#ffcf04"/></g><g id="_Group_6" data-name="&lt;Group&gt;"><path id="_Path_5" data-name="&lt;Path&gt;" d="M496.24,697.5a0.84,0.84,0,0,1-.63,1h0a0.84,0.84,0,0,1-1-.63L492.14,687a0.84,0.84,0,0,1,.63-1h0a0.84,0.84,0,0,1,1,.63Z" transform="translate(-450.5 -671.15)" style="fill:#9ab73a"/></g><g id="_Group_7" data-name="&lt;Group&gt;"><path id="_Path_6" data-name="&lt;Path&gt;" d="M486.26,690.92l-0.6.14L487,697l0.6-.14c4.46-1,7,1.06,7,1.06l-1.24-5.48-1.24-5.48S490.73,689.91,486.26,690.92Z" transform="translate(-450.5 -671.15)" style="fill:#e8f5fc"/></g><g id="_Group_8" data-name="&lt;Group&gt;"><g id="_Group_9" data-name="&lt;Group&gt;"><line id="_Path_7" data-name="&lt;Path&gt;" x1="46.22" y1="17.74" x2="52.31" y2="14.1" style="fill:#e8f5fc"/></g><g id="_Group_10" data-name="&lt;Group&gt;"><g id="_Group_11" data-name="&lt;Group&gt;"><path id="_Path_8" data-name="&lt;Path&gt;" d="M496.85,689.15l6.09-3.64c0.31-.19.07-0.7-0.25-0.51l-6.09,3.64c-0.31.19-.07,0.7,0.25,0.51h0Z" transform="translate(-450.5 -671.15)" style="fill:#e8f5fc"/></g></g></g><g id="_Group_12" data-name="&lt;Group&gt;"><g id="_Group_13" data-name="&lt;Group&gt;"><line id="_Path_9" data-name="&lt;Path&gt;" x1="47.35" y1="19.96" x2="56.16" y2="18.12" style="fill:#e8f5fc"/></g><g id="_Group_14" data-name="&lt;Group&gt;"><g id="_Group_15" data-name="&lt;Group&gt;"><path id="_Path_10" data-name="&lt;Path&gt;" d="M497.9,691.39l8.82-1.85a0.28,0.28,0,0,0-.11-0.56l-8.82,1.85a0.28,0.28,0,0,0,.11.56h0Z" transform="translate(-450.5 -671.15)" style="fill:#e8f5fc"/></g></g></g><g id="_Group_16" data-name="&lt;Group&gt;"><g id="_Group_17" data-name="&lt;Group&gt;"><line id="_Path_11" data-name="&lt;Path&gt;" x1="47.54" y1="22.51" x2="53.87" y2="23.63" style="fill:#e8f5fc"/></g><g id="_Group_18" data-name="&lt;Group&gt;"><g id="_Group_19" data-name="&lt;Group&gt;"><path id="_Path_12" data-name="&lt;Path&gt;" d="M498,693.94l6.33,1.12c0.36,0.06.4-.5,0-0.57l-6.33-1.12c-0.36-.06-0.4.5,0,0.57h0Z" transform="translate(-450.5 -671.15)" style="fill:#e8f5fc"/></g></g></g></svg>