<?xml version="1.0" encoding="utf-8"?>
<!-- Generator: Adobe Illustrator 25.4.1, SVG Export Plug-In . SVG Version: 6.00 Build 0)  -->
<svg version="1.1" xmlns="http://www.w3.org/2000/svg" xmlns:xlink="http://www.w3.org/1999/xlink" x="0px" y="0px"
	 viewBox="0 0 24 24" style="enable-background:new 0 0 24 24;" xml:space="preserve">
<style type="text/css">
	.st0{fill:#292D32;}
</style>
<path d="M17,22.8H7c-4.4,0-5.8-1.3-5.8-5.8V7c0-4.4,1.3-5.8,5.8-5.8h1.5c1.8,0,2.3,0.6,3,1.5l1.5,2
	c0.3,0.4,0.4,0.5,1,0.5h3c4.4,0,5.8,1.3,5.8,5.8v6C22.8,21.4,21.4,22.8,17,22.8z M7,2.8C3.4,2.8,2.8,3.4,2.8,7v10
	c0,3.6,0.7,4.2,4.2,4.2h10c3.6,0,4.2-0.7,4.2-4.2v-6c0-3.6-0.7-4.2-4.2-4.2h-3c-1.3,0-1.7-0.4-2.2-1.1l-1.5-2C9.8,3,9.6,2.8,8.5,2.8
	H7z"/>
<path d="M20,7.1c-0.4,0-0.8-0.3-0.8-0.8V5c0-1.6-0.7-2.2-2.2-2.2H8C7.6,2.8,7.2,2.4,7.2,2S7.6,1.2,8,1.2h9
	c2.4,0,3.8,1.3,3.8,3.8v1.4C20.8,6.8,20.4,7.1,20,7.1z"/>
</svg>
