<?xml version="1.0" encoding="utf-8"?>
<!-- Generator: Adobe Illustrator 23.0.3, SVG Export Plug-In . SVG Version: 6.00 Build 0)  -->
<svg version="1.1" id="Layer_1" xmlns="http://www.w3.org/2000/svg" xmlns:xlink="http://www.w3.org/1999/xlink" x="0px" y="0px"
	 viewBox="0 0 36 36" style="enable-background:new 0 0 36 36;" xml:space="preserve">
<g>
	<path d="M15,9.5l2.3,2.3h9c0.6,0,1.1,0.2,1.6,0.7c0.4,0.4,0.7,1,0.7,1.6v11.2c0,0.6-0.2,1.2-0.7,1.6c-0.4,0.4-1,0.7-1.6,0.7h-18
		c-0.6,0-1.1-0.2-1.6-0.7c-0.4-0.4-0.7-1-0.7-1.6V11.7c0-0.6,0.2-1.2,0.7-1.6c0.4-0.4,1-0.7,1.6-0.7H15z M20.7,15.1v3.4h-3.4v2.3
		h3.4v3.4h2.3v-3.4h3.4v-2.3h-3.4v-3.4H20.7z"/>
</g>
</svg>
