<?xml version="1.0" encoding="utf-8"?>
<!-- Generator: Adobe Illustrator 25.4.1, SVG Export Plug-In . SVG Version: 6.00 Build 0)  -->
<svg version="1.1" xmlns="http://www.w3.org/2000/svg" xmlns:xlink="http://www.w3.org/1999/xlink" x="0px" y="0px"
	 viewBox="0 0 24 24" style="enable-background:new 0 0 24 24;" xml:space="preserve">
<style type="text/css">
	.st0{fill:#2B2B2B;}
	.st1{fill:#2B2B2B;stroke:#2B2B2B;stroke-width:0.5;stroke-miterlimit:10;}
</style>
<path d="M17,22.8H7c-4.4,0-5.8-1.3-5.8-5.8V7c0-4.4,1.3-5.8,5.8-5.8h1.5c1.8,0,2.3,0.6,3,1.5l1.5,2
	c0.3,0.4,0.4,0.5,1,0.5h3c4.4,0,5.8,1.3,5.8,5.8v6C22.8,21.4,21.4,22.8,17,22.8z M7,2.8C3.4,2.8,2.8,3.4,2.8,7v10
	c0,3.6,0.7,4.2,4.2,4.2h10c3.6,0,4.2-0.7,4.2-4.2v-6c0-3.6-0.7-4.2-4.2-4.2h-3c-1.3,0-1.7-0.4-2.2-1.1l-1.5-2C9.8,3,9.6,2.8,8.5,2.8
	H7z"/>
<path class="st1" d="M15.8,18.9H8.2c-0.9,0-1.7-0.5-2.2-1.2c-0.5-0.8-0.5-1.7-0.1-2.5l1-2.1C7.2,12.4,7.8,12,8.4,12
	c0.6-0.1,1.2,0.2,1.7,0.8l0.1,0.2c0.3,0.3,0.6,0.5,0.9,0.5c0.3,0,0.6-0.2,0.8-0.6l1.1-2c0.5-0.8,1.1-1.3,1.8-1.2
	c0.7,0,1.2,0.5,1.6,1.4l1.9,4.3c0.3,0.8,0.3,1.7-0.2,2.5C17.5,18.5,16.7,18.9,15.8,18.9z M8.5,12.9L8.5,12.9c-0.4,0-0.6,0.3-0.8,0.7
	l-1,2.1c-0.3,0.5-0.2,1.2,0.1,1.7C7.1,17.7,7.6,18,8.2,18h7.6c0.6,0,1.1-0.3,1.4-0.8s0.4-1.1,0.1-1.6l-1.9-4.3
	c-0.2-0.5-0.5-0.9-0.8-0.9s-0.6,0.3-0.9,0.8l-1.1,2c-0.3,0.6-0.9,1-1.5,1.1c-0.6,0-1.2-0.2-1.6-0.8l-0.1-0.2
	C9.1,13,8.8,12.9,8.5,12.9z"/>
<path class="st1" d="M9,10.6c-1.2,0-2.2-1-2.2-2.2s1-2.2,2.2-2.2s2.2,1,2.2,2.2S10.3,10.6,9,10.6z M9,7C8.3,7,7.7,7.6,7.7,8.4
	S8.3,9.7,9,9.7s1.3-0.6,1.3-1.3S9.8,7,9,7z"/>
</svg>
