<?xml version="1.0" encoding="iso-8859-1"?>
<!-- Generator: Adobe Illustrator 19.0.0, SVG Export Plug-In . SVG Version: 6.00 Build 0)  -->
<svg version="1.1" xmlns="http://www.w3.org/2000/svg" xmlns:xlink="http://www.w3.org/1999/xlink" x="0px" y="0px"
     viewBox="0 0 512 512" style="enable-background:new 0 0 512 512;" xml:space="preserve">
<g>
	<g>
		<path d="M483.507,130.133l-145.067-128C336.887,0.759,334.874,0,332.8,0H85.333C80.614,0,76.8,3.814,76.8,8.533v187.733H34.133
			c-4.719,0-8.533,3.814-8.533,8.533v102.4c0,4.719,3.814,8.533,8.533,8.533H76.8v187.733c0,4.719,3.814,8.533,8.533,8.533h392.533
			c4.719,0,8.533-3.814,8.533-8.533V136.533C486.4,134.084,485.35,131.755,483.507,130.133z M341.333,27.443L455.296,128H341.333
			V27.443z M42.667,298.667v-85.333h128c4.719,0,8.533-3.814,8.533-8.533v-36.446L253.355,256L179.2,343.646V307.2
			c0-4.719-3.814-8.533-8.533-8.533H42.667z M469.333,494.933H93.867v-179.2h68.267v51.2c0,3.584,2.236,6.784,5.598,8.013
			c0.964,0.35,1.954,0.521,2.935,0.521c2.458,0,4.855-1.067,6.519-3.021l93.867-110.933c2.688-3.174,2.688-7.842,0-11.017
			l-93.867-110.933c-2.321-2.739-6.101-3.729-9.446-2.509c-3.371,1.229-5.606,4.429-5.606,8.013v51.2H93.867v-179.2h230.4v119.467
			c0,4.719,3.814,8.533,8.533,8.533h136.533V494.933z"/>
	</g>
</g>
    <g>
</g>
    <g>
</g>
    <g>
</g>
    <g>
</g>
    <g>
</g>
    <g>
</g>
    <g>
</g>
    <g>
</g>
    <g>
</g>
    <g>
</g>
    <g>
</g>
    <g>
</g>
    <g>
</g>
    <g>
</g>
    <g>
</g>
</svg>
