<?xml version="1.0" encoding="utf-8"?>
<!-- Generator: Adobe Illustrator 25.4.1, SVG Export Plug-In . SVG Version: 6.00 Build 0)  -->
<svg version="1.1" xmlns="http://www.w3.org/2000/svg" xmlns:xlink="http://www.w3.org/1999/xlink" x="0px" y="0px"
	 viewBox="0 0 24 24" style="enable-background:new 0 0 24 24;" xml:space="preserve">
<style type="text/css">
	.st0{fill:#2B2B2B;}
</style>
<path d="M13,14.9h-1c-0.4,0-0.8-0.3-0.8-0.8s0.3-0.8,0.8-0.8h1c0.7,0,1.2-0.6,1.2-1.2V2.9H6c-1.2,0-2.3,0.6-2.8,1.7
	C3,4.9,2.5,5,2.1,4.8c-0.4-0.2-0.5-0.7-0.3-1C2.7,2.3,4.3,1.3,6,1.3h9c0.4,0,0.8,0.3,0.8,0.8v10C15.7,13.6,14.5,14.9,13,14.9z"/>
<path d="M19,20.9h-1c-0.4,0-0.8-0.3-0.8-0.8c0-0.7-0.6-1.2-1.2-1.2c-0.7,0-1.2,0.6-1.2,1.2c0,0.4-0.3,0.8-0.8,0.8h-4
	c-0.4,0-0.8-0.3-0.8-0.8c0-0.7-0.6-1.2-1.2-1.2s-1.2,0.5-1.2,1.2c0,0.4-0.3,0.8-0.8,0.8H5c-2.1,0-3.8-1.7-3.8-3.8
	c0-0.4,0.3-0.8,0.8-0.8s0.8,0.3,0.8,0.8c0,1.2,1,2.2,2.2,2.2h0.3c0.3-1.1,1.4-2,2.7-2s2.3,0.9,2.6,2h2.7c0.3-1.1,1.4-2,2.7-2
	c1.3,0,2.3,0.9,2.6,2H19c1.2,0,2.2-1,2.2-2.2v-2.2H19c-1,0-1.8-0.8-1.8-1.8v-3c0-1,0.8-1.8,1.8-1.8l-1.1-1.9
	c-0.2-0.4-0.6-0.6-1.1-0.6h-1.1v6.3c0,1.5-1.2,2.8-2.8,2.8h-1c-0.4,0-0.8-0.3-0.8-0.8s0.3-0.8,0.8-0.8h1c0.7,0,1.2-0.6,1.2-1.2v-7
	c0-0.4,0.3-0.8,0.8-0.8h1.8c1,0,1.9,0.5,2.4,1.4l1.7,3c0.1,0.2,0.1,0.5,0,0.8c-0.1,0.2-0.4,0.4-0.6,0.4H19c-0.1,0-0.2,0.1-0.2,0.2v3
	c0,0.1,0.1,0.2,0.2,0.2h3c0.4,0,0.8,0.3,0.8,0.8v3C22.8,19.2,21.1,20.9,19,20.9z"/>
<path d="M8,22.8c-1.5,0-2.8-1.2-2.8-2.8s1.2-2.8,2.8-2.8s2.8,1.2,2.8,2.8S9.5,22.8,8,22.8z M8,18.9
	c-0.7,0-1.2,0.6-1.2,1.2s0.6,1.2,1.2,1.2c0.6,0,1.2-0.6,1.2-1.2S8.7,18.9,8,18.9z"/>
<path d="M16,22.8c-1.5,0-2.8-1.2-2.8-2.8s1.2-2.8,2.8-2.8s2.8,1.2,2.8,2.8S17.5,22.8,16,22.8z M16,18.9
	c-0.7,0-1.2,0.6-1.2,1.2s0.6,1.2,1.2,1.2c0.7,0,1.2-0.6,1.2-1.2S16.7,18.9,16,18.9z"/>
<path d="M22,14.9h-3c-1,0-1.8-0.8-1.8-1.8v-3c0-1,0.8-1.8,1.8-1.8h1.3c0.3,0,0.5,0.1,0.6,0.4l1.7,3
	c0.1,0.1,0.1,0.2,0.1,0.4v2C22.8,14.5,22.4,14.9,22,14.9z M19,9.9c-0.1,0-0.2,0.1-0.2,0.2v3c0,0.1,0.1,0.2,0.2,0.2h2.2v-1.1
	l-1.4-2.4H19V9.9z"/>
<path d="M8,8.9H2c-0.4,0-0.8-0.4-0.8-0.8c0-0.4,0.4-0.8,0.8-0.8h6c0.4,0,0.8,0.3,0.8,0.8S8.4,8.9,8,8.9z"/>
<path d="M6,11.9H2c-0.4,0-0.8-0.3-0.8-0.8s0.3-0.8,0.8-0.8h4c0.4,0,0.8,0.3,0.8,0.8S6.4,11.9,6,11.9z"/>
<path d="M4,14.9H2c-0.4,0-0.8-0.3-0.8-0.8s0.3-0.8,0.8-0.8h2c0.4,0,0.8,0.3,0.8,0.8S4.4,14.9,4,14.9z"/>
</svg>
