<?xml version="1.0" encoding="utf-8"?>
<!-- Generator: Adobe Illustrator 23.0.3, SVG Export Plug-In . SVG Version: 6.00 Build 0)  -->
<svg version="1.1" id="Layer_1" xmlns="http://www.w3.org/2000/svg" xmlns:xlink="http://www.w3.org/1999/xlink" x="0px" y="0px"
	 viewBox="0 0 36 36" style="enable-background:new 0 0 36 36;" xml:space="preserve">
<style type="text/css">
	.st0{fill:#2B2B2B;}
</style>
<g>
	<path class="st0" d="M0.9,11.8h14.6l1.1,2.3H2L0.9,11.8z M2.4,16.3H17l1.1,2.2H3.5L2.4,16.3z M29.8,12.5l4.5,6V26h-3
		c0,1.2-0.4,2.3-1.3,3.2c-0.9,0.9-1.9,1.3-3.2,1.3s-2.3-0.4-3.2-1.3c-0.9-0.9-1.3-1.9-1.3-3.2h-6c0,1.2-0.4,2.3-1.3,3.2
		c-0.9,0.9-2,1.3-3.2,1.3c-1.2,0-2.3-0.4-3.2-1.3c-0.9-0.9-1.3-1.9-1.3-3.2h-3v-5.3h3V23h1.1c0.9-1,2-1.5,3.3-1.5s2.4,0.5,3.3,1.5
		h7.2V9.5h-18c0-0.8,0.3-1.6,0.9-2.1c0.6-0.6,1.3-0.9,2.1-0.9h18v6H29.8z M11.8,28.3c0.6,0,1.1-0.2,1.6-0.7c0.4-0.4,0.7-1,0.7-1.6
		s-0.2-1.2-0.7-1.6c-0.4-0.4-1-0.6-1.6-0.6s-1.2,0.2-1.6,0.6S9.5,25.4,9.5,26s0.2,1.2,0.6,1.6C10.6,28.1,11.1,28.3,11.8,28.3z
		 M26.8,28.3c0.6,0,1.1-0.2,1.6-0.7c0.4-0.4,0.7-1,0.7-1.6s-0.2-1.2-0.7-1.6c-0.4-0.4-1-0.6-1.6-0.6c-0.6,0-1.1,0.2-1.6,0.6
		c-0.4,0.4-0.7,0.9-0.7,1.6s0.2,1.2,0.7,1.6C25.6,28.1,26.1,28.3,26.8,28.3z M29,14.8h-3.7v3.7H32L29,14.8z"/>
</g>
</svg>
