<?xml version="1.0" encoding="utf-8"?>
<!-- Generator: Adobe Illustrator 25.2.1, SVG Export Plug-In . SVG Version: 6.00 Build 0)  -->
<svg version="1.1" xmlns="http://www.w3.org/2000/svg" xmlns:xlink="http://www.w3.org/1999/xlink" x="0px" y="0px"
	 viewBox="0 0 24 24" style="enable-background:new 0 0 24 24;" xml:space="preserve">
<style type="text/css">
	.st0{fill:#2B2B2B;}
</style>
<g id="Layer_1">
</g>
<g id="Layer_2">
</g>
<g id="Layer_3">
</g>
<g id="Layer_5">
</g>
<g id="Layer_4">
</g>
<g id="Layer_7">
</g>
<g id="Layer_8">
	<g>
		<g>
			<g>
				<path d="M12.6,17.8c-2.1,0-3.9-1.5-3.9-3.3c0-0.3,0.2-0.5,0.5-0.5c0.3,0,0.5,0.2,0.5,0.5c0,1.3,1.3,2.4,3,2.4
					c1.6,0,3-1.1,3-2.4c0-0.5,0-1.9-3-2.4C10.3,11.7,9,10.6,9,9.2c0-1.6,1.6-2.8,3.6-2.8c2,0,3.6,1.3,3.6,2.8c0,0.3-0.2,0.5-0.5,0.5
					c-0.3,0-0.5-0.2-0.5-0.5c0-1.1-1.2-1.9-2.7-1.9c-1.5,0-2.7,0.9-2.7,1.9c0,1.4,2.1,1.8,2.7,1.9c2.5,0.4,3.8,1.5,3.8,3.3
					C16.5,16.3,14.7,17.8,12.6,17.8z"/>
			</g>
		</g>
		<g>
			<path d="M12.6,7.3c-0.3,0-0.5-0.2-0.5-0.5V5.6c0-0.3,0.2-0.5,0.5-0.5c0.3,0,0.5,0.2,0.5,0.5v1.2
				C13,7.1,12.8,7.3,12.6,7.3z"/>
		</g>
		<g>
			<path d="M12.6,19c-0.3,0-0.5-0.2-0.5-0.5v-1.2c0-0.3,0.2-0.5,0.5-0.5c0.3,0,0.5,0.2,0.5,0.5v1.2
				C13,18.8,12.8,19,12.6,19z"/>
		</g>
	</g>
	<path d="M15.6,22.8h-6c-5.4,0-7.8-2.3-7.8-7.8v-6c0-5.4,2.3-7.8,7.8-7.8h6c5.4,0,7.7,2.3,7.7,7.8v6
		C23.3,20.5,21,22.8,15.6,22.8z M9.6,2.8C5,2.8,3.3,4.4,3.3,9.1v6c0,4.6,1.6,6.2,6.2,6.2h6c4.6,0,6.2-1.6,6.2-6.2v-6
		c0-4.6-1.6-6.2-6.2-6.2H9.6z"/>
</g>
<g id="Layer_6">
</g>
</svg>
