<?xml version="1.0" encoding="utf-8"?>
<!-- Generator: Adobe Illustrator 25.4.1, SVG Export Plug-In . SVG Version: 6.00 Build 0)  -->
<svg version="1.1" id="Layer_1" xmlns="http://www.w3.org/2000/svg" xmlns:xlink="http://www.w3.org/1999/xlink" x="0px" y="0px"
	 viewBox="0 0 24 24" style="enable-background:new 0 0 24 24;" xml:space="preserve">
<style type="text/css">
	.st0{fill:none;stroke:#2B2B2B;stroke-width:1.5;stroke-linecap:round;stroke-linejoin:round;}
</style>
<g id="_13" transform="translate(-1.25 -1.25)">
	<g id="Group_1_">
		<path id="Vector_6_" class="st0" d="M9.9,15.6c0,1.3,1,2.3,2.2,2.3c0,0,0,0,0,0h2.5c1.1,0,2-0.9,1.9-2c0.1-0.9-0.5-1.7-1.3-1.9
			l-4-1.4c-0.9-0.2-1.4-1-1.3-1.9c0-1.1,0.8-2,1.9-2h2.5c1.3,0,2.2,1.1,2.2,2.3c0,0,0,0,0,0"/>
		<path id="Vector-2_6_" class="st0" d="M13.2,7.2v12"/>
	</g>
	<path id="Vector-3_5_" class="st0" d="M16.2,23.2h-6c-5,0-7-2-7-7v-6c0-5,2-7,7-7h6c5,0,7,2,7,7v6C23.2,21.2,21.2,23.2,16.2,23.2z"
		/>
</g>
</svg>
