<?xml version="1.0" encoding="utf-8"?>
<!-- Generator: Adobe Illustrator 25.4.1, SVG Export Plug-In . SVG Version: 6.00 Build 0)  -->
<svg version="1.1" xmlns="http://www.w3.org/2000/svg" xmlns:xlink="http://www.w3.org/1999/xlink" x="0px" y="0px"
	 viewBox="0 0 24 24" style="enable-background:new 0 0 24 24;" xml:space="preserve">
<style type="text/css">
	.st0{fill:#2B2B2B;}
</style>
<path d="M22,7.5c-0.4,0-0.9-0.3-0.9-0.9v-2c0.1-0.8-0.5-1.4-1.3-1.4H4.2c-0.8,0-1.4,0.7-1.4,1.4v2
	c0,0.4-0.3,0.9-0.9,0.9S1.2,7.2,1.2,6.7V4.6c0-1.8,1.4-3.1,3-3.1h15.6c1.7,0,3,1.4,3,3.1v2C22.8,7.2,22.4,7.5,22,7.5z"/>
<path d="M12,22.4c-0.4,0-0.9-0.3-0.9-0.9V3.3c0-0.4,0.3-0.9,0.9-0.9c0.5,0,0.9,0.3,0.9,0.9v18.2
	C12.9,21.9,12.4,22.4,12,22.4z"/>
<path d="M16.2,22.4H7.8c-0.4,0-0.8-0.3-0.8-0.9s0.3-0.8,0.8-0.8h8.5c0.4,0,0.9,0.3,0.9,0.9
	C17.2,22.2,16.7,22.4,16.2,22.4z"/>
</svg>
