<?xml version="1.0" encoding="utf-8"?>
<!-- Generator: Adobe Illustrator 25.4.1, SVG Export Plug-In . SVG Version: 6.00 Build 0)  -->
<svg version="1.1" id="Layer_1" xmlns="http://www.w3.org/2000/svg" xmlns:xlink="http://www.w3.org/1999/xlink" x="0px" y="0px"
	 viewBox="0 0 24 24" style="enable-background:new 0 0 24 24;" xml:space="preserve">
<style type="text/css">
	.st0{fill:#292D32;}
</style>
<path class="st0" d="M21.3,7.9c-0.4,0-0.8-0.3-0.8-0.8V5.3C20.6,4.6,20,4,19.3,4H4.7C4,4,3.4,4.6,3.4,5.3v1.8c0,0.4-0.3,0.8-0.8,0.8
	S1.9,7.6,1.9,7.2V5.3c0-1.6,1.3-2.8,2.8-2.8h14.5c1.6,0,2.8,1.3,2.8,2.8v1.8C22.1,7.6,21.7,7.9,21.3,7.9z"/>
<path class="st0" d="M12,21.5c-0.4,0-0.8-0.3-0.8-0.8V4.1c0-0.4,0.3-0.8,0.8-0.8s0.8,0.3,0.8,0.8v16.6C12.8,21.1,12.4,21.5,12,21.5z
	"/>
<path class="st0" d="M15.9,21.5H8.1c-0.4,0-0.7-0.3-0.7-0.8S7.7,20,8.1,20h7.9c0.4,0,0.8,0.3,0.8,0.8S16.4,21.5,15.9,21.5z"/>
</svg>
