<?xml version="1.0" encoding="utf-8"?>
<!-- Generator: Adobe Illustrator 23.0.3, SVG Export Plug-In . SVG Version: 6.00 Build 0)  -->
<svg version="1.1" id="Layer_1" xmlns="http://www.w3.org/2000/svg" xmlns:xlink="http://www.w3.org/1999/xlink" x="0px" y="0px"
	 viewBox="0 0 36 36" style="enable-background:new 0 0 36 36;" xml:space="preserve">
<style type="text/css">
	.st0{fill:#2B2B2B;stroke:#2B2B2B;stroke-width:0.5;stroke-miterlimit:10;}
</style>
<g>
	<path class="st0" d="M25.8,8.5l1.3,4.9L26,13.7c-0.7-1.3-1.2-2.1-1.6-2.5c-0.2-0.2-0.6-0.4-0.9-0.4c-0.2,0-0.5-0.1-1-0.1h-2.8v11.8
		c0,0.4,0,0.7,0.1,0.8c0.1,0.3,0.2,0.5,0.3,0.6s0.4,0.2,0.8,0.2c0.2,0,0.6,0.1,1.1,0.1v1.1h-6.8v-1.1c0.5,0,0.8,0,1.1-0.1
		c0.4,0,0.7-0.1,0.8-0.2s0.3-0.3,0.3-0.6c0-0.1,0.1-0.4,0.1-0.8V10.8h-2.8c-0.5,0-0.8,0-1,0.1c-0.4,0.1-0.7,0.2-0.9,0.4
		c-0.4,0.4-1,1.2-1.6,2.5l-1.1-0.3l1.3-4.9H25.8z"/>
</g>
</svg>
