<?xml version="1.0" encoding="utf-8"?>
<!-- Generator: Adobe Illustrator 23.0.3, SVG Export Plug-In . SVG Version: 6.00 Build 0)  -->
<svg version="1.1" id="Layer_1" xmlns="http://www.w3.org/2000/svg" xmlns:xlink="http://www.w3.org/1999/xlink" x="0px" y="0px"
	 viewBox="0 0 36 36" style="enable-background:new 0 0 36 36;" xml:space="preserve">
<style type="text/css">
	.st0{fill:#2B2B2B;}
</style>
<g>
	<path class="st0" d="M20.8,32H2.8c-0.8,0-1.5-0.4-2.1-0.9s-0.9-1.3-0.9-2.1V8c0-0.8,0.4-1.5,0.9-2.1S1.9,5.1,2.8,5h30
		c0.8,0,1.5,0.4,2.1,0.9s0.9,1.3,0.9,2.1v15.7c-0.8-0.7-1.9-1.3-3-1.8V8h-30v21h18.1c0,0.6-0.1,1.1-0.1,1.5
		C20.8,31,20.8,31.5,20.8,32z M20.8,26h-15v-1.9c0-0.7,0.5-1.5,1.4-2.1c0.8-0.5,1.8-0.9,3.1-1.2c1.1-0.3,2.1-0.4,3-0.4
		c0.9,0,1.9,0.1,3,0.4c1.3,0.3,2.3,0.7,3.1,1.2c0.9,0.7,1.4,1.4,1.4,2.1V26z M13.3,11c-1,0-1.9,0.4-2.6,1.1
		c-0.7,0.8-1.1,1.6-1.1,2.7c0,1,0.4,1.9,1.1,2.6c0.7,0.7,1.6,1.1,2.6,1.1c1,0,1.9-0.4,2.6-1.1c0.7-0.7,1.1-1.6,1.1-2.6
		c0-1-0.4-1.9-1.1-2.7C15.2,11.4,14.3,11,13.3,11z M20.8,11h9v1.5h-9V11z M20.8,14h9v1.5h-9V14z M20.8,17h6v1.5h-6V17z M29.8,33.6
		l3.7,2.3l-1-4.2l3.3-2.8l-4.4-0.4l-1.6-4l-1.7,4l-4.4,0.4l3.3,2.8L26,35.9L29.8,33.6z"/>
</g>
</svg>
