<?xml version="1.0" encoding="utf-8"?>
<!-- Generator: Adobe Illustrator 23.0.3, SVG Export Plug-In . SVG Version: 6.00 Build 0)  -->
<svg version="1.1" id="Layer_1" xmlns="http://www.w3.org/2000/svg" xmlns:xlink="http://www.w3.org/1999/xlink" x="0px" y="0px"
	 viewBox="0 0 36 36" style="enable-background:new 0 0 36 36;" xml:space="preserve">
<style type="text/css">
	.st0{fill-rule:evenodd;clip-rule:evenodd;fill:#2B2B2B;}
</style>
<g>
	<path class="st0" d="M24.5,9.9c-0.2,0-0.4,0-0.6,0c-2,0-3.9,0.8-5.3,2.3c-1.4-1.5-3.3-2.3-5.3-2.3c-4,0-7.3,3.3-7.3,7.3v9.2h3.9v-9
		c0-1.7,1.4-3.2,3-3.4c0.1,0,0.2,0,0.3,0c1.8,0,3.3,1.5,3.3,3.3v9.1h4v-9.1c0-1.7,1.4-3.2,3-3.3c0.1,0,0.2,0,0.3,0
		c1.8,0,3.3,1.5,3.3,3.3v9.2h4v-9c0-1.8-0.7-3.6-1.9-5C28,10.9,26.3,10,24.5,9.9z"/>
</g>
</svg>
