<?xml version="1.0" encoding="utf-8"?>
<!-- Generator: Adobe Illustrator 25.4.1, SVG Export Plug-In . SVG Version: 6.00 Build 0)  -->
<svg version="1.1" xmlns="http://www.w3.org/2000/svg" xmlns:xlink="http://www.w3.org/1999/xlink" x="0px" y="0px"
	 viewBox="0 0 24 24" style="enable-background:new 0 0 24 24;" xml:space="preserve">
<style type="text/css">
	.st0{fill-rule:evenodd;clip-rule:evenodd;fill:none;stroke:#2B2B2B;stroke-width:1.25;stroke-miterlimit:10;}
</style>
<g>
	<path d="M16.8,5.2c-0.2,0-0.3,0-0.5,0c-1.3,0-2.5,0.4-3.5,1.2c-0.5,0.4-1.1,0.4-1.5,0c-1-0.8-2.3-1.2-3.5-1.2
		c-3.3,0-5.9,2.7-5.9,6v6.3c0,0.7,0.6,1.2,1.2,1.2h0.7c0.7,0,1.2-0.6,1.2-1.2v-6.2c0-1.4,1.1-2.6,2.4-2.8c0.1,0,0.2,0,0.2,0
		c1.5,0,2.7,1.2,2.7,2.7v6.2c0,0.7,0.6,1.2,1.2,1.2h0.8c0.7,0,1.2-0.6,1.2-1.2v-6.2c0-1.4,1.1-2.6,2.4-2.7c0.1,0,0.2,0,0.2,0
		c1.5,0,2.7,1.2,2.7,2.7v6.3c0,0.7,0.6,1.2,1.2,1.2H21c0.7,0,1.2-0.6,1.2-1.2v-6.2c0-1.5-0.6-3-1.5-4.1C19.7,6,18.3,5.3,16.8,5.2z"
		/>
</g>
</svg>
