<svg id="Layer_1" data-name="Layer 1" xmlns="http://www.w3.org/2000/svg" viewBox="0 0 671.3 194.5"><title>omnipay_mollie</title><g id="Layer_1-2" data-name="Layer 1"><path d="M447.9,468.1a64.6,64.6,0,1,0,64.6,64.6A64.57,64.57,0,0,0,447.9,468.1Zm0,102.8a38.2,38.2,0,1,1,38.2-38.2A38.2,38.2,0,0,1,447.9,570.9Z" transform="translate(-164.3 -402.8)" style="fill:#444"/><circle cx="507.5" cy="18.2" r="18.2" style="fill:#444"/><path d="M361,524.5v70H334.4V523.6a29.45,29.45,0,0,0-29.1-29.1c-16.3-.1-29.7,13.6-29.7,29.9v70.1H249V523.8h0a29.41,29.41,0,0,0-29.1-29.2c-16.3-.2-29.7,13.6-29.7,30v69.9H164.3V523.6a55.64,55.64,0,0,1,98.2-35.8h0A55.76,55.76,0,0,1,306.8,468C337.2,468.8,361,494.2,361,524.5Z" transform="translate(-164.3 -402.8)" style="fill:#444"/><rect x="371" y="3.2" width="26.6" height="188.6" style="fill:#444"/><rect x="432.7" y="3.2" width="26.6" height="188.6" style="fill:#444"/><rect x="494.2" y="68.5" width="26.6" height="123.2" style="fill:#444"/><path d="M773.9,467.9a64.55,64.55,0,1,0,56.4,97.5v-0.1l-21.5-10.6A39,39,0,0,1,737,541.6h98.6v-12C835.7,495.7,807.9,467.5,773.9,467.9Zm-0.5,23.7a36.91,36.91,0,0,1,36.1,29H737.2A37.27,37.27,0,0,1,773.4,491.6Z" transform="translate(-164.3 -402.8)" style="fill:#444"/></g></svg>