<?xml version="1.0" encoding="utf-8"?>
<!-- Generator: Adobe Illustrator 23.0.3, SVG Export Plug-In . SVG Version: 6.00 Build 0)  -->
<svg version="1.1" id="Layer_1" xmlns="http://www.w3.org/2000/svg" xmlns:xlink="http://www.w3.org/1999/xlink" x="0px" y="0px"
	 viewBox="0 0 45 30" style="enable-background:new 0 0 45 30;" xml:space="preserve">
<style type="text/css">
	.st0{fill-rule:evenodd;clip-rule:evenodd;fill:none;stroke:#2B2B2B;stroke-width:1.5;stroke-miterlimit:10;}
	.st1{fill-rule:evenodd;clip-rule:evenodd;fill:#2B2B2B;}
	.st2{fill:#FFFFFF;}
</style>
<path class="st0" d="M23.9,9.7c-1.3,5.8-5.3,8.7-11.6,8.7h-2.1l-1.5,9.2H6.9l-0.1,0.6c-0.1,0.3,0.2,0.7,0.7,0.7H12
	c0.6,0,1-0.3,1-0.9v-0.2l0.8-5.4V22c0.1-0.6,0.6-0.9,1-0.9h0.7c4.4,0,7.7-1.7,8.8-6.9C24.9,12.6,24.8,11,23.9,9.7L23.9,9.7z
	 M21.2,3.5C20,2,17.7,1.4,14.7,1.4H6c-0.6,0-1.2,0.5-1.3,1L1.2,25.1C1.1,25.6,1.4,26,1.9,26h5.3l1.4-8.5v0.2c0.1-0.6,0.6-1,1.3-1
	h2.5c5,0,8.9-2.1,10-7.8c0-0.2,0.1-0.3,0.1-0.5C22.7,6.2,22.4,4.8,21.2,3.5L21.2,3.5L21.2,3.5z"/>
<path class="st1" d="M40.3,28.9H25.5c-1.7,0-3-1.3-3-3v-4c0-1.7,1.3-3,3-3h14.8c1.7,0,3,1.3,3,3v4C43.3,27.6,42,28.9,40.3,28.9z"/>
<g>
	<path class="st2" d="M29.9,23c0,0.2,0,0.4-0.1,0.6c-0.1,0.2-0.2,0.4-0.3,0.5c-0.2,0.2-0.4,0.3-0.6,0.4c-0.2,0.1-0.5,0.1-0.9,0.1
		h-0.8v1.5H26v-4.7h2c0.3,0,0.5,0,0.8,0.1c0.2,0.1,0.4,0.1,0.5,0.2c0.2,0.1,0.3,0.3,0.4,0.5C29.8,22.5,29.9,22.7,29.9,23z M28.6,23
		c0-0.1,0-0.2-0.1-0.3s-0.2-0.2-0.2-0.2c-0.1,0-0.2-0.1-0.4-0.1c-0.1,0-0.3,0-0.5,0h-0.2v1.4h0.3c0.2,0,0.4,0,0.5,0s0.2-0.1,0.3-0.2
		c0.1-0.1,0.1-0.1,0.2-0.2C28.6,23.2,28.6,23.1,28.6,23z"/>
	<path class="st2" d="M35.2,26.2h-1.5l-1.3-1.7h-0.6v1.7h-1.2v-4.7h2c0.3,0,0.5,0,0.7,0c0.2,0,0.4,0.1,0.6,0.2
		c0.2,0.1,0.3,0.2,0.4,0.4c0.1,0.2,0.2,0.4,0.2,0.6c0,0.3-0.1,0.6-0.2,0.8S34,24,33.7,24.1L35.2,26.2z M33.4,22.9
		c0-0.1,0-0.2-0.1-0.3s-0.1-0.1-0.2-0.2c-0.1,0-0.2-0.1-0.3-0.1c-0.1,0-0.2,0-0.4,0h-0.4v1.3h0.4c0.2,0,0.4,0,0.5,0s0.2-0.1,0.3-0.1
		c0.1-0.1,0.1-0.1,0.2-0.2C33.3,23.1,33.4,23,33.4,22.9z"/>
	<path class="st2" d="M40.3,23.8c0,0.7-0.2,1.3-0.6,1.8c-0.4,0.4-1,0.7-1.8,0.7c-0.8,0-1.3-0.2-1.8-0.7c-0.4-0.4-0.6-1-0.6-1.8
		c0-0.8,0.2-1.3,0.6-1.8c0.4-0.4,1-0.7,1.8-0.7c0.7,0,1.3,0.2,1.8,0.7C40.1,22.5,40.3,23.1,40.3,23.8z M38.7,25
		c0.1-0.1,0.2-0.3,0.3-0.5s0.1-0.4,0.1-0.7c0-0.3,0-0.5-0.1-0.7c-0.1-0.2-0.1-0.4-0.3-0.5c-0.1-0.1-0.2-0.2-0.4-0.3
		c-0.1-0.1-0.3-0.1-0.4-0.1c-0.2,0-0.3,0-0.4,0.1c-0.1,0.1-0.3,0.1-0.4,0.3c-0.1,0.1-0.2,0.3-0.3,0.5c-0.1,0.2-0.1,0.4-0.1,0.7
		c0,0.3,0,0.5,0.1,0.7c0.1,0.2,0.1,0.4,0.3,0.5s0.2,0.2,0.4,0.3c0.1,0.1,0.3,0.1,0.4,0.1c0.2,0,0.3,0,0.4-0.1
		C38.5,25.2,38.6,25.1,38.7,25z"/>
</g>
</svg>
