<?xml version="1.0" encoding="utf-8"?>
<!-- Generator: Adobe Illustrator 23.0.3, SVG Export Plug-In . SVG Version: 6.00 Build 0)  -->
<svg version="1.1" id="Layer_1" xmlns="http://www.w3.org/2000/svg" xmlns:xlink="http://www.w3.org/1999/xlink" x="0px" y="0px"
	 viewBox="0 0 36 36" style="enable-background:new 0 0 36 36;" xml:space="preserve">
<style type="text/css">
	.st0{fill-rule:evenodd;clip-rule:evenodd;fill:none;stroke:#2B2B2B;stroke-miterlimit:10;}
	.st1{fill-rule:evenodd;clip-rule:evenodd;}
	.st2{fill:#FFFFFF;}
</style>
<path class="st0" d="M19.6,17.9c-0.7,3-2.7,4.5-6,4.5h-1.1l-0.8,4.7h-0.9l-0.1,0.3c-0.1,0.2,0.1,0.4,0.4,0.4h2.3
	c0.3,0,0.5-0.2,0.5-0.5v-0.1l0.4-2.8v-0.2c0.1-0.3,0.3-0.5,0.5-0.5h0.4c2.3,0,4-0.9,4.5-3.6C20.1,19.3,20.1,18.5,19.6,17.9
	L19.6,17.9z M18.2,14.7c-0.7-0.8-1.8-1.1-3.4-1.1h-4.4c-0.3,0-0.6,0.2-0.7,0.5L7.9,25.8C7.9,26,8,26.3,8.3,26.3H11l0.7-4.4V22
	c0.1-0.3,0.3-0.5,0.7-0.5h1.3c2.5,0,4.6-1.1,5.2-4c0-0.1,0.1-0.2,0.1-0.2C19,16.1,18.8,15.3,18.2,14.7L18.2,14.7L18.2,14.7z"/>
<path class="st1" d="M30,14.3H19.7c-0.6,0-1-0.4-1-1V9.4c0-0.6,0.4-1,1-1H30c0.6,0,1,0.4,1,1v3.9C31,13.9,30.6,14.3,30,14.3z"/>
<g>
	<path class="st2" d="M23,10.8c0,0.1,0,0.2-0.1,0.4c0,0.1-0.1,0.2-0.2,0.3c-0.1,0.1-0.2,0.2-0.4,0.2c-0.1,0.1-0.3,0.1-0.5,0.1h-0.4
		v0.9h-0.7V9.9h1.2c0.2,0,0.3,0,0.4,0s0.2,0.1,0.3,0.1c0.1,0.1,0.2,0.2,0.3,0.3C23,10.5,23,10.6,23,10.8z M22.3,10.8
		c0-0.1,0-0.1-0.1-0.2c0-0.1-0.1-0.1-0.1-0.1c-0.1,0-0.1,0-0.2,0c-0.1,0-0.2,0-0.3,0h-0.1v0.8h0.2c0.1,0,0.2,0,0.3,0
		c0.1,0,0.1,0,0.2-0.1c0,0,0.1-0.1,0.1-0.1S22.3,10.9,22.3,10.8z"/>
	<path class="st2" d="M26.2,12.7h-0.9l-0.8-1h-0.3v1h-0.7V9.9h1.2c0.2,0,0.3,0,0.4,0c0.1,0,0.2,0.1,0.3,0.1c0.1,0.1,0.2,0.1,0.2,0.2
		s0.1,0.2,0.1,0.4c0,0.2,0,0.4-0.1,0.5c-0.1,0.1-0.2,0.2-0.4,0.3L26.2,12.7z M25.1,10.8c0-0.1,0-0.1,0-0.2c0,0-0.1-0.1-0.1-0.1
		c0,0-0.1,0-0.2,0s-0.1,0-0.2,0h-0.3v0.7h0.2c0.1,0,0.2,0,0.3,0c0.1,0,0.1,0,0.2-0.1c0,0,0.1-0.1,0.1-0.1
		C25.1,10.9,25.1,10.8,25.1,10.8z"/>
	<path class="st2" d="M29.2,11.3c0,0.4-0.1,0.8-0.4,1.1c-0.3,0.3-0.6,0.4-1,0.4c-0.4,0-0.8-0.1-1-0.4s-0.4-0.6-0.4-1.1
		c0-0.4,0.1-0.8,0.4-1.1s0.6-0.4,1-0.4c0.4,0,0.8,0.1,1,0.4C29.1,10.5,29.2,10.9,29.2,11.3z M28.3,12c0.1-0.1,0.1-0.2,0.2-0.3
		c0-0.1,0.1-0.3,0.1-0.4c0-0.2,0-0.3-0.1-0.4c0-0.1-0.1-0.2-0.2-0.3c-0.1-0.1-0.1-0.1-0.2-0.2c-0.1,0-0.2-0.1-0.3-0.1
		c-0.1,0-0.2,0-0.3,0s-0.2,0.1-0.2,0.2c-0.1,0.1-0.1,0.2-0.2,0.3s-0.1,0.3-0.1,0.4c0,0.2,0,0.3,0.1,0.4c0,0.1,0.1,0.2,0.1,0.3
		c0.1,0.1,0.1,0.1,0.2,0.2c0.1,0,0.2,0.1,0.3,0.1s0.2,0,0.3-0.1C28.1,12.1,28.2,12.1,28.3,12z"/>
</g>
</svg>
