<?xml version="1.0" encoding="utf-8"?>
<!-- Generator: Adobe Illustrator 25.4.1, SVG Export Plug-In . SVG Version: 6.00 Build 0)  -->
<svg version="1.1" xmlns="http://www.w3.org/2000/svg" xmlns:xlink="http://www.w3.org/1999/xlink" x="0px" y="0px"
	 viewBox="0 0 24 24" style="enable-background:new 0 0 24 24;" xml:space="preserve">
<style type="text/css">
	.st0{fill-rule:evenodd;clip-rule:evenodd;fill:none;stroke:#2B2B2B;stroke-width:1.25;stroke-miterlimit:10;}
	.st1{fill:#2B2B2B;}
</style>
<path d="M18.6,8c-0.9,4.2-3.9,6.4-8.5,6.4H8.5l-1.1,6.7H6.2l-0.1,0.4c-0.1,0.3,0.2,0.5,0.5,0.5h3.3
	c0.4,0,0.8-0.3,0.8-0.7v-0.2l0.6-4V17c0.1-0.4,0.4-0.7,0.8-0.7h0.5c3.2,0,5.7-1.3,6.4-5.1C19.3,10.1,19.3,8.9,18.6,8L18.6,8z
	 M16.6,3.4c-0.9-1.1-2.6-1.5-4.8-1.5H5.5c-0.4,0-0.8,0.3-0.9,0.8L2,19.3C1.9,19.6,2.1,20,2.5,20h3.9l1-6.2v0.2
	c0.1-0.4,0.4-0.8,0.9-0.8h1.9c3.6,0,6.5-1.5,7.3-5.7c0-0.2,0.1-0.3,0.1-0.3C17.7,5.5,17.5,4.4,16.6,3.4L16.6,3.4L16.6,3.4z"/>
<g>
	<path class="st1" d="M16.1,20.6c0,0.1,0,0.3-0.1,0.4c0,0.1-0.1,0.2-0.2,0.3c-0.1,0.1-0.3,0.2-0.4,0.3c-0.1,0.1-0.3,0.1-0.5,0.1
		h-0.5v1h-0.8v-3h1.3c0.2,0,0.3,0,0.5,0c0.1,0,0.2,0.1,0.3,0.1c0.1,0.1,0.2,0.2,0.3,0.3C16,20.2,16.1,20.4,16.1,20.6z M15.3,20.6
		c0-0.1,0-0.2-0.1-0.2s-0.1-0.1-0.2-0.1c-0.1,0-0.2,0-0.2-0.1c-0.1,0-0.2,0-0.3,0h-0.1v0.9h0.2c0.1,0,0.2,0,0.3,0
		c0.1,0,0.2,0,0.2-0.1c0,0,0.1-0.1,0.1-0.2C15.2,20.7,15.3,20.7,15.3,20.6z"/>
	<path class="st1" d="M19.5,22.6h-0.9l-0.8-1.1h-0.4v1.1h-0.8v-3h1.3c0.2,0,0.3,0,0.5,0c0.1,0,0.2,0.1,0.4,0.1
		c0.1,0.1,0.2,0.2,0.3,0.3c0.1,0.1,0.1,0.2,0.1,0.4c0,0.2-0.1,0.4-0.2,0.5c-0.1,0.1-0.2,0.3-0.4,0.3L19.5,22.6z M18.3,20.5
		c0-0.1,0-0.1,0-0.2c0-0.1-0.1-0.1-0.2-0.1c-0.1,0-0.1,0-0.2,0c-0.1,0-0.2,0-0.2,0h-0.3V21h0.2c0.1,0,0.2,0,0.3,0
		c0.1,0,0.2,0,0.2-0.1c0.1,0,0.1-0.1,0.1-0.1C18.3,20.7,18.3,20.6,18.3,20.5z"/>
	<path class="st1" d="M22.7,21.1c0,0.5-0.1,0.9-0.4,1.1c-0.3,0.3-0.6,0.4-1.1,0.4c-0.5,0-0.9-0.1-1.1-0.4c-0.3-0.3-0.4-0.7-0.4-1.1
		c0-0.5,0.1-0.9,0.4-1.1c0.3-0.3,0.6-0.4,1.1-0.4c0.5,0,0.9,0.1,1.1,0.4C22.6,20.2,22.7,20.6,22.7,21.1z M21.7,21.9
		c0.1-0.1,0.1-0.2,0.2-0.3c0-0.1,0.1-0.3,0.1-0.4c0-0.2,0-0.3-0.1-0.5c0-0.1-0.1-0.2-0.2-0.3c-0.1-0.1-0.1-0.1-0.2-0.2
		c-0.1,0-0.2-0.1-0.3-0.1c-0.1,0-0.2,0-0.3,0.1c-0.1,0-0.2,0.1-0.2,0.2c-0.1,0.1-0.1,0.2-0.2,0.3c0,0.1-0.1,0.3-0.1,0.5
		c0,0.2,0,0.3,0.1,0.5c0,0.1,0.1,0.2,0.2,0.3c0.1,0.1,0.1,0.1,0.2,0.2c0.1,0,0.2,0.1,0.3,0.1c0.1,0,0.2,0,0.3-0.1
		C21.5,22,21.6,21.9,21.7,21.9z"/>
</g>
</svg>
