<?xml version="1.0" encoding="utf-8"?>
<!-- Generator: Adobe Illustrator 25.4.1, SVG Export Plug-In . SVG Version: 6.00 Build 0)  -->
<svg version="1.1" id="Layer_1" xmlns="http://www.w3.org/2000/svg" xmlns:xlink="http://www.w3.org/1999/xlink" x="0px" y="0px"
	 viewBox="0 0 24 24" style="enable-background:new 0 0 24 24;" xml:space="preserve">
<style type="text/css">
	.st0{fill:none;stroke:#2B2B2B;stroke-width:1.25;stroke-miterlimit:10;}
	.st1{fill:#2B2B2B;}
</style>
<g>
	<g id="mailerlitelogo_1_" transform="translate(80.000000, 56.000000)">
		<path class="st0" d="M-60.2-52.1h-15.7c-1.2,0-2.2,1-2.2,2.2v7.3v1.4v5.2l3.1-3h14.9c1.2,0,2.2-1,2.2-2.2v-8.8
			C-57.9-51.1-58.9-52.1-60.2-52.1z"/>
	</g>
	<path class="st1" d="M7.2,13.8c0,0.3-0.3,0.6-0.6,0.6c-0.3,0-0.6-0.3-0.6-0.6V7.6C6,7.2,6.3,7,6.6,7c0.3,0,0.6,0.3,0.6,0.6V13.8z"
		/>
	<path class="st1" d="M9.9,13.8c0,0.3-0.3,0.6-0.6,0.6s-0.6-0.3-0.6-0.6V9.7c0-0.3,0.3-0.6,0.6-0.6s0.6,0.3,0.6,0.6V13.8z"/>
	<path class="st1" d="M10,7.8c0,0.4-0.3,0.6-0.6,0.6H9.3C9,8.4,8.7,8.2,8.7,7.8v0c0-0.4,0.3-0.6,0.6-0.6h0.1C9.7,7.1,10,7.4,10,7.8
		L10,7.8z"/>
	<path class="st1" d="M14.2,14.2c-0.3,0.1-0.6,0.2-0.9,0.2c-1,0-1.6-0.5-1.6-1.4v-2.8h-0.5c-0.2,0-0.3-0.1-0.3-0.3
		c0-0.1,0-0.2,0.1-0.3l1.3-1.3c0,0,0.1-0.1,0.3-0.1c0.2,0,0.3,0.1,0.3,0.3v0.6h0.9c0.3,0,0.5,0.2,0.5,0.5s-0.2,0.5-0.5,0.5h-0.9v2.8
		c0,0.4,0.2,0.4,0.5,0.4c0.2,0,0.3,0,0.3,0c0.1,0,0.1,0,0.2,0c0.2,0,0.5,0.2,0.5,0.5C14.5,14,14.4,14.1,14.2,14.2z"/>
	<path class="st1" d="M17.6,13.4c0.6,0,0.9-0.1,1.2-0.3c0.1,0,0.1-0.1,0.2-0.1c0.3,0,0.5,0.2,0.5,0.5c0,0.2-0.1,0.4-0.3,0.5
		c-0.4,0.2-0.9,0.4-1.8,0.4c-1.7,0-2.7-1-2.7-2.7c0-2,1.3-2.7,2.5-2.7c1.7,0,2.4,1.3,2.4,2.6c0,0.3-0.3,0.6-0.6,0.6h-3.1
		C16.3,13,16.8,13.4,17.6,13.4z M17.4,10.2c-0.6,0-1.2,0.3-1.3,1.1h2.5C18.6,10.6,18,10.2,17.4,10.2z"/>
</g>
</svg>
