<?xml version="1.0" encoding="utf-8"?>
<!-- Generator: Adobe Illustrator 23.0.3, SVG Export Plug-In . SVG Version: 6.00 Build 0)  -->
<svg version="1.1" id="Layer_1" xmlns="http://www.w3.org/2000/svg" xmlns:xlink="http://www.w3.org/1999/xlink" x="0px" y="0px"
	 viewBox="0 0 36 36" style="enable-background:new 0 0 36 36;" xml:space="preserve">
<style type="text/css">
	.st0{fill:#2B2B2B;}
</style>
<g>
	<path class="st0" d="M22.6,7.4h3.6v2.3l2.3,1.4c0.3,0.2,0.6,0.5,0.8,0.8c0.2,0.3,0.3,0.7,0.3,1.1v11.2c0,0.6-0.2,1.2-0.7,1.6
		s-1,0.7-1.6,0.7h-18c-0.6,0-1.1-0.2-1.6-0.7s-0.7-1-0.7-1.6V13c0-0.4,0.1-0.8,0.3-1.1c0.2-0.3,0.4-0.6,0.8-0.8l2.3-1.4V7.4h3.6
		l4.2-2.6L22.6,7.4z M9.4,13l1.2,0.7v-1.4L9.4,13z M12.8,15.2l5.6,3.5l5.6-3.5V9.7H12.8V15.2z M22.9,10.8v1.7h-9v-1.7H22.9z
		 M22.9,13.6v1.7h-9v-1.7H22.9z M26.3,13.7l1.2-0.7l-1.2-0.7V13.7z"/>
</g>
</svg>
