<?xml version="1.0" encoding="utf-8"?>
<!-- Generator: Adobe Illustrator 25.4.1, SVG Export Plug-In . SVG Version: 6.00 Build 0)  -->
<svg version="1.1" xmlns="http://www.w3.org/2000/svg" xmlns:xlink="http://www.w3.org/1999/xlink" x="0px" y="0px"
	 viewBox="0 0 24 24" style="enable-background:new 0 0 24 24;" xml:space="preserve">
<style type="text/css">
	.st0{fill:#2B2B2B;}
</style>
<g>
	<path d="M2.6,1.4L2.6,1.4c0.7,0,1.2,0.5,1.2,1.2v0.1c0,0.6-0.5,1.2-1.2,1.2H2.6c-0.6,0-1.2-0.5-1.2-1.2V2.6
		C1.4,1.9,1.9,1.4,2.6,1.4z M2.6,6.1L2.6,6.1c0.7,0,1.2,0.5,1.2,1.2v0.1c0,0.6-0.5,1.2-1.2,1.2H2.6c-0.6,0-1.2-0.5-1.2-1.2V7.3
		C1.4,6.6,1.9,6.1,2.6,6.1z M2.6,10.8L2.6,10.8c0.7,0,1.2,0.5,1.2,1.2v0c0,0.6-0.5,1.2-1.2,1.2H2.6c-0.6,0-1.2-0.5-1.2-1.2v0
		C1.4,11.4,1.9,10.8,2.6,10.8z M2.6,15.5L2.6,15.5c0.7,0,1.2,0.5,1.2,1.2v0.1c0,0.6-0.5,1.2-1.2,1.2H2.6c-0.6,0-1.2-0.5-1.2-1.2
		v-0.1C1.4,16.1,1.9,15.5,2.6,15.5z M2.6,20.2L2.6,20.2c0.7,0,1.2,0.5,1.2,1.2v0.1c0,0.6-0.5,1.2-1.2,1.2H2.6
		c-0.6,0-1.2-0.5-1.2-1.2v-0.1C1.4,20.7,1.9,20.2,2.6,20.2z M7.3,1.4L7.3,1.4c0.7,0,1.2,0.5,1.2,1.2v0.1c0,0.6-0.5,1.2-1.2,1.2H7.3
		c-0.6,0-1.2-0.5-1.2-1.2V2.6C6.1,1.9,6.6,1.4,7.3,1.4z M7.3,20.2L7.3,20.2c0.7,0,1.2,0.5,1.2,1.2v0.1c0,0.6-0.5,1.2-1.2,1.2H7.3
		c-0.6,0-1.2-0.5-1.2-1.2v-0.1C6.1,20.7,6.6,20.2,7.3,20.2z M12,1.4L12,1.4c0.6,0,1.2,0.5,1.2,1.2v0.1c0,0.6-0.5,1.2-1.2,1.2h0
		c-0.6,0-1.2-0.5-1.2-1.2V2.6C10.8,1.9,11.4,1.4,12,1.4z M12,20.2L12,20.2c0.6,0,1.2,0.5,1.2,1.2v0.1c0,0.6-0.5,1.2-1.2,1.2h0
		c-0.6,0-1.2-0.5-1.2-1.2v-0.1C10.8,20.7,11.4,20.2,12,20.2z M16.7,1.4L16.7,1.4c0.7,0,1.2,0.5,1.2,1.2v0.1c0,0.6-0.5,1.2-1.2,1.2
		h-0.1c-0.6,0-1.2-0.5-1.2-1.2V2.6C15.5,1.9,16.1,1.4,16.7,1.4z M16.7,20.2L16.7,20.2c0.7,0,1.2,0.5,1.2,1.2v0.1
		c0,0.6-0.5,1.2-1.2,1.2h-0.1c-0.6,0-1.2-0.5-1.2-1.2v-0.1C15.5,20.7,16.1,20.2,16.7,20.2z M21.4,1.4L21.4,1.4
		c0.7,0,1.2,0.5,1.2,1.2v0.1c0,0.6-0.5,1.2-1.2,1.2h-0.1c-0.6,0-1.2-0.5-1.2-1.2V2.6C20.2,1.9,20.7,1.4,21.4,1.4z M21.4,6.1
		L21.4,6.1c0.7,0,1.2,0.5,1.2,1.2v0.1c0,0.6-0.5,1.2-1.2,1.2h-0.1c-0.6,0-1.2-0.5-1.2-1.2V7.3C20.2,6.6,20.7,6.1,21.4,6.1z
		 M21.4,10.8L21.4,10.8c0.7,0,1.2,0.5,1.2,1.2v0c0,0.6-0.5,1.2-1.2,1.2h-0.1c-0.6,0-1.2-0.5-1.2-1.2v0
		C20.2,11.4,20.7,10.8,21.4,10.8z M21.4,15.5L21.4,15.5c0.7,0,1.2,0.5,1.2,1.2v0.1c0,0.6-0.5,1.2-1.2,1.2h-0.1
		c-0.6,0-1.2-0.5-1.2-1.2v-0.1C20.2,16.1,20.7,15.5,21.4,15.5z M21.4,20.2L21.4,20.2c0.7,0,1.2,0.5,1.2,1.2v0.1
		c0,0.6-0.5,1.2-1.2,1.2h-0.1c-0.6,0-1.2-0.5-1.2-1.2v-0.1C20.2,20.7,20.7,20.2,21.4,20.2z"/>
</g>
</svg>
