<?xml version="1.0" encoding="utf-8"?>
<!-- Generator: Adobe Illustrator 23.0.3, SVG Export Plug-In . SVG Version: 6.00 Build 0)  -->
<svg version="1.1" id="Layer_1" xmlns="http://www.w3.org/2000/svg" xmlns:xlink="http://www.w3.org/1999/xlink" x="0px" y="0px"
	 viewBox="0 0 36 36" style="enable-background:new 0 0 36 36;" xml:space="preserve">
<style type="text/css">
	.st0{fill:#2B2B2B;}
</style>
<g>
	<path class="st0" d="M8.3,7.4h2.3v2.3H8.3V7.4z M8.3,11.9h2.3v2.3H8.3V11.9z M8.3,16.4h2.3v2.2H8.3V16.4z M8.3,20.9h2.3v2.3H8.3
		V20.9z M8.3,25.4h2.3v2.3H8.3V25.4z M12.8,7.4h2.3v2.3h-2.3V7.4z M12.8,25.4h2.3v2.3h-2.3V25.4z M17.3,7.4h2.2v2.3h-2.2V7.4z
		 M17.3,25.4h2.2v2.3h-2.2V25.4z M21.8,7.4h2.3v2.3h-2.3V7.4z M21.8,25.4h2.3v2.3h-2.3V25.4z M26.3,7.4h2.3v2.3h-2.3V7.4z
		 M26.3,11.9h2.3v2.3h-2.3V11.9z M26.3,16.4h2.3v2.2h-2.3V16.4z M26.3,20.9h2.3v2.3h-2.3V20.9z M26.3,25.4h2.3v2.3h-2.3V25.4z"/>
</g>
</svg>
