<svg id="Layer_1" data-name="Layer 1" xmlns="http://www.w3.org/2000/svg" viewBox="0 0 55.26 51.82"><title>1</title><g id="_Group_" data-name="&lt;Group&gt;"><path id="_Path_" data-name="&lt;Path&gt;" d="M349.62,492.56v-2.09a0.57,0.57,0,0,1,.57-0.57h1.16a0.57,0.57,0,0,0,.57-0.57v-1a0.57,0.57,0,0,0-.57-0.57H349a1.68,1.68,0,0,0-1.73,1.62v3.2a0.57,0.57,0,0,0,.57.57h1.16A0.57,0.57,0,0,0,349.62,492.56Z" transform="translate(-347.32 -487.74)" style="fill:#316cff"/><path id="_Path_2" data-name="&lt;Path&gt;" d="M396.83,489.9h2.88a0.57,0.57,0,0,1,.57.57v1a0.57,0.57,0,0,0,.57.57H402a0.57,0.57,0,0,0,.57-0.57v-2.13a1.68,1.68,0,0,0-1.73-1.62H397.4a0.57,0.57,0,0,0-.57.57v1.59h0Z" transform="translate(-347.32 -487.74)" style="fill:#316cff"/><path id="_Path_3" data-name="&lt;Path&gt;" d="M356,487.74h2.31a0.57,0.57,0,0,1,.57.57v1a0.57,0.57,0,0,1-.57.57H356a0.57,0.57,0,0,1-.57-0.57v-1A0.57,0.57,0,0,1,356,487.74Z" transform="translate(-347.32 -487.74)" style="fill:#316cff"/><path id="_Path_4" data-name="&lt;Path&gt;" d="M362.86,487.74h2.31a0.57,0.57,0,0,1,.57.57v1a0.57,0.57,0,0,1-.57.57h-2.31a0.57,0.57,0,0,1-.57-0.57v-1A0.57,0.57,0,0,1,362.86,487.74Z" transform="translate(-347.32 -487.74)" style="fill:#316cff"/><path id="_Path_5" data-name="&lt;Path&gt;" d="M369.77,487.74h2.31a0.57,0.57,0,0,1,.57.57v1a0.57,0.57,0,0,1-.57.57h-2.31a0.57,0.57,0,0,1-.57-0.57v-1A0.57,0.57,0,0,1,369.77,487.74Z" transform="translate(-347.32 -487.74)" style="fill:#316cff"/><path id="_Path_6" data-name="&lt;Path&gt;" d="M376.68,487.74H379a0.57,0.57,0,0,1,.57.57v1a0.57,0.57,0,0,1-.57.57h-2.31a0.57,0.57,0,0,1-.57-0.57v-1A0.57,0.57,0,0,1,376.68,487.74Z" transform="translate(-347.32 -487.74)" style="fill:#316cff"/><path id="_Path_7" data-name="&lt;Path&gt;" d="M383.58,487.74h2.31a0.57,0.57,0,0,1,.57.57v1a0.57,0.57,0,0,1-.57.57h-2.31a0.57,0.57,0,0,1-.57-0.57v-1A0.57,0.57,0,0,1,383.58,487.74Z" transform="translate(-347.32 -487.74)" style="fill:#316cff"/><path id="_Path_8" data-name="&lt;Path&gt;" d="M390.49,487.74h2.31a0.57,0.57,0,0,1,.57.57v1a0.57,0.57,0,0,1-.57.57h-2.31a0.57,0.57,0,0,1-.57-0.57v-1A0.57,0.57,0,0,1,390.49,487.74Z" transform="translate(-347.32 -487.74)" style="fill:#316cff"/><path id="_Path_9" data-name="&lt;Path&gt;" d="M400.85,495.29H402a0.57,0.57,0,0,1,.57.57V498a0.57,0.57,0,0,1-.57.57h-1.16a0.57,0.57,0,0,1-.57-0.57v-2.09A0.57,0.57,0,0,1,400.85,495.29Z" transform="translate(-347.32 -487.74)" style="fill:#316cff"/><path id="_Path_10" data-name="&lt;Path&gt;" d="M400.85,501.77H402a0.57,0.57,0,0,1,.57.57v2.09a0.57,0.57,0,0,1-.57.57h-1.16a0.57,0.57,0,0,1-.57-0.57v-2.09A0.57,0.57,0,0,1,400.85,501.77Z" transform="translate(-347.32 -487.74)" style="fill:#316cff"/><path id="_Path_11" data-name="&lt;Path&gt;" d="M400.85,508.25H402a0.57,0.57,0,0,1,.57.57v2.09a0.57,0.57,0,0,1-.57.57h-1.16a0.57,0.57,0,0,1-.57-0.57v-2.09A0.57,0.57,0,0,1,400.85,508.25Z" transform="translate(-347.32 -487.74)" style="fill:#316cff"/><path id="_Path_12" data-name="&lt;Path&gt;" d="M400.85,514.73H402a0.57,0.57,0,0,1,.57.57v2.09a0.57,0.57,0,0,1-.57.57h-1.16a0.57,0.57,0,0,1-.57-0.57V515.3A0.57,0.57,0,0,1,400.85,514.73Z" transform="translate(-347.32 -487.74)" style="fill:#316cff"/><path id="_Path_13" data-name="&lt;Path&gt;" d="M400.85,521.2H402a0.57,0.57,0,0,1,.57.57v2.09a0.57,0.57,0,0,1-.57.57h-1.16a0.57,0.57,0,0,1-.57-0.57v-2.09A0.57,0.57,0,0,1,400.85,521.2Z" transform="translate(-347.32 -487.74)" style="fill:#316cff"/><path id="_Path_14" data-name="&lt;Path&gt;" d="M400.85,527.68H402a0.57,0.57,0,0,1,.57.57v2.09a0.57,0.57,0,0,1-.57.57h-1.16a0.57,0.57,0,0,1-.57-0.57v-2.09A0.57,0.57,0,0,1,400.85,527.68Z" transform="translate(-347.32 -487.74)" style="fill:#316cff"/><path id="_Path_15" data-name="&lt;Path&gt;" d="M347.89,528.76h1.16a0.57,0.57,0,0,1,.57.57v2.09a0.57,0.57,0,0,1-.57.57h-1.16a0.57,0.57,0,0,1-.57-0.57v-2.09A0.57,0.57,0,0,1,347.89,528.76Z" transform="translate(-347.32 -487.74)" style="fill:#316cff"/><path id="_Path_16" data-name="&lt;Path&gt;" d="M347.89,522.28h1.16a0.57,0.57,0,0,1,.57.57v2.09a0.57,0.57,0,0,1-.57.57h-1.16a0.57,0.57,0,0,1-.57-0.57v-2.09A0.57,0.57,0,0,1,347.89,522.28Z" transform="translate(-347.32 -487.74)" style="fill:#316cff"/><path id="_Path_17" data-name="&lt;Path&gt;" d="M347.89,515.81h1.16a0.57,0.57,0,0,1,.57.57v2.09a0.57,0.57,0,0,1-.57.57h-1.16a0.57,0.57,0,0,1-.57-0.57v-2.09A0.57,0.57,0,0,1,347.89,515.81Z" transform="translate(-347.32 -487.74)" style="fill:#316cff"/><path id="_Path_18" data-name="&lt;Path&gt;" d="M347.89,509.33h1.16a0.57,0.57,0,0,1,.57.57V512a0.57,0.57,0,0,1-.57.57h-1.16a0.57,0.57,0,0,1-.57-0.57V509.9A0.57,0.57,0,0,1,347.89,509.33Z" transform="translate(-347.32 -487.74)" style="fill:#316cff"/><path id="_Path_19" data-name="&lt;Path&gt;" d="M347.89,502.85h1.16a0.57,0.57,0,0,1,.57.57v2.09a0.57,0.57,0,0,1-.57.57h-1.16a0.57,0.57,0,0,1-.57-0.57v-2.09A0.57,0.57,0,0,1,347.89,502.85Z" transform="translate(-347.32 -487.74)" style="fill:#316cff"/><path id="_Path_20" data-name="&lt;Path&gt;" d="M347.89,496.37h1.16a0.57,0.57,0,0,1,.57.57V499a0.57,0.57,0,0,1-.57.57h-1.16a0.57,0.57,0,0,1-.57-0.57v-2.09A0.57,0.57,0,0,1,347.89,496.37Z" transform="translate(-347.32 -487.74)" style="fill:#316cff"/><path id="_Path_21" data-name="&lt;Path&gt;" d="M400.28,534.16v2.67a0.57,0.57,0,0,1-.57.57h-1.16a0.57,0.57,0,0,0-.57.57v1a0.57,0.57,0,0,0,.57.57h2.3a1.68,1.68,0,0,0,1.73-1.62v-3.2a0.57,0.57,0,0,0-.57-0.57h-1.73Z" transform="translate(-347.32 -487.74)" style="fill:#316cff"/><path id="_Path_22" data-name="&lt;Path&gt;" d="M353.08,537.4H350.2a0.57,0.57,0,0,1-.57-0.57v-1a0.57,0.57,0,0,0-.57-0.57h-1.16a0.57,0.57,0,0,0-.57.57v2.13a1.68,1.68,0,0,0,1.73,1.62h3.46a0.57,0.57,0,0,0,.57-0.57V537.4h0Z" transform="translate(-347.32 -487.74)" style="fill:#316cff"/><path id="_Path_23" data-name="&lt;Path&gt;" d="M391.64,537.4h2.31a0.57,0.57,0,0,1,.57.57v1a0.57,0.57,0,0,1-.57.57h-2.31a0.57,0.57,0,0,1-.57-0.57v-1A0.57,0.57,0,0,1,391.64,537.4Z" transform="translate(-347.32 -487.74)" style="fill:#316cff"/><path id="_Path_24" data-name="&lt;Path&gt;" d="M384.74,537.4H387a0.57,0.57,0,0,1,.57.57v1a0.57,0.57,0,0,1-.57.57h-2.31a0.57,0.57,0,0,1-.57-0.57v-1A0.57,0.57,0,0,1,384.74,537.4Z" transform="translate(-347.32 -487.74)" style="fill:#316cff"/><path id="_Path_25" data-name="&lt;Path&gt;" d="M377.83,537.4h2.31a0.57,0.57,0,0,1,.57.57v1a0.57,0.57,0,0,1-.57.57h-2.31a0.57,0.57,0,0,1-.57-0.57v-1A0.57,0.57,0,0,1,377.83,537.4Z" transform="translate(-347.32 -487.74)" style="fill:#316cff"/><path id="_Path_26" data-name="&lt;Path&gt;" d="M370.92,537.4h2.31a0.57,0.57,0,0,1,.57.57v1a0.57,0.57,0,0,1-.57.57h-2.31a0.57,0.57,0,0,1-.57-0.57v-1A0.57,0.57,0,0,1,370.92,537.4Z" transform="translate(-347.32 -487.74)" style="fill:#316cff"/><path id="_Path_27" data-name="&lt;Path&gt;" d="M364,537.4h2.31a0.57,0.57,0,0,1,.57.57v1a0.57,0.57,0,0,1-.57.57H364a0.57,0.57,0,0,1-.57-0.57v-1A0.57,0.57,0,0,1,364,537.4Z" transform="translate(-347.32 -487.74)" style="fill:#316cff"/><path id="_Path_28" data-name="&lt;Path&gt;" d="M357.11,537.4h2.31a0.57,0.57,0,0,1,.57.57v1a0.57,0.57,0,0,1-.57.57h-2.31a0.57,0.57,0,0,1-.57-0.57v-1A0.57,0.57,0,0,1,357.11,537.4Z" transform="translate(-347.32 -487.74)" style="fill:#316cff"/><rect id="_Rectangle_" data-name="&lt;Rectangle&gt;" x="2.74" y="2.61" width="50" height="46" style="fill:#fffad2"/></g></svg>