<?xml version="1.0" encoding="utf-8"?>
<!-- Generator: Adobe Illustrator 25.4.1, SVG Export Plug-In . SVG Version: 6.00 Build 0)  -->
<svg version="1.1" id="Layer_1" xmlns="http://www.w3.org/2000/svg" xmlns:xlink="http://www.w3.org/1999/xlink" x="0px" y="0px"
	 viewBox="0 0 24 24" style="enable-background:new 0 0 24 24;" xml:space="preserve">
<style type="text/css">
	.st0{fill:#292D32;}
</style>
<path class="st0" d="M14.9,22.7h-6c-5.4,0-7.8-2.3-7.8-7.8v-6c0-5.4,2.3-7.8,7.8-7.8h6c5.4,0,7.8,2.3,7.8,7.8v6
	C22.6,20.4,20.3,22.7,14.9,22.7z M8.9,2.7c-4.6,0-6.2,1.6-6.2,6.2v6c0,4.6,1.6,6.3,6.2,6.3h6c4.6,0,6.3-1.6,6.3-6.3v-6
	c0-4.6-1.6-6.2-6.3-6.2H8.9z"/>
<rect x="11.2" y="2.5" class="st0" width="1.4" height="18.8"/>
</svg>
