<?xml version="1.0" encoding="utf-8"?>
<!-- Generator: Adobe Illustrator 25.2.1, SVG Export Plug-In . SVG Version: 6.00 Build 0)  -->
<svg version="1.1" xmlns="http://www.w3.org/2000/svg" xmlns:xlink="http://www.w3.org/1999/xlink" x="0px" y="0px"
	 viewBox="0 0 24 24" style="enable-background:new 0 0 24 24;" xml:space="preserve">
<style type="text/css">
	.st0{fill:#2B2B2B;}
</style>
<path d="M16.3,1.2H7.5C3.9,1.2,1,4.1,1,7.6v8.8c0,3.6,2.9,6.5,6.5,6.5h8.8c3.6,0,6.5-2.9,6.5-6.5V7.6
	C22.8,4.1,19.9,1.2,16.3,1.2z M11.1,21.3H8.9c-1.9,0-3.3-0.3-4.3-1c-0.4-0.3-0.7-0.6-1-1c-0.6-0.9-0.9-2.1-0.9-3.7V8.3
	C2.8,7,3,5.9,3.4,5.1c0-0.1,0.1-0.1,0.1-0.2c0,0,0-0.1,0.1-0.1C3.9,4.4,4.2,4,4.7,3.7c1-0.6,2.3-0.9,4.2-0.9c0,0,1.2,0,2.2,0V21.3z
	 M21.1,16.3c-0.1,1-0.3,1.9-0.6,2.6c0,0.1-0.1,0.2-0.1,0.2c0,0-0.1,0.1-0.1,0.1c-0.3,0.4-0.6,0.7-1,1c-1,0.7-2.4,1-4.4,1h-2.3V2.8
	c1.1,0,2.3,0,2.3,0c1.5,0,2.7,0.2,3.6,0.6c1.2,0.6,2,1.7,2.4,3C21,6.6,21,6.9,21.1,7.2c0,0.2,0,0.3,0,0.5V16.3z"/>
</svg>
