<?xml version="1.0" encoding="utf-8"?>
<!-- Generator: Adobe Illustrator 25.4.1, SVG Export Plug-In . SVG Version: 6.00 Build 0)  -->
<svg version="1.1" id="Layer_1" xmlns="http://www.w3.org/2000/svg" xmlns:xlink="http://www.w3.org/1999/xlink" x="0px" y="0px"
	 viewBox="0 0 24 24" style="enable-background:new 0 0 24 24;" xml:space="preserve">
<style type="text/css">
	.st0{fill:#292D32;}
</style>
<path class="st0" d="M21,5.2H3c-0.4,0-0.8-0.3-0.8-0.8S2.6,3.8,3,3.8h18c0.4,0,0.8,0.3,0.8,0.8S21.4,5.2,21,5.2z"/>
<path class="st0" d="M21,10.2H3c-0.4,0-0.8-0.3-0.8-0.8S2.6,8.8,3,8.8h18c0.4,0,0.8,0.3,0.8,0.8S21.4,10.2,21,10.2z"/>
<path class="st0" d="M21,15.2H3c-0.4,0-0.8-0.3-0.8-0.8s0.3-0.8,0.8-0.8h18c0.4,0,0.8,0.3,0.8,0.8S21.4,15.2,21,15.2z"/>
<path class="st0" d="M12.8,20.2H2.7c-0.2,0-0.4-0.3-0.4-0.8s0.2-0.8,0.4-0.8h10.1c0.2,0,0.4,0.3,0.4,0.8S13,20.2,12.8,20.2z"/>
</svg>
