<?xml version="1.0" encoding="utf-8"?>
<!-- Generator: Adobe Illustrator 25.4.1, SVG Export Plug-In . SVG Version: 6.00 Build 0)  -->
<svg version="1.1" xmlns="http://www.w3.org/2000/svg" xmlns:xlink="http://www.w3.org/1999/xlink" x="0px" y="0px"
	 viewBox="0 0 24 24" style="enable-background:new 0 0 24 24;" xml:space="preserve">
<style type="text/css">
	.st0{fill:#2B2B2B;}
</style>
<g>
	<path d="M21.9,15.6H2.1c-0.4,0-0.9-0.3-0.9-0.9s0.3-0.9,0.9-0.9h19.8c0.4,0,0.9,0.3,0.9,0.9S22.3,15.6,21.9,15.6z"/>
	<path d="M21.9,10.1H2.1c-0.4,0-0.9-0.3-0.9-0.9s0.3-0.9,0.9-0.9h19.8c0.4,0,0.9,0.3,0.9,0.9S22.3,10.1,21.9,10.1z"/>
	<path d="M21.9,4.6H2.1c-0.4,0-0.9-0.3-0.9-0.9s0.3-0.9,0.9-0.9h19.8c0.4,0,0.9,0.3,0.9,0.9S22.3,4.6,21.9,4.6z"/>
	<path d="M12.5,21.2H2.1c-0.4,0-0.9-0.3-0.9-0.9c0-0.5,0.3-0.9,0.9-0.9h10.4c0.4,0,0.9,0.3,0.9,0.9
		C13.4,20.8,12.9,21.2,12.5,21.2z"/>
</g>
</svg>
