<?xml version="1.0" encoding="utf-8"?>
<!-- Generator: Adobe Illustrator 25.4.1, SVG Export Plug-In . SVG Version: 6.00 Build 0)  -->
<svg version="1.1" id="Layer_1" xmlns="http://www.w3.org/2000/svg" xmlns:xlink="http://www.w3.org/1999/xlink" x="0px" y="0px"
	 viewBox="0 0 24 24" style="enable-background:new 0 0 24 24;" xml:space="preserve">
<style type="text/css">
	.st0{fill:none;stroke:#2B2B2B;stroke-width:1.25;stroke-miterlimit:10;}
</style>
<g>
	<path class="st0" d="M22.1,12L22.1,12l0-7c0-0.6-0.7-0.9-1.1-0.5l-0.7,0.7c-0.3,0.3-0.7,0.2-0.9,0c-1.8-2-4.4-3.2-7.3-3.2
		C9,1.9,6.2,3.3,4.4,5.5c-0.2,0.2-0.2,0.6,0,0.9l2.7,2.8c0.3,0.3,0.7,0.3,1-0.1C8.4,8.6,8.8,8.3,9.2,8c0.6-0.5,1.6-0.9,2.8-0.9
		c0.2,0,0.3,0,0.4,0.1c1.4,0.1,2.5,0.8,3.4,1.8c0.2,0.3,0.2,0.6,0,0.9l-1.1,1.1C14.2,11.3,14.4,12,15,12L22.1,12L22.1,12z"/>
	<path class="st0" d="M1.9,12l0,0.4v6.6c0,0.6,0.7,0.9,1.1,0.5l0.7-0.7c0.3-0.3,0.7-0.2,0.9,0c1.8,2,4.4,3.2,7.3,3.2
		c3.1,0,5.8-1.4,7.6-3.5c0.2-0.2,0.2-0.6,0-0.9l-2.7-2.8c-0.3-0.3-0.7-0.3-1,0.1c-0.3,0.4-0.7,0.8-1.1,1.1c-0.6,0.5-1.6,0.9-2.8,0.9
		c-0.2,0-0.3,0-0.4-0.1c-1.4-0.1-2.5-0.8-3.4-1.8c-0.2-0.3-0.2-0.6,0-0.9l1.1-1.1C9.8,12.7,9.5,12,9,12C6.1,12,3.2,12,1.9,12"/>
</g>
</svg>
