<?xml version="1.0" encoding="utf-8"?>
<!-- Generator: Adobe Illustrator 25.2.1, SVG Export Plug-In . SVG Version: 6.00 Build 0)  -->
<svg version="1.1" xmlns="http://www.w3.org/2000/svg" xmlns:xlink="http://www.w3.org/1999/xlink" x="0px" y="0px"
	 viewBox="0 0 24 24" style="enable-background:new 0 0 24 24;" xml:space="preserve">
<style type="text/css">
	.st0{fill:#2B2B2B;}
</style>
<g id="Layer_1">
</g>
<g id="Layer_2">
</g>
<g id="Layer_3">
</g>
<g id="Layer_5">
</g>
<g id="Layer_4">
</g>
<g id="Layer_7">
</g>
<g id="Layer_8">
</g>
<g id="Layer_11">
</g>
<g id="Layer_9">
</g>
<g id="Layer_10">
	<g>
		<path d="M0.3,13.5c0-0.1,0-0.2,0.1-0.3L4.9,9C5,8.8,5.3,8.8,5.4,9l4.3,4.3c0.1,0.1,0.2,0.3,0.1,0.5
			C9.8,13.9,9.6,14,9.5,14H6.9c0,0.3,0.1,0.6,0.2,0.9c0.8,2.6,3.2,4.4,5.9,4.4c1.6,0,3.1-0.6,4.3-1.7c0.2-0.2,0.4-0.2,0.6,0
			c0.2,0.1,0.2,0.4,0.1,0.6c-0.3,0.4-0.6,0.8-1,1.2c-1.5,1.5-3.6,2.4-5.7,2.4c-2.2,0-4.2-0.8-5.7-2.4C4.1,17.9,3.3,16,3.2,14H0.7
			c-0.2,0-0.3-0.1-0.4-0.3C0.3,13.6,0.3,13.6,0.3,13.5z M5.1,9.8l-3.4,3.3h1.8c0.2,0,0.4,0.2,0.4,0.4v0.2c0,1.9,0.8,3.7,2.1,5
			c1.4,1.4,3.2,2.1,5.1,2.1c1.2,0,2.3-0.3,3.3-0.8c-0.5,0.1-1.1,0.2-1.6,0.2c-3.1,0-5.9-2.1-6.7-5C6.1,14.7,6,14.2,6,13.8
			c0,0,0,0,0-0.1c0,0,0-0.1,0-0.1c0-0.1,0-0.2,0.1-0.3c0.1-0.1,0.2-0.1,0.3-0.1h2L5.1,9.8z"/>
	</g>
	<g>
		<path d="M6.1,6.1c0-0.1,0-0.2,0.1-0.2c0.3-0.4,0.6-0.8,1-1.2c1.5-1.5,3.6-2.4,5.7-2.4c2.2,0,4.2,0.8,5.7,2.4
			c1.4,1.4,2.3,3.3,2.4,5.4h2.4c0.2,0,0.3,0.1,0.4,0.3c0.1,0.2,0,0.3-0.1,0.5l-4.4,4.3c-0.2,0.2-0.4,0.2-0.6,0l-4.3-4.3
			c-0.1-0.1-0.2-0.3-0.1-0.5c0.1-0.2,0.2-0.3,0.4-0.3h2.6c0-0.3-0.1-0.6-0.2-0.9c-0.8-2.6-3.2-4.4-5.9-4.4C9.5,4.7,8,5.3,6.8,6.5
			c-0.2,0.2-0.4,0.2-0.6,0C6.2,6.4,6.1,6.3,6.1,6.1z M20.1,10.4c0-1.9-0.8-3.7-2.1-5c-1.4-1.4-3.2-2.1-5.1-2.1
			c-1.2,0-2.3,0.3-3.3,0.8c0.5-0.1,1.1-0.2,1.6-0.2c3.1,0,5.9,2.1,6.7,5c0.1,0.5,0.2,0.9,0.3,1.4c0,0,0,0,0,0.1c0,0,0,0.1,0,0.1
			c0,0.1,0,0.2-0.1,0.3c-0.1,0.1-0.2,0.1-0.3,0.1h-2l3.3,3.3l3.4-3.3h-1.8c-0.2,0-0.4-0.2-0.4-0.4V10.4z"/>
	</g>
</g>
<g id="Layer_6">
</g>
</svg>
