<?xml version="1.0" encoding="utf-8"?>
<!-- Generator: Adobe Illustrator 23.0.3, SVG Export Plug-In . SVG Version: 6.00 Build 0)  -->
<svg version="1.1" id="Layer_1" xmlns="http://www.w3.org/2000/svg" xmlns:xlink="http://www.w3.org/1999/xlink" x="0px" y="0px"
	 viewBox="0 0 36 36" style="enable-background:new 0 0 36 36;" xml:space="preserve">
<style type="text/css">
	.st0{fill:#2B2B2B;}
</style>
<g>
	<path class="st0" d="M7.2,11.9h12.3v2.3H9.4v6.8h10.1v2.3H7.2V11.9z M24.1,11.9h5.6v11.3h-5.6v2.2c0,0.3,0.1,0.6,0.3,0.8
		s0.5,0.3,0.8,0.3h2.3v2.2h-2.8c-0.3,0-0.7-0.1-1.1-0.3c-0.4-0.2-0.6-0.5-0.6-0.8c0,0.3-0.2,0.5-0.6,0.8c-0.4,0.2-0.8,0.3-1.1,0.3
		h-2.8v-2.2h2.3c0.3,0,0.6-0.1,0.8-0.3s0.3-0.5,0.3-0.8V9.7c0-0.3-0.1-0.6-0.3-0.8c-0.2-0.2-0.5-0.3-0.8-0.3h-2.3V6.3h2.8
		c0.4,0,0.7,0.1,1.1,0.3c0.4,0.2,0.6,0.5,0.6,0.8c0-0.3,0.2-0.5,0.6-0.8c0.4-0.2,0.8-0.3,1.1-0.3h2.8v2.2h-2.3
		c-0.3,0-0.6,0.1-0.8,0.3c-0.2,0.2-0.3,0.5-0.3,0.8V11.9z M27.4,20.9v-6.8h-3.4v6.8H27.4z"/>
</g>
</svg>
