<svg id="Layer_1" data-name="Layer 1" xmlns="http://www.w3.org/2000/svg" viewBox="0 0 404.77 98.1"><title>paypal</title><g id="Layer_1-2" data-name="Layer 1"><path d="M505.5,278.5H483.2a3.2,3.2,0,0,0-3.1,2.6l-9,57.1a1.82,1.82,0,0,0,1.8,2.1h11.4a2.07,2.07,0,0,0,2.1-1.8l2.6-16.2a3,3,0,0,1,3.1-2.6h7c14.7,0,23.1-7.1,25.3-21.2,1-6.1,0-11-2.8-14.4C518.5,280.5,512.9,278.5,505.5,278.5Zm2.5,20.8c-1.2,8-7.3,8-13.2,8h-3.4l2.4-14.9a1.83,1.83,0,0,1,1.8-1.6h1.5c4,0,7.8,0,9.8,2.3C508.1,294.5,508.5,296.5,508,299.3Z" transform="translate(-193.76 -256.6)" style="fill:#009bde"/><path d="M346.8,278.5H324.5a3.2,3.2,0,0,0-3.1,2.6l-9,57.1a1.82,1.82,0,0,0,1.8,2.1h10.6a3.2,3.2,0,0,0,3.1-2.6l2.4-15.4a3,3,0,0,1,3.1-2.6h7c14.7,0,23.1-7.1,25.3-21.2,1-6.1,0-11-2.8-14.4C359.8,280.5,354.2,278.5,346.8,278.5Zm2.5,20.8c-1.2,8-7.3,8-13.2,8h-3.4l2.4-14.9a1.83,1.83,0,0,1,1.8-1.6h1.5c4,0,7.8,0,9.8,2.3C349.4,294.5,349.8,296.5,349.3,299.3Z" transform="translate(-193.76 -256.6)" style="fill:#002f87"/><path d="M413.3,299.1H402.6a1.83,1.83,0,0,0-1.8,1.6l-0.5,3-0.7-1.1c-2.3-3.3-7.4-4.5-12.6-4.5-11.8,0-21.8,8.9-23.8,21.4-1,6.2.4,12.2,4,16.4,3.3,3.8,7.9,5.4,13.4,5.4a20.18,20.18,0,0,0,14.7-6.1l-0.5,3a1.82,1.82,0,0,0,1.8,2.1h9.6a3.2,3.2,0,0,0,3.1-2.6l5.8-36.5A1.82,1.82,0,0,0,413.3,299.1Zm-14.9,20.7a11.89,11.89,0,0,1-12,10.2,8.33,8.33,0,0,1-8.9-10.4,12,12,0,0,1,11.9-10.3,9,9,0,0,1,7.1,2.9A8.8,8.8,0,0,1,398.4,319.8Z" transform="translate(-193.76 -256.6)" style="fill:#002f87"/><path d="M572,299.1H561.3a1.83,1.83,0,0,0-1.8,1.6l-0.5,3-0.7-1.1c-2.3-3.3-7.4-4.5-12.6-4.5-11.8,0-21.8,8.9-23.8,21.4-1,6.2.4,12.2,4,16.4,3.3,3.8,7.9,5.4,13.4,5.4a20.18,20.18,0,0,0,14.7-6.1l-0.5,3a1.82,1.82,0,0,0,1.8,2.1h9.6a3.2,3.2,0,0,0,3.1-2.6l5.8-36.5A1.82,1.82,0,0,0,572,299.1Zm-14.9,20.7a11.89,11.89,0,0,1-12,10.2,8.33,8.33,0,0,1-8.9-10.4,12,12,0,0,1,11.9-10.3,9,9,0,0,1,7.1,2.9A8.8,8.8,0,0,1,557.1,319.8Z" transform="translate(-193.76 -256.6)" style="fill:#009bde"/><path d="M470,299.1H459.3a3.14,3.14,0,0,0-2.6,1.4L442,322.2l-6.3-20.9a3.12,3.12,0,0,0-3-2.2H422.2a1.91,1.91,0,0,0-1.8,2.5l11.8,34.6-11.1,15.6a1.83,1.83,0,0,0,1.5,2.9h10.7a3,3,0,0,0,2.5-1.3L471.4,302A1.77,1.77,0,0,0,470,299.1Z" transform="translate(-193.76 -256.6)" style="fill:#002f87"/><path d="M584.5,280.1l-9.1,58.1a1.82,1.82,0,0,0,1.8,2.1h9.2a3.2,3.2,0,0,0,3.1-2.6l9-57.1a1.82,1.82,0,0,0-1.8-2.1H586.4A2,2,0,0,0,584.5,280.1Z" transform="translate(-193.76 -256.6)" style="fill:#009bde"/><path d="M268.8,281.5c1.2-7.6,0-12.8-4.1-17.5-4.5-5.2-12.8-7.4-23.3-7.4H210.9a4.4,4.4,0,0,0-4.3,3.7l-12.7,80.6a2.58,2.58,0,0,0,2.6,3h18.8l-1.3,8.2a2.29,2.29,0,0,0,2.3,2.6h15.9a3.87,3.87,0,0,0,3.8-3.2l0.2-.8,3-19,0.2-1a3.78,3.78,0,0,1,3.8-3.2h2.4c15.4,0,27.4-6.2,30.9-24.3,1.5-7.6.7-13.9-3.2-18.3a16.68,16.68,0,0,0-4.5-3.4h0" transform="translate(-193.76 -256.6)" style="fill:#009bde"/><path d="M268.8,281.5c1.2-7.6,0-12.8-4.1-17.5-4.5-5.2-12.8-7.4-23.3-7.4H210.9a4.4,4.4,0,0,0-4.3,3.7l-12.7,80.6a2.58,2.58,0,0,0,2.6,3h18.8l4.7-30-0.1.9a4.32,4.32,0,0,1,4.3-3.7h9c17.6,0,31.4-7.1,35.4-27.8a11,11,0,0,1,.2-1.8" transform="translate(-193.76 -256.6)" style="fill:#022169"/><path d="M225.1,281.6a4,4,0,0,1,2.1-2.9,4.71,4.71,0,0,1,1.6-.4h23.9a48.78,48.78,0,0,1,7.9.6,11.8,11.8,0,0,1,2,.4c0.6,0.2,1.3.3,1.9,0.5l0.9,0.3a25.18,25.18,0,0,1,3.3,1.4c1.2-7.6,0-12.8-4.1-17.5-4.5-5.2-12.8-7.4-23.3-7.4H210.8a4.4,4.4,0,0,0-4.3,3.7l-12.7,80.6a2.58,2.58,0,0,0,2.6,3h18.8l4.7-30Z" transform="translate(-193.76 -256.6)" style="fill:#002f87"/></g></svg>