<?xml version="1.0" encoding="utf-8"?>
<!-- Generator: Adobe Illustrator 23.0.3, SVG Export Plug-In . SVG Version: 6.00 Build 0)  -->
<svg version="1.1" id="Layer_1" xmlns="http://www.w3.org/2000/svg" xmlns:xlink="http://www.w3.org/1999/xlink" x="0px" y="0px"
	 viewBox="0 0 36 36" style="enable-background:new 0 0 36 36;" xml:space="preserve">
<style type="text/css">
	.st0{fill-rule:evenodd;clip-rule:evenodd;fill:#2B2B2B;}
</style>
<path class="st0" d="M27.5,13.2c-1.1,5-4.6,7.6-10.1,7.6l-1.8,0l-1.3,8l-1.5,0l-0.1,0.5c-0.1,0.3,0.2,0.6,0.6,0.6h3.9
	c0.5,0,0.9-0.3,0.9-0.8l0-0.2l0.7-4.7l0-0.3c0.1-0.5,0.5-0.8,0.9-0.8h0.6c3.8,0,6.7-1.5,7.6-6C28.4,15.7,28.3,14.3,27.5,13.2
	C27.5,13.2,27.5,13.2,27.5,13.2z M25.2,7.8c-1.1-1.3-3.1-1.8-5.7-1.8H12c-0.5,0-1,0.4-1.1,0.9L7.8,26.6C7.7,27,8,27.4,8.4,27.4h4.6
	l1.2-7.4l0,0.2c0.1-0.5,0.5-0.9,1.1-0.9l2.2,0c4.3,0,7.7-1.8,8.7-6.8c0-0.2,0.1-0.3,0.1-0.4C26.5,10.2,26.2,8.9,25.2,7.8L25.2,7.8
	L25.2,7.8z"/>
</svg>
