<?xml version="1.0" encoding="utf-8"?>
<!-- Generator: Adobe Illustrator 25.4.1, SVG Export Plug-In . SVG Version: 6.00 Build 0)  -->
<svg version="1.1" xmlns="http://www.w3.org/2000/svg" xmlns:xlink="http://www.w3.org/1999/xlink" x="0px" y="0px"
	 viewBox="0 0 24 24" style="enable-background:new 0 0 24 24;" xml:space="preserve">
<style type="text/css">
	.st0{fill-rule:evenodd;clip-rule:evenodd;fill:none;stroke:#2B2B2B;stroke-width:1.25;stroke-miterlimit:10;}
</style>
<path d="M20.1,8c-0.9,4.3-3.9,6.5-8.6,6.5H10l-1.1,6.8H7.6l-0.1,0.4c-0.1,0.3,0.2,0.5,0.5,0.5h3.3
	c0.4,0,0.8-0.3,0.8-0.7v-0.2l0.6-4v-0.3c0.1-0.4,0.4-0.7,0.8-0.7H14c3.2,0,5.7-1.3,6.5-5.1C20.9,10.1,20.8,8.9,20.1,8L20.1,8z
	 M18.1,3.4c-0.9-1.1-2.6-1.5-4.9-1.5H6.9C6.5,1.8,6,2.2,6,2.6L3.3,19.4C3.2,19.7,3.5,20,3.8,20h3.9l1-6.3v0.2
	c0.1-0.4,0.4-0.8,0.9-0.8h1.9c3.7,0,6.6-1.5,7.4-5.8c0-0.2,0.1-0.3,0.1-0.3C19.2,5.4,19,4.3,18.1,3.4L18.1,3.4L18.1,3.4z"/>
</svg>
