<?xml version="1.0" encoding="utf-8"?>
<!-- Generator: Adobe Illustrator 23.0.3, SVG Export Plug-In . SVG Version: 6.00 Build 0)  -->
<svg version="1.1" id="Layer_1" xmlns="http://www.w3.org/2000/svg" xmlns:xlink="http://www.w3.org/1999/xlink" x="0px" y="0px"
	 viewBox="0 0 36 36" style="enable-background:new 0 0 36 36;" xml:space="preserve">
<style type="text/css">
	.st0{fill:#2B2B2B;}
</style>
<g>
	<path class="st0" d="M35.6,17c0.2,0.2,0.3,0.5,0.3,0.8v7.6c0,0.3-0.1,0.6-0.3,0.8c-0.2,0.2-0.5,0.3-0.8,0.3h-7.6
		c-0.3,0-0.6-0.1-0.8-0.3c-0.2-0.2-0.3-0.5-0.3-0.8v-7.6c0-0.3,0.1-0.6,0.3-0.8c0.2-0.2,0.5-0.3,0.8-0.3h7.6
		C35.2,16.7,35.4,16.8,35.6,17z M34.9,17.8h-7.6v7.6h7.6V17.8z M34.1,24.3h-6l1.5-1.9l1.1,1.3l1.5-1.9L34.1,24.3z"/>
</g>
<g>
	<path class="st0" d="M9.6,17c0.2,0.2,0.3,0.5,0.3,0.8v7.6c0,0.3-0.1,0.6-0.3,0.8c-0.2,0.2-0.5,0.3-0.8,0.3H1.3
		c-0.3,0-0.6-0.1-0.8-0.3c-0.2-0.2-0.3-0.5-0.3-0.8v-7.6c0-0.3,0.1-0.6,0.3-0.8c0.2-0.2,0.5-0.3,0.8-0.3h7.6
		C9.2,16.7,9.4,16.8,9.6,17z M8.9,17.8H1.3v7.6h7.6V17.8z M8.1,24.3h-6l1.5-1.9l1.1,1.3l1.5-1.9L8.1,24.3z"/>
</g>
<g>
	<path class="st0" d="M27.7,28c-0.4,0.4-1,0.7-1.6,0.7H10.4c-0.6,0-1.2-0.2-1.6-0.7c-0.4-0.4-0.7-1-0.7-1.6V10.7
		c0-0.6,0.2-1.2,0.7-1.6c0.4-0.4,1-0.7,1.6-0.7h15.7c0.6,0,1.2,0.2,1.6,0.7c0.4,0.4,0.7,1,0.7,1.6v15.7C28.4,27,28.2,27.6,27.7,28z
		 M10.4,25.3h15.7l-5.1-6.8l-3.9,5.1l-2.8-3.4L10.4,25.3z"/>
</g>
</svg>
