<?xml version="1.0" encoding="utf-8"?>
<!-- Generator: Adobe Illustrator 25.4.1, SVG Export Plug-In . SVG Version: 6.00 Build 0)  -->
<svg version="1.1" xmlns="http://www.w3.org/2000/svg" xmlns:xlink="http://www.w3.org/1999/xlink" x="0px" y="0px"
	 viewBox="0 0 24 24" style="enable-background:new 0 0 24 24;" xml:space="preserve">
<style type="text/css">
	.st0{fill:#2B2B2B;}
</style>
<g>
	<path d="M9,10.8c-1.5,0-2.8-1.2-2.8-2.8S7.5,5.2,9,5.2s2.8,1.2,2.8,2.8S10.5,10.8,9,10.8z M9,6.8
		C8.3,6.8,7.8,7.3,7.8,8c0,0.7,0.5,1.2,1.2,1.2c0.7,0,1.2-0.6,1.2-1.2S9.7,6.8,9,6.8z"/>
	<path d="M15,22.7H9c-5.4,0-7.7-2.3-7.7-7.7V9c0-5.4,2.3-7.7,7.7-7.7h4c0.4,0,0.8,0.3,0.8,0.8S13.4,2.9,13,2.9H9
		C4.5,2.9,2.9,4.5,2.9,9v6c0,4.6,1.6,6.2,6.2,6.2h6c4.6,0,6.2-1.6,6.2-6.2v-5c0-0.4,0.3-0.8,0.8-0.8s0.8,0.3,0.8,0.8v5
		C22.7,20.3,20.3,22.7,15,22.7z"/>
	<path d="M21.1,5.8h-5.5c-0.4,0-0.7-0.4-0.7-0.8s0.3-0.8,0.8-0.8h5.5c0.4,0,0.7,0.4,0.7,0.8S21.6,5.8,21.1,5.8z"/>
	<path d="M18.5,8.5c-0.4,0-0.8-0.3-0.8-0.8V2.3c0-0.4,0.3-0.8,0.8-0.8s0.8,0.3,0.8,0.8v5.5C19.1,8.2,18.8,8.5,18.5,8.5z
		"/>
	<path d="M2.8,19.6c-0.2,0-0.5-0.1-0.6-0.3c-0.2-0.3-0.1-0.8,0.2-1L7.2,15c1.1-0.7,2.6-0.6,3.5,0.2l0.3,0.3
		c0.5,0.4,1.3,0.4,1.8,0l4.2-3.6c1.1-0.9,2.7-0.9,3.8,0l1.6,1.4c0.3,0.3,0.4,0.7,0.1,1.1c-0.3,0.3-0.7,0.4-1.1,0.1l-1.6-1.4
		c-0.5-0.4-1.3-0.4-1.8,0l-4.2,3.6c-1.1,0.9-2.7,0.9-3.8,0l-0.3-0.3C9.3,16,8.5,15.9,8,16.3l-4.9,3.3C3.1,19.6,2.9,19.6,2.8,19.6z"
		/>
</g>
</svg>
