<?xml version="1.0" encoding="utf-8"?>
<!-- Generator: Adobe Illustrator 23.0.3, SVG Export Plug-In . SVG Version: 6.00 Build 0)  -->
<svg version="1.1" id="Layer_1" xmlns="http://www.w3.org/2000/svg" xmlns:xlink="http://www.w3.org/1999/xlink" x="0px" y="0px"
	 viewBox="0 0 45 30" style="enable-background:new 0 0 45 30;" xml:space="preserve">
<style type="text/css">
	.st0{fill:#2B2B2B;}
</style>
<g>
	<path class="st0" d="M44.6,14c0.3,0.3,0.4,0.6,0.4,1v9.5c0,0.4-0.1,0.7-0.4,1c-0.3,0.3-0.6,0.4-1,0.4h-9.5c-0.4,0-0.7-0.1-1-0.4
		c-0.3-0.3-0.4-0.6-0.4-1v-9.5c0-0.4,0.1-0.7,0.4-1c0.3-0.3,0.6-0.4,1-0.4h9.5C44,13.6,44.3,13.7,44.6,14z M43.6,14.9h-9.5v9.5h9.5
		V14.9z M42.6,23.1h-7.5l1.9-2.4l1.3,1.6l1.9-2.4L42.6,23.1z"/>
</g>
<g>
	<path class="st0" d="M12,13.9c0.3,0.3,0.4,0.6,0.4,1v9.6c0,0.4-0.1,0.7-0.4,1c-0.3,0.3-0.6,0.4-1,0.4H1.4c-0.4,0-0.7-0.1-1-0.4
		c-0.3-0.3-0.4-0.6-0.4-1v-9.6c0-0.4,0.1-0.7,0.4-1c0.3-0.3,0.6-0.4,1-0.4H11C11.4,13.5,11.7,13.6,12,13.9z M11,14.9H1.4v9.6H11
		V14.9z M9.9,23.1H2.4l1.9-2.4l1.4,1.6l1.9-2.4L9.9,23.1z"/>
</g>
<g>
	<path class="st0" d="M35.3,27.8c-0.6,0.6-1.3,0.9-2.2,0.9H12c-0.8,0-1.6-0.3-2.2-0.9C9.3,27.2,9,26.5,9,25.6V4.6
		C9,3.7,9.3,3,9.9,2.4c0.6-0.6,1.3-0.9,2.2-0.9h21.1c0.8,0,1.6,0.3,2.2,0.9c0.6,0.6,0.9,1.3,0.9,2.2v21.1
		C36.1,26.5,35.9,27.2,35.3,27.8z M12,24.2h21.1l-6.8-9.1l-5.2,6.8l-3.8-4.5L12,24.2z"/>
</g>
</svg>
