<svg id="Layer_1" data-name="Layer 1" xmlns="http://www.w3.org/2000/svg" viewBox="0 0 1053.73 1186.54"><defs><style>.cls-1{fill:#babab9;}</style></defs><path class="cls-1" d="M1047.93,1208.78c-11.14-22.53-91.62-80.58-135.16-93.78-41.54-12.58-82.6-26.9-116.87-43.11l.52-.43-5.25-7.88c1.69-1.62,2.05-2.66.8-3-12.83-3.21-33.82-121.67-33.82-121.67a16,16,0,0,0-.17,2.19v-2.19c-21.11-4.94-40.94-9.27-61.31-13-6.16-40.86-11.14-85.66-9.86-105,21-24.69,39.8-51,46.27-71.78,15.43-49.64,20.82-78,20.82-78s13.89,0,23.16-11.48S788.64,574.65,795.59,554,807.17,498.9,784,501.2a24.45,24.45,0,0,0-11.86,4.7c2.31-15.26,27.8-53.86,27.8-53.86s21.41-129.71,17.13-138.35,21.41-19.46-17.13-90.8S590.11,47.79,519.45,39.14s-169.15,0-209.83,112.41c0,0-107.06,23.78-122,136.19s68.51,192.4,68.51,227c0,.14,0,.28,0,.42-4.55-12-9.57-21.56-14.32-23.13-13.9-4.59-39.39-4.59-34.76,50.5S217.28,555,237.15,657.29c11.58,59.68,32.44,13.77,32.44,13.77s19.41,95,65.81,163.1c.14,23.74.54,61.35,1.6,91.59q-29.62,5.63-59.29,13.19v2.52a10.18,10.18,0,0,0-.28-1.42s-20.21,118.69-33.14,122c-1.79.47-.34,2.33,3.62,5.22L233,1078.61a121.36,121.36,0,0,1-21.5,13L172,1110.27l-32.35,8.38a165.34,165.34,0,0,0-73.09,40.81L.22,1223.19H1053.94S1054.32,1221.7,1047.93,1208.78Z" transform="translate(-0.22 -36.66)"/></svg>