<?xml version="1.0" encoding="iso-8859-1"?>
<!-- Generator: Adobe Illustrator 19.0.0, SVG Export Plug-In . SVG Version: 6.00 Build 0)  -->
<svg version="1.1" id="Layer_1" xmlns="http://www.w3.org/2000/svg" xmlns:xlink="http://www.w3.org/1999/xlink" x="0px" y="0px"
     viewBox="0 0 366.999 366.999" style="enable-background:new 0 0 366.999 366.999;" xml:space="preserve">
<path id="XMLID_223_" d="M363.598,247.01c0.146-0.177,0.272-0.365,0.409-0.547c0.157-0.209,0.319-0.414,0.464-0.632
	c0.145-0.216,0.27-0.441,0.402-0.662c0.118-0.198,0.243-0.392,0.352-0.596c0.121-0.225,0.223-0.458,0.332-0.688
	c0.101-0.213,0.207-0.423,0.298-0.643c0.092-0.223,0.167-0.451,0.248-0.678c0.085-0.235,0.175-0.467,0.248-0.708
	c0.068-0.226,0.118-0.454,0.176-0.683c0.062-0.246,0.131-0.49,0.181-0.741c0.052-0.261,0.082-0.524,0.12-0.788
	c0.032-0.221,0.074-0.439,0.096-0.664c0.048-0.485,0.073-0.973,0.074-1.46c0-0.007,0.001-0.013,0.001-0.02
	c0-0.008-0.001-0.017-0.001-0.025c0-0.486-0.025-0.971-0.073-1.455c-0.022-0.225-0.064-0.442-0.096-0.664
	c-0.038-0.263-0.068-0.526-0.12-0.787c-0.05-0.253-0.12-0.499-0.182-0.747c-0.057-0.226-0.107-0.453-0.174-0.677
	c-0.073-0.242-0.164-0.476-0.25-0.713c-0.081-0.225-0.155-0.452-0.246-0.673c-0.092-0.221-0.199-0.432-0.3-0.647
	c-0.108-0.229-0.209-0.459-0.329-0.683c-0.11-0.206-0.236-0.401-0.355-0.6c-0.131-0.221-0.256-0.443-0.4-0.658
	c-0.147-0.219-0.31-0.424-0.467-0.635c-0.136-0.182-0.262-0.368-0.407-0.544c-0.299-0.365-0.616-0.714-0.948-1.049
	c-0.016-0.016-0.029-0.034-0.045-0.05l-37.499-37.501c-5.857-5.857-15.355-5.858-21.213-0.001c-5.858,5.858-5.858,15.355,0,21.213
	l11.894,11.895L270,222.501v-78.605c0.003-0.133,0.02-0.263,0.02-0.396c0-3.606-1.287-6.903-3.407-9.49
	c-0.021-0.026-0.042-0.053-0.064-0.079c-0.276-0.332-0.567-0.65-0.871-0.958c-0.043-0.044-0.087-0.089-0.131-0.133
	c-0.132-0.131-0.255-0.272-0.393-0.398L155.609,22.896c-0.005-0.004-0.01-0.009-0.015-0.014c-0.307-0.306-0.627-0.593-0.955-0.868
	c-0.104-0.087-0.212-0.169-0.318-0.253c-0.24-0.19-0.483-0.374-0.733-0.548c-0.125-0.088-0.251-0.174-0.379-0.258
	c-0.263-0.172-0.53-0.333-0.802-0.487c-0.112-0.063-0.22-0.132-0.334-0.193c-0.363-0.194-0.733-0.372-1.109-0.534
	c-0.154-0.067-0.311-0.124-0.467-0.186c-0.25-0.099-0.501-0.192-0.756-0.277c-0.175-0.058-0.35-0.114-0.527-0.166
	c-0.289-0.084-0.581-0.158-0.875-0.225c-0.131-0.029-0.259-0.066-0.392-0.093c-0.42-0.084-0.844-0.146-1.27-0.193
	c-0.13-0.015-0.262-0.023-0.393-0.035c-0.353-0.031-0.706-0.048-1.06-0.054C145.148,18.51,145.076,18.5,145,18.5H15
	c-8.284,0-15,6.716-15,15v300c0,8.284,6.716,15,15,15h240c8.284,0,15-6.716,15-15v-80.999l45.786,0.001l-11.893,11.893
	c-5.858,5.858-5.858,15.355,0,21.213c2.929,2.929,6.768,4.394,10.606,4.394s7.678-1.464,10.606-4.394l37.499-37.499
	c0.008-0.008,0.014-0.016,0.021-0.023C362.968,247.742,363.292,247.383,363.598,247.01z M160,69.713l58.787,58.787H160V69.713z
	 M240,318.5H30v-270h100v95c0,8.284,6.716,15,15,15h95v64.001l-65.001-0.001c-8.284,0-15,6.716-15,15c0,8.284,6.716,15,15,15
	L240,252.501V318.5z"/>
    <g>
</g>
    <g>
</g>
    <g>
</g>
    <g>
</g>
    <g>
</g>
    <g>
</g>
    <g>
</g>
    <g>
</g>
    <g>
</g>
    <g>
</g>
    <g>
</g>
    <g>
</g>
    <g>
</g>
    <g>
</g>
    <g>
</g>
</svg>
