<?xml version="1.0" encoding="utf-8"?>
<!-- Generator: Adobe Illustrator 23.0.3, SVG Export Plug-In . SVG Version: 6.00 Build 0)  -->
<svg version="1.1" id="Background_Complete" xmlns="http://www.w3.org/2000/svg" xmlns:xlink="http://www.w3.org/1999/xlink"
	 x="0px" y="0px" viewBox="0 0 66.3 52.9" style="enable-background:new 0 0 66.3 52.9;" xml:space="preserve">
<style type="text/css">
	.st0{fill:#EBEBEB;}
	.st1{fill:#F5F5F5;}
</style>
<g>
	<g>
		<g>
			
				<rect x="6.8" y="-6.5" transform="matrix(2.345817e-03 -1 1 2.345817e-03 6.6612 59.5521)" class="st0" width="52.7" height="65.9"/>
		</g>
	</g>
	<rect x="10.1" y="-4.2" transform="matrix(2.344414e-03 -1 1 2.344414e-03 6.6184 59.509)" class="st1" width="46" height="61.2"/>
	<polygon class="st0" points="2.5,49.4 23.9,20.8 37.1,38.8 46.1,29.2 63.7,49.5 	"/>
	<g>
		<g>
			<path class="st0" d="M42.8,17.4c0,2.7-2.2,4.8-4.8,4.8c-2.7,0-4.8-2.2-4.8-4.8c0-2.7,2.2-4.8,4.8-4.8
				C40.7,12.5,42.8,14.7,42.8,17.4z"/>
		</g>
	</g>
</g>
</svg>
