<?xml version="1.0" encoding="utf-8"?>
<!-- Generator: Adobe Illustrator 25.4.1, SVG Export Plug-In . SVG Version: 6.00 Build 0)  -->
<svg version="1.1" xmlns="http://www.w3.org/2000/svg" xmlns:xlink="http://www.w3.org/1999/xlink" x="0px" y="0px"
	 viewBox="0 0 24 24" style="enable-background:new 0 0 24 24;" xml:space="preserve">
<style type="text/css">
	.st0{fill:#2B2B2B;}
</style>
<g>
	<path d="M9.2,11.8C9.2,11.8,9.2,11.8,9.2,11.8c-0.1,0-0.2,0-0.3,0c-2.9-0.1-5.1-2.4-5.1-5.2c0-2.9,2.3-5.2,5.2-5.2
		s5.2,2.3,5.2,5.2C14.2,9.3,12.1,11.6,9.2,11.8L9.2,11.8z M9.1,2.9c-2,0-3.7,1.7-3.7,3.7s1.6,3.6,3.5,3.7c0.1,0,0.2,0,0.3,0
		c2-0.1,3.5-1.7,3.5-3.7C12.8,4.6,11.1,2.9,9.1,2.9z"/>
	<path d="M16.6,11.9L16.6,11.9c-0.5,0-0.9-0.3-1-0.7c0-0.4,0.2-0.8,0.6-0.8c0.1,0,0.2,0,0.4,0c1.5-0.1,2.6-1.3,2.6-2.8
		S18,4.8,16.4,4.8c-0.4,0-0.8-0.3-0.8-0.7s0.3-0.8,0.8-0.8c2.3,0,4.2,1.9,4.2,4.2C20.8,9.9,19,11.8,16.6,11.9
		C16.7,11.9,16.7,11.9,16.6,11.9z"/>
	<path d="M9.2,22.6c-2,0-3.9-0.5-5.4-1.5c-1.4-0.9-2.2-2.2-2.2-3.5S2.5,15,3.9,14c3-2,7.9-2,10.8,0
		c1.4,0.9,2.1,2.2,2.1,3.5c0,1.4-0.8,2.6-2.1,3.6C13.2,22.1,11.2,22.6,9.2,22.6z M4.7,15.3c-1,0.6-1.5,1.5-1.5,2.3
		c0,0.9,0.5,1.7,1.5,2.3c2.5,1.7,6.7,1.7,9.2,0c1-0.6,1.5-1.5,1.5-2.3c0-0.9-0.5-1.7-1.5-2.3C11.4,13.6,7.2,13.6,4.7,15.3z"/>
	<path d="M18.4,20.9c-0.4,0-0.7-0.2-0.7-0.6c-0.1-0.4,0.2-0.8,0.6-0.9c0.6-0.1,1.2-0.4,1.7-0.7c0.6-0.4,0.9-1,0.9-1.5
		s-0.3-1.1-0.9-1.5c-0.4-0.3-1-0.6-1.6-0.7c-0.4-0.1-0.7-0.5-0.6-0.9s0.5-0.7,0.9-0.6c0.9,0.2,1.6,0.5,2.2,1
		c0.9,0.7,1.5,1.7,1.5,2.7s-0.5,2-1.5,2.7c-0.6,0.5-1.4,0.8-2.3,1C18.5,20.9,18.5,20.9,18.4,20.9z"/>
</g>
</svg>
