<?xml version="1.0" encoding="utf-8"?>
<!-- Generator: Adobe Illustrator 23.0.3, SVG Export Plug-In . SVG Version: 6.00 Build 0)  -->
<svg version="1.1" id="Layer_1" xmlns="http://www.w3.org/2000/svg" xmlns:xlink="http://www.w3.org/1999/xlink" x="0px" y="0px"
	 viewBox="0 0 36 36" style="enable-background:new 0 0 36 36;" xml:space="preserve">
<style type="text/css">
	.st0{fill:#2B2B2B;}
</style>
<g>
	<path class="st0" d="M22.9,25.4H7.2v-2.2l0.1-0.5c0.1-0.4,0.2-0.8,0.4-1.1c0.3-0.5,0.7-1,1.2-1.4c0.6-0.5,1.4-0.8,2.3-1.1
		c1.1-0.3,2.4-0.5,3.8-0.5c2.3,0,4.2,0.4,5.5,1.2c1,0.6,1.7,1.3,2.1,2.2c0.2,0.4,0.3,0.8,0.3,1.2V25.4z M19,12.5
		c0-0.8-0.2-1.5-0.7-2.2c-0.5-0.6-1-1.1-1.8-1.5s-1.5-0.4-2.3-0.2s-1.5,0.5-2,1.1c-0.6,0.6-0.9,1.2-1.1,2s-0.1,1.5,0.2,2.3
		c0.3,0.7,0.8,1.3,1.5,1.8c0.7,0.5,1.4,0.7,2.2,0.7c1.1,0,2-0.4,2.8-1.2C18.6,14.5,19,13.6,19,12.5z M21.8,8.5
		c-0.8,0-1.5,0.2-2.2,0.7c0.7,1,1.1,2.1,1.1,3.3c0,1.2-0.4,2.3-1.1,3.3c0.6,0.5,1.4,0.7,2.2,0.7c1.1,0,2-0.4,2.8-1.2
		c0.8-0.8,1.2-1.7,1.2-2.8c0-1.1-0.4-2-1.2-2.8C23.8,8.9,22.9,8.5,21.8,8.5z M22.9,18.6c0.7,0.6,1.3,1.2,1.7,2s0.6,1.6,0.7,2.5v2.2
		h4.5v-2.2l-0.1-0.4c-0.1-0.4-0.2-0.7-0.4-1.1c-0.2-0.5-0.6-0.9-1.1-1.3c-0.5-0.5-1.2-0.9-2-1.2C25.2,19,24.1,18.7,22.9,18.6z"/>
</g>
</svg>
