<?xml version="1.0" encoding="utf-8"?>
<!-- Generator: Adobe Illustrator 25.4.1, SVG Export Plug-In . SVG Version: 6.00 Build 0)  -->
<svg version="1.1" id="Layer_1" xmlns="http://www.w3.org/2000/svg" xmlns:xlink="http://www.w3.org/1999/xlink" x="0px" y="0px"
	 viewBox="0 0 24 24" style="enable-background:new 0 0 24 24;" xml:space="preserve">
<style type="text/css">
	.st0{fill:#292D32;}
</style>
<path class="st0" d="M9.2,11.6C9.1,11.6,9.1,11.6,9.2,11.6c-0.1,0-0.2,0-0.3,0C6,11.5,3.8,9.2,3.8,6.4c0-2.9,2.3-5.2,5.2-5.2
	c2.9,0,5.2,2.3,5.2,5.2C14.2,9.2,12,11.5,9.2,11.6C9.2,11.6,9.2,11.6,9.2,11.6z M9,2.8c-2,0-3.7,1.7-3.7,3.7c0,2,1.6,3.6,3.5,3.7
	c0.1,0,0.2,0,0.3,0c2-0.1,3.5-1.7,3.5-3.7C12.7,4.4,11,2.8,9,2.8z"/>
<path class="st0" d="M16.5,11.8C16.5,11.8,16.5,11.8,16.5,11.8c-0.5,0-0.9-0.3-1-0.7c0-0.4,0.2-0.8,0.6-0.8c0.1,0,0.2,0,0.4,0
	c1.5-0.1,2.6-1.3,2.6-2.8c0-1.5-1.2-2.8-2.8-2.8c-0.4,0-0.8-0.3-0.8-0.7s0.3-0.8,0.8-0.8c2.3,0,4.2,1.9,4.2,4.2
	C20.7,9.8,18.9,11.7,16.5,11.8C16.6,11.8,16.6,11.8,16.5,11.8z"/>
<path class="st0" d="M9.2,22.5c-2,0-3.9-0.5-5.4-1.5c-1.4-0.9-2.2-2.2-2.2-3.5s0.8-2.6,2.2-3.6c3-2,7.9-2,10.8,0
	c1.4,0.9,2.1,2.2,2.1,3.5c0,1.4-0.8,2.6-2.1,3.6C13.1,22,11.1,22.5,9.2,22.5z M4.6,15.2c-1,0.6-1.5,1.5-1.5,2.3
	c0,0.9,0.5,1.7,1.5,2.3c2.5,1.7,6.7,1.7,9.2,0c1-0.6,1.5-1.5,1.5-2.3c0-0.9-0.5-1.7-1.5-2.3C11.3,13.5,7.1,13.5,4.6,15.2z"/>
<path class="st0" d="M18.3,20.8c-0.4,0-0.7-0.2-0.7-0.6c-0.1-0.4,0.2-0.8,0.6-0.9c0.6-0.1,1.2-0.4,1.7-0.7c0.6-0.4,0.9-1,0.9-1.5
	s-0.3-1.1-0.9-1.5c-0.4-0.3-1-0.6-1.6-0.7c-0.4-0.1-0.7-0.5-0.6-0.9c0.1-0.4,0.5-0.7,0.9-0.6c0.9,0.2,1.6,0.5,2.2,1
	c0.9,0.7,1.5,1.7,1.5,2.7s-0.5,2-1.5,2.7c-0.6,0.5-1.4,0.8-2.3,1C18.4,20.8,18.4,20.8,18.3,20.8z"/>
</svg>
