<?xml version="1.0" encoding="utf-8"?>
<!-- Generator: Adobe Illustrator 25.4.1, SVG Export Plug-In . SVG Version: 6.00 Build 0)  -->
<svg version="1.1" id="Layer_1" xmlns="http://www.w3.org/2000/svg" xmlns:xlink="http://www.w3.org/1999/xlink" x="0px" y="0px"
	 viewBox="0 0 24 24" style="enable-background:new 0 0 24 24;" xml:space="preserve">
<style type="text/css">
	.st0{fill:#292D32;}
</style>
<path class="st0" d="M13.9,20.6c-0.8,0-1.7-0.3-2.5-0.8l-2.9-1.8c-0.2-0.1-0.4-0.2-0.7-0.2H6.3c-2.4,0-3.8-1.3-3.8-3.8v-4
	c0-2.4,1.3-3.8,3.8-3.8h1.4c0.2,0,0.5-0.1,0.7-0.2l2.9-1.8c1.5-0.9,2.9-1.1,4-0.5s1.7,1.9,1.7,3.6v9.2c0,1.7-0.6,3-1.7,3.6
	C14.9,20.5,14.4,20.6,13.9,20.6z M6.3,7.8c-1.6,0-2.2,0.7-2.2,2.2v4c0,1.6,0.7,2.2,2.2,2.2h1.4c0.5,0,1,0.1,1.5,0.4l2.9,1.8
	c1,0.6,1.9,0.8,2.5,0.4s1-1.2,1-2.3V7.4c0-1.1-0.4-2-1-2.3c-0.6-0.3-1.5-0.2-2.5,0.4L9.2,7.3C8.8,7.6,8.3,7.8,7.8,7.8H6.3z"/>
<path class="st0" d="M19.3,16.7c-0.2,0-0.3,0-0.5-0.1c-0.3-0.2-0.4-0.7-0.1-1.1c1.6-2.1,1.6-5,0-7.1c-0.2-0.3-0.2-0.8,0.1-1.1
	s0.8-0.2,1.1,0.2c2,2.6,2,6.3,0,8.9C19.8,16.6,19.6,16.7,19.3,16.7z"/>
</svg>
