<?xml version="1.0" encoding="utf-8"?>
<!-- Generator: Adobe Illustrator 25.4.1, SVG Export Plug-In . SVG Version: 6.00 Build 0)  -->
<svg version="1.1" xmlns="http://www.w3.org/2000/svg" xmlns:xlink="http://www.w3.org/1999/xlink" x="0px" y="0px"
	 viewBox="0 0 24 24" style="enable-background:new 0 0 24 24;" xml:space="preserve">
<style type="text/css">
	.st0{fill:#2B2B2B;}
</style>
<g>
	<path d="M14.2,21.7c-0.9,0-1.9-0.3-2.8-0.9l-3.3-2c-0.2-0.1-0.5-0.2-0.8-0.2H5.6c-2.7,0-4.3-1.5-4.3-4.3V9.8
		c0-2.7,1.5-4.3,4.3-4.3h1.6c0.2,0,0.6-0.1,0.8-0.2l3.3-2c1.7-1,3.3-1.2,4.5-0.6s1.9,2.1,1.9,4.1v10.4c0,1.9-0.7,3.4-1.9,4.1
		C15.3,21.6,14.8,21.7,14.2,21.7z M5.6,7.3c-1.8,0-2.5,0.8-2.5,2.5v4.5c0,1.8,0.8,2.5,2.5,2.5h1.6c0.6,0,1.1,0.1,1.7,0.5l3.3,2
		c1.1,0.7,2.1,0.9,2.8,0.5c0.7-0.5,1.1-1.4,1.1-2.6V6.8c0-1.2-0.5-2.3-1.1-2.6c-0.7-0.3-1.7-0.2-2.8,0.5l-3.3,2
		c-0.5,0.3-1,0.6-1.6,0.6H5.6z"/>
	<path d="M20.3,17.3c-0.2,0-0.3,0-0.6-0.1c-0.3-0.2-0.5-0.8-0.1-1.2c1.8-2.4,1.8-5.6,0-8c-0.2-0.3-0.2-0.9,0.1-1.2
		c0.3-0.3,0.9-0.2,1.2,0.2c2.3,2.9,2.3,7.1,0,10.1C20.9,17.2,20.6,17.3,20.3,17.3z"/>
</g>
</svg>
