<?xml version="1.0" encoding="utf-8"?>
<!-- Generator: Adobe Illustrator 23.0.3, SVG Export Plug-In . SVG Version: 6.00 Build 0)  -->
<svg version="1.1" id="Layer_1" xmlns="http://www.w3.org/2000/svg" xmlns:xlink="http://www.w3.org/1999/xlink" x="0px" y="0px"
	 viewBox="0 0 36 36" style="enable-background:new 0 0 36 36;" xml:space="preserve">
<style type="text/css">
	.st0{fill:#2B2B2B;}
</style>
<g>
	<path class="st0" d="M23.7,5.8C25.6,6.4,27,7.1,28.1,8l-5.3,5.2l1.5,1.5H20v2.1C19.2,17,18.5,17,17.8,17c-2.2,0-4.2-0.3-6-0.8
		C9.9,15.7,8.4,15,7.3,14c-1.1-0.9-1.6-1.9-1.6-3c0-1.1,0.5-2.1,1.6-3c1.1-0.9,2.5-1.6,4.4-2.2c1.9-0.5,3.9-0.8,6-0.8
		C19.9,5,21.9,5.3,23.7,5.8z M7.3,17c1.1,0.9,2.5,1.6,4.4,2.2c1.9,0.5,3.9,0.8,6,0.8c0.7,0,1.5,0,2.3-0.1v2.3h4.3l-1.7,1.7
		c-1.6,0.4-3.3,0.6-4.9,0.6c-2.2,0-4.2-0.3-6-0.8c-1.9-0.5-3.3-1.3-4.4-2.2c-1.1-0.9-1.6-1.9-1.6-3V14C5.7,15.1,6.3,16.1,7.3,17z
		 M7.3,24.5c1.1,0.9,2.5,1.6,4.4,2.2c1.9,0.5,3.9,0.8,6,0.8c2.8,0,5.3-0.4,7.5-1.3l2.8,2.8c-1.1,0.9-2.5,1.7-4.4,2.2
		c-1.8,0.5-3.8,0.8-6,0.8c-2.2,0-4.2-0.3-6-0.8c-1.9-0.5-3.3-1.3-4.4-2.2c-1.1-0.9-1.6-1.9-1.6-3v-4.5C5.7,22.6,6.3,23.6,7.3,24.5z
		 M35.5,18.5l-7.4,7.4L26,23.8l3.8-3.8h-7.5v-3h7.5L26,13.2l2.2-2.1L35.5,18.5z"/>
</g>
</svg>
