<?xml version="1.0" encoding="utf-8"?>
<!-- Generator: Adobe Illustrator 25.4.1, SVG Export Plug-In . SVG Version: 6.00 Build 0)  -->
<svg version="1.1" xmlns="http://www.w3.org/2000/svg" xmlns:xlink="http://www.w3.org/1999/xlink" x="0px" y="0px"
	 viewBox="0 0 24 24" style="enable-background:new 0 0 24 24;" xml:space="preserve">
<style type="text/css">
	.st0{fill:#2B2B2B;}
</style>
<g>
	<path d="M12.9,11.8c-0.2,0-0.4-0.1-0.5-0.2c-0.3-0.3-0.3-0.8,0-1l7.8-7.8c0.3-0.3,0.7-0.3,0.9,0c0.3,0.3,0.3,0.7,0,0.9
		l-7.8,7.8C13.3,11.7,13.1,11.8,12.9,11.8z"/>
	<path d="M21.5,7.8c-0.4,0-0.8-0.3-0.8-0.8V3.3h-3.9c-0.4,0-0.8-0.3-0.8-0.8s0.3-0.8,0.8-0.8h4.6c0.4,0,0.8,0.3,0.8,0.8
		v4.5C22.1,7.5,21.8,7.8,21.5,7.8z"/>
	<path d="M14.8,22.2H9.2c-5.1,0-7.4-2.2-7.4-7.4V9.2c0-5.1,2.2-7.4,7.4-7.4h1.9c0.4,0,0.8,0.3,0.8,0.8s-0.4,0.8-0.8,0.8
		H9.2c-4.4,0-5.9,1.5-5.9,5.9v5.7c0,4.4,1.5,5.9,5.9,5.9h5.7c4.4,0,5.9-1.5,5.9-5.9v-1.9c0-0.4,0.3-0.8,0.8-0.8
		c0.5,0,0.8,0.3,0.8,0.8v1.9C22.2,19.9,19.9,22.2,14.8,22.2z"/>
</g>
</svg>
