<svg id="Layer_1" data-name="Layer 1" xmlns="http://www.w3.org/2000/svg" viewBox="0 0 455.3 59.4"><title>omnipay_authorize_aim</title><path d="M93.5,309.9h0.2l5.9,16.9h-12l5.9-16.9m7.2,38.9h22.5v-2.6c-4.3-.5-5.7-0.9-8.5-8.6-3.1-8.3-6.7-18.1-10.2-27.8l-5.4-15.3-4,1.1L78.5,337.8c-2.9,7.4-3.9,7.8-8.9,8.4v2.6H88.1v-2.6l-2-.2c-3.8-.4-3.9-1.3-2.7-5.4,1.1-3.6,2.1-7.2,3.1-9.6H101c1.2,3,2.8,7.3,3.9,10,1.4,3.5,1,4.4-2.1,4.9l-2.1.3v2.6Z" transform="translate(-69.6 -290.5)" style="fill:#005c76"/><path d="M146.8,320.2c0-3-.4-3.5-2.5-3.9l-2.5-.4v-2.4c4.1-.2,11.3-1,15.1-1.5v27.9c0,3.4.3,4.3,2.9,4.3h2.6v2.5c-4.9.7-10.2,1.9-14.9,3l-0.7-.6V344c-1.6,1.1-2.9,2.2-4.7,3.3-2.5,1.5-4.6,2.4-7.2,2.4-6.9,0-10.6-4.6-10.6-10.9V320.2c0-3-.4-3.5-2.5-3.9l-2.2-.4v-2.4c3.8-.2,10.5-1,14.8-1.5v24.8c0,4.8,2.5,6.7,5.5,6.7,2.3,0,4.6-1.1,7-3.1V320.2" transform="translate(-69.6 -290.5)" style="fill:#005c76"/><path d="M177,336.7c0,6.3,3.1,7.5,4.6,7.5a8.76,8.76,0,0,0,4.3-1.3l1.1,2.5-7.1,3.6a8.85,8.85,0,0,1-3.1.9c-6.3,0-9.9-2.8-9.9-10.1V317h-5.3l-0.6-1,2.6-3.1h3.2v-5l8.6-6.5,1.4,0.7v10.8h8.1a2.79,2.79,0,0,1-.6,4.2H177v19.6" transform="translate(-69.6 -290.5)" style="fill:#005c76"/><path d="M203.6,317c2.8-2.7,6.9-5.3,11.2-5.3,7.5,0,11.6,4.7,11.6,12.4v16.6c0,4.6.4,4.9,5,5.5v2.6H212.1v-2.6c4-.5,4.3-0.9,4.3-5.5V325c0-5.1-2.8-7.2-6.3-7.2a8.84,8.84,0,0,0-6.5,2.7v20.3c0,4.6.4,4.9,3.8,5.5v2.6H187.6v-2.6c5.5-.5,5.9-0.9,5.9-5.5V301.1c0-4.9-.2-5-5.4-5.3v-2.4c3.6-.6,10-1.7,15.4-2.9V317" transform="translate(-69.6 -290.5)" style="fill:#005c76"/><path d="M244.1,328.3c0-8.9,3.5-13.2,6.8-13.2,5.3,0,8.4,6.3,8.4,17.3,0,11.9-3.7,13.9-6.7,13.9-5.2,0-8.5-7.6-8.5-18m8-16.6a19.31,19.31,0,0,0-19.4,19.9c0,8.8,6.3,18.1,19,18.1,9.5,0,18.9-6.4,18.9-19.8C270.6,320.4,263.6,311.7,252.1,311.7Z" transform="translate(-69.6 -290.5)" style="fill:#005c76"/><path d="M288.2,340.8c0,4.6.4,4.9,6.7,5.5v2.6H272.5v-2.6c5.2-.5,5.6-0.9,5.6-5.5V322.6c0-5-.2-5.1-5.4-5.7v-2.2c4.8-.7,10.1-1.8,15.5-3v8.2h0.2a34.92,34.92,0,0,1,3.8-5.3c1.6-1.7,3.4-2.9,5.4-2.9a5.27,5.27,0,0,1,5.5,5,6.22,6.22,0,0,1-3.9,5.8,2.6,2.6,0,0,1-2.5-.3,6.85,6.85,0,0,0-4.1-1.7c-1.4,0-3,.6-4.4,4v16.3" transform="translate(-69.6 -290.5)" style="fill:#005c76"/><path d="M309.6,322.6c0-5-.2-5.1-5.4-5.7v-2.2c4.8-.7,10.3-1.8,15.5-3v29c0,4.7.4,5,5.6,5.6v2.6H304v-2.6c5.3-.5,5.7-0.9,5.7-5.6V322.6m10.2-23.9a5.87,5.87,0,0,1-6,5.9,6,6,0,0,1-6-5.9,6.08,6.08,0,0,1,6-6A6,6,0,0,1,319.9,298.7Z" transform="translate(-69.6 -290.5)" style="fill:#005c76"/><path d="M358,312.7l0.7,1.2-18.9,31.5h6.5c5.7,0,7.9-1,10.6-5.7l1.2-2,3,1.1c-1.5,4.1-2.5,7.1-3.8,10.1H327.7l-0.8-1.2,19.5-31.5h-5.8c-5.4,0-6.9,1.2-8.8,5.3l-1.2,2.5-2.9-1.1a121.53,121.53,0,0,0,3-11.9h1.8c0.4,1.2,1.3,1.7,4.4,1.7H358" transform="translate(-69.6 -290.5)" style="fill:#005c76"/><path d="M370.6,325.3c0.5-5.6,3.5-9.8,6.6-9.8s5.7,4.3,5.7,7.6c0,1.6-.3,1.9-1.5,1.9l-10.8.3m20.4,14c-3.3,2.2-5.9,3.2-8.9,3.2-6.3,0-11.9-4.2-11.9-13.5,8.2-.3,19.1-1.1,20.2-1.3,1.6-.3,1.9-0.5,1.9-3.6,0-6.3-5.7-12.4-12.8-12.4-10,0-18.9,8.8-18.9,20.7,0,9.2,6.4,17.3,17.5,17.3,2.9,0,9.3-1.7,14-8.8Z" transform="translate(-69.6 -290.5)" style="fill:#005c76"/><path d="M395,343.3a6.25,6.25,0,1,1,6.2,6.4,6.15,6.15,0,0,1-6.2-6.4" transform="translate(-69.6 -290.5)" style="fill:#005c76"/><path d="M460.5,349.4h-5l-32.6-40.1h-0.2v17a123.82,123.82,0,0,0,.8,15.7c0.4,2.8,2.5,3.9,7.9,4.2v2.6H411v-2.6c4.1-.2,6.1-1.3,6.5-4.2a102.16,102.16,0,0,0,.9-15.7V310c0-5.2,0-7.3-1.5-9.2s-3.6-2.5-7-2.8v-2.6h14.3l31.8,37h0.2V317.9a125.24,125.24,0,0,0-.8-15.7c-0.4-2.9-2.5-3.9-7.9-4.2v-2.6h20.4V298c-4.1.2-6.1,1.3-6.5,4.2a125.24,125.24,0,0,0-.8,15.7v31.5" transform="translate(-69.6 -290.5)" style="fill:#005c76"/><path d="M473.2,325.3c0.5-5.6,3.5-9.8,6.5-9.8s5.7,4.3,5.7,7.6c0,1.6-.3,1.9-1.6,1.9l-10.6.3m20.4,14c-3.3,2.2-5.8,3.2-8.9,3.2-6.2,0-11.8-4.2-11.8-13.5,8.1-.3,19.1-1.1,20.2-1.3,1.6-.3,1.9-0.5,1.9-3.6,0-6.3-5.7-12.4-12.8-12.4-10,0-18.9,8.8-18.9,20.7,0,9.2,6.4,17.3,17.5,17.3,2.9,0,9.3-1.7,14-8.8Z" transform="translate(-69.6 -290.5)" style="fill:#005c76"/><path d="M510.9,336.7c0,6.3,3.1,7.5,4.6,7.5a8.15,8.15,0,0,0,4.2-1.3l1.2,2.5-7.1,3.6a8.85,8.85,0,0,1-3.1.9c-6.3,0-9.9-2.8-9.9-10.1V317h-5.2l-0.6-1,2.6-3.1h3.2v-5l8.7-6.5,1.4,0.7v10.8H519a2.79,2.79,0,0,1-.6,4.2h-7.5v19.6" transform="translate(-69.6 -290.5)" style="fill:#005c76"/><path d="M520.7,309.7a4.55,4.55,0,0,1-2-.5,5.36,5.36,0,0,1-1.5-1.5,3.7,3.7,0,0,1-.6-2.1,4.2,4.2,0,0,1,.6-2.1,5.36,5.36,0,0,1,1.5-1.5,3.61,3.61,0,0,1,2-.6,4.2,4.2,0,0,1,2.1.6,5.36,5.36,0,0,1,1.5,1.5,3.7,3.7,0,0,1,.6,2.1,4.2,4.2,0,0,1-.6,2.1,3.93,3.93,0,0,1-3.6,2m0-.7a2.62,2.62,0,0,0,1.7-.5,3.25,3.25,0,0,0,1.3-1.3,3.45,3.45,0,0,0,.5-1.8,4.07,4.07,0,0,0-.5-1.8,3.25,3.25,0,0,0-1.3-1.3,3.74,3.74,0,0,0-1.8-.5,3.37,3.37,0,0,0-1.7.5,2.74,2.74,0,0,0-1.3,1.3,3.45,3.45,0,0,0-.5,1.8,3.64,3.64,0,0,0,1.8,3.1A3.09,3.09,0,0,0,520.7,309Zm-0.8-1h-0.8v-5h1.6a2,2,0,0,1,.9.2,1.2,1.2,0,0,1,.5.5,1.85,1.85,0,0,1,.2.7,1.88,1.88,0,0,1-.2.8,1.34,1.34,0,0,1-.7.6,2.17,2.17,0,0,1,.6.7l0.8,1.5h-0.9l-0.6-1.2-0.2-.3a1.13,1.13,0,0,0-.4-0.5h-0.6v2h-0.2Zm0-2.6h0.5a1,1,0,0,0,.8-0.3,1.42,1.42,0,0,0,.2-0.6,0.6,0.6,0,0,0-.1-0.4,0.85,0.85,0,0,0-.3-0.3,0.92,0.92,0,0,0-.6-0.1h-0.6v1.7h0.1Z" transform="translate(-69.6 -290.5)" style="fill:#005c76"/></svg>