<?xml version="1.0" encoding="utf-8"?>
<!-- Generator: Adobe Illustrator 25.4.1, SVG Export Plug-In . SVG Version: 6.00 Build 0)  -->
<svg version="1.1" xmlns="http://www.w3.org/2000/svg" xmlns:xlink="http://www.w3.org/1999/xlink" x="0px" y="0px"
	 viewBox="0 0 24 24" style="enable-background:new 0 0 24 24;" xml:space="preserve">
<style type="text/css">
	.st0{fill:none;stroke:#2B2B2B;stroke-miterlimit:10;}
</style>
<path d="M10.9,7.4L10.9,7.4l1.8,5.1c0.2,0.7-0.3,1.5-1,1.5h-1.5c-0.8,0-1.3-0.7-1-1.5L10.9,7.4 M13.6,22.5h8.6v-1
	c-1.6-0.2-2.2-0.3-3.2-3.3c-1.2-3.2-2.6-7-3.9-10.8l-1.7-4.9c-0.2-0.5-0.8-0.9-1.3-0.7l0,0c-0.3,0.1-0.6,0.3-0.7,0.7L5.1,18.2
	c-1.1,2.9-1.5,3-3.4,3.2v1h7.1v-1L8,21.4c-1.5-0.2-1.5-0.5-1-2.1c0.3-1.1,0.6-2.1,0.9-3c0.2-0.4,0.6-0.7,1-0.7h4
	c0.5,0,0.9,0.3,1,0.7c0.4,1.1,0.9,2.3,1.2,3.2c0.5,1.4,0.4,1.7-0.8,1.9l-0.8,0.1L13.6,22.5L13.6,22.5z"/>
</svg>
