<?xml version="1.0" encoding="utf-8"?>
<!-- Generator: Adobe Illustrator 25.4.1, SVG Export Plug-In . SVG Version: 6.00 Build 0)  -->
<svg version="1.1" xmlns="http://www.w3.org/2000/svg" xmlns:xlink="http://www.w3.org/1999/xlink" x="0px" y="0px"
	 viewBox="0 0 24 24" style="enable-background:new 0 0 24 24;" xml:space="preserve">
<style type="text/css">
	.st0{fill:#2B2B2B;}
	.st1{fill:#292D32;stroke:#2B2B2B;stroke-width:0.25;stroke-miterlimit:10;}
</style>
<path d="M11.9,22.8c-1.5,0-3-0.6-4.1-1.7c-2.9-2.8-6.2-7.4-5-12.8c1.1-4.9,5.4-7.1,9.1-7.1c0,0,0,0,0,0
	c3.7,0,8,2.2,9.1,7.1c1.2,5.4-2,9.9-5,12.8C14.9,22.2,13.4,22.8,11.9,22.8z M11.9,2.8C9,2.8,5.3,4.3,4.3,8.7
	C3.2,13.4,6.2,17.4,8.8,20c1.7,1.7,4.4,1.7,6.2,0c2.7-2.6,5.6-6.6,4.6-11.3C18.6,4.3,14.8,2.8,11.9,2.8z"/>
<path d="M38.4-26c-0.2,0-0.4-0.1-0.5-0.2l-1.5-1.5c-0.3-0.3-0.3-0.8,0-1.1c0.3-0.3,0.8-0.3,1.1,0l1,1l3.5-3.5
	c0.3-0.3,0.8-0.3,1.1,0c0.3,0.3,0.3,0.8,0,1.1l-4,4C38.8-26.1,38.6-26,38.4-26z"/>
<path class="st1" d="M11.9,11.6c-0.1,0-0.1,0-0.2,0L8,9.4C7.8,9.3,7.8,9.1,7.9,8.9C8,8.8,8.2,8.7,8.3,8.8l3.6,2.1l3.6-2.1
	c0.2-0.1,0.4,0,0.4,0.1c0.1,0.2,0,0.4-0.1,0.4l-3.7,2.2C12,11.6,12,11.6,11.9,11.6z"/>
<path class="st1" d="M11.9,15.5c-0.2,0-0.3-0.1-0.3-0.3v-3.9c0-0.2,0.1-0.3,0.3-0.3s0.3,0.1,0.3,0.3v3.9
	C12.2,15.3,12.1,15.5,11.9,15.5z"/>
<path class="st1" d="M11.9,15.6c-0.4,0-0.7-0.1-1-0.2l-2.3-1.3c-0.6-0.3-1.1-1.2-1.1-1.9V9.8C7.5,9.1,8,8.3,8.6,8l2.3-1.3
	c0.6-0.3,1.5-0.3,2.1,0L15.2,8c0.6,0.3,1.1,1.2,1.1,1.9v2.4c0,0.7-0.5,1.5-1.1,1.9L13,15.4C12.7,15.5,12.3,15.6,11.9,15.6z
	 M11.9,7.1c-0.3,0-0.5,0.1-0.7,0.2L8.9,8.5C8.5,8.7,8.1,9.4,8.1,9.8v2.4c0,0.5,0.4,1.1,0.8,1.3l2.3,1.3c0.4,0.2,1.1,0.2,1.5,0
	l2.3-1.3c0.4-0.2,0.8-0.8,0.8-1.3V9.8c0-0.5-0.4-1.1-0.8-1.3l-2.3-1.3C12.5,7.1,12.2,7.1,11.9,7.1z"/>
</svg>
