<?xml version="1.0" encoding="utf-8"?>
<!-- Generator: Adobe Illustrator 25.4.1, SVG Export Plug-In . SVG Version: 6.00 Build 0)  -->
<svg version="1.1" id="Layer_1" xmlns="http://www.w3.org/2000/svg" xmlns:xlink="http://www.w3.org/1999/xlink" x="0px" y="0px"
	 viewBox="0 0 24 24" style="enable-background:new 0 0 24 24;" xml:space="preserve">
<style type="text/css">
	.st0{fill:#292D32;}
</style>
<path class="st0" d="M13,14.8H2c-0.4,0-0.8-0.3-0.8-0.8V7.6c0-0.3,0.2-0.6,0.5-0.7c0.3-0.1,0.6,0,0.8,0.2c0.6,0.7,1.6,1.1,2.5,1.1
	c0.8,0,1.5-0.3,2.1-0.8c0.3-0.2,0.5-0.5,0.6-0.8c0.3-0.5,0.5-1.1,0.5-1.7c0-0.9-0.4-1.8-1.1-2.4C6.9,2.3,6.8,2,6.9,1.7
	s0.4-0.5,0.7-0.5H15c0.4,0,0.8,0.3,0.8,0.8v10C15.8,13.5,14.5,14.8,13,14.8z M2.8,13.2H13c0.7,0,1.2-0.6,1.2-1.2V2.8H9.2
	c0.4,0.7,0.5,1.4,0.6,2.1c0,0.9-0.2,1.7-0.6,2.5C8.9,7.8,8.5,8.2,8.2,8.5C7.4,9.3,6.3,9.7,5.1,9.8c-0.8,0-1.6-0.2-2.3-0.6L2.8,13.2
	L2.8,13.2z"/>
<path class="st0" d="M19,20.8h-1c-0.4,0-0.8-0.3-0.8-0.8c0-0.7-0.6-1.2-1.2-1.2c-0.7,0-1.2,0.6-1.2,1.2c0,0.4-0.3,0.8-0.8,0.8h-4
	c-0.4,0-0.8-0.3-0.8-0.8c0-0.7-0.6-1.2-1.2-1.2S6.8,19.3,6.8,20c0,0.4-0.3,0.8-0.8,0.8H5c-2.1,0-3.8-1.7-3.8-3.8v-3
	c0-0.4,0.3-0.8,0.8-0.8h11c0.7,0,1.2-0.6,1.2-1.2V5c0-0.4,0.3-0.8,0.8-0.8h1.8c1,0,1.9,0.5,2.4,1.4l1.7,3c0.1,0.2,0.1,0.5,0,0.8
	c-0.1,0.2-0.4,0.4-0.6,0.4H19c-0.1,0-0.2,0.1-0.2,0.2v3c0,0.1,0.1,0.2,0.2,0.2h3c0.4,0,0.8,0.3,0.8,0.8v3
	C22.8,19.1,21.1,20.8,19,20.8z M18.6,19.2H19c1.2,0,2.2-1,2.2-2.2v-2.2H19c-1,0-1.8-0.8-1.8-1.8v-3c0-1,0.8-1.8,1.8-1.8l-1.1-1.9
	c-0.2-0.4-0.6-0.6-1.1-0.6h-1.1V12c0,1.5-1.2,2.8-2.8,2.8H2.8V17c0,1.2,1,2.2,2.2,2.2h0.3c0.3-1.1,1.4-2,2.7-2s2.3,0.9,2.6,2h2.7
	c0.3-1.1,1.4-2,2.7-2S18.3,18.1,18.6,19.2z"/>
<path class="st0" d="M8,22.8c-1.5,0-2.8-1.2-2.8-2.8s1.2-2.8,2.8-2.8s2.8,1.2,2.8,2.8S9.5,22.8,8,22.8z M8,18.8
	c-0.7,0-1.2,0.6-1.2,1.2s0.6,1.2,1.2,1.2s1.2-0.6,1.2-1.2S8.7,18.8,8,18.8z"/>
<path class="st0" d="M16,22.8c-1.5,0-2.8-1.2-2.8-2.8s1.2-2.8,2.8-2.8s2.8,1.2,2.8,2.8S17.5,22.8,16,22.8z M16,18.8
	c-0.7,0-1.2,0.6-1.2,1.2s0.6,1.2,1.2,1.2c0.7,0,1.2-0.6,1.2-1.2S16.7,18.8,16,18.8z"/>
<path class="st0" d="M22,14.8h-3c-1,0-1.8-0.8-1.8-1.8v-3c0-1,0.8-1.8,1.8-1.8h1.3c0.3,0,0.5,0.1,0.6,0.4l1.7,3
	c0.1,0.1,0.1,0.2,0.1,0.4v2C22.8,14.4,22.4,14.8,22,14.8z M19,9.8c-0.1,0-0.2,0.1-0.2,0.2v3c0,0.1,0.1,0.2,0.2,0.2h2.2v-1.1
	l-1.4-2.4H19z"/>
<path class="st0" d="M5,9.8c-1.4,0-2.7-0.6-3.6-1.7C1.3,7.9,1.1,7.7,1,7.5C0.5,6.8,0.3,6,0.3,5.1c0-1.5,0.6-2.8,1.7-3.8
	c0.8-0.7,1.9-1.1,2.9-1.1c1.2,0,2.4,0.4,3.2,1.2c1,0.9,1.6,2.1,1.6,3.5c0,0.9-0.2,1.7-0.6,2.5C8.9,7.8,8.5,8.2,8.2,8.5
	C7.4,9.3,6.3,9.7,5.1,9.8C5.1,9.8,5,9.8,5,9.8z M5,1.8C5,1.8,4.9,1.8,5,1.8C4.2,1.8,3.5,2,2.9,2.5C2.1,3.1,1.7,4.1,1.7,5.1
	c0,0.6,0.2,1.2,0.5,1.6C2.3,6.9,2.4,7,2.5,7.1c0.6,0.8,1.6,1.2,2.5,1.1c0.8,0,1.5-0.3,2.1-0.8c0.3-0.2,0.5-0.5,0.6-0.8
	c0.3-0.5,0.5-1.1,0.5-1.7c0-0.9-0.4-1.8-1.1-2.4C6.5,2,5.8,1.8,5,1.8z"/>
<path class="st0" d="M4.4,6.7c-0.2,0-0.4-0.1-0.5-0.2l-1-1c-0.3-0.3-0.3-0.8,0-1.1c0.3-0.3,0.8-0.3,1.1,0L4.4,5L6,3.4
	c0.3-0.3,0.8-0.3,1.1,0s0.3,0.8,0,1.1L5,6.5C4.8,6.7,4.6,6.7,4.4,6.7z"/>
</svg>
