<?xml version="1.0" encoding="utf-8"?>
<!-- Generator: Adobe Illustrator 25.4.1, SVG Export Plug-In . SVG Version: 6.00 Build 0)  -->
<svg version="1.1" xmlns="http://www.w3.org/2000/svg" xmlns:xlink="http://www.w3.org/1999/xlink" x="0px" y="0px"
	 viewBox="0 0 24 24" style="enable-background:new 0 0 24 24;" xml:space="preserve">
<style type="text/css">
	.st0{fill:#2B2B2B;}
	.st1{fill:#2B2B2B;stroke:#2B2B2B;stroke-width:0.5;stroke-miterlimit:10;}
</style>
<path d="M12,22.8C6.1,22.8,1.2,17.9,1.2,12S6.1,1.2,12,1.2S22.8,6.1,22.8,12c0,0.4-0.3,0.8-0.8,0.8s-0.8-0.3-0.8-0.8
	c0-5.1-4.1-9.2-9.2-9.2S2.8,6.9,2.8,12s4.2,9.2,9.2,9.2c0.4,0,0.8,0.3,0.8,0.8S12.4,22.8,12,22.8z"/>
<path d="M9,21.8H8c-0.4,0-0.8-0.3-0.8-0.8s0.3-0.7,0.7-0.8C6.4,14.9,6.4,9.1,8,3.8C7.6,3.7,7.3,3.4,7.3,3S7.6,2.2,8,2.2
	h1c0.2,0,0.5,0.1,0.6,0.3C9.8,2.8,9.8,3,9.7,3.2c-1.9,5.6-1.9,11.9,0,17.5c0.1,0.2,0,0.5-0.1,0.7C9.5,21.6,9.2,21.8,9,21.8z"/>
<path d="M16.5,12.8c-0.4,0-0.8-0.3-0.8-0.8c0-3-0.5-5.9-1.4-8.8c-0.1-0.4,0.1-0.8,0.5-1c0.4-0.1,0.8,0.1,0.9,0.5
	c1,3,1.5,6.1,1.5,9.2C17.2,12.4,16.9,12.8,16.5,12.8z"/>
<path d="M12,17.2c-2.8,0-5.6-0.4-8.2-1.2c0,0.4-0.3,0.7-0.8,0.7S2.2,16.4,2.2,16v-1c0-0.2,0.1-0.5,0.3-0.6
	s0.4-0.2,0.7-0.1c2.8,0.9,5.8,1.4,8.8,1.4c0.4,0,0.8,0.3,0.8,0.8S12.4,17.2,12,17.2z"/>
<path d="M21,9.7c-0.1,0-0.2,0-0.2,0c-5.7-1.9-11.9-1.9-17.5,0c-0.4,0.1-0.8-0.1-1-0.5c-0.1-0.4,0.1-0.8,0.5-1
	c6-2,12.5-2,18.5,0c0.4,0.1,0.6,0.6,0.5,1C21.6,9.5,21.3,9.7,21,9.7z"/>
<path class="st1" d="M18.5,18.7c-0.8,0-1.5-0.7-1.5-1.5c0-0.9,0.7-1.5,1.5-1.5c0.8,0,1.5,0.7,1.5,1.5C20,18,19.3,18.7,18.5,18.7z
	 M18.5,16.2c-0.5,0-0.9,0.4-0.9,0.9c0,0.5,0.4,0.9,0.9,0.9s0.9-0.4,0.9-0.9C19.4,16.6,19,16.2,18.5,16.2z"/>
<path class="st1" d="M18.5,22.1c-0.6,0-1.2-0.2-1.6-0.7c-1.2-1.1-2.5-2.9-2-5.1c0.4-1.9,2.1-2.8,3.6-2.8c0,0,0,0,0,0
	c1.5,0,3.2,0.9,3.6,2.8c0.5,2.1-0.8,3.9-2,5.1C19.6,21.9,19.1,22.1,18.5,22.1z M18.5,14.1c-1.2,0-2.7,0.6-3,2.4
	C15,18.4,16.2,20,17.2,21c0.7,0.7,1.8,0.7,2.5,0c1.1-1,2.2-2.6,1.8-4.5C21.1,14.7,19.6,14.1,18.5,14.1z"/>
</svg>
