<svg xmlns="http://www.w3.org/2000/svg" height="24" viewBox="0 96 960 960" width="24"><path d="M480 576q-66 0-113-47t-47-113q0-66 47-113t113-47q66 0 113 47t47 113q0 66-47 113t-113 47ZM160 896V784q0-34 17.5-62.5T224 678q62-31 126-46.5T480 616q66 0 130 15.5T736 678q29 15 46.5 43.5T800 784v112H160Zm80-80h480v-32q0-11-5.5-20T700 750q-54-27-109-40.5T480 696q-56 0-111 13.5T260 750q-9 5-14.5 14t-5.5 20v32Zm240-320q33 0 56.5-23.5T560 416q0-33-23.5-56.5T480 336q-33 0-56.5 23.5T400 416q0 33 23.5 56.5T480 496Zm0-80Zm0 400Z"/></svg>