<?xml version="1.0" encoding="utf-8"?>
<!-- Generator: Adobe Illustrator 25.4.1, SVG Export Plug-In . SVG Version: 6.00 Build 0)  -->
<svg version="1.1" id="Layer_1" xmlns="http://www.w3.org/2000/svg" xmlns:xlink="http://www.w3.org/1999/xlink" x="0px" y="0px"
	 viewBox="0 0 24 24" style="enable-background:new 0 0 24 24;" xml:space="preserve">
<style type="text/css">
	.st0{fill:#292D32;}
</style>
<path class="st0" d="M13.8,10.9c-0.2,0-0.4-0.1-0.5-0.2c-0.3-0.3-0.3-0.8,0-1.1l8.2-8.2c0.3-0.3,0.8-0.3,1.1,0
	c0.3,0.3,0.3,0.8,0,1.1l-8.2,8.2C14.2,10.9,14,10.9,13.8,10.9z"/>
<path class="st0" d="M17.8,11.7H13c-0.4,0-0.8-0.3-0.8-0.8V6.2c0-0.4,0.3-0.8,0.8-0.8s0.8,0.3,0.8,0.8v4.1h4.1
	c0.4,0,0.8,0.3,0.8,0.8S18.2,11.7,17.8,11.7z"/>
<path class="st0" d="M15,22.8H9c-5.4,0-7.8-2.3-7.8-7.8V9c0-5.4,2.3-7.8,7.8-7.8h2c0.4,0,0.8,0.3,0.8,0.8S11.4,2.8,11,2.8H9
	C4.4,2.8,2.8,4.4,2.8,9v6c0,4.6,1.6,6.2,6.2,6.2h6c4.6,0,6.2-1.6,6.2-6.2v-2c0-0.4,0.3-0.8,0.8-0.8s0.8,0.3,0.8,0.8v2
	C22.8,20.4,20.4,22.8,15,22.8z"/>
</svg>
