<?xml version="1.0" encoding="utf-8"?>
<!-- Generator: Adobe Illustrator 25.2.1, SVG Export Plug-In . SVG Version: 6.00 Build 0)  -->
<svg version="1.1" xmlns="http://www.w3.org/2000/svg" xmlns:xlink="http://www.w3.org/1999/xlink" x="0px" y="0px"
	 viewBox="0 0 24 24" style="enable-background:new 0 0 24 24;" xml:space="preserve">
<style type="text/css">
	.st0{fill:none;stroke:#292D32;stroke-width:1.5;stroke-linecap:round;stroke-linejoin:round;}
	.st1{fill:#292D32;}
</style>
<g id="_58" transform="translate(-748 -250)">
	<g id="sms-edit">
		<path id="Vector-2_3_" class="st0" d="M755.1,258.8"/>
		<g id="Group">
			<path class="st1" d="M769.8,265c-0.1-0.1-0.2-0.2-0.3-0.3c-0.4-0.6-1.3-0.7-1.9-0.3c-0.1,0.1-0.1,0.1-0.3,0.2l-3.5,3.5
				c-0.2,0.2-0.3,0.4-0.3,0.6l-0.2,1.4c-0.1,0.3,0.1,0.7,0.5,0.8c0.1,0,0.2,0,0.3,0l1.3-0.2c0.2,0,0.4-0.1,0.6-0.3l3.5-3.5
				C770.1,266.5,770.3,265.6,769.8,265z"/>
			<path id="Vector-4" class="st1" d="M766.8,265.1c0.3,1.1,1.1,1.9,2.2,2.2"/>
		</g>
		<path class="st1" d="M760.4,269.4h-5.3c0,0-3.9,0.2-3.9-4.1v-7.6c0,0-0.2-3.8,4.3-3.8h10.1c0,0,4.2-0.3,4.2,3.9v3.2
			c0,0,0,0.8,0.7,0.8c0.8,0,0.8-0.6,0.8-0.9v-3.2c0,0,0.1-5.4-5.8-5.4h-10c0,0-5.7-0.2-5.7,5.4v7.8c0,0,0,5.3,5.2,5.3h5.3
			c0,0,0.9,0.1,0.9-0.8C761.2,270.2,761.2,269.4,760.4,269.4z"/>
	</g>
</g>
<path class="st1" d="M6.9,9.7c0,0,0.4-0.6,1-0.1L11,12c0,0,1.5,1,2.9,0l3.2-2.6c0,0,0.5-0.3,0.9,0.1c0,0,0.6,0.5-0.1,1.1L15,13
	c0,0-2.1,2-5,0.2l-3.1-2.5C6.9,10.7,6.5,10.2,6.9,9.7z"/>
</svg>
