<?xml version="1.0" encoding="utf-8"?>
<!-- Generator: Adobe Illustrator 25.4.1, SVG Export Plug-In . SVG Version: 6.00 Build 0)  -->
<svg version="1.1" id="Layer_1" xmlns="http://www.w3.org/2000/svg" xmlns:xlink="http://www.w3.org/1999/xlink" x="0px" y="0px"
	 viewBox="0 0 24 24" style="enable-background:new 0 0 24 24;" xml:space="preserve">
<style type="text/css">
	.st0{fill:none;stroke:#2B2B2B;stroke-width:1.5;stroke-linecap:round;stroke-linejoin:round;}
</style>
<g>
	<path id="Vector" class="st0" d="M12,20.2H7c-3,0-5-1.5-5-5v-7c0-3.5,2-5,5-5h10c3,0,5,1.5,5,5v3"/>
	<path id="Vector-2" class="st0" d="M17,8.7l-3.1,2.5c-1.1,0.8-2.6,0.8-3.8,0L7,8.7"/>
	<g id="Group">
		<path id="Vector-3" class="st0" d="M19.2,14.5L15.7,18c-0.2,0.2-0.3,0.4-0.3,0.6L15.2,20c-0.1,0.3,0.1,0.7,0.5,0.8
			c0.1,0,0.2,0,0.3,0l1.3-0.2c0.2,0,0.4-0.1,0.6-0.3l3.5-3.5c0.6-0.4,0.8-1.3,0.3-1.9c-0.1-0.1-0.2-0.2-0.3-0.3
			c-0.4-0.6-1.3-0.7-1.9-0.3C19.4,14.2,19.3,14.3,19.2,14.5z"/>
		<path id="Vector-4" class="st0" d="M18.7,15c0.3,1.1,1.1,1.9,2.2,2.2"/>
	</g>
</g>
</svg>
