<?xml version="1.0" encoding="utf-8"?>
<!-- Generator: Adobe Illustrator 23.0.3, SVG Export Plug-In . SVG Version: 6.00 Build 0)  -->
<svg version="1.1" id="Layer_1" xmlns="http://www.w3.org/2000/svg" xmlns:xlink="http://www.w3.org/1999/xlink" x="0px" y="0px"
	 viewBox="0 0 36 36" style="enable-background:new 0 0 36 36;" xml:space="preserve">
<style type="text/css">
	.st0{fill:#2B2B2B;}
</style>
<g>
	<path class="st0" d="M28,11h-3.9l-8.6-4.5l-9.8,5.1V26c-0.8,0-1.5-0.3-2.1-0.9c-0.6-0.6-0.9-1.3-0.9-2.1V11.3c0-1,0.4-1.7,1.2-2
		l11.5-5.7l11.3,5.7C27.5,9.7,27.9,10.2,28,11z M10.2,12.5h19.5c0.8,0,1.5,0.3,2.1,0.9c0.6,0.6,0.9,1.3,0.9,2.1V29
		c0,0.8-0.3,1.6-0.9,2.1c-0.6,0.6-1.3,0.9-2.1,0.9H10.2c-0.8,0-1.5-0.3-2.1-0.9c-0.6-0.6-0.9-1.3-0.9-2.1V15.5
		c0-0.8,0.3-1.5,0.9-2.1C8.7,12.8,9.4,12.5,10.2,12.5z M29.8,18v-2.5l-9.8,5l-9.8-5V18l9.8,5L29.8,18z"/>
</g>
</svg>
