<?xml version="1.0" encoding="utf-8"?>
<!DOCTYPE svg PUBLIC "-//W3C//DTD SVG 1.1//EN" "http://www.w3.org/Graphics/SVG/1.1/DTD/svg11.dtd">
<svg version="1.1" id="Layer_1" xmlns="http://www.w3.org/2000/svg" xmlns:xlink="http://www.w3.org/1999/xlink" x="0px" y="0px" width="290px" height="55px" viewBox="0 0 318.23 59.789" enable-background="new 0 0 318.23 59.789" xml:space="preserve">
<path fill="#4794C5" d="M58.166,45.498c0.007,0.006,0,0.006-0.006,0.012c-0.506,0.986-1.12,1.904-1.842,2.715
	c0,0,0,0.006-0.006,0.006c-1.375,1.563-3.119,2.754-5.193,3.398L30.32,58.152c-0.924,0.291-1.93,0.145-2.738-0.394
	c-0.805-0.538-1.33-1.409-1.417-2.373l-3.784-40.865l0.867,0.063l1.885,0.146l3.758,0.284c1.121,0.096,2.121,0.943,2.234,1.938
	l3.814,30.129l7.922-1.761l-4.555-29.592l0.918,0.07l1.409,0.102l2.589,0.195c0.854,0.064,1.661,0.816,1.81,1.684l4.663,26.011
	l5.959-1.322l-5.207-25.819c-0.627-3.208-3.588-6.081-6.775-6.509L15.801,6.321c-0.949-0.133-1.911,0.172-2.613,0.824
	c-0.703,0.645-1.082,1.574-1.032,2.529l2.557,46.428l0.145,2.676l0.057,1.012C6.842,57.938,0.908,51.547,0.838,42.98l-0.26-30.104
	C0.541,9.219,1.99,6.188,4.381,3.967C6.52,1.969,9.404,0.615,12.67,0.026c2.613-0.474,5.459-0.461,8.357,0.102l21.607,4.201
	c6.11,1.177,11.571,6.699,12.899,12.69l3.909,17.791C60.268,38.551,59.768,42.385,58.166,45.498z"/>
<g>
	<g>
		<path fill="#4794C5" d="M83.498,10.522h9.152l2.32,21.806h0.086l11.598-21.806h9.238l-6.371,30.117h-6.199l5.484-23.959h-0.086
			L95.982,40.639h-5.062L88.012,16.68h-0.085l-4.514,23.959h-6.285L83.498,10.522z"/>
		<path fill="#4794C5" d="M119.689,18.832h6.031l-4.64,21.807h-6.031L119.689,18.832z M126.396,15.457h-6.031l1.096-4.935h6.031
			L126.396,15.457z"/>
		<path fill="#4794C5" d="M143.014,26.381c0-2.572-1.393-3.627-4.006-3.627c-4.557,0-6.115,5.482-6.115,9.238
			c0,2.615,1.096,4.723,4.133,4.723c2.656,0,4.177-1.896,4.851-4.049h5.99c-1.813,5.441-5.611,8.563-11.263,8.563
			c-6.074,0-9.701-2.996-9.701-9.362c0-7.425,4.472-13.625,12.314-13.625c5.316,0,9.66,2.362,9.787,8.141L143.014,26.381
			L143.014,26.381z"/>
		<path fill="#4794C5" d="M153.98,18.832h5.694l-0.885,3.922l0.084,0.084c1.349-2.994,4.301-4.598,7.508-4.598
			c0.634,0,1.224,0.043,1.854,0.127l-1.223,5.82c-0.844-0.168-1.688-0.379-2.531-0.379c-4.598,0-6.241,3.459-7.043,7.17l-2.024,9.66
			h-5.99L153.98,18.832z"/>
		<path fill="#4794C5" d="M179.289,18.24c5.988,0,10.164,2.953,10.164,9.238c0,7.676-4.764,13.75-12.693,13.75
			c-6.074,0-9.996-3.164-9.996-9.406C166.764,24.441,171.529,18.24,179.289,18.24z M177.055,36.715c4.471,0,6.41-5.482,6.41-9.152
			c0-2.91-1.266-4.809-4.387-4.809c-4.387,0-6.328,5.398-6.328,9.068C172.75,34.396,174.229,36.715,177.055,36.715z"/>
		<path fill="#4794C5" d="M215.143,40.639H208.9l-0.762-15.311h-0.082l-6.75,15.311h-6.285l-2.402-21.807h6.115l0.846,15.352h0.082
			l6.707-15.352h6.072l0.676,15.227h0.084l7.002-15.227h6.328L215.143,40.639z"/>
		<path fill="#4794C5" d="M231.93,31.189c-0.043,0.549-0.043,0.93-0.043,1.266c0,2.531,1.562,4.26,4.812,4.26
			c2.403,0,3.586-1.604,4.469-2.994h5.992c-1.897,4.894-5.021,7.508-11.306,7.508c-5.819,0-9.701-3.332-9.701-9.53
			c0-6.962,4.599-13.457,12.021-13.457c6.072,0,10.164,3.204,10.164,9.532c0,1.183-0.125,2.361-0.336,3.416H231.93L231.93,31.189z
			 M242.559,27.395c0-2.235-0.547-4.641-4.049-4.641c-3.375,0-5.063,2.193-5.945,4.641H242.559z"/>
		<path fill="#4794C5" d="M255.762,10.522h5.99l-2.236,10.628h0.086c1.855-2.023,3.584-2.91,6.453-2.91
			c5.525,0,7.844,4.219,7.844,9.279c0,6.75-3.879,13.709-11.303,13.709c-2.994,0-5.779-0.972-6.834-4.006h-0.084l-0.717,3.416
			h-5.527L255.762,10.522z M257.154,32.119c0,2.656,1.604,4.596,4.346,4.596c4.512,0,6.41-5.355,6.41-9.111
			c0-2.739-1.18-4.85-4.26-4.85C258.969,22.754,257.154,28.236,257.154,32.119z"/>
		<path fill="#4794C5" d="M281.916,31.189c-0.043,0.549-0.043,0.93-0.043,1.266c0,2.531,1.561,4.26,4.807,4.26
			c2.406,0,3.586-1.604,4.473-2.994h5.988c-1.896,4.894-5.02,7.508-11.303,7.508c-5.822,0-9.701-3.332-9.701-9.53
			c0-6.962,4.598-13.457,12.021-13.457c6.074,0,10.166,3.204,10.166,9.532c0,1.183-0.129,2.361-0.338,3.416H281.916L281.916,31.189z
			 M292.543,27.395c0-2.235-0.547-4.641-4.049-4.641c-3.373,0-5.061,2.193-5.947,4.641H292.543z"/>
		<path fill="#4794C5" d="M303.975,18.832h5.695l-0.885,3.922l0.084,0.084c1.35-2.994,4.301-4.598,7.506-4.598
			c0.633,0,1.225,0.043,1.855,0.127l-1.224,5.82c-0.844-0.168-1.688-0.379-2.531-0.379c-4.596,0-6.241,3.459-7.043,7.17l-2.022,9.66
			h-5.99L303.975,18.832z"/>
	</g>
</g>
</svg>
