<?xml version="1.0" encoding="utf-8"?>
<!-- Generator: Adobe Illustrator 19.2.1, SVG Export Plug-In . SVG Version: 6.00 Build 0)  -->
<svg version="1.1" xmlns="http://www.w3.org/2000/svg" xmlns:xlink="http://www.w3.org/1999/xlink" x="0px" y="0px"
	 viewBox="0 0 735.8 141.8" style="enable-background:new 0 0 735.8 141.8;" xml:space="preserve">
<style type="text/css">
	.st0{fill:#0086DB;}
</style>
<path d="M133.1,107.3L133.1,107.3c-1.1,2.3-2.5,4.4-4.1,6.2l0,0c-3.2,3.7-7.1,6.4-11.9,7.8l-47.8,14.9
	c-2.1,0.7-4.4,0.2-6.2-0.9c-1.8-1.1-3-3.2-3.2-5.5l-8.7-93.9l2.1,0.2l4.4,0.2l8.7,0.7c2.5,0.2,4.8,2.1,5.1,4.4l8.6,69.1l18.1-4.1
	l-10.6-68l2.1,0.2l3.2,0.2l6,0.5c2.1,0.2,3.9,1.8,4.1,3.9l10.8,59.7l13.8-3l-11.9-59.2c-1.4-7.3-8.3-14-15.6-14.9l-64-8.7
	c-2.1-0.2-4.4,0.5-6,1.8c-1.6,1.4-2.5,3.7-2.3,5.7l6,106.5l0.2,6.2l0.2,2.3C15.6,135.2,2.1,120.8,1.8,101L1.1,32
	c0-8.5,3.2-15.4,8.7-20.4c4.8-4.6,11.5-7.8,19.1-9c6-1.1,12.6-1.1,19.3,0.2l49.6,9.6c14,2.8,26.6,15.4,29.6,29.2l9,40.9
	C137.9,91.2,136.8,100.2,133.1,107.3z"/>
<g>
	<path d="M194.9,34.3H216l5.3,50h0.2l26.6-50h21.1l-14.7,69.1h-14.2l12.6-55.1h-0.2l-29.2,55.1h-11.7l-6.7-55.1h-0.2
		l-10.3,55.1h-14.5L194.9,34.3z"/>
	<path d="M278,53.3h13.8l-10.6,50h-13.8L278,53.3z M293.3,45.8h-13.8l2.6-11.3h13.8L293.3,45.8z"/>
	<path d="M331.4,70.8c0-6-3.2-8.3-9.2-8.3c-10.6,0-14,12.6-14,21.1c0,6,2.5,10.8,9.4,10.8c6.2,0,9.6-4.4,11-9.2h13.8
		c-4.1,12.4-12.9,19.7-25.9,19.7c-14,0-22.3-6.9-22.3-21.6c0-17,10.3-31.2,28.2-31.2c12.2,0,22.3,5.5,22.5,18.6h-13.5V70.8z"/>
	<path d="M356.7,53.3h13.1l-2.1,9l0.2,0.2c3-6.9,9.9-10.6,17.2-10.6c1.4,0,2.8,0,4.4,0.2l-2.8,13.3
		c-1.8-0.5-3.9-0.9-5.7-0.9c-10.6,0-14.2,8-16.1,16.5l-4.6,22.3h-13.8L356.7,53.3z"/>
	<path d="M414.8,52.2c13.8,0,23.4,6.9,23.4,21.1c0,17.7-11,31.7-29.2,31.7c-14,0-23-7.3-23-21.6
		C385.9,66.4,396.9,52.2,414.8,52.2z M409.5,94.4c10.3,0,14.7-12.6,14.7-21.1c0-6.7-3-11-10.1-11c-10.1,0-14.5,12.4-14.5,20.9
		C399.6,89.2,403.1,94.4,409.5,94.4z"/>
	<path d="M497,103.6h-14.2L481,68.5h-0.2l-15.4,35.1h-14.5l-5.5-50h14l1.8,35.4h0.2l15.4-35.4h14l1.6,34.9h0.2
		l16.1-34.9h14.4L497,103.6z"/>
	<path d="M535.5,81.8c0,1.1,0,2.1,0,3c0,5.7,3.7,9.9,11,9.9c5.5,0,8.3-3.7,10.3-6.9h13.8C566.2,99,559.1,105,544.7,105
		c-13.3,0-22.3-7.6-22.3-21.8c0-16.1,10.6-31,27.5-31c14,0,23.4,7.3,23.4,21.8c0,2.8-0.2,5.5-0.7,7.8H535.5z M559.9,73.1
		c0-5.1-1.1-10.6-9.2-10.6c-7.8,0-11.7,5.1-13.5,10.6H559.9z"/>
	<path d="M590.2,34.3H604l-5.1,24.3h0.2c4.4-4.6,8.3-6.7,14.9-6.7c12.6,0,17.9,9.6,17.9,21.3c0,15.4-9,31.5-25.9,31.5
		c-6.9,0-13.3-2.3-15.6-9.2h-0.2l-1.6,7.8H576L590.2,34.3z M593.4,83.9c0,6.2,3.7,10.6,9.9,10.6c10.3,0,14.7-12.4,14.7-20.9
		c0-6.2-2.8-11.2-9.9-11.2C597.5,62.5,593.4,74.9,593.4,83.9z"/>
	<path d="M650.3,81.8c0,1.1,0,2.1,0,3c0,5.7,3.7,9.9,11,9.9c5.5,0,8.3-3.7,10.3-6.9h13.8C681,99,673.9,105,659.5,105
		c-13.3,0-22.3-7.6-22.3-21.8c0-16.1,10.6-31,27.5-31c14,0,23.4,7.3,23.4,21.8c0,2.8-0.2,5.5-0.7,7.8H650.3z M674.7,73.1
		c0-5.1-1.1-10.6-9.2-10.6c-7.8,0-11.7,5.1-13.5,10.6H674.7z"/>
	<path d="M700.8,53.3h13.1l-2.1,9l0.2,0.2c3-6.9,9.9-10.6,17.2-10.6c1.4,0,2.8,0,4.4,0.2l-2.8,13.3
		c-1.8-0.5-3.9-0.9-5.7-0.9c-10.6,0-14.2,8-16.1,16.5l-4.6,22.3h-13.8L700.8,53.3z"/>
</g>
</svg>
