<?xml version="1.0" encoding="utf-8"?>
<!-- Generator: Adobe Illustrator 25.4.1, SVG Export Plug-In . SVG Version: 6.00 Build 0)  -->
<svg version="1.1" xmlns="http://www.w3.org/2000/svg" xmlns:xlink="http://www.w3.org/1999/xlink" x="0px" y="0px"
	 viewBox="0 0 24 24" style="enable-background:new 0 0 24 24;" xml:space="preserve">
<style type="text/css">
	.st0{fill:#2B2B2B;}
</style>
<path d="M12.1,22.8C6.2,22.8,1.4,17.9,1.4,12S6.2,1.2,12.1,1.2S22.9,6.1,22.9,12S18.1,22.8,12.1,22.8z M12.1,2.8
	C7,2.8,2.9,6.9,2.9,12s4.2,9.2,9.2,9.2s9.2-4.1,9.2-9.2S17.2,2.8,12.1,2.8z"/>
<path d="M12.1,13.5c-0.4,0-0.8-0.3-0.8-0.8v-0.2c0-1.2,0.9-1.7,1.2-2c0.4-0.2,0.5-0.4,0.5-0.7c0-0.5-0.4-0.9-0.9-0.9
	s-0.9,0.4-0.9,0.9c0,0.4-0.3,0.8-0.8,0.8c-0.4,0-0.7-0.3-0.7-0.8c0-1.3,1.1-2.4,2.4-2.4s2.4,1.1,2.4,2.4c0,1.1-0.8,1.7-1.1,1.9
	c-0.4,0.3-0.5,0.4-0.5,0.7v0.2C12.9,13.2,12.6,13.5,12.1,13.5z"/>
<path d="M12.1,16c-0.4,0-0.8-0.3-0.8-0.7c0-0.4,0.3-0.8,0.8-0.8s0.8,0.3,0.8,0.8C12.9,15.7,12.6,16,12.1,16z"/>
</svg>
