<?xml version="1.0" standalone="no"?><!DOCTYPE svg PUBLIC "-//W3C//DTD SVG 1.1//EN" "http://www.w3.org/Graphics/SVG/1.1/DTD/svg11.dtd" ><svg xmlns="http://www.w3.org/2000/svg"><metadata>Generated by Glyphter</metadata><defs><font id="admin" horiz-adv-x="0"><font-face units-per-em="1024" ascent="1024" descent="0" font-family="admin" font-weight="normal" /><missing-glyph horiz-adv-x="0" /><glyph unicode="&#x0041;" d="M922.1,819.3C922.1,819.3,512.5,819.3,512.5,819.3C512.5,819.3,410.1,921.7,410.1,921.7C410.1,921.7,102.9,921.7,102.9,921.7C46.58,921.7,0.5,875.62,0.5,819.3C0.5,819.3,0.5,204.9,0.5,204.9C0.5,148.58,46.58,102.5,102.9,102.5C102.9,102.5,922.1,102.5,922.1,102.5C978.42,102.5,1024.5,148.58,1024.5,204.9C1024.5,204.9,1024.5,716.9,1024.5,716.9C1024.5,773.22,978.42,819.3,922.1,819.3C922.1,819.3,922.1,819.3,922.1,819.3M870.9,409.7C870.9,409.7,717.3,409.7,717.3,409.7C717.3,409.7,717.3,256.1,717.3,256.1C717.3,256.1,614.9,256.1,614.9,256.1C614.9,256.1,614.9,409.7,614.9,409.7C614.9,409.7,461.3,409.7,461.3,409.7C461.3,409.7,461.3,512.1,461.3,512.1C461.3,512.1,614.9,512.1,614.9,512.1C614.9,512.1,614.9,665.7,614.9,665.7C614.9,665.7,717.3,665.7,717.3,665.7C717.3,665.7,717.3,512.1,717.3,512.1C717.3,512.1,870.9,512.1,870.9,512.1C870.9,512.1,870.9,409.7,870.9,409.7C870.9,409.7,870.9,409.7,870.9,409.7" class="mai-file-manage"/><glyph unicode="&#x0042;" d="M298.667,1024C298.667,1024,0,725.333,0,725.333C0,725.333,0,298.667,0,298.667C0,298.667,298.667,0,298.667,0C298.667,0,725.333,0,725.333,0C725.333,0,1024,298.667,1024,298.667C1024,298.667,1024,725.333,1024,725.333C1024,725.333,725.333,1024,725.333,1024C725.333,1024,298.667,1024,298.667,1024C298.667,1024,298.667,1024,298.667,1024M426.667,853.333C426.667,853.333,597.333,853.333,597.333,853.333C597.333,853.333,597.333,426.667,597.333,426.667C597.333,426.667,426.667,426.667,426.667,426.667C426.667,426.667,426.667,853.333,426.667,853.333C426.667,853.333,426.667,853.333,426.667,853.333M426.667,341.333C426.667,341.333,597.333,341.333,597.333,341.333C597.333,341.333,597.333,170.667,597.333,170.667C597.333,170.667,426.667,170.667,426.667,170.667C426.667,170.667,426.667,341.333,426.667,341.333C426.667,341.333,426.667,341.333,426.667,341.333" class="mai-warn"/><glyph unicode="&#x0043;" d="M283.547,57.297C283.547,57.297,0,0,0,0C0,0,57.297,283.547,57.297,283.547C57.297,283.547,797.75,1024,797.75,1024C797.75,1024,1024,797.75,1024,797.75C1024,797.75,283.547,57.297,283.547,57.297" class="mai-edit"/><glyph unicode="&#x0044;" d="M512,1024C230.4,1024,0,793.6,0,512C0,230.4,230.4,0,512,0C793.6,0,1024,230.4,1024,512C1024,793.6,793.6,1024,512,1024C512,1024,512,1024,512,1024M460.8,107.52C261.12,133.12,102.4,307.2,102.4,512C102.4,542.72,107.52,573.44,112.64,604.16C112.64,604.16,358.4,358.4,358.4,358.4C358.4,358.4,358.4,307.2,358.4,307.2C358.4,250.88,404.48,204.8,460.8,204.8C460.8,204.8,460.8,107.52,460.8,107.52C460.8,107.52,460.8,107.52,460.8,107.52M814.08,235.52C798.72,276.48,762.88,307.2,716.8,307.2C716.8,307.2,665.6,307.2,665.6,307.2C665.6,307.2,665.6,460.8,665.6,460.8C665.6,486.4,645.12,512,614.4,512C614.4,512,307.2,512,307.2,512C307.2,512,307.2,614.4,307.2,614.4C307.2,614.4,409.6,614.4,409.6,614.4C440.32,614.4,460.8,634.88,460.8,665.6C460.8,665.6,460.8,768,460.8,768C460.8,768,563.2,768,563.2,768C619.52,768,665.6,814.08,665.6,870.4C665.6,870.4,665.6,890.88,665.6,890.88C814.08,829.44,921.6,680.96,921.6,512C921.6,404.48,880.64,307.2,814.08,235.52C814.08,235.52,814.08,235.52,814.08,235.52" class="mai-website"/><glyph unicode="&#x0045;" d="M645.611,1024.5C645.611,1024.5,380.523,1024.5,380.523,1024.5C358.906,1024.5,340.702,1006.297,340.702,984.68C340.702,984.68,340.702,881.148,340.702,881.148C340.702,881.148,132.5,881.148,132.5,881.148C132.5,881.148,132.5,801.507,132.5,801.507C132.5,801.507,179.146,801.507,179.146,801.507C179.146,801.507,233.757,36.961,233.757,36.961C234.895,16.482,253.098,-0.584,273.577,0.554C273.577,0.554,751.419,0.554,751.419,0.554C771.898,0.554,790.101,16.482,791.239,38.098C791.239,38.098,845.849,802.645,845.849,802.645C845.849,802.645,892.496,802.645,892.496,802.645C892.496,802.645,892.496,882.285,892.496,882.285C892.496,882.285,684.293,882.285,684.293,882.285C684.293,882.285,684.293,985.818,684.293,985.818C685.431,1006.297,668.365,1024.5,645.611,1024.5C645.611,1024.5,645.611,1024.5,645.611,1024.5M605.791,881.148C605.791,881.148,420.343,881.148,420.343,881.148C420.343,881.148,420.343,944.86,420.343,944.86C420.343,944.86,605.791,944.86,605.791,944.86C605.791,944.86,605.791,881.148,605.791,881.148C605.791,881.148,605.791,881.148,605.791,881.148" class="mai-bin"/><glyph unicode="&#x0046;" d="M972.8,751.033C972.8,751.033,1024,699.833,1024,699.833C1024,699.833,1024,153.7,1024,153.7C1024,153.7,972.8,102.5,972.8,102.5C972.8,102.5,51.2,102.5,51.2,102.5C51.2,102.5,0,153.7,0,153.7C0,153.7,0,870.5,0,870.5C0,870.5,51.2,921.7,51.2,921.7C51.2,921.7,409.6,921.7,409.6,921.7C409.6,921.7,512,751.033,512,751.033C512,751.033,972.8,751.033,972.8,751.033C972.8,751.033,972.8,751.033,972.8,751.033" class="mai-category"/><glyph unicode="&#x0047;" d="M793.957,53.384C793.957,53.384,743,0,743,0C743,0,231,512,231,512C231,512,743,1024,743,1024C743,1024,793.957,970.616,793.957,970.616C793.957,970.616,335.341,512,335.341,512C335.341,512,793.957,53.384,793.957,53.384" class="mai-cl"/><glyph unicode="&#x0048;" d="M1021.551,466.496C1023.598,367.182,955,281.178,857.734,260.701C841.352,257.63,823.947,255.582,806.541,255.582C731.8,255.582,657.058,255.582,581.293,255.582C574.126,255.582,566.959,252.51,561.84,248.415C476.86,173.674,391.88,97.908,307.924,23.167C305.876,21.119,303.829,20.095,299.733,16C299.733,16,299.733,255.582,299.733,255.582C299.733,255.582,282.328,255.582,282.328,255.582C245.469,256.606,208.61,254.558,173.799,259.677C74.485,275.035,1.792,360.015,0.768,460.353C-0.256,575.024,-0.256,688.672,0.768,803.344C1.792,919.039,93.939,1008.115,211.682,1008.115C375.499,1009.139,540.339,1008.115,704.156,1008.115C739.991,1008.115,775.826,1008.115,811.66,1008.115C921.213,1008.115,1005.169,936.445,1021.551,827.916C1023.598,811.535,1024.622,794.129,1023.598,777.748C1021.551,673.314,1021.551,569.905,1021.551,466.496C1021.551,466.496,1021.551,466.496,1021.551,466.496" class="mai-comment"/><glyph unicode="&#x0049;" d="M231,53.384C231,53.384,284.384,0,284.384,0C284.384,0,793.957,512,793.957,512C793.957,512,284.384,1024,284.384,1024C284.384,1024,231,970.616,231,970.616C231,970.616,692.043,512,692.043,512C692.043,512,231,53.384,231,53.384" class="mai-cr"/><glyph unicode="&#x004a;" d="M0,455.111C0,455.111,455.111,455.111,455.111,455.111C455.111,455.111,455.111,1024,455.111,1024C455.111,1024,0,1024,0,1024C0,1024,0,455.111,0,455.111C0,455.111,0,455.111,0,455.111M0,0C0,0,455.111,0,455.111,0C455.111,0,455.111,341.333,455.111,341.333C455.111,341.333,0,341.333,0,341.333C0,341.333,0,0,0,0C0,0,0,0,0,0M568.889,0C568.889,0,1024,0,1024,0C1024,0,1024,568.889,1024,568.889C1024,568.889,568.889,568.889,568.889,568.889C568.889,568.889,568.889,0,568.889,0C568.889,0,568.889,0,568.889,0M568.889,1024C568.889,1024,568.889,682.667,568.889,682.667C568.889,682.667,1024,682.667,1024,682.667C1024,682.667,1024,1024,1024,1024C1024,1024,568.889,1024,568.889,1024C568.889,1024,568.889,1024,568.889,1024" class="mai-dashboard"/><glyph unicode="&#x004b;" d="M0,259.216C0,259.216,0,154.011,0,154.011C0,93.693,49.096,46,109.414,46C109.414,46,914.586,46,914.586,46C974.904,46,1024,95.096,1024,154.011C1024,154.011,1024,259.216,1024,259.216C1024,259.216,925.808,259.216,925.808,259.216C925.808,259.216,925.808,154.011,925.808,154.011C925.808,148.4,920.197,144.192,914.586,144.192C914.586,144.192,109.414,144.192,109.414,144.192C103.803,144.192,98.192,148.4,98.192,154.011C98.192,154.011,98.192,259.216,98.192,259.216C98.192,259.216,0,259.216,0,259.216C0,259.216,0,259.216,0,259.216M455.89,978.822C455.89,978.822,455.89,442.975,455.89,442.975C455.89,442.975,333.852,552.389,333.852,552.389C333.852,552.389,267.923,479.447,267.923,479.447C267.923,479.447,471.321,297.09,471.321,297.09C481.14,288.674,492.362,284.466,503.584,284.466C514.805,284.466,527.43,288.674,535.847,297.09C535.847,297.09,739.244,479.447,739.244,479.447C739.244,479.447,673.315,552.389,673.315,552.389C673.315,552.389,554.082,442.975,554.082,442.975C554.082,442.975,554.082,978.822,554.082,978.822C554.082,978.822,455.89,978.822,455.89,978.822C455.89,978.822,455.89,978.822,455.89,978.822" class="mai-download"/><glyph unicode="&#x004c;" d="M512,1024C230.4,1024,0,793.6,0,512C0,230.4,230.4,0,512,0C793.6,0,1024,230.4,1024,512C1024,793.6,793.6,1024,512,1024C512,1024,512,1024,512,1024M460.8,107.52C261.12,133.12,102.4,307.2,102.4,512C102.4,542.72,107.52,573.44,112.64,604.16C112.64,604.16,358.4,358.4,358.4,358.4C358.4,358.4,358.4,307.2,358.4,307.2C358.4,250.88,404.48,204.8,460.8,204.8C460.8,204.8,460.8,107.52,460.8,107.52C460.8,107.52,460.8,107.52,460.8,107.52M814.08,235.52C798.72,276.48,762.88,307.2,716.8,307.2C716.8,307.2,665.6,307.2,665.6,307.2C665.6,307.2,665.6,460.8,665.6,460.8C665.6,486.4,645.12,512,614.4,512C614.4,512,307.2,512,307.2,512C307.2,512,307.2,614.4,307.2,614.4C307.2,614.4,409.6,614.4,409.6,614.4C440.32,614.4,460.8,634.88,460.8,665.6C460.8,665.6,460.8,768,460.8,768C460.8,768,563.2,768,563.2,768C619.52,768,665.6,814.08,665.6,870.4C665.6,870.4,665.6,890.88,665.6,890.88C814.08,829.44,921.6,680.96,921.6,512C921.6,404.48,880.64,307.2,814.08,235.52C814.08,235.52,814.08,235.52,814.08,235.52" class="mai-earth"/><glyph unicode="&#x004d;" d="M826.386,601.83C826.386,601.83,598.83,829.386,598.83,829.386C598.83,829.386,0,230.556,0,230.556C0,230.556,0,3,0,3C0,3,227.556,3,227.556,3C227.556,3,826.386,601.83,826.386,601.83C826.386,601.83,826.386,601.83,826.386,601.83M1006.035,781.48C1029.988,805.433,1029.988,841.363,1006.035,865.316C1006.035,865.316,868.304,1003.047,868.304,1003.047C844.351,1027,808.421,1027,784.468,1003.047C784.468,1003.047,664.702,883.281,664.702,883.281C664.702,883.281,892.257,655.725,892.257,655.725C892.257,655.725,1006.035,781.48,1006.035,781.48C1006.035,781.48,1006.035,781.48,1006.035,781.48" class="mai-edit"/><glyph unicode="&#x004e;" d="M866.295,633.055C748.557,704.346,626.498,742.152,512,742.152C397.502,742.152,275.443,704.346,157.705,633.055C104.776,600.65,56.169,565.004,14.042,526.118C14.042,526.118,0,512.076,0,512.076C0,512.076,14.042,498.034,14.042,498.034C56.169,459.148,104.776,422.422,157.705,391.097C275.443,319.806,397.502,282,512,282C626.498,282,748.557,319.806,866.295,391.097C919.224,423.502,967.831,459.148,1009.958,498.034C1009.958,498.034,1024,512.076,1024,512.076C1024,512.076,1009.958,526.118,1009.958,526.118C967.831,565.004,919.224,600.65,866.295,633.055C866.295,633.055,866.295,633.055,866.295,633.055M512,327.367C308.928,327.367,132.861,466.709,81.013,510.996C132.861,555.283,308.928,694.624,512,694.624C715.072,694.624,891.139,555.283,942.987,510.996C891.139,466.709,715.072,327.367,512,327.367C512,327.367,512,327.367,512,327.367M339.173,562.844C339.173,429.799,483.192,346.648,598.414,413.176C651.882,444.047,684.827,501.101,684.827,562.844C684.827,695.888,540.808,779.04,425.586,712.512C372.118,681.641,339.173,624.586,339.173,562.844" class="mai-eye"/><glyph unicode="&#x004f;" d="M949.609,866.988C929.699,866.988,912.278,859.522,897.345,845.834C897.345,845.834,362.268,333.156,362.268,333.156C362.268,333.156,127.083,537.231,127.083,537.231C97.219,565.852,49.933,565.852,21.312,535.987C-7.308,506.122,-7.308,458.836,22.557,430.216C25.045,427.727,26.29,426.483,28.778,425.239C28.778,425.239,314.982,176.366,314.982,176.366C343.603,151.478,388.4,151.478,415.776,178.854C415.776,178.854,1000.628,738.819,1000.628,738.819C1030.493,767.439,1031.737,814.725,1004.361,844.59C990.673,858.278,970.763,866.988,949.609,866.988C949.609,866.988,949.609,866.988,949.609,866.988" class="mai-idea"/><glyph unicode="&#x0050;" d="M988.298,242.091C988.298,242.091,988.298,242.091,988.298,242.091C979.774,225.042,969.545,209.699,957.611,196.06C957.611,196.06,957.611,196.06,957.611,196.06C933.743,168.782,904.76,148.323,868.958,138.094C868.958,138.094,514.345,27.278,514.345,27.278C499.002,22.163,481.953,25.573,468.314,34.097C454.675,42.622,446.151,57.965,444.446,75.014C444.446,75.014,379.661,772.305,379.661,772.305C379.661,772.305,395.005,770.6,395.005,770.6C395.005,770.6,427.397,768.895,427.397,768.895C427.397,768.895,492.182,763.78,492.182,763.78C510.936,762.075,527.984,748.436,529.689,731.388C529.689,731.388,594.474,218.223,594.474,218.223C594.474,218.223,729.159,248.911,729.159,248.911C729.159,248.911,650.735,750.141,650.735,750.141C650.735,750.141,666.078,748.436,666.078,748.436C666.078,748.436,689.947,746.732,689.947,746.732C689.947,746.732,734.273,743.322,734.273,743.322C749.617,741.617,763.256,729.683,764.961,714.339C764.961,714.339,845.089,271.074,845.089,271.074C845.089,271.074,947.381,293.237,947.381,293.237C947.381,293.237,858.728,733.093,858.728,733.093C848.499,787.648,797.353,837.089,742.797,843.909C742.797,843.909,267.14,910.399,267.14,910.399C251.796,912.104,234.747,906.989,222.813,896.76C210.879,886.531,204.06,869.482,205.765,854.138C205.765,854.138,250.091,63.08,250.091,63.08C250.091,63.08,251.796,17.049,251.796,17.049C251.796,17.049,253.501,0,253.501,0C115.407,32.392,14.819,139.799,13.115,286.418C13.115,286.418,8,799.582,8,799.582C8,862.662,31.868,913.808,72.785,951.316C108.587,985.413,158.028,1009.281,214.289,1017.805C258.615,1026.33,308.057,1026.33,357.498,1016.1C357.498,1016.1,724.044,944.496,724.044,944.496C828.041,924.038,921.808,830.27,943.972,727.978C943.972,727.978,1010.462,424.512,1010.462,424.512C1024.1,361.432,1015.576,294.942,988.298,242.091C988.298,242.091,988.298,242.091,988.298,242.091" class="mai-logo"/><glyph unicode="&#x0051;" d="M512.197,1024C320.563,1024,165.5,868.937,165.5,677.303C165.5,412.526,512.197,0,512.197,0C512.197,0,858.894,412.526,858.894,677.303C858.894,868.937,703.831,1024,512.197,1024C512.197,1024,512.197,1024,512.197,1024M512.197,528.091C430.277,528.091,362.986,593.92,362.986,677.303C362.986,759.223,428.814,826.514,512.197,826.514C595.58,826.514,661.409,760.686,661.409,677.303C661.409,595.383,594.117,528.091,512.197,528.091C512.197,528.091,512.197,528.091,512.197,528.091" class="mai-map"/><glyph unicode="&#x0052;" d="M902.595,536.881C902.595,536.881,829.452,536.881,829.452,536.881C829.452,536.881,829.452,731.929,829.452,731.929C829.452,785.567,785.567,829.452,731.929,829.452C731.929,829.452,536.881,829.452,536.881,829.452C536.881,829.452,536.881,902.595,536.881,902.595C536.881,970.862,483.243,1024.5,414.976,1024.5C346.71,1024.5,293.071,970.862,293.071,902.595C293.071,902.595,293.071,829.452,293.071,829.452C293.071,829.452,98.024,829.452,98.024,829.452C44.386,829.452,0.5,785.567,0.5,731.929C0.5,731.929,0.5,546.633,0.5,546.633C0.5,546.633,73.643,546.633,73.643,546.633C146.786,546.633,205.3,488.119,205.3,414.976C205.3,341.833,146.786,283.319,73.643,283.319C73.643,283.319,0.5,283.319,0.5,283.319C0.5,283.319,0.5,98.024,0.5,98.024C0.5,44.386,44.386,0.5,98.024,0.5C98.024,0.5,283.319,0.5,283.319,0.5C283.319,0.5,283.319,73.643,283.319,73.643C283.319,146.786,341.833,205.3,414.976,205.3C488.119,205.3,546.633,146.786,546.633,73.643C546.633,73.643,546.633,0.5,546.633,0.5C546.633,0.5,731.929,0.5,731.929,0.5C785.567,0.5,829.452,44.386,829.452,98.024C829.452,98.024,829.452,293.071,829.452,293.071C829.452,293.071,902.595,293.071,902.595,293.071C970.862,293.071,1024.5,346.71,1024.5,414.976C1024.5,483.243,970.862,536.881,902.595,536.881C902.595,536.881,902.595,536.881,902.595,536.881" class="mai-market"/><glyph unicode="&#x0053;" d="M848.339,887.709C848.339,887.709,168.428,887.709,168.428,887.709C168.428,887.709,0,573.586,0,573.586C0,521.921,44.432,480.589,99.197,480.589C106.43,480.589,112.63,481.622,119.863,482.655C119.863,482.655,119.863,146.833,119.863,146.833C119.863,140.633,123.996,136.5,130.196,136.5C130.196,136.5,873.138,136.5,873.138,136.5C879.338,136.5,883.471,140.633,883.471,146.833C883.471,146.833,883.471,476.456,883.471,476.456C893.804,473.356,905.171,471.289,916.537,471.289C976.468,471.289,1024,516.754,1024,573.586C1024,573.586,848.339,887.709,848.339,887.709C848.339,887.709,848.339,887.709,848.339,887.709M771.875,279.095C771.875,279.095,229.393,279.095,229.393,279.095C224.226,279.095,219.06,284.262,219.06,289.428C219.06,289.428,219.06,515.721,219.06,515.721C237.659,494.022,264.525,480.589,295.524,480.589C327.556,480.589,356.488,495.055,374.054,517.788C384.387,530.187,404.02,530.187,414.353,517.788C431.919,495.055,460.852,480.589,492.884,480.589C523.883,480.589,551.782,494.022,570.381,515.721C580.714,528.121,601.38,529.154,610.68,515.721C630.313,488.855,662.345,471.289,699.544,471.289C732.609,471.289,762.575,485.755,782.208,507.455C782.208,507.455,782.208,289.428,782.208,289.428C782.208,283.229,777.041,279.095,771.875,279.095C771.875,279.095,771.875,279.095,771.875,279.095" class="mai-market2"/><glyph unicode="&#x0054;" d="M512,623.609C574.33,623.609,623.304,574.635,623.304,512.304C623.304,449.974,574.33,401,512,401C449.67,401,400.696,449.974,400.696,512.304C400.696,574.635,449.67,623.609,512,623.609C512,623.609,512,623.609,512,623.609M801.391,512.304C801.391,449.974,850.365,401,912.696,401C975.026,401,1024,449.974,1024,512.304C1024,574.635,975.026,623.609,912.696,623.609C850.365,623.609,801.391,574.635,801.391,512.304C801.391,512.304,801.391,512.304,801.391,512.304M222.609,512.304C222.609,574.635,173.635,623.609,111.304,623.609C48.974,623.609,0,574.635,0,512.304C0,449.974,48.974,401,111.304,401C173.635,401,222.609,449.974,222.609,512.304C222.609,512.304,222.609,512.304,222.609,512.304" class="mai-options"/><glyph unicode="&#x0055;" d="M623.609,512C623.609,449.67,574.635,400.696,512.304,400.696C449.974,400.696,401,449.67,401,512C401,574.33,449.974,623.304,512.304,623.304C574.635,623.304,623.609,574.33,623.609,512C623.609,512,623.609,512,623.609,512M512.304,222.609C449.974,222.609,401,173.635,401,111.304C401,48.974,449.974,0,512.304,0C574.635,0,623.609,48.974,623.609,111.304C623.609,173.635,574.635,222.609,512.304,222.609C512.304,222.609,512.304,222.609,512.304,222.609M512.304,801.391C574.635,801.391,623.609,850.365,623.609,912.696C623.609,975.026,574.635,1024,512.304,1024C449.974,1024,401,975.026,401,912.696C401,850.365,449.974,801.391,512.304,801.391C512.304,801.391,512.304,801.391,512.304,801.391" class="mai-optionsv"/><glyph unicode="&#x0056;" d="M534.889,574.578C404.044,608.711,364.222,642.844,364.222,694.044C364.222,756.622,421.111,802.133,517.822,802.133C620.222,802.133,654.356,750.933,660.044,682.667C660.044,682.667,785.2,682.667,785.2,682.667C779.511,779.378,722.622,870.4,603.156,898.844C603.156,898.844,603.156,1024,603.156,1024C603.156,1024,432.489,1024,432.489,1024C432.489,1024,432.489,898.844,432.489,898.844C324.4,876.089,233.378,802.133,233.378,694.044C233.378,563.2,341.467,494.933,500.756,460.8C642.978,426.667,671.422,375.467,671.422,324.267C671.422,284.444,642.978,221.867,517.822,221.867C398.356,221.867,352.844,273.067,347.156,341.333C347.156,341.333,222,341.333,222,341.333C227.689,216.178,324.4,147.911,432.489,125.156C432.489,125.156,432.489,0,432.489,0C432.489,0,603.156,0,603.156,0C603.156,0,603.156,119.467,603.156,119.467C716.933,142.222,802.267,204.8,802.267,318.578C802.267,483.556,665.733,540.444,534.889,574.578C534.889,574.578,534.889,574.578,534.889,574.578" class="mai-order"/><glyph unicode="&#x0057;" d="M128,1024C128,1024,128,0,128,0C128,0,896,0,896,0C896,0,896,805.44,896,805.44C896,805.44,678.4,1024,678.4,1024C678.4,1024,128,1024,128,1024C128,1024,128,1024,128,1024" class="mai-page"/><glyph unicode="&#x0058;" d="M0,985.7C0,985.7,0,815.033,0,815.033C0,815.033,1024,815.033,1024,815.033C1024,815.033,1024,985.7,1024,985.7C1024,985.7,0,985.7,0,985.7M0,729.7C0,729.7,0,559.033,0,559.033C0,559.033,1024,559.033,1024,559.033C1024,559.033,1024,729.7,1024,729.7C1024,729.7,0,729.7,0,729.7M0,465.167C0,465.167,0,294.5,0,294.5C0,294.5,1024,294.5,1024,294.5C1024,294.5,1024,465.167,1024,465.167C1024,465.167,0,465.167,0,465.167M0,209.167C0,209.167,0,38.5,0,38.5C0,38.5,682.667,38.5,682.667,38.5C682.667,38.5,682.667,209.167,682.667,209.167C682.667,209.167,0,209.167,0,209.167" class="mai-post"/><glyph unicode="&#x0059;" d="M910.222,1024C910.222,1024,113.778,1024,113.778,1024C51.2,1024,0,972.8,0,910.222C0,910.222,0,113.778,0,113.778C0,51.2,51.2,0,113.778,0C113.778,0,910.222,0,910.222,0C972.8,0,1024,51.2,1024,113.778C1024,113.778,1024,910.222,1024,910.222C1024,972.8,972.8,1024,910.222,1024C910.222,1024,910.222,1024,910.222,1024M910.222,341.333C910.222,341.333,682.667,341.333,682.667,341.333C682.667,244.622,603.022,170.667,512,170.667C415.289,170.667,341.333,244.622,341.333,341.333C341.333,341.333,113.778,341.333,113.778,341.333C113.778,341.333,113.778,910.222,113.778,910.222C113.778,910.222,910.222,910.222,910.222,910.222C910.222,910.222,910.222,341.333,910.222,341.333C910.222,341.333,910.222,341.333,910.222,341.333" class="mai-product"/><glyph unicode="&#x005a;" d="M965.939,576.172C930.67,587.549,902.228,614.853,889.713,650.122C877.199,684.252,880.612,721.796,899.953,753.652C920.431,787.782,917.018,828.739,891.989,857.181C891.989,857.181,888.576,861.732,888.576,861.732C863.547,889.037,821.452,897.001,788.459,879.935C755.466,862.87,716.784,862.87,682.654,877.66C648.523,893.588,624.631,923.168,616.668,959.574C608.704,995.98,575.711,1023.284,538.167,1024.422C538.167,1024.422,532.478,1024.422,532.478,1024.422C494.935,1025.56,460.804,1001.668,448.289,966.4C436.912,931.131,409.608,902.689,374.339,890.175C340.209,877.66,302.665,881.073,270.809,900.414C236.679,920.892,195.722,917.479,167.28,892.45C167.28,892.45,162.729,889.037,162.729,889.037C135.424,864.008,127.46,821.913,144.526,788.92C161.591,755.927,161.591,717.245,146.801,683.115C130.873,648.984,101.293,625.092,64.887,617.129C28.481,609.165,1.177,576.172,0.039,538.628C0.039,538.628,0.039,532.939,0.039,532.939C-1.099,495.396,22.793,461.265,58.061,448.75C93.33,437.373,121.772,410.069,134.287,374.8C146.801,340.67,143.388,303.126,124.047,271.271C103.569,237.14,106.982,196.183,132.011,167.741C132.011,167.741,135.424,163.19,135.424,163.19C160.453,135.885,202.548,127.921,235.541,144.987C268.534,162.052,307.216,162.052,341.346,147.262C375.477,131.334,399.369,101.755,407.332,65.348C415.296,28.942,448.289,1.638,485.833,0.5C485.833,0.5,491.522,0.5,491.522,0.5C492.659,0.5,493.797,0.5,494.935,0.5C531.341,0.5,564.334,24.392,575.711,58.522C587.088,93.791,614.392,122.233,649.661,134.748C683.791,147.262,721.335,143.849,753.191,124.508C787.321,104.03,828.278,107.443,856.72,132.472C856.72,132.472,861.271,135.885,861.271,135.885C888.576,160.914,896.54,203.009,879.474,236.002C862.409,268.995,862.409,307.677,877.199,341.807C893.127,375.938,922.707,399.83,959.113,407.793C995.519,415.757,1022.823,448.75,1023.961,486.294C1023.961,486.294,1023.961,491.983,1023.961,491.983C1025.099,529.526,1001.207,563.657,965.939,576.172C965.939,576.172,965.939,576.172,965.939,576.172M512,759.34C579.124,759.34,634.871,704.731,634.871,636.469C634.871,569.346,580.261,513.599,512,513.599C444.876,513.599,389.129,568.208,389.129,636.469C389.129,703.593,444.876,759.34,512,759.34C512,759.34,512,759.34,512,759.34M716.784,286.06C716.784,286.06,716.784,286.06,716.784,286.06C716.784,274.684,707.683,265.582,697.444,265.582C697.444,265.582,697.444,265.582,697.444,265.582C697.444,265.582,678.103,265.582,678.103,265.582C678.103,265.582,348.172,265.582,348.172,265.582C348.172,265.582,328.832,265.582,328.832,265.582C317.455,265.582,309.491,274.684,309.491,284.923C309.491,284.923,309.491,284.923,309.491,284.923C309.491,284.923,309.491,314.503,309.491,314.503C309.491,397.554,375.477,465.816,458.529,468.091C460.804,468.091,461.942,468.091,464.217,468.091C464.217,468.091,564.334,468.091,564.334,468.091C566.609,468.091,567.747,468.091,570.022,468.091C653.074,464.678,719.06,397.554,719.06,314.503C719.06,314.503,716.784,286.06,716.784,286.06C716.784,286.06,716.784,286.06,716.784,286.06C716.784,286.06,716.784,286.06,716.784,286.06" class="mai-setting"/><glyph unicode="&#x0061;" d="M1024,233.091C1024,233.091,1024,791.636,1024,791.636C1024,842.836,982.109,884.727,930.909,884.727C930.909,884.727,93.091,884.727,93.091,884.727C41.891,884.727,0,842.836,0,791.636C0,791.636,0,233.091,0,233.091C0,181.891,41.891,140,93.091,140C93.091,140,930.909,140,930.909,140C982.109,140,1024,181.891,1024,233.091C1024,233.091,1024,233.091,1024,233.091M349.091,489.091C349.091,489.091,465.455,349.455,465.455,349.455C465.455,349.455,628.364,558.909,628.364,558.909C628.364,558.909,837.818,279.636,837.818,279.636C837.818,279.636,186.182,279.636,186.182,279.636C186.182,279.636,349.091,489.091,349.091,489.091C349.091,489.091,349.091,489.091,349.091,489.091" class="mai-image"/><glyph unicode="&#x0062;" d="M256.404,768.213C256.404,571.252,469.658,448.077,640.261,546.6C719.421,592.322,768.213,676.77,768.213,768.213C768.213,965.174,554.96,1088.35,384.357,989.826C305.197,944.105,256.404,859.656,256.404,768.213M0.5,85.801C0.5,256.404,341.706,350.236,512.309,350.236C682.912,350.236,1024.118,256.404,1024.118,85.801C1024.118,85.801,1024.118,0.5,1024.118,0.5C1024.118,0.5,0.5,0.5,0.5,0.5C0.5,0.5,0.5,85.801,0.5,85.801C0.5,85.801,0.5,85.801,0.5,85.801" class="mai-user"/><glyph unicode="&#x0063;" d="M512,1024C230.4,1024,0,793.6,0,512C0,230.4,230.4,0,512,0C793.6,0,1024,230.4,1024,512C1024,793.6,793.6,1024,512,1024C512,1024,512,1024,512,1024M512,870.4C599.04,870.4,665.6,803.84,665.6,716.8C665.6,629.76,599.04,563.2,512,563.2C424.96,563.2,358.4,629.76,358.4,716.8C358.4,803.84,424.96,870.4,512,870.4C512,870.4,512,870.4,512,870.4M512,143.36C384,143.36,271.36,209.92,204.8,307.2C204.8,409.6,409.6,465.92,512,465.92C614.4,465.92,819.2,409.6,819.2,307.2C752.64,209.92,640,143.36,512,143.36C512,143.36,512,143.36,512,143.36" class="mai-user2"/><glyph unicode="&#x0064;" d="M295.77,807.407C295.77,640.951,475.995,536.854,620.174,620.117C687.074,658.758,728.309,730.127,728.309,807.407C728.309,973.863,548.084,1077.961,403.905,994.697C337.005,956.057,295.77,884.688,295.77,807.407M512.04,0C331.815,0,173.217,93.717,79.5,230.688C79.5,374.868,367.86,454.167,512.04,454.167C656.219,454.167,944.579,374.868,944.579,230.688C850.862,93.717,692.264,0,512.04,0C512.04,0,512.04,0,512.04,0" class="mai-user3"/><glyph unicode="&#x0065;" d="M15.5,921.6C15.5,977.92,61.58,1024,112.78,1024C112.78,1024,911.5,1024,911.5,1024C967.82,1024,1008.78,977.92,1008.78,921.6C1008.78,921.6,1008.78,307.2,1008.78,307.2C1008.78,250.88,962.7,204.8,911.5,204.8C911.5,204.8,215.18,204.8,215.18,204.8C215.18,204.8,15.5,0,15.5,0C15.5,0,15.5,921.6,15.5,921.6C15.5,921.6,15.5,921.6,15.5,921.6M215.18,460.8C215.18,460.8,609.42,460.8,609.42,460.8C609.42,460.8,609.42,563.2,609.42,563.2C609.42,563.2,215.18,563.2,215.18,563.2C215.18,563.2,215.18,460.8,215.18,460.8C215.18,460.8,215.18,460.8,215.18,460.8M215.18,665.6C215.18,665.6,814.22,665.6,814.22,665.6C814.22,665.6,814.22,768,814.22,768C814.22,768,215.18,768,215.18,768C215.18,768,215.18,665.6,215.18,665.6C215.18,665.6,215.18,665.6,215.18,665.6" class="mai-comment2"/><glyph unicode="&#x0066;" d="M36.79,901.865C36.79,901.865,122.635,987.71,122.635,987.71C171.689,1036.763,245.269,1036.763,294.323,987.71C294.323,987.71,987.21,294.823,987.21,294.823C1036.263,245.769,1036.263,172.189,987.21,123.135C987.21,123.135,901.365,37.29,901.365,37.29C852.311,-11.763,778.731,-11.763,729.677,37.29C729.677,37.29,36.79,730.177,36.79,730.177C-12.263,773.099,-12.263,852.811,36.79,901.865C36.79,901.865,36.79,901.865,36.79,901.865M36.79,294.823C36.79,294.823,729.677,987.71,729.677,987.71C778.731,1036.763,852.311,1036.763,901.365,987.71C901.365,987.71,987.21,901.865,987.21,901.865C1036.263,852.811,1036.263,779.231,987.21,730.177C987.21,730.177,294.323,37.29,294.323,37.29C245.269,-11.763,171.689,-11.763,122.635,37.29C122.635,37.29,36.79,123.135,36.79,123.135C-12.263,166.057,-12.263,245.769,36.79,294.823C36.79,294.823,36.79,294.823,36.79,294.823" class="mai-close"/><glyph unicode="&#x0067;" d="M933.794,662.588C933.794,662.588,692.853,662.588,692.853,662.588C692.853,662.588,692.853,1024,692.853,1024C692.853,1024,331.441,1024,331.441,1024C331.441,1024,331.441,662.588,331.441,662.588C331.441,662.588,90.5,662.588,90.5,662.588C90.5,662.588,512.147,240.941,512.147,240.941C512.147,240.941,933.794,662.588,933.794,662.588C933.794,662.588,933.794,662.588,933.794,662.588M90.5,120.471C90.5,120.471,90.5,0,90.5,0C90.5,0,933.794,0,933.794,0C933.794,0,933.794,120.471,933.794,120.471C933.794,120.471,90.5,120.471,90.5,120.471C90.5,120.471,90.5,120.471,90.5,120.471" class="mai-download2"/><glyph unicode="&#x0068;" d="M378.88,276.68C378.88,276.68,143.36,512.2,143.36,512.2C143.36,512.2,378.88,747.72,378.88,747.72C378.88,747.72,307.2,819.4,307.2,819.4C307.2,819.4,0,512.2,0,512.2C0,512.2,307.2,205,307.2,205C307.2,205,378.88,276.68,378.88,276.68C378.88,276.68,378.88,276.68,378.88,276.68M645.12,276.68C645.12,276.68,880.64,512.2,880.64,512.2C880.64,512.2,645.12,747.72,645.12,747.72C645.12,747.72,716.8,819.4,716.8,819.4C716.8,819.4,1024,512.2,1024,512.2C1024,512.2,716.8,205,716.8,205C716.8,205,645.12,276.68,645.12,276.68C645.12,276.68,645.12,276.68,645.12,276.68" class="mai-code"/><glyph unicode="&#x0069;" d="M436.896,152.988C438.936,152.988,438.936,152.988,436.896,152.988C465.454,152.988,487.892,177.466,487.892,203.984C487.892,203.984,477.693,701.705,477.693,701.705C477.693,730.263,453.215,752.701,426.697,752.701C398.139,752.701,375.701,728.223,375.701,701.705C375.701,701.705,385.9,203.984,385.9,203.984C387.94,175.426,410.378,152.988,436.896,152.988C436.896,152.988,436.896,152.988,436.896,152.988M587.845,152.988C616.402,152.988,638.841,175.426,638.841,203.984C638.841,203.984,649.04,701.705,649.04,701.705C649.04,730.263,626.602,752.701,598.044,752.701C598.044,752.701,598.044,752.701,598.044,752.701C569.486,752.701,547.048,730.263,547.048,701.705C547.048,701.705,536.849,203.984,536.849,203.984C534.809,177.466,557.247,152.988,587.845,152.988C585.805,152.988,585.805,152.988,587.845,152.988C587.845,152.988,587.845,152.988,587.845,152.988M787.749,752.701C759.191,752.701,736.753,732.303,734.713,703.745C734.713,703.745,714.315,108.112,714.315,108.112C714.315,104.032,712.275,101.992,708.195,101.992C708.195,101.992,314.506,101.992,314.506,101.992C310.426,101.992,308.386,104.032,308.386,110.151C308.386,110.151,287.988,703.745,287.988,703.745C287.988,732.303,263.51,752.701,234.952,752.701C206.394,752.701,183.956,728.223,185.996,699.665C185.996,699.665,206.394,108.112,206.394,108.112C206.394,48.956,255.351,0,314.506,0C314.506,0,708.195,0,708.195,0C767.351,0,816.307,48.956,816.307,106.072C816.307,106.072,836.705,699.665,836.705,699.665C838.745,728.223,816.307,750.661,787.749,752.701C787.749,752.701,787.749,752.701,787.749,752.701M838.745,895.49C838.745,895.49,718.394,895.49,718.394,895.49C687.797,973.004,608.243,1024,512.371,1024C416.498,1024,336.944,973.004,306.347,895.49C306.347,895.49,185.996,895.49,185.996,895.49C157.438,895.49,135,873.052,135,844.494C135,815.936,157.438,793.498,185.996,793.498C185.996,793.498,679.637,793.498,679.637,793.498C679.637,793.498,679.637,793.498,679.637,793.498C679.637,793.498,679.637,793.498,679.637,793.498C679.637,793.498,838.745,793.498,838.745,793.498C867.303,793.498,889.741,815.936,889.741,844.494C889.741,873.052,867.303,895.49,838.745,895.49C838.745,895.49,838.745,895.49,838.745,895.49M428.737,895.49C449.135,911.809,477.693,922.008,512.371,922.008C547.048,922.008,573.566,911.809,596.004,895.49C596.004,895.49,428.737,895.49,428.737,895.49C428.737,895.49,428.737,895.49,428.737,895.49" class="mai-bin2"/><glyph unicode="&#x006a;" d="M970.616,793.958C970.616,793.958,1024,740.574,1024,740.574C1024,740.574,512,231,512,231C512,231,0,740.574,0,740.574C0,740.574,53.384,793.958,53.384,793.958C53.384,793.958,512,332.915,512,332.915C512,332.915,970.616,793.958,970.616,793.958" class="mai-cd"/><glyph unicode="&#x006b;" d="M970.616,231C970.616,231,1024,284.384,1024,284.384C1024,284.384,512,793.957,512,793.957C512,793.957,0,284.384,0,284.384C0,284.384,53.384,231,53.384,231C53.384,231,512,692.043,512,692.043C512,692.043,970.616,231,970.616,231" class="mai-cu"/><glyph unicode="&#x006c;" d="M512,1024C230.4,1024,0,793.6,0,512C0,230.4,230.4,0,512,0C793.6,0,1024,230.4,1024,512C1024,793.6,793.6,1024,512,1024C512,1024,512,1024,512,1024M704,448C704,448,576,448,576,448C576,448,576,320,576,320C576,320,448,320,448,320C448,320,448,448,448,448C448,448,320,448,320,448C320,448,320,576,320,576C320,576,448,576,448,576C448,576,448,704,448,704C448,704,576,704,576,704C576,704,576,576,576,576C576,576,704,576,704,576C704,576,704,448,704,448C704,448,704,448,704,448" class="mai-plus"/><glyph unicode="&#x006d;" d="M312.7,204.8C256.38,204.8,210.3,158.72,210.3,102.4C210.3,46.08,256.38,0,312.7,0C369.02,0,415.1,46.08,415.1,102.4C415.1,158.72,369.02,204.8,312.7,204.8C312.7,204.8,312.7,204.8,312.7,204.8M5.5,1024C5.5,1024,5.5,921.6,5.5,921.6C5.5,921.6,107.9,921.6,107.9,921.6C107.9,921.6,292.22,532.48,292.22,532.48C292.22,532.48,220.54,404.48,220.54,404.48C210.3,389.12,205.18,373.76,205.18,353.28C205.18,296.96,251.26,250.88,307.58,250.88C307.58,250.88,921.98,250.88,921.98,250.88C921.98,250.88,921.98,353.28,921.98,353.28C921.98,353.28,328.06,353.28,328.06,353.28C322.94,353.28,312.7,358.4,312.7,368.64C312.7,368.64,312.7,373.76,312.7,373.76C312.7,373.76,358.78,455.68,358.78,455.68C358.78,455.68,737.66,455.68,737.66,455.68C778.62,455.68,809.34,476.16,829.82,506.88C829.82,506.88,1014.14,839.68,1014.14,839.68C1019.26,844.8,1019.26,855.04,1019.26,865.28C1019.26,890.88,993.66,916.48,968.06,916.48C968.06,916.48,210.3,916.48,210.3,916.48C210.3,916.48,164.22,1018.88,164.22,1018.88C164.22,1018.88,5.5,1018.88,5.5,1018.88C5.5,1018.88,5.5,1024,5.5,1024M824.7,204.8C768.38,204.8,722.3,158.72,722.3,102.4C722.3,46.08,768.38,0,824.7,0C881.02,0,927.1,46.08,927.1,102.4C927.1,158.72,881.02,204.8,824.7,204.8C824.7,204.8,824.7,204.8,824.7,204.8" class="mai-shop"/><glyph unicode="&#x006e;" d="M848.272,646.321C816.667,677.926,767.679,677.926,736.074,646.321C704.469,614.716,704.469,565.728,736.074,534.123C736.074,534.123,813.506,456.691,813.506,456.691C846.691,423.506,864.074,380.84,864.074,333.432C864.074,286.025,846.691,243.358,813.506,210.173C780.321,176.988,737.654,159.605,690.247,159.605C642.84,159.605,600.173,176.988,566.988,210.173C566.988,210.173,487.975,287.605,487.975,287.605C456.37,319.21,407.383,319.21,375.778,287.605C344.173,256,344.173,207.012,375.778,175.407C375.778,175.407,453.21,97.975,453.21,97.975C516.42,34.765,598.593,0,687.086,0C775.58,0,859.333,34.765,920.963,97.975C984.173,161.185,1018.938,243.358,1018.938,331.852C1018.938,420.346,984.173,504.099,920.963,565.728C920.963,565.728,848.272,646.321,848.272,646.321C848.272,646.321,848.272,646.321,848.272,646.321M211.432,567.309C178.247,600.494,160.864,643.16,160.864,690.568C160.864,737.975,178.247,780.642,211.432,813.827C244.617,847.012,287.284,864.395,334.691,864.395C382.099,864.395,424.765,847.012,457.951,813.827C457.951,813.827,536.963,734.815,536.963,734.815C568.568,703.21,617.556,703.21,649.16,734.815C680.765,766.42,680.765,815.407,649.16,847.012C649.16,847.012,571.728,926.025,571.728,926.025C508.519,989.235,426.346,1024,337.852,1024C249.358,1024,165.605,989.235,103.975,926.025C40.765,862.815,6,780.642,6,692.148C6,603.654,40.765,519.901,103.975,458.272C103.975,458.272,181.407,379.259,181.407,379.259C197.21,363.457,217.753,355.556,236.716,355.556C257.259,355.556,277.802,363.457,292.025,379.259C323.63,410.864,323.63,459.852,292.025,491.457C292.025,491.457,211.432,567.309,211.432,567.309C211.432,567.309,211.432,567.309,211.432,567.309M557.506,355.556C573.309,339.753,593.852,331.852,612.815,331.852C631.778,331.852,653.901,339.753,668.123,355.556C699.728,387.16,699.728,436.148,668.123,467.753C668.123,467.753,469.012,668.444,469.012,668.444C437.407,700.049,388.42,700.049,356.815,668.444C325.21,636.84,325.21,587.852,356.815,556.247C356.815,556.247,557.506,355.556,557.506,355.556C557.506,355.556,557.506,355.556,557.506,355.556" class="mai-link"/></font>
</defs>
</svg>
