<svg id="Layer_1" data-name="Layer 1" xmlns="http://www.w3.org/2000/svg" viewBox="0 0 51.82 40.12"><title>16</title><g id="_Group_" data-name="&lt;Group&gt;"><rect id="_Rectangle_" data-name="&lt;Rectangle&gt;" y="15.43" width="30.35" height="24.69" rx="12" ry="12" style="fill:#00acef"/><rect id="_Rectangle_2" data-name="&lt;Rectangle&gt;" x="21.47" width="30.35" height="24.69" rx="12" ry="12" style="fill:#316cff"/><g id="_Group_2" data-name="&lt;Group&gt;"><path id="_Compound_Path_" data-name="&lt;Compound Path&gt;" d="M802.23,390.34a2.83,2.83,0,0,0-2.17-.88,16.22,16.22,0,0,0-2.41.05,2.21,2.21,0,0,1,0-.79c0.12-1.38.28-2.39,0.4-3.2l0-.07a1.58,1.58,0,0,0-1.17-1.84,1.82,1.82,0,0,0-2.17,1c-0.05.12-.1,0.28-0.17,0.46-0.48,1.27-1.56,4.18-3.32,5.23v-0.15a0.39,0.39,0,0,0-.4-0.4h-4.13a0.39,0.39,0,0,0-.4.4v8.6a0.39,0.39,0,0,0,.4.4h4.13a0.39,0.39,0,0,0,.4-0.4v-0.09a31.44,31.44,0,0,0,7,1.19c1.24,0,2.79,0,3.21-1.94,0.34-1.53.79-3.8,1.08-5.36A2.51,2.51,0,0,0,802.23,390.34Zm-0.69,2c-0.29,1.56-.74,3.8-1.08,5.33-0.22,1-.67,1.13-2.22,1.13a31.48,31.48,0,0,1-6.82-1.17,0.27,0.27,0,0,1-.21-0.24v-5.79a0.26,0.26,0,0,1,.14-0.24c2.3-1.07,3.54-4.37,4.13-5.95,0.07-.17.12-0.33,0.17-0.43a0.75,0.75,0,0,1,.7-0.41,1,1,0,0,1,.24,0,0.56,0.56,0,0,1,.43.7l0,0.07c-0.12.83-.29,1.84-0.41,3.27a2.08,2.08,0,0,0,.34,1.65,0.86,0.86,0,0,0,.67.24,13.77,13.77,0,0,1,2.36-.07,2,2,0,0,1,1.43.48A1.6,1.6,0,0,1,801.54,392.35Z" transform="translate(-757.81 -379.34)" style="fill:#fff"/></g><path id="_Compound_Path_2" data-name="&lt;Compound Path&gt;" d="M770.66,414a12.36,12.36,0,0,1-5.68-1.52,0.6,0.6,0,0,1-.26-0.71,0.59,0.59,0,0,1,.64-0.39,5,5,0,0,0,3.48-.72c-1.56-1.18-5-4.5-2.9-9.44a0.6,0.6,0,0,1,.5-0.36,0.61,0.61,0,0,1,.55.28,7.4,7.4,0,0,0,5.3,2.82,3.72,3.72,0,0,1,3.71-3.7,3.67,3.67,0,0,1,2.45.93c1-.1,1.76-0.13,1.79-0.13a0.66,0.66,0,0,1,.23,0,0.61,0.61,0,0,1,.42,0,0.6,0.6,0,0,1,.35.77,7.41,7.41,0,0,1-1.41,2.4c0.19,1.72-.24,4.26-3,7.1A8.34,8.34,0,0,1,770.66,414Zm-2.82-1.59a7.75,7.75,0,0,0,8.14-1.87c2.61-2.69,2.87-5,2.63-6.43a0.6,0.6,0,0,1,.28-0.61,3.42,3.42,0,0,0,.87-1.22c-0.36,0-.88.06-1.44,0.13a0.61,0.61,0,0,1-.5-0.18A2.51,2.51,0,0,0,773.5,404a2.32,2.32,0,0,0,.05.52,0.6,0.6,0,0,1-.62.73,9.41,9.41,0,0,1-6.23-2.59c-1.32,4.65,3.22,7.34,3.43,7.46a0.6,0.6,0,0,1,.15.91A5.3,5.3,0,0,1,767.84,412.39Z" transform="translate(-757.81 -379.34)" style="fill:#fff"/></g></svg>