<?xml version="1.0" encoding="utf-8"?>
<!-- Generator: Adobe Illustrator 23.0.3, SVG Export Plug-In . SVG Version: 6.00 Build 0)  -->
<svg version="1.1" id="Layer_1" xmlns="http://www.w3.org/2000/svg" xmlns:xlink="http://www.w3.org/1999/xlink" x="0px" y="0px"
	 viewBox="0 0 36 36" style="enable-background:new 0 0 36 36;" xml:space="preserve">
<style type="text/css">
	.st0{fill:#2B2B2B;}
</style>
<g>
	<path class="st0" d="M20.7,6.1c0.6,0,1.1,0.2,1.6,0.7c0.4,0.4,0.7,1,0.7,1.6v4.5h4.5c0.6,0,1.1,0.2,1.6,0.7c0.4,0.4,0.7,1,0.7,1.6
		v12.4c0,0.6-0.2,1.1-0.7,1.6c-0.4,0.4-1,0.7-1.6,0.7H15.1c-0.6,0-1.2-0.2-1.6-0.7c-0.4-0.4-0.7-1-0.7-1.6V23H8.3
		c-0.6,0-1.2-0.2-1.6-0.7S6,21.4,6,20.8V8.4c0-0.6,0.2-1.2,0.7-1.6c0.4-0.4,1-0.7,1.6-0.7H20.7z M8.3,20.8h6.8v6.8h12.4V15.2h-6.8
		V8.4H8.3V20.8z"/>
</g>
<g>
	<path class="st0" d="M24.6,20.8l0,0.2c0,0.8-0.2,1.5-0.5,2.2c-0.4,0.8-0.9,1.3-1.6,1.8c-0.8,0.5-1.6,0.7-2.6,0.7
		c-0.9,0-1.8-0.2-2.5-0.7c0.1,0,0.3,0,0.4,0c0.8,0,1.5-0.2,2-0.7c-0.4,0-0.7-0.1-1-0.3c-0.3-0.2-0.5-0.5-0.6-0.8c0.1,0,0.2,0,0.3,0
		c0.2,0,0.3,0,0.4-0.1c-0.4-0.1-0.7-0.3-0.9-0.6c-0.3-0.3-0.4-0.7-0.4-1.1v0c0.2,0.1,0.5,0.2,0.7,0.2c-0.2-0.1-0.4-0.3-0.5-0.6
		c-0.1-0.2-0.2-0.5-0.2-0.8c0-0.3,0.1-0.6,0.2-0.8c0.4,0.5,0.9,0.9,1.5,1.2s1.2,0.5,1.9,0.5c0-0.1-0.1-0.3-0.1-0.4
		c0-0.5,0.2-0.9,0.5-1.2s0.7-0.5,1.2-0.5c0.5,0,0.9,0.2,1.2,0.5c0.4-0.1,0.7-0.2,1.1-0.4c-0.1,0.4-0.4,0.7-0.7,0.9
		c0.3,0,0.7-0.1,0.9-0.3C25.2,20.3,24.9,20.6,24.6,20.8z"/>
</g>
<g>
	<path class="st0" d="M16.3,10.9c0.6,0.3,1.1,0.8,1.4,1.4c0.3,0.6,0.5,1.2,0.5,1.9c0,0.6-0.1,1.2-0.4,1.8c-0.3,0.6-0.7,1-1.2,1.4
		c-0.5,0.4-1.1,0.6-1.7,0.7v-2.7h0.9l0.2-1.1H15v-0.7c0-0.2,0-0.3,0.1-0.4c0.1-0.1,0.3-0.2,0.5-0.2h0.5v-1c-0.3,0-0.6-0.1-0.9-0.1
		c-0.4,0-0.8,0.1-1.1,0.4c-0.3,0.3-0.4,0.6-0.4,1.1v0.9h-1v1.1h1v2.7c-0.6-0.1-1.2-0.3-1.7-0.7c-0.5-0.4-0.9-0.8-1.2-1.4
		c-0.3-0.5-0.4-1.1-0.4-1.8c0-0.7,0.2-1.3,0.5-1.9s0.8-1.1,1.4-1.4c0.6-0.3,1.2-0.5,1.9-0.5C15.1,10.4,15.7,10.6,16.3,10.9z"/>
</g>
</svg>
