<?xml version="1.0" encoding="utf-8"?>
<!-- Generator: Adobe Illustrator 23.0.3, SVG Export Plug-In . SVG Version: 6.00 Build 0)  -->
<svg version="1.1" id="Layer_1" xmlns="http://www.w3.org/2000/svg" xmlns:xlink="http://www.w3.org/1999/xlink" x="0px" y="0px"
	 viewBox="0 0 36 36" style="enable-background:new 0 0 36 36;" xml:space="preserve">
<style type="text/css">
	.st0{fill:#2B2B2B;}
	.st1{font-family:'MaterialDesignIcons';}
	.st2{font-size:9.287px;}
</style>
<g>
	<path class="st0" d="M20.7,6.1c0.6,0,1.1,0.2,1.6,0.7c0.4,0.4,0.7,1,0.7,1.6v4.5h4.5c0.6,0,1.1,0.2,1.6,0.7c0.4,0.4,0.7,1,0.7,1.6
		v12.4c0,0.6-0.2,1.1-0.7,1.6c-0.4,0.4-1,0.7-1.6,0.7H15.1c-0.6,0-1.2-0.2-1.6-0.7c-0.4-0.4-0.7-1-0.7-1.6V23H8.3
		c-0.6,0-1.2-0.2-1.6-0.7S6,21.4,6,20.8V8.4c0-0.6,0.2-1.2,0.7-1.6c0.4-0.4,1-0.7,1.6-0.7H20.7z M8.3,20.8h6.8v6.8h12.4V15.2h-6.8
		V8.4H8.3V20.8z"/>
</g>
<text transform="matrix(1 0 0 1 16.7134 25.7373)" class="st0 st1 st2">í®íµ„</text>
<text transform="matrix(1 0 0 1 9.7134 17.7373)" class="st0 st1 st2">í®€í¸Œ</text>
</svg>
