<?xml version="1.0" encoding="utf-8"?>
<!-- Generator: Adobe Illustrator 25.4.1, SVG Export Plug-In . SVG Version: 6.00 Build 0)  -->
<svg version="1.1" xmlns="http://www.w3.org/2000/svg" xmlns:xlink="http://www.w3.org/1999/xlink" x="0px" y="0px"
	 viewBox="0 0 24 24" style="enable-background:new 0 0 24 24;" xml:space="preserve">
<style type="text/css">
	.st0{fill:#2B2B2B;}
</style>
<g>
	<path d="M12.9,8.5c-0.4-0.1-0.7-0.3-0.9-0.6c-0.3-0.3-0.4-0.7-0.4-1.1l0,0C11.8,7,12,7,12.3,7
		c-0.2-0.1-0.4-0.3-0.5-0.6c-0.1-0.2-0.2-0.5-0.2-0.8s0.1-0.6,0.2-0.8c0.4,0.5,0.9,0.9,1.5,1.2s1.2,0.5,1.9,0.5
		c0-0.1-0.1-0.3-0.1-0.4c0-0.5,0.2-0.9,0.5-1.2s0.7-0.5,1.2-0.5s0.9,0.2,1.2,0.5c0.4-0.1,0.7-0.2,1.1-0.4c-0.1,0.4-0.4,0.7-0.7,0.9
		c0.3,0,0.7-0.1,0.9-0.3c-0.2,0.4-0.5,0.6-0.8,0.9v0.2c0,0.8-0.2,1.5-0.5,2.2c-0.4,0.8-0.9,1.3-1.6,1.8"/>
</g>
<path d="M11.1,22.8H6.9c-3.9,0-5.7-1.7-5.7-5.6V13c0-4,1.8-5.8,5.7-5.8h4.2c3.9,0,5.6,1.7,5.6,5.6V17
	C16.8,21,15,22.8,11.1,22.8z M6.9,8.8c-3.1,0-4.2,1.1-4.2,4.1v4.2c0,3.1,1,4.1,4.2,4.1h4.2c3.1,0,4.1-1,4.1-4.1v-4.2
	c0-3.1-1.1-4.1-4.1-4.1C11.1,8.8,6.9,8.8,6.9,8.8z"/>
<path d="M17.1,16.8H16c-0.4,0-0.8-0.3-0.8-0.8v-3.1c0-3.1-1.1-4.1-4.1-4.1H8C7.6,8.8,7.2,8.4,7.2,8V6.9
	C7.2,3,9,1.2,12.9,1.2h4.2c3.9,0,5.6,1.7,5.6,5.7v4.2C22.8,15,21,16.8,17.1,16.8z M16.8,15.2h0.4c3.1,0,4.1-1.1,4.1-4.1V6.9
	c0-3.1-1-4.2-4.1-4.2H13c-3.1,0-4.1,1-4.1,4.2v0.3h2.4c3.9,0,5.6,1.7,5.6,5.6v2.4H16.8z"/>
<g>
	<path d="M10.9,11.7c0.6,0.3,1.1,0.8,1.4,1.4c0.3,0.6,0.5,1.2,0.5,1.9c0,0.6-0.1,1.2-0.4,1.8c-0.3,0.6-0.7,1-1.2,1.4
		s-1.1,0.6-1.7,0.7v-2.7h0.9l0.2-1.1h-1v-0.7c0-0.2,0-0.3,0.1-0.4c0.1-0.1,0.3-0.2,0.5-0.2h0.5v-1c-0.3,0-0.6-0.1-0.9-0.1
		c-0.4,0-0.8,0.1-1.1,0.4c-0.3,0.3-0.4,0.6-0.4,1.1V15h-1v1.1h1v2.7c-0.6-0.1-1.2-0.3-1.7-0.7c-0.5-0.4-0.9-0.8-1.2-1.4
		C5.1,16.2,5,15.6,5,14.9s0.2-1.3,0.5-1.9c0.5-0.5,1-1,1.6-1.3s1.2-0.5,1.9-0.5S10.3,11.3,10.9,11.7z"/>
</g>
</svg>
