<?xml version="1.0" encoding="utf-8"?>
<!-- Generator: Adobe Illustrator 23.0.3, SVG Export Plug-In . SVG Version: 6.00 Build 0)  -->
<svg version="1.1" id="Layer_1" xmlns="http://www.w3.org/2000/svg" xmlns:xlink="http://www.w3.org/1999/xlink" x="0px" y="0px"
	 viewBox="0 0 590 230" style="enable-background:new 0 0 590 230;" xml:space="preserve">
<style type="text/css">
	.st0{fill:#BBBFC2;}
	.st1{fill:#1A2E35;}
	.st2{fill:#ECECEC;}
	.st3{fill:#E1E1E1;}
	.st4{fill:#F1F2F4;}
	.st5{fill:none;stroke:#4592FF;stroke-miterlimit:10;}
	.st6{fill:none;stroke:#BCBFC2;stroke-miterlimit:10;}
</style>
<g>
	<g>
		<path class="st0" d="M524,184.2c2,0.9,3.5,2.8,4.3,4.8c0.8,2.1,0.8,4.4,0.6,6.6c-0.5,4.3-2.9,8.6-5.5,12
			c-3.6-3.1-4.4-8.6-4.7-11.4C518.2,191.8,520.2,183.6,524,184.2"/>
	</g>
	<g>
		<path class="st0" d="M528.5,214.7c-0.6-2.4,0.4-5.1,2.3-6.7c1.8-1.6,4.4-2.3,6.9-2.2c1.1,0.1,2.4,0.4,3,1.4c0.6,0.9,0.5,2.1,0,3.1
			c-0.5,0.9-1.4,1.7-2.3,2.2C535.3,214.4,532,215.7,528.5,214.7"/>
	</g>
	<g>
		<g>
			<path class="st1" d="M522.1,230.3c0,0,0-0.3,0.1-0.9c0.1-0.7,0.3-1.5,0.5-2.5c0.4-2.1,1-5.2,2.6-8.1c1.6-2.9,3.9-5.1,5.8-6.2
				c1-0.6,1.8-0.9,2.4-1.1c0.3-0.1,0.5-0.1,0.7-0.2c0.2,0,0.2,0,0.2,0c0,0.1-1.3,0.3-3.2,1.5c-1.9,1.1-4.1,3.3-5.7,6.2
				c-1.6,2.9-2.2,5.9-2.7,8c-0.2,1.1-0.4,1.9-0.6,2.5C522.2,230,522.1,230.3,522.1,230.3z"/>
		</g>
	</g>
	<g>
		<g>
			<path class="st1" d="M522.2,190.5c0,0,0,0.1,0,0.4c0,0.3,0,0.7,0.1,1.2c0.1,1,0.1,2.5,0.2,4.3c0.1,3.7,0.2,8.7,0.2,14.4
				c0,5.6-0.2,10.7-0.3,14.4c-0.1,1.8-0.1,3.3-0.2,4.3c0,0.5-0.1,0.9-0.1,1.2c0,0.3,0,0.4-0.1,0.4c0,0,0-0.1,0-0.4
				c0-0.3,0-0.7,0-1.2c0-1.1,0.1-2.5,0.1-4.3c0.1-3.7,0.2-8.7,0.2-14.3c0-5.6,0-10.7-0.1-14.3c0-1.8-0.1-3.3-0.1-4.3
				c0-0.5,0-0.9,0-1.2C522.2,190.6,522.2,190.5,522.2,190.5z"/>
		</g>
	</g>
	<g>
		<path class="st0" d="M520.4,219.1c-0.9-5.5-4.6-10.6-9.7-13c-1.3-0.6-3-1-4-0.1c-1.1,1-0.8,2.7-0.3,4c2.2,5.6,8,9.5,13.9,9.4"/>
	</g>
	<g>
		<g>
			<path class="st1" d="M511.3,210.4c0,0,0.3,0.1,0.8,0.4c0.3,0.1,0.6,0.3,0.9,0.5c0.3,0.2,0.8,0.4,1.2,0.7c0.4,0.3,0.9,0.6,1.3,1
				c0.5,0.4,0.9,0.8,1.4,1.3c1,1,1.9,2.1,2.7,3.5c0.8,1.4,1.4,2.8,1.8,4.1c0.2,0.7,0.4,1.3,0.5,1.9c0.1,0.6,0.2,1.2,0.2,1.7
				c0.1,0.5,0,1,0.1,1.4c0,0.4,0,0.8,0,1c0,0.6-0.1,0.9-0.1,0.9c-0.1,0,0.1-1.3-0.2-3.3c-0.1-0.5-0.1-1.1-0.3-1.6
				c-0.1-0.6-0.3-1.2-0.5-1.8c-0.4-1.3-1-2.6-1.8-4c-0.8-1.3-1.7-2.5-2.7-3.5c-0.5-0.5-0.9-0.9-1.4-1.3c-0.4-0.4-0.9-0.7-1.3-1
				C512.4,211,511.3,210.5,511.3,210.4z"/>
		</g>
	</g>
</g>
<g>
	<g>
		<g>
			<path class="st2" d="M67,229.8c17.6-8.5,24.4-28.4,26.7-47c0.4-3.1,1.2-6.3,0.2-9.2c-1-2.9-4.2-5.3-7.1-4.5
				c-2.5,0.7-3.9,3.2-5.5,5.2c-2.2,2.7-5.1,4.7-8.3,5.7c-2.1,0.7-4.6,0.9-6.4-0.4c-2.4-1.9-2.1-5.6-1.6-8.7
				c0.9-5.7,1.9-11.4,2.8-17.1c0.5-3.1,1-6.2,0.5-9.2c-0.5-3.1-2.2-6.1-4.9-7.4c-2.8-1.3-6.6-0.2-7.7,2.7c-0.5,1.2-0.4,2.5-0.7,3.8
				c-0.3,1.3-1.1,2.6-2.4,2.7c-1.3,0.2-2.4-0.9-3.1-1.9c-2.7-3.6-4.2-7.9-5.5-12.2c-1.4-4.3-2.7-8.6-5-12.5
				c-2.3-3.8-5.9-7.1-10.2-8.1c-4.3-0.9-9.4,1-11.2,5.1c-1.8,4.1,0,8.9,2.2,12.8c3.2,5.8,7.3,11.2,12.1,15.8c0.9,0.8,1.8,1.7,2,2.9
				c0.3,2.1-1.9,3.9-4,4.2c-2.4,0.4-4.8-0.2-7.3-0.3c-2.4-0.1-5.2,0.5-6.4,2.7c-1.7,2.9,0.3,6.6,2.6,9.2c4.5,5.1,9.8,9.4,15.7,12.7
				c2.1,1.2,4.4,2.3,5.9,4.1c1.6,1.9,2.2,4.8,0.8,6.8c-1.4,2-4.4,2.2-6.6,1.4c-2.3-0.8-4.2-2.4-6.3-3.6c-3.9-2.3-9.4-2.8-12.7,0.4
				c-2.1,2.1-2.8,5.4-2.4,8.4c0.4,3,1.9,5.7,3.4,8.3c5.5,9,13.1,16.7,22.3,21.6C47.8,229.5,56.7,231.8,67,229.8"/>
		</g>
	</g>
	<g>
		<g>
			<g>
				<path class="st3" d="M64.5,230.8c0.5-7.4,0.8-3.6-0.4-13.3c-1.2-9.7-3.5-20.3-6.2-31.2c-0.7-2.7-1.4-5.4-2-8.1
					c-0.7-2.7-1.3-5.3-2.2-7.8c-1.6-5.1-3.5-9.8-5.5-14.3c-2-4.5-4-8.6-5.9-12.5c-1.9-3.9-3.8-7.5-5.7-10.7
					c-3.7-6.4-7.3-11.2-9.8-14.4c-1.3-1.6-2.3-2.8-3.1-3.6c-0.3-0.4-0.6-0.7-0.8-0.9c-0.2-0.2-0.3-0.3-0.3-0.3c0,0,0.1,0.1,0.3,0.3
					c0.2,0.2,0.5,0.6,0.8,1c0.7,0.8,1.7,2.1,3,3.7c2.5,3.2,6,8.1,9.7,14.5c1.8,3.2,3.7,6.8,5.6,10.7c1.9,3.9,3.9,8.1,5.9,12.5
					c2,4.5,3.9,9.2,5.5,14.3c0.8,2.5,1.5,5.1,2.1,7.8c0.7,2.7,1.3,5.4,2,8.1c2.7,10.9,5,21.5,6.2,31.2c1.3,9.7,1,5.8,0.5,13.2"/>
			</g>
		</g>
	</g>
	<g>
		<g>
			<g>
				<path class="st3" d="M53.5,170.3c0,0,0.2-0.4,0.5-1.3c0.3-0.8,0.7-2,1.1-3.5c0.9-3,2-7.1,3.3-11.7c1.2-4.6,2.4-8.7,3.4-11.7
					c0.5-1.5,0.9-2.7,1.2-3.5c0.3-0.8,0.4-1.3,0.4-1.3c0,0-0.2,0.4-0.6,1.2c-0.3,0.8-0.8,2-1.3,3.4c-1.1,2.9-2.3,7.1-3.5,11.6
					c-1.2,4.5-2.3,8.6-3.1,11.7c-0.4,1.4-0.7,2.6-1,3.6C53.6,169.8,53.5,170.3,53.5,170.3z"/>
			</g>
		</g>
	</g>
	<g>
		<g>
			<g>
				<path class="st3" d="M15.4,156.7c0,0,0.5,0.2,1.5,0.4c1,0.3,2.4,0.6,4.2,1.1c3.5,1,8.4,2.5,13.7,4.3c5.3,1.9,10,3.8,13.3,5.3
					c1.7,0.7,3,1.4,4,1.8c0.9,0.4,1.5,0.7,1.5,0.6c0,0-0.5-0.3-1.4-0.8c-0.9-0.5-2.2-1.2-3.9-2c-3.3-1.6-8-3.6-13.3-5.5
					c-5.3-1.9-10.2-3.3-13.7-4.2c-1.8-0.4-3.2-0.7-4.3-0.9C15.9,156.8,15.4,156.7,15.4,156.7z"/>
			</g>
		</g>
	</g>
	<g>
		<g>
			<g>
				<path class="st3" d="M63.7,216.7c0,0,0.1-0.1,0.3-0.4c0.2-0.4,0.5-0.8,0.9-1.3c0.8-1.1,1.9-2.8,3.2-4.9c2.6-4.2,6-10.1,9.7-16.7
					c3.7-6.6,7.1-12.5,9.6-16.8c1.2-2.1,2.2-3.8,3-5c0.3-0.5,0.6-1,0.8-1.4c0.2-0.3,0.3-0.5,0.2-0.5c0,0-0.1,0.1-0.3,0.4
					c-0.2,0.4-0.5,0.8-0.9,1.3c-0.8,1.1-1.9,2.8-3.2,4.9c-2.6,4.2-6,10.1-9.7,16.7c-3.7,6.6-7.1,12.5-9.6,16.8c-1.2,2.1-2.2,3.8-3,5
					c-0.3,0.5-0.6,1-0.8,1.4C63.7,216.6,63.7,216.7,63.7,216.7z"/>
			</g>
		</g>
	</g>
	<g>
		<g>
			<g>
				<path class="st3" d="M14.1,191.6c0,0,0.2,0.1,0.5,0.3c0.4,0.2,0.9,0.4,1.4,0.7c1.3,0.7,3.1,1.6,5.3,2.7
					c4.5,2.3,10.6,5.5,17.4,9.1c6.8,3.6,13,6.7,17.5,8.9c2.3,1.1,4.1,2,5.4,2.5c0.6,0.3,1.1,0.5,1.5,0.7c0.3,0.1,0.5,0.2,0.5,0.2
					c0,0-0.2-0.1-0.5-0.3c-0.4-0.2-0.9-0.4-1.4-0.7c-1.3-0.7-3.1-1.6-5.3-2.7c-4.5-2.3-10.6-5.5-17.4-9.1c-6.8-3.6-13-6.7-17.5-8.9
					c-2.3-1.1-4.1-2-5.4-2.5c-0.6-0.3-1.1-0.5-1.5-0.7C14.3,191.6,14.1,191.6,14.1,191.6z"/>
			</g>
		</g>
	</g>
</g>
<g>
	<path class="st4" d="M78.4,144.5c0,0,4.9,0.2,3.2,11.1c-1.7,10.8-3.5,16.5-3.5,16.5s-0.1,2.4,1.8,2.2c1.9-0.3,5.7-2.2,7.3-0.2
		c1.6,2,0.6,4.8-2.2,7.8c-2.8,3-8.6,9.8-9.1,10.5c-0.5,0.6-0.8,1.8,0.5,1.9c1.3,0,10.6-2,11.3,2.5s-8.4,11.6-9.4,12.4
		c-1,0.8-1.1,1.4-0.8,1.9c0.3,0.6,3.4-0.4,6-0.8c2.7-0.5,5.8-0.5,6,2.1c0.2,2.6-4.3,9.7-18.7,16l-6.9,2.5l-5.7-4.6
		c-11.6-10.6-13.5-18.8-12.5-21.2c1-2.4,4-1.3,6.4,0c2.4,1.3,5,3.2,5.4,2.8c0.5-0.5,0.5-1-0.1-2.1c-0.7-1.1-7-10.8-4.9-14.8
		c2.1-4,10.2,0.9,11.5,1.3c1.3,0.4,1.4-0.9,1.1-1.6c-0.3-0.8-3.6-9.1-5.2-12.9c-1.6-3.8-1.7-6.6,0.5-8c2.1-1.4,5,1.7,6.8,2.6
		c1.7,0.9,2.4-1.5,2.4-1.5s0.2-5.9,2.1-16.8C73.7,143,78.5,144.5,78.4,144.5"/>
	<g>
		<path class="st1" d="M76.9,154.2c0,0,0,0.1,0,0.2c0,0.1-0.1,0.3-0.1,0.6c-0.1,0.5-0.2,1.3-0.4,2.2c-0.3,2-0.8,4.7-1.4,8.2
			c-1.1,6.9-2.7,16.5-4.5,27c-1.7,10.6-3.3,20.1-4.5,27c-0.6,3.4-1.1,6.2-1.5,8.2c-0.2,1-0.3,1.7-0.4,2.2c0,0.2-0.1,0.4-0.1,0.6
			c0,0.1,0,0.2,0,0.2c0,0,0-0.1,0-0.2c0-0.1,0.1-0.3,0.1-0.6c0.1-0.5,0.2-1.3,0.4-2.2c0.3-2,0.8-4.7,1.4-8.2
			c1.2-6.9,2.7-16.5,4.5-27.1c1.7-10.6,3.3-20.1,4.5-27c0.6-3.4,1.1-6.2,1.5-8.2c0.2-1,0.3-1.7,0.4-2.2c0-0.2,0.1-0.4,0.1-0.6
			C76.9,154.3,76.9,154.2,76.9,154.2z"/>
	</g>
	<g>
		<path class="st1" d="M82,176.9c0,0-0.5,0.5-1.5,1.3c-1,0.8-2.2,1.9-3.6,3.1c-1.4,1.2-2.7,2.3-3.6,3c-0.5,0.4-0.9,0.7-1.1,0.9
			c-0.3,0.2-0.4,0.3-0.4,0.3c0,0,0.6-0.5,1.5-1.3c1-0.8,2.2-1.9,3.6-3.1c1.4-1.2,2.7-2.3,3.6-3c0.5-0.4,0.9-0.7,1.1-0.9
			C81.8,177,82,176.9,82,176.9z"/>
	</g>
	<g>
		<path class="st1" d="M71.1,185.2c-0.1,0-2.2-2.6-4.9-6c-2.6-3.4-4.7-6.1-4.6-6.2c0.1,0,2.2,2.6,4.9,6
			C69.1,182.4,71.1,185.2,71.1,185.2z"/>
	</g>
	<g>
		<path class="st1" d="M68.9,204c0,0-0.2-0.1-0.5-0.3c-0.3-0.2-0.7-0.4-1.2-0.8c-1-0.7-2.4-1.7-3.9-2.8c-1.5-1.2-2.8-2.3-3.7-3.1
			c-0.5-0.4-0.8-0.8-1.1-1c-0.2-0.2-0.4-0.4-0.4-0.4c0,0,0.6,0.5,1.6,1.3c0.9,0.8,2.2,1.9,3.7,3.1c1.5,1.2,2.9,2.2,3.9,2.9
			C68.3,203.5,68.9,204,68.9,204z"/>
	</g>
	<g>
		<path class="st1" d="M80.4,198.7c0,0-0.6,0.4-1.6,0.8c-1,0.5-2.5,1.1-4.1,1.9c-1.6,0.7-3,1.3-4.1,1.8c-1.1,0.4-1.7,0.7-1.7,0.7
			c0,0,0.6-0.4,1.6-0.8c1-0.5,2.5-1.1,4.1-1.9c1.6-0.7,3-1.3,4.1-1.8C79.7,198.9,80.4,198.6,80.4,198.7z"/>
	</g>
	<g>
		<path class="st1" d="M80.6,215.5c0,0-0.2,0.1-0.6,0.3c-0.4,0.2-1,0.4-1.6,0.7c-1.3,0.6-3.2,1.4-5.2,2.3c-2,0.9-3.9,1.7-5.3,2.2
			c-0.6,0.3-1.2,0.5-1.6,0.7c-0.4,0.1-0.6,0.2-0.6,0.2c0,0,0.2-0.1,0.6-0.3c0.4-0.2,1-0.4,1.6-0.7c1.3-0.6,3.2-1.4,5.2-2.3
			c2-0.9,3.9-1.7,5.3-2.2c0.6-0.3,1.2-0.5,1.6-0.7C80.4,215.5,80.6,215.5,80.6,215.5z"/>
	</g>
	<g>
		<path class="st1" d="M66.1,221.7c0,0-0.2-0.1-0.6-0.4c-0.4-0.2-0.9-0.6-1.5-1.1c-1.3-0.9-3-2.2-4.8-3.8c-1.8-1.5-3.5-3-4.6-4.1
			c-0.6-0.5-1-1-1.3-1.3c-0.3-0.3-0.5-0.5-0.5-0.5c0,0,0.2,0.1,0.5,0.4c0.4,0.3,0.8,0.7,1.4,1.2c1.2,1,2.8,2.5,4.6,4
			c1.8,1.5,3.5,2.9,4.8,3.8c0.6,0.5,1.1,0.8,1.5,1.1C65.9,221.5,66.1,221.7,66.1,221.7z"/>
	</g>
</g>
<path class="st5" d="M420.7,73c4.1,0,4.1,3.9,8.3,3.9c4.1,0,4.1-3.9,8.3-3.9c4.1,0,4.1,3.9,8.3,3.9c4.1,0,4.1-3.9,8.3-3.9
	c4.1,0,4.1,3.9,8.3,3.9c4.1,0,4.1-3.9,8.3-3.9"/>
<path class="st6" d="M141,51.3c-0.8,0-1.6,0.1-2.4,0.2c-2.8-5.8-8.7-9.8-15.6-9.8c-9.1,0-16.6,7-17.3,15.9c-0.5-0.1-1.1-0.1-1.6-0.1
	c-5.2,0-9.5,4.2-9.5,9.5c0,5.2,4.2,9.5,9.5,9.5c3.2,0,33.8,0,36.9,0c6.9,0,12.6-5.6,12.6-12.6C153.6,57,147.9,51.3,141,51.3z"/>
</svg>
