<?xml version="1.0" encoding="utf-8"?>
<!-- Generator: Adobe Illustrator 25.4.1, SVG Export Plug-In . SVG Version: 6.00 Build 0)  -->
<svg version="1.1" xmlns="http://www.w3.org/2000/svg" xmlns:xlink="http://www.w3.org/1999/xlink" x="0px" y="0px"
	 viewBox="0 0 24 24" style="enable-background:new 0 0 24 24;" xml:space="preserve">
<style type="text/css">
	.st0{fill:none;stroke:#2A2B2A;stroke-width:1.25;stroke-miterlimit:10;}
</style>
<g>
	<path d="M3.1,20.7l3.2-18c0.1-0.5,0.6-0.9,1.1-0.9h7.6h0.8c2.3,0,3.8,0.4,4.4,1.3C20.8,4,21,5.6,20.5,8
		c-0.4,2.3-1.1,3.9-2.1,4.7c-1,0.8-2.7,1.3-5.1,1.3l-0.9,0H7.5c-0.5,0-1,0.4-1.1,0.9l-1.1,6.1C5.2,21.6,4.7,22,4.2,22h0
		C3.5,22,2.9,21.4,3.1,20.7z M7.1,10.8c-0.1,0.7,0.4,1.3,1.1,1.3h4.1c2.3,0,3.8-0.2,4.5-0.7c0.7-0.5,1.2-1.5,1.5-3.2
		c0.3-2,0.4-3.2,0-3.7C18,4,17,3.7,15.4,3.7l-0.9,0H9.3c-0.5,0-1,0.4-1.1,0.9L7.1,10.8z"/>
</g>
</svg>
