<svg id="Layer_1" data-name="Layer 1" xmlns="http://www.w3.org/2000/svg" viewBox="0 0 1176 402.8"><title>omnipay_przelewy24</title><path d="M128,1099.7l29.8-167.5h76.6c18.9,0,31.1,3.6,36.7,10.9s6.6,20.9,3,40.9c-3.4,19.1-9.3,32.2-17.7,39.2s-22.5,10.4-42.2,10.4l-7.4.1H158.4l-11.7,66H128Zm33.4-82h44.8c18.7,0,31.1-1.9,37-5.8s10.2-12.7,12.6-26.5c2.9-16.2,2.9-26.4.1-30.7s-10.9-6.4-24.2-6.4l-7.2-.1H173.7Z" transform="translate(-128 -749.6)" style="fill:#cf4545"/><path d="M291.1,982.4h17.2l-4.1,13.5,0.3,0.4c8.8-11,20.9-16.6,36.6-16.6q32.4,0,26.5,33.4l-1.6,8.1H349l0.9-2.9q1.2-4.65,1.5-6.3c2.1-12-3.3-18-16.4-18q-28.65,0-35,35.5l-12.5,70.3H270.3Z" transform="translate(-128 -749.6)" style="fill:#cf4545"/><path d="M382.5,982.4h84.6l-3,16.7-85.3,86.4h70l-2.5,14.2H355.8l2.9-16.3,85.6-86.8H380Z" transform="translate(-128 -749.6)" style="fill:#cf4545"/><path d="M551.6,1064.2h17.6l-0.6,4.3c-2.2,12.2-7.4,20.7-15.7,25.6s-21.7,7.3-40.3,7.3c-21.6,0-35.1-3.9-40.4-11.8s-5.8-24.5-1.3-49.8c4.2-23.4,10.3-39.1,18.6-47.1s22.2-12,42-12c21.6,0,35.1,3.5,40.6,10.4s6.2,21.6,2.3,43.9l-1.6,9.2H488.4c-3.3,18.5-3.4,30.3-.3,35.3s11.9,7.6,26.4,7.6q20.7,0,27.6-3.6t9-15.6Zm5.9-33.3,0.9-5.5c2.3-12.7,1.6-20.9-1.9-24.7s-12.2-5.7-26-5.7-23.3,2.2-28.3,6.7-8.7,14.2-11.4,29.3h66.7v-0.1Z" transform="translate(-128 -749.6)" style="fill:#cf4545"/><path d="M630,932.2l-29.8,167.5H583l29.8-167.5H630Z" transform="translate(-128 -749.6)" style="fill:#cf4545"/><path d="M711.5,1064.2h17.6l-0.6,4.3c-2.2,12.2-7.4,20.7-15.7,25.6s-21.7,7.3-40.3,7.3c-21.6,0-35.1-3.9-40.4-11.8s-5.8-24.5-1.3-49.8c4.2-23.4,10.3-39.1,18.6-47.1s22.2-12,42-12c21.6,0,35.1,3.5,40.6,10.4s6.2,21.6,2.3,43.9l-1.6,9.2H648.3c-3.3,18.5-3.4,30.3-.3,35.3s11.9,7.6,26.4,7.6q20.7,0,27.6-3.6t9-15.6Zm5.9-33.3,0.9-5.5c2.3-12.7,1.6-20.9-1.9-24.7s-12.2-5.7-26-5.7-23.3,2.2-28.3,6.7-8.7,14.2-11.4,29.3h66.7v-0.1Z" transform="translate(-128 -749.6)" style="fill:#cf4545"/><path d="M914.1,982.4l-53.7,117.3H834.9l-4.1-65.2-1.3-19.9-0.4-9.9-0.6-9.9h-0.4l-4.1,9.9-4.1,9.9-8.3,19.9-27.4,65.2h-26L747.3,982.4h18l5,64.9,1.5,20.4,0.6,10.2,0.6,10.2h0.5l4.1-10.2,4.3-10.2,8.5-20.3,27.6-65h25l4.4,65.2,1.3,20.3,0.5,10.1,0.5,10.2h0.4l4.4-10.2,4.3-10.2,8.8-20.4,28-64.9h18.5v-0.1Z" transform="translate(-128 -749.6)" style="fill:#cf4545"/><path d="M1000.6,982.4l-22.5,52.3-11.2,26-5.4,13.1-5.5,13h-0.5l-2.2-13-2.1-13.1-4.5-26-8.8-52.3H919.6l23.6,127.5-2.7,5.8c-7.2,15.5-15.5,23-24.6,22.5a40.65,40.65,0,0,1-5.9-.9l-2.5,14.2a46.19,46.19,0,0,0,8.1.9c10.6,0,19.3-3.3,26.1-9.8s14.2-18.6,21.9-36.1l55.3-124.1h-18.3Z" transform="translate(-128 -749.6)" style="fill:#cf4545"/><path d="M1128.9,1084.8l-2.8,15.8H1008.3l5.5-31.3c3.1-17.5,8.5-29,16.1-34.4s24.3-9.6,50-12.5q30.75-3.45,38.1-9.3c4.9-3.9,8.8-14,11.6-30.3,2.5-14.3,1.8-23.6-2.1-27.8s-13.8-6.4-29.5-6.4c-19.7,0-32.4,1.7-38.1,5.2s-9.8,11.7-12.1,24.9l-1.9,12.4h-18.1l1.6-8.6c3.5-19.9,10-33.1,19.4-39.7s26.6-9.9,51.4-9.9c22,0,36.2,3.6,42.6,10.7s7.7,21.1,4,41.7c-3.5,19.9-9.4,33.2-17.6,39.9s-24.4,11.2-48.5,13.6c-21.1,2.1-34,5-38.7,8.8s-8.5,14.3-11.6,31.8l-1,5.6h99.5v-0.2Z" transform="translate(-128 -749.6)" style="fill:#afb2bb"/><path d="M1284,934.5l-19.7,112h24.4l-2.8,15.8h-24.4l-6.8,38.3h-18.5l6.8-38.3h-91.6l3.9-22,100.1-105.8H1284Zm-38.2,112,17.6-99.9H1263l-93.6,99.9h76.4Z" transform="translate(-128 -749.6)" style="fill:#afb2bb"/><path d="M517,881.4c40.1-23.1,78.4-39.9,114.6-51.7l-7.4-41.4A810.38,810.38,0,0,0,476.8,851Z" transform="translate(-128 -749.6)" style="fill:#afb2bb"/><path d="M971.7,858.9l141.6-77.2c-58.7-18.4-133.2-31.6-226.9-32.1h-0.9l-32.4,64.8A399.18,399.18,0,0,1,971.7,858.9Z" transform="translate(-128 -749.6)" style="fill:#afb2bb"/><path d="M440.8,872.2c-62.2,38.7-94.8,71.5-94.8,71.5h78.8c19.2-14.9,38.1-28.3,56.6-40.4Z" transform="translate(-128 -749.6)" style="fill:#afb2bb"/><path d="M839.7,750.5a858.27,858.27,0,0,0-184.2,28.7l5.4,42c59.4-15.4,112.9-17.5,159.5-12Z" transform="translate(-128 -749.6)" style="fill:#afb2bb"/><path d="M1188.7,811.7l-183.5,68.7c17,12.3,25.9,21.2,25.9,21.2H1304S1273.1,853.7,1188.7,811.7Z" transform="translate(-128 -749.6)" style="fill:#afb2bb"/></svg>