<?xml version="1.0" encoding="utf-8"?>
<!-- Generator: Adobe Illustrator 23.0.3, SVG Export Plug-In . SVG Version: 6.00 Build 0)  -->
<svg version="1.1" id="Layer_1" xmlns="http://www.w3.org/2000/svg" xmlns:xlink="http://www.w3.org/1999/xlink" x="0px" y="0px"
	 viewBox="0 0 36 36" style="enable-background:new 0 0 36 36;" xml:space="preserve">
<style type="text/css">
	.st0{fill:#2B2B2B;}
</style>
<g>
	<path class="st0" d="M3.2,11.1h16.5v3H6.1v9h13.5v3H3.2V11.1z M12.9,18.6c0-0.6-0.2-1.1-0.6-1.6c-0.4-0.4-0.9-0.7-1.6-0.7
		S9.5,16.6,9.1,17c-0.4,0.4-0.7,1-0.7,1.6c0,0.6,0.2,1.1,0.7,1.6c0.4,0.4,1,0.7,1.6,0.7s1.2-0.2,1.6-0.7
		C12.7,19.8,12.9,19.2,12.9,18.6z M19.6,16.9c-0.4-0.4-0.9-0.6-1.6-0.6c-0.6,0-1.2,0.3-1.6,0.7c-0.4,0.4-0.6,1-0.6,1.6
		c0,0.6,0.3,1.1,0.7,1.5c0.4,0.4,0.9,0.6,1.5,0.6c0.6,0,1.1-0.2,1.5-0.6V16.9z M25.7,11.1h7.5v15h-7.5v3c0,0.4,0.1,0.8,0.4,1.1
		c0.3,0.3,0.6,0.5,1.1,0.5h3v3h-3.8c-0.4,0-0.9-0.2-1.4-0.5c-0.5-0.3-0.8-0.6-0.8-1c0,0.4-0.3,0.7-0.8,1c-0.5,0.3-1,0.5-1.5,0.5
		h-3.7v-3h3c0.4,0,0.8-0.2,1.1-0.5c0.3-0.3,0.4-0.7,0.4-1.1v-21c0-0.4-0.1-0.8-0.4-1.1c-0.3-0.3-0.6-0.5-1.1-0.5h-3v-3h3.7
		c0.5,0,1,0.2,1.5,0.5c0.5,0.3,0.8,0.6,0.8,1c0-0.4,0.3-0.7,0.8-1c0.5-0.3,1-0.5,1.4-0.5h3.8v3h-3c-0.4,0-0.8,0.2-1.1,0.5
		c-0.3,0.3-0.4,0.7-0.4,1.1V11.1z M30.2,23.1v-9h-4.5v9H30.2z"/>
</g>
</svg>
