<?xml version="1.0" encoding="utf-8"?>
<!-- Generator: Adobe Illustrator 25.4.1, SVG Export Plug-In . SVG Version: 6.00 Build 0)  -->
<svg version="1.1" xmlns="http://www.w3.org/2000/svg" xmlns:xlink="http://www.w3.org/1999/xlink" x="0px" y="0px"
	 viewBox="0 0 24 24" style="enable-background:new 0 0 24 24;" xml:space="preserve">
<style type="text/css">
	.st0{fill:#2B2B2B;}
</style>
<path d="M11,20.1H7.5c-0.8,0-1.3,0-1.8-0.1c-3.3-0.4-4-2.4-4-5.6v-5c0-3.3,0.7-5.3,4-5.7c0.4-0.1,1-0.1,1.7-0.1H11
	c0.4,0,0.8,0.3,0.8,0.8S11.4,5.1,11,5.1H7.5c-0.7,0-1.2,0-1.6,0.1c-2,0.2-2.7,0.9-2.7,4.2v5c0,3.3,0.7,3.9,2.7,4.2
	c0.4,0.1,0.9,0.1,1.6,0.1H11c0.4,0,0.8,0.3,0.8,0.8S11.4,20.1,11,20.1z"/>
<path d="M16.5,20.1H15c-0.4,0-0.8-0.3-0.8-0.8s0.3-0.8,0.8-0.8h1.5c0.7,0,1.2,0,1.5-0.1c2-0.2,2.7-0.9,2.7-4.2v-5
	C20.7,5.9,20,5.3,18,5c-0.4-0.1-0.9-0.1-1.6-0.1H15c-0.4,0-0.8-0.3-0.8-0.8s0.3-0.8,0.8-0.8h1.5c0.8,0,1.3,0,1.8,0.1
	c3.3,0.4,4,2.3,4,5.7v5c0,3.3-0.7,5.3-4,5.7C17.8,20.1,17.2,20.1,16.5,20.1z"/>
<path d="M15,22.7c-0.4,0-0.8-0.3-0.8-0.8v-20c0-0.4,0.3-0.8,0.8-0.8s0.8,0.3,0.8,0.8v20C15.8,22.3,15.4,22.7,15,22.7z"
	/>
<path d="M6.7,12.9c-0.1,0-0.3,0-0.4-0.1S6.1,12.7,6,12.6s-0.2-0.2-0.2-0.3s-0.1-0.2-0.1-0.4c0-0.3,0.1-0.5,0.3-0.7
	c0.4-0.4,1-0.4,1.4,0c0.2,0.2,0.3,0.4,0.3,0.7c0,0.1,0,0.3-0.1,0.4c0,0.1-0.1,0.2-0.2,0.3s-0.2,0.2-0.3,0.2
	C7,12.9,6.8,12.9,6.7,12.9z"/>
<path d="M10.7,12.9c-0.1,0-0.3,0-0.4-0.1c-0.1-0.1-0.2-0.1-0.3-0.2c-0.1-0.1-0.2-0.2-0.2-0.3s-0.1-0.2-0.1-0.4
	c0-0.3,0.1-0.5,0.3-0.7c0.4-0.4,1-0.4,1.4,0c0.2,0.2,0.3,0.4,0.3,0.7c0,0.1,0,0.3-0.1,0.4s-0.1,0.2-0.2,0.3
	c-0.1,0.1-0.2,0.2-0.3,0.2S10.8,12.9,10.7,12.9z"/>
</svg>
