<?xml version="1.0" encoding="utf-8"?>
<!-- Generator: Adobe Illustrator 25.4.1, SVG Export Plug-In . SVG Version: 6.00 Build 0)  -->
<svg version="1.1" xmlns="http://www.w3.org/2000/svg" xmlns:xlink="http://www.w3.org/1999/xlink" x="0px" y="0px"
	 viewBox="0 0 24 24" style="enable-background:new 0 0 24 24;" xml:space="preserve">
<style type="text/css">
	.st0{fill:#2B2B2B;}
</style>
<g>
	<path d="M13.8,11c-0.2,0-0.4-0.1-0.5-0.2c-0.3-0.3-0.3-0.8,0-1.1l8.1-8.1c0.3-0.3,0.8-0.3,1.1,0c0.3,0.3,0.3,0.8,0,1.1
		l-8.1,8.1C14.2,10.9,14,11,13.8,11z"/>
	<path d="M17.8,11.8H13c-0.4,0-0.7-0.3-0.7-0.7V6.2c0-0.4,0.3-0.7,0.7-0.7c0.4,0,0.7,0.3,0.7,0.7v4.1h4.1
		c0.4,0,0.7,0.3,0.7,0.7C18.5,11.4,18.2,11.8,17.8,11.8z"/>
	<path d="M15,22.7H9c-5.4,0-7.7-2.3-7.7-7.7V9c0-5.4,2.3-7.7,7.7-7.7h2c0.4,0,0.7,0.3,0.7,0.7S11.4,2.8,11,2.8H9
		C4.4,2.8,2.8,4.4,2.8,9v6c0,4.6,1.6,6.2,6.2,6.2h6c4.6,0,6.2-1.6,6.2-6.2v-2c0-0.4,0.3-0.7,0.7-0.7s0.7,0.3,0.7,0.7v2
		C22.7,20.4,20.4,22.7,15,22.7z"/>
</g>
</svg>
