<?xml version="1.0" encoding="utf-8"?>
<!-- Generator: Adobe Illustrator 25.4.1, SVG Export Plug-In . SVG Version: 6.00 Build 0)  -->
<svg version="1.1" xmlns="http://www.w3.org/2000/svg" xmlns:xlink="http://www.w3.org/1999/xlink" x="0px" y="0px"
	 viewBox="0 0 24 24" style="enable-background:new 0 0 24 24;" xml:space="preserve">
<style type="text/css">
	.st0{fill:#2B2B2B;}
</style>
<path d="M15,22.8H9c-5.4,0-7.8-2.3-7.8-7.8V9c0-5.4,2.3-7.8,7.8-7.8h6c5.4,0,7.8,2.3,7.8,7.8v6
	C22.8,20.4,20.4,22.8,15,22.8z M9,2.8C4.4,2.8,2.8,4.4,2.8,9v6c0,4.6,1.6,6.2,6.2,6.2h6c4.6,0,6.2-1.6,6.2-6.2V9
	c0-4.6-1.6-6.2-6.2-6.2C15,2.8,9,2.8,9,2.8z"/>
<path d="M18.1,7.7h-5.8c-0.3,0-0.6-0.3-0.6-0.8s0.3-0.8,0.6-0.8h5.8c0.3,0,0.6,0.3,0.6,0.8S18.4,7.7,18.1,7.7z"/>
<path d="M14.9,10.2h-2.6c-0.3,0-0.6-0.3-0.6-0.8s0.3-0.8,0.6-0.8h2.6c0.3,0,0.6,0.3,0.6,0.8S15.2,10.2,14.9,10.2z"/>
<path d="M9.2,10.2h-3c-0.3,0-0.5-0.2-0.5-0.5V6.6c0-0.3,0.2-0.5,0.5-0.5h3.1c0.3,0,0.5,0.2,0.5,0.5v3.1
	C9.7,10,9.5,10.2,9.2,10.2z"/>
<path d="M18.1,15.4h-5.8c-0.3,0-0.6-0.3-0.6-0.8s0.3-0.8,0.6-0.8h5.8c0.3,0,0.6,0.3,0.6,0.8S18.4,15.4,18.1,15.4z"/>
<path d="M14.9,17.9h-2.6c-0.3,0-0.6-0.3-0.6-0.8s0.3-0.8,0.6-0.8h2.6c0.3,0,0.6,0.3,0.6,0.8S15.2,17.9,14.9,17.9z"/>
<path d="M9.2,17.9h-3c-0.3,0-0.5-0.2-0.5-0.5v-3.1c0-0.3,0.2-0.5,0.5-0.5h3.1c0.3,0,0.5,0.2,0.5,0.5v3.1
	C9.7,17.7,9.5,17.9,9.2,17.9z"/>
</svg>
