<?xml version="1.0" encoding="utf-8"?>
<!DOCTYPE svg PUBLIC "-//W3C//DTD SVG 1.1//EN" "http://www.w3.org/Graphics/SVG/1.1/DTD/svg11.dtd">
<svg version="1.1" id="Layer_1" xmlns="http://www.w3.org/2000/svg" xmlns:xlink="http://www.w3.org/1999/xlink" x="0px" y="0px"
	 width="92.096px" height="100px" viewBox="0 0 92.096 100" enable-background="new 0 0 92.096 100" xml:space="preserve">
<path fill="#71716F" d="M46.65,19.451c-3.098,0-5.638-2.543-5.638-5.662c0-3.146,2.542-5.671,5.638-5.671
	c3.144,0,5.669,2.525,5.669,5.671C52.318,16.908,49.792,19.451,46.65,19.451z M92.404,69.044l-3.018-18.808
	c-0.352-1.758-1.886-3.097-3.716-3.097c-1.114,0-2.098,0.476-2.818,1.237L68.948,61.419c-0.229,0.196-0.45,0.419-0.648,0.697
	c-1.308,1.782-0.936,4.307,0.848,5.637c0.34,0.253,0.713,0.42,1.085,0.569l3.492,1.162c-3.366,9.504-11.586,16.732-21.683,18.735
	l0.022-61.741c4.949-2.106,8.369-7.007,8.369-12.691C60.433,6.163,54.273,0,46.647,0c-7.593,0-13.778,6.162-13.778,13.79
	c0,5.684,3.541,10.584,8.466,12.691l0.022,61.835c-10.315-1.854-18.853-9.152-22.298-18.832l3.516-1.161
	c0.374-0.149,0.745-0.316,1.094-0.569c1.782-1.33,2.179-3.855,0.84-5.637c-0.199-0.278-0.396-0.5-0.643-0.697L9.954,48.377
	c-0.688-0.761-1.702-1.236-2.796-1.236c-1.853,0-3.412,1.337-3.74,3.095L0.402,69.044c-0.07,0.293-0.094,0.618-0.094,0.942
	c0,2.227,1.804,4.031,4.029,4.031c0.42,0,0.817-0.045,1.189-0.174l3.27-1.062C13.992,88.572,28.863,100,46.404,100
	c17.539,0,32.419-11.432,37.613-27.243l3.263,1.084c0.373,0.127,0.771,0.175,1.188,0.175c2.233,0,4.038-1.804,4.038-4.031
	C92.504,69.662,92.473,69.337,92.404,69.044z"/>
<rect x="24.907" y="34.5" fill="#71716F" width="43" height="11"/>
</svg>
