<svg id="Layer_1" data-name="Layer 1" xmlns="http://www.w3.org/2000/svg" viewBox="0 0 765.2 213.6"><title>payza</title><polygon points="560.4 172.1 591.6 91.7 563.7 91.7 563.7 68.1 636.8 68.1 606.5 148.6 637.1 148.6 637.1 172.1 560.4 172.1" style="fill:#30302f"/><polygon points="749.6 67.4 749.6 78.6 748 78.6 748 67.4 745.4 67.4 745.4 66.3 752.2 66.3 752.2 67.4 749.6 67.4" style="fill:#30302f"/><path d="M327.1,249.4a23.89,23.89,0,0,0-6.9,1V294a52,52,0,0,0,6.2.4c13.7,0,18.9-8.7,18.9-22.8s-4.9-22.2-18.2-22.2m-0.8,66.5a48.16,48.16,0,0,1-6.2-.4V363H282.9V235.9c11.4-4.8,26.4-7.9,43.8-7.9,39.7,0,54.8,20.1,54.8,43.8,0,25-17,44.1-55.2,44.1" transform="translate(-40 -190.9)" style="fill:#30302f"/><path d="M447.2,311.5c-16.8,1.7-23.9,7.3-23.9,18.5,0,10.2,5.8,15,16,15,3.3,0,6-.4,7.9-1.4V311.5Zm-9.4,53.8c-32,0-48.6-11.2-48.6-33.8,0-26,26.8-33.8,58.1-36.6V291c0-7.9-5.4-11.4-15.6-11.4-9.8,0-21.2,3.1-28.7,6.6L395.3,265a120,120,0,0,1,42.2-8.3c26.8,0,44.2,10.8,44.2,40.1v60.6c-9.4,4.6-24.6,7.9-43.9,7.9" transform="translate(-40 -190.9)" style="fill:#30302f"/><path d="M546.2,404.5H508L525.4,363,490.5,259H530l10.8,55.4a161.1,161.1,0,0,1,2.3,17.7h0.4a128.11,128.11,0,0,1,2.9-17.7L559.1,259h35.5Z" transform="translate(-40 -190.9)" style="fill:#30302f"/><path d="M747,311.5c-16.8,1.7-23.9,7.3-23.9,18.5,0,10.2,5.8,15,16,15,3.3,0,6-.4,7.9-1.4V311.5Zm-9.5,53.8c-32,0-48.6-11.2-48.6-33.8,0-26,26.8-33.8,58.1-36.6V291c0-7.9-5.4-11.4-15.6-11.4-9.8,0-21.2,3.1-28.7,6.6L695,265a120,120,0,0,1,42.2-8.3c26.8,0,44.2,10.8,44.2,40.1v60.6c-9.4,4.6-24.6,7.9-43.9,7.9" transform="translate(-40 -190.9)" style="fill:#30302f"/><path d="M803.6,269.5l-0.9-9.2a6.15,6.15,0,0,1-.1-1.4h0c-0.1.3-.2,1-0.3,1.4l-2.6,9.2h-1.1l-2.6-9.2c-0.1-.5-0.2-0.8-0.3-1.4h0c0,0.6-.1,1.1-0.1,1.4l-1,9.2h-1.4l1.5-12.3h1.7l2.5,8.9c0.1,0.5.2,0.9,0.3,1.5h0c0.1-.6.2-1,0.3-1.5l2.5-8.9h1.8l1.4,12.3h-1.6Z" transform="translate(-40 -190.9)" style="fill:#30302f"/><path d="M154.2,287.9a80.34,80.34,0,0,1-30.4,5.7,66,66,0,0,1-12.5-1.1c-19.7-3.8-23.9-17.2-23.9-33.2,0-16.3,9.8-31.5,35.8-32.6,34-1.4,55.9,13.7,55.9,32.6-0.2,12-10,22.5-24.9,28.6m46.4-70.1c-16.3-16.4-42.2-26.9-71.3-26.9-42.1,0-76.3,18.3-86.8,51.8a116.44,116.44,0,0,0-2.4,18.8c-0.1,1.4-.1,2.9-0.1,4.3,0,53.4,39.1,98,86.5,98.2,0.5,0,3.5,0,3.5-1.3,0-1-4-2.1-4-2.1-14-4-25-13.8-28.5-27.9a40.14,40.14,0,0,1-.9-5,0.75,0.75,0,0,0-.1-0.5c-0.1-5,0-5.3,5.3-4a0.2,0.2,0,0,1,.2.1,28.64,28.64,0,0,1,2.8.7,118.89,118.89,0,0,0,24.2,2.5,110.47,110.47,0,0,0,46.1-9.7c14.7-6.7,26.6-16.6,34.2-28.3a54.25,54.25,0,0,0,9-29.7c0.3-15.6-6.4-29.7-17.7-41" transform="translate(-40 -190.9)" style="fill:#05a44c"/></svg>