<?xml version="1.0" encoding="utf-8"?>
<!-- Generator: Adobe Illustrator 23.0.3, SVG Export Plug-In . SVG Version: 6.00 Build 0)  -->
<svg version="1.1" id="Layer_1" xmlns="http://www.w3.org/2000/svg" xmlns:xlink="http://www.w3.org/1999/xlink" x="0px" y="0px"
	 viewBox="0 0 36 36" style="enable-background:new 0 0 36 36;" xml:space="preserve">
<style type="text/css">
	.st0{fill:#2B2B2B;}
</style>
<g>
	<path class="st0" d="M-0.2,30.5v-2.3c0-1,0.6-2,1.9-2.8c1.3-0.8,2.9-1.3,4.8-1.6C5.5,25,5,26.3,5,27.9v2.7H-0.2z M7.3,12.5
		c0.8,0,1.5,0.2,2.3,0.6c-0.1,1,0,2.1,0.3,3.1c0.3,1,0.8,2,1.4,2.8c-0.4,0.8-0.9,1.3-1.6,1.8c-0.7,0.4-1.5,0.7-2.3,0.7
		c-1.3,0-2.3-0.4-3.2-1.3c-0.9-0.9-1.3-2-1.3-3.2c0-1.2,0.4-2.3,1.3-3.2C4.9,13,6,12.5,7.3,12.5z M8,27.9c0-1,0.4-1.9,1.3-2.8
		c0.9-0.9,2.1-1.6,3.6-2.1c1.5-0.5,3.1-0.8,4.9-0.8c1.8,0,3.4,0.3,4.9,0.8c1.5,0.5,2.7,1.2,3.6,2.1c0.9,0.9,1.3,1.8,1.3,2.8v2.7H8
		V27.9z M17.8,8.7c1.5,0,2.7,0.5,3.7,1.5c1,1,1.5,2.3,1.5,3.7c0,1.5-0.5,2.7-1.5,3.7c-1,1-2.3,1.5-3.7,1.5c-1.5,0-2.7-0.5-3.7-1.5
		c-1-1-1.5-2.3-1.5-3.7c0-1.5,0.5-2.7,1.5-3.7C15.1,9.3,16.3,8.7,17.8,8.7z M28.2,12.5c1.3,0,2.3,0.4,3.2,1.3
		c0.9,0.9,1.3,1.9,1.3,3.2c0,1.2-0.4,2.3-1.3,3.2c-0.9,0.9-1.9,1.3-3.2,1.3c-0.8,0-1.6-0.2-2.3-0.7c-0.7-0.4-1.2-1-1.6-1.8
		c0.6-0.8,1.1-1.8,1.4-2.8c0.3-1,0.4-2.1,0.3-3.1C26.7,12.7,27.4,12.5,28.2,12.5z M35.8,30.5h-5.3v-2.7c0-1.5-0.5-2.9-1.4-3.9
		c1.9,0.2,3.5,0.8,4.8,1.6c1.3,0.8,1.9,1.7,1.9,2.8V30.5z"/>
</g>
</svg>
