<?xml version="1.0" encoding="utf-8"?>
<!-- Generator: Adobe Illustrator 25.4.1, SVG Export Plug-In . SVG Version: 6.00 Build 0)  -->
<svg version="1.1" xmlns="http://www.w3.org/2000/svg" xmlns:xlink="http://www.w3.org/1999/xlink" x="0px" y="0px"
	 viewBox="0 0 24 24" style="enable-background:new 0 0 24 24;" xml:space="preserve">
<style type="text/css">
	.st0{fill:#2B2B2B;}
	.st1{fill:none;stroke:#2B2B2B;stroke-width:1.5;stroke-linecap:round;stroke-linejoin:round;}
	.st2{fill:#2B2B2B;stroke:#2B2B2B;stroke-width:0.5;stroke-miterlimit:10;}
</style>
<path d="M15,20.3H9c-1.3,0-2.4-0.1-3.4-0.4c-0.3-0.1-0.6-0.4-0.5-0.8c0.2-3,3.3-5.3,6.9-5.3s6.6,2.3,6.9,5.3
	c0,0.4-0.2,0.7-0.5,0.8C17.4,20.1,16.3,20.3,15,20.3z M6.7,18.6c0.7,0.1,1.4,0.2,2.3,0.2h6c0.9,0,1.6-0.1,2.3-0.2
	c-0.5-1.9-2.7-3.3-5.3-3.3C9.4,15.2,7.3,16.6,6.7,18.6z"/>
<path class="st1" d="M12,11.7c-2,0-3.6-1.6-3.6-3.6S10,4.5,12,4.5s3.6,1.6,3.6,3.6S14,11.7,12,11.7z"/>
<path class="st2" d="M4,14.2c-1.4,0-2.5-1.1-2.5-2.6c0-1.4,1.1-2.5,2.5-2.5s2.5,1.1,2.5,2.5C6.6,13.1,5.4,14.2,4,14.2z M4,10
	c-0.9,0-1.7,0.7-1.7,1.7c0,0.9,0.7,1.7,1.7,1.7s1.7-0.7,1.7-1.7S4.9,10,4,10z"/>
<path class="st2" d="M19.9,14.2c-1.4,0-2.5-1.1-2.5-2.6c0-1.4,1.1-2.5,2.5-2.5s2.5,1.1,2.5,2.5C22.4,13.1,21.3,14.2,19.9,14.2z
	 M19.9,10c-0.9,0-1.7,0.7-1.7,1.7c0,0.9,0.7,1.7,1.7,1.7c0.9,0,1.7-0.7,1.7-1.7C21.5,10.7,20.8,10,19.9,10z"/>
</svg>
