<?xml version="1.0" encoding="utf-8"?>
<!-- Generator: Adobe Illustrator 25.4.1, SVG Export Plug-In . SVG Version: 6.00 Build 0)  -->
<svg version="1.1" id="Layer_1" xmlns="http://www.w3.org/2000/svg" xmlns:xlink="http://www.w3.org/1999/xlink" x="0px" y="0px"
	 viewBox="0 0 24 24" style="enable-background:new 0 0 24 24;" xml:space="preserve">
<style type="text/css">
	.st0{fill:#292D32;}
	.st1{fill:none;stroke:#292D32;stroke-width:1.5;stroke-linecap:round;stroke-linejoin:round;}
</style>
<path class="st0" d="M15,22.8H9c-1.3,0-2.4-0.1-3.4-0.4c-0.3-0.1-0.6-0.4-0.5-0.8c0.2-3,3.3-5.3,6.9-5.3c3.6,0,6.6,2.3,6.9,5.3
	c0,0.4-0.2,0.7-0.5,0.8C17.4,22.6,16.3,22.8,15,22.8z M6.7,21.1c0.7,0.1,1.4,0.2,2.3,0.2h6c0.9,0,1.6-0.1,2.3-0.2
	c-0.5-1.9-2.7-3.3-5.3-3.3C9.4,17.7,7.3,19.1,6.7,21.1z"/>
<path class="st1" d="M15,2H9C4,2,2,4,2,9v6c0,3.8,1.1,5.9,3.9,6.6C6.1,19,8.8,17,12,17s5.9,2.1,6.1,4.7c2.7-0.8,3.9-2.8,3.9-6.6V9
	C22,4,20,2,15,2z M12,14.2c-2,0-3.6-1.6-3.6-3.6C8.4,8.6,10,7,12,7s3.6,1.6,3.6,3.6C15.6,12.6,14,14.2,12,14.2z"/>
<path class="st0" d="M12,14.9c-2.4,0-4.3-1.9-4.3-4.3c0-2.4,1.9-4.3,4.3-4.3c2.4,0,4.3,1.9,4.3,4.3C16.3,13,14.4,14.9,12,14.9z
	 M12,7.8c-1.6,0-2.8,1.3-2.8,2.8c0,1.6,1.3,2.8,2.8,2.8s2.8-1.3,2.8-2.8C14.8,9,13.6,7.8,12,7.8z"/>
<path class="st0" d="M18.9,16.7c-1.4,0-2.5-1.1-2.5-2.6c0-1.4,1.1-2.5,2.5-2.5c1.4,0,2.5,1.1,2.5,2.5C21.4,15.6,20.3,16.7,18.9,16.7
	z M18.9,12.5c-0.9,0-1.7,0.7-1.7,1.7c0,0.9,0.7,1.7,1.7,1.7c0.9,0,1.7-0.7,1.7-1.7C20.6,13.2,19.8,12.5,18.9,12.5z"/>
<path class="st0" d="M5.1,16.7c-1.4,0-2.5-1.1-2.5-2.6c0-1.4,1.1-2.5,2.5-2.5c1.4,0,2.5,1.1,2.5,2.5C7.7,15.6,6.5,16.7,5.1,16.7z
	 M5.1,12.5c-0.9,0-1.7,0.7-1.7,1.7c0,0.9,0.7,1.7,1.7,1.7c0.9,0,1.7-0.7,1.7-1.7C6.8,13.2,6,12.5,5.1,12.5z"/>
</svg>
