<?xml version="1.0" encoding="utf-8"?>
<!-- Generator: Adobe Illustrator 25.4.1, SVG Export Plug-In . SVG Version: 6.00 Build 0)  -->
<svg version="1.1" xmlns="http://www.w3.org/2000/svg" xmlns:xlink="http://www.w3.org/1999/xlink" x="0px" y="0px"
	 viewBox="0 0 24 24" style="enable-background:new 0 0 24 24;" xml:space="preserve">
<style type="text/css">
	.st0{fill:#2B2B2B;}
</style>
<path d="M5.3,14c0-0.4,0.3-0.8,0.8-0.8h4.2l-0.7-0.7c-0.3-0.3-0.3-0.8,0-1.1s0.8-0.3,1.1,0l2,2c0.2,0.2,0.3,0.5,0.2,0.8
	s-0.4,0.5-0.7,0.5H6C5.6,14.8,5.3,14.4,5.3,14z"/>
<path d="M9.3,16c0-0.2,0.1-0.4,0.2-0.5l2-2c0.3-0.3,0.8-0.3,1.1,0s0.3,0.8,0,1.1l-2,2c-0.3,0.3-0.8,0.3-1.1,0
	C9.3,16.4,9.3,16.2,9.3,16z"/>
<path d="M15,22.8H9c-5.4,0-7.8-2.3-7.8-7.8V9c0-5.4,2.3-7.8,7.8-7.8h5c0.4,0,0.8,0.3,0.8,0.8S14.4,2.8,14,2.8H9
	C4.4,2.8,2.8,4.4,2.8,9v6c0,4.6,1.6,6.2,6.2,6.2h6c4.6,0,6.2-1.6,6.2-6.2v-5c0-0.4,0.3-0.8,0.8-0.8s0.8,0.3,0.8,0.8v5
	C22.8,20.4,20.4,22.8,15,22.8z"/>
<path d="M22,10.8h-4c-3.4,0-4.8-1.3-4.8-4.8V2c0-0.3,0.2-0.6,0.5-0.7s0.6-0.1,0.8,0.2l8,8c0.2,0.2,0.3,0.5,0.2,0.8
	C22.6,10.6,22.3,10.8,22,10.8z M14.8,3.8V6c0,2.6,0.7,3.3,3.2,3.3h2.2L14.8,3.8z"/>
</svg>
