<?xml version="1.0" encoding="utf-8"?>
<!-- Generator: Adobe Illustrator 23.0.3, SVG Export Plug-In . SVG Version: 6.00 Build 0)  -->
<svg version="1.1" id="Layer_1" xmlns="http://www.w3.org/2000/svg" xmlns:xlink="http://www.w3.org/1999/xlink" x="0px" y="0px"
	 viewBox="0 0 36 36" style="enable-background:new 0 0 36 36;" xml:space="preserve">
<style type="text/css">
	.st0{fill:#2B2B2B;}
</style>
<g>
	<path class="st0" d="M29.8,12.5v18c0,0.8-0.3,1.5-0.9,2.1c-0.6,0.6-1.3,0.9-2.1,0.9h-18c-0.8,0-1.6-0.3-2.1-0.9
		C6,32,5.7,31.3,5.7,30.5v-24C5.7,5.7,6,5,6.6,4.4c0.6-0.6,1.3-0.9,2.1-0.9h12L29.8,12.5z M26.8,14h-7.5V6.5H8.8v24h18V14z
		 M23.1,23.8l-4.5-4.5v3h-6v3h6v3L23.1,23.8z"/>
</g>
</svg>
