<?xml version="1.0" encoding="utf-8"?>
<!-- Generator: Adobe Illustrator 25.4.1, SVG Export Plug-In . SVG Version: 6.00 Build 0)  -->
<svg version="1.1" xmlns="http://www.w3.org/2000/svg" xmlns:xlink="http://www.w3.org/1999/xlink" x="0px" y="0px"
	 viewBox="0 0 24 24" style="enable-background:new 0 0 24 24;" xml:space="preserve">
<style type="text/css">
	.st0{fill:#2B2B2B;}
</style>
<path d="M10.9,13.5H9.4c-1.2,0-2.1-1-2.1-2.2c0-0.4,0.3-0.8,0.7-0.8s0.8,0.3,0.8,0.8c0,0.4,0.3,0.7,0.6,0.7h1.5
	c0.2,0,0.4-0.2,0.4-0.5c0-0.4-0.1-0.4-0.3-0.4l-2.4-0.8C7.7,9.9,7.3,9.3,7.3,8.3c0-1.1,0.9-2,1.9-2h1.5c1.2,0,2.1,1,2.1,2.1
	c0,0.4-0.3,0.8-0.8,0.8s-0.8-0.3-0.8-0.8c0-0.4-0.3-0.6-0.6-0.6H9.2C9,7.9,8.8,8.1,8.8,8.3c0,0.3,0.1,0.4,0.3,0.4l2.4,0.8
	c0.9,0.3,1.3,0.9,1.3,1.9C12.8,12.6,11.9,13.5,10.9,13.5z"/>
<path d="M10,14.3c-0.4,0-0.8-0.3-0.8-0.8v-0.7c0-0.4,0.3-0.8,0.8-0.8s0.8,0.3,0.8,0.8v0.7C10.8,13.9,10.4,14.3,10,14.3z
	"/>
<path d="M10,7.9c-0.4,0-0.8-0.3-0.8-0.8V6.3c0-0.4,0.3-0.8,0.8-0.8s0.8,0.3,0.8,0.8v0.8C10.8,7.5,10.4,7.9,10,7.9z"/>
<path d="M10,18.6c-4.8,0-8.7-3.9-8.7-8.7c0-4.8,3.9-8.7,8.7-8.7s8.7,3.9,8.7,8.7C18.8,14.7,14.8,18.6,10,18.6z M10,2.7
	c-4,0-7.2,3.2-7.2,7.2c0,4,3.3,7.2,7.2,7.2s7.2-3.2,7.2-7.2C17.3,5.9,14,2.7,10,2.7z"/>
<path d="M17.1,22.6c-1.8,0-3.6-0.9-4.7-2.4c-0.2-0.3-0.2-0.8,0.2-1.1c0.3-0.2,0.8-0.2,1.1,0.2c0.8,1.1,2.1,1.8,3.4,1.8
	c2.3,0,4.2-1.9,4.2-4.2c0-1.3-0.7-2.6-1.8-3.4c-0.3-0.2-0.4-0.7-0.2-1.1s0.7-0.4,1.1-0.2c1.5,1.1,2.4,2.8,2.4,4.6
	C22.8,20.1,20.2,22.6,17.1,22.6z"/>
</svg>
