<?xml version="1.0" encoding="utf-8"?>
<!-- Generator: Adobe Illustrator 23.0.3, SVG Export Plug-In . SVG Version: 6.00 Build 0)  -->
<svg version="1.1" id="Layer_1" xmlns="http://www.w3.org/2000/svg" xmlns:xlink="http://www.w3.org/1999/xlink" x="0px" y="0px"
	 viewBox="0 0 36 36" style="enable-background:new 0 0 36 36;" xml:space="preserve">
<style type="text/css">
	.st0{fill:#2B2B2B;}
</style>
<g>
	<path class="st0" d="M14.4,5.1c1.7,0,3.4,0.4,4.9,1.3c1.5,0.9,2.7,2.1,3.6,3.6c0.9,1.5,1.3,3.1,1.3,4.9c0,2.4-0.8,4.5-2.3,6.3
		l0.4,0.4h1.2l7.5,7.5l-2.3,2.3l-7.5-7.5v-1.2l-0.4-0.4c-1.8,1.5-3.9,2.3-6.3,2.3c-1.8,0-3.4-0.4-4.9-1.3c-1.5-0.9-2.7-2-3.6-3.6
		c-0.9-1.5-1.3-3.1-1.3-4.9S5.1,11.5,6,10c0.9-1.5,2-2.7,3.6-3.6C11,5.5,12.6,5.1,14.4,5.1z M14.4,8.1c-1.9,0-3.5,0.7-4.8,2
		c-1.3,1.3-2,2.9-2,4.8c0,1.9,0.7,3.5,2,4.8c1.3,1.3,2.9,2,4.8,2c1.9,0,3.5-0.7,4.8-2c1.3-1.3,2-2.9,2-4.8c0-1.9-0.7-3.5-2-4.8
		C17.9,8.8,16.3,8.1,14.4,8.1z"/>
</g>
</svg>
