<?xml version="1.0" encoding="utf-8"?>
<!-- Generator: Adobe Illustrator 25.4.1, SVG Export Plug-In . SVG Version: 6.00 Build 0)  -->
<svg version="1.1" id="Layer_1" xmlns="http://www.w3.org/2000/svg" xmlns:xlink="http://www.w3.org/1999/xlink" x="0px" y="0px"
	 viewBox="0 0 24 24" style="enable-background:new 0 0 24 24;" xml:space="preserve">
<style type="text/css">
	.st0{fill:#292D32;}
</style>
<path class="st0" d="M8.6,16.1c-4.3,0-7.8-3.5-7.8-7.8s3.5-7.8,7.8-7.8s7.8,3.5,7.8,7.8S12.9,16.1,8.6,16.1z M8.6,1.6
	c-3.7,0-6.7,3-6.7,6.7s3,6.7,6.7,6.7s6.7-3,6.7-6.7S12.3,1.6,8.6,1.6z"/>
<path class="st0" d="M22.7,23.3c-0.2,0-0.4-0.1-0.5-0.2l-6.9-6.9c-0.3-0.3-0.3-0.8,0-1.1s0.8-0.3,1.1,0l6.9,6.9
	c0.3,0.3,0.3,0.8,0,1.1C23.1,23.2,22.9,23.3,22.7,23.3z"/>
</svg>
