<?xml version="1.0" encoding="utf-8"?>
<!-- Generator: Adobe Illustrator 25.4.1, SVG Export Plug-In . SVG Version: 6.00 Build 0)  -->
<svg version="1.1" xmlns="http://www.w3.org/2000/svg" xmlns:xlink="http://www.w3.org/1999/xlink" x="0px" y="0px"
	 viewBox="0 0 24 24" style="enable-background:new 0 0 24 24;" xml:space="preserve">
<style type="text/css">
	.st0{fill:#292D32;stroke:#2B2B2B;stroke-miterlimit:10;}
	.st1{fill:#292D32;stroke:#2B2B2B;stroke-width:1.25;stroke-miterlimit:10;}
</style>
<path d="M9.1,16.5c-4.1,0-7.4-3.3-7.4-7.4S5,1.9,9.1,1.9s7.3,3.3,7.3,7.3S13.1,16.5,9.1,16.5z M9.1,2.8
	c-3.5,0-6.3,2.8-6.3,6.3s2.8,6.3,6.3,6.3s6.2-2.8,6.2-6.3S12.5,2.8,9.1,2.8z"/>
<path class="st1" d="M21.3,22.1c-0.2,0-0.3-0.1-0.4-0.2l-5.6-5.6c-0.3-0.3-0.3-0.7,0-0.9c0.3-0.3,0.7-0.3,0.9,0l5.6,5.6
	c0.3,0.3,0.3,0.7,0,0.9C21.7,22,21.5,22.1,21.3,22.1z"/>
</svg>
