<?xml version="1.0" encoding="utf-8"?>
<!-- Generator: Adobe Illustrator 23.0.3, SVG Export Plug-In . SVG Version: 6.00 Build 0)  -->
<svg version="1.1" id="Layer_1" xmlns="http://www.w3.org/2000/svg" xmlns:xlink="http://www.w3.org/1999/xlink" x="0px" y="0px"
	 viewBox="0 0 36 36" style="enable-background:new 0 0 36 36;" xml:space="preserve">
<g>
	<path d="M10.8,7.2l1.1,2.2h16.7c0.3,0,0.6,0.1,0.8,0.3c0.2,0.2,0.3,0.5,0.3,0.8c0,0.1-0.1,0.3-0.2,0.5l-4,7.3
		c-0.2,0.4-0.4,0.6-0.8,0.8c-0.4,0.2-0.7,0.3-1.2,0.3h-8.4l-1,1.8c0,0-0.1,0.1-0.1,0.2c0,0.1,0,0.1,0.1,0.2s0.1,0.1,0.2,0.1h13v2.3
		H13.8c-0.6,0-1.1-0.2-1.6-0.7c-0.4-0.4-0.7-1-0.7-1.6c0-0.4,0.1-0.7,0.3-1.1l1.5-2.8L9.3,9.5H7.1V7.2H10.8z M15.4,25.9
		c0.4,0.4,0.7,1,0.7,1.6c0,0.6-0.2,1.1-0.7,1.6c-0.4,0.4-1,0.7-1.6,0.7c-0.6,0-1.1-0.2-1.6-0.7c-0.4-0.4-0.7-1-0.7-1.6
		c0-0.6,0.2-1.1,0.7-1.6c0.4-0.4,1-0.7,1.6-0.7C14.4,25.2,15,25.5,15.4,25.9z M26.7,25.9c0.4,0.4,0.7,1,0.7,1.6
		c0,0.6-0.2,1.1-0.7,1.6c-0.4,0.4-1,0.7-1.6,0.7c-0.6,0-1.1-0.2-1.6-0.7c-0.4-0.4-0.7-1-0.7-1.6c0-0.6,0.2-1.1,0.7-1.6
		c0.4-0.4,1-0.7,1.6-0.7C25.7,25.2,26.2,25.5,26.7,25.9z"/>
</g>
</svg>
