<?xml version="1.0" encoding="utf-8"?>
<!-- Generator: Adobe Illustrator 25.4.1, SVG Export Plug-In . SVG Version: 6.00 Build 0)  -->
<svg version="1.1" xmlns="http://www.w3.org/2000/svg" xmlns:xlink="http://www.w3.org/1999/xlink" x="0px" y="0px"
	 viewBox="0 0 24 24" style="enable-background:new 0 0 24 24;" xml:space="preserve">
<style type="text/css">
	.st0{fill:#292D32;}
</style>
<g>
	<path d="M14.6,22.8H9.2c-4.9,0-7-2.1-7-7v-4.5c0-0.4,0.3-0.8,0.8-0.8s0.8,0.3,0.8,0.8v4.5c0,4.1,1.5,5.5,5.5,5.5h5.4
		c4.1,0,5.5-1.5,5.5-5.5v-4.5c0-0.4,0.3-0.8,0.8-0.8s0.8,0.3,0.8,0.8v4.5C21.7,20.6,19.6,22.8,14.6,22.8z"/>
	<path d="M11.9,12.8c-1.1,0-2.1-0.4-2.8-1.2c-0.7-0.8-1-1.8-0.9-2.9L8.9,2c0-0.4,0.4-0.7,0.8-0.7h4.7
		c0.4,0,0.7,0.3,0.8,0.7l0.7,6.7c0.1,1.1-0.2,2.1-0.9,2.9C14.1,12.2,13.1,12.8,11.9,12.8z M10.2,2.8l-0.6,6
		c-0.1,0.7,0.1,1.3,0.5,1.8c0.9,0.9,2.6,0.9,3.4,0c0.4-0.5,0.6-1.1,0.5-1.8l-0.6-6C13.4,2.8,10.2,2.8,10.2,2.8z"/>
	<path d="M18.2,12.8c-2,0-3.8-1.6-4-3.7l-0.7-7c0-0.2,0-0.4,0.2-0.6s0.3-0.2,0.6-0.2h3.1c2.9,0,4.3,1.2,4.7,4.2l0.3,2.8
		c0.1,1.2-0.2,2.3-1,3.2C20.6,12.2,19.5,12.8,18.2,12.8z M15.1,2.8L15.7,9c0.1,1.2,1.3,2.3,2.5,2.3c0.8,0,1.4-0.3,1.9-0.8
		s0.7-1.2,0.6-2l-0.3-2.8c-0.3-2.3-1-2.9-3.2-2.9C17.2,2.8,15.1,2.8,15.1,2.8z"/>
	<path d="M5.5,12.8c-1.2,0-2.3-0.5-3-1.3c-0.8-0.9-1.1-2-1-3.2l0.3-2.7c0.4-3.1,1.8-4.3,4.7-4.3h3
		c0.2,0,0.4,0.1,0.6,0.2c0.1,0.2,0.2,0.4,0.2,0.6l-0.7,7C9.4,11.1,7.6,12.8,5.5,12.8z M6.5,2.8c-2.2,0-2.9,0.7-3.2,2.9L3,8.4
		c-0.1,0.8,0.1,1.5,0.6,2s1.2,0.8,1.9,0.8c1.3,0,2.4-1.1,2.6-2.3l0.6-6.2H6.5V2.8z"/>
	<path d="M14.4,22.8h-5c-0.4,0-0.8-0.3-0.8-0.8v-2.5c0-2.1,1.1-3.2,3.2-3.2s3.2,1.1,3.2,3.2V22
		C15.1,22.4,14.8,22.8,14.4,22.8z M10.1,21.2h3.5v-1.8c0-1.3-0.5-1.8-1.8-1.8S10,18.1,10,19.4v1.8H10.1z"/>
</g>
</svg>
