<?xml version="1.0" encoding="utf-8"?>
<!-- Generator: Adobe Illustrator 25.4.1, SVG Export Plug-In . SVG Version: 6.00 Build 0)  -->
<svg version="1.1" xmlns="http://www.w3.org/2000/svg" xmlns:xlink="http://www.w3.org/1999/xlink" x="0px" y="0px"
	 viewBox="0 0 24 24" style="enable-background:new 0 0 24 24;" xml:space="preserve">
<style type="text/css">
	.st0{fill:#2B2B2B;}
</style>
<path d="M12.1,22.8c-0.7,0-1.3-0.4-1.8-1l-1.5-2c0,0-0.1-0.1-0.2-0.1H8.1c-4.2,0-6.8-1.1-6.8-6.8V8
	c0-4.4,2.3-6.8,6.8-6.8h4c0.4,0,0.8,0.3,0.8,0.8s-0.4,0.8-0.8,0.8h-4C4.5,2.8,2.9,4.4,2.9,8v5c0,4.5,1.6,5.2,5.2,5.2h0.5
	c0.5,0,1.1,0.3,1.4,0.7l1.5,2c0.4,0.5,0.9,0.5,1.2,0l1.5-2c0.3-0.4,0.8-0.7,1.4-0.7h0.5c3.6,0,5.2-1.7,5.2-5.2V8
	c0-0.4,0.3-0.8,0.8-0.8s0.8,0.3,0.8,0.8v5c0,4.4-2.3,6.8-6.8,6.8h-0.5c-0.1,0-0.1,0-0.2,0.1l-1.5,2C13.4,22.5,12.8,22.8,12.1,22.8z"
	/>
<path d="M12.1,12c-0.6,0-1-0.4-1-1s0.4-1,1-1s1,0.4,1,1S12.7,12,12.1,12z"/>
<path d="M16.1,12c-0.6,0-1-0.4-1-1s0.4-1,1-1c0.5,0,1,0.4,1,1S16.7,12,16.1,12z"/>
<path d="M8.1,12c-0.6,0-1-0.4-1-1s0.4-1,1-1s1,0.4,1,1S8.7,12,8.1,12z"/>
<path d="M18.1,7.7c-0.9,0-2.9-1-3.5-2.9c-0.2-0.7-0.2-1.6,0.2-2.3c0.3-0.6,0.8-1,1.5-1.2c0.6-0.2,1.3-0.1,1.9,0.2
	c0.5-0.3,1.2-0.4,1.9-0.2c0.6,0.2,1.2,0.6,1.5,1.2C22,3.2,22,4,21.8,4.8C21,6.8,18.9,7.7,18.1,7.7z M16,4.4c0.4,1.3,1.9,1.8,2.1,1.9
	c0.3,0,1.7-0.7,2.1-1.9c0.1-0.4,0.1-0.8-0.1-1.1c-0.1-0.2-0.3-0.4-0.6-0.5c-0.3-0.1-0.7,0-0.8,0.2c-0.1,0.2-0.4,0.3-0.6,0.3
	S17.6,3.2,17.5,3c-0.2-0.3-0.6-0.3-0.9-0.2c-0.2,0.1-0.4,0.2-0.5,0.5C15.9,3.6,15.9,4,16,4.4z"/>
</svg>
