<?xml version="1.0" encoding="utf-8"?>
<!-- Generator: Adobe Illustrator 25.4.1, SVG Export Plug-In . SVG Version: 6.00 Build 0)  -->
<svg version="1.1" id="Layer_1" xmlns="http://www.w3.org/2000/svg" xmlns:xlink="http://www.w3.org/1999/xlink" x="0px" y="0px"
	 viewBox="0 0 24 24" style="enable-background:new 0 0 24 24;" xml:space="preserve">
<style type="text/css">
	.st0{fill:#292D32;}
</style>
<path class="st0" d="M12,22.8c-0.7,0-1.3-0.4-1.8-1l-1.5-2c0,0-0.1-0.1-0.2-0.1H8c-4.2,0-6.8-1.1-6.8-6.8V8c0-4.4,2.3-6.8,6.8-6.8h4
	c0.4,0,0.8,0.3,0.8,0.8S12.4,2.8,12,2.8H8C4.4,2.8,2.8,4.4,2.8,8v5c0,4.5,1.6,5.2,5.2,5.2h0.5c0.5,0,1.1,0.3,1.4,0.7l1.5,2
	c0.4,0.5,0.9,0.5,1.2,0l1.5-2c0.3-0.4,0.8-0.7,1.4-0.7H16c3.6,0,5.2-1.7,5.2-5.2V8c0-0.4,0.3-0.8,0.8-0.8s0.8,0.3,0.8,0.8v5
	c0,4.4-2.3,6.8-6.8,6.8h-0.5c-0.1,0-0.1,0-0.2,0.1l-1.5,2C13.3,22.5,12.7,22.8,12,22.8z"/>
<path class="st0" d="M12,12c-0.6,0-1-0.4-1-1s0.4-1,1-1s1,0.4,1,1S12.6,12,12,12z"/>
<path class="st0" d="M16,12c-0.6,0-1-0.4-1-1s0.4-1,1-1c0.5,0,1,0.4,1,1S16.6,12,16,12z"/>
<path class="st0" d="M8,12c-0.6,0-1-0.4-1-1s0.4-1,1-1s1,0.4,1,1S8.6,12,8,12z"/>
<path class="st0" d="M18,7.7c-0.9,0-2.9-1-3.5-2.9c-0.2-0.7-0.2-1.6,0.2-2.3c0.3-0.6,0.8-1,1.5-1.2c0.6-0.2,1.3-0.1,1.9,0.2
	c0.5-0.3,1.2-0.4,1.9-0.2c0.6,0.2,1.2,0.6,1.5,1.2c0.4,0.7,0.4,1.5,0.2,2.3C20.9,6.8,18.8,7.7,18,7.7z M15.9,4.4
	c0.4,1.3,1.9,1.8,2.1,1.9c0.3,0,1.7-0.7,2.1-1.9C20.2,4,20.2,3.6,20,3.3c-0.1-0.2-0.3-0.4-0.6-0.5c-0.3-0.1-0.7,0-0.8,0.2
	c-0.1,0.2-0.4,0.3-0.6,0.3c-0.2,0-0.5-0.1-0.6-0.3c-0.2-0.3-0.6-0.3-0.9-0.2C16.3,2.9,16.1,3,16,3.3C15.8,3.6,15.8,4,15.9,4.4z"/>
</svg>
