<?xml version="1.0" encoding="utf-8"?>
<!-- Generator: Adobe Illustrator 23.0.3, SVG Export Plug-In . SVG Version: 6.00 Build 0)  -->
<svg version="1.1" id="Layer_1" xmlns="http://www.w3.org/2000/svg" xmlns:xlink="http://www.w3.org/1999/xlink" x="0px" y="0px"
	 viewBox="0 0 36 36" style="enable-background:new 0 0 36 36;" xml:space="preserve">
<style type="text/css">
	.st0{fill:#2B2B2B;}
</style>
<g>
	<path class="st0" d="M29,7c0.4,0.4,0.7,1,0.7,1.6V22c0,0.6-0.2,1.2-0.7,1.6s-1,0.7-1.6,0.7h-6.9l-4.2,4.2c-0.2,0.2-0.5,0.3-0.8,0.3
		h-0.6c-0.4,0-0.6-0.1-0.8-0.3c-0.2-0.2-0.3-0.5-0.3-0.8v-3.4H9.4c-0.6,0-1.1-0.2-1.6-0.7s-0.7-1-0.7-1.6V8.5c0-0.6,0.2-1.1,0.7-1.6
		c0.4-0.4,1-0.7,1.6-0.7h18C28,6.3,28.6,6.5,29,7z M17.3,14.2h-2.4l1.6-3.4h-2.3l-1.5,3.2v4.7h4.5V14.2z M24.1,14.2h-2.4l1.6-3.4H21
		l-1.5,3.2v4.7h4.5V14.2z"/>
</g>
</svg>
