<?xml version="1.0" encoding="utf-8"?>
<!-- Generator: Adobe Illustrator 23.0.3, SVG Export Plug-In . SVG Version: 6.00 Build 0)  -->
<svg version="1.1" id="Layer_1" xmlns="http://www.w3.org/2000/svg" xmlns:xlink="http://www.w3.org/1999/xlink" x="0px" y="0px"
	 viewBox="0 0 36 36" style="enable-background:new 0 0 36 36;" xml:space="preserve">
<style type="text/css">
	.st0{fill:#2B2B2B;}
</style>
<g>
	<path class="st0" d="M6.1,12.8h4.5v12.4H6.1V12.8z M27.4,19.6c0.7,0,1.2,0.2,1.6,0.7c0.5,0.5,0.7,1,0.7,1.6l-9,3.4L12.8,23V12.8
		h2.1l8.2,3.1c0.6,0.2,0.9,0.7,0.9,1.2c0,0.4-0.1,0.7-0.3,0.9c-0.3,0.3-0.7,0.5-1.1,0.5h-3.1l-2-0.8l-0.3,1l2.3,0.9H27.4z"/>
</g>
<path class="st0" d="M29.3,13.8c0,1.3-1.1,2.4-2.4,2.4c-1.3,0-2.4-1.1-2.4-2.4s1.1-2.4,2.4-2.4C28.2,11.4,29.3,12.5,29.3,13.8z
	 M28,12.9c-0.5-0.6-1.4-0.7-2.1-0.2c-0.6,0.5-0.7,1.4-0.2,2.1c0.5,0.6,1.4,0.7,2.1,0.2C28.5,14.4,28.5,13.5,28,12.9z"/>
</svg>
