<?xml version="1.0" encoding="utf-8"?>
<!-- Generator: Adobe Illustrator 19.0.0, SVG Export Plug-In . SVG Version: 6.00 Build 0)  -->
<svg version="1.1" id="Layer_1" xmlns="http://www.w3.org/2000/svg" xmlns:xlink="http://www.w3.org/1999/xlink" x="0px" y="0px"
	 viewBox="-277 368 57 57" style="enable-background:new -277 368 57 57;" xml:space="preserve">
<style type="text/css">
	.st0{opacity:0.57;}
	.st1{filter:url(#Adobe_OpacityMaskFilter);}
	.st2{mask:url(#SVGID_1_);}
	.st3{fill:#6D6E71;}
	.st4{fill:url(#XMLID_7_);}
	.st5{fill:url(#XMLID_9_);}
	.st6{fill:url(#XMLID_11_);}
	.st7{fill:#E6E6E6;}
	.st8{font-family:'Raleway-BlackItalic';}
	.st9{font-size:6.936px;}
	.st10{font-size:8.9949px;}
</style>
<title>3</title>
<g id="XMLID_3_">
	<g id="XMLID_10_">
		<g id="XMLID_20_" class="st0">
			<defs>
				<filter id="Adobe_OpacityMaskFilter" filterUnits="userSpaceOnUse" x="-272.9" y="377.1" width="50.4" height="45.8">
					<feFlood  style="flood-color:white;flood-opacity:1" result="back"/>
					<feBlend  in="SourceGraphic" in2="back" mode="normal"/>
				</filter>
			</defs>
			<mask maskUnits="userSpaceOnUse" x="-272.9" y="377.1" width="50.4" height="45.8" id="SVGID_1_">
				<g class="st1">
					<image style="overflow:visible;" width="55" height="50" xlink:href="9AC5D5BE.jpg"  transform="matrix(1 0 0 1 -275 375)">
					</image>
				</g>
			</mask>
			<g class="st2">
				<ellipse class="st3" cx="-247.7" cy="400" rx="25.2" ry="22.9"/>
			</g>
		</g>
		
			<linearGradient id="XMLID_7_" gradientUnits="userSpaceOnUse" x1="-226.3593" y1="317.1981" x2="-225.6907" y2="269.0594" gradientTransform="matrix(0.754 0.6568 -0.6568 0.754 113.8415 324.1957)">
			<stop  offset="0" style="stop-color:#ECEFF0"/>
			<stop  offset="0.4316" style="stop-color:#EBEDEF"/>
			<stop  offset="0.5871" style="stop-color:#E4E6E8"/>
			<stop  offset="0.6979" style="stop-color:#D9DBDC"/>
			<stop  offset="0.7876" style="stop-color:#C8CACB"/>
			<stop  offset="0.8643" style="stop-color:#B3B4B5"/>
			<stop  offset="0.9321" style="stop-color:#99999A"/>
			<stop  offset="0.9921" style="stop-color:#7A7A7A"/>
			<stop  offset="1" style="stop-color:#757576"/>
		</linearGradient>
		<path id="XMLID_19_" class="st4" d="M-222.6,389.6l-23.1-20.1c-8-0.7-16.3,2.3-22,8.8c-9.5,10.9-8.3,27.3,2.5,36.8
			c10.9,9.5,27.3,8.3,36.8-2.5C-222.6,406-220.7,397.4-222.6,389.6z"/>
		<linearGradient id="XMLID_9_" gradientUnits="userSpaceOnUse" x1="-270.3553" y1="395.6399" x2="-225.8426" y2="395.6399">
			<stop  offset="0" style="stop-color:#C72727"/>
			<stop  offset="3.568514e-002" style="stop-color:#D02C2B"/>
			<stop  offset="0.1152" style="stop-color:#DC3431"/>
			<stop  offset="0.2214" style="stop-color:#E33934"/>
			<stop  offset="0.4629" style="stop-color:#E53A35"/>
			<stop  offset="0.6255" style="stop-color:#DC3532"/>
			<stop  offset="0.8964" style="stop-color:#C22729"/>
			<stop  offset="1" style="stop-color:#B72025"/>
		</linearGradient>
		<circle id="XMLID_18_" class="st5" cx="-248.1" cy="395.6" r="22.3"/>
		
			<linearGradient id="XMLID_11_" gradientUnits="userSpaceOnUse" x1="-225.9649" y1="268.6478" x2="-226.1807" y2="278.5761" gradientTransform="matrix(0.754 0.6568 -0.6568 0.754 113.8415 324.1957)">
			<stop  offset="0" style="stop-color:#BDBDBD"/>
			<stop  offset="0.2192" style="stop-color:#D6D8D8"/>
			<stop  offset="0.4436" style="stop-color:#ECEFF0"/>
			<stop  offset="0.7927" style="stop-color:#9FA0A1"/>
			<stop  offset="1" style="stop-color:#757576"/>
		</linearGradient>
		<path id="XMLID_12_" class="st6" d="M-245.6,369.5c1.1,1.1,0.9,2.1,0.9,2.1c-0.6,5.1,1.2,10.4,5.4,14c4.1,3.6,9.6,4.7,14.6,3.4
			c0,0,1-0.4,2.2,0.6C-234.9,374.9-245.6,369.5-245.6,369.5z"/>
	</g>
	<text id="XMLID_8_" transform="matrix(1 0 0 1 -259.1201 407.7325)" class="st7 st8 st9">PRICE</text>
	<rect id="XMLID_2_" x="-260.2" y="404.4" class="st7" width="23.1" height="1.4"/>
	<text id="XMLID_4_" transform="matrix(1 0 0 1 -266.5322 397.9063)" class="st7 st8 st10">OFFERS</text>
</g>
</svg>
