<?xml version="1.0" encoding="utf-8"?>
<!-- Generator: Adobe Illustrator 25.2.1, SVG Export Plug-In . SVG Version: 6.00 Build 0)  -->
<svg version="1.1" xmlns="http://www.w3.org/2000/svg" xmlns:xlink="http://www.w3.org/1999/xlink" x="0px" y="0px"
	 viewBox="0 0 24 24" style="enable-background:new 0 0 24 24;" xml:space="preserve">
<g id="Layer_1">
</g>
<g id="Layer_2">
</g>
<g id="Layer_3">
</g>
<g id="Layer_5">
</g>
<g id="Layer_4">
</g>
<g id="Layer_7">
</g>
<g id="Layer_8">
</g>
<g id="Layer_11">
</g>
<g id="Layer_9">
</g>
<g id="Layer_10">
</g>
<g id="Layer_12">
	<g>
		<path d="M15.6,19.6c-0.2,0-0.5,0-0.7-0.1l-8.4-1.9c-0.2,0-0.3-0.2-0.3-0.4v-7.1c0-0.2,0.2-0.4,0.4-0.4l1.3-0.1
			c0.9-0.1,1.7,0.1,2.5,0.5l6.9,3.5c0.1,0,0.2,0.1,0.3,0.2l3.2-1.9c0.8-0.5,1.8-0.2,2.4,0.5c0.6,0.8,0.4,1.8-0.3,2.4l-5,4.1
			C17.1,19.4,16.3,19.6,15.6,19.6z M6.9,16.9l8.1,1.8c0.8,0.2,1.6,0,2.2-0.5l5-4.1c0.4-0.3,0.5-0.9,0.2-1.3
			c-0.3-0.4-0.8-0.5-1.3-0.3L18,14.4c0,0.1,0,0.1,0.1,0.2c0.1,0.4,0.1,0.9-0.1,1.3c-0.4,0.7-1.2,1-1.9,0.8l-4.3-1.3
			c-0.2-0.1-0.3-0.3-0.3-0.5c0.1-0.2,0.3-0.3,0.5-0.3l4.3,1.3c0.4,0.1,0.8,0,0.9-0.4c0.1-0.2,0.1-0.4,0.1-0.6c0-0.1-0.1-0.2-0.1-0.3
			c0,0,0,0,0,0c-0.1-0.1-0.2-0.1-0.2-0.2l-6.9-3.5c-0.6-0.3-1.3-0.4-2-0.4l-1,0.1V16.9z"/>
		<path d="M5.5,18.6H2.2c-0.8,0-1.4-0.6-1.4-1.4V9.7c0-0.8,0.6-1.4,1.4-1.4h3.3c0.8,0,1.4,0.6,1.4,1.4v7.5C6.9,18,6.3,18.6,5.5,18.6
			z M2.2,9.2c-0.3,0-0.6,0.3-0.6,0.6v7.5c0,0.3,0.3,0.6,0.6,0.6h3.3c0.3,0,0.6-0.3,0.6-0.6V9.7c0-0.3-0.3-0.6-0.6-0.6H2.2z"/>
		<path d="M16.7,3.4c-1.5,0-2.7,1.2-2.7,2.7c0,1.5,1.2,2.7,2.7,2.7c1.5,0,2.7-1.2,2.7-2.7C19.4,4.6,18.2,3.4,16.7,3.4z M16.7,8
			c-1,0-1.9-0.8-1.9-1.9c0-1,0.8-1.9,1.9-1.9c1,0,1.9,0.8,1.9,1.9C18.6,7.2,17.8,8,16.7,8z"/>
	</g>
</g>
<g id="Layer_6">
</g>
</svg>
