<?xml version="1.0" encoding="utf-8"?>
<!-- Generator: Adobe Illustrator 25.4.1, SVG Export Plug-In . SVG Version: 6.00 Build 0)  -->
<svg version="1.1" id="Layer_1" xmlns="http://www.w3.org/2000/svg" xmlns:xlink="http://www.w3.org/1999/xlink" x="0px" y="0px"
	 viewBox="0 0 24 24" style="enable-background:new 0 0 24 24;" xml:space="preserve">
<style type="text/css">
	.st0{fill:none;stroke:#2B2B2B;stroke-width:1.25;stroke-miterlimit:10;}
	.st1{fill:#2B2B2B;}
</style>
<g>
	<g>
		<path class="st0" d="M2.7,8.6h1.7c0.6,0,1.1,0.5,1.1,1.1v8.7c0,0.6-0.5,1.1-1.1,1.1H2.7c-0.6,0-1.1-0.5-1.1-1.1V9.8
			C1.5,9.1,2,8.6,2.7,8.6z M13.7,14.6h6.6c0.6,0,1.1,0.2,1.4,0.6c0,0,0,0,0,0c0.5,0.6,0.3,1.5-0.5,1.8l-6.3,2.4
			c-0.3,0.1-0.7,0.1-1,0l-5.2-1.5c-0.7-0.2-1.2-0.8-1.2-1.6v-6.1c0-0.9,0.7-1.6,1.6-1.6h0c0.1,0,0.3,0,0.4,0.1l7,2.6
			c0.5,0.2,0.8,0.6,0.8,1.1c0,0.3-0.1,0.6-0.3,0.8c-0.3,0.3-0.6,0.4-0.9,0.4h-2.4"/>
	</g>
	<path class="st1" d="M22.5,6.5c0,1.2-1,2.2-2.1,2.2s-2.1-1-2.1-2.2s1-2.2,2.1-2.2S22.5,5.3,22.5,6.5z M21.3,5.7
		c-0.5-0.5-1.3-0.6-1.8-0.1C19,6,18.9,6.8,19.4,7.4c0.5,0.5,1.3,0.6,1.8,0.1C21.7,7,21.8,6.2,21.3,5.7z"/>
</g>
</svg>
