<?xml version="1.0" encoding="utf-8"?>
<!-- Generator: Adobe Illustrator 25.4.1, SVG Export Plug-In . SVG Version: 6.00 Build 0)  -->
<svg version="1.1" id="Layer_1" xmlns="http://www.w3.org/2000/svg" xmlns:xlink="http://www.w3.org/1999/xlink" x="0px" y="0px"
	 viewBox="0 0 24 24" style="enable-background:new 0 0 24 24;" xml:space="preserve">
<style type="text/css">
	.st0{fill:none;stroke:#292D32;stroke-miterlimit:10;}
</style>
<path class="st0" d="M2.7,11.6h4.1c0.3,0,0.6,0.3,0.6,0.6v9.5c0,0.3-0.3,0.6-0.6,0.6H2.7c-0.3,0-0.6-0.3-0.6-0.6v-9.5
	C2.1,11.9,2.4,11.6,2.7,11.6z M8.9,20.1v-6.8c0-1.7,0.5-3.3,1.4-4.7c0.5-0.9,1.7-2.2,2.4-3c0.2-0.2,0.7-0.6,0.7-0.9
	c0-0.3,0-0.9,0.1-1.9c0-0.6,0.5-1.2,1.2-1.1h0c1.1,0,1.5,1,1.5,1s0.9,1.9,0.1,4.1C15.3,8.8,15.2,9,15.2,9S15,9.3,15.7,9.3
	c0,0,4.7,0,4.8,0c0.3,0,1.4,0.3,1.4,1.7c0,1-0.7,1.4-1,1.5c0,0-0.1,0.1,0,0.1c0,0,0,0,0,0c0.3,0.2,1,0.7,1,1.4
	c0,0.9-0.4,1.3-1.2,1.5c0,0-0.1,0.1-0.1,0.1c0,0,0,0,0,0.1c0.3,0.2,0.8,0.6,0.8,1.4c0,0.8-0.6,1.1-1,1.2c0,0-0.1,0.1-0.1,0.1
	c0,0,0,0,0,0c0.2,0.1,0.5,0.5,0.5,1.1c0,0.4-0.1,0.6-0.3,0.8c-0.2,0.3-0.6,0.4-1,0.4l-10.3,0C9.4,20.8,8.9,20.8,8.9,20.1L8.9,20.1z"
	/>
</svg>
