<?xml version="1.0" encoding="utf-8"?>
<!-- Generator: Adobe Illustrator 23.0.3, SVG Export Plug-In . SVG Version: 6.00 Build 0)  -->
<svg version="1.1" id="Layer_1" xmlns="http://www.w3.org/2000/svg" xmlns:xlink="http://www.w3.org/1999/xlink" x="0px" y="0px"
	 viewBox="0 0 36 36" style="enable-background:new 0 0 36 36;" xml:space="preserve">
<style type="text/css">
	.st0{fill:#2B2B2B;}
	.st1{fill:#FFFFFF;}
</style>
<ellipse class="st0" cx="19.9" cy="18.3" rx="8.1" ry="8.1"/>
<path class="st1" d="M15.9,17.3h1.8c0.1,0,0.3,0.1,0.3,0.3v4.1c0,0.1-0.1,0.3-0.3,0.3h-1.8c-0.1,0-0.3-0.1-0.3-0.3v-4.1
	C15.6,17.5,15.7,17.3,15.9,17.3z M18.5,21V18c0-0.7,0.2-1.4,0.6-2c0.2-0.4,0.8-1,1-1.3c0.1-0.1,0.3-0.3,0.3-0.4c0-0.1,0-0.4,0-0.8
	c0-0.3,0.2-0.5,0.5-0.5h0c0.5,0,0.6,0.4,0.6,0.4s0.4,0.8,0,1.8c-0.3,0.8-0.4,0.9-0.4,0.9s-0.1,0.1,0.2,0.1c0,0,2,0,2.1,0
	c0.1,0,0.6,0.1,0.6,0.7c0,0.4-0.3,0.6-0.4,0.7c0,0,0,0,0,0c0,0,0,0,0,0c0.1,0.1,0.4,0.3,0.4,0.6c0,0.4-0.2,0.5-0.5,0.6c0,0,0,0,0,0
	c0,0,0,0,0,0c0.1,0.1,0.3,0.2,0.3,0.6c0,0.4-0.3,0.5-0.4,0.5c0,0,0,0,0,0c0,0,0,0,0,0c0.1,0.1,0.2,0.2,0.2,0.5
	c0,0.2-0.1,0.3-0.1,0.3c-0.1,0.1-0.3,0.2-0.4,0.2l-4.4,0C18.8,21.3,18.5,21.3,18.5,21L18.5,21z"/>
</svg>
