<?xml version="1.0" encoding="utf-8"?>
<!-- Generator: Adobe Illustrator 23.0.3, SVG Export Plug-In . SVG Version: 6.00 Build 0)  -->
<svg version="1.1" id="Layer_1" xmlns="http://www.w3.org/2000/svg" xmlns:xlink="http://www.w3.org/1999/xlink" x="0px" y="0px"
	 viewBox="0 0 36 36" style="enable-background:new 0 0 36 36;" xml:space="preserve">
<style type="text/css">
	.st0{display:none;}
	.st1{display:inline;fill:#2B2B2B;}
	.st2{display:inline;}
	.st3{fill:#2B2B2B;}
	.st4{display:inline;fill:#2B2B2B;stroke:#2B2B2B;stroke-width:0.5;stroke-miterlimit:10;}
	.st5{display:none;fill:#2B2B2B;}
	.st6{display:inline;fill:#FFFFFF;}
	.st7{fill:#FFFFFF;}
</style>
<g class="st0">
	<path class="st1" d="M11,11.3L22.2,0.1v35.8L11,24.8H2V11.5h9V11.3z M30.9,23.4c-1,1.6-2.4,2.8-4.2,3.6V9.1c1.8,0.8,3.2,2,4.2,3.6
		s1.6,3.4,1.6,5.4C32.3,20,31.9,21.8,30.9,23.4z"/>
</g>
<g class="st0">
	<path class="st1" d="M33.6,29.1v1.8H2.8v-1.8l3.4-3.4V15.4c0-2.7,0.8-5.1,2.4-7.2c1.6-2.1,3.6-3.5,6.1-4.3V3.4c0-0.9,0.3-1.7,1-2.4
		c0.7-0.7,1.5-1,2.4-1s1.8,0.3,2.4,1c0.7,0.7,1,1.5,1,2.4V4c2.5,0.7,4.6,2.2,6.1,4.3c1.6,2.1,2.4,4.5,2.4,7.2v10.3L33.6,29.1z
		 M21.6,32.5c0,1-0.3,1.8-1,2.4c-0.7,0.7-1.5,1-2.4,1s-1.8-0.3-2.4-1c-0.7-0.7-1-1.5-1-2.4H21.6z"/>
</g>
<g class="st0">
	<path class="st1" d="M25.2,31.3H0.1v-3.5L0.2,27c0.1-0.6,0.3-1.2,0.7-1.8C1.4,24.4,2,23.6,2.8,23c1-0.7,2.2-1.3,3.7-1.8
		c1.7-0.5,3.8-0.8,6.1-0.8c3.7,0,6.6,0.6,8.8,1.8c1.6,0.9,2.7,2.1,3.3,3.5c0.3,0.7,0.4,1.3,0.4,1.8V31.3z M18.9,10.7
		c0-1.3-0.4-2.5-1.1-3.5c-0.7-1-1.7-1.8-2.8-2.3s-2.4-0.6-3.6-0.4S9.1,5.3,8.2,6.2c-0.9,0.9-1.5,2-1.7,3.2s-0.1,2.5,0.4,3.6
		c0.5,1.1,1.3,2.1,2.3,2.8c1,0.7,2.2,1.1,3.5,1.1c1.7,0,3.2-0.6,4.5-1.8C18.3,13.9,18.9,12.4,18.9,10.7z M23.4,4.4
		c-1.3,0-2.4,0.4-3.4,1.1c1.1,1.6,1.7,3.3,1.7,5.2c0,1.9-0.6,3.6-1.7,5.2c1,0.7,2.2,1.1,3.4,1.1c1.7,0,3.2-0.6,4.5-1.8
		c1.2-1.2,1.8-2.7,1.8-4.5c0-1.7-0.6-3.2-1.8-4.5C26.6,5,25.1,4.4,23.4,4.4z M25.1,20.5c1.1,0.9,2,2,2.6,3.2c0.6,1.3,1,2.6,1.1,4
		v3.5h7.1v-3.5l-0.1-0.7c-0.1-0.6-0.3-1.1-0.6-1.7c-0.4-0.8-1-1.5-1.7-2c-0.8-0.8-1.9-1.4-3.2-1.8C28.9,21,27.1,20.7,25.1,20.5z"/>
</g>
<g class="st0">
	<path class="st1" d="M34.9,4.7c0.7,0.7,1.1,1.6,1.1,2.6v21.5c0,1-0.4,1.9-1.1,2.6c-0.7,0.7-1.5,1.1-2.5,1.1H3.7
		c-1,0-1.8-0.3-2.5-1.1c-0.7-0.7-1.1-1.6-1.1-2.6V7.3c0-1,0.4-1.9,1.1-2.6C1.9,4,2.7,3.7,3.7,3.7h28.7C33.4,3.7,34.2,4,34.9,4.7z
		 M32.4,7.3l-14.4,9l-14.4-9v3.6L18,19.8l14.4-8.9V7.3z"/>
</g>
<g class="st0">
	<path class="st1" d="M24.7,5.1h5.8v3.6l3.7,2.3c0.5,0.3,0.9,0.8,1.2,1.3c0.3,0.5,0.5,1.1,0.5,1.8v17.8c0,1-0.3,1.8-1,2.5
		c-0.7,0.7-1.5,1-2.5,1H3.7c-0.9,0-1.8-0.3-2.5-1c-0.7-0.7-1-1.5-1-2.5V14.1c0-0.7,0.2-1.3,0.5-1.8c0.3-0.5,0.7-1,1.2-1.3l3.7-2.3
		V5.1h5.8L18,1L24.7,5.1z M3.7,14.1l1.8,1.1v-2.3L3.7,14.1z M9.1,17.4l8.9,5.5l8.9-5.5V8.7H9.1V17.4z M25.1,10.5v2.7H10.9v-2.7H25.1
		z M25.1,14.9v2.7H10.9v-2.7H25.1z M30.4,15.2l1.8-1.1l-1.8-1.2V15.2z"/>
</g>
<g class="st0">
	<path class="st1" d="M7.1,0.2h21.4c1,0,1.9,0.3,2.6,1c0.7,0.7,1,1.5,1,2.5v28.6c0,0.9-0.3,1.8-1,2.5c-0.7,0.7-1.5,1-2.6,1H7.1
		c-1,0-1.9-0.3-2.6-1c-0.7-0.7-1-1.5-1-2.5V3.7c0-0.9,0.3-1.8,1-2.5C5.2,0.5,6.1,0.2,7.1,0.2z M17.8,3.7c-2,0-3.7,0.5-5.4,1.5
		c-1.6,1-2.9,2.3-3.9,3.9c-0.9,1.6-1.4,3.4-1.4,5.4s0.5,3.7,1.5,5.4c1,1.6,2.3,2.9,3.9,3.9c1.6,0.9,3.5,1.4,5.5,1.4l-1.6-3.9
		c-0.2-0.4-0.3-0.9-0.1-1.4c0.1-0.5,0.4-0.8,0.8-1l1.6-0.9c0.4-0.2,0.8-0.3,1.3-0.2c0.5,0.1,0.9,0.4,1.1,0.8l3.4,4.3
		c1.2-1,2.2-2.2,2.9-3.7c0.7-1.4,1.1-3,1.1-4.7c0-1.9-0.5-3.7-1.4-5.3c-0.9-1.6-2.2-3-3.9-3.9C21.5,4.2,19.7,3.7,17.8,3.7z
		 M8.8,28.7c-0.5,0-0.9,0.2-1.3,0.5c-0.3,0.3-0.5,0.8-0.5,1.3s0.2,0.9,0.5,1.3c0.3,0.4,0.8,0.5,1.3,0.5c0.5,0,0.9-0.2,1.3-0.5
		c0.4-0.4,0.5-0.8,0.5-1.3s-0.2-0.9-0.5-1.3C9.8,28.8,9.3,28.7,8.8,28.7z M17.8,12.6c0.5,0,0.9,0.2,1.3,0.5c0.3,0.3,0.5,0.8,0.5,1.3
		c0,0.5-0.2,0.9-0.5,1.3c-0.3,0.4-0.8,0.5-1.3,0.5s-0.9-0.2-1.3-0.5c-0.3-0.4-0.5-0.8-0.5-1.3c0-0.5,0.2-0.9,0.5-1.3
		C16.9,12.8,17.3,12.6,17.8,12.6z M18,20.2l4.4,11.3l4.6-2.7l-7.5-9.5L18,20.2z"/>
</g>
<g class="st0">
	<path class="st1" d="M34.8,1.2c0.7,0.7,1,1.5,1,2.5V25c0,1-0.3,1.9-1,2.5c-0.7,0.7-1.5,1-2.5,1H21.4l-6.6,6.6
		c-0.4,0.3-0.8,0.5-1.3,0.5h-0.9c-0.6,0-1-0.2-1.3-0.5c-0.3-0.3-0.5-0.7-0.5-1.3v-5.3H3.7c-0.9,0-1.8-0.3-2.5-1
		c-0.7-0.7-1-1.5-1-2.5V3.6c0-0.9,0.3-1.8,1-2.5c0.7-0.7,1.5-1,2.5-1h28.6C33.2,0.1,34.1,0.5,34.8,1.2z M16.3,12.6h-3.8L15,7.2h-3.6
		l-2.3,5v7.4h7.2V12.6z M26.9,12.6h-3.8l2.5-5.3h-3.6l-2.3,5v7.4h7.2V12.6z"/>
</g>
<g class="st0">
	<path class="st1" d="M30,3.8c1,0,1.8,0.3,2.5,1c0.7,0.7,1,1.5,1,2.5v24.8c0,1-0.3,1.8-1,2.5c-0.7,0.7-1.5,1-2.5,1H5.2
		c-1,0-1.8-0.3-2.5-1c-0.7-0.7-1-1.5-1-2.5V7.4c0-1,0.3-1.8,1-2.5c0.7-0.7,1.5-1,2.5-1H7V0.2h3.6v3.6h14.1V0.2h3.6v3.6H30z M30,32.2
		V12.7H5.2v19.5H30z M12.3,16.2v3.6H8.7v-3.6H12.3z M12.3,23.4v3.5H8.7v-3.5H12.3z M19.4,16.2v3.6h-3.5v-3.6H19.4z M19.4,23.4v3.5
		h-3.5v-3.5H19.4z M26.5,16.2v3.6h-3.6v-3.6H26.5z M26.5,23.4v3.5h-3.6v-3.5H26.5z"/>
</g>
<g class="st0">
	<path class="st1" d="M0.3,9.1h19.4v3.6H3.8v10.6h15.9v3.6H0.3V9.1z M26.8,9.1h8.8v17.7h-8.8v3.5c0,0.5,0.2,0.9,0.5,1.3
		c0.3,0.4,0.7,0.5,1.2,0.5h3.6v3.5h-4.5c-0.5,0-1.1-0.2-1.7-0.5c-0.6-0.4-1-0.8-1-1.2c0,0.4-0.3,0.8-0.9,1.2
		c-0.6,0.4-1.2,0.5-1.7,0.5h-4.4v-3.5h3.6c0.5,0,0.9-0.2,1.2-0.5c0.3-0.4,0.5-0.8,0.5-1.3V5.6c0-0.5-0.2-0.9-0.5-1.3
		C22.4,4,22,3.8,21.5,3.8h-3.6V0.3h4.4c0.6,0,1.1,0.2,1.7,0.5C24.7,1.2,25,1.6,25,2.1c0-0.4,0.3-0.8,1-1.2c0.6-0.4,1.2-0.5,1.7-0.5
		h4.5v3.5h-3.6c-0.5,0-0.9,0.2-1.2,0.5c-0.3,0.4-0.5,0.8-0.5,1.3V9.1z M32.1,23.3V12.7h-5.3v10.6H32.1z"/>
</g>
<g class="st0">
	<g class="st2">
		<path class="st3" d="M18.1,0.2c0.3,0,0.6,0.1,1,0.3C19.7,0.8,20,1.3,20,2.1v4h2c0.3,0,0.6,0.1,0.9,0.3c0.7,0.3,1,0.9,1,1.7v2h4
			c0.3,0,0.6,0.1,0.9,0.2c0.7,0.4,1,1,1,1.8V14h4c0.2,0,0.4,0.1,0.6,0.2c0.5,0.1,0.8,0.4,1,0.8c0.2,0.9,0.3,1.9,0.3,3
			c0,3.2-0.8,6.2-2.4,8.9c-1.6,2.7-3.8,4.9-6.5,6.5c-2.7,1.6-5.7,2.4-8.9,2.4s-6.2-0.8-8.9-2.4c-2.7-1.6-4.9-3.8-6.5-6.5
			c-1.6-2.7-2.4-5.7-2.4-8.9c0-3.2,0.8-6.2,2.4-8.9c1.6-2.7,3.8-4.9,6.5-6.5C11.9,1,14.9,0.2,18.1,0.2z M5.1,14.9
			c-0.6,0.6-0.8,1.3-0.8,2.1c0,0.8,0.3,1.5,0.8,2.1S6.3,20,7.2,20s1.5-0.3,2.1-0.8c0.6-0.6,0.9-1.3,0.9-2.1c0-0.8-0.3-1.5-0.9-2.1
			C8.7,14.3,8,14,7.2,14C6.4,14,5.6,14.3,5.1,14.9z M11,7c-0.6,0.6-0.8,1.3-0.8,2.1c0,0.8,0.3,1.5,0.8,2.1c0.6,0.6,1.3,0.9,2.1,0.9
			s1.5-0.3,2.1-0.9c0.6-0.6,0.9-1.3,0.9-2.1c0-0.8-0.3-1.5-0.9-2.1c-0.6-0.6-1.3-0.9-2.1-0.9C12.3,6.1,11.6,6.4,11,7z M14,26.8
			c-0.6,0.6-0.8,1.3-0.8,2.1c0,0.8,0.3,1.5,0.8,2.1c0.6,0.6,1.3,0.8,2.1,0.8c0.8,0,1.5-0.3,2.1-0.8c0.6-0.6,0.9-1.3,0.9-2.1
			c0-0.8-0.3-1.5-0.9-2.1c-0.6-0.6-1.3-0.9-2.1-0.9C15.3,25.9,14.5,26.2,14,26.8z M15,16.9c-0.6,0.6-0.9,1.3-0.9,2.1
			c0,0.8,0.3,1.5,0.9,2.1c0.6,0.6,1.3,0.9,2.1,0.9c0.8,0,1.5-0.3,2.1-0.9c0.6-0.6,0.8-1.3,0.8-2.1c0-0.8-0.3-1.5-0.8-2.1
			c-0.6-0.6-1.3-0.8-2.1-0.8C16.2,16.1,15.6,16.3,15,16.9z M24.9,20.8c-0.6,0.6-0.9,1.3-0.9,2.1c0,0.9,0.3,1.6,0.9,2.1
			c0.6,0.6,1.3,0.8,2.1,0.8s1.5-0.3,2.1-0.8c0.6-0.6,0.9-1.3,0.9-2.1c0-0.8-0.3-1.5-0.9-2.1C28.5,20.3,27.8,20,27,20
			S25.5,20.3,24.9,20.8z"/>
	</g>
</g>
<g class="st0">
	<g class="st2">
		<path class="st3" d="M18.1,26.2l-5-5l-8.1,8L2.7,27l8.2-8.1c-2-2.2-3.6-4.7-4.8-7.3h3.3c1,2,2.2,3.8,3.7,5.4
			c2.3-2.5,4-5.4,5.1-8.6H0.1V5h11.3V1.9h3.2V5H26v3.3h-4.8c-1.2,3.9-3.2,7.4-6,10.5l-0.1,0.1l4.2,4L18.1,26.2z M35.7,34.1h-3.3
			l-1.8-4.8H23l-1.8,4.8h-3.3l7.3-19.4h3.3L35.7,34.1z M29.4,26.1l-2.6-7l-2.6,7H29.4z"/>
	</g>
</g>
<g class="st0">
	<g class="st2">
		<path d="M35.8,19.8c0,1-0.3,1.8-1,2.5L22.3,34.8c-0.7,0.7-1.5,1-2.5,1c-1,0-1.8-0.3-2.5-1l-16-16c-0.7-0.7-1-1.5-1-2.5V3.7
			c0-0.9,0.3-1.8,1-2.5c0.7-0.7,1.5-1,2.5-1h12.5c0.9,0,1.8,0.3,2.5,1l16,16C35.5,18,35.8,18.8,35.8,19.8z M8.4,8.3
			c0.5-0.5,0.8-1.1,0.8-1.9S8.9,5,8.4,4.5C7.9,4,7.3,3.7,6.5,3.7S5.1,4,4.6,4.5C4.1,5,3.8,5.7,3.8,6.4s0.3,1.4,0.8,1.9
			C5.1,8.8,5.7,9,6.5,9C7.2,9,7.9,8.8,8.4,8.3z"/>
	</g>
</g>
<g class="st0">
	<path class="st4" d="M32.8,0.8l2.6,10l-2.1,0.6c-1.4-2.6-2.5-4.3-3.3-5C29.4,6,28.8,5.7,28,5.5c-0.4-0.1-1.1-0.1-2-0.1h-5.8v24
		c0,0.8,0,1.3,0.1,1.6c0.1,0.6,0.4,1,0.7,1.2c0.3,0.2,0.9,0.4,1.7,0.5c0.4,0.1,1.1,0.1,2.1,0.1v2.2H11.1v-2.2c1,0,1.7,0,2.1-0.1
		c0.8-0.1,1.3-0.2,1.7-0.5c0.3-0.2,0.6-0.7,0.7-1.2c0.1-0.3,0.1-0.8,0.1-1.6v-24H9.9c-0.9,0-1.6,0-2,0.1C7.1,5.7,6.4,6,5.9,6.4
		c-0.9,0.7-2,2.4-3.3,5l-2.1-0.6L3,0.8H32.8z"/>
</g>
<g class="st0">
	<path class="st1" d="M0.2,2.4h35.7v4.4H0.2V2.4z M0.2,11.2h35.7v4.5H0.2V11.2z M0.2,20.1h35.7v4.5H0.2V20.1z M0.2,29h22.3v4.4H0.2
		V29z"/>
</g>
<g class="st0">
	<path class="st1" d="M34.4,34.4c-0.8,0.8-1.7,1.2-2.8,1.2H4.2c-1.1,0-2-0.4-2.8-1.2c-0.8-0.8-1.2-1.7-1.2-2.8V4.2
		c0-1.1,0.4-2,1.2-2.8c0.8-0.8,1.7-1.2,2.8-1.2h27.4c1.1,0,2,0.4,2.8,1.2c0.8,0.8,1.2,1.7,1.2,2.8v27.4
		C35.6,32.7,35.2,33.7,34.4,34.4z M4.2,29.7h27.4l-8.8-11.8L16,26.8l-5-5.9L4.2,29.7z"/>
</g>
<g class="st0">
	<path class="st1" d="M35.6,12.9c0.2,0.2,0.3,0.5,0.3,0.8v7.6c0,0.3-0.1,0.6-0.3,0.8c-0.2,0.2-0.5,0.3-0.8,0.3h-7.6
		c-0.3,0-0.6-0.1-0.8-0.3c-0.2-0.2-0.3-0.5-0.3-0.8v-7.6c0-0.3,0.1-0.6,0.3-0.8c0.2-0.2,0.5-0.3,0.8-0.3h7.6
		C35.1,12.6,35.4,12.7,35.6,12.9z M34.8,13.7h-7.6v7.6h7.6V13.7z M34,20.2h-6l1.5-1.9l1.1,1.3l1.5-1.9L34,20.2z"/>
</g>
<g class="st0">
	<path class="st1" d="M9.6,12.8c0.2,0.2,0.3,0.5,0.3,0.8v7.6c0,0.3-0.1,0.6-0.3,0.8c-0.2,0.2-0.5,0.3-0.8,0.3H1.2
		c-0.3,0-0.6-0.1-0.8-0.3c-0.2-0.2-0.3-0.5-0.3-0.8v-7.6c0-0.3,0.1-0.6,0.3-0.8c0.2-0.2,0.5-0.3,0.8-0.3h7.6
		C9.2,12.5,9.4,12.6,9.6,12.8z M8.8,13.6H1.2v7.6h7.6V13.6z M8,20.2H2l1.5-1.9l1.1,1.3l1.5-1.9L8,20.2z"/>
</g>
<g class="st0">
	<path class="st1" d="M28.2,23.9c-0.5,0.5-1,0.7-1.7,0.7H9.7c-0.7,0-1.2-0.2-1.7-0.7c-0.5-0.5-0.7-1-0.7-1.7V5.4
		c0-0.7,0.2-1.2,0.7-1.7C8.4,3.2,9,3,9.7,3h16.8c0.7,0,1.2,0.2,1.7,0.7c0.5,0.5,0.7,1,0.7,1.7v16.8C28.9,22.9,28.6,23.4,28.2,23.9z
		 M9.7,21h16.8l-5.4-7.2l-4.2,5.4l-3-3.6L9.7,21z"/>
</g>
<g class="st0">
	<path class="st1" d="M1,0.8h3.8v3.8H1V0.8z M1,8.4h3.8v3.8H1V8.4z M1,16h3.8v3.7H1V16z M1,23.6h3.8v3.8H1V23.6z M1,31.2h3.8V35H1
		V31.2z M8.5,0.8h3.8v3.8H8.5V0.8z M8.5,31.2h3.8V35H8.5V31.2z M16.2,0.8h3.7v3.8h-3.7V0.8z M16.2,31.2h3.7V35h-3.7V31.2z M23.8,0.8
		h3.8v3.8h-3.8V0.8z M23.8,31.2h3.8V35h-3.8V31.2z M31.3,0.8h3.8v3.8h-3.8V0.8z M31.3,8.4h3.8v3.8h-3.8V8.4z M31.3,16h3.8v3.7h-3.8
		V16z M31.3,23.6h3.8v3.8h-3.8V23.6z M31.3,31.2h3.8V35h-3.8V31.2z"/>
</g>
<g class="st0">
	<path class="st1" d="M88.2,6.1c0.8,0.8,1.2,1.7,1.2,2.8v27.4c0,1.1-0.4,2-1.2,2.8c-0.8,0.8-1.7,1.2-2.8,1.2H57.9
		c-1.1,0-2-0.4-2.8-1.2c-0.8-0.8-1.2-1.7-1.2-2.8V9c0-1.1,0.4-2,1.2-2.8C55.9,5.4,56.8,5,57.9,5h27.4C86.5,5,87.4,5.4,88.2,6.1z
		 M77.5,22.7l-9.8-7.8v15.6L77.5,22.7z"/>
</g>
<path class="st5" d="M27.9,26.9H8.2c-4.4,0-8.1-3.6-8.1-8.1l0-4c0-4.4,3.6-8.1,8.1-8.1h19.7c4.4,0,8.1,3.6,8.1,8.1v4
	C35.9,23.2,32.3,26.9,27.9,26.9z"/>
<g class="st0">
	<path class="st6" d="M17.6,16.5c0,1.3-0.4,2.3-1.1,3.1c-0.7,0.8-1.8,1.2-3.1,1.2c-1.3,0-2.3-0.4-3.1-1.2c-0.7-0.8-1.1-1.8-1.1-3.1
		c0-1.3,0.4-2.4,1.1-3.1c0.7-0.8,1.8-1.1,3.1-1.1c1.3,0,2.3,0.4,3.1,1.1C17.2,14.1,17.6,15.2,17.6,16.5z M14.8,18.5
		c0.2-0.2,0.4-0.5,0.5-0.9c0.1-0.3,0.1-0.7,0.1-1.2c0-0.5-0.1-0.9-0.2-1.3s-0.3-0.6-0.4-0.8c-0.2-0.2-0.4-0.4-0.6-0.5
		c-0.2-0.1-0.5-0.1-0.8-0.1c-0.3,0-0.5,0-0.8,0.1c-0.2,0.1-0.5,0.3-0.7,0.5c-0.2,0.2-0.3,0.5-0.4,0.9c-0.1,0.4-0.2,0.8-0.2,1.3
		c0,0.5,0.1,0.9,0.2,1.2c0.1,0.3,0.3,0.6,0.4,0.8c0.2,0.2,0.4,0.4,0.6,0.5c0.2,0.1,0.5,0.2,0.8,0.2c0.3,0,0.5-0.1,0.8-0.2
		C14.4,18.9,14.6,18.8,14.8,18.5z"/>
	<path class="st6" d="M26.8,20.6h-2.6l-2.4-3.3l-0.5,0.6v2.7h-2.1v-8.2h2.1v3.7l2.9-3.7h2.4l-3.2,3.8L26.8,20.6z"/>
</g>
<g class="st0">
	<path class="st1" d="M34.6,1.3c0.8,0.8,1.2,1.7,1.2,2.8v27.7c0,1.1-0.4,2.1-1.2,2.8c-0.8,0.8-1.7,1.2-2.8,1.2H4.1
		c-1.1,0-2.1-0.4-2.8-1.2C0.5,34,0.1,33,0.1,31.9V4.2c0-1.1,0.4-2.1,1.2-2.8C2,0.6,3,0.2,4.1,0.2h27.7C32.9,0.2,33.9,0.6,34.6,1.3z
		 M31.8,4.2H17.9v11.9L4.1,31.9h13.9V16.1l13.9,15.8V4.2z"/>
</g>
<g class="st0">
	<path class="st1" d="M32.2,26.9c1,1,1.5,2.3,1.5,3.7s-0.5,2.7-1.5,3.7c-1,1-2.2,1.5-3.7,1.5c-1.5,0-2.7-0.5-3.7-1.5
		c-1-1-1.5-2.2-1.5-3.7c0-0.4,0-0.8,0.1-1.2L10.6,22c-1.1,1-2.3,1.4-3.8,1.4s-2.7-0.5-3.8-1.6c-1-1-1.6-2.3-1.6-3.8
		c0-1.5,0.5-2.8,1.6-3.8c1-1,2.3-1.6,3.8-1.6s2.7,0.5,3.8,1.4l12.7-7.3c-0.1-0.5-0.2-0.9-0.2-1.3c0-1.5,0.5-2.8,1.6-3.8
		c1-1,2.3-1.6,3.8-1.6c1.5,0,2.8,0.5,3.8,1.6c1,1,1.6,2.3,1.6,3.8c0,1.5-0.5,2.8-1.6,3.8c-1,1.1-2.3,1.6-3.8,1.6
		c-1.5,0-2.7-0.5-3.8-1.5l-12.7,7.4c0.1,0.5,0.2,0.9,0.2,1.3c0,0.3-0.1,0.8-0.2,1.3L25,26.7c1-0.9,2.2-1.3,3.5-1.3
		C30,25.4,31.2,25.9,32.2,26.9z"/>
</g>
<g class="st0">
	<path class="st1" d="M0.1,3.9h10.5v27.3H0.1V3.9z M12.7,3.9h10.5v27.3H12.7V3.9z M35.9,3.9v27.3H25.3V3.9H35.9z"/>
</g>
<g class="st0">
	<path class="st1" d="M22.3,0.1c0.9,0,1.7,0.3,2.4,1c0.7,0.7,1,1.5,1,2.4v6.8h6.9c0.9,0,1.7,0.3,2.4,1c0.7,0.7,1,1.5,1,2.4v18.8
		c0,0.9-0.3,1.7-1,2.4c-0.7,0.7-1.4,1-2.4,1H13.8c-1,0-1.8-0.3-2.4-1c-0.7-0.7-1-1.4-1-2.4v-6.9H3.5c-1,0-1.8-0.3-2.4-1
		s-1-1.4-1-2.4V3.5c0-1,0.3-1.8,1-2.4c0.7-0.7,1.5-1,2.4-1H22.3z M3.5,22.3h10.2v10.2h18.8V13.7H22.3V3.5H3.5V22.3z"/>
</g>
<g class="st0">
	<path class="st1" d="M30.2,22.1l0,0.4c0,1.4-0.3,2.8-1,4.2c-0.7,1.4-1.8,2.6-3.1,3.4c-1.4,0.9-3.1,1.4-4.9,1.4
		c-1.7,0-3.4-0.5-4.8-1.4c0.3,0,0.5,0,0.8,0c1.5,0,2.8-0.4,3.9-1.3c-0.7,0-1.3-0.2-1.8-0.6c-0.5-0.4-0.9-0.9-1.1-1.6
		c0.2,0,0.4,0.1,0.6,0.1c0.3,0,0.6,0,0.8-0.1c-0.7-0.2-1.3-0.5-1.8-1.1c-0.5-0.6-0.7-1.2-0.7-2v0c0.5,0.3,0.9,0.4,1.4,0.4
		c-0.4-0.3-0.7-0.6-1-1.1c-0.3-0.5-0.4-1-0.4-1.5c0-0.6,0.1-1.1,0.4-1.6c0.8,1,1.7,1.7,2.9,2.3c1.1,0.6,2.3,0.9,3.6,1
		c-0.1-0.3-0.1-0.5-0.1-0.7c0-0.9,0.3-1.6,0.9-2.2c0.6-0.6,1.4-0.9,2.2-0.9c0.9,0,1.7,0.3,2.3,1c0.7-0.1,1.4-0.4,2-0.8
		C31.1,20,30.7,20.6,30,21c0.6-0.1,1.2-0.3,1.8-0.5C31.4,21.1,30.8,21.7,30.2,22.1z"/>
</g>
<g class="st0">
	<path class="st1" d="M16.3,6c1.1,0.7,2,1.5,2.7,2.7c0.7,1.1,1,2.3,1,3.7c0,1.2-0.3,2.3-0.8,3.3c-0.5,1-1.3,1.9-2.2,2.6
		c-0.9,0.7-2,1.1-3.2,1.3v-5.1h1.7l0.3-2.1h-2.1v-1.4c0-0.3,0.1-0.6,0.3-0.8c0.2-0.2,0.5-0.3,0.9-0.3h0.9V8
		c-0.6-0.1-1.1-0.1-1.6-0.1c-0.8,0-1.5,0.3-2,0.8c-0.5,0.5-0.7,1.2-0.7,2.1v1.6H9.7v2.1h1.9v5.1c-1.2-0.2-2.2-0.6-3.2-1.3
		c-0.9-0.7-1.7-1.5-2.2-2.6c-0.5-1-0.8-2.2-0.8-3.4c0-1.3,0.3-2.6,1-3.7C7,7.5,7.9,6.6,9,6c1.1-0.7,2.3-1,3.7-1
		C14,5,15.2,5.3,16.3,6z"/>
</g>
<g class="st0">
	<path class="st1" d="M10.5,0.2h15.1c1.8,0,3.6,0.5,5.2,1.4s2.8,2.2,3.8,3.8c0.9,1.6,1.4,3.3,1.4,5.2v15.1c0,1.8-0.5,3.6-1.4,5.2
		c-0.9,1.6-2.2,2.8-3.8,3.8s-3.3,1.4-5.2,1.4H10.5c-1.8,0-3.6-0.5-5.2-1.4s-2.8-2.2-3.8-3.8c-0.9-1.6-1.4-3.3-1.4-5.2V10.5
		c0-1.8,0.5-3.6,1.4-5.2s2.2-2.8,3.8-3.8S8.7,0.2,10.5,0.2z M10.2,3.7c-1.8,0-3.3,0.6-4.6,1.9s-1.9,2.8-1.9,4.6v15.7
		c0,1.8,0.6,3.3,1.9,4.6s2.8,1.9,4.6,1.9h15.7c1.8,0,3.3-0.6,4.6-1.9s1.9-2.8,1.9-4.6V10.2c0-1.8-0.6-3.3-1.9-4.6s-2.8-1.9-4.6-1.9
		H10.2z M18.1,9.1c1.6,0,3.1,0.4,4.5,1.2c1.4,0.8,2.5,1.9,3.3,3.3c0.8,1.4,1.2,2.9,1.2,4.5c0,1.6-0.4,3.1-1.2,4.5
		c-0.8,1.4-1.9,2.5-3.3,3.3c-1.4,0.8-2.9,1.2-4.5,1.2s-3.1-0.4-4.5-1.2c-1.4-0.8-2.5-1.9-3.3-3.3c-0.8-1.4-1.2-2.9-1.2-4.5
		c0-1.6,0.4-3.1,1.2-4.5c0.8-1.4,1.9-2.5,3.3-3.3C14.9,9.5,16.4,9.1,18.1,9.1z M18.1,12.7c-1.5,0-2.8,0.5-3.8,1.5
		c-1,1-1.5,2.3-1.5,3.8s0.5,2.8,1.5,3.8c1,1,2.3,1.5,3.8,1.5s2.8-0.5,3.8-1.5c1-1,1.5-2.3,1.5-3.8s-0.5-2.8-1.5-3.8
		C20.8,13.2,19.6,12.7,18.1,12.7z M27.4,6.4c0.6,0,1.1,0.2,1.6,0.7c0.4,0.4,0.7,1,0.7,1.6c0,0.6-0.2,1.1-0.7,1.6
		c-0.4,0.4-1,0.7-1.6,0.7s-1.1-0.2-1.6-0.7c-0.4-0.4-0.7-1-0.7-1.6c0-0.6,0.2-1.1,0.7-1.6C26.3,6.7,26.8,6.4,27.4,6.4z"/>
</g>
<g class="st0">
	<path class="st1" d="M32.2,10.6l0.1,1c0,3.3-0.8,6.6-2.4,9.7c-1.7,3.3-4.1,5.9-7.1,7.9c-3.3,2.2-7.1,3.3-11.4,3.3
		c-4.1,0-7.8-1.1-11.2-3.3c0.6,0.1,1.2,0.1,1.8,0.1c3.4,0,6.4-1,9.1-3.1c-1.6-0.1-3-0.5-4.2-1.5c-1.3-0.9-2.1-2.2-2.6-3.7
		c0.5,0.1,0.9,0.2,1.4,0.2c0.7,0,1.3-0.1,1.9-0.2c-1.7-0.4-3-1.2-4.2-2.6c-1.1-1.3-1.7-2.9-1.7-4.7v-0.1c1.1,0.6,2.2,0.9,3.3,0.9
		c-1-0.6-1.7-1.5-2.3-2.6c-0.6-1.1-0.9-2.3-0.9-3.6c0-1.3,0.3-2.5,1-3.7c1.8,2.2,4.1,4.1,6.7,5.4s5.5,2.1,8.5,2.3
		c-0.2-0.6-0.2-1.1-0.2-1.7c0-2,0.7-3.8,2.2-5.2c1.4-1.4,3.2-2.2,5.1-2.2c2.2,0,4,0.8,5.5,2.3c1.7-0.3,3.2-0.9,4.7-1.8
		C34.3,5.7,33.2,7,31.7,8c1.5-0.2,2.9-0.6,4.2-1.2C34.8,8.3,33.6,9.6,32.2,10.6z"/>
</g>
<path class="st5" d="M24.6,11.7l0,0.5c0,1.6-0.4,3.1-1.1,4.7c-0.8,1.6-1.9,2.9-3.3,3.8c-1.5,1.1-3.3,1.6-5.3,1.6
	c-1.9,0-3.6-0.5-5.2-1.6c0.3,0,0.5,0,0.8,0c1.6,0,3-0.5,4.2-1.5c-0.7,0-1.4-0.3-1.9-0.7c-0.6-0.4-1-1-1.2-1.8
	c0.2,0.1,0.4,0.1,0.6,0.1c0.3,0,0.6,0,0.9-0.1c-0.8-0.2-1.4-0.6-1.9-1.2c-0.5-0.6-0.8-1.4-0.8-2.2v0c0.5,0.3,1,0.4,1.5,0.4
	c-0.4-0.3-0.8-0.7-1.1-1.2c-0.3-0.5-0.4-1.1-0.4-1.7c0-0.6,0.1-1.2,0.4-1.8c0.8,1.1,1.9,1.9,3.1,2.6s2.5,1,3.9,1.1
	c-0.1-0.3-0.1-0.6-0.1-0.8c0-1,0.3-1.8,1-2.5s1.5-1,2.4-1c1,0,1.9,0.4,2.5,1.1c0.8-0.2,1.5-0.4,2.2-0.8c-0.3,0.8-0.8,1.5-1.5,2
	c0.7-0.1,1.3-0.3,1.9-0.6C25.8,10.6,25.3,11.2,24.6,11.7z"/>
<g class="st0">
	<path class="st1" d="M12.7,35.9c-0.5,0-0.9-0.2-1.3-0.5s-0.5-0.8-0.5-1.3v-5.4H3.7c-0.9,0-1.8-0.3-2.5-1c-0.7-0.7-1-1.5-1-2.6V3.7
		c0-0.9,0.3-1.8,1-2.5s1.5-1,2.5-1h28.6c0.9,0,1.8,0.3,2.5,1s1,1.5,1,2.5v21.4c0,1-0.3,1.9-1,2.6c-0.7,0.7-1.5,1-2.5,1H21.5
		l-6.6,6.6c-0.4,0.3-0.8,0.5-1.3,0.5H12.7z M14.4,25.2v5.5l5.5-5.5h12.4V3.7H3.7v21.4H14.4z"/>
</g>
<g class="st0">
	<path class="st1" d="M12.6,9.5L5.5,18c-0.8-2.2-1.1-4.5-0.8-6.9c0.3-2.4,1.1-4.5,2.5-6.3L12.6,9.5z M11.8,11.6
		c-0.1,0.5-0.1,1.1,0,1.8c0.1,0.4,0.1,0.7,0.3,1c0.6,1.3,1.5,2.2,2.7,2.8c1.3,0.6,2.5,0.7,3.8,0.2h0.1l-7.5,8.8
		c-0.3-0.4-0.6-0.8-1.1-1.3l-0.3-0.5c-1-1.2-1.7-2.2-2.2-2.8c-0.7-1.1-1.3-2.1-1.8-3L11.8,11.6z M7.6,4.2c1.2-1.3,2.6-2.4,4.2-3.1
		c1.6-0.7,3.3-1.1,5.1-1.1c1.1,0,2.1,0.1,3.2,0.4l-7,8.3L7.6,4.2z M11.7,26.9c1.2,1.6,2,3,2.6,4c0.5,0.8,1,2.1,1.6,3.8
		c0.1,0.4,0.2,0.7,0.3,0.8c0.2,0.3,0.5,0.4,0.8,0.4c0.3,0,0.5-0.1,0.6-0.3s0.2-0.4,0.3-0.8l0.6-1.8c0.2-0.6,0.4-1,0.5-1.2
		c0.5-1.2,1.3-2.6,2.4-4.1c0.5-0.6,1.2-1.5,2.2-2.8c1.9-2.4,3.3-4.3,4-5.6c1-1.9,1.6-3.9,1.7-6.1c0.1-2.2-0.2-4.2-1.1-6.1L11.7,26.9
		z M20.9,0.8c1.5,0.5,2.8,1.2,4,2.2c1.2,1,2.2,2.2,2.9,3.6L22,13.4c0.1-0.6,0.1-1.2,0-1.9c-0.1-0.5-0.2-1-0.5-1.6
		c-0.6-1.1-1.5-1.9-2.7-2.4c-1.2-0.4-2.4-0.5-3.6-0.1l-0.1,0.1L20.9,0.8L20.9,0.8z"/>
</g>
<g class="st0">
	<path class="st1" d="M35.8,18.2l-4.5,4.5v-9L35.8,18.2z M0.1,18.1l4.5-4.5v9L0.1,18.1z"/>
</g>
<g class="st0">
	<path class="st1" d="M28.3,7.5C28.7,8,29,8.6,29,9.2v17.2c0,0.7-0.2,1.3-0.7,1.8c-0.5,0.5-1.1,0.7-1.8,0.7H9.3
		c-0.7,0-1.3-0.2-1.8-0.7c-0.5-0.5-0.7-1.1-0.7-1.8V9.2c0-0.7,0.2-1.3,0.7-1.8C8,7,8.6,6.8,9.3,6.8h17.2C27.2,6.8,27.8,7,28.3,7.5z
		 M26.5,9.2H9.3v17.2h17.2V9.2z M24.7,24H11.2l3.3-4.4l2.4,2.9l3.4-4.4L24.7,24z"/>
</g>
<ellipse class="st3" cx="17.8" cy="18.1" rx="17.7" ry="17.7"/>
<path class="st7" d="M9,16.1h3.9c0.3,0,0.6,0.2,0.6,0.6v8.9c0,0.3-0.2,0.6-0.6,0.6H9c-0.3,0-0.6-0.2-0.6-0.6v-8.9
	C8.5,16.4,8.7,16.1,9,16.1z M14.8,24.1v-6.4c0-1.6,0.4-3.1,1.3-4.5c0.5-0.8,1.6-2.1,2.3-2.8c0.1-0.2,0.7-0.6,0.7-0.8
	c0-0.3,0-0.8,0-1.7c0-0.6,0.5-1.1,1.1-1.1h0c1,0,1.4,1,1.4,1s0.9,1.8,0.1,3.9c-0.7,1.8-0.8,2-0.8,2s-0.2,0.3,0.5,0.3
	c0,0,4.4,0,4.5,0c0.3,0,1.4,0.3,1.3,1.6c0,1-0.6,1.3-1,1.4c0,0-0.1,0.1,0,0.1c0,0,0,0,0,0c0.3,0.2,1,0.6,0.9,1.4
	c0,0.9-0.4,1.2-1.1,1.4c0,0-0.1,0.1-0.1,0.1c0,0,0,0,0,0c0.3,0.2,0.7,0.5,0.7,1.3c0,0.8-0.6,1.1-0.9,1.2c0,0-0.1,0.1-0.1,0.1
	c0,0,0,0,0,0c0.2,0.1,0.5,0.4,0.5,1.1c0,0.3-0.1,0.6-0.3,0.7c-0.2,0.3-0.6,0.4-0.9,0.4l-9.7,0C15.4,24.8,14.8,24.8,14.8,24.1
	L14.8,24.1z"/>
</svg>
