<svg id="Layer_1" data-name="Layer 1" xmlns="http://www.w3.org/2000/svg" viewBox="0 0 46.1 46.1"><title>18</title><g id="_Group_" data-name="&lt;Group&gt;"><circle id="_Path_" data-name="&lt;Path&gt;" cx="23.05" cy="23.05" r="23.05" style="fill:#558dfd"/><g id="_Group_2" data-name="&lt;Group&gt;"><rect id="_Path_2" data-name="&lt;Path&gt;" x="10.76" y="20.74" width="7" height="14" rx="0.65" ry="0.65" style="fill:#fff"/><path id="_Compound_Path_" data-name="&lt;Compound Path&gt;" d="M390.25,775.43a2.25,2.25,0,0,0-.66-1.72,2.92,2.92,0,0,0,.87-2.29c0-1.2-.58-2.41-1.29-2.41h-0.34l-6.89.33a9.93,9.93,0,0,0,.95-2.25c0.15-.85,1.08-4.3.38-5.86s-3.26-1.4-3.26,1v1.56c0,1-2,2.63-2.87,3.38-0.49.38-3.13,3.84-3.13,5.21V783c0,0.57,1.65,1,1,1h13.17v-0.21a1.68,1.68,0,0,0,1.15-1.84,2.18,2.18,0,0,0-.54-1.51,1.52,1.52,0,0,0,1.18-1.7,1.94,1.94,0,0,0-.56-1.43A2,2,0,0,0,390.25,775.43Zm-1.8,1.66v0h0Z" transform="translate(-355.24 -751.26)" style="fill:#fff"/></g></g></svg>