<?xml version="1.0" encoding="utf-8"?>
<!-- Generator: Adobe Illustrator 25.2.1, SVG Export Plug-In . SVG Version: 6.00 Build 0)  -->
<svg version="1.1" xmlns="http://www.w3.org/2000/svg" xmlns:xlink="http://www.w3.org/1999/xlink" x="0px" y="0px"
	 viewBox="0 0 24 24" style="enable-background:new 0 0 24 24;" xml:space="preserve">
<style type="text/css">
	.st0{fill:#2B2B2B;}
</style>
<g id="Layer_1">
</g>
<g id="Layer_2">
</g>
<g id="Layer_3">
</g>
<g id="Layer_5">
</g>
<g id="Layer_4">
	<path d="M22.4,12.3c0-1-0.5-1.9-1.5-2.3c-0.7-0.3-1.3-0.3-1.4-0.3c0,0,0,0,0,0l-3,0c-0.1,0-0.1,0-0.2,0
		c-0.1-0.5,0.1-0.6,0.4-1c0.5-0.6,1.3-2.1,1.5-3.2c0.1-0.6,0-1.3-0.2-1.9c-0.1-0.4-0.4-1.2-1-1.6c-0.3-0.2-0.5-0.3-0.8-0.3
		c-0.8,0-1.4,0.7-1.5,1.4c0,0.1-0.1,0.3-0.1,0.4c-0.1,0.7-0.2,1.4-1.1,2.5c-0.6,0.7-0.8,0.9-1.1,1.1c-0.3,0.2-0.6,0.5-1.1,1.1
		c-0.4,0.5-0.7,1-1.1,1.6c-0.4,0.7-0.9,1.4-1.3,1.9c-0.2,0.2-0.3,0.3-0.3,0.3H7.1c-0.1-0.1-0.1-0.3-0.2-0.4
		c-0.2-0.2-0.5-0.3-0.7-0.3l-3.5,0c-0.6,0-1,0.5-1,1v8.9c0,0.3,0.1,0.5,0.3,0.7c0.2,0.2,0.5,0.3,0.7,0.3l3.5,0
		c0.3,0,0.5-0.1,0.7-0.3c0.1-0.1,0.2-0.2,0.2-0.4h0.7c0.1,0.1,0.3,0.2,0.4,0.3c0.1,0.1,0.6,0.4,1.1,0.4h9.7c0,0,0,0,0.1,0
		c0,0,0.1,0,0.1,0c0.2,0,0.6,0,1-0.2c0.4-0.2,0.8-0.6,1-1.3c0.1-0.4,0-0.8-0.1-1.1c0.3-0.3,0.6-0.7,0.7-1.2c0.1-0.6,0-1-0.2-1.4
		c0.4-0.3,0.7-0.8,0.8-1.5c0.1-0.6-0.1-1.2-0.4-1.6C22.2,13.6,22.4,13.1,22.4,12.3z M6.3,21c0,0.1,0,0.2-0.1,0.2
		c-0.1,0.1-0.1,0.1-0.2,0.1l-3.3,0c-0.1,0-0.1,0-0.2-0.1c-0.1-0.1-0.1-0.1-0.1-0.2v-8.3c0-0.2,0.1-0.3,0.3-0.3l3.3,0
		c0.1,0,0.1,0,0.2,0.1c0.1,0.1,0.1,0.1,0.1,0.2V21z M19.9,13.9c0,0,1.1,0.2,0.9,1.5c-0.1,1.1-1,1.2-1.2,1.2c0,0,0,0,0,0
		s0.9,0.3,0.7,1.4c-0.2,0.9-1.1,1-1.1,1s0.7,0.3,0.5,1.1c-0.2,0.9-1,0.9-1.3,0.9c0,0-8.7,0-8.9,0c-0.2,0-0.5-0.1-0.6-0.2
		c-0.1-0.1-0.5-0.4-0.5-0.4H7.5v-7.5h1.4c0,0,0,0,0,0c0,0,0.2,0,0.7-0.5c0.9-1,1.5-2.4,2.2-3.3c0.9-1.1,1-0.7,2.1-2
		c1.1-1.4,1.1-2.2,1.2-3c0.1-0.3,0.4-0.9,0.7-1c0.3-0.1,0.7,0,0.9,0.2c0.4,0.5,0.4,1.9,0.3,2.7c-0.1,0.9-0.8,2.2-1.2,2.6
		c-0.4,0.4-0.6,0.8-0.5,1.5c0.1,0.6,0.8,0.6,0.8,0.6l2.8,0c0,0,2,0,2,1.7C21,13.8,19.9,13.9,19.9,13.9z"/>
</g>
</svg>
