<?xml version="1.0" encoding="utf-8"?>
<!-- Generator: Adobe Illustrator 23.0.3, SVG Export Plug-In . SVG Version: 6.00 Build 0)  -->
<svg version="1.1" id="Layer_1" xmlns="http://www.w3.org/2000/svg" xmlns:xlink="http://www.w3.org/1999/xlink" x="0px" y="0px"
	 viewBox="0 0 36 36" style="enable-background:new 0 0 36 36;" xml:space="preserve">
<style type="text/css">
	.st0{fill:#2B2B2B;}
</style>
<g>
	<path class="st0" d="M13.7,7.3h9.5c1.2,0,2.2,0.3,3.2,0.9s1.8,1.4,2.4,2.4s0.9,2.1,0.9,3.2v9.5c0,1.2-0.3,2.2-0.9,3.2
		s-1.4,1.8-2.4,2.4s-2.1,0.9-3.2,0.9h-9.5c-1.2,0-2.2-0.3-3.2-0.9s-1.8-1.4-2.4-2.4s-0.9-2.1-0.9-3.2v-9.5c0-1.2,0.3-2.2,0.9-3.2
		s1.4-1.8,2.4-2.4S12.5,7.3,13.7,7.3z M13.5,9.5c-1.1,0-2.1,0.4-2.9,1.2s-1.2,1.7-1.2,2.9v9.9c0,1.1,0.4,2.1,1.2,2.9
		s1.7,1.2,2.9,1.2h9.9c1.1,0,2.1-0.4,2.9-1.2s1.2-1.7,1.2-2.9v-9.9c0-1.1-0.4-2.1-1.2-2.9s-1.7-1.2-2.9-1.2H13.5z M18.4,12.9
		c1,0,2,0.3,2.8,0.8c0.9,0.5,1.5,1.2,2.1,2.1c0.5,0.9,0.8,1.8,0.8,2.8c0,1-0.3,2-0.8,2.8s-1.2,1.5-2.1,2.1s-1.8,0.8-2.8,0.8
		s-2-0.3-2.8-0.8s-1.5-1.2-2.1-2.1s-0.8-1.8-0.8-2.8c0-1,0.3-2,0.8-2.8c0.5-0.9,1.2-1.5,2.1-2.1C16.5,13.1,17.4,12.9,18.4,12.9z
		 M18.4,15.2c-0.9,0-1.7,0.3-2.4,1c-0.7,0.7-1,1.5-1,2.4s0.3,1.7,1,2.4s1.5,1,2.4,1s1.7-0.3,2.4-1s1-1.5,1-2.4s-0.3-1.7-1-2.4
		C20.2,15.5,19.4,15.2,18.4,15.2z M24.3,11.2c0.4,0,0.7,0.1,1,0.4c0.3,0.3,0.4,0.6,0.4,1c0,0.4-0.1,0.7-0.4,1
		c-0.3,0.3-0.6,0.4-1,0.4s-0.7-0.1-1-0.4c-0.3-0.3-0.4-0.6-0.4-1c0-0.4,0.1-0.7,0.4-1C23.6,11.3,23.9,11.2,24.3,11.2z"/>
</g>
</svg>
