<?xml version="1.0" encoding="utf-8"?>
<!-- Generator: Adobe Illustrator 25.4.1, SVG Export Plug-In . SVG Version: 6.00 Build 0)  -->
<svg version="1.1" xmlns="http://www.w3.org/2000/svg" xmlns:xlink="http://www.w3.org/1999/xlink" x="0px" y="0px"
	 viewBox="0 0 24 24" style="enable-background:new 0 0 24 24;" xml:space="preserve">
<style type="text/css">
	.st0{fill:#2B2B2B;}
</style>
<path d="M15,22.8H9c-5.4,0-7.8-2.3-7.8-7.8V9c0-5.4,2.3-7.8,7.8-7.8h6c5.4,0,7.8,2.3,7.8,7.8v6
	C22.8,20.4,20.4,22.8,15,22.8z M9,2.8C4.4,2.8,2.8,4.4,2.8,9v6c0,4.6,1.6,6.2,6.2,6.2h6c4.6,0,6.2-1.6,6.2-6.2V9
	c0-4.6-1.6-6.2-6.2-6.2H9z"/>
<path d="M15.5,19.2c-1.5,0-2.8-1.2-2.8-2.8v-9c0-1.5,1.2-2.8,2.8-2.8s2.8,1.2,2.8,2.8v9C18.2,18,17,19.2,15.5,19.2z
	 M15.5,6.2c-0.7,0-1.2,0.6-1.2,1.2v9c0,0.7,0.6,1.2,1.2,1.2c0.7,0,1.2-0.6,1.2-1.2v-9C16.8,6.8,16.2,6.2,15.5,6.2z"/>
<path d="M8.5,19.2c-1.5,0-2.8-1.2-2.8-2.8V13c0-1.5,1.2-2.8,2.8-2.8s2.8,1.2,2.8,2.8v3.5C11.2,18,10,19.2,8.5,19.2z
	 M8.5,11.8c-0.7,0-1.2,0.6-1.2,1.2v3.5c0,0.7,0.6,1.2,1.2,1.2s1.2-0.6,1.2-1.2V13C9.8,12.3,9.2,11.8,8.5,11.8z"/>
</svg>
