<?xml version="1.0" encoding="utf-8"?>
<!-- Generator: Adobe Illustrator 25.4.1, SVG Export Plug-In . SVG Version: 6.00 Build 0)  -->
<svg version="1.1" xmlns="http://www.w3.org/2000/svg" xmlns:xlink="http://www.w3.org/1999/xlink" x="0px" y="0px"
	 viewBox="0 0 24 24" style="enable-background:new 0 0 24 24;" xml:space="preserve">
<style type="text/css">
	.st0{fill:#2B2B2B;stroke:#2B2B2B;stroke-width:0.5;stroke-miterlimit:10;}
</style>
<g>
	<g>
		<path d="M10,7.5H2.4C2,7.5,1.5,7.1,1.5,6.6s0.4-0.9,0.9-0.9H10c0.4,0,0.9,0.3,0.9,0.9S10.4,7.5,10,7.5z"/>
		<path d="M10,12.9H2.4c-0.4,0-0.9-0.3-0.9-0.9c0-0.5,0.3-0.9,0.9-0.9H10c0.4,0,0.9,0.3,0.9,0.9
			C10.8,12.5,10.4,12.9,10,12.9z"/>
		<path d="M10,18.2H2.4c-0.4,0-0.9-0.3-0.9-0.9s0.3-0.9,0.9-0.9H10c0.4,0,0.9,0.3,0.9,0.9S10.4,18.2,10,18.2z"/>
	</g>
	<g>
		<path d="M21.6,7.5H14c-0.4,0-0.9-0.4-0.9-0.9s0.4-0.9,0.9-0.9h7.5c0.4,0,0.9,0.3,0.9,0.9S22,7.5,21.6,7.5z"/>
		<path d="M21.6,12.9H14c-0.4,0-0.9-0.3-0.9-0.9c0-0.5,0.3-0.9,0.9-0.9h7.5c0.4,0,0.9,0.3,0.9,0.9
			C22.4,12.5,22,12.9,21.6,12.9z"/>
		<path d="M21.6,18.2H14c-0.4,0-0.9-0.3-0.9-0.9s0.3-0.9,0.9-0.9h7.5c0.4,0,0.9,0.3,0.9,0.9S22,18.2,21.6,18.2z"/>
	</g>
</g>
</svg>
