<svg fill="currentColor" version="1.1" xmlns="http://www.w3.org/2000/svg" x="0px" y="0px"
     viewBox="0 0 32 32" style="enable-background:new 0 0 32 32;" xml:space="preserve">

    <path d="M23,25.5v1c0,0.3-0.2,0.5-0.5,0.5h-13C9.2,27,9,26.8,9,26.5v-1C9,25.2,9.2,25,9.5,25h13
	C22.8,25,23,25.2,23,25.5z M22.5,5h-13C9.2,5,9,5.2,9,5.5v1C9,6.8,9.2,7,9.5,7h13C22.8,7,23,6.8,23,6.5v-1C23,5.2,22.8,5,22.5,5z
	 M18.7,20H17v-8h1.7c0.2,0,0.3-0.1,0.3-0.3c0-0.1,0-0.1-0.1-0.2l-2.7-3.4c-0.1-0.1-0.3-0.2-0.4,0c0,0,0,0,0,0l-2.7,3.4
	c-0.1,0.1-0.1,0.3,0,0.4c0.1,0,0.1,0.1,0.2,0.1H15v8h-1.7c-0.2,0-0.3,0.1-0.3,0.3c0,0.1,0,0.1,0.1,0.2l2.7,3.4
	c0.1,0.1,0.3,0.2,0.4,0c0,0,0,0,0,0l2.7-3.4c0.1-0.1,0.1-0.3,0-0.4C18.8,20,18.8,20,18.7,20z"/>
</svg>
