<svg id="Layer_1" data-name="Layer 1" xmlns="http://www.w3.org/2000/svg" viewBox="0 0 183 33.51"><defs><style>.cls-1{fill:#4592ff;}</style></defs><title>microweber_cms_logo</title><path class="cls-1" d="M36.93,26h0a7,7,0,0,1-1.07,1.51h0a6.65,6.65,0,0,1-3,1.89L20.76,33.09a1.94,1.94,0,0,1-1.59-.22,1.8,1.8,0,0,1-.82-1.32L16.16,8.76l.5,0,1.09.08L19.93,9a1.38,1.38,0,0,1,1.3,1.07l2.22,16.8,4.59-1L25.4,9.43l.53,0,.82.06,1.5.11a1.18,1.18,0,0,1,1.05.94L32,25.08l3.46-.74L32.45,10a4.87,4.87,0,0,0-3.94-3.63L12.34,4.19a1.87,1.87,0,0,0-1.52.46,1.75,1.75,0,0,0-.6,1.41l1.49,25.88.08,1.5,0,.56c-4.68-1-8.13-4.6-8.17-9.37L3.5,7.84a6.38,6.38,0,0,1,2.21-5A9.56,9.56,0,0,1,10.52.68a13.66,13.66,0,0,1,4.85,0L27.91,3.08a9.87,9.87,0,0,1,7.49,7.07l2.27,9.92A8.6,8.6,0,0,1,36.93,26Z" transform="translate(-3.5 -0.49)"/><path class="cls-1" d="M50.25,8.68h5.32l1.34,12.16H57L63.69,8.68h5.37l-3.7,16.8h-3.6l3.18-13.36h0L57.5,25.48H54.56L52.87,12.12h0L50.2,25.48H46.56Z" transform="translate(-3.5 -0.49)"/><path class="cls-1" d="M71.26,13.32h3.5L72.07,25.48h-3.5Zm3.89-1.88h-3.5l.64-2.76h3.5Z" transform="translate(-3.5 -0.49)"/><path class="cls-1" d="M84.8,17.53c0-1.44-.81-2-2.33-2-2.64,0-3.55,3.06-3.55,5.15,0,1.46.64,2.64,2.4,2.64A2.94,2.94,0,0,0,84.14,21h3.47a6.5,6.5,0,0,1-6.53,4.77c-3.53,0-5.63-1.67-5.63-5.22C75.45,16.45,78,13,82.59,13c3.09,0,5.61,1.31,5.68,4.54Z" transform="translate(-3.5 -0.49)"/><path class="cls-1" d="M91.16,13.32h3.31L94,15.5l0,.05A4.67,4.67,0,0,1,98.36,13a7.83,7.83,0,0,1,1.08.07l-.71,3.24a8.27,8.27,0,0,0-1.47-.21c-2.67,0-3.62,1.93-4.09,4L92,25.48H88.52Z" transform="translate(-3.5 -0.49)"/><path class="cls-1" d="M105.85,13c3.48,0,5.9,1.64,5.9,5.15,0,4.28-2.76,7.66-7.37,7.66-3.52,0-5.8-1.76-5.8-5.24C98.58,16.45,101.35,13,105.85,13Zm-1.29,10.3c2.59,0,3.72-3.06,3.72-5.1,0-1.63-.74-2.69-2.55-2.69-2.55,0-3.67,3-3.67,5.06A2.5,2.5,0,0,0,104.56,23.29Z" transform="translate(-3.5 -0.49)"/><path class="cls-1" d="M126.66,25.48H123l-.44-8.54h0l-3.92,8.54H115l-1.4-12.16h3.55l.49,8.56h.05l3.89-8.56h3.53l.39,8.49h.05l4.06-8.49h3.67Z" transform="translate(-3.5 -0.49)"/><path class="cls-1" d="M136.41,20.21a6.48,6.48,0,0,0,0,.7c0,1.41.91,2.38,2.79,2.38a3,3,0,0,0,2.6-1.67h3.48c-1.1,2.73-2.92,4.18-6.57,4.18-3.37,0-5.63-1.85-5.63-5.31,0-3.88,2.67-7.5,7-7.5,3.53,0,5.9,1.79,5.9,5.31a9.74,9.74,0,0,1-.19,1.91Zm6.17-2.12c0-1.25-.32-2.59-2.35-2.59a3.53,3.53,0,0,0-3.45,2.59Z" transform="translate(-3.5 -0.49)"/><path class="cls-1" d="M150.24,8.68h3.48l-1.3,5.93h.05A4.61,4.61,0,0,1,156.21,13c3.21,0,4.56,2.35,4.56,5.17,0,3.76-2.25,7.64-6.56,7.64-1.74,0-3.36-.54-4-2.23h-.05l-.41,1.91h-3.21Zm.81,12.05a2.39,2.39,0,0,0,2.52,2.56c2.62,0,3.72-3,3.72-5.08,0-1.53-.68-2.71-2.47-2.71C152.1,15.5,151.05,18.56,151.05,20.73Z" transform="translate(-3.5 -0.49)"/><path class="cls-1" d="M165.42,20.21c0,.3,0,.52,0,.7,0,1.41.9,2.38,2.79,2.38a3,3,0,0,0,2.59-1.67h3.48c-1.1,2.73-2.91,4.18-6.56,4.18-3.38,0-5.63-1.85-5.63-5.31,0-3.88,2.67-7.5,7-7.5,3.53,0,5.91,1.79,5.91,5.31a9.73,9.73,0,0,1-.2,1.91Zm6.17-2.12c0-1.25-.32-2.59-2.35-2.59a3.53,3.53,0,0,0-3.45,2.59Z" transform="translate(-3.5 -0.49)"/><path class="cls-1" d="M178.22,13.32h3.31L181,15.5l0,.05A4.65,4.65,0,0,1,185.42,13a7.83,7.83,0,0,1,1.08.07l-.71,3.24a8.27,8.27,0,0,0-1.47-.21c-2.67,0-3.62,1.93-4.09,4l-1.17,5.39h-3.48Z" transform="translate(-3.5 -0.49)"/></svg>