<svg xmlns="http://www.w3.org/2000/svg" height="40" viewBox="0 96 960 960" width="40"><path d="M329.59 801.127h300.82v-50.254H329.59v50.254Zm0-164.871h300.82v-50.255H329.59v50.255Zm-87.025 319.743q-25.788 0-44.176-18.388t-18.388-44.176v-634.87q0-25.788 18.388-44.176t44.176-18.388h337.59l199.844 199.844v497.59q0 25.788-18.388 44.176t-44.176 18.388h-474.87Zm312.462-536.513v-173.23H242.565q-4.616 0-8.462 3.847-3.847 3.846-3.847 8.462v634.87q0 4.616 3.847 8.462 3.846 3.847 8.462 3.847h474.87q4.616 0 8.462-3.847 3.847-3.846 3.847-8.462V419.486H555.027Zm-324.771-173.23v173.23-173.23V905.744 246.256Z"/></svg>