<?xml version="1.0" encoding="utf-8"?>
<!-- Generator: Adobe Illustrator 25.4.1, SVG Export Plug-In . SVG Version: 6.00 Build 0)  -->
<svg version="1.1" id="Layer_1" xmlns="http://www.w3.org/2000/svg" xmlns:xlink="http://www.w3.org/1999/xlink" x="0px" y="0px"
	 viewBox="0 0 24 24" style="enable-background:new 0 0 24 24;" xml:space="preserve">
<style type="text/css">
	.st0{fill:none;stroke:#2B2B2B;stroke-width:1.5;stroke-linecap:round;stroke-linejoin:round;}
	.st1{fill:none;stroke:#292D32;stroke-width:1.5;stroke-linecap:round;stroke-linejoin:round;}
	.st2{fill:none;}
</style>
<g>
	<path id="Vector" class="st0" d="M12.3,3l8.2,3.3c0.3,0.2,0.6,0.5,0.6,0.9v3c0,0.5-0.4,0.9-0.9,0.9H3.8c-0.5,0-0.9-0.4-0.9-0.9v-3
		c0-0.4,0.2-0.7,0.6-0.9L11.7,3C11.9,2.9,12.1,2.9,12.3,3z"/>
	<path id="Vector-2" class="st0" d="M21.2,21.2H2.8v-2.7c0-0.5,0.4-0.9,0.9-0.9h16.5c0.5,0,0.9,0.4,0.9,0.9V21.2z"/>
	<path id="Vector-3" class="st0" d="M4.7,17.5v-6.4"/>
	<path id="Vector-4" class="st0" d="M8.3,17.5v-6.4"/>
	<path id="Vector-5" class="st0" d="M12,17.5v-6.4"/>
	<path id="Vector-6" class="st0" d="M15.7,17.5v-6.4"/>
	<path id="Vector-7" class="st0" d="M19.3,17.5v-6.4"/>
	<path id="Vector-8" class="st1" d="M1.9,21.2h20.1"/>
	<path id="Vector-9" class="st0" d="M13.4,7.4c0,0.8-0.6,1.4-1.4,1.4s-1.4-0.6-1.4-1.4S11.2,6,12,6S13.4,6.7,13.4,7.4z"/>
	<path id="Vector-10" class="st2" d="M1,1h22v22H1V1z"/>
</g>
</svg>
