<?xml version="1.0" encoding="utf-8"?>
<!-- Generator: Adobe Illustrator 25.2.1, SVG Export Plug-In . SVG Version: 6.00 Build 0)  -->
<svg version="1.1" xmlns="http://www.w3.org/2000/svg" xmlns:xlink="http://www.w3.org/1999/xlink" x="0px" y="0px"
	 viewBox="0 0 24 24" style="enable-background:new 0 0 24 24;" xml:space="preserve">
<g id="Layer_1">
</g>
<g id="Layer_2">
</g>
<g id="Layer_3">
</g>
<g id="Layer_5">
</g>
<g id="Layer_4">
</g>
<g id="Layer_7">
</g>
<g id="Layer_8">
</g>
<g id="Layer_11">
</g>
<g id="Layer_9">
</g>
<g id="Layer_10">
</g>
<g id="Layer_12">
	<g>
		<path d="M12.4,8.7c1,0,1.9-0.8,1.9-1.9c0-1-0.8-1.9-1.9-1.9s-1.9,0.8-1.9,1.9C10.5,7.8,11.4,8.7,12.4,8.7z M12.4,5.6
			c0.7,0,1.2,0.5,1.2,1.2c0,0.7-0.5,1.2-1.2,1.2s-1.2-0.5-1.2-1.2C11.2,6.2,11.8,5.6,12.4,5.6z"/>
		<path d="M2.9,19.8c-0.2,0-0.3,0.2-0.3,0.3c0,0.2,0.2,0.3,0.3,0.3h1.6h1.7h5.3h1.7h5.3h1.7H22c0.2,0,0.3-0.2,0.3-0.3
			c0-0.2-0.2-0.3-0.3-0.3h-1.3v-9.3H22c0.2,0,0.3-0.2,0.3-0.3V6.8c0-0.1-0.1-0.3-0.2-0.3l-9.5-3.9c-0.1,0-0.2,0-0.3,0L2.7,6.5
			C2.6,6.5,2.5,6.7,2.5,6.8v3.4c0,0.2,0.2,0.3,0.3,0.3h1.3v9.3H2.9z M11.2,10.5v9.3H6.5v-9.3H11.2z M11.9,19.8v-9.3h1.1v9.3H11.9z
			 M18.3,10.5v9.3h-4.7v-9.3H18.3z M20,19.8H19v-9.3H20V19.8z M3.2,7l9.2-3.8L21.6,7v2.8h-1.3h-1.7h-5.3h-1.7H6.2H4.5H3.2V7z
			 M4.8,10.5h1.1v9.3H4.8V10.5z"/>
		<path d="M22.7,21.1H2.1c-0.2,0-0.3,0.2-0.3,0.3s0.2,0.3,0.3,0.3h20.5c0.2,0,0.3-0.2,0.3-0.3S22.8,21.1,22.7,21.1z"/>
	</g>
</g>
<g id="Layer_6">
</g>
</svg>
