<svg id="Layer_1" data-name="Layer 1" xmlns="http://www.w3.org/2000/svg" viewBox="0 0 45.13 45.91"><title>19</title><g id="_Group_" data-name="&lt;Group&gt;"><path id="_Path_" data-name="&lt;Path&gt;" d="M465.11,791.9V759.22a3.44,3.44,0,0,1,3.44-3.44h32.68Z" transform="translate(-465.11 -750.11)" style="fill:#1ea361;fill-rule:evenodd"/><path id="_Path_2" data-name="&lt;Path&gt;" d="M465.11,792.58V791.9l36.12-36.12h0.69a3.44,3.44,0,0,1,3.44,3.44v0.69L469.24,796h-0.69A3.44,3.44,0,0,1,465.11,792.58Z" transform="translate(-465.11 -750.11)" style="fill:#fedb43;fill-rule:evenodd"/><polygon id="_Path_3" data-name="&lt;Path&gt;" points="4.13 45.91 20.12 29.91 36.12 45.91 4.13 45.91" style="fill:#5384c4;fill-rule:evenodd"/><path id="_Path_4" data-name="&lt;Path&gt;" d="M501.23,796L485,779.78l4.13-4.13,16.24,16.24v0.69a3.44,3.44,0,0,1-3.44,3.44h-0.69Z" transform="translate(-465.11 -750.11)" style="fill:#fff;fill-rule:evenodd"/><polygon id="_Path_5" data-name="&lt;Path&gt;" points="40.24 41.78 24.25 25.79 40.24 9.79 40.24 41.78" style="fill:#c2c2c1;fill-rule:evenodd"/><path id="_Path_6" data-name="&lt;Path&gt;" d="M472.29,760.23a5.84,5.84,0,0,1,6.27,1c-0.52.53-1.05,1-1.59,1.56a3.51,3.51,0,0,0-5.57,1.32,3.61,3.61,0,0,0,3.07,5,3.19,3.19,0,0,0,3.46-2.43c-1.1,0-2.19,0-3.28,0,0-.67,0-1.35,0-2,1.83,0,3.7-.1,5.51.07a6.25,6.25,0,0,1-.68,3.93,5.52,5.52,0,0,1-6,2.49A5.78,5.78,0,0,1,472.29,760.23Z" transform="translate(-465.11 -750.11)" style="fill:#efefef"/><g id="_Group_2" data-name="&lt;Group&gt;"><g id="_Group_3" data-name="&lt;Group&gt;"><g id="_Group_4" data-name="&lt;Group&gt;"><path id="_Compound_Path_" data-name="&lt;Compound Path&gt;" d="M498.33,750.11h1.31a11.46,11.46,0,0,1,8.42,4.4,10.78,10.78,0,0,1,2.18,5.8v0.77c-0.08,4-2.66,7.37-4.91,10.51-2.52,3.56-4.84,7.43-5.49,11.81-0.17.74,0,1.78-.85,2.12a2.38,2.38,0,0,1-.6-0.52,22.43,22.43,0,0,0-1.92-7.11,42.44,42.44,0,0,0-4.51-7.27,33.31,33.31,0,0,1-2.78-4.34,11.25,11.25,0,0,1-1.21-7.55,10.64,10.64,0,0,1,2.95-5.35A11.71,11.71,0,0,1,498.33,750.11Zm-0.25,7.12a3.85,3.85,0,0,0-3,3.31,3.74,3.74,0,0,0,2,3.66,4.08,4.08,0,0,0,4.56-.58,3.71,3.71,0,0,0,1-4.12A4,4,0,0,0,498.07,757.24Z" transform="translate(-465.11 -750.11)" style="fill:#dc4b3e"/></g></g><g id="_Group_5" data-name="&lt;Group&gt;"><path id="_Path_7" data-name="&lt;Path&gt;" d="M498.07,757.24a4,4,0,0,1,4.58,2.28,3.71,3.71,0,0,1-1,4.12,4.08,4.08,0,0,1-4.56.58,3.74,3.74,0,0,1-2-3.66A3.85,3.85,0,0,1,498.07,757.24Z" transform="translate(-465.11 -750.11)" style="fill:#802c27"/></g></g></g></svg>