<?xml version="1.0" encoding="utf-8"?>
<!-- Generator: Adobe Illustrator 23.0.3, SVG Export Plug-In . SVG Version: 6.00 Build 0)  -->
<svg version="1.1" id="Layer_1" xmlns="http://www.w3.org/2000/svg" xmlns:xlink="http://www.w3.org/1999/xlink" x="0px" y="0px"
	 viewBox="0 0 36 36" style="enable-background:new 0 0 36 36;" xml:space="preserve">
<g>
	<path d="M28.5,17.7v8.3c0,0.6-0.2,1.2-0.7,1.6c-0.4,0.4-1,0.7-1.6,0.7H10.5c-0.6,0-1.2-0.2-1.6-0.7c-0.4-0.4-0.7-1-0.7-1.6V10.4
		c0-0.6,0.2-1.2,0.7-1.6c0.4-0.4,1-0.7,1.6-0.7h7c-0.1,0.8-0.2,1.3-0.2,1.7c0,1.3,0.5,2.9,1.4,4.7c1,1.9,1.8,3.2,2.4,3.9
		c0.7,0.9,1.3,1.6,1.8,2.2l1.6,1.8l1.7-1.8L28.5,17.7z M15,21v1.6h2.5c-0.3,1.2-1.1,1.8-2.5,1.8c-0.8,0-1.4-0.3-2-0.8
		c-0.5-0.6-0.8-1.2-0.8-2c0-0.8,0.3-1.4,0.8-2c0.5-0.6,1.2-0.8,1.9-0.8c0.8,0,1.4,0.2,1.8,0.7l1.2-1.2c-0.8-0.8-1.8-1.2-3-1.2H15
		c-1.2,0-2.3,0.4-3.2,1.3c-0.9,0.9-1.3,1.9-1.3,3.2c0,1.2,0.4,2.3,1.3,3.2c0.9,0.9,1.9,1.3,3.2,1.3c1.3,0,2.3-0.4,3.1-1.2
		c0.8-0.8,1.2-1.9,1.2-3.2c0-0.4,0-0.6-0.1-0.7H15z M29.6,9.8c0,1.1-0.4,2.5-1.3,4c-0.8,1.5-1.7,2.8-2.5,3.8l-1.3,1.5
		c-0.3-0.3-0.8-0.9-1.4-1.6c-0.6-0.7-1.4-1.9-2.3-3.5s-1.4-3-1.4-4.1c0-1.4,0.5-2.6,1.5-3.6c1-1,2.2-1.5,3.6-1.5s2.6,0.5,3.6,1.5
		C29.1,7.2,29.6,8.4,29.6,9.8z M22.3,9.8c0,0.6,0.2,1.2,0.6,1.6c0.4,0.4,0.9,0.7,1.6,0.7s1.2-0.2,1.6-0.7c0.4-0.4,0.7-1,0.7-1.6
		c0-0.6-0.2-1.2-0.7-1.6c-0.4-0.5-1-0.7-1.6-0.7c-0.6,0-1.1,0.2-1.6,0.7C22.5,8.7,22.3,9.2,22.3,9.8z"/>
</g>
</svg>
