<?xml version="1.0" encoding="utf-8"?>
<!-- Generator: Adobe Illustrator 25.4.1, SVG Export Plug-In . SVG Version: 6.00 Build 0)  -->
<svg version="1.1" xmlns="http://www.w3.org/2000/svg" xmlns:xlink="http://www.w3.org/1999/xlink" x="0px" y="0px"
	 viewBox="0 0 24 24" style="enable-background:new 0 0 24 24;" xml:space="preserve">
<style type="text/css">
	.st0{fill:#2B2B2B;}
</style>
<g>
	<path d="M12,22.7c-0.6,0-1.2-0.2-1.7-0.7l-1.5-1.5c-0.1-0.1-0.4-0.2-0.6-0.2H6.1c-1.3,0-2.4-1.1-2.4-2.4v-2.2
		c0-0.2-0.1-0.5-0.2-0.6l-1.5-1.5c-0.4-0.4-0.7-1-0.7-1.7s0.2-1.2,0.7-1.7l1.5-1.5c0.1-0.1,0.2-0.4,0.2-0.6V6c0-1.3,1.1-2.4,2.4-2.4
		h2.2c0.2,0,0.5-0.1,0.6-0.2l1.5-1.5c0.9-0.9,2.4-0.9,3.3,0l1.5,1.5c0.1,0.1,0.4,0.2,0.6,0.2h2.2c1.3,0,2.4,1.1,2.4,2.4v2.2
		c0,0.2,0.1,0.5,0.2,0.6l1.5,1.5c0.4,0.4,0.7,1,0.7,1.7s-0.2,1.2-0.7,1.7l-1.5,1.5c-0.1,0.1-0.2,0.4-0.2,0.6v2.2
		c0,1.3-1.1,2.4-2.4,2.4h-2.2c-0.2,0-0.5,0.1-0.6,0.2L13.7,22C13.2,22.5,12.6,22.7,12,22.7z M4.5,14.1c0.4,0.4,0.7,1.1,0.7,1.7v2.2
		c0,0.5,0.4,0.9,0.9,0.9h2.2c0.6,0,1.3,0.3,1.7,0.7l1.5,1.5c0.3,0.3,0.9,0.3,1.2,0l1.5-1.5c0.4-0.4,1.1-0.7,1.7-0.7h2.2
		c0.5,0,0.9-0.4,0.9-0.9v-2.2c0-0.6,0.3-1.3,0.7-1.7l1.5-1.5c0.2-0.2,0.2-0.4,0.2-0.6c0-0.2-0.1-0.4-0.2-0.6l-1.5-1.5
		c-0.4-0.4-0.7-1.1-0.7-1.7V6c0-0.5-0.4-0.9-0.9-0.9h-2.2c-0.6,0-1.3-0.3-1.7-0.7L12.6,3c-0.3-0.3-0.9-0.3-1.2,0L9.9,4.5
		C9.5,4.9,8.8,5.2,8.2,5.2H6.1C5.6,5.2,5.2,5.6,5.2,6v2.2c0,0.6-0.3,1.3-0.7,1.7L3,11.4c-0.2,0.2-0.2,0.4-0.2,0.6
		c0,0.2,0.1,0.4,0.2,0.6L4.5,14.1z"/>
	<path d="M15,16c-0.6,0-1-0.4-1-1s0.4-1,1-1s1,0.4,1,1S15.6,16,15,16z"/>
	<path d="M9,10c-0.6,0-1-0.4-1-1s0.4-1,1-1s1,0.4,1,1S9.6,10,9,10z"/>
	<path d="M9,15.7c-0.2,0-0.4-0.1-0.5-0.2c-0.3-0.3-0.3-0.8,0-1.1l6-6c0.3-0.3,0.8-0.3,1.1,0s0.3,0.8,0,1.1l-6,6
		C9.4,15.7,9.2,15.7,9,15.7z"/>
</g>
</svg>
