<?xml version="1.0" encoding="utf-8"?>
<!-- Generator: Adobe Illustrator 23.0.3, SVG Export Plug-In . SVG Version: 6.00 Build 0)  -->
<svg version="1.1" id="Layer_1" xmlns="http://www.w3.org/2000/svg" xmlns:xlink="http://www.w3.org/1999/xlink" x="0px" y="0px"
	 viewBox="0 0 36 36" style="enable-background:new 0 0 36 36;" xml:space="preserve">
<style type="text/css">
	.st0{fill:#2B2B2B;}
	.st1{fill:#FFFFFF;}
</style>
<g>
	<path class="st0" d="M26.3,14v13.5c0,0.6-0.2,1.1-0.7,1.6c-0.4,0.4-1,0.7-1.6,0.7H10.5c-0.6,0-1.2-0.2-1.6-0.7
		c-0.4-0.4-0.7-1-0.7-1.6v-18c0-0.6,0.2-1.1,0.7-1.6c0.4-0.4,1-0.7,1.6-0.7h9L26.3,14z M24,15.1h-5.6V9.5h-7.9v18H24V15.1z"/>
</g>
<circle class="st0" cx="22.8" cy="11" r="7.1"/>
<g>
	<path class="st1" d="M19.1,8.3h7.5v0.9h-7.5V8.3z M19.1,10.6h7.5v0.9h-7.5V10.6z M19.1,12.9h7.5v0.9h-7.5V12.9z"/>
</g>
</svg>
