<?xml version="1.0" encoding="utf-8"?>
<!-- Generator: Adobe Illustrator 23.0.3, SVG Export Plug-In . SVG Version: 6.00 Build 0)  -->
<svg version="1.1" id="Layer_1" xmlns="http://www.w3.org/2000/svg" xmlns:xlink="http://www.w3.org/1999/xlink" x="0px" y="0px"
	 viewBox="0 0 36 36" style="enable-background:new 0 0 36 36;" xml:space="preserve">
<style type="text/css">
	.st0{fill:#2B2B2B;}
</style>
<g>
	<path class="st0" d="M3.5,20.3c-0.5-0.6-0.8-1.2-0.8-1.8c0-0.7,0.3-1.3,0.8-1.8l5.2-5.1l7,7l-7,7L3.5,20.3z M17.8,16.4l7-7
		l-5.1-5.2c-0.6-0.5-1.2-0.8-1.8-0.8c-0.7,0-1.3,0.3-1.8,0.8l-5.1,5.2L17.8,16.4z M24.7,27.6l-5.1,5.2c-0.6,0.5-1.2,0.8-1.8,0.8
		c-0.7,0-1.3-0.3-1.8-0.8l-5.1-5.2l7-7L24.7,27.6z M32,16.7c0.4,0.6,0.6,1.2,0.6,1.8c0,0.7-0.2,1.3-0.6,1.8l-5.2,5.1l-7-7l7-7
		L32,16.7z"/>
</g>
</svg>
