<?xml version="1.0" encoding="utf-8"?>
<!-- Generator: Adobe Illustrator 23.0.3, SVG Export Plug-In . SVG Version: 6.00 Build 0)  -->
<svg version="1.1" xmlns="http://www.w3.org/2000/svg" xmlns:xlink="http://www.w3.org/1999/xlink" x="0px" y="0px"
	 viewBox="0 0 36 36" style="enable-background:new 0 0 36 36;" xml:space="preserve">
<style type="text/css">
	.st0{display:none;}
	.st1{display:inline;fill:#2B2B2B;}
	.st2{display:inline;}
	.st3{fill:#2B2B2B;}
	.st4{display:inline;fill:#2B2B2B;stroke:#2B2B2B;stroke-width:0.5;stroke-miterlimit:10;}
	.st5{display:none;fill:#2B2B2B;}
	.st6{display:inline;fill:#FFFFFF;}
	.st7{display:none;fill:#FFFFFF;}
	.st8{display:none;fill-rule:evenodd;clip-rule:evenodd;fill:#2B2B2B;}
</style>
<g class="st0">
	<path class="st1" d="M11,11.3L22.2,0.1v35.8L11,24.8H2V11.5h9V11.3z M30.9,23.4c-1,1.6-2.4,2.8-4.2,3.6V9.1c1.8,0.8,3.2,2,4.2,3.6
		s1.6,3.4,1.6,5.4C32.3,20,31.9,21.8,30.9,23.4z"/>
</g>
<g class="st0">
	<path class="st1" d="M33.6,29.1v1.8H2.8v-1.8l3.4-3.4V15.4c0-2.7,0.8-5.1,2.4-7.2s3.6-3.5,6.1-4.3V3.4c0-0.9,0.3-1.7,1-2.4
		c0.7-0.7,1.5-1,2.4-1s1.8,0.3,2.4,1c0.7,0.7,1,1.5,1,2.4V4c2.5,0.7,4.6,2.2,6.1,4.3c1.6,2.1,2.4,4.5,2.4,7.2v10.3L33.6,29.1z
		 M21.6,32.5c0,1-0.3,1.8-1,2.4c-0.7,0.7-1.5,1-2.4,1s-1.8-0.3-2.4-1c-0.7-0.7-1-1.5-1-2.4H21.6z"/>
</g>
<g class="st0">
	<path class="st1" d="M25.2,31.3H0.1v-3.5L0.2,27c0.1-0.6,0.3-1.2,0.7-1.8C1.4,24.4,2,23.6,2.8,23c1-0.7,2.2-1.3,3.7-1.8
		c1.7-0.5,3.8-0.8,6.1-0.8c3.7,0,6.6,0.6,8.8,1.8c1.6,0.9,2.7,2.1,3.3,3.5c0.3,0.7,0.4,1.3,0.4,1.8v3.8H25.2z M18.9,10.7
		c0-1.3-0.4-2.5-1.1-3.5S16.1,5.4,15,4.9s-2.4-0.6-3.6-0.4S9.1,5.3,8.2,6.2s-1.5,2-1.7,3.2S6.4,11.9,6.9,13s1.3,2.1,2.3,2.8
		s2.2,1.1,3.5,1.1c1.7,0,3.2-0.6,4.5-1.8C18.3,13.9,18.9,12.4,18.9,10.7z M23.4,4.4c-1.3,0-2.4,0.4-3.4,1.1c1.1,1.6,1.7,3.3,1.7,5.2
		s-0.6,3.6-1.7,5.2c1,0.7,2.2,1.1,3.4,1.1c1.7,0,3.2-0.6,4.5-1.8c1.2-1.2,1.8-2.7,1.8-4.5c0-1.7-0.6-3.2-1.8-4.5
		C26.6,5,25.1,4.4,23.4,4.4z M25.1,20.5c1.1,0.9,2,2,2.6,3.2c0.6,1.3,1,2.6,1.1,4v3.5h7.1v-3.5L35.8,27c-0.1-0.6-0.3-1.1-0.6-1.7
		c-0.4-0.8-1-1.5-1.7-2c-0.8-0.8-1.9-1.4-3.2-1.8C28.9,21,27.1,20.7,25.1,20.5z"/>
</g>
<g class="st0">
	<path class="st1" d="M34.9,4.7C35.6,5.4,36,6.3,36,7.3v21.5c0,1-0.4,1.9-1.1,2.6c-0.7,0.7-1.5,1.1-2.5,1.1H3.7
		c-1,0-1.8-0.3-2.5-1.1c-0.7-0.7-1.1-1.6-1.1-2.6V7.3c0-1,0.4-1.9,1.1-2.6s1.5-1,2.5-1h28.7C33.4,3.7,34.2,4,34.9,4.7z M32.4,7.3
		l-14.4,9l-14.4-9v3.6L18,19.8l14.4-8.9V7.3z"/>
</g>
<g class="st0">
	<path class="st1" d="M24.7,5.1h5.8v3.6l3.7,2.3c0.5,0.3,0.9,0.8,1.2,1.3s0.5,1.1,0.5,1.8v17.8c0,1-0.3,1.8-1,2.5s-1.5,1-2.5,1H3.7
		c-0.9,0-1.8-0.3-2.5-1s-1-1.5-1-2.5V14.1c0-0.7,0.2-1.3,0.5-1.8s0.7-1,1.2-1.3l3.7-2.3V5.1h5.8L18,1L24.7,5.1z M3.7,14.1l1.8,1.1
		v-2.3L3.7,14.1z M9.1,17.4l8.9,5.5l8.9-5.5V8.7H9.1V17.4z M25.1,10.5v2.7H10.9v-2.7H25.1z M25.1,14.9v2.7H10.9v-2.7
		C10.9,14.9,25.1,14.9,25.1,14.9z M30.4,15.2l1.8-1.1l-1.8-1.2C30.4,12.9,30.4,15.2,30.4,15.2z"/>
</g>
<g class="st0">
	<path class="st1" d="M7.1,0.2h21.4c1,0,1.9,0.3,2.6,1s1,1.5,1,2.5v28.6c0,0.9-0.3,1.8-1,2.5s-1.5,1-2.6,1H7.1c-1,0-1.9-0.3-2.6-1
		s-1-1.5-1-2.5V3.7c0-0.9,0.3-1.8,1-2.5S6.1,0.2,7.1,0.2z M17.8,3.7c-2,0-3.7,0.5-5.4,1.5c-1.6,1-2.9,2.3-3.9,3.9
		c-0.9,1.6-1.4,3.4-1.4,5.4s0.5,3.7,1.5,5.4c1,1.6,2.3,2.9,3.9,3.9c1.6,0.9,3.5,1.4,5.5,1.4l-1.6-3.9c-0.2-0.4-0.3-0.9-0.1-1.4
		c0.1-0.5,0.4-0.8,0.8-1l1.6-0.9c0.4-0.2,0.8-0.3,1.3-0.2c0.5,0.1,0.9,0.4,1.1,0.8l3.4,4.3c1.2-1,2.2-2.2,2.9-3.7
		c0.7-1.4,1.1-3,1.1-4.7c0-1.9-0.5-3.7-1.4-5.3s-2.2-3-3.9-3.9C21.5,4.2,19.7,3.7,17.8,3.7z M8.8,28.7c-0.5,0-0.9,0.2-1.3,0.5
		C7.2,29.5,7,30,7,30.5s0.2,0.9,0.5,1.3c0.3,0.4,0.8,0.5,1.3,0.5s0.9-0.2,1.3-0.5c0.4-0.4,0.5-0.8,0.5-1.3s-0.2-0.9-0.5-1.3
		C9.8,28.8,9.3,28.7,8.8,28.7z M17.8,12.6c0.5,0,0.9,0.2,1.3,0.5c0.3,0.3,0.5,0.8,0.5,1.3s-0.2,0.9-0.5,1.3
		c-0.3,0.4-0.8,0.5-1.3,0.5s-0.9-0.2-1.3-0.5c-0.3-0.4-0.5-0.8-0.5-1.3s0.2-0.9,0.5-1.3C16.9,12.8,17.3,12.6,17.8,12.6z M18,20.2
		l4.4,11.3l4.6-2.7l-7.5-9.5L18,20.2z"/>
</g>
<g class="st0">
	<path class="st1" d="M34.8,1.2c0.7,0.7,1,1.5,1,2.5V25c0,1-0.3,1.9-1,2.5c-0.7,0.7-1.5,1-2.5,1H21.4l-6.6,6.6
		c-0.4,0.3-0.8,0.5-1.3,0.5h-0.9c-0.6,0-1-0.2-1.3-0.5s-0.5-0.7-0.5-1.3v-5.3H3.7c-0.9,0-1.8-0.3-2.5-1s-1-1.5-1-2.5V3.6
		c0-0.9,0.3-1.8,1-2.5s1.5-1,2.5-1h28.6C33.2,0.1,34.1,0.5,34.8,1.2z M16.3,12.6h-3.8L15,7.2h-3.6l-2.3,5v7.4h7.2V12.6z M26.9,12.6
		h-3.8l2.5-5.3H22l-2.3,5v7.4h7.2C26.9,19.7,26.9,12.6,26.9,12.6z"/>
</g>
<g class="st0">
	<path class="st1" d="M30,3.8c1,0,1.8,0.3,2.5,1s1,1.5,1,2.5v24.8c0,1-0.3,1.8-1,2.5s-1.5,1-2.5,1H5.2c-1,0-1.8-0.3-2.5-1
		s-1-1.5-1-2.5V7.4c0-1,0.3-1.8,1-2.5s1.5-1,2.5-1H7V0.2h3.6v3.6h14.1V0.2h3.6v3.6H30z M30,32.2V12.7H5.2v19.5H30z M12.3,16.2v3.6
		H8.7v-3.6H12.3z M12.3,23.4v3.5H8.7v-3.5H12.3z M19.4,16.2v3.6h-3.5v-3.6H19.4z M19.4,23.4v3.5h-3.5v-3.5H19.4z M26.5,16.2v3.6
		h-3.6v-3.6H26.5z M26.5,23.4v3.5h-3.6v-3.5H26.5z"/>
</g>
<g class="st0">
	<path class="st1" d="M0.3,9.1h19.4v3.6H3.8v10.6h15.9v3.6H0.3V9.1z M26.8,9.1h8.8v17.7h-8.8v3.5c0,0.5,0.2,0.9,0.5,1.3
		s0.7,0.5,1.2,0.5h3.6v3.5h-4.5c-0.5,0-1.1-0.2-1.7-0.5c-0.6-0.4-1-0.8-1-1.2c0,0.4-0.3,0.8-0.9,1.2s-1.2,0.5-1.7,0.5h-4.4v-3.5h3.6
		c0.5,0,0.9-0.2,1.2-0.5c0.3-0.4,0.5-0.8,0.5-1.3V5.6c0-0.5-0.2-0.9-0.5-1.3C22.4,4,22,3.8,21.5,3.8h-3.6V0.3h4.4
		c0.6,0,1.1,0.2,1.7,0.5c0.7,0.4,1,0.8,1,1.3c0-0.4,0.3-0.8,1-1.2c0.6-0.4,1.2-0.5,1.7-0.5h4.5v3.5h-3.6c-0.5,0-0.9,0.2-1.2,0.5
		c-0.3,0.4-0.5,0.8-0.5,1.3v3.4H26.8z M32.1,23.3V12.7h-5.3v10.6H32.1z"/>
</g>
<g class="st0">
	<g class="st2">
		<path class="st3" d="M18.1,0.2c0.3,0,0.6,0.1,1,0.3C19.7,0.8,20,1.3,20,2.1v4h2c0.3,0,0.6,0.1,0.9,0.3c0.7,0.3,1,0.9,1,1.7v2h4
			c0.3,0,0.6,0.1,0.9,0.2c0.7,0.4,1,1,1,1.8V14h4c0.2,0,0.4,0.1,0.6,0.2c0.5,0.1,0.8,0.4,1,0.8c0.2,0.9,0.3,1.9,0.3,3
			c0,3.2-0.8,6.2-2.4,8.9c-1.6,2.7-3.8,4.9-6.5,6.5c-2.7,1.6-5.7,2.4-8.9,2.4S11.7,35,9,33.4c-2.7-1.6-4.9-3.8-6.5-6.5
			S0.1,21.2,0.1,18s0.8-6.2,2.4-8.9S6.3,4.2,9,2.6C11.9,1,14.9,0.2,18.1,0.2z M5.1,14.9c-0.6,0.6-0.8,1.3-0.8,2.1
			c0,0.8,0.3,1.5,0.8,2.1S6.3,20,7.2,20s1.5-0.3,2.1-0.8c0.6-0.6,0.9-1.3,0.9-2.1c0-0.8-0.3-1.5-0.9-2.1c-0.6-0.7-1.3-1-2.1-1
			S5.6,14.3,5.1,14.9z M11,7c-0.6,0.6-0.8,1.3-0.8,2.1s0.3,1.5,0.8,2.1c0.6,0.6,1.3,0.9,2.1,0.9s1.5-0.3,2.1-0.9
			c0.6-0.6,0.9-1.3,0.9-2.1S15.8,7.6,15.2,7c-0.6-0.6-1.3-0.9-2.1-0.9C12.3,6.1,11.6,6.4,11,7z M14,26.8c-0.6,0.6-0.8,1.3-0.8,2.1
			c0,0.8,0.3,1.5,0.8,2.1c0.6,0.6,1.3,0.8,2.1,0.8c0.8,0,1.5-0.3,2.1-0.8c0.6-0.6,0.9-1.3,0.9-2.1c0-0.8-0.3-1.5-0.9-2.1
			s-1.3-0.9-2.1-0.9C15.3,25.9,14.5,26.2,14,26.8z M15,16.9c-0.6,0.6-0.9,1.3-0.9,2.1c0,0.8,0.3,1.5,0.9,2.1
			c0.6,0.6,1.3,0.9,2.1,0.9c0.8,0,1.5-0.3,2.1-0.9S20,19.8,20,19c0-0.8-0.3-1.5-0.8-2.1c-0.6-0.6-1.3-0.8-2.1-0.8
			C16.2,16.1,15.6,16.3,15,16.9z M24.9,20.8c-0.6,0.6-0.9,1.3-0.9,2.1c0,0.9,0.3,1.6,0.9,2.1c0.6,0.6,1.3,0.8,2.1,0.8
			s1.5-0.3,2.1-0.8c0.6-0.6,0.9-1.3,0.9-2.1c0-0.8-0.3-1.5-0.9-2.1C28.5,20.3,27.8,20,27,20S25.5,20.3,24.9,20.8z"/>
	</g>
</g>
<g class="st0">
	<g class="st2">
		<path class="st3" d="M18.1,26.2l-5-5l-8.1,8L2.7,27l8.2-8.1c-2-2.2-3.6-4.7-4.8-7.3h3.3c1,2,2.2,3.8,3.7,5.4
			c2.3-2.5,4-5.4,5.1-8.6H0.1V5h11.3V1.9h3.2V5H26v3.3h-4.8c-1.2,3.9-3.2,7.4-6,10.5l-0.1,0.1l4.2,4L18.1,26.2z M35.7,34.1h-3.3
			l-1.8-4.8H23l-1.8,4.8h-3.3l7.3-19.4h3.3L35.7,34.1z M29.4,26.1l-2.6-7l-2.6,7H29.4z"/>
	</g>
</g>
<g class="st0">
	<g class="st2">
		<path d="M35.8,19.8c0,1-0.3,1.8-1,2.5L22.3,34.8c-0.7,0.7-1.5,1-2.5,1s-1.8-0.3-2.5-1l-16-16c-0.7-0.7-1-1.5-1-2.5V3.7
			c0-0.9,0.3-1.8,1-2.5s1.5-1,2.5-1h12.5c0.9,0,1.8,0.3,2.5,1l16,16C35.5,18,35.8,18.8,35.8,19.8z M8.4,8.3c0.5-0.5,0.8-1.1,0.8-1.9
			S8.9,5,8.4,4.5S7.3,3.7,6.5,3.7S5.1,4,4.6,4.5S3.8,5.7,3.8,6.4s0.3,1.4,0.8,1.9S5.7,9,6.5,9C7.2,9,7.9,8.8,8.4,8.3z"/>
	</g>
</g>
<g class="st0">
	<path class="st4" d="M32.8,0.8l2.6,10l-2.1,0.6c-1.4-2.6-2.5-4.3-3.3-5c-0.6-0.4-1.2-0.7-2-0.9c-0.4-0.1-1.1-0.1-2-0.1h-5.8v24
		c0,0.8,0,1.3,0.1,1.6c0.1,0.6,0.4,1,0.7,1.2c0.3,0.2,0.9,0.4,1.7,0.5c0.4,0.1,1.1,0.1,2.1,0.1V35H11.1v-2.2c1,0,1.7,0,2.1-0.1
		c0.8-0.1,1.3-0.2,1.7-0.5c0.3-0.2,0.6-0.7,0.7-1.2c0.1-0.3,0.1-0.8,0.1-1.6v-24H9.9c-0.9,0-1.6,0-2,0.1C7.1,5.7,6.4,6,5.9,6.4
		c-0.9,0.7-2,2.4-3.3,5l-2.1-0.6L3,0.8H32.8z"/>
</g>
<g class="st0">
	<path class="st1" d="M0.2,2.4h35.7v4.4H0.2V2.4z M0.2,11.2h35.7v4.5H0.2V11.2z M0.2,20.1h35.7v4.5H0.2V20.1z M0.2,29h22.3v4.4H0.2
		V29z"/>
</g>
<g class="st0">
	<path class="st1" d="M34.4,34.4c-0.8,0.8-1.7,1.2-2.8,1.2H4.2c-1.1,0-2-0.4-2.8-1.2s-1.2-1.7-1.2-2.8V4.2c0-1.1,0.4-2,1.2-2.8
		s1.7-1.2,2.8-1.2h27.4c1.1,0,2,0.4,2.8,1.2s1.2,1.7,1.2,2.8v27.4C35.6,32.7,35.2,33.7,34.4,34.4z M4.2,29.7h27.4l-8.8-11.8L16,26.8
		l-5-5.9L4.2,29.7z"/>
</g>
<g class="st0">
	<path class="st1" d="M35.6,12.9c0.2,0.2,0.3,0.5,0.3,0.8v7.6c0,0.3-0.1,0.6-0.3,0.8c-0.2,0.2-0.5,0.3-0.8,0.3h-7.6
		c-0.3,0-0.6-0.1-0.8-0.3c-0.2-0.2-0.3-0.5-0.3-0.8v-7.6c0-0.3,0.1-0.6,0.3-0.8c0.2-0.2,0.5-0.3,0.8-0.3h7.6
		C35.1,12.6,35.4,12.7,35.6,12.9z M34.8,13.7h-7.6v7.6h7.6V13.7z M34,20.2h-6l1.5-1.9l1.1,1.3l1.5-1.9L34,20.2z"/>
</g>
<g class="st0">
	<path class="st1" d="M9.6,12.8c0.2,0.2,0.3,0.5,0.3,0.8v7.6c0,0.3-0.1,0.6-0.3,0.8c-0.2,0.2-0.5,0.3-0.8,0.3H1.2
		c-0.3,0-0.6-0.1-0.8-0.3c-0.2-0.2-0.3-0.5-0.3-0.8v-7.6c0-0.3,0.1-0.6,0.3-0.8s0.5-0.3,0.8-0.3h7.6C9.2,12.5,9.4,12.6,9.6,12.8z
		 M8.8,13.6H1.2v7.6h7.6V13.6z M8,20.2H2l1.5-1.9l1.1,1.3l1.5-1.9L8,20.2z"/>
</g>
<g class="st0">
	<path class="st1" d="M28.2,23.9c-0.5,0.5-1,0.7-1.7,0.7H9.7c-0.7,0-1.2-0.2-1.7-0.7s-0.7-1-0.7-1.7V5.4c0-0.7,0.2-1.2,0.7-1.7
		C8.4,3.2,9,3,9.7,3h16.8c0.7,0,1.2,0.2,1.7,0.7s0.7,1,0.7,1.7v16.8C28.9,22.9,28.6,23.4,28.2,23.9z M9.7,21h16.8l-5.4-7.2l-4.2,5.4
		l-3-3.6L9.7,21z"/>
</g>
<g class="st0">
	<path class="st1" d="M1,0.8h3.8v3.8H1V0.8z M1,8.4h3.8v3.8H1V8.4z M1,16h3.8v3.7H1V16z M1,23.6h3.8v3.8H1V23.6z M1,31.2h3.8V35H1
		V31.2z M8.5,0.8h3.8v3.8H8.5V0.8z M8.5,31.2h3.8V35H8.5V31.2z M16.2,0.8h3.7v3.8h-3.7V0.8z M16.2,31.2h3.7V35h-3.7V31.2z M23.8,0.8
		h3.8v3.8h-3.8V0.8z M23.8,31.2h3.8V35h-3.8V31.2z M31.3,0.8h3.8v3.8h-3.8V0.8z M31.3,8.4h3.8v3.8h-3.8V8.4z M31.3,16h3.8v3.7h-3.8
		V16z M31.3,23.6h3.8v3.8h-3.8V23.6z M31.3,31.2h3.8V35h-3.8V31.2z"/>
</g>
<g class="st0">
	<path class="st1" d="M88.2,6.1c0.8,0.8,1.2,1.7,1.2,2.8v27.4c0,1.1-0.4,2-1.2,2.8c-0.8,0.8-1.7,1.2-2.8,1.2H57.9
		c-1.1,0-2-0.4-2.8-1.2s-1.2-1.7-1.2-2.8V9c0-1.1,0.4-2,1.2-2.8S56.8,5,57.9,5h27.4C86.5,5,87.4,5.4,88.2,6.1z M77.5,22.7l-9.8-7.8
		v15.6L77.5,22.7z"/>
</g>
<path class="st5" d="M27.9,26.9H8.2c-4.4,0-8.1-3.6-8.1-8.1v-4c0-4.4,3.6-8.1,8.1-8.1h19.7c4.4,0,8.1,3.6,8.1,8.1v4
	C35.9,23.2,32.3,26.9,27.9,26.9z"/>
<g class="st0">
	<path class="st6" d="M17.6,16.5c0,1.3-0.4,2.3-1.1,3.1c-0.7,0.8-1.8,1.2-3.1,1.2s-2.3-0.4-3.1-1.2c-0.7-0.8-1.1-1.8-1.1-3.1
		s0.4-2.4,1.1-3.1c0.7-0.8,1.8-1.1,3.1-1.1s2.3,0.4,3.1,1.1C17.2,14.1,17.6,15.2,17.6,16.5z M14.8,18.5c0.2-0.2,0.4-0.5,0.5-0.9
		c0.1-0.3,0.1-0.7,0.1-1.2s-0.1-0.9-0.2-1.3s-0.3-0.6-0.4-0.8c-0.2-0.2-0.4-0.4-0.6-0.5c-0.2-0.1-0.5-0.1-0.8-0.1s-0.5,0-0.8,0.1
		c-0.2,0.1-0.5,0.3-0.7,0.5s-0.3,0.5-0.4,0.9c-0.1,0.4-0.2,0.8-0.2,1.3c0,0.5,0.1,0.9,0.2,1.2c0.1,0.3,0.3,0.6,0.4,0.8
		c0.2,0.2,0.4,0.4,0.6,0.5c0.2,0.1,0.5,0.2,0.8,0.2s0.5-0.1,0.8-0.2C14.4,18.9,14.6,18.8,14.8,18.5z"/>
	<path class="st6" d="M26.8,20.6h-2.6l-2.4-3.3l-0.5,0.6v2.7h-2.1v-8.2h2.1v3.7l2.9-3.7h2.4l-3.2,3.8L26.8,20.6z"/>
</g>
<g class="st0">
	<path class="st1" d="M34.6,1.3c0.8,0.8,1.2,1.7,1.2,2.8v27.7c0,1.1-0.4,2.1-1.2,2.8c-0.8,0.8-1.7,1.2-2.8,1.2H4.1
		c-1.1,0-2.1-0.4-2.8-1.2C0.5,34,0.1,33,0.1,31.9V4.2c0-1.1,0.4-2.1,1.2-2.8C2,0.6,3,0.2,4.1,0.2h27.7C32.9,0.2,33.9,0.6,34.6,1.3z
		 M31.8,4.2H17.9v11.9L4.1,31.9H18V16.1l13.9,15.8V4.2H31.8z"/>
</g>
<g class="st0">
	<path class="st1" d="M32.2,26.9c1,1,1.5,2.3,1.5,3.7c0,1.4-0.5,2.7-1.5,3.7s-2.2,1.5-3.7,1.5s-2.7-0.5-3.7-1.5s-1.5-2.2-1.5-3.7
		c0-0.4,0-0.8,0.1-1.2L10.6,22c-1.1,1-2.3,1.4-3.8,1.4S4.1,22.9,3,21.8c-1-1-1.6-2.3-1.6-3.8s0.5-2.8,1.6-3.8c1-1,2.3-1.6,3.8-1.6
		s2.7,0.5,3.8,1.4l12.7-7.3c-0.1-0.5-0.2-0.9-0.2-1.3c0-1.5,0.5-2.8,1.6-3.8c1-1,2.3-1.6,3.8-1.6s2.8,0.5,3.8,1.6
		c1,1,1.6,2.3,1.6,3.8s-0.5,2.8-1.6,3.8c-1,1.1-2.3,1.6-3.8,1.6s-2.7-0.5-3.8-1.5L12,16.7c0.1,0.5,0.2,0.9,0.2,1.3
		c0,0.3-0.1,0.8-0.2,1.3l13,7.4c1-0.9,2.2-1.3,3.5-1.3C30,25.4,31.2,25.9,32.2,26.9z"/>
</g>
<g class="st0">
	<path class="st1" d="M0.1,3.9h10.5v27.3H0.1V3.9z M12.7,3.9h10.5v27.3H12.7V3.9z M35.9,3.9v27.3H25.3V3.9H35.9z"/>
</g>
<g class="st0">
	<path class="st1" d="M22.3,0.1c0.9,0,1.7,0.3,2.4,1c0.7,0.7,1,1.5,1,2.4v6.8h6.9c0.9,0,1.7,0.3,2.4,1s1,1.5,1,2.4v18.8
		c0,0.9-0.3,1.7-1,2.4s-1.4,1-2.4,1H13.8c-1,0-1.8-0.3-2.4-1c-0.7-0.7-1-1.4-1-2.4v-6.9H3.5c-1,0-1.8-0.3-2.4-1s-1-1.4-1-2.4V3.5
		c0-1,0.3-1.8,1-2.4c0.7-0.7,1.5-1,2.4-1C3.5,0.1,22.3,0.1,22.3,0.1z M3.5,22.3h10.2v10.2h18.8V13.7H22.3V3.5H3.5V22.3z"/>
</g>
<g class="st0">
	<path class="st1" d="M30.2,22.1v0.4c0,1.4-0.3,2.8-1,4.2c-0.7,1.4-1.8,2.6-3.1,3.4c-1.4,0.9-3.1,1.4-4.9,1.4
		c-1.7,0-3.4-0.5-4.8-1.4c0.3,0,0.5,0,0.8,0c1.5,0,2.8-0.4,3.9-1.3c-0.7,0-1.3-0.2-1.8-0.6s-0.9-0.9-1.1-1.6c0.2,0,0.4,0.1,0.6,0.1
		c0.3,0,0.6,0,0.8-0.1c-0.7-0.2-1.3-0.5-1.8-1.1s-0.7-1.2-0.7-2l0,0c0.5,0.3,0.9,0.4,1.4,0.4c-0.4-0.3-0.7-0.6-1-1.1s-0.4-1-0.4-1.5
		c0-0.6,0.1-1.1,0.4-1.6c0.8,1,1.7,1.7,2.9,2.3c1.1,0.6,2.3,0.9,3.6,1c-0.1-0.3-0.1-0.5-0.1-0.7c0-0.9,0.3-1.6,0.9-2.2
		s1.4-0.9,2.2-0.9c0.9,0,1.7,0.3,2.3,1c0.7-0.1,1.4-0.4,2-0.8C31.1,20,30.7,20.6,30,21c0.6-0.1,1.2-0.3,1.8-0.5
		C31.4,21.1,30.8,21.7,30.2,22.1z"/>
</g>
<g class="st0">
	<path class="st1" d="M16.3,6c1.1,0.7,2,1.5,2.7,2.7c0.7,1.1,1,2.3,1,3.7c0,1.2-0.3,2.3-0.8,3.3s-1.3,1.9-2.2,2.6
		c-0.9,0.7-2,1.1-3.2,1.3v-5.1h1.7l0.3-2.1h-2.1V11c0-0.3,0.1-0.6,0.3-0.8s0.5-0.3,0.9-0.3h0.9V8c-0.6-0.1-1.1-0.1-1.6-0.1
		c-0.8,0-1.5,0.3-2,0.8s-0.7,1.2-0.7,2.1v1.6H9.7v2.1h1.9v5.1c-1.2-0.2-2.2-0.6-3.2-1.3c-0.9-0.7-1.7-1.5-2.2-2.6
		c-0.5-1-0.8-2.2-0.8-3.4c0-1.3,0.3-2.6,1-3.7C7,7.5,7.9,6.6,9,6c1.1-0.7,2.3-1,3.7-1C14,5,15.2,5.3,16.3,6z"/>
</g>
<g class="st0">
	<path class="st1" d="M10.5,0.2h15.1c1.8,0,3.6,0.5,5.2,1.4s2.8,2.2,3.8,3.8C35.5,7,36,8.7,36,10.6v15.1c0,1.8-0.5,3.6-1.4,5.2
		c-0.9,1.6-2.2,2.8-3.8,3.8s-3.3,1.4-5.2,1.4H10.5c-1.8,0-3.6-0.5-5.2-1.4s-2.8-2.2-3.8-3.8c-0.9-1.6-1.4-3.3-1.4-5.2V10.5
		c0-1.8,0.5-3.6,1.4-5.2s2.2-2.8,3.8-3.8S8.7,0.2,10.5,0.2z M10.2,3.7c-1.8,0-3.3,0.6-4.6,1.9s-1.9,2.8-1.9,4.6v15.7
		c0,1.8,0.6,3.3,1.9,4.6s2.8,1.9,4.6,1.9h15.7c1.8,0,3.3-0.6,4.6-1.9s1.9-2.8,1.9-4.6V10.2c0-1.8-0.6-3.3-1.9-4.6s-2.8-1.9-4.6-1.9
		C25.9,3.7,10.2,3.7,10.2,3.7z M18.1,9.1c1.6,0,3.1,0.4,4.5,1.2s2.5,1.9,3.3,3.3s1.2,2.9,1.2,4.5s-0.4,3.1-1.2,4.5
		c-0.8,1.4-1.9,2.5-3.3,3.3s-2.9,1.2-4.5,1.2s-3.1-0.4-4.5-1.2c-1.4-0.8-2.5-1.9-3.3-3.3s-1.2-2.9-1.2-4.5s0.4-3.1,1.2-4.5
		s1.9-2.5,3.3-3.3C14.9,9.5,16.4,9.1,18.1,9.1z M18.1,12.7c-1.5,0-2.8,0.5-3.8,1.5s-1.5,2.3-1.5,3.8s0.5,2.8,1.5,3.8
		s2.3,1.5,3.8,1.5s2.8-0.5,3.8-1.5s1.5-2.3,1.5-3.8s-0.5-2.8-1.5-3.8C20.8,13.2,19.6,12.7,18.1,12.7z M27.4,6.4
		c0.6,0,1.1,0.2,1.6,0.7c0.4,0.4,0.7,1,0.7,1.6c0,0.6-0.2,1.1-0.7,1.6c-0.4,0.4-1,0.7-1.6,0.7s-1.1-0.2-1.6-0.7
		c-0.4-0.4-0.7-1-0.7-1.6s0.2-1.1,0.7-1.6C26.3,6.7,26.8,6.4,27.4,6.4z"/>
</g>
<g class="st0">
	<path class="st1" d="M32.2,10.6l0.1,1c0,3.3-0.8,6.6-2.4,9.7c-1.7,3.3-4.1,5.9-7.1,7.9c-3.3,2.2-7.1,3.3-11.4,3.3
		c-4.1,0-7.8-1.1-11.2-3.3c0.6,0.1,1.2,0.1,1.8,0.1c3.4,0,6.4-1,9.1-3.1c-1.6-0.1-3-0.5-4.2-1.5c-1.3-0.9-2.1-2.2-2.6-3.7
		c0.5,0.1,0.9,0.2,1.4,0.2c0.7,0,1.3-0.1,1.9-0.2c-1.7-0.4-3-1.2-4.2-2.6c-1.1-1.3-1.7-2.9-1.7-4.7v-0.1c1.1,0.6,2.2,0.9,3.3,0.9
		c-1-0.6-1.7-1.5-2.3-2.6S1.8,9.6,1.8,8.3s0.3-2.5,1-3.7C4.6,6.8,6.9,8.7,9.5,10s5.5,2.1,8.5,2.3c-0.2-0.6-0.2-1.1-0.2-1.7
		c0-2,0.7-3.8,2.2-5.2c1.4-1.4,3.2-2.2,5.1-2.2c2.2,0,4,0.8,5.5,2.3c1.7-0.3,3.2-0.9,4.7-1.8c-1,2-2.1,3.3-3.6,4.3
		c1.5-0.2,2.9-0.6,4.2-1.2C34.8,8.3,33.6,9.6,32.2,10.6z"/>
</g>
<path class="st5" d="M24.6,11.7v0.5c0,1.6-0.4,3.1-1.1,4.7c-0.8,1.6-1.9,2.9-3.3,3.8c-1.5,1.1-3.3,1.6-5.3,1.6
	c-1.9,0-3.6-0.5-5.2-1.6c0.3,0,0.5,0,0.8,0c1.6,0,3-0.5,4.2-1.5c-0.7,0-1.4-0.3-1.9-0.7c-0.6-0.4-1-1-1.2-1.8
	c0.2,0.1,0.4,0.1,0.6,0.1c0.3,0,0.6,0,0.9-0.1c-0.8-0.2-1.4-0.6-1.9-1.2c-0.5-0.6-0.8-1.4-0.8-2.2l0,0c0.5,0.3,1,0.4,1.5,0.4
	c-0.4-0.3-0.8-0.7-1.1-1.2s-0.4-1.1-0.4-1.7c0-0.6,0.1-1.2,0.4-1.8c0.8,1.1,1.9,1.9,3.1,2.6s2.5,1,3.9,1.1c-0.1-0.3-0.1-0.6-0.1-0.8
	c0-1,0.3-1.8,1-2.5s1.5-1,2.4-1c1,0,1.9,0.4,2.5,1.1c0.8-0.2,1.5-0.4,2.2-0.8c-0.3,0.8-0.8,1.5-1.5,2c0.7-0.1,1.3-0.3,1.9-0.6
	C25.8,10.6,25.3,11.2,24.6,11.7z"/>
<g class="st0">
	<path class="st1" d="M12.7,35.9c-0.5,0-0.9-0.2-1.3-0.5s-0.5-0.8-0.5-1.3v-5.4H3.7c-0.9,0-1.8-0.3-2.5-1s-1-1.5-1-2.6V3.7
		c0-0.9,0.3-1.8,1-2.5s1.5-1,2.5-1h28.6c0.9,0,1.8,0.3,2.5,1s1,1.5,1,2.5v21.4c0,1-0.3,1.9-1,2.6s-1.5,1-2.5,1H21.5l-6.6,6.6
		c-0.4,0.3-0.8,0.5-1.3,0.5h-0.9V35.9z M14.4,25.2v5.5l5.5-5.5h12.4V3.7H3.7v21.4h10.7V25.2z"/>
</g>
<g class="st0">
	<path class="st1" d="M12.6,9.5L5.5,18c-0.8-2.2-1.1-4.5-0.8-6.9C5,8.7,5.8,6.6,7.2,4.8L12.6,9.5z M11.8,11.6
		c-0.1,0.5-0.1,1.1,0,1.8c0.1,0.4,0.1,0.7,0.3,1c0.6,1.3,1.5,2.2,2.7,2.8c1.3,0.6,2.5,0.7,3.8,0.2h0.1l-7.5,8.8
		c-0.3-0.4-0.6-0.8-1.1-1.3l-0.3-0.5c-1-1.2-1.7-2.2-2.2-2.8c-0.7-1.1-1.3-2.1-1.8-3L11.8,11.6z M7.6,4.2c1.2-1.3,2.6-2.4,4.2-3.1
		S15.1,0,16.9,0C18,0,19,0.1,20.1,0.4l-7,8.3L7.6,4.2z M11.7,26.9c1.2,1.6,2,3,2.6,4c0.5,0.8,1,2.1,1.6,3.8c0.1,0.4,0.2,0.7,0.3,0.8
		c0.2,0.3,0.5,0.4,0.8,0.4s0.5-0.1,0.6-0.3s0.2-0.4,0.3-0.8l0.6-1.8c0.2-0.6,0.4-1,0.5-1.2c0.5-1.2,1.3-2.6,2.4-4.1
		c0.5-0.6,1.2-1.5,2.2-2.8c1.9-2.4,3.3-4.3,4-5.6c1-1.9,1.6-3.9,1.7-6.1S29.1,9,28.2,7.1L11.7,26.9z M20.9,0.8
		c1.5,0.5,2.8,1.2,4,2.2s2.2,2.2,2.9,3.6L22,13.4c0.1-0.6,0.1-1.2,0-1.9c-0.1-0.5-0.2-1-0.5-1.6C20.9,8.8,20,8,18.8,7.5
		c-1.2-0.4-2.4-0.5-3.6-0.1l-0.1,0.1L20.9,0.8L20.9,0.8z"/>
</g>
<g class="st0">
	<path class="st1" d="M35.8,18.2l-4.5,4.5v-9L35.8,18.2z M0.1,18.1l4.5-4.5v9L0.1,18.1z"/>
</g>
<g class="st0">
	<path class="st1" d="M28.3,7.5C28.7,8,29,8.6,29,9.2v17.2c0,0.7-0.2,1.3-0.7,1.8s-1.1,0.7-1.8,0.7H9.3c-0.7,0-1.3-0.2-1.8-0.7
		s-0.7-1.1-0.7-1.8V9.2c0-0.7,0.2-1.3,0.7-1.8C8,7,8.6,6.8,9.3,6.8h17.2C27.2,6.8,27.8,7,28.3,7.5z M26.5,9.2H9.3v17.2h17.2V9.2z
		 M24.7,24H11.2l3.3-4.4l2.4,2.9l3.4-4.4L24.7,24z"/>
</g>
<ellipse class="st5" cx="17.8" cy="18.1" rx="17.7" ry="17.7"/>
<path class="st7" d="M9,16.1h3.9c0.3,0,0.6,0.2,0.6,0.6v8.9c0,0.3-0.2,0.6-0.6,0.6H9c-0.3,0-0.6-0.2-0.6-0.6v-8.9
	C8.5,16.4,8.7,16.1,9,16.1z M14.8,24.1v-6.4c0-1.6,0.4-3.1,1.3-4.5c0.5-0.8,1.6-2.1,2.3-2.8c0.1-0.2,0.7-0.6,0.7-0.8
	c0-0.3,0-0.8,0-1.7c0-0.6,0.5-1.1,1.1-1.1l0,0c1,0,1.4,1,1.4,1s0.9,1.8,0.1,3.9c-0.7,1.8-0.8,2-0.8,2S20.7,14,21.4,14
	c0,0,4.4,0,4.5,0c0.3,0,1.4,0.3,1.3,1.6c0,1-0.6,1.3-1,1.4c0,0-0.1,0.1,0,0.1l0,0c0.3,0.2,1,0.6,0.9,1.4c0,0.9-0.4,1.2-1.1,1.4
	L25.9,20l0,0c0.3,0.2,0.7,0.5,0.7,1.3s-0.6,1.1-0.9,1.2l-0.1,0.1l0,0c0.2,0.1,0.5,0.4,0.5,1.1c0,0.3-0.1,0.6-0.3,0.7
	c-0.2,0.3-0.6,0.4-0.9,0.4h-9.7C15.4,24.8,14.8,24.8,14.8,24.1L14.8,24.1z"/>
<path class="st8" d="M29.2,0.1H6.8c-3.7,0-6.7,3-6.7,6.7v22.4c0,3.7,3,6.7,6.7,6.7h22.4c3.7,0,6.7-3,6.7-6.7V6.8
	C35.9,3.1,32.9,0.1,29.2,0.1z M28.3,19.4h-3.4v12.4h-5.6V19.4h-2.2v-4.2h2.2v-2.7C19.3,9,20.8,7,24.9,7h4.2v4.2h-2.4
	c-1.6,0-1.7,0.6-1.7,1.7v2.3h3.8L28.3,19.4L28.3,19.4z"/>
<g class="st0">
	<path class="st1" d="M34.9,6.9c0.6,0.6,0.9,1.3,0.9,2.2V25c0,0.9-0.3,1.6-0.9,2.2s-1.4,0.9-2.3,0.9H3.2c-0.9,0-1.7-0.3-2.3-0.9
		S0,25.9,0,25V9.1c0-0.9,0.3-1.6,0.9-2.2S2.3,6,3.2,6h29.5C33.6,6.1,34.3,6.4,34.9,6.9z M32.7,9.1H3.2V25h29.5V9.1z"/>
</g>
<g class="st0">
	<path class="st1" d="M25.9,23.7l-3.5-4.9h7L25.9,23.7z"/>
</g>
<g class="st0">
	<path class="st1" d="M25.9,10.5l3.5,4.9h-7L25.9,10.5z"/>
</g>
<rect x="22.4" y="16.7" class="st5" width="13.4" height="0.9"/>
<g class="st0">
	<path class="st1" d="M0.2,4H11v10.8H0.2V4z M0.2,32.7H11V22H0.2V32.7z M35.9,4v3.6H14.4V4H35.9z M25.2,14.7H14.4v-3.5h10.8V14.7z
		 M14.4,22h21.5v3.5H14.4V22z M14.4,29.1h10.8v3.6H14.4V29.1z"/>
</g>
<path class="st5" d="M33,8.5l-14.4-8c-0.3-0.2-0.6-0.3-1-0.3s-0.7,0.1-1,0.3l-14.4,8c-0.6,0.3-0.9,0.9-0.9,1.6v16.3
	c0,0.7,0.3,1.3,0.9,1.6l13.9,7.7l0.2-20.3l-9.5-5.3l10.8-6l10.8,6L19.7,15l-0.2,20.6L33,28c0.6-0.3,0.9-0.9,0.9-1.6V10.1
	C33.9,9.4,33.6,8.9,33,8.5z M7.2,18.9v-0.8h1.5v0.8h1.5v1.5h-3v0.8h2.3c0.2,0,0.4,0.1,0.5,0.2s0.2,0.3,0.2,0.5v2.3
	c0,0.2-0.1,0.4-0.2,0.5C9.9,24.9,9.7,25,9.5,25H8.7v0.8H7.2V25H5.7v-1.5h3.1v-0.8H6.4c-0.2,0-0.4-0.1-0.5-0.2S5.7,22.2,5.7,22v-2.3
	c0-0.2,0.1-0.4,0.2-0.5S6.2,19,6.4,19h0.8V18.9z M30.2,20.2h-3.1V21h2.3c0.2,0,0.4,0.1,0.5,0.2s0.2,0.3,0.2,0.5V24
	c0,0.2-0.1,0.4-0.2,0.5s-0.3,0.2-0.5,0.2h-0.8v0.8h-1.5v-0.8h-1.5v-1.5h3.1v-0.8h-2.3c-0.2,0-0.4-0.1-0.5-0.2s-0.2-0.3-0.2-0.5v-2.3
	c0-0.2,0.1-0.4,0.2-0.5s0.3-0.2,0.5-0.2h0.8v-0.8h1.5v0.8h1.5V20.2z"/>
<g class="st0">
	<path class="st1" d="M0.3,4H16v4H0.3V4z M0.3,11.8H16v4H0.3V11.8z M0.3,19.7H16v3.9H0.3V19.7z M0.3,27.5H16v4H0.3V27.5z M19.9,4
		h15.7v4H19.9V4z M19.9,11.8h15.7v4H19.9V11.8z M19.9,19.7h15.7v3.9H19.9V19.7z M19.9,27.5h15.7v4H19.9V27.5z"/>
</g>
<g class="st0">
	<path class="st1" d="M6,0.2l1.7,3.5h26.4c0.5,0,0.9,0.2,1.3,0.5c0.3,0.4,0.5,0.8,0.5,1.3c0,0.2-0.1,0.5-0.3,0.8l-6.3,11.5
		c-0.3,0.6-0.7,1-1.3,1.3c-0.6,0.3-1.2,0.5-1.8,0.5H12.9l-1.6,2.9c-0.1,0.1-0.1,0.1-0.1,0.3c0,0.1,0,0.2,0.1,0.3
		c0.1,0.1,0.2,0.1,0.3,0.1h20.6v3.6H10.9c-0.9,0-1.8-0.3-2.5-1s-1-1.5-1-2.5c0-0.6,0.1-1.2,0.4-1.7l2.4-4.4L3.8,3.7H0.2V0.2H6z
		 M13.4,29.7c0.7,0.7,1,1.5,1,2.5s-0.3,1.8-1,2.5s-1.5,1-2.5,1s-1.8-0.3-2.5-1s-1-1.5-1-2.5s0.3-1.8,1-2.5s1.5-1,2.5-1
		S12.7,29,13.4,29.7z M31.2,29.7c0.7,0.7,1,1.5,1,2.5s-0.3,1.8-1,2.5s-1.5,1-2.5,1s-1.8-0.3-2.5-1s-1-1.5-1-2.5s0.3-1.8,1-2.5
		s1.5-1,2.5-1S30.5,29,31.2,29.7z"/>
</g>
<g class="st0">
	<path class="st1" d="M35.8,17.9l-5.1,5.2v7.4h-7.4L18,35.7l-5.1-5.1H5.4v-7.4L0.3,18l5.1-5.1V5.3h7.4L18,0.2l5.2,5.1h7.4v7.4
		L35.8,17.9z M25.8,12.4L23.5,10L10.1,23.4l2.4,2.4L25.8,12.4z M11,11c-0.6,0.6-0.8,1.2-0.8,2s0.3,1.4,0.8,1.9
		c0.6,0.5,1.2,0.8,2,0.8s1.4-0.3,1.9-0.8s0.8-1.2,0.8-1.9c0-0.8-0.3-1.4-0.8-2s-1.2-0.8-2-0.8C12.2,10.1,11.6,10.4,11,11z M25,24.9
		c0.6-0.6,0.8-1.2,0.8-2S25.5,21.5,25,21c-0.6-0.5-1.2-0.8-2-0.8s-1.4,0.3-1.9,0.8s-0.8,1.2-0.8,1.9c0,0.8,0.3,1.4,0.8,2
		s1.2,0.8,2,0.8C23.8,25.8,24.4,25.5,25,24.9z"/>
</g>
<g class="st0">
	<path class="st1" d="M0.1,8.8h6.8v19H0.1V8.8z M32.4,19.1c1.1,0,1.9,0.4,2.4,1.1c0.7,0.7,1,1.5,1,2.4l-13.6,5.2l-11.9-3.5V8.8h3.2
		l12.4,4.7c0.9,0.4,1.4,1,1.4,1.9c0,0.6-0.2,1.1-0.5,1.4c-0.5,0.5-1,0.7-1.6,0.7h-4.7l-2.9-1.2l-0.5,1.5l3.4,1.4L32.4,19.1
		L32.4,19.1z"/>
</g>
<path class="st5" d="M35.3,10.3c0,2.1-1.6,3.7-3.7,3.7s-3.7-1.7-3.7-3.7s1.6-3.7,3.7-3.7S35.3,8.2,35.3,10.3z M33.3,8.8
	c-0.8-0.9-2.2-1.1-3.1-0.3s-1,2.2-0.2,3.2c0.8,0.9,2.2,1.1,3.1,0.3S34.1,9.7,33.3,8.8z"/>
<g class="st0">
	<path class="st1" d="M28.2,14.1v18.7c0,0.8-0.3,1.5-0.9,2.2c-0.6,0.6-1.4,0.9-2.3,0.9H5.5c-0.9,0-1.7-0.3-2.3-0.9
		c-0.6-0.6-0.9-1.3-0.9-2.2v-25c0-0.8,0.3-1.5,0.9-2.2C3.8,5,4.6,4.7,5.5,4.7h13L28.2,14.1z M25,15.6h-8.1V7.8H5.5v25H25V15.6z"/>
</g>
<ellipse class="st5" cx="23.2" cy="10" rx="10.2" ry="9.8"/>
<g class="st0">
	<path class="st1" d="M14.4,3.2L18,6.9h14.3c1,0,1.8,0.4,2.5,1c0.7,0.7,1,1.6,1,2.6v17.9c0,1-0.3,1.9-1,2.6s-1.5,1-2.5,1H3.7
		c-1,0-1.8-0.3-2.5-1s-1-1.6-1-2.6V6.9c0-1,0.3-1.9,1-2.6s1.5-1,2.5-1h10.7V3.2z M23.4,12.2v5.4H18v3.6h5.4v5.4H27v-5.4h5.4v-3.6H27
		v-5.4C27,12.2,23.4,12.2,23.4,12.2z"/>
</g>
<g class="st0">
	<path class="st1" d="M11.1,11.3L22,0.1v35.6L11.1,24.6H2.4V11.3H11.1z M30.3,23.3c-1,1.6-2.3,2.8-4,3.5V9c1.7,0.8,3,2,4,3.6
		s1.5,3.4,1.5,5.3C31.8,19.9,31.3,21.7,30.3,23.3z"/>
</g>
<g class="st0">
	<path class="st1" d="M1.7,35.8V10.9h7.1v24.8H1.7V35.8z M14.2,35.8V0.3h7.2v35.5H14.2z M26.7,35.8V21.6h7.1v14.2H26.7z"/>
</g>
<g class="st0">
	<path class="st1" d="M0.2,9.2h19.4v3.6H3.7v10.6h15.9V27H0.2V9.2z M11.6,18.1c0-0.7-0.2-1.3-0.7-1.9c-0.5-0.5-1.1-0.8-1.9-0.8
		s-1.4,0.3-1.9,0.8s-0.8,1.1-0.8,1.9c0,0.7,0.3,1.3,0.8,1.9c0.5,0.5,1.2,0.8,1.9,0.8s1.4-0.3,1.9-0.8C11.4,19.4,11.6,18.8,11.6,18.1
		z M19.6,16.1c-0.5-0.5-1.1-0.7-1.9-0.7c-0.7,0.1-1.4,0.3-1.9,0.9c-0.5,0.5-0.7,1.2-0.7,1.9c0.1,0.7,0.3,1.4,0.8,1.8
		c0.5,0.5,1.1,0.7,1.8,0.7c0.7,0,1.3-0.2,1.8-0.7v-3.9H19.6z M26.7,9.2h8.8V27h-8.8v3.5c0,0.5,0.2,0.9,0.5,1.3
		c0.3,0.4,0.7,0.5,1.2,0.5H32v3.5h-4.5c-0.5,0-1.1-0.2-1.7-0.5c-0.6-0.4-1-0.8-1-1.2c0,0.4-0.3,0.8-0.9,1.2s-1.2,0.5-1.7,0.5h-4.4
		v-3.5h3.6c0.5,0,0.9-0.2,1.2-0.5c0.3-0.4,0.5-0.8,0.5-1.3V5.8c0-0.5-0.2-0.9-0.5-1.3S21.9,4,21.4,4h-3.6V0.5h4.4
		c0.6,0,1.1,0.2,1.7,0.5c0.6,0.4,0.9,0.8,0.9,1.2c0-0.4,0.3-0.8,1-1.2c0.6-0.4,1.2-0.5,1.7-0.5H32V4h-3.6c-0.5,0-0.9,0.2-1.2,0.5
		c-0.3,0.4-0.5,0.8-0.5,1.3C26.7,5.8,26.7,9.2,26.7,9.2z M32,23.4V12.8h-5.3v10.6C26.7,23.4,32,23.4,32,23.4z"/>
</g>
<g class="st0">
	<path class="st1" d="M13.9,27v-5.4H1.4v-7.2h12.5V9l9,9L13.9,27z M13.9,0.1H30c1,0,1.9,0.4,2.6,1c0.7,0.7,1,1.5,1,2.5v28.7
		c0,1-0.3,1.8-1,2.5s-1.6,1-2.6,1H13.9c-1,0-1.8-0.3-2.5-1s-1-1.5-1-2.5v-3.6h3.5v3.6H30V3.7H13.9v3.6h-3.5V3.7c0-1,0.3-1.8,1-2.5
		C12.2,0.5,13,0.1,13.9,0.1z"/>
</g>
<g class="st0">
	<path class="st1" d="M34.7,10.9H1.3V0.2h33.4V10.9z M20.4,23.4H1.3V12.7h19.1V23.4z M10.8,35.9H1.3V25.2h9.5V35.9z M34.7,35.9H13.2
		V25.2h21.5V35.9z M34.7,23.4H22.8V12.7h11.9C34.7,12.7,34.7,23.4,34.7,23.4z"/>
</g>
<g class="st0">
	<path class="st1" d="M13.5,0.2c2.3,0,4.5,0.6,6.6,1.8c2,1.2,3.6,2.8,4.8,4.8s1.8,4.3,1.8,6.7c0,3.2-1,6.1-3.1,8.6l0.6,0.6h1.6
		l10.1,10.1l-3,3L22.6,25.6V24L22,23.4c-2.5,2.1-5.3,3.1-8.6,3.1c-2.4,0-4.6-0.6-6.7-1.8C4.8,23.6,3.2,22,2,20s-1.8-4.2-1.8-6.6
		S0.8,8.8,2,6.8S4.8,3.2,6.8,2C8.9,0.8,11.1,0.2,13.5,0.2z M13.5,4.3C10.9,4.3,8.8,5.2,7,7s-2.7,3.9-2.7,6.5C4.3,16,5.2,18.2,7,20
		s3.9,2.7,6.5,2.7c2.5,0,4.7-0.9,6.5-2.7c1.8-1.8,2.7-3.9,2.7-6.5c0-2.5-0.9-4.7-2.7-6.5C18.2,5.2,16,4.3,13.5,4.3z"/>
</g>
<g class="st0">
	<path class="st1" d="M13.1,14.1v3.3H8.3v4.9H5v-4.9H0.2v-3.3H5V9.2h3.3v4.9H13.1z M28.2,21.3c2.2,0.6,3.9,1.3,5.2,2.2
		c1.6,1.1,2.4,2.3,2.4,3.6v3.3H9.9V27c0-1.3,0.8-2.5,2.4-3.6c1.3-0.9,3.1-1.6,5.2-2.2c1.9-0.5,3.7-0.7,5.3-0.7
		C24.5,20.6,26.2,20.8,28.2,21.3z M18.3,15.4c-1.3-1.3-1.9-2.8-1.9-4.6s0.6-3.3,1.9-4.6s2.8-1.9,4.6-1.9c1.8,0,3.3,0.6,4.6,1.9
		c1.3,1.3,1.9,2.8,1.9,4.6s-0.6,3.3-1.9,4.6s-2.8,1.9-4.6,1.9C21.1,17.3,19.6,16.7,18.3,15.4z"/>
</g>
<g class="st0">
	<path class="st1" d="M3.6,6.8v25.8h29.1v3.3H3.6c-0.9,0-1.7-0.3-2.3-0.9c-0.6-0.6-0.9-1.4-0.9-2.3V6.8H3.6z M10,0.3h16.2l9.7,9.7
		v16.1c0,0.9-0.3,1.7-0.9,2.3c-0.6,0.6-1.4,0.9-2.3,0.9H10c-0.9,0-1.6-0.3-2.2-0.9S6.9,27,6.9,26.1V3.5c0-0.9,0.3-1.6,0.9-2.2
		S9.2,0.3,10,0.3z M10,3.5v22.6h22.6V14.9H21.4V3.5H10z M24.5,11.6h8.9l-8.9-8.9C24.5,2.7,24.5,11.6,24.5,11.6z"/>
</g>
<g class="st0">
	<path class="st1" d="M11.2,34.7L0.1,23.5l11.1-11.2V19h8.9v9h-8.9C11.2,28,11.2,34.7,11.2,34.7z M3.4,23.5L9,29.1v-3.4h8.9v-4.5H9
		v-3.4L3.4,23.5z"/>
</g>
<g class="st0">
	<path class="st1" d="M13.8,16.5V8.1H25V1.3l11,11l-11,11v-6.8H13.8z"/>
</g>
<g class="st0">
	<path class="st1" d="M0.2,17.9l11-11v4.8L5,17.9l6.2,6.1v5L0.2,17.9z M19.6,2.4L23,3.2l-6.4,30.2l-3.4-0.7L19.6,2.4z M31.1,17.9
		l-6.2-6.2V6.9l11,11l-11,11V24L31.1,17.9z"/>
</g>
<g class="st0">
	<path class="st1" d="M1.2,20.2c-0.6-0.7-0.9-1.4-0.9-2.2c0-0.8,0.3-1.5,0.9-2.2l6.2-6.1l8.2,8.2l-8.2,8.2L1.2,20.2z M18.1,15.6
		l8.2-8.2l-6.1-6.2c-0.7-0.6-1.4-0.9-2.2-0.9c-0.8,0-1.5,0.3-2.2,0.9L9.9,7.3L18.1,15.6z M26.4,28.8L20.3,35
		c-0.7,0.6-1.4,0.9-2.2,0.9c-0.8,0-1.5-0.3-2.2-0.9l-6.1-6.2l8.2-8.2L26.4,28.8z M35,15.9c0.5,0.7,0.7,1.4,0.7,2.2
		c0,0.8-0.2,1.5-0.7,2.2l-6.2,6.1l-8.2-8.2l8.2-8.2L35,15.9z"/>
</g>
<g class="st0">
	<path class="st1" d="M31.8,0.4c1.1,0,2.1,0.4,2.8,1.2c0.8,0.8,1.2,1.7,1.2,2.8V32c0,1.1-0.4,2.1-1.2,2.8c-0.8,0.8-1.7,1.2-2.8,1.2
		H4.2c-1.1,0-2.1-0.4-2.8-1.2C0.6,34,0.2,33.1,0.2,32V4.4c0-1.1,0.4-2.1,1.2-2.8c0.8-0.8,1.7-1.2,2.8-1.2C4.2,0.4,31.8,0.4,31.8,0.4
		z M15.2,14.4L15.2,14.4c-0.6,2.7-1.9,5.7-4.2,9.3l-1.7,1c-1.3,0.9-2.3,1.7-3,2.4c-0.9,1.1-1.1,2-0.6,2.8c0.4,0.7,1.1,1,1.9,0.8
		s1.7-0.8,2.7-1.9c1-1,1.9-2.4,2.8-4.1l2.4-0.7c2-0.4,3.9-0.7,5.9-0.9l2,0.7c1.5,0.6,2.8,0.8,3.9,0.7c1.5-0.1,2.5-0.6,2.8-1.7
		S30,21,28.9,20.5C28.1,20.1,27,20,25.5,20c-1.2,0-2.1,0.1-2.7,0.3l-1-0.8c-0.9-0.7-1.6-1.4-2.2-2.2c-0.9-1-1.4-2.1-1.7-3.2l0.5-2
		c0.2-1.5,0.3-2.8,0.2-3.7c-0.2-1.3-0.9-1.9-1.9-1.9c-1.5,0.1-2.3,1.2-2.3,3.3C14.5,11.1,14.7,12.7,15.2,14.4z M10.6,25.5
		c-0.4,1.1-1.1,2-1.9,2.9c-0.7,0.7-1.1,1-1.3,1c-0.2,0-0.2-0.3,0.2-0.9c0.3-0.6,0.8-1.2,1.3-1.7C9.4,26.1,10,25.7,10.6,25.5z
		 M16.8,16.4l0.1,0.2c0.9,1.7,2.1,3.3,3.7,4.7L18,21.9c-1.9,0.4-3.3,0.8-4.2,1.2l1.1-2.1C15.8,19.3,16.4,17.7,16.8,16.4z M16.8,11.8
		c-0.1-0.6-0.2-1.3-0.3-2.2c-0.1-1.4,0-2.1,0.3-2c0.6,0.1,0.6,1.4,0.1,4.1L16.8,11.8z M27.3,21.9c1.2,0.2,1.8,0.5,1.7,0.8
		c-0.1,0.3-0.8,0.2-2.3-0.2c-0.7-0.2-1.5-0.4-2.1-0.7C25.2,21.6,26.1,21.7,27.3,21.9z"/>
</g>
<g class="st0">
	<path class="st1" d="M21.2,29.7h-18c-0.8,0-1.5-0.3-2.1-0.9s-0.9-1.3-0.9-2.1V6c0-0.8,0.3-1.5,0.9-2.1S2.4,3,3.2,3h29.7
		c0.8,0,1.5,0.3,2.1,0.9s0.9,1.3,0.9,2.1v15.6c-0.8-0.7-1.8-1.3-3-1.7V6H3.2v20.8h17.9c0,0.6-0.1,1.1-0.1,1.5
		C21.1,28.7,21.1,29.2,21.2,29.7z M21.1,23.8H6.2v-1.9c0-0.7,0.5-1.4,1.4-2.1c0.8-0.5,1.8-0.9,3.1-1.2c1.1-0.3,2.1-0.4,3-0.4
		c0.9,0,1.9,0.1,3,0.4c1.3,0.3,2.3,0.7,3.1,1.2c0.9,0.7,1.4,1.3,1.4,2.1v1.9H21.1z M13.6,8.9c-1,0-1.9,0.4-2.6,1.1
		c-0.7,0.7-1.1,1.6-1.1,2.6s0.4,1.9,1.1,2.6c0.7,0.7,1.6,1.1,2.6,1.1s1.9-0.4,2.6-1.1c0.7-0.7,1.1-1.6,1.1-2.6s-0.4-1.9-1.1-2.6
		C15.5,9.3,14.7,8.9,13.6,8.9z M21.1,8.9H30v1.5h-8.9V8.9z M21.1,11.9H30v1.5h-8.9V11.9z M21.1,14.9H27v1.5h-5.9V14.9z M30,31.3
		l3.6,2.2l-1-4.2l3.3-2.8l-4.3-0.3l-1.6-4l-1.7,4L24,26.6l3.3,2.8l-1,4.2L30,31.3z"/>
</g>
<g>
	<path class="st3" d="M18.4,35.7c-2.3,0-4.5-0.4-6.6-1.3c-2.1-0.9-4-2.1-5.6-3.7C4.6,29,3.3,27.1,2.4,25c-0.9-2.1-1.3-4.3-1.3-6.6
		c0-2.3,0.4-4.5,1.3-6.6c0.9-2.1,2.1-4,3.7-5.6c1.6-1.6,3.5-2.9,5.6-3.7c2.1-0.9,4.3-1.3,6.6-1.3c3.1,0,6,0.7,8.7,2.1
		c2.6,1.4,4.7,3.3,6.3,5.6c1.5,2.4,2.3,5,2.3,7.9c0,1.8-0.5,3.6-1.4,5.1c-0.9,1.6-2.2,2.9-3.8,3.8c-1.6,0.9-3.3,1.4-5.2,1.4h-3.1
		c-0.3,0-0.5,0.1-0.6,0.2s-0.2,0.4-0.2,0.6c0,0.1,0,0.1,0.1,0.3c0.1,0.1,0.1,0.2,0.1,0.3c0.7,0.9,1.1,1.8,1.1,2.9
		c0.1,1.2-0.2,2.2-1.1,3C20.7,35.2,19.7,35.7,18.4,35.7z M18.4,4.5c-2.5,0-4.8,0.6-6.9,1.9c-2.1,1.2-3.8,2.9-5.1,5.1
		c-1.2,2.1-1.9,4.4-1.9,6.9c0,2.5,0.6,4.8,1.9,6.9c1.2,2.1,2.9,3.8,5.1,5.1c2.1,1.2,4.4,1.9,6.9,1.9c0.3,0,0.5-0.1,0.6-0.2
		s0.2-0.4,0.2-0.6c0-0.1-0.1-0.3-0.2-0.5v-0.2c-0.7-0.9-1.1-1.8-1.1-2.8c0-1.2,0.4-2.2,1.3-3c0.8-0.8,1.9-1.3,3-1.3h2.9
		c1.9,0,3.6-0.7,4.9-2c1.4-1.3,2-3,2-4.9c0-2.2-0.6-4.3-1.9-6.1c-1.2-1.9-2.9-3.3-5.1-4.4C23.2,5.1,20.9,4.5,18.4,4.5z M8.9,14.9
		c0.6,0,1.2,0.3,1.8,0.8c0.5,0.5,0.8,1.1,0.8,1.8c0,0.7-0.3,1.3-0.8,1.8c-0.5,0.5-1.1,0.8-1.8,0.8c-0.7,0-1.3-0.3-1.8-0.8
		c-0.5-0.5-0.8-1.1-0.8-1.8c0-0.7,0.3-1.3,0.8-1.8C7.6,15.2,8.2,14.9,8.9,14.9z M14.1,8c0.6,0,1.2,0.3,1.8,0.8
		c0.5,0.5,0.8,1.1,0.8,1.8c0,0.7-0.3,1.3-0.8,1.8c-0.5,0.5-1.1,0.8-1.8,0.8c-0.7,0-1.3-0.3-1.8-0.8c-0.5-0.5-0.8-1.1-0.8-1.8
		c0-0.7,0.3-1.3,0.8-1.8C12.8,8.3,13.4,8,14.1,8z M22.7,8c0.7,0,1.3,0.3,1.8,0.8c0.5,0.5,0.8,1.1,0.8,1.8c0,0.7-0.3,1.3-0.8,1.8
		c-0.5,0.5-1.1,0.8-1.8,0.8c-0.7,0-1.3-0.3-1.8-0.8c-0.5-0.5-0.8-1.1-0.8-1.8c0-0.7,0.3-1.3,0.8-1.8C21.5,8.3,22.1,8,22.7,8z
		 M27.9,14.9c0.7,0,1.3,0.3,1.8,0.8c0.5,0.5,0.8,1.1,0.8,1.8c0,0.7-0.3,1.3-0.8,1.8c-0.5,0.5-1.1,0.8-1.8,0.8s-1.3-0.3-1.8-0.8
		c-0.5-0.5-0.8-1.1-0.8-1.8c0-0.7,0.3-1.3,0.8-1.8C26.7,15.2,27.3,14.9,27.9,14.9z"/>
</g>
</svg>
