<?xml version="1.0" encoding="utf-8"?>
<!-- Generator: Adobe Illustrator 25.4.1, SVG Export Plug-In . SVG Version: 6.00 Build 0)  -->
<svg version="1.1" xmlns="http://www.w3.org/2000/svg" xmlns:xlink="http://www.w3.org/1999/xlink" x="0px" y="0px"
	 viewBox="0 0 24 24" style="enable-background:new 0 0 24 24;" xml:space="preserve">
<style type="text/css">
	.st0{fill:#292D32;}
</style>
<path d="M17.7,22.7c-0.5,0-1.2-0.2-2.1-0.7l-3-1.8c-0.3-0.2-0.9-0.2-1.2,0l-3,1.8c-1.8,1.1-2.8,0.6-3.3,0.3
	c-0.5-0.3-1.2-1.2-0.7-3.2L5.1,16c0.1-0.3-0.1-0.9-0.3-1.1l-2.5-2.5c-1.2-1.2-1.1-2.3-1-2.8c0.2-0.5,0.7-1.4,2.4-1.7L7,7.3
	c0.3,0,0.7-0.4,0.9-0.6l1.8-3.5c0.8-1.6,1.8-1.8,2.4-1.8s1.6,0.2,2.4,1.8l1.8,3.5C16.3,7,16.7,7.3,17,7.3l3.2,0.5
	c1.7,0.3,2.3,1.2,2.4,1.7c0.2,0.5,0.3,1.6-1,2.8l-2.5,2.5c-0.2,0.2-0.4,0.8-0.3,1.1l0.7,3.1c0.5,2-0.2,2.9-0.7,3.2
	C18.6,22.5,18.2,22.7,17.7,22.7z M12,18.6c0.5,0,1,0.1,1.4,0.4l3,1.8c0.9,0.5,1.4,0.5,1.6,0.4c0.2-0.1,0.4-0.7,0.1-1.7l-0.7-3.1
	c-0.2-0.8,0.1-1.9,0.7-2.5l2.5-2.5c0.5-0.5,0.7-1,0.6-1.3c-0.1-0.3-0.6-0.6-1.2-0.7l-3.2-0.5c-0.8-0.1-1.6-0.8-2-1.5l-1.8-3.5
	c-0.3-0.6-0.7-1-1.1-1c-0.4,0-0.8,0.4-1.1,1L9.2,7.4C8.8,8.1,8,8.7,7.2,8.8L4,9.4c-0.7,0.1-1.1,0.4-1.2,0.7
	c-0.1,0.3,0.1,0.8,0.6,1.3l2.5,2.5c0.6,0.6,0.9,1.7,0.7,2.5l-0.7,3.1c-0.2,1-0.1,1.5,0.1,1.7c0.2,0.2,0.8,0.1,1.6-0.4l3-1.8
	C11,18.7,11.5,18.6,12,18.6z"/>
</svg>
