<?xml version="1.0" encoding="utf-8"?>
<!-- Generator: Adobe Illustrator 23.0.3, SVG Export Plug-In . SVG Version: 6.00 Build 0)  -->
<svg version="1.1" id="Layer_1" xmlns="http://www.w3.org/2000/svg" xmlns:xlink="http://www.w3.org/1999/xlink" x="0px" y="0px"
	 viewBox="0 0 36 36" style="enable-background:new 0 0 36 36;" xml:space="preserve">
<style type="text/css">
	.st0{fill:#2B2B2B;}
</style>
<g>
	<path class="st0" d="M9.2,18.9l0.8-3.4l-2.6-2.3l3.5-0.3l1.4-3.2l1.4,3.2l3.5,0.3l-2.6,2.3l0.8,3.4l-3-1.8L9.2,18.9z"/>
</g>
<g>
	<path class="st0" d="M21.3,18.9l0.8-3.4l-2.6-2.3l3.5-0.3l1.4-3.2l1.4,3.2l3.5,0.3l-2.6,2.3l0.8,3.4l-3-1.8L21.3,18.9z"/>
</g>
<g>
	<path class="st0" d="M15.6,27l0.8-3.4l-2.6-2.3l3.5-0.3l1.4-3.2L20,21l3.5,0.3l-2.6,2.3l0.8,3.4l-3-1.8L15.6,27z"/>
</g>
</svg>
