<?xml version="1.0" encoding="utf-8"?>
<!-- Generator: Adobe Illustrator 25.4.1, SVG Export Plug-In . SVG Version: 6.00 Build 0)  -->
<svg version="1.1" xmlns="http://www.w3.org/2000/svg" xmlns:xlink="http://www.w3.org/1999/xlink" x="0px" y="0px"
	 viewBox="0 0 24 24" style="enable-background:new 0 0 24 24;" xml:space="preserve">
<style type="text/css">
	.st0{fill:none;stroke:#2B2B2B;stroke-width:1.25;stroke-miterlimit:10;}
</style>
<g>
	<path d="M10.5,7.9c0-0.9,0.7-1.2,1.9-1.2c0.9,0,1.8,0.1,2.8,0.4c1.5,0.4,2.8-0.8,2.8-2.3V4.5c0-1-0.7-2-1.7-2.3
		c-1.3-0.3-2.6-0.5-4-0.5c-4.6,0-7.7,2.4-7.7,6.4c0,6.3,8.7,5.3,8.7,8c0,1.1-0.9,1.4-2.2,1.4c-1,0-2.1-0.2-3.2-0.6
		c-1.5-0.5-3,0.7-3,2.2v0c0,1,0.7,1.9,1.6,2.2c1.5,0.5,3,0.7,4.6,0.7c4.7,0,8-2,8-6.1C19.2,9.3,10.5,10.5,10.5,7.9L10.5,7.9z"/>
</g>
</svg>
