<svg id="Layer_1" data-name="Layer 1" xmlns="http://www.w3.org/2000/svg" viewBox="0 0 360 149.8"><title>omnipay_stripe</title><g id="Stripe"><path d="M9,1002.9c0-25.6-12.4-45.8-36.1-45.8s-38.2,20.2-38.2,45.6c0,30.1,17,45.3,41.4,45.3,11.9,0,20.9-2.7,27.7-6.5v-20a53.1,53.1,0,0,1-24.5,5.5c-9.7,0-18.3-3.4-19.4-15.2H8.8C8.8,1010.5,9,1005.3,9,1002.9Zm-49.4-9.5c0-11.3,6.9-16,13.2-16,6.1,0,12.6,4.7,12.6,16H-40.4Z" transform="translate(351 -925.5)" style="fill:#6772e5"/><path d="M-103.9,957.1a28.25,28.25,0,0,0-19.6,7.8l-1.3-6.2h-22v116.6l25-5.3,0.1-28.3c3.6,2.6,8.9,6.3,17.7,6.3,17.9,0,34.2-14.4,34.2-46.1C-69.9,972.9-86.4,957.1-103.9,957.1Zm-6,68.9c-5.9,0-9.4-2.1-11.8-4.7l-0.1-37.1c2.6-2.9,6.2-4.9,11.9-4.9,9.1,0,15.4,10.2,15.4,23.3C-94.5,1016-100.7,1026-109.9,1026Z" transform="translate(351 -925.5)" style="fill:#6772e5"/><polygon points="169.8 25.7 194.9 20.3 194.9 0 169.8 5.3 169.8 25.7" style="fill:#6772e5"/><rect x="169.8" y="33.3" width="25.1" height="87.5" style="fill:#6772e5"/><path d="M-208.1,966.2l-1.6-7.4h-21.6v87.5h25V987c5.9-7.7,15.9-6.3,19-5.2v-23C-190.5,957.6-202.2,955.4-208.1,966.2Z" transform="translate(351 -925.5)" style="fill:#6772e5"/><path d="M-258.1,937.1l-24.4,5.2-0.1,80.1c0,14.8,11.1,25.7,25.9,25.7,8.2,0,14.2-1.5,17.5-3.3v-20.3c-3.2,1.3-19,5.9-19-8.9V980.1h19V958.8h-19Z" transform="translate(351 -925.5)" style="fill:#6772e5"/><path d="M-325.7,984.2c0-3.9,3.2-5.4,8.5-5.4a55.78,55.78,0,0,1,24.8,6.4V961.7a66,66,0,0,0-24.8-4.6c-20.3,0-33.8,10.6-33.8,28.3,0,27.6,38,23.2,38,35.1,0,4.6-4,6.1-9.6,6.1-8.3,0-18.9-3.4-27.3-8v23.8a69.32,69.32,0,0,0,27.3,5.7c20.8,0,35.1-10.3,35.1-28.2C-287.6,990.1-325.7,995.4-325.7,984.2Z" transform="translate(351 -925.5)" style="fill:#6772e5"/></g></svg>