<?xml version="1.0" encoding="utf-8"?>
<!-- Generator: Adobe Illustrator 23.0.3, SVG Export Plug-In . SVG Version: 6.00 Build 0)  -->
<svg version="1.1" id="Layer_1" xmlns="http://www.w3.org/2000/svg" xmlns:xlink="http://www.w3.org/1999/xlink" x="0px" y="0px"
	 viewBox="0 0 36 36" style="enable-background:new 0 0 36 36;" xml:space="preserve">
<style type="text/css">
	.st0{fill:#2B2B2B;}
</style>
<path class="st0" d="M15.6,12.6c0-1.3,1.1-1.8,2.8-1.8c2.5,0,5.7,0.8,8.2,2.1V5.2c-2.7-1.1-5.5-1.5-8.2-1.5C11.7,3.6,7.2,7.1,7.2,13
	c0,9.1,12.6,7.6,12.6,11.6c0,1.5-1.3,2-3.2,2c-2.7,0-6.3-1.1-9-2.6v7.8c3.1,1.3,6.2,1.9,9,1.9c6.9,0,11.6-3.4,11.6-9.3
	C28.2,14.5,15.6,16.3,15.6,12.6z"/>
</svg>
