<?xml version="1.0" encoding="utf-8"?>
<!-- Generator: Adobe Illustrator 22.0.1, SVG Export Plug-In . SVG Version: 6.00 Build 0)  -->
<svg version="1.1" xmlns="http://www.w3.org/2000/svg" xmlns:xlink="http://www.w3.org/1999/xlink" x="0px" y="0px"
	 viewBox="0 0 10.9 215.2" style="enable-background:new 0 0 10.9 215.2;" xml:space="preserve">
<style type="text/css">
	.st0{fill:#EE4034;}
</style>
<path d="M0,0c0,0.1,0,0.3,0,0.4c0,4.5,2.4,6.8,4.5,8.8C6.4,11,8,12.6,8,15.8c0,3.2-1.6,4.8-3.5,6.6
	c-2.1,2-4.5,4.3-4.5,8.8c0,4.4,2.4,6.7,4.4,8.7C6.4,41.7,8,43.3,8,46.5c0,3.1-1.6,4.7-3.5,6.5C2.4,55,0,57.3,0,61.8
	c0,4.5,2.4,6.8,4.5,8.8C6.4,72.4,8,74,8,77.2S6.4,82,4.5,83.8c-2.1,2-4.5,4.3-4.5,8.8c0,4.5,2.4,6.8,4.5,8.8
	c1.9,1.8,3.5,3.4,3.5,6.6c0,3.1-1.6,4.7-3.5,6.5c-2.1,2-4.5,4.3-4.5,8.8c0,4.4,2.4,6.7,4.4,8.7c1.9,1.8,3.6,3.4,3.6,6.6
	c0,3.1-1.6,4.7-3.5,6.5c-2.1,2-4.5,4.3-4.5,8.8c0,4.4,2.4,6.7,4.5,8.7c1.9,1.8,3.5,3.4,3.5,6.6c0,3.1-1.6,4.7-3.5,6.5
	c-2.1,2-4.5,4.3-4.5,8.8c0,4.5,2.4,6.8,4.5,8.8c1.9,1.8,3.5,3.4,3.5,6.6c0,3.1-1.6,4.7-3.5,6.5c-2.1,2-4.5,4.3-4.5,8.8h3
	c0-3.2,1.6-4.8,3.6-6.6c2.1-2,4.4-4.2,4.4-8.7c0-4.5-2.4-6.8-4.5-8.8c-1.9-1.8-3.5-3.4-3.5-6.6c0-3.2,1.6-4.8,3.6-6.6
	c2.1-2,4.4-4.2,4.4-8.7c0-4.4-2.4-6.7-4.5-8.7c-1.9-1.8-3.5-3.4-3.5-6.6c0-3.2,1.6-4.8,3.6-6.6c2.1-2,4.4-4.2,4.4-8.7
	c0-4.5-2.4-6.8-4.5-8.8C4.6,128,3,126.5,3,123.3c0-3.2,1.6-4.8,3.6-6.6c2.1-2,4.4-4.2,4.4-8.7c0-4.5-2.4-6.8-4.5-8.8
	C4.6,97.4,3,95.8,3,92.6c0-3.2,1.6-4.8,3.5-6.6c2.1-2,4.5-4.3,4.5-8.8s-2.4-6.8-4.5-8.8C4.6,66.6,3,65,3,61.8c0-3.2,1.6-4.8,3.6-6.6
	c2.1-2,4.4-4.3,4.4-8.7c0-4.5-2.4-6.8-4.5-8.8C4.6,35.9,3,34.4,3,31.2c0-3.2,1.6-4.8,3.5-6.6c2.1-2,4.5-4.3,4.5-8.8
	c0-4.5-2.4-6.8-4.5-8.8C4.6,5.2,3,3.6,3,0.4C3,0.3,3,0.2,3,0H0z"/>
</svg>
