<?xml version="1.0" encoding="utf-8"?>
<!-- Generator: Adobe Illustrator 25.4.1, SVG Export Plug-In . SVG Version: 6.00 Build 0)  -->
<svg version="1.1" xmlns="http://www.w3.org/2000/svg" xmlns:xlink="http://www.w3.org/1999/xlink" x="0px" y="0px"
	 viewBox="0 0 24 24" style="enable-background:new 0 0 24 24;" xml:space="preserve">
<style type="text/css">
	.st0{fill:#2B2B2B;}
	.st1{fill:#2B2B2B;stroke:#2B2B2B;stroke-width:0.5;stroke-miterlimit:10;}
	.st2{fill:#2B2B2B;stroke:#2B2B2B;stroke-width:0.25;stroke-miterlimit:10;}
</style>
<path d="M11.8,12.8C8.6,12.8,6,10.2,6,7s2.6-5.8,5.8-5.8s5.8,2.6,5.8,5.8S15,12.8,11.8,12.8z M11.8,2.8
	C9.5,2.8,7.6,4.7,7.6,7s1.9,4.2,4.2,4.2S16,9.3,16,7S14.1,2.8,11.8,2.8z"/>
<path d="M3.2,22.8c-0.4,0-0.8-0.3-0.8-0.8c0-4.3,4.2-7.8,9.3-7.8c0.4,0,0.8,0.3,0.8,0.8s-0.3,0.8-0.8,0.8
	c-4.3,0-7.8,2.8-7.8,6.2C4,22.4,3.6,22.8,3.2,22.8z"/>
<path class="st1" d="M18,22.6c-0.6,0-1.1-0.2-1.6-0.6c-1.1-1.1-2.4-2.8-1.9-4.9c0.4-1.9,2.1-2.7,3.5-2.7l0,0c1.4,0,3.1,0.8,3.5,2.7
	c0.5,2.1-0.8,3.8-1.9,4.9C19.1,22.4,18.6,22.6,18,22.6z M18,15c-1.1,0-2.5,0.6-2.9,2.3c-0.4,1.7,0.7,3.3,1.7,4.2
	c0.7,0.6,1.7,0.6,2.4,0c1-1,2.1-2.5,1.7-4.3C20.5,15.6,19.1,15,18,15z"/>
<path class="st2" d="M17.5,19.2c-0.1,0-0.1,0-0.2-0.1l-0.6-0.6c-0.1-0.1-0.1-0.3,0-0.4s0.3-0.1,0.4,0l0.4,0.4l1.3-1.3
	c0.1-0.1,0.3-0.1,0.4,0s0.1,0.3,0,0.4l-1.5,1.5C17.7,19.1,17.6,19.2,17.5,19.2z"/>
</svg>
