<?xml version="1.0" encoding="utf-8"?>
<!-- Generator: Adobe Illustrator 23.0.3, SVG Export Plug-In . SVG Version: 6.00 Build 0)  -->
<svg version="1.1" id="Layer_1" xmlns="http://www.w3.org/2000/svg" xmlns:xlink="http://www.w3.org/1999/xlink" x="0px" y="0px"
	 viewBox="0 0 36 36" style="enable-background:new 0 0 36 36;" xml:space="preserve">
<style type="text/css">
	.st0{fill:#2B2B2B;}
</style>
<g>
	<path class="st0" d="M26.3,26.5H9.4c-0.6,0-1.1-0.2-1.6-0.7s-0.7-1-0.7-1.6V10.8c0-0.6,0.2-1.2,0.7-1.6c0.4-0.4,1-0.7,1.6-0.7h6.8
		l2.3,2.3h7.9c0.6,0,1.2,0.2,1.6,0.7c0.4,0.4,0.7,1,0.7,1.6H9.4v11.2l2.4-9H31l-2.5,9.6c-0.1,0.5-0.4,0.9-0.8,1.2
		S26.8,26.5,26.3,26.5z"/>
</g>
</svg>
