<?xml version="1.0" encoding="utf-8"?>
<!-- Generator: Adobe Illustrator 25.2.1, SVG Export Plug-In . SVG Version: 6.00 Build 0)  -->
<svg version="1.1" xmlns="http://www.w3.org/2000/svg" xmlns:xlink="http://www.w3.org/1999/xlink" x="0px" y="0px"
	 viewBox="0 0 24 24" style="enable-background:new 0 0 24 24;" xml:space="preserve">
<style type="text/css">
	.st0{display:none;}
	.st1{fill:#2B2B2B;}
	.st2{fill:none;}
</style>
<g id="Layer_1_1_" class="st0">
</g>
<g id="Layer_2_1_" class="st0">
</g>
<g id="Layer_3" class="st0">
</g>
<g id="Layer_5" class="st0">
</g>
<g id="Layer_4" class="st0">
</g>
<g id="Layer_7" class="st0">
</g>
<g id="Layer_8">
	<path class="st1" d="M19,11.6c0.6,0,1.1,0.2,1.6,0.5h0.2v-1.8c0-3.5-0.9-4.4-4.4-4.4h-2.6c-0.6,0.1-1.1-0.2-1.4-0.7l-1.3-1.8
		C10.7,2.6,9.9,2.2,9,2.3H7.7c-3.5,0-4.4,0.9-4.4,4.4V12h0.3c0.5-0.3,1-0.4,1.6-0.4H19z M4.1,11.7V6.8c0,0,0.1-1.9,0.5-2.2
		c0,0,0.4-0.9,2.5-0.9h2.1c0,0,1-0.2,1.5,0.7l1.5,2c0,0,0.6,0.7,1.4,0.7H17c0,0,2.5-0.1,2.7,1.6c0,0,0.3,0.5,0.2,1.4v1.8
		c0,0-0.8-0.2-1.6-0.2H5.4C5.4,11.5,4.1,11.5,4.1,11.7z"/>
	<g>
		<path class="st2" d="M21.3,14.7c0-2.7-2.8-2.5-2.8-2.5H5.9c-3.1,0-2.8,2.3-2.8,2.3L3.6,20c0,1.4,2.1,1.3,2.1,1.3H19
			c1.9,0,1.8-1.4,1.8-1.4L21.3,14.7z M14.7,17.4H9.3v-1.2h5.4V17.4z"/>
		<g>
			<path class="st2" d="M18.5,12.2H5.9c-3.1,0-2.8,2.3-2.8,2.3L3.6,20c0,1.4,2.1,1.3,2.1,1.3H19c1.9,0,1.8-1.4,1.8-1.4l0.5-5.2
				C21.3,12,18.5,12.2,18.5,12.2z M14.7,17.4H9.3v-1.2h5.4V17.4z"/>
			<g>
				<path class="st2" d="M18.5,12.2H5.9c-3.1,0-2.8,2.3-2.8,2.3L3.6,20c0,1.4,2.1,1.3,2.1,1.3H19c1.9,0,1.8-1.4,1.8-1.4l0.5-5.2
					C21.3,12,18.5,12.2,18.5,12.2z M14.7,17.4H9.3v-1.2h5.4V17.4z"/>
				<path class="st1" d="M21.6,11.9c-0.2-0.3-0.5-0.5-0.8-0.7c-3,0-6,0-9,0c-2.8,0-5.6,0-8.4,0c-0.1,0.1-0.3,0.2-0.4,0.3
					s-0.3,0.2-0.4,0.4c-0.5,0.7-0.8,1.5-0.7,2.3l0.4,5.3c0.2,1.6,0.3,2.8,3.1,2.8h13.3c2.9,0,3-1.2,3.1-2.8l0.4-5.3
					C22.4,13.3,22.1,12.5,21.6,11.9z M20.8,19.9c0,0,0.1,1.4-1.8,1.4H5.7c0,0-2.1,0.1-2.1-1.3l-0.5-5.5c0,0-0.3-2.3,2.8-2.3h12.6
					c0,0,2.8-0.2,2.8,2.5L20.8,19.9z"/>
			</g>
		</g>
	</g>
</g>
<g id="Layer_6">
</g>
</svg>
