<?xml version="1.0" encoding="utf-8"?>
<!-- Generator: Adobe Illustrator 25.4.1, SVG Export Plug-In . SVG Version: 6.00 Build 0)  -->
<svg version="1.1" id="Layer_1" xmlns="http://www.w3.org/2000/svg" xmlns:xlink="http://www.w3.org/1999/xlink" x="0px" y="0px"
	 viewBox="0 0 24 24" style="enable-background:new 0 0 24 24;" xml:space="preserve">
<style type="text/css">
	.st0{fill:none;stroke:#2B2B2B;stroke-width:1.5;}
	.st1{fill:none;stroke:#2B2B2B;stroke-width:1.5;stroke-linecap:round;stroke-linejoin:round;}
</style>
<g id="_21a" transform="translate(-1.562 -1.252)">
	<path id="Vector" class="st0" d="M23.2,15.5l-0.4,5c-0.1,1.5-0.3,2.7-3,2.7H7.3c-2.7,0-2.8-1.2-3-2.7l-0.4-5
		C3.8,14.8,4,14,4.5,13.4l0,0c0.6-0.7,1.4-1.1,2.3-1.1h13.4c0.9,0,1.7,0.4,2.3,1.1c0,0,0,0,0,0C23.1,14,23.3,14.8,23.2,15.5z"/>
	<path id="Vector-2" class="st1" d="M5.1,12.7V7.5c0-3.4,0.8-4.2,4.2-4.2h1.3c0.8-0.1,1.6,0.3,2,1L13.9,6c0.3,0.5,0.8,0.8,1.4,0.7
		h2.6c3.4,0,4.2,0.8,4.2,4.3v1.8"/>
	<path id="Vector-3" class="st1" d="M11,18.2h5.1"/>
</g>
</svg>
