<?xml version="1.0" encoding="utf-8"?>
<!-- Generator: Adobe Illustrator 25.2.1, SVG Export Plug-In . SVG Version: 6.00 Build 0)  -->
<svg version="1.1" xmlns="http://www.w3.org/2000/svg" xmlns:xlink="http://www.w3.org/1999/xlink" x="0px" y="0px"
	 viewBox="0 0 24 24" style="enable-background:new 0 0 24 24;" xml:space="preserve">
<style type="text/css">
	.st0{fill:#2B2B2B;}
</style>
<g id="Layer_1">
</g>
<g id="Layer_2">
</g>
<g id="Layer_3">
</g>
<g id="Layer_5">
</g>
<g id="Layer_4">
</g>
<g id="Layer_7">
</g>
<g id="Layer_8">
	<g>
		<path class="st0" d="M19,11.6c0.6,0,1.1,0.2,1.6,0.5l0.2,0v-1.8c0-3.5-0.9-4.4-4.4-4.4h-2.6c-0.6,0.1-1.1-0.2-1.4-0.7l-1.3-1.8
			C10.7,2.6,9.9,2.2,9,2.3H7.7c-3.5,0-4.4,0.9-4.4,4.4V12l0.3,0c0.5-0.3,1-0.4,1.6-0.4H19z M4.1,11.7V6.8c0,0,0.1-1.9,0.5-2.2
			c0,0,0.4-0.9,2.5-0.9h2.1c0,0,1-0.2,1.5,0.7l1.5,2c0,0,0.6,0.7,1.4,0.7H17c0,0,2.5-0.1,2.7,1.6c0,0,0.3,0.5,0.2,1.4v1.8
			c0,0-0.8-0.2-1.6-0.2H5.4C5.4,11.5,4.1,11.5,4.1,11.7z"/>
		<path class="st0" d="M21.6,11.9C21.6,11.9,21.5,11.8,21.6,11.9c-0.2-0.3-0.5-0.5-0.8-0.7c-3,0-6,0-9,0c-2.8,0-5.6,0-8.4,0
			c-0.1,0.1-0.3,0.2-0.4,0.3c-0.1,0.1-0.3,0.2-0.4,0.4l0,0c-0.5,0.7-0.8,1.5-0.7,2.3l0.4,5.3c0.2,1.6,0.3,2.8,3.1,2.8h13.3
			c2.9,0,3-1.2,3.1-2.8l0.4-5.3C22.4,13.3,22.1,12.5,21.6,11.9z M20.8,19.9c0,0,0.1,1.4-1.8,1.4H5.7c0,0-2.1,0.1-2.1-1.3l-0.5-5.5
			c0,0-0.3-2.3,2.8-2.3h12.6c0,0,2.8-0.2,2.8,2.5L20.8,19.9z"/>
	</g>
	<rect x="9.3" y="16.2" class="st0" width="5.4" height="1.2"/>
</g>
<g id="Layer_6">
</g>
</svg>
