<?xml version="1.0" encoding="utf-8"?>
<!-- Generator: Adobe Illustrator 23.0.3, SVG Export Plug-In . SVG Version: 6.00 Build 0)  -->
<svg version="1.1" id="Layer_1" xmlns="http://www.w3.org/2000/svg" xmlns:xlink="http://www.w3.org/1999/xlink" x="0px" y="0px"
	 viewBox="0 0 36 36" style="enable-background:new 0 0 36 36;" xml:space="preserve">
<style type="text/css">
	.st0{fill:#2B2B2B;}
</style>
<g>
	<path class="st0" d="M13.7,15.6v3H9.2v4.5h-3v-4.5H1.6v-3h4.5v-4.5h3v4.5H13.7z M27.6,22.3c2,0.5,3.6,1.2,4.9,2
		c1.5,1,2.3,2.1,2.3,3.3v3h-24v-3c0-1.2,0.7-2.3,2.3-3.3c1.2-0.8,2.8-1.5,4.9-2c1.8-0.4,3.4-0.6,4.9-0.6
		C24.2,21.6,25.8,21.8,27.6,22.3z M18.4,16.9c-1.2-1.2-1.8-2.6-1.8-4.3c0-1.7,0.6-3.1,1.8-4.3c1.2-1.2,2.6-1.8,4.2-1.8
		c1.6,0,3,0.6,4.2,1.8c1.2,1.2,1.8,2.6,1.8,4.3c0,1.7-0.6,3.1-1.8,4.3c-1.2,1.2-2.6,1.8-4.2,1.8C21,18.6,19.6,18,18.4,16.9z"/>
</g>
</svg>
