<?xml version="1.0" encoding="utf-8"?>
<!-- Generator: Adobe Illustrator 25.4.1, SVG Export Plug-In . SVG Version: 6.00 Build 0)  -->
<svg version="1.1" id="Layer_1" xmlns="http://www.w3.org/2000/svg" xmlns:xlink="http://www.w3.org/1999/xlink" x="0px" y="0px"
	 viewBox="0 0 24 24" style="enable-background:new 0 0 24 24;" xml:space="preserve">
<style type="text/css">
	.st0{fill:#292D32;}
</style>
<path class="st0" d="M12,12.8c-3.2,0-5.8-2.6-5.8-5.8S8.8,1.2,12,1.2s5.8,2.6,5.8,5.8S15.2,12.8,12,12.8z M12,2.8
	C9.7,2.8,7.8,4.7,7.8,7s1.9,4.2,4.2,4.2s4.2-1.9,4.2-4.2S14.3,2.8,12,2.8z"/>
<path class="st0" d="M3.4,22.8c-0.4,0-0.8-0.3-0.8-0.8c0-4.3,4.2-7.8,9.3-7.8c1,0,2,0.1,3,0.4c0.4,0.1,0.6,0.5,0.5,0.9
	c-0.1,0.4-0.5,0.6-0.9,0.5c-0.8-0.2-1.7-0.3-2.6-0.3c-4.3,0-7.8,2.8-7.8,6.2C4.2,22.4,3.8,22.8,3.4,22.8z"/>
<path class="st0" d="M18,22.8c-1.2,0-2.3-0.4-3.2-1.2c-0.4-0.3-0.7-0.7-0.9-1.1c-0.4-0.7-0.7-1.6-0.7-2.4c0-1.2,0.5-2.4,1.3-3.3
	c0.9-0.9,2.1-1.4,3.4-1.4c1.4,0,2.6,0.6,3.5,1.6c0.8,0.9,1.2,2,1.2,3.2c0,0.4,0,0.8-0.1,1.1c-0.1,0.4-0.3,0.9-0.6,1.3
	C21.2,21.9,19.7,22.8,18,22.8z M18,14.8c-0.9,0-1.7,0.4-2.3,1c-0.6,0.6-0.9,1.4-0.9,2.3c0,0.6,0.2,1.2,0.5,1.7
	c0.2,0.3,0.4,0.5,0.6,0.7c0.6,0.5,1.4,0.9,2.2,0.9c1.1,0,2.2-0.6,2.8-1.6c0.2-0.3,0.3-0.6,0.4-0.9c0.1-0.3,0.1-0.5,0.1-0.8
	c0-0.8-0.3-1.6-0.8-2.2C19.8,15.1,18.9,14.8,18,14.8z"/>
<path class="st0" d="M19.5,18.7h-3c-0.4,0-0.8-0.3-0.8-0.8s0.3-0.8,0.8-0.8h3c0.4,0,0.8,0.3,0.8,0.8S19.9,18.7,19.5,18.7z"/>
<path class="st0" d="M18,20.3c-0.4,0-0.8-0.3-0.8-0.8v-3c0-0.4,0.3-0.8,0.8-0.8s0.8,0.3,0.8,0.8v3C18.8,19.9,18.4,20.3,18,20.3z"/>
</svg>
