<svg xmlns="http://www.w3.org/2000/svg" viewBox="0 0 48.5 48.5"><defs><style>.cls-1{fill:#fff;}.cls-2{fill:#3a7afe;}</style></defs><title>Recurso 4</title><g id="Capa_2" data-name="Capa 2"><g id="Capa_1-2" data-name="Capa 1"><rect class="cls-1" x="7.08" y="7.08" width="34.33" height="34.33" transform="translate(22.69 -10.01) rotate(42.39)"/><path class="cls-2" d="M16.5,15.49a12,12,0,0,0-4,8.19l2.19-.07A9.84,9.84,0,0,1,34.26,23L36.44,23A12,12,0,0,0,16.5,15.49ZM31.09,31.76A9.84,9.84,0,0,1,14.8,26l-2.19.06a12,12,0,0,0,23.89-.7l-2.19.06A9.87,9.87,0,0,1,31.09,31.76Z"/><polygon class="cls-2" points="1.33 25.2 31.85 30.52 26.2 23.05 46.86 23.54 16.84 19 22.43 25.54 1.33 25.2"/></g></g></svg>