<?xml version="1.0" encoding="utf-8"?>
<!-- Generator: Adobe Illustrator 23.0.3, SVG Export Plug-In . SVG Version: 6.00 Build 0)  -->
<svg version="1.1" id="Layer_1" xmlns="http://www.w3.org/2000/svg" xmlns:xlink="http://www.w3.org/1999/xlink" x="0px" y="0px"
	 viewBox="0 0 36 36" style="enable-background:new 0 0 36 36;" xml:space="preserve">
<style type="text/css">
	.st0{fill:#2B2B2B;}
</style>
<g>
	<path class="st0" d="M29,9.2c0.4,0.4,0.7,1,0.7,1.6v13.5c0,0.6-0.2,1.2-0.7,1.6s-1,0.7-1.6,0.7h-18c-0.6,0-1.1-0.2-1.6-0.7
		s-0.7-1-0.7-1.6V10.8c0-0.6,0.2-1.2,0.7-1.6c0.4-0.4,1-0.7,1.6-0.7h18C28,8.5,28.6,8.7,29,9.2z M27.4,10.8l-9,5.6l-9-5.6V13l9,5.6
		l9-5.6V10.8z"/>
</g>
</svg>
