<svg id="Layer_1" data-name="Layer 1" xmlns="http://www.w3.org/2000/svg" viewBox="0 0 50 35"><title>2</title><g id="_Group_" data-name="&lt;Group&gt;"><path id="_Compound_Path_" data-name="&lt;Compound Path&gt;" d="M457.14,494.35a3.76,3.76,0,0,0-1.41.27L477,514.39a1.77,1.77,0,0,0,2.73,0l21.31-19.77a3.76,3.76,0,0,0-1.41-.27h-42.5Zm-3.71,3.24a3.87,3.87,0,0,0,0,.51v27.5a3.74,3.74,0,0,0,3.75,3.75h42.5a3.74,3.74,0,0,0,3.75-3.75V498.1a3.87,3.87,0,0,0,0-.51l-21.07,19.53a5.77,5.77,0,0,1-7.81,0l-21-19.53h0Z" transform="translate(-453.39 -494.35)" style="fill:#d10da3"/></g></svg>