<svg xmlns="http://www.w3.org/2000/svg" xmlns:xlink="http://www.w3.org/1999/xlink" width="24px" height="24px" fill="currentColor" version="1.1" id="Capa_1" viewBox="0 0 455.731 455.731" xml:space="preserve">
<g>
	<path d="M296.076,105.381c-45.26-8.61-91.16-8.61-136.43,0c-19.8,4.41-44.71,28.28-49.58,47.48c-8.1,37.15-8.1,74.81,0,111.96   c4.87,19.2,29.78,43.07,49.58,47.48c0.005,0.001,0.01,0.002,0.015,0.003c0.882,0.173,1.525,0.937,1.525,1.836v54.422   c0,2.72,3.32,4.06,5.21,2.09l25.85-26.53c0,0,20.599-21.146,24.303-24.948c0.362-0.372,0.862-0.573,1.38-0.559   c26.099,0.723,52.226-1.385,78.147-6.313c19.8-4.41,44.72-28.28,49.58-47.48c8.11-37.15,8.11-74.81,0-111.96   C340.795,133.661,315.886,109.791,296.076,105.381z M296.766,267.592c-3.96,8.408-9.722,15.403-18.034,19.868   c-2.345,1.26-5.148,1.667-7.795,2.482c-3.044-0.924-5.945-1.545-8.639-2.663c-27.916-11.582-53.608-26.524-73.959-49.429   c-11.573-13.025-20.632-27.73-28.288-43.292c-3.631-7.38-6.691-15.049-9.81-22.668c-2.845-6.948,1.345-14.126,5.756-19.361   c4.139-4.913,9.465-8.673,15.233-11.444c4.502-2.163,8.943-0.916,12.231,2.9c7.108,8.25,13.637,16.922,18.924,26.485   c3.251,5.882,2.359,13.072-3.533,17.075c-1.432,0.973-2.737,2.115-4.071,3.214c-1.17,0.963-2.271,1.936-3.073,3.24   c-1.466,2.385-1.536,5.2-0.592,7.794c7.266,19.968,19.513,35.495,39.611,43.858c3.217,1.338,6.446,2.896,10.151,2.464   c6.205-0.725,8.214-7.531,12.562-11.087c4.25-3.475,9.681-3.521,14.259-0.624c4.579,2.898,9.018,6.009,13.43,9.153   c4.331,3.086,8.643,6.105,12.638,9.623C297.606,258.562,298.929,263,296.766,267.592z M260.722,202.523   c-1.733,0.031-1.052-0.003-0.393-0.022c-2.793-0.098-4.312-1.742-4.612-4.415c-0.219-1.953-0.392-3.932-0.858-5.832   c-0.918-3.742-2.907-7.21-6.054-9.503c-1.486-1.083-3.17-1.873-4.934-2.381c-2.241-0.647-4.568-0.469-6.804-1.017   c-2.428-0.594-3.771-2.561-3.39-4.839c0.347-2.073,2.364-3.691,4.629-3.527c14.157,1.022,24.275,8.341,25.719,25.008   c0.102,1.176,0.222,2.418-0.039,3.543c-0.424,1.829-1.731,2.781-3.052,2.954C261.042,202.494,261.021,202.503,260.722,202.523z    M251.919,164.404c-4.344-2.127-9.042-3.449-13.804-4.237c-2.081-0.344-4.184-0.553-6.275-0.844   c-2.534-0.352-3.886-1.967-3.767-4.464c0.112-2.34,1.822-4.023,4.372-3.879c8.38,0.476,16.474,2.287,23.924,6.232   c15.15,8.023,23.804,20.687,26.33,37.597c0.115,0.766,0.298,1.525,0.356,2.294c0.144,1.898,0.233,3.799,0.379,6.302   c-0.06,0.456-0.092,1.528-0.358,2.538c-0.969,3.666-6.527,4.125-7.807,0.425c-0.379-1.098-0.436-2.347-0.438-3.529   c-0.013-7.734-1.694-15.46-5.594-22.189C265.228,173.736,259.102,167.922,251.919,164.404z M298.731,216.665   c-2.927,0.035-4.244-2.414-4.434-5.039c-0.376-5.196-0.636-10.415-1.353-15.568c-3.78-27.201-25.47-49.705-52.544-54.534   c-4.074-0.727-8.245-0.918-12.371-1.351c-2.609-0.274-6.026-0.432-6.604-3.675c-0.485-2.719,1.81-4.884,4.399-5.023   c0.704-0.038,1.412-0.006,2.119-0.003c35.065,0.983,2.14,0.076,0.094,0.005c36.472,1.063,66.417,25.283,72.839,61.351   c1.095,6.151,1.485,12.44,1.972,18.683C303.052,214.136,301.565,216.631,298.731,216.665z"/>
    <path d="M0,0v455.731h455.731V0H0z M371.996,270.781l-0.09,0.36c-7.28,29.43-40.1,61.01-70.24,67.58l-0.34,0.07   c-24.37,4.65-48.92,6.97-73.46,6.97c-7.223,0-14.446-0.225-21.665-0.629l-33.285,34.599c-8.24,8.58-22.73,2.74-22.73-9.15v-32.852   c-29.015-8.286-59.391-38.414-66.37-66.589l-0.08-0.36c-9-41.1-9-82.78,0-123.88l0.08-0.36c7.29-29.43,40.11-61.01,70.24-67.58   l0.35-0.07c48.74-9.3,98.17-9.3,146.92,0l0.34,0.07c30.14,6.57,62.96,38.15,70.24,67.58l0.09,0.36   C380.996,188.001,380.996,229.681,371.996,270.781z"/>
</g>
</svg>
