<?xml version="1.0" encoding="utf-8"?>
<!-- Generator: Adobe Illustrator 26.0.0, SVG Export Plug-In . SVG Version: 6.00 Build 0)  -->
<svg fill="currentColor" version="1.1" id="Layer_1" xmlns="http://www.w3.org/2000/svg" xmlns:xlink="http://www.w3.org/1999/xlink" x="0px" y="0px"
	 viewBox="0 0 590 230" style="enable-background:new 0 0 590 230;" xml:space="preserve">
<style type="text/css">
	.st0{fill:none;stroke:#BBBFC2;stroke-miterlimit:10;}
	.st1{fill:none;stroke:#ECECEC;stroke-miterlimit:10;}
	.st2{fill:#E1E1E1;}
	.st3{fill:none;stroke:#F1F2F4;stroke-miterlimit:10;}
	.st4{fill:#ECECEC;}
	.st5{fill:none;stroke:#C6C6C6;stroke-miterlimit:10;}
	.st6{fill:none;stroke:#BCBFC2;stroke-miterlimit:10;}
</style>
<g>
	<path class="st0" d="M524,183.2c2,0.9,3.5,2.8,4.3,4.8c0.8,2.1,0.8,4.4,0.6,6.6c-0.5,4.3-2.9,8.6-5.5,12c-3.6-3.1-4.4-8.6-4.7-11.4
		C518.2,190.8,520.2,182.6,524,183.2"/>
</g>
<g>
	<path class="st0" d="M528.5,213.7c-0.6-2.4,0.4-5.1,2.3-6.7c1.8-1.6,4.4-2.3,6.9-2.2c1.1,0.1,2.4,0.4,3,1.4c0.6,0.9,0.5,2.1,0,3.1
		c-0.5,0.9-1.4,1.7-2.3,2.2C535.3,213.4,532,214.7,528.5,213.7"/>
</g>
<g>
	<g>
		<path class="st0" d="M522.1,229.3c0,0,0-0.3,0.1-0.9c0.1-0.7,0.3-1.5,0.5-2.5c0.4-2.1,1-5.2,2.6-8.1c1.6-2.9,3.9-5.1,5.8-6.2
			c1-0.6,1.8-0.9,2.4-1.1c0.3-0.1,0.5-0.1,0.7-0.2c0.2,0,0.2,0,0.2,0c0,0.1-1.3,0.3-3.2,1.5c-1.9,1.1-4.1,3.3-5.7,6.2
			c-1.6,2.9-2.2,5.9-2.7,8c-0.2,1.1-0.4,1.9-0.6,2.5C522.2,229,522.1,229.3,522.1,229.3z"/>
	</g>
</g>
<g>
	<g>
		<path class="st0" d="M522.2,189.5c0,0,0,0.1,0,0.4c0,0.3,0,0.7,0.1,1.2c0.1,1,0.1,2.5,0.2,4.3c0.1,3.7,0.2,8.7,0.2,14.4
			c0,5.6-0.2,10.7-0.3,14.4c-0.1,1.8-0.1,3.3-0.2,4.3c0,0.5-0.1,0.9-0.1,1.2s0,0.4-0.1,0.4c0,0,0-0.1,0-0.4c0-0.3,0-0.7,0-1.2
			c0-1.1,0.1-2.5,0.1-4.3c0.1-3.7,0.2-8.7,0.2-14.3s0-10.7-0.1-14.3c0-1.8-0.1-3.3-0.1-4.3c0-0.5,0-0.9,0-1.2
			C522.2,189.6,522.2,189.5,522.2,189.5z"/>
	</g>
</g>
<g>
	<path class="st0" d="M520.4,218.1c-0.9-5.5-4.6-10.6-9.7-13c-1.3-0.6-3-1-4-0.1c-1.1,1-0.8,2.7-0.3,4c2.2,5.6,8,9.5,13.9,9.4"/>
</g>
<g>
	<g>
		<path class="st0" d="M511.3,209.4c0,0,0.3,0.1,0.8,0.4c0.3,0.1,0.6,0.3,0.9,0.5c0.3,0.2,0.8,0.4,1.2,0.7s0.9,0.6,1.3,1
			c0.5,0.4,0.9,0.8,1.4,1.3c1,1,1.9,2.1,2.7,3.5s1.4,2.8,1.8,4.1c0.2,0.7,0.4,1.3,0.5,1.9c0.1,0.6,0.2,1.2,0.2,1.7
			c0.1,0.5,0,1,0.1,1.4c0,0.4,0,0.8,0,1c0,0.6-0.1,0.9-0.1,0.9c-0.1,0,0.1-1.3-0.2-3.3c-0.1-0.5-0.1-1.1-0.3-1.6
			c-0.1-0.6-0.3-1.2-0.5-1.8c-0.4-1.3-1-2.6-1.8-4c-0.8-1.3-1.7-2.5-2.7-3.5c-0.5-0.5-0.9-0.9-1.4-1.3c-0.4-0.4-0.9-0.7-1.3-1
			C512.4,210,511.3,209.5,511.3,209.4z"/>
	</g>
</g>
<g>
	<g>
		<g>
			<path class="st1" d="M67,228.8c17.6-8.5,24.4-28.4,26.7-47c0.4-3.1,1.2-6.3,0.2-9.2s-4.2-5.3-7.1-4.5c-2.5,0.7-3.9,3.2-5.5,5.2
				c-2.2,2.7-5.1,4.7-8.3,5.7c-2.1,0.7-4.6,0.9-6.4-0.4c-2.4-1.9-2.1-5.6-1.6-8.7c0.9-5.7,1.9-11.4,2.8-17.1c0.5-3.1,1-6.2,0.5-9.2
				c-0.5-3.1-2.2-6.1-4.9-7.4c-2.8-1.3-6.6-0.2-7.7,2.7c-0.5,1.2-0.4,2.5-0.7,3.8s-1.1,2.6-2.4,2.7c-1.3,0.2-2.4-0.9-3.1-1.9
				c-2.7-3.6-4.2-7.9-5.5-12.2c-1.4-4.3-2.7-8.6-5-12.5c-2.3-3.8-5.9-7.1-10.2-8.1c-4.3-0.9-9.4,1-11.2,5.1s0,8.9,2.2,12.8
				c3.2,5.8,7.3,11.2,12.1,15.8c0.9,0.8,1.8,1.7,2,2.9c0.3,2.1-1.9,3.9-4,4.2c-2.4,0.4-4.8-0.2-7.3-0.3c-2.4-0.1-5.2,0.5-6.4,2.7
				c-1.7,2.9,0.3,6.6,2.6,9.2c4.5,5.1,9.8,9.4,15.7,12.7c2.1,1.2,4.4,2.3,5.9,4.1c1.6,1.9,2.2,4.8,0.8,6.8s-4.4,2.2-6.6,1.4
				c-2.3-0.8-4.2-2.4-6.3-3.6c-3.9-2.3-9.4-2.8-12.7,0.4c-2.1,2.1-2.8,5.4-2.4,8.4s1.9,5.7,3.4,8.3c5.5,9,13.1,16.7,22.3,21.6
				C47.8,228.5,56.7,230.8,67,228.8"/>
		</g>
	</g>
	<g>
		<g>
			<g>
				<path class="st2" d="M64.5,229.8c0.5-7.4,0.8-3.6-0.4-13.3c-1.2-9.7-3.5-20.3-6.2-31.2c-0.7-2.7-1.4-5.4-2-8.1
					c-0.7-2.7-1.3-5.3-2.2-7.8c-1.6-5.1-3.5-9.8-5.5-14.3s-4-8.6-5.9-12.5s-3.8-7.5-5.7-10.7c-3.7-6.4-7.3-11.2-9.8-14.4
					c-1.3-1.6-2.3-2.8-3.1-3.6c-0.3-0.4-0.6-0.7-0.8-0.9c-0.2-0.2-0.3-0.3-0.3-0.3s0.1,0.1,0.3,0.3c0.2,0.2,0.5,0.6,0.8,1
					c0.7,0.8,1.7,2.1,3,3.7c2.5,3.2,6,8.1,9.7,14.5c1.8,3.2,3.7,6.8,5.6,10.7c1.9,3.9,3.9,8.1,5.9,12.5c2,4.5,3.9,9.2,5.5,14.3
					c0.8,2.5,1.5,5.1,2.1,7.8c0.7,2.7,1.3,5.4,2,8.1c2.7,10.9,5,21.5,6.2,31.2c1.3,9.7,1,5.8,0.5,13.2"/>
			</g>
		</g>
	</g>
	<g>
		<g>
			<g>
				<path class="st2" d="M53.5,169.3c0,0,0.2-0.4,0.5-1.3c0.3-0.8,0.7-2,1.1-3.5c0.9-3,2-7.1,3.3-11.7c1.2-4.6,2.4-8.7,3.4-11.7
					c0.5-1.5,0.9-2.7,1.2-3.5s0.4-1.3,0.4-1.3s-0.2,0.4-0.6,1.2c-0.3,0.8-0.8,2-1.3,3.4c-1.1,2.9-2.3,7.1-3.5,11.6
					s-2.3,8.6-3.1,11.7c-0.4,1.4-0.7,2.6-1,3.6C53.6,168.8,53.5,169.3,53.5,169.3z"/>
			</g>
		</g>
	</g>
	<g>
		<g>
			<g>
				<path class="st2" d="M15.4,155.7c0,0,0.5,0.2,1.5,0.4c1,0.3,2.4,0.6,4.2,1.1c3.5,1,8.4,2.5,13.7,4.3c5.3,1.9,10,3.8,13.3,5.3
					c1.7,0.7,3,1.4,4,1.8c0.9,0.4,1.5,0.7,1.5,0.6c0,0-0.5-0.3-1.4-0.8s-2.2-1.2-3.9-2c-3.3-1.6-8-3.6-13.3-5.5s-10.2-3.3-13.7-4.2
					c-1.8-0.4-3.2-0.7-4.3-0.9C15.9,155.8,15.4,155.7,15.4,155.7z"/>
			</g>
		</g>
	</g>
	<g>
		<g>
			<g>
				<path class="st2" d="M63.7,215.7c0,0,0.1-0.1,0.3-0.4c0.2-0.4,0.5-0.8,0.9-1.3c0.8-1.1,1.9-2.8,3.2-4.9c2.6-4.2,6-10.1,9.7-16.7
					c3.7-6.6,7.1-12.5,9.6-16.8c1.2-2.1,2.2-3.8,3-5c0.3-0.5,0.6-1,0.8-1.4c0.2-0.3,0.3-0.5,0.2-0.5c0,0-0.1,0.1-0.3,0.4
					c-0.2,0.4-0.5,0.8-0.9,1.3c-0.8,1.1-1.9,2.8-3.2,4.9c-2.6,4.2-6,10.1-9.7,16.7c-3.7,6.6-7.1,12.5-9.6,16.8c-1.2,2.1-2.2,3.8-3,5
					c-0.3,0.5-0.6,1-0.8,1.4C63.7,215.6,63.7,215.7,63.7,215.7z"/>
			</g>
		</g>
	</g>
	<g>
		<g>
			<g>
				<path class="st2" d="M14.1,190.6c0,0,0.2,0.1,0.5,0.3c0.4,0.2,0.9,0.4,1.4,0.7c1.3,0.7,3.1,1.6,5.3,2.7
					c4.5,2.3,10.6,5.5,17.4,9.1s13,6.7,17.5,8.9c2.3,1.1,4.1,2,5.4,2.5c0.6,0.3,1.1,0.5,1.5,0.7c0.3,0.1,0.5,0.2,0.5,0.2
					s-0.2-0.1-0.5-0.3c-0.4-0.2-0.9-0.4-1.4-0.7c-1.3-0.7-3.1-1.6-5.3-2.7c-4.5-2.3-10.6-5.5-17.4-9.1s-13-6.7-17.5-8.9
					c-2.3-1.1-4.1-2-5.4-2.5c-0.6-0.3-1.1-0.5-1.5-0.7C14.3,190.6,14.1,190.6,14.1,190.6z"/>
			</g>
		</g>
	</g>
</g>
<g>
	<path class="st3" d="M139,147.6c0,0,4.7,1.4,0.3,11.5c-4.3,10-7.5,15.1-7.5,15.1s-0.7,2.3,1.2,2.6c1.9,0.2,6.1-0.7,7.1,1.6
		s-0.6,4.8-4.1,7c-3.5,2.2-10.8,7.3-11.4,7.9c-0.6,0.5-1.2,1.5,0,2c1.3,0.3,10.8,0.7,10.3,5.2c-0.4,4.5-11,9.1-12.2,9.7
		c-1.2,0.5-1.4,1.1-1.2,1.6c0.1,0.7,3.4,0.5,6,0.7c2.7,0.2,5.7,1,5.3,3.5s-6.6,8.3-22.1,10.8l-7.3,0.7l-4.4-5.9
		c-8.6-13.2-8.4-21.6-6.8-23.7c1.6-2.1,4.2-0.3,6.2,1.6s4,4.3,4.5,4.1c0.6-0.4,0.7-0.8,0.4-2.1c-0.4-1.2-4.1-12.2-1-15.6
		s9.7,3.4,10.8,4.1c1.2,0.7,1.6-0.5,1.5-1.3c-0.1-0.8-1.2-9.7-1.8-13.8c-0.6-4.1,0-6.8,2.5-7.6c2.4-0.8,4.4,2.9,5.9,4.2
		c1.4,1.3,2.7-0.9,2.7-0.9s1.7-5.7,6.2-15.7C134.8,145,139.1,147.6,139,147.6"/>
	<g>
		<path class="st4" d="M135.1,156.6c0,0,0,0.1,0,0.2c0,0.1-0.2,0.3-0.2,0.6c-0.2,0.5-0.5,1.2-0.9,2c-0.8,1.9-1.9,4.4-3.4,7.6
			c-2.8,6.4-6.7,15.3-11.1,25c-4.3,9.8-8.2,18.6-11.1,25c-1.4,3.1-2.6,5.7-3.5,7.6c-0.4,0.9-0.7,1.6-0.9,2c0,0.2-0.2,0.4-0.2,0.6
			c0,0.1,0,0.2,0,0.2s0-0.1,0-0.2c0-0.1,0.2-0.3,0.2-0.6c0.2-0.5,0.5-1.2,0.9-2c0.8-1.9,1.9-4.4,3.4-7.6c2.9-6.4,6.7-15.3,11.1-25.1
			c4.3-9.8,8.2-18.6,11.1-25c1.4-3.1,2.6-5.7,3.5-7.6c0.4-0.9,0.7-1.6,0.9-2C134.9,157.1,135,156.9,135.1,156.6
			C135.1,156.7,135.1,156.6,135.1,156.6z"/>
	</g>
	<g>
		<path class="st4" d="M134.4,179.9c0,0-0.6,0.4-1.8,0.9c-1.2,0.5-2.6,1.3-4.3,2.1c-1.7,0.8-3.2,1.6-4.2,2c-0.6,0.3-1,0.5-1.3,0.6
			c-0.3,0.1-0.5,0.2-0.5,0.2s0.7-0.3,1.8-0.9c1.2-0.5,2.6-1.3,4.3-2.1c1.7-0.8,3.2-1.6,4.2-2c0.6-0.3,1-0.5,1.3-0.6
			C134.1,179.9,134.4,179.9,134.4,179.9z"/>
	</g>
	<g>
		<path class="st4" d="M121.7,185.2c-0.1,0-1.5-3.1-3.2-7c-1.7-3.9-3-7.1-2.9-7.2c0.1,0,1.5,3.1,3.2,7
			C120.5,182,121.7,185.2,121.7,185.2z"/>
	</g>
	<g>
		<path class="st4" d="M114.9,202.8c0,0-0.2-0.1-0.4-0.4s-0.6-0.6-1-1.1c-0.8-0.9-1.9-2.2-3.1-3.7c-1.2-1.5-2.1-2.9-2.8-3.9
			c-0.4-0.5-0.6-1-0.8-1.2c-0.1-0.2-0.3-0.5-0.3-0.5s0.5,0.6,1.2,1.7c0.7,1,1.7,2.4,2.8,3.9c1.2,1.5,2.3,2.9,3.1,3.8
			C114.5,202.2,114.9,202.8,114.9,202.8z"/>
	</g>
	<g>
		<path class="st4" d="M127.4,200.6c0,0-0.7,0.2-1.7,0.4c-1.1,0.2-2.7,0.4-4.4,0.8c-1.7,0.3-3.2,0.5-4.4,0.7
			c-1.2,0.1-1.8,0.3-1.8,0.3s0.7-0.2,1.7-0.4c1.1-0.2,2.7-0.4,4.4-0.8c1.7-0.3,3.2-0.5,4.4-0.7C126.6,200.6,127.4,200.5,127.4,200.6
			z"/>
	</g>
	<g>
		<path class="st4" d="M123.4,216.9c0,0-0.2,0-0.7,0.1c-0.4,0.1-1.1,0.1-1.7,0.3c-1.4,0.3-3.4,0.6-5.6,0.9c-2.2,0.4-4.2,0.7-5.7,0.8
			c-0.7,0.1-1.3,0.2-1.7,0.3c-0.4,0-0.6,0-0.6,0s0.2,0,0.7-0.1c0.4-0.1,1.1-0.1,1.7-0.3c1.4-0.3,3.4-0.6,5.6-0.9s4.2-0.7,5.7-0.8
			c0.7-0.1,1.3-0.2,1.7-0.3C123.2,216.8,123.4,216.9,123.4,216.9z"/>
	</g>
	<g>
		<path class="st4" d="M107.8,219.3c0,0-0.2-0.1-0.5-0.5c-0.3-0.3-0.7-0.8-1.2-1.4c-1-1.2-2.4-2.9-3.7-4.9c-1.4-1.9-2.6-3.8-3.4-5.1
			c-0.5-0.6-0.7-1.2-0.9-1.6c-0.2-0.4-0.4-0.6-0.4-0.6s0.2,0.1,0.4,0.5c0.3,0.4,0.6,0.9,1.1,1.5c0.9,1.3,2.1,3.1,3.5,5
			c1.4,1.9,2.7,3.7,3.7,4.9c0.5,0.6,0.9,1,1.2,1.4C107.6,219,107.8,219.3,107.8,219.3z"/>
	</g>
</g>
<path class="st5" d="M420.7,73c4.1,0,4.1,3.9,8.3,3.9c4.1,0,4.1-3.9,8.3-3.9c4.1,0,4.1,3.9,8.3,3.9c4.1,0,4.1-3.9,8.3-3.9
	c4.1,0,4.1,3.9,8.3,3.9c4.1,0,4.1-3.9,8.3-3.9"/>
<path class="st6" d="M141,51.3c-0.8,0-1.6,0.1-2.4,0.2c-2.8-5.8-8.7-9.8-15.6-9.8c-9.1,0-16.6,7-17.3,15.9c-0.5-0.1-1.1-0.1-1.6-0.1
	c-5.2,0-9.5,4.2-9.5,9.5c0,5.2,4.2,9.5,9.5,9.5c3.2,0,33.8,0,36.9,0c6.9,0,12.6-5.6,12.6-12.6C153.6,57,147.9,51.3,141,51.3z"/>
</svg>
