<?xml version="1.0" encoding="utf-8"?>
<!-- Generator: Adobe Illustrator 24.1.2, SVG Export Plug-In . SVG Version: 6.00 Build 0)  -->
<svg version="1.1" id="Layer_1" xmlns="http://www.w3.org/2000/svg" xmlns:xlink="http://www.w3.org/1999/xlink" x="0px" y="0px"
	 viewBox="0 0 51 46.96" style="enable-background:new 0 0 51 46.96;" xml:space="preserve">
<style type="text/css">
	.st0{opacity:0.5;fill-rule:evenodd;clip-rule:evenodd;fill:#F2F3F5;}
	.st1{opacity:0.5;fill-rule:evenodd;clip-rule:evenodd;fill:#FFFFFF;}
	.st2{opacity:0.5;fill-rule:evenodd;clip-rule:evenodd;fill:#BCBFC2;}
	.st3{opacity:0.5;fill-rule:evenodd;clip-rule:evenodd;fill:#DDDDDD;}
	.st4{fill-rule:evenodd;clip-rule:evenodd;fill:#BCBFC2;}
	.st5{fill:#FFFFFF;}
</style>
<path class="st0" d="M2.66,0h36.08c1.46,0,2.66,1.15,2.66,2.56v35.78c0,1.41-1.2,2.56-2.66,2.56H2.66C1.2,40.9,0,39.75,0,38.34V2.56
	C0,1.15,1.2,0,2.66,0z"/>
<path class="st1" d="M4.19,1.92H36.9c1.33,0,2.41,1.09,2.41,2.41v32.72c0,1.33-1.09,2.41-2.41,2.41H4.19
	c-1.33,0-2.41-1.09-2.41-2.41V4.33C1.77,3,2.86,1.92,4.19,1.92z"/>
<path class="st2" d="M11.42,35.24l20.2-17.94l5.77,5.56v12.51c0,1.19-0.97,2.17-2.17,2.17H10.71
	C11.12,36.21,11.42,35.24,11.42,35.24z"/>
<path class="st3" d="M3.69,19.25l8.48-7.53l25.14,24.24c-0.26,0.91-1.1,1.58-2.09,1.58H5.86c-1.19,0-2.17-0.97-2.17-2.17V19.25z"/>
<path class="st3" d="M25.63,16.73c2.48,0,4.51-2.03,4.51-4.51c0-2.48-2.03-4.51-4.51-4.51c-2.48,0-4.51,2.03-4.51,4.51
	C21.12,14.71,23.15,16.73,25.63,16.73z"/>
<circle class="st4" cx="41.41" cy="37.37" r="9.59"/>
<g>
	<path class="st5" d="M42.88,40.99h-3.05v-4.08h-2.46l3.98-3.98l3.98,3.98h-2.46V40.99z"/>
</g>
</svg>
