<?xml version="1.0" encoding="utf-8"?>
<!-- Generator: Adobe Illustrator 23.0.3, SVG Export Plug-In . SVG Version: 6.00 Build 0)  -->
<svg version="1.1" id="Layer_1" xmlns="http://www.w3.org/2000/svg" xmlns:xlink="http://www.w3.org/1999/xlink" x="0px" y="0px"
	 viewBox="0 0 36 36" style="enable-background:new 0 0 36 36;" xml:space="preserve">
<style type="text/css">
	.st0{fill:#2B2B2B;}
</style>
<g>
	<path class="st0" d="M28.6,15.4h-7.6l3.1-3.2c-1-1-2.2-1.7-3.6-2.1s-2.7-0.4-4-0.1c-1.3,0.3-2.5,1-3.5,2s-1.7,2.2-2.1,3.5
		c-0.4,1.3-0.4,2.7,0,4c0.4,1.3,1,2.5,2.1,3.5s2.2,1.7,3.5,2s2.7,0.4,4,0s2.5-1,3.6-2c1.5-1.5,2.3-3.4,2.3-5.5h2.3
		c0,1.2-0.2,2.4-0.7,3.6c-0.5,1.4-1.3,2.5-2.2,3.4c-1.3,1.3-2.8,2.2-4.6,2.6c-1.7,0.4-3.5,0.4-5.2,0c-1.7-0.4-3.3-1.3-4.5-2.6
		s-2.2-2.8-2.6-4.5c-0.5-1.7-0.5-3.4,0-5.2c0.4-1.7,1.3-3.2,2.6-4.5s2.8-2.1,4.5-2.6c1.7-0.5,3.4-0.5,5.2,0c1.7,0.5,3.2,1.3,4.5,2.6
		l3.1-3.2V15.4z M19,13v4.7l3.9,2.4l-0.8,1.4l-4.8-2.9V13H19z"/>
</g>
</svg>
