<?xml version="1.0" encoding="utf-8"?>
<!-- Generator: Adobe Illustrator 25.4.1, SVG Export Plug-In . SVG Version: 6.00 Build 0)  -->
<svg version="1.1" xmlns="http://www.w3.org/2000/svg" xmlns:xlink="http://www.w3.org/1999/xlink" x="0px" y="0px"
	 viewBox="0 0 24 24" style="enable-background:new 0 0 24 24;" xml:space="preserve">
<style type="text/css">
	.st0{fill:#292D32;}
</style>
<g>
	<path d="M9.5,22.4c0.3,0,0.6-0.2,0.7-0.6c0.1-0.4-0.1-0.8-0.5-0.9c-4-1.1-6.7-4.8-6.7-9C3,6.9,7,2.8,12,2.8
		c4.2,0,7,2.5,8.3,4.1h-2.9c-0.4,0-0.7,0.3-0.7,0.8c0,0.4,0.3,0.8,0.7,0.8h4.3c0,0,0.1,0,0.2,0c0.1,0,0.2-0.1,0.2-0.1
		c0.1-0.1,0.2-0.1,0.2-0.2c0-0.1,0.1-0.2,0.1-0.3c0,0,0,0,0-0.1V3c0-0.4-0.3-0.8-0.7-0.8S21,2.6,21,3v2.4c-1.6-1.7-4.6-4.1-9-4.1
		C6.2,1.3,1.5,6.1,1.5,12c0,4.9,3.2,9.2,7.8,10.4C9.4,22.4,9.5,22.4,9.5,22.4z"/>
	<path d="M12.7,22.7C12.7,22.7,12.7,22.7,12.7,22.7c1.1-0.1,2.1-0.3,3.1-0.7c0.3-0.1,0.5-0.4,0.5-0.7c0-0.1,0-0.2,0-0.3
		c-0.1-0.4-0.6-0.6-0.9-0.4c-0.8,0.3-1.7,0.5-2.6,0.6c-0.4,0-0.7,0.4-0.7,0.8l0,0C12,22.4,12.3,22.7,12.7,22.7z M18.1,20.6
		c0.2,0,0.3-0.1,0.5-0.2c0.8-0.7,1.5-1.5,2.1-2.4c0.1-0.1,0.1-0.3,0.1-0.4c0-0.2-0.1-0.5-0.3-0.6c-0.3-0.2-0.8-0.1-1,0.2
		c0,0,0,0,0,0c0,0,0,0,0,0c-0.5,0.8-1.1,1.4-1.8,2c-0.2,0.1-0.3,0.4-0.3,0.6c0,0.2,0,0.3,0.2,0.5C17.6,20.5,17.8,20.6,18.1,20.6z
		 M21.3,15.7c0.3,0,0.6-0.2,0.7-0.5c0.3-1,0.5-2.1,0.5-3.2v0c0-0.4-0.3-0.7-0.7-0.7S21,11.6,21,12c0,0.9-0.1,1.9-0.4,2.7
		c0,0.1,0,0.2,0,0.2c0,0.3,0.2,0.6,0.5,0.7C21.2,15.7,21.3,15.7,21.3,15.7z"/>
</g>
</svg>
