<?xml version="1.0" encoding="utf-8"?>
<!-- Generator: Adobe Illustrator 25.4.1, SVG Export Plug-In . SVG Version: 6.00 Build 0)  -->
<svg version="1.1" xmlns="http://www.w3.org/2000/svg" xmlns:xlink="http://www.w3.org/1999/xlink" x="0px" y="0px"
	 viewBox="0 0 24 24" style="enable-background:new 0 0 24 24;" xml:space="preserve">
<style type="text/css">
	.st0{fill:#2B2B2B;}
</style>
<path d="M11.5,16.1c-0.2,0-0.5-0.1-0.6-0.2c-0.4-0.4-0.4-1,0-1.3l2.4-2.4l-2.4-2.4c-0.4-0.4-0.4-1,0-1.3
	c0.4-0.4,1-0.4,1.3,0l3.2,3.2c0.4,0.4,0.4,1,0,1.3L12.3,16C12,16,11.8,16.1,11.5,16.1z"/>
<path d="M14.6,13H2.2c-0.5,0-1-0.4-1-1c0-0.5,0.4-1,1-1h12.4c0.5,0,1,0.4,1,1C15.4,12.6,15.1,13,14.6,13z"/>
<path d="M11.9,22.7c-0.5,0-1-0.4-1-1c0-0.6,0.4-1,1-1c5.2,0,8.8-3.6,8.8-8.8S17,3.2,11.9,3.2c-0.5,0-1-0.4-1-1
	s0.4-1,1-1c6.2,0,10.7,4.4,10.7,10.7S18.1,22.7,11.9,22.7z"/>
</svg>
