<?xml version="1.0" encoding="utf-8"?>
<!-- Generator: Adobe Illustrator 25.4.1, SVG Export Plug-In . SVG Version: 6.00 Build 0)  -->
<svg version="1.1" id="Layer_1" xmlns="http://www.w3.org/2000/svg" xmlns:xlink="http://www.w3.org/1999/xlink" x="0px" y="0px"
	 viewBox="0 0 24 24" style="enable-background:new 0 0 24 24;" xml:space="preserve">
<style type="text/css">
	.st0{fill:#292D32;}
</style>
<path class="st0" d="M11.7,15.4c-0.2,0-0.4-0.1-0.5-0.2c-0.3-0.3-0.3-0.8,0-1.1l2-2l-2-2c-0.3-0.3-0.3-0.8,0-1.1s0.8-0.3,1.1,0
	l2.6,2.6c0.3,0.3,0.3,0.8,0,1.1l-2.6,2.6C12.1,15.3,11.9,15.4,11.7,15.4z"/>
<path class="st0" d="M14.2,12.8H4c-0.4,0-0.8-0.3-0.8-0.8c0-0.4,0.3-0.8,0.8-0.8h10.2c0.4,0,0.8,0.3,0.8,0.8
	C14.9,12.5,14.6,12.8,14.2,12.8z"/>
<path class="st0" d="M12,20.8c-0.4,0-0.8-0.3-0.8-0.8s0.3-0.8,0.8-0.8c4.3,0,7.2-3,7.2-7.2s-3-7.2-7.2-7.2c-0.4,0-0.8-0.3-0.8-0.8
	s0.3-0.8,0.8-0.8c5.1,0,8.8,3.6,8.8,8.8S17.1,20.8,12,20.8z"/>
</svg>
