 <svg version="1.1"  xmlns="http://www.w3.org/2000/svg"  viewBox="0 0 122.88 80.36" style="enable-background:new 0 0 122.88 80.36" xml:space="preserve">
     <g><path class="st0" d="M18.06,37.84c3.83,0,6.93,3.1,6.93,6.93c0,3.83-3.1,6.93-6.93,6.93c-3.83,0-6.93-3.1-6.93-6.93 C11.14,40.94,14.24,37.84,18.06,37.84L18.06,37.84z M37.84,43.59c-3.42,0.87-6.9-1.19-7.77-4.61c-0.87-3.42,1.19-6.9,4.61-7.77 c0.93-0.24,1.69-0.41,2.27-0.53c9.69-1.88,18.3,0.32,25.51,6.77c3.25,2.91,6.14,6.69,8.65,11.35c1.26-3.53,2.74-6.8,4.38-9.79 c3.59-6.54,8-11.8,12.8-15.65c-0.59-1.76-0.9-3.65-0.9-5.6C87.38,7.95,95.33,0,105.13,0s17.75,7.95,17.75,17.75 c0,9.8-7.95,17.75-17.75,17.75c-3.17,0-6.14-0.83-8.72-2.29c-3.53,2.82-6.88,6.83-9.69,11.96c-4.09,7.46-6.94,17.14-7.54,28.8 c-0.01,3.01-2.14,5.68-5.21,6.27c-3.48,0.67-6.83-1.61-7.5-5.09c-0.45-2.33-0.91-4.39-1.37-6.18c-2.71-10.53-6.5-17.82-11.17-22 c-4.02-3.6-8.95-4.8-14.57-3.71C38.7,43.39,38.19,43.5,37.84,43.59L37.84,43.59z M6.93,54.31c3.83,0,6.93,3.1,6.93,6.93 s-3.1,6.93-6.93,6.93S0,65.07,0,61.24S3.1,54.31,6.93,54.31L6.93,54.31z"/></g></svg>
