<?xml version="1.0" encoding="utf-8"?>
<!-- Generator: Adobe Illustrator 19.0.0, SVG Export Plug-In . SVG Version: 6.00 Build 0)  -->
<svg version="1.1" xmlns="http://www.w3.org/2000/svg" xmlns:xlink="http://www.w3.org/1999/xlink" x="0px" y="0px"
	 viewBox="0 0 25 25" style="enable-background:new 0 0 25 25;" xml:space="preserve">
<style type="text/css">
	.st0{fill:#787878;}
	.st1{fill:#FFFFFF;}
</style>
<g id="XMLID_4_">
	<circle id="XMLID_2_" class="st0" cx="12.5" cy="12.5" r="12.4"/>
	<g id="XMLID_41_">
		<path id="XMLID_173_" class="st1" d="M23,18.6c0,0-0.3,0.1-0.4,0.1c-0.1,0-0.2,0-0.2,0.1c-0.1,0.1-0.1,0-0.2,0
			c-0.2,0.1-0.2,0-0.1-0.2c0.1-0.2,0-0.2,0-0.4c0-0.1,0.2-0.2-0.2-0.2c-0.3,0-0.4-0.1-0.6,0.1c-0.2,0.1-0.4,0.3-0.4,0.3l-0.2-0.1
			c0,0-0.3-0.3-0.3-0.3c-0.1,0-0.3,0-0.3,0s-0.1-0.2,0-0.3c0-0.2,0-0.2-0.1-0.2c-0.1,0.1-0.3,0.2-0.3,0.2s-0.3,0-0.5,0.1
			c-0.2,0.1-0.2,0.2-0.5,0.1c-0.3,0-0.3,0.2-0.6,0.1c-0.2-0.2-0.4-0.2-0.5-0.3c-0.1-0.1-0.2-0.1-0.1,0.1c0,0.2,0.3,0.1,0,0.2
			c-0.2,0.1-0.3,0-0.3,0.2c0,0.3,0.1,0.4,0,0.4c-0.1,0-0.3-0.2-0.1-0.4c0.1-0.2,0-0.3,0-0.3s0.1-0.1,0.1-0.1c0.1,0,0.2-0.2,0-0.2
			c-0.2,0-0.2-0.1-0.2,0.1c0,0.1-0.1,0.2-0.2,0.2c-0.2,0-0.2,0-0.3,0.1c-0.1,0.1,0,0.1-0.2,0.1c-0.2,0-0.2,0.1-0.2,0.2
			c0,0.1-0.1,0.1-0.1,0.2c-0.1,0.1-0.1,0.1-0.2,0.2s-0.1,0.1-0.1,0.1c0,0-0.1,0.1-0.1,0c0,0-0.1-0.1-0.3-0.2
			c-0.2-0.1-0.3-0.1-0.4-0.1c-0.2,0-0.3,0.4-0.6,0.2c-0.2-0.1-0.2-0.1-0.4-0.2c-0.1-0.1-0.1-0.1-0.1-0.2c0-0.1-0.1-0.1,0-0.2
			C14,18,14,17.9,14,17.7c0-0.2,0.2-0.5,0-0.6c-0.2-0.1,0.2-0.1-0.3-0.1c-0.5,0-0.4-0.1-0.7-0.1C12.7,17,12.5,17,12.4,17
			c-0.1,0-0.2,0-0.1-0.2c0.2-0.2,0.2-0.1,0.2-0.2c0-0.2-0.1-0.3,0-0.3c0.1,0.1,0.2,0,0.2-0.1c0.1-0.1-0.1-0.3,0.1-0.4
			c0.2-0.1,0.3-0.2,0.1-0.2c-0.3,0-0.1-0.1-0.4-0.1s-0.3,0-0.4,0.1c0,0.1-0.3-0.1-0.2,0.2c0.1,0.3,0.1,0.4,0,0.4c-0.1,0,0,0-0.3,0
			c-0.3,0.1-0.4,0.2-0.5,0.1c-0.1-0.1,0-0.2-0.2-0.2c-0.2,0-0.2,0.1-0.3-0.2c-0.1-0.3-0.4-0.5-0.2-0.5s0.1-0.1,0.1-0.3
			c-0.1-0.1,0-0.3,0-0.5c0-0.2,0-0.4,0.1-0.3c0.1,0.1,0.1,0,0.1-0.1c0-0.2-0.1-0.3,0-0.4c0.1-0.1,0-0.1,0.2-0.2
			c0.2-0.1,0.2-0.1,0.4-0.1c0.2,0,0.2,0,0.3-0.1c0.1-0.1,0-0.3,0.1-0.2c0.1,0.1,0.1,0.1,0.3,0.1c0.2,0,0.4,0.1,0.4-0.1
			c0-0.2-0.1-0.2,0.2-0.2c0.3,0,0.4,0,0.5,0c0.1,0,0.1-0.1,0.2,0.1c0,0.1,0.2,0.1,0.3,0.1c0.1,0,0.1-0.2,0.2-0.1
			c0.1,0.1,0.3,0.2,0.3,0.3c0,0.1,0.1,0.1,0,0.3c0,0.2-0.1,0.2,0,0.3c0.1,0.1,0.2,0,0.2,0.2c0,0.1,0.1,0.2,0.1,0.3
			c0,0.1,0.1,0.1,0.2,0.1c0,0,0.2-0.2,0.1-0.6c-0.1-0.4-0.1-0.5-0.1-0.7c-0.1-0.2-0.1-0.3,0.1-0.5c0.2-0.2,0.2-0.3,0.4-0.4
			c0.2-0.1,0.2-0.1,0.4-0.3c0.1-0.2,0.3-0.3,0.4-0.3c0.2-0.1,0-0.1,0-0.2c0-0.1,0.1,0,0.2-0.1c0.1,0,0.1-0.1,0.1-0.1
			c0-0.1-0.1,0-0.1,0c0-0.1,0.2-0.2,0.1-0.2c0-0.1-0.1-0.1-0.2,0c-0.1,0-0.2,0-0.1,0c0-0.1,0.1,0,0.1-0.1c0-0.2-0.1-0.4-0.1-0.5
			c0.1-0.1,0.1-0.2,0.1,0.1c0,0.3,0,0.5,0.1,0.4c0.1-0.1,0.2-0.1,0.2-0.3c-0.1-0.2-0.2-0.2,0-0.2c0.1,0.1,0.1,0.2,0.2,0.1
			c0.1-0.1,0.2-0.2,0.1-0.3c-0.1-0.1,0-0.2,0-0.2c0-0.1-0.1-0.1,0.1-0.1c0.1,0,0.3,0.1,0.3,0c0.1-0.1,0.1-0.2,0-0.1
			c-0.1,0-0.2,0.1-0.3,0.1c-0.1,0,0.1-0.1,0.2-0.1c0.1,0,0-0.1,0.1-0.1c0.1,0,0.3,0,0.3-0.1c0-0.1-0.1-0.2-0.2-0.2
			c-0.1,0-0.1,0-0.1-0.1c0-0.1,0.1-0.1,0.1-0.2c0-0.1,0.2-0.3,0.2-0.3c0,0,0.2,0.1,0.2-0.1c0-0.1,0-0.2,0.1-0.2c0,0,0.1,0,0.1,0
			c0-0.1,0.1-0.2,0.1-0.1c0,0.1,0,0.1,0.1,0.1c0.1-0.1,0.1-0.2,0.1-0.1c0,0.1,0,0.1,0.1,0.1c0-0.1,0,0.1,0,0.1c-0.1,0-0.2-0.1-0.2,0
			s0,0-0.1,0.2c0,0.1,0,0.4,0.1,0.2c0.1-0.1,0.1-0.2,0.2-0.3c0.1-0.1,0.3-0.2,0.3-0.2l0.2-0.2c0,0,0.1-0.1,0-0.1c-0.1,0-0.1,0-0.2,0
			c-0.1,0-0.2,0-0.2,0c-0.1,0,0-0.1-0.2-0.1c-0.1,0-0.1,0-0.2-0.2c-0.1-0.2,0.1-0.2-0.1-0.2c-0.2,0-0.2,0-0.3,0
			c-0.1,0-0.2,0-0.1-0.1c0.1-0.1,0.2,0,0.3-0.1c0.1,0,0.3,0,0.2-0.1c-0.1-0.1-0.3-0.1-0.3-0.1l-0.4,0.2l-0.2,0.2
			c0,0-0.1,0.2-0.2,0.3c-0.1,0.1-0.2,0.2-0.1,0.1c0.1-0.1,0.2-0.3,0.3-0.4c0.1-0.1,0.2-0.1,0.3-0.2c0.1-0.1,0.1-0.3,0.2-0.3
			c0.1,0,0.2,0,0.5,0c0.2,0,0.5,0,0.6-0.1c0.1,0,0.1-0.1,0.1-0.2c0-0.1,0-0.1,0.2-0.1c0.1,0,0.1-0.2,0.1-0.2c0-0.1-0.1-0.1-0.2-0.2
			c0-0.1,0-0.2-0.1-0.1c-0.1,0.1,0,0.2-0.1,0.1c0-0.1,0.1-0.2-0.1-0.2c-0.1,0-0.1,0-0.2,0.1c-0.1,0.2-0.2,0.1-0.1,0
			c0.1-0.1,0.3-0.2,0.3-0.2C18.6,6,18.4,6,18.2,6c-0.2,0-0.3-0.1-0.3-0.1c0,0-0.1,0-0.1,0s0-0.1-0.2-0.2c-0.2-0.2-0.4-0.4-0.5-0.5
			c-0.1-0.1-0.1-0.3-0.2-0.1c0,0.2,0.1,0.3,0,0.3c-0.1,0.1-0.1,0.1-0.2,0.1c-0.1,0-0.1,0-0.2,0c-0.1,0-0.2,0-0.2,0
			c0-0.1,0.2,0,0-0.1C16.1,5,16.2,5.1,16.2,5c0-0.1-0.2-0.1-0.4-0.2c-0.1,0-0.1-0.1-0.3-0.1c-0.2,0-0.3,0-0.4-0.1
			c0,0-0.4-0.1-0.4-0.1s-0.1-0.2-0.1,0c0,0.2,0,0.2,0,0.3s0.1,0.2,0.1,0.2s0.1-0.1,0.1,0c0,0.1-0.2,0.1-0.3,0.1c-0.1,0-0.1,0,0,0.1
			C14.9,5.4,15,5.5,15,5.5c0,0.1,0.1,0.2,0.1,0.2s0.1,0.1,0.1,0.1c-0.1,0-0.1,0-0.1,0.2c-0.1,0.1-0.2,0.2-0.3,0.2
			c-0.1,0-0.1,0-0.1,0.2c0,0.1,0.1,0.1,0.2,0.2c0,0.1,0,0,0,0.2c0.1,0.1,0.1,0.1,0.1,0.1s-0.1-0.1,0,0c0.1,0.1,0,0.2,0,0.1
			c-0.1-0.1,0-0.1-0.1-0.1s-0.1,0.1,0,0.1c0.1,0.1,0.1,0.2,0.1,0.1c-0.1-0.1-0.1-0.2-0.2-0.1c-0.1,0-0.2,0.1-0.2,0.1
			c0,0,0-0.1,0-0.1l0.1-0.2l-0.1-0.1c0,0-0.2,0.1-0.1,0c0.1-0.1,0-0.1-0.1-0.1S14,6.6,14.1,6.6c0.1,0,0.1,0,0.1-0.1
			c0-0.1,0-0.2-0.1-0.2c0-0.1,0-0.2-0.1-0.2s-0.3,0-0.4,0S13.6,6,13.5,6c-0.1,0-0.2,0-0.3,0s0-0.1-0.1-0.1c0,0-0.2-0.1-0.2-0.1
			c0,0-0.1,0-0.1,0s-0.1,0-0.1-0.1c0-0.1-0.1-0.2-0.1-0.1c-0.1,0.1-0.1,0.1-0.1,0.1s-0.1-0.2-0.1-0.3s0.1,0,0.1-0.1s0,0,0.1-0.1
			C12.7,5,12.7,4.9,12.8,5C13,5,13,5,13.1,4.8c0-0.2,0-0.3,0.1-0.4c0.1-0.1,0,0,0.1-0.1s0.2-0.1,0.1-0.2c-0.1,0-0.1,0-0.2,0
			c-0.1-0.1-0.2-0.1,0-0.1c0.1,0,0.2,0.1,0.3,0.1c0.1,0,0.2-0.1,0.2-0.2c0,0,0,0,0.1,0c0,0,0-0.1,0.1,0C14,3.9,14,4,14,3.9
			c0-0.1,0.1-0.1,0.1-0.2c0-0.1-0.1,0-0.1-0.1c0-0.1-0.1-0.2-0.1-0.2s-0.1-0.1-0.2,0c-0.1,0.1-0.1,0.1-0.1,0.1s0,0.1,0,0.1
			s0,0-0.1,0.1c-0.1,0.1-0.1,0.2-0.1,0.1c-0.1-0.2-0.1-0.3-0.1-0.3c-0.1,0-0.1,0-0.1,0c-0.1,0-0.1,0-0.2,0c-0.1,0-0.1-0.1-0.1,0
			c0,0.1,0,0.1,0,0.1c0,0,0,0-0.1,0.1c-0.1,0.1-0.1,0.1-0.1,0.1s0.1,0.1,0,0.1c-0.1,0-0.1,0.1-0.1,0c0,0-0.1-0.1-0.1-0.1
			c0-0.1,0,0,0.1-0.1c0.1-0.1,0.1-0.1,0.1-0.1c0,0,0-0.1-0.1-0.1c-0.1,0-0.1-0.1-0.2-0.1c-0.1,0.1-0.1,0.1-0.1,0.1c0,0,0.1,0,0.1,0
			s0.1,0.1,0.1,0.1s0,0-0.1,0.1c0,0-0.1,0.1-0.1,0.1s0.1,0.1-0.1,0c-0.2-0.1-0.3-0.2-0.5-0.2c-0.2-0.1-0.2-0.2-0.2-0.1
			c-0.1,0.1,0,0.1-0.1,0.1c-0.1,0-0.2,0-0.2,0.1c0,0.1,0,0.1,0,0.1l0,0.1c0,0-0.1,0.1-0.1,0.1c0,0-0.1,0-0.1,0c0,0,0-0.1,0-0.1
			c0,0-0.1-0.1-0.1-0.1s-0.1-0.1-0.1-0.1c-0.1,0-0.2,0-0.2,0s-0.2-0.1-0.2-0.1s0.1,0,0.1-0.1c0,0,0,0-0.1-0.1
			c-0.1,0-0.3-0.1-0.3-0.2C10,3,9.9,3,9.8,3c-0.1,0,0-0.1-0.1-0.1c-0.1,0-0.2,0-0.2,0s0.1-0.1-0.2-0.1c-0.2,0-0.1,0-0.2,0
			C9,3,9,2.9,8.9,2.9c0-0.1-0.1-0.1-0.2-0.1c-0.1,0-0.1,0.1-0.1,0.1s0-0.1-0.1-0.2c-0.1-0.1,0-0.1-0.1-0.1c-0.1,0-0.3-0.1-0.2-0.1
			c0.1,0,0.2-0.1,0.1-0.2c-0.1-0.1-0.1-0.1-0.2,0c-0.2,0-0.2,0-0.3,0C7.9,2.3,8,2.3,7.8,2.4c-0.2,0.1-0.1,0-0.2,0.1
			C7.5,2.6,7.5,2.7,7.4,2.6c0,0,0-0.2,0.1-0.3c0,0,0.1-0.1,0.1-0.2C7.5,2.2,7.4,2.3,7.2,2.4c0,0-0.1,0.1-0.1,0.1
			c0,0.2,0.1,0.2,0,0.3C7,2.8,6.9,2.9,6.9,2.9c-0.1,0,0-0.1-0.2-0.1c-0.1,0-0.1,0-0.2,0C6.3,3,6,3.1,5.8,3.3
			c0.1,0.2,0.1,0.3,0.1,0.3L5.6,3.8L5.2,3.9c0,0,0.1,0.1,0.4,0.1C5.8,3.9,6,3.6,6,3.7c0,0.1-0.2,0.2-0.2,0.3C5.7,4.1,6,4,6.1,3.9
			c0.1-0.1,0.1-0.4,0.2-0.3c0.1,0.1,0.1,0.2,0.1,0.2L6.3,3.9L6.5,4l0.3,0.2c0,0,0,0,0,0.1s-0.1,0.1,0,0.1c0,0,0,0,0,0.1
			C6.7,4.6,6.6,4.7,6.6,4.7c0,0,0.1,0.1,0.1,0c0-0.1,0.1-0.1,0.1-0.1s0.1-0.2,0.1-0.2c0,0,0,0.1,0,0.1L6.8,4.7c0,0,0,0.1,0,0.1
			c0,0.1,0,0.1,0,0.1c0,0-0.1-0.1,0,0C6.8,5,6.8,5,6.7,5c0,0-0.1,0.1,0,0.1c0,0,0.1-0.1,0.1,0c0,0,0.1,0,0,0.1c0,0.1,0.1,0.1,0,0.1
			c-0.1,0-0.2-0.1-0.2,0c0,0-0.1,0-0.1,0.1c0,0-0.1,0.1,0,0.1c0.1,0,0,0.1,0,0.1c0,0,0.3-0.1,0.2,0S6.7,5.7,6.6,5.7
			c0,0.1-0.1,0.2,0,0.2c0.1,0,0.1-0.1,0.2-0.1c0,0,0,0.1,0,0.1C6.7,6,6.6,5.9,6.6,6c0,0.1-0.1,0.1-0.1,0.1c-0.1,0,0,0.1,0,0.1
			c0.1,0.1,0.2,0,0.2,0c0,0-0.1,0-0.1,0.1c0,0-0.1,0.1,0,0.1c0.1,0,0.1,0,0.1,0c0,0,0.1-0.1,0.1,0c0,0.1-0.1,0-0.1,0.1
			c0,0,0,0,0,0.1c0,0,0,0.1,0,0.1c0,0,0.1,0,0.1,0s0.1,0,0,0c0,0-0.1,0.1-0.1,0.1c0,0,0.1,0.1,0.1,0.1l0,0.1l0,0.2
			c0,0,0,0.1-0.1,0.2c0,0.1-0.1,0.3-0.1,0.3H6.6l0-0.3c0,0,0-0.2,0-0.2s-0.1,0-0.1,0c0,0.1,0,0.1,0,0.1s0,0.1,0,0.1c0,0,0,0.1,0,0.1
			s-0.1,0-0.2,0.2C6.1,7.7,6.1,7.7,6,7.9c0,0.1,0,0.2-0.1,0.3c-0.1,0.1-0.2,0-0.2,0.2c0,0.2,0,0.2-0.1,0.3C5.6,8.8,5.6,8.8,5.6,9
			c0,0.1-0.1,0.2-0.1,0.3c0,0.1-0.1,0.2,0,0.2c0.1,0.1,0,0.1,0.1,0.1c0,0,0,0,0.1,0c0.1,0,0.1,0,0.1,0C5.7,9.7,5.7,9.7,5.7,9.7
			s0,0-0.1,0c0,0.1-0.1,0.1-0.1,0.1c0,0,0.1,0.1,0.1,0.1s-0.1,0-0.1,0.1c0.1,0.1,0.1,0.1,0.1,0.2c0,0.1,0,0.2,0,0.2l0.1,0.2l0.1,0.1
			c0,0-0.1,0,0.1,0.1C6,11,6,10.8,6,11c0,0.2,0,0.3,0,0.3l0.1,0.1c0,0,0,0.1,0,0.2c0,0.1,0,0.1,0,0.2c0,0.2,0,0.2,0.1,0.3
			c0.1,0.1,0.2,0.2,0.2,0.2c0,0.1,0,0.2,0,0.2s0,0.1,0,0.1c0,0.1,0,0.1-0.1,0c-0.1-0.1-0.1,0-0.1,0s0,0.1,0.1,0.1
			c0.1,0.1,0.2,0.2,0.2,0.2s0,0,0.1,0.1c0,0.1,0.1,0.1,0.1,0.2c0,0.1,0,0.3,0.1,0.4C7,14,6.9,13.9,7,14.1c0.1,0.2,0.2,0.3,0.2,0.3
			c0.1,0.1,0.3,0.3,0.2,0c-0.1-0.3-0.2-0.3-0.3-0.4c-0.1-0.1,0-0.2-0.1-0.5C7,13.3,6.8,13,6.8,12.8c0-0.2,0-0.4-0.2-0.7
			c-0.1-0.3-0.2-0.5-0.1-0.4c0.1,0.1,0.3-0.1,0.3,0.1c0,0.2,0,0.5,0,0.5s0,0.1,0.1,0.3c0.1,0.3,0.2,0.3,0.3,0.4
			c0.1,0.1,0.1,0.2,0.1,0.2s0.2,0.1,0.2,0.2c0,0.1-0.1,0,0,0.2c0.1,0.2,0,0,0.1,0.2c0.1,0.2,0.2,0.3,0.2,0.3l0.3,0.4
			c0,0,0,0.1,0.1,0.2c0.1,0.1,0.2,0.1,0.1,0.2c-0.1,0.1-0.2,0.1-0.1,0.1c0.1,0,0.1,0,0,0.1c0,0,0.1,0.2,0.2,0.3
			c0.1,0.2,0.1,0.2,0.2,0.3C8.8,16,8.8,16,8.9,16.1c0.1,0.1,0,0,0.2,0.1c0.2,0.1,0.3,0.2,0.4,0.2c0.1,0,0.2,0.1,0.5,0.2
			c0.4,0.2,0.5,0.3,0.6,0.3c0.2,0.1,0.2,0.1,0.3,0.1c0.1,0,0.2-0.1,0.3-0.1c0.1,0,0,0.1,0.2,0.1c0.1-0.1,0.1-0.1,0.2,0
			s0.3,0.2,0.3,0.2s-0.2,0.1,0.1,0.2c0.3,0.2,0.5,0.3,0.6,0.3c0,0,0,0,0.1,0.1c0.3,0.2,0.3,0.3,0.4,0.3c0.1,0.1,0.1,0.2,0.1,0.3
			s0,0.1,0.1,0.2s0.2,0,0.3,0.1c0.1,0.1,0,0.1,0.2,0.2S14,19,14,19l0.1,0l0.3,0c0,0,0.1,0.1,0.1,0.1c0,0.1-0.1,0.1,0,0.1
			c0.1,0,0.2,0,0.2,0s0.3,0,0.2-0.1c-0.1-0.1-0.2-0.1-0.1-0.2c0.1-0.1,0.2-0.1,0.3-0.2c0.1,0,0.1-0.1,0.2,0c0.1,0.1,0.2,0,0.1,0.1
			c-0.1,0.1-0.1,0.2,0,0.2c0.1,0,0.1,0.1,0.1,0.1s0.1,0,0.1,0.1c0,0.1-0.1,0-0.1,0.1c0,0.1-0.1,0.1-0.1,0.1s-0.1,0.1,0,0.2
			c0,0.1-0.1,0.1,0,0.2c0.1,0.1,0,0.2-0.1,0.3c-0.2,0.1-0.1-0.1-0.2,0.1c-0.1,0.2-0.1,0.2-0.1,0.2c-0.1,0-0.2,0.1-0.3,0.1
			c-0.1,0.1-0.1-0.1-0.2,0.1s0,0.2-0.1,0.3c-0.1,0.1-0.1,0.2-0.1,0.2s0.5-0.1,0.3,0.1c-0.2,0.1-0.2,0.2-0.3,0.2
			c-0.1,0.1-0.1,0.1-0.1,0.1l-0.1,0.2l0,0.2c0,0,0,0,0.2,0.1c0.2,0.1,0.2,0.1,0.2,0.1c0,0,0.1,0.2,0.3,0.4c0.2,0.2,0.2,0.2,0.3,0.3
			c0.1,0.1,0.2,0,0.1,0.1c0,0.1,0,0.1,0.2,0.1c0.2,0.1,0.3,0.1,0.5,0.1c0.1,0,0.4,0.1,0.5,0.1c0.1,0,0.2,0,0.1,0.1
			c-0.1,0.1-0.2,0.3-0.3,0.5c-0.1,0.1-0.2,0.2-0.4,0.3c-0.2,0.1-0.3,0.1-0.4,0.2c-0.1,0-0.2,0.2-0.2,0.2c3.7-0.7,6.8-3.1,8.4-6.3
			l-0.2,0L23,18.6z M17.1,5.9c0,0,0.1,0,0.1,0.1c0,0,0.1,0.1,0.2,0c0.1-0.1,0.1,0,0.2,0c0.1,0,0,0.1-0.1,0.1c-0.1,0,0,0-0.1,0
			c-0.1,0,0,0.1-0.1,0.1c0,0-0.1-0.1-0.2-0.2S17,6,17.1,5.9z M12.8,7.8c0.3-0.1,0.3-0.2,0.4,0c0.2,0.1,0.3,0.1,0.3,0.2
			c0,0.2,0.2,0.3,0.2,0.3l0.3,0.1l0.5,0.1c0,0,0.1,0,0.2,0.2c0,0.1,0.1,0.1-0.1,0.1c-0.2,0-0.4-0.1-0.4-0.1s0,0,0,0.2
			c0,0.2,0.1,0.2,0,0.3c-0.1,0.1-0.4,0.2-0.2,0.2c0.2,0,0.4-0.1,0.5-0.1c0.1,0.1,0.2-0.1,0.3-0.1c0.1,0,0-0.1,0.1-0.2
			c0.1-0.1,0.1-0.2,0.3-0.1c0.2,0,0.2,0,0.3,0c0.2,0,0.3,0.2,0.1,0.2c-0.2,0-0.3,0-0.5,0.1C15,9.2,15,9,15,9.2
			c0,0.2,0.1,0.1-0.1,0.2c-0.2,0.1-0.1,0-0.4,0.1c-0.3,0-0.2,0.1-0.4,0c-0.2,0-0.4,0-0.3-0.2c0.1-0.2,0.4-0.1,0.3-0.3S14,8.9,13.8,9
			c-0.1,0,0.1-0.2,0.1-0.2c0-0.1-0.1-0.2-0.2-0.2c-0.1,0-0.1-0.1-0.2,0c-0.1,0.2-0.1,0-0.2,0.1c0,0.1-0.1,0-0.1,0.3
			c0,0.3,0.1,0.5-0.2,0.5c-0.3,0.1-0.3-0.4-0.2-0.5C13,8.9,13.1,8.7,13,8.7c-0.1,0,0-0.2,0.2-0.3c0.2,0,0.2,0,0.3,0
			c0.1,0,0.2,0,0.2,0c0,0-0.1-0.2-0.3-0.2c-0.2,0,0,0-0.2,0.1c-0.2,0-0.4,0-0.3-0.1c0.1-0.1,0.1-0.1,0-0.1
			C12.7,8.1,12.8,7.8,12.8,7.8z M11.7,6.5c0.1,0,0-0.1,0-0.2s0.1-0.1,0.3,0c0,0,0,0.1-0.1,0.1c-0.1,0,0,0-0.1,0.1c0,0.1,0,0.1,0,0.2
			c0,0.1,0,0.1,0.1,0.2C12,7,11.9,7,12,7.2c0,0.2-0.1,0.1-0.2,0.1c-0.1,0,0,0,0-0.1c0-0.1,0-0.2,0-0.3c-0.1-0.1-0.1,0-0.1-0.1
			C11.6,6.7,11.7,6.7,11.7,6.5C11.5,6.6,11.6,6.6,11.7,6.5z M11.4,6.5c0,0,0.1,0.1,0,0.2c-0.1,0.1-0.1,0.1,0,0.2
			c0.1,0,0.1,0,0.1,0.1c0,0.1,0,0.1,0.1,0.3s-0.1,0.1-0.1-0.1c0-0.1-0.1-0.1-0.1-0.2c-0.1-0.1-0.1-0.1-0.1-0.2c0-0.1,0-0.1-0.1-0.2
			C11.1,6.5,11.1,6.5,11.4,6.5z M11,5.6c0-0.2,0-0.1,0.1-0.1c0.1,0,0.1,0.1,0.1,0.2c-0.1,0.2-0.1,0.1-0.2,0.1
			C10.8,5.9,11,5.7,11,5.6z M8,9.4C8,9.5,8,9.5,7.8,9.5c-0.2,0,0-0.1,0-0.3C7.8,8.9,7.8,9,8,9C8.1,9,8.1,9.2,8,9.4z M9.2,3.7
			c0,0,0.1,0,0.2-0.1c0.2,0,0,0-0.1-0.1c-0.1,0-0.1,0-0.3,0c-0.2,0,0.2,0,0.4,0c0.2,0,0.1,0,0.3,0c0.1,0,0,0.1,0.1,0.1
			c0.1,0,0,0,0,0.1s0,0.1-0.2,0s-0.1,0-0.1,0c0,0-0.2,0.1-0.2,0.1S9.2,3.9,9.2,3.7C9,3.8,9.2,3.7,9.2,3.7z M10.3,4.4
			c-0.1,0-0.1,0.1-0.2,0.1C10.1,4.6,10,4.6,9.9,4.6c-0.1,0-0.1,0-0.3,0.1c-0.2,0.1-0.1,0-0.3-0.1C9.2,4.6,9.2,4.6,9.2,4.5
			c0,0,0.2,0,0.2,0c0.1,0,0.1-0.1,0.1-0.1s0-0.1,0.1-0.2c0.1,0,0,0.1,0.1,0.1s0.1,0.1,0.2,0.1C10.1,4.5,10.1,4.4,10.3,4.4
			C10.5,4.4,10.4,4.4,10.3,4.4z M12.6,17.8c0.1-0.1,0.2-0.1,0.2,0C12.7,17.8,12.6,17.8,12.6,17.8z"/>
		<path id="XMLID_120_" class="st1" d="M13.8,4.2c-0.1-0.1-0.1-0.1-0.1,0c0,0.1-0.1,0.1,0,0.2c0.1,0.1,0.1,0.1,0,0.1
			c-0.1,0-0.1,0,0,0.1c0.1,0.1,0,0.2,0.1,0.1c0.1,0,0.2-0.1,0.2-0.1c0.1,0,0-0.1,0.1,0c0.1,0.1,0.2,0.1,0.2,0c0.1,0,0.1-0.1,0-0.1
			c-0.1,0-0.2,0-0.2-0.1c0-0.1,0.1-0.1-0.1-0.1C13.8,4.2,13.8,4.2,13.8,4.2z"/>
		<path id="XMLID_119_" class="st1" d="M14.1,4.6c-0.1,0-0.2,0-0.2,0.1c-0.1,0.1-0.1,0.2,0.1,0.1C14,4.7,14,4.7,14.1,4.6
			C14.2,4.7,14.2,4.6,14.1,4.6z"/>
		<path id="XMLID_118_" class="st1" d="M14.6,4.6c-0.2,0-0.2,0-0.2,0.1c0.1,0.1,0.1,0.1,0.2,0C14.6,4.6,14.6,4.6,14.6,4.6z"/>
		<path id="XMLID_117_" class="st1" d="M14.6,5.7c-0.1,0-0.1,0-0.1,0.1c0,0.1,0,0-0.1,0.1c-0.1,0,0,0.1,0,0.1s0.1,0,0.1,0
			C14.6,5.8,14.6,5.8,14.6,5.7C14.7,5.7,14.7,5.7,14.6,5.7z"/>
		<path id="XMLID_116_" class="st1" d="M18.3,7.2c-0.3,0-0.6-0.1-0.4,0c0.2,0.1,0.2,0.2,0.4,0.2C18.4,7.4,18.3,7.2,18.3,7.2z"/>
		<path id="XMLID_115_" class="st1" d="M18.8,7.7c-0.1,0,0,0-0.1,0.1c-0.1,0.1-0.1,0.2-0.1,0.2c0,0,0,0,0.1,0c0,0,0.1-0.1,0.1-0.1
			C18.7,7.9,18.8,7.9,18.8,7.7L18.8,7.7z"/>
		<path id="XMLID_114_" class="st1" d="M18.9,8c0,0,0.1,0.1,0,0.1c0,0,0,0-0.1,0.1c0,0.1-0.1,0.2-0.1,0.1C18.8,8.1,18.8,8,18.9,8
			C18.9,8,18.9,8,18.9,8z"/>
		<path id="XMLID_113_" class="st1" d="M19.1,6.7C19,6.7,19,6.7,19,6.8c0,0.1,0,0.1,0,0.1l0,0.1c0,0,0,0.1,0,0.1c0,0.1,0,0.1,0,0.1
			s-0.1,0-0.1,0c0,0-0.1,0,0,0.1c0.1,0.1,0.1,0.1,0.1,0.1c0,0.1,0,0.1,0.1,0.1c0.1,0-0.1-0.1,0.2,0s0.3-0.1,0.3,0c0,0.1,0,0.1,0.1,0
			c0,0,0.2-0.1,0.1,0c-0.1,0.1-0.2,0.2-0.1,0.2c0.1,0,0.2,0,0.2-0.1s0-0.2,0-0.1c0,0.1,0,0.2,0.1,0.2c0.1,0,0.1,0,0.2,0
			c0,0,0.1,0,0.1-0.1c-0.1-0.1,0-0.3-0.1-0.2c-0.1,0.1-0.1,0.1-0.2,0c0-0.1,0-0.1-0.1-0.2s0-0.2-0.1-0.2c-0.1,0-0.1,0.1-0.2,0.1
			C19.2,7.1,19.2,7,19.2,7c-0.1,0.1-0.1,0.2-0.1,0.1c0-0.1-0.1,0,0-0.1C19,6.9,19.1,6.7,19.1,6.7z"/>
		<path id="XMLID_112_" class="st1" d="M10.1,2.9C10,2.8,9.7,2.8,10,2.7c0.3-0.1,0.3-0.1,0.4-0.2c0.1-0.1,0.2-0.1,0.2-0.1
			s0.3,0,0.3,0.1C11,2.5,11.1,2.6,11,2.6c-0.1,0-0.3,0.1-0.3,0.1l-0.2,0.1l-0.2,0.1L10.1,2.9z"/>
		<path id="XMLID_111_" class="st1" d="M11.1,2.8C11.1,2.7,11.1,2.7,11.1,2.8c-0.2,0-0.3-0.1-0.3,0c-0.1,0,0,0-0.1,0.1
			c-0.1,0-0.2,0.1-0.2,0.1l0.1,0c0,0,0.2,0.1,0,0.1c-0.1,0-0.4,0-0.3,0c0.1,0.1,0.3,0,0.4,0.1c0.1,0.1,0.1,0.1-0.1,0.1
			s-0.4-0.1-0.2,0c0.1,0.1,0.2,0,0.2,0.1c-0.1,0.1-0.1,0.1,0.1,0.1c0.2,0,0.1,0,0.3,0c0.1,0,0.3-0.1,0.3-0.1s0.1-0.1,0.2,0
			c0.1,0.1,0.3,0.3,0.4,0.2c0.1,0,0.1-0.1,0-0.1c-0.1-0.1,0-0.1,0-0.1c0.1,0,0.2-0.1,0.1-0.1C11.9,3.1,11.9,3,11.9,3
			c0-0.1,0-0.1-0.1-0.2s0.1-0.2-0.1,0c-0.2,0.2-0.2,0.3-0.2,0.2c0-0.1,0-0.2,0-0.2s0-0.1-0.1-0.1c-0.1,0-0.1,0-0.1,0
			c-0.1,0.1-0.1,0.1-0.1,0c0-0.1,0.1-0.1,0-0.1C11.2,2.7,11.2,2.7,11.1,2.8C11.1,2.8,11.1,2.8,11.1,2.8z"/>
		<path id="XMLID_110_" class="st1" d="M12.5,2.8C12.6,2.9,12.6,3,12.6,3s0.1,0,0,0.1c-0.1,0.1-0.1,0.1-0.2,0.1c-0.1,0,0,0.1-0.1,0
			c-0.1-0.1-0.1-0.1-0.1-0.1c-0.1,0-0.1-0.1,0-0.1c0.1,0,0.1,0,0.1-0.1C12.4,2.8,12.5,2.8,12.5,2.8z"/>
		<path id="XMLID_109_" class="st1" d="M12.9,3.1c-0.1,0-0.2,0.1-0.2,0.1c0,0.1,0,0.2,0,0.2s0.1,0,0.1,0c0,0,0.1,0,0.2,0
			c0.1,0,0.2,0,0.1-0.1C13,3.2,12.9,3.1,12.9,3.1z"/>
		<path id="XMLID_108_" class="st1" d="M12.8,2.8c0,0,0,0,0,0.1c0,0.1,0,0.1,0,0.1c0,0,0.1,0,0.1,0c0,0-0.1,0.1,0.1,0
			c0.2-0.1,0.2-0.1,0.2-0.1c0,0,0.2-0.1,0-0.1C13,2.8,12.8,2.8,12.8,2.8z"/>
		<path id="XMLID_107_" class="st1" d="M13.7,2.8c-0.1,0-0.1,0-0.1,0c-0.1,0,0-0.1-0.1,0s-0.1,0-0.1,0.1c0,0.1,0.1,0.1,0.1,0.1
			s0.1,0,0.1,0.1c0,0.1,0,0.1,0.1,0.1c0,0,0.1,0,0.2,0c0.1,0,0.2,0,0.3,0c0.1,0,0.2,0,0.2,0s0,0.1,0.1,0.1c0.1-0.1,0.1-0.2,0.2-0.1
			c0.1,0.1,0.2,0.1,0.2,0.1l0.1,0.1l0.1,0.2h0.2c0,0,0.1,0,0.1,0.1s0.1-0.2,0.2-0.1c0.1,0.1,0,0.2,0,0.2s-0.1,0-0.1,0.1
			c0,0.1,0,0.1,0,0.1c-0.1,0-0.1,0-0.2,0s0,0-0.2,0c-0.2,0-0.2-0.1-0.2,0c-0.1,0.1-0.1,0-0.1,0.1c0,0.1,0.1,0.1,0.1,0.1s0.3,0,0.3,0
			s0.1,0,0.3,0c0.1,0,0.3,0.1,0.3,0.2c0,0.1-0.1,0,0.2,0.1c0.3,0,0.3,0,0.4,0.1c0.1,0,0.2,0.1,0.2,0c-0.1-0.1-0.1-0.1-0.2-0.2
			c-0.1,0-0.2-0.1-0.2-0.1c0.1,0,0.2,0.1,0.2,0.1s0.2,0.1,0.3,0.1c0,0,0.2,0.2,0.1,0c-0.1-0.1-0.1-0.2-0.1-0.2l-0.2-0.2
			c0,0-0.1,0-0.2-0.1C16.1,4,16,3.9,16,3.9s0-0.1-0.1-0.1s0.1-0.1,0.1,0c0.1,0.1,0.1,0.1,0.2,0.1c0.1,0,0,0,0.2,0.1s0.2,0,0.2,0
			l0-0.1l0-0.1c0,0-0.1,0-0.2,0c-0.1,0-0.1-0.1-0.1-0.1l-0.1,0l-0.2,0c0,0-0.2,0-0.2-0.1c0-0.1,0-0.1,0-0.1l-0.1-0.1
			c0,0-0.1,0-0.2,0c-0.1,0-0.1-0.1-0.1-0.1s0-0.1-0.2-0.1c-0.2,0-0.2,0-0.2,0c0,0,0-0.1-0.2-0.2c-0.2,0-0.2-0.1-0.3,0
			c-0.1,0.1-0.1,0.2-0.2,0c-0.1-0.1,0-0.2-0.2-0.2C13.8,2.7,13.7,2.7,13.7,2.8C13.8,2.9,13.9,3,13.9,3c-0.1,0.1-0.1,0.1-0.1,0.1
			c-0.1,0-0.1,0-0.1-0.1C13.7,3,13.7,3,13.7,2.8C13.7,2.8,13.7,2.8,13.7,2.8z"/>
		<path id="XMLID_106_" class="st1" d="M14.2,2.7c-0.1,0.1-0.1,0.1,0,0.1s0.1,0.1,0.2,0c0.1-0.1,0.2-0.1,0.1-0.1
			C14.3,2.7,14.2,2.7,14.2,2.7z"/>
		<path id="XMLID_105_" class="st1" d="M12.9,2.5c0,0.1,0,0.1,0,0.1s0,0,0.1,0.1c0.1,0,0.1,0.1,0.2,0.1s0,0,0.1-0.1
			c0.1,0,0.1,0,0.3,0c0.1,0,0.3,0,0.3,0C14,2.6,14,2.6,14,2.6s0,0-0.2,0s-0.2,0-0.3,0c-0.1,0-0.1-0.1-0.2-0.1
			c-0.1,0.1,0,0.1-0.1,0.1c-0.1,0-0.1,0.1-0.1,0c0-0.1,0-0.1,0-0.1C13,2.4,12.9,2.5,12.9,2.5z"/>
		<path id="XMLID_104_" class="st1" d="M14.5,2c-0.2,0-0.4,0-0.4,0l-0.3,0c0,0-0.1,0-0.1,0c0,0.1-0.1,0.1-0.1,0.1S13.5,1.9,13.5,2
			c0,0.1,0,0.1,0,0.1s0.1,0.1,0.1,0.1c0,0,0,0.1,0,0.1h-0.1V2.3l0.2,0.2h0.1l-0.1,0l-0.3-0.1c0,0-0.1,0.1,0.1,0.1c0.2,0,0.1,0,0.3,0
			C14,2.4,14,2.4,14.1,2.4s-0.1,0,0.2,0c0.3,0,0.3,0,0.3-0.1c0-0.1,0-0.1,0-0.1C14.6,2.1,14.6,2,14.5,2z"/>
		<path id="XMLID_103_" class="st1" d="M12.8,2.3C12.8,2.3,12.8,2.3,12.8,2.3c0.1,0,0.1,0,0.1,0c0,0,0,0.1-0.1,0.1
			C12.8,2.4,12.7,2.4,12.8,2.3C12.7,2.4,12.7,2.3,12.8,2.3z"/>
		<path id="XMLID_102_" class="st1" d="M12.5,2.5C12.5,2.5,12.5,2.5,12.5,2.5c0,0.1,0,0.2,0,0.2c0,0,0,0-0.1,0c0,0-0.1,0-0.1-0.1
			C12.4,2.6,12.4,2.6,12.5,2.5C12.4,2.5,12.5,2.5,12.5,2.5z"/>
		<path id="XMLID_101_" class="st1" d="M12.7,2.6c0,0,0.1,0,0.1,0c0,0,0,0.1,0,0.1c0,0,0,0-0.1,0C12.7,2.7,12.7,2.7,12.7,2.6z"/>
		<path id="XMLID_100_" class="st1" d="M12.7,2.5C12.7,2.5,12.7,2.5,12.7,2.5c0.1,0.1,0.1,0,0.1,0c0,0,0,0,0,0
			C12.7,2.4,12.7,2.5,12.7,2.5z"/>
		<path id="XMLID_99_" class="st1" d="M12.4,2.1c0,0-0.1,0-0.1,0c-0.1,0-0.1,0-0.1,0c0,0,0,0.1,0.1,0.1c0.1,0,0.1,0,0.2,0
			C12.4,2.3,12.5,2.3,12.4,2.1C12.5,2.2,12.4,2.2,12.4,2.1z"/>
		<path id="XMLID_98_" class="st1" d="M12.6,2.2C12.6,2.2,12.5,2.2,12.6,2.2c-0.1,0.1,0,0.1,0,0.1C12.6,2.3,12.7,2.3,12.6,2.2
			C12.7,2.2,12.6,2.2,12.6,2.2z"/>
		<path id="XMLID_97_" class="st1" d="M11.9,2.4C11.9,2.4,11.9,2.4,11.9,2.4c0.1,0.1,0.1,0.1,0.1,0.1c0,0,0,0.1-0.1,0.1
			c-0.1,0-0.1,0-0.1-0.1C11.7,2.5,11.8,2.4,11.9,2.4C11.8,2.4,11.8,2.4,11.9,2.4z"/>
		<path id="XMLID_96_" class="st1" d="M11.2,2.4c0,0,0.1,0,0.1-0.1c0.1,0,0.1,0,0.1,0c0.1,0,0.1,0,0.1,0c0,0,0.1,0,0.1,0.1
			c0,0,0,0.1,0,0.1c0,0-0.1,0-0.1,0c-0.1,0-0.1-0.1-0.2-0.1c0,0,0,0-0.1,0C11.2,2.5,11.2,2.5,11.2,2.4C11.1,2.5,11.1,2.4,11.2,2.4z"
			/>
		<path id="XMLID_95_" class="st1" d="M10.8,2.3c0,0,0.1,0,0.1-0.1c0,0,0.1,0,0.1,0c0,0,0,0.1,0,0.1c0,0,0,0-0.1,0
			C10.8,2.3,10.8,2.3,10.8,2.3C10.8,2.3,10.7,2.3,10.8,2.3C10.7,2.3,10.8,2.3,10.8,2.3z"/>
		<path id="XMLID_94_" class="st1" d="M11.3,2.2C11.2,2.2,11.2,2.2,11.3,2.2c-0.1,0.1,0,0.1,0,0.1c0,0,0.1,0,0.1,0c0,0,0,0,0-0.1
			C11.4,2.2,11.3,2.1,11.3,2.2z"/>
		<path id="XMLID_93_" class="st1" d="M11.7,2.2c-0.1,0-0.1,0-0.1,0C11.6,2.2,11.6,2.3,11.7,2.2C11.7,2.3,11.7,2.3,11.7,2.2
			C11.8,2.2,11.7,2.2,11.7,2.2z"/>
		<path id="XMLID_92_" class="st1" d="M12,2.7c0,0,0.1,0,0.2,0c0,0,0,0.1,0,0.1c0,0-0.1,0.1-0.1,0C11.9,2.8,11.9,2.7,12,2.7z"/>
		<path id="XMLID_91_" class="st1" d="M14.7,3.5c0,0,0.1,0.1,0.1,0.1c0,0.1-0.1,0.1-0.1,0.1c-0.1,0-0.2,0-0.2-0.1
			C14.5,3.6,14.7,3.4,14.7,3.5z"/>
		<path id="XMLID_90_" class="st1" d="M18.2,7.9c0.1,0,0.1,0.1,0.1,0.1c0.1,0,0.1,0,0.1,0c0,0,0,0.1-0.1,0.1c0,0-0.1,0-0.1-0.1
			c-0.1,0-0.2,0-0.2,0C18.1,8,18.2,7.9,18.2,7.9z"/>
		<path id="XMLID_89_" class="st1" d="M15.6,13.7c0,0,0,0.1,0,0.2c0,0,0.1,0,0.1,0.1c0,0.1,0,0.1,0,0.1c0,0,0,0.1,0.1,0.1
			c0,0,0.1-0.1,0.1-0.1c0-0.1,0-0.1,0-0.2C15.9,13.7,15.7,13.6,15.6,13.7z"/>
		<path id="XMLID_88_" class="st1" d="M15.3,13.9c0,0,0.1,0,0.1,0.1c0,0,0,0.1,0,0.1c0,0-0.1,0-0.1,0C15.3,14,15.3,13.9,15.3,13.9z"
			/>
		<path id="XMLID_87_" class="st1" d="M15.6,14.3C15.6,14.3,15.6,14.3,15.6,14.3c0.1,0.2,0.1,0.2,0.1,0.3c0,0-0.1,0.1-0.2,0.1
			c-0.1,0-0.1-0.1-0.1-0.1C15.5,14.4,15.5,14.3,15.6,14.3z"/>
		<path id="XMLID_86_" class="st1" d="M16,14.2c-0.1,0-0.1,0.1-0.1,0.1c0,0,0.1,0,0.1,0.1c0,0,0,0.1,0,0.1c0,0,0.1,0,0.1,0
			c0,0,0-0.1,0-0.1C16.1,14.3,16,14.2,16,14.2z"/>
		<path id="XMLID_85_" class="st1" d="M16.1,14.7c0,0,0,0.1,0,0.1c0,0,0.1,0.1,0.1,0.1c0,0,0.1-0.1,0-0.1
			C16.1,14.7,16.1,14.6,16.1,14.7z"/>
		<path id="XMLID_84_" class="st1" d="M16.3,14.7c0,0,0,0.1,0,0.1c0,0,0,0.1,0.1,0.1c0,0,0.1,0,0.1,0c0,0,0-0.1,0-0.1
			C16.5,14.7,16.4,14.7,16.3,14.7z"/>
		<path id="XMLID_83_" class="st1" d="M16.8,15.3c-0.1,0-0.1,0.1-0.1,0.1c0,0,0.1,0.1,0.1,0.1c0.1,0,0.1,0,0.2,0c0,0,0-0.1,0-0.1
			C16.9,15.3,16.9,15.3,16.8,15.3z"/>
		<path id="XMLID_47_" class="st1" d="M13.4,15.5c0-0.1,0.3-0.2,0.5-0.3c0.3-0.1,0.6-0.1,0.7-0.1c0.2,0,0.4,0.1,0.6,0.1
			c0.3,0.1,0.4,0.1,0.5,0.1c0,0,0.1,0,0.1,0c0.1,0,0.1,0,0.2,0c0.1,0,0,0.1,0.1,0.1c0.1,0.1,0.2,0.1,0.2,0.1c0.1,0,0.2,0,0.2,0
			c0,0,0,0.1,0,0.2c-0.1,0.1-0.2,0.1-0.3,0.1c-0.5,0-0.7,0.2-0.8,0c0-0.1,0-0.2,0-0.2c0,0-0.1,0.1-0.2,0c-0.1,0-0.1-0.1-0.1-0.2
			c0,0-0.1,0-0.3,0c-0.2,0-0.3,0-0.3,0c-0.1,0,0,0-0.1-0.1c-0.1,0-0.2-0.1-0.3-0.1c0,0,0,0.1,0,0.1c0,0-0.1-0.1-0.2-0.1
			c-0.1,0-0.1,0-0.2,0.1c-0.2,0.1-0.2,0.1-0.2,0.1C13.5,15.6,13.4,15.6,13.4,15.5z"/>
		<path id="XMLID_43_" class="st1" d="M16.8,15.7c0-0.1,0.2,0,0.4,0c0.2,0,0.2-0.1,0.4-0.1c0.2,0,0.2,0,0.2,0c0.1,0,0.1,0.1,0.2,0.1
			c0.1,0.1,0.2,0.1,0.2,0.1c0,0,0,0.1-0.1,0.1c-0.1,0.1-0.2,0-0.4,0c-0.1,0-0.1,0-0.2,0.1c-0.1,0-0.1,0-0.2,0.1c0,0,0,0.1-0.1,0.1
			c0,0.1,0,0.1-0.1,0.1c-0.1,0-0.2-0.1-0.4-0.1c-0.1,0-0.1,0-0.2,0c-0.1,0-0.2-0.1-0.2-0.2c0,0,0.1,0.1,0.3,0c0.1,0,0.1-0.1,0.1-0.2
			c0-0.1-0.2,0-0.2-0.1C16.8,15.8,16.8,15.8,16.8,15.7z"/>
		<path id="XMLID_42_" class="st1" d="M15.7,1.9c-0.1,0-0.2,0-0.4,0c-0.1,0-0.1,0-0.2,0.1c0,0,0,0.1-0.1,0.1c-0.1,0.1-0.2,0-0.2,0.1
			c0,0,0.1,0.1,0.1,0.2c0.1,0.1,0.1,0.1,0.2,0.1c0.1,0,0.2-0.1,0.4-0.1c0.1,0,0.1,0,0.2,0.1c0.1,0,0.2,0.1,0.3,0.2
			C16.4,2.9,16.4,3,16.5,3c0,0,0.1,0,0.2,0c0,0,0.1,0,0.1,0.1c0,0.1-0.1,0.1-0.1,0.1c0,0,0.1,0.1,0.1,0.1c0,0,0.1,0,0.1,0
			C17,3.3,17,3.2,17,3.2c0,0,0,0,0.1,0.1c0,0.1,0.1,0.1,0.1,0.1c0,0.1,0.1,0.1,0.1,0.2c0.1,0.1,0.1,0,0.2,0.1c0.1,0,0.1,0.1,0.1,0.1
			c0.1,0.2,0.3,0.2,0.3,0.2c0,0-0.1-0.1-0.1-0.1c0,0,0.1,0.1,0.3,0.2c0.3,0.2,0.3,0.2,0.4,0.2c0.1,0,0.1,0,0.2,0
			c0.1,0,0.2,0.1,0.3,0.1c0,0,0.1,0,0.1,0c0,0,0.1,0,0.1-0.1c0,0,0-0.1-0.1-0.2C19.1,4.2,19,4.2,18.9,4c0-0.1,0-0.1-0.1-0.2
			c-0.1-0.1-0.2-0.1-0.2-0.2c0,0,0-0.1,0-0.1c0.1-0.1,0.1-0.1,0.1-0.2c0-0.1-0.1-0.1-0.3-0.3c-0.1,0-0.1-0.1-0.1-0.1
			c0-0.1,0-0.1,0-0.3c0-0.1-0.1-0.2-0.2-0.2c0,0,0,0-0.2,0.1c-0.1,0-0.1,0.1-0.1,0c0,0,0-0.1,0-0.2c0-0.1,0.1-0.1,0.1-0.1
			c0,0-0.1,0-0.3-0.1c-0.1,0-0.2,0-0.2-0.1c0,0,0-0.1,0-0.1c0-0.1-0.1-0.1-0.2-0.1C17.1,2,17,2,17,2c-0.1,0-0.1,0-0.1,0
			c-0.1,0-0.1-0.1-0.2-0.1c-0.1-0.1-0.1-0.1-0.2-0.1c-0.2-0.1-0.4,0-0.4,0C15.9,1.8,15.9,1.9,15.7,1.9z"/>
	</g>
</g>
</svg>
