<?xml version="1.0" encoding="utf-8"?>
<!-- Generator: Adobe Illustrator 25.2.1, SVG Export Plug-In . SVG Version: 6.00 Build 0)  -->
<svg version="1.1" xmlns="http://www.w3.org/2000/svg" xmlns:xlink="http://www.w3.org/1999/xlink" x="0px" y="0px"
	 viewBox="0 0 24 24" style="enable-background:new 0 0 24 24;" xml:space="preserve">
<path d="M19,19h2v2h-2V19 M19,17h2v-2h-2V17 M3,13h2v-2H3V13 M3,17h2v-2H3V17 M3,9h2V7H3V9 M3,5h2V3H3V5 M7,5h2V3H7V5 M15,21h2v-2
	h-2V21 M11,21h2v-2h-2V21 M15,21h2v-2h-2V21 M7,21h2v-2H7V21 M3,21h2v-2H3V21 M21,8c0-2.8-2.2-5-5-5h-5v2h5c1.7,0,3,1.3,3,3v5h2V8z"
	/>
</svg>
