<?xml version="1.0" encoding="utf-8"?>
<!-- Generator: Adobe Illustrator 19.2.1, SVG Export Plug-In . SVG Version: 6.00 Build 0)  -->
<svg version="1.1" id="OBJECTS" xmlns="http://www.w3.org/2000/svg" xmlns:xlink="http://www.w3.org/1999/xlink" x="0px" y="0px"
	 viewBox="0 0 416.7 350" style="enable-background:new 0 0 416.7 350;" xml:space="preserve">
<style type="text/css">
	.st0{fill:#093153;}
	.st1{clip-path:url(#SVGID_4_);enable-background:new    ;}
	.st2{enable-background:new    ;}
	.st3{clip-path:url(#SVGID_6_);enable-background:new    ;}
	.st4{fill:#1E1B1C;}
	.st5{clip-path:url(#SVGID_8_);enable-background:new    ;}
	.st6{fill:#161314;}
	.st7{fill:#161414;}
	.st8{fill:#171415;}
	.st9{fill:#181516;}
	.st10{fill:#191616;}
	.st11{fill:#191617;}
	.st12{fill:#1A1718;}
	.st13{fill:#1B1818;}
	.st14{fill:#1B1819;}
	.st15{fill:#1C191A;}
	.st16{clip-path:url(#SVGID_11_);enable-background:new    ;}
	.st17{fill:#858585;}
	.st18{clip-path:url(#SVGID_14_);enable-background:new    ;}
	.st19{fill:#888888;}
	.st20{fill:#DBDBDB;}
	.st21{fill:#F4EBE6;}
	.st22{clip-path:url(#SVGID_17_);enable-background:new    ;}
	.st23{fill:#8A8A8A;}
	.st24{fill:#8F8F8F;}
	.st25{fill:#949494;}
	.st26{fill:#999999;}
	.st27{fill:#9E9E9E;}
	.st28{fill:#A3A3A3;}
	.st29{fill:#A8A8A8;}
	.st30{fill:#ADADAD;}
	.st31{fill:#B3B3B3;}
	.st32{fill:#B8B8B8;}
	.st33{fill:#BDBDBD;}
	.st34{fill:#C2C2C2;}
	.st35{fill:#C7C7C7;}
	.st36{fill:#CCCCCC;}
	.st37{clip-path:url(#SVGID_19_);enable-background:new    ;}
	.st38{fill:#0F456D;}
	.st39{fill:#348CD1;}
	.st40{fill:#BBBAB9;}
	.st41{fill:#286CA2;}
	.st42{clip-path:url(#SVGID_21_);enable-background:new    ;}
	.st43{fill:#082A47;}
	.st44{clip-path:url(#SVGID_24_);enable-background:new    ;}
	.st45{fill:#061E33;}
	.st46{fill:#061F35;}
	.st47{fill:#062037;}
	.st48{fill:#062138;}
	.st49{fill:#06223A;}
	.st50{fill:#06233C;}
	.st51{fill:#07243D;}
	.st52{fill:#07253F;}
	.st53{fill:#072641;}
	.st54{fill:#072742;}
	.st55{clip-path:url(#SVGID_28_);enable-background:new    ;}
	.st56{fill:#7F7A78;}
	.st57{fill:#827E7B;}
	.st58{fill:#D2CAC6;}
	.st59{clip-path:url(#SVGID_32_);enable-background:new    ;}
	.st60{fill:#847F7C;}
	.st61{fill:#898481;}
	.st62{fill:#8E8885;}
	.st63{fill:#928D8A;}
	.st64{fill:#97928F;}
	.st65{fill:#9C9693;}
	.st66{fill:#A19B98;}
	.st67{fill:#A6A09C;}
	.st68{fill:#ABA4A1;}
	.st69{fill:#B0A9A6;}
	.st70{fill:#B5AEAA;}
	.st71{fill:#B9B3AF;}
	.st72{fill:#BEB7B3;}
	.st73{fill:#C3BCB8;}
	.st74{fill:#236CB6;}
	.st75{fill:#8CC0E6;}
	.st76{opacity:0.57;fill:#236CB6;enable-background:new    ;}
	.st77{fill:#256CB6;}
	.st78{fill:#F3EBE5;}
	.st79{fill:#0F3153;}
	.st80{fill:#103153;}
	.st81{fill:none;stroke:#256CB6;stroke-width:0.25;stroke-miterlimit:10;}
	.st82{fill:#276CB5;}
	.st83{fill:none;stroke:#276CB5;stroke-width:0.25;stroke-miterlimit:10;}
	.st84{fill:#D3D3D3;}
	.st85{clip-path:url(#SVGID_36_);enable-background:new    ;}
	.st86{clip-path:url(#SVGID_38_);enable-background:new    ;}
	.st87{clip-path:url(#SVGID_40_);enable-background:new    ;}
	.st88{clip-path:url(#SVGID_42_);enable-background:new    ;}
	.st89{clip-path:url(#SVGID_44_);enable-background:new    ;}
	.st90{clip-path:url(#SVGID_46_);enable-background:new    ;}
	.st91{clip-path:url(#SVGID_48_);enable-background:new    ;}
	.st92{fill:#F4E8E6;}
	.st93{fill:none;stroke:#BBBAB9;stroke-width:0.75;stroke-linecap:round;stroke-linejoin:round;stroke-miterlimit:10;}
	.st94{fill:#286CB5;}
	.st95{fill:#F2EBE5;}
	.st96{fill:#8CC0E7;}
	.st97{fill:#388BCB;}
</style>
<g>
	<g>
		<g>
			<g>
				<path id="SVGID_1_" class="st0" d="M191.3,138.1l131.8,76.6c-0.4-0.2-0.9-0.2-1.4,0.1l-131.8-76.6
					C190.5,137.9,191,137.9,191.3,138.1z"/>
			</g>
			<g>
				<defs>
					<path id="SVGID_2_" d="M191.3,138.1l131.8,76.6c-0.4-0.2-0.9-0.2-1.4,0.1l-131.8-76.6C190.5,137.9,191,137.9,191.3,138.1z"/>
				</defs>
				<clipPath id="SVGID_4_">
					<use xlink:href="#SVGID_2_"  style="overflow:visible;"/>
				</clipPath>
				<g class="st1">
					<path d="M321.7,214.8l-131.8-76.6c0.1-0.1,0.2-0.1,0.3-0.1L322,214.7C321.9,214.7,321.8,214.8,321.7,214.8"/>
					<path d="M322,214.7l-131.8-76.6c0.1,0,0.2-0.1,0.2-0.1l131.8,76.6C322.1,214.6,322,214.6,322,214.7"/>
					<path d="M322.2,214.6L190.4,138c0.1,0,0.1,0,0.2,0l131.8,76.6C322.3,214.6,322.3,214.6,322.2,214.6"/>
					<path d="M322.4,214.6L190.6,138c0.1,0,0.1,0,0.1,0l131.8,76.6C322.5,214.5,322.4,214.6,322.4,214.6"/>
					<path d="M322.5,214.5l-131.8-76.6h0.1l131.8,76.6C322.6,214.5,322.6,214.5,322.5,214.5"/>
					<path d="M322.6,214.5l-131.8-76.6h0.1l131.9,76.7C322.7,214.6,322.7,214.5,322.6,214.5"/>
					<path d="M322.8,214.6L191,138h0.1l131.8,76.6C322.8,214.6,322.8,214.6,322.8,214.6"/>
					<path d="M322.9,214.6L191.1,138h0.1L323,214.6H322.9"/>
					<path d="M323,214.6L191.2,138h0.1L323,214.6C323.1,214.7,323,214.6,323,214.6"/>
					<polyline class="st0" points="323.1,214.7 191.3,138.1 191.3,138.1 323.1,214.7 323.1,214.7 					"/>
				</g>
			</g>
		</g>
		<g>
			<polygon class="st0" points="316.8,217.6 185,141.1 189.9,138.2 321.7,214.8 			"/>
		</g>
		<g class="st2">
			<g>
				<path id="SVGID_3_" class="st0" d="M191.1,69.5l131.8,76.6c-0.4-0.2-0.9-0.2-1.4,0.1L189.7,69.6
					C190.3,69.4,190.8,69.3,191.1,69.5z"/>
			</g>
			<g>
				<defs>
					<path id="SVGID_5_" d="M191.1,69.5l131.8,76.6c-0.4-0.2-0.9-0.2-1.4,0.1L189.7,69.6C190.3,69.4,190.8,69.3,191.1,69.5z"/>
				</defs>
				<clipPath id="SVGID_6_">
					<use xlink:href="#SVGID_5_"  style="overflow:visible;"/>
				</clipPath>
				<g class="st3">
					<path d="M321.5,146.2L189.7,69.6c0.1-0.1,0.2-0.1,0.3-0.1l131.8,76.6C321.7,146.1,321.6,146.2,321.5,146.2"/>
					<path d="M321.8,146.1L190,69.5c0.1,0,0.2-0.1,0.2-0.1L322,146C321.9,146,321.8,146.1,321.8,146.1"/>
					<path d="M322,146L190.2,69.4c0.1,0,0.1,0,0.2,0L322.2,146C322.1,146,322.1,146,322,146"/>
					<path d="M322.2,146L190.4,69.4c0.1,0,0.1,0,0.1,0L322.3,146C322.3,146,322.2,146,322.2,146"/>
					<path d="M322.3,146L190.5,69.4h0.1L322.4,146C322.4,146,322.4,146,322.3,146"/>
					<path d="M322.5,146L190.7,69.4h0.1L322.6,146C322.5,146,322.5,146,322.5,146"/>
					<path d="M322.6,146L190.8,69.4h0.1L322.7,146C322.6,146,322.6,146,322.6,146"/>
					<path d="M322.7,146L190.9,69.4h0.1L322.8,146H322.7"/>
					<path d="M322.8,146L191,69.4h0.1L322.8,146C322.9,146.1,322.8,146.1,322.8,146"/>
					<polyline class="st0" points="322.9,146.1 191.1,69.5 191.1,69.5 322.9,146.1 322.9,146.1 					"/>
				</g>
			</g>
		</g>
		<g>
			<polygon class="st4" points="238.1,263.1 106.3,186.5 185,141.1 316.8,217.6 			"/>
		</g>
		<g class="st2">
			<g>
				<defs>
					<path id="SVGID_7_" d="M232,263.7l-131.8-76.6c1.6,0.9,3.7,0.8,6.1-0.6l131.8,76.6C235.7,264.5,233.5,264.6,232,263.7z"/>
				</defs>
				<clipPath id="SVGID_8_">
					<use xlink:href="#SVGID_7_"  style="overflow:visible;"/>
				</clipPath>
				<g class="st5">
					<path class="st6" d="M232,263.7l-131.8-76.6l0,0L232,263.7L232,263.7"/>
					<path class="st7" d="M232,263.7l-131.8-76.6c0.1,0.1,0.3,0.2,0.4,0.2l131.8,76.6C232.3,263.9,232.1,263.8,232,263.7"/>
					<path class="st8" d="M232.4,263.9l-131.8-76.6c0.1,0.1,0.3,0.1,0.5,0.2l131.8,76.6C232.7,264.1,232.6,264,232.4,263.9"/>
					<path class="st9" d="M232.9,264.1l-131.8-76.6c0.2,0,0.3,0.1,0.5,0.1l131.8,76.6C233.2,264.2,233,264.1,232.9,264.1"/>
					<path class="st10" d="M233.3,264.2l-131.7-76.6c0.2,0,0.3,0,0.5,0.1l131.8,76.6C233.7,264.3,233.5,264.2,233.3,264.2"/>
					<path class="st11" d="M233.9,264.3l-131.8-76.6c0.2,0,0.4,0,0.6,0l131.7,76.6C234.2,264.3,234,264.3,233.9,264.3"/>
					<path class="st12" d="M234.4,264.3l-131.8-76.6c0.2,0,0.4,0,0.6-0.1L235,264.2C234.9,264.2,234.6,264.3,234.4,264.3"/>
					<path class="st13" d="M235.1,264.2l-131.8-76.6c0.2,0,0.5-0.1,0.8-0.2L235.9,264C235.6,264.1,235.3,264.2,235.1,264.2"/>
					<path class="st14" d="M235.8,264.1L104,187.5c0.3-0.1,0.7-0.2,1-0.3l131.8,76.6C236.5,263.8,236.2,264,235.8,264.1"/>
					<path class="st15" d="M236.8,263.7L105,187.1c0.4-0.2,0.8-0.4,1.2-0.6L238,263.1C237.6,263.3,237.2,263.5,236.8,263.7"/>
				</g>
			</g>
		</g>
		<g class="st2">
			<g>
				<defs>
					<path id="SVGID_10_" d="M232,263.7l-131.8-76.6c-1.6-0.9-2.5-2.8-2.5-5.5l131.7,76.6C229.4,260.9,230.4,262.8,232,263.7z"/>
				</defs>
				<clipPath id="SVGID_11_">
					<use xlink:href="#SVGID_10_"  style="overflow:visible;"/>
				</clipPath>
				<g class="st16">
					<path class="st17" d="M232,263.7l-131.8-76.6c-1.6-0.9-2.5-2.8-2.5-5.5l131.7,76.6C229.4,260.9,230.4,262.8,232,263.7"/>
				</g>
			</g>
		</g>
		<g class="st2">
			<g>
				<path id="SVGID_9_" class="st0" d="M229.1,268.5L97.3,191.9c-2.3-1.3-3.7-4.1-3.7-8.1l131.8,76.7
					C225.5,264.4,226.9,267.2,229.1,268.5z"/>
			</g>
			<g>
				<defs>
					<path id="SVGID_12_" d="M229.1,268.5L97.3,191.9c-2.3-1.3-3.7-4.1-3.7-8.1l131.8,76.7C225.5,264.4,226.9,267.2,229.1,268.5z"/>
				</defs>
				<clipPath id="SVGID_14_">
					<use xlink:href="#SVGID_12_"  style="overflow:visible;"/>
				</clipPath>
				<g class="st18">
					<path d="M229.1,268.5L97.3,191.9c-2.3-1.3-3.7-4.1-3.7-8.1l131.8,76.7C225.5,264.4,226.9,267.2,229.1,268.5"/>
				</g>
			</g>
		</g>
		<g>
			<polygon class="st19" points="229.4,258.2 97.7,181.6 97.5,137.4 229.3,214 			"/>
		</g>
		<g>
			<polygon class="st20" points="237.9,199.1 106.1,122.5 184.9,77.1 316.6,153.6 			"/>
		</g>
		<g>
			<path class="st21" d="M316.6,153.6l0.2,64L238,263.1c-2.4,1.4-4.5,1.5-6.1,0.6s-2.5-2.8-2.5-5.5l-0.1-44.2c0-2.7,0.9-5.8,2.5-8.5
				s3.7-5,6.1-6.4L316.6,153.6z"/>
		</g>
		<g class="st2">
			<g>
				<defs>
					<path id="SVGID_16_" d="M229.3,214L97.5,137.4c0-2.7,0.9-5.8,2.5-8.5c1.6-2.7,3.7-5,6.1-6.4l131.8,76.6
						c-2.4,1.4-4.5,3.7-6.1,6.4C230.2,208.2,229.3,211.2,229.3,214z"/>
				</defs>
				<clipPath id="SVGID_17_">
					<use xlink:href="#SVGID_16_"  style="overflow:visible;"/>
				</clipPath>
				<g class="st22">
					<path class="st17" d="M229.3,214L97.5,137.4c0-0.6,0-1.1,0.1-1.7l131.8,76.6C229.3,212.8,229.3,213.4,229.3,214"/>
					<path class="st23" d="M229.4,212.3L97.6,135.7c0.1-0.4,0.1-0.8,0.2-1.2l131.8,76.6C229.5,211.5,229.5,211.9,229.4,212.3"/>
					<path class="st24" d="M229.6,211L97.8,134.4c0.1-0.3,0.2-0.7,0.2-1L229.8,210C229.8,210.4,229.7,210.7,229.6,211"/>
					<path class="st25" d="M229.9,210.1L98.1,133.5c0.1-0.3,0.2-0.6,0.3-0.9l131.8,76.6C230,209.5,229.9,209.8,229.9,210.1"/>
					<path class="st26" d="M230.1,209.2L98.4,132.6c0.1-0.3,0.2-0.5,0.3-0.8l131.7,76.6C230.3,208.7,230.2,208.9,230.1,209.2"/>
					<path class="st27" d="M230.4,208.4L98.6,131.8c0.1-0.3,0.2-0.5,0.3-0.8l131.8,76.6C230.6,207.9,230.5,208.1,230.4,208.4"/>
					<path class="st28" d="M230.7,207.6L98.9,131c0.1-0.3,0.2-0.5,0.3-0.7L231,206.9C231,207.1,230.8,207.4,230.7,207.6"/>
					<path class="st29" d="M231.1,206.9L99.3,130.3c0.1-0.2,0.2-0.5,0.4-0.7l131.7,76.5C231.3,206.4,231.2,206.6,231.1,206.9"/>
					<path class="st30" d="M231.4,206.1L99.7,129.6c0.1-0.2,0.2-0.4,0.3-0.6c0,0,0,0,0-0.1l131.8,76.6c0,0,0,0,0,0.1
						C231.7,205.7,231.6,205.9,231.4,206.1"/>
					<path class="st31" d="M231.8,205.4L100,128.8c0.1-0.2,0.3-0.5,0.4-0.7l131.8,76.6C232.1,204.9,232,205.2,231.8,205.4"/>
					<path class="st32" d="M232.3,204.7l-131.8-76.6c0.2-0.3,0.3-0.5,0.5-0.7L232.8,204C232.6,204.2,232.4,204.5,232.3,204.7"/>
					<path class="st33" d="M232.8,204L101,127.4c0.2-0.3,0.4-0.5,0.6-0.8l131.8,76.6C233.2,203.4,233,203.7,232.8,204"/>
					<path class="st34" d="M233.3,203.2l-131.7-76.6c0.2-0.3,0.5-0.6,0.7-0.8l131.8,76.6C233.8,202.6,233.6,202.9,233.3,203.2"/>
					<path class="st35" d="M234,202.3l-131.8-76.6c0.3-0.3,0.6-0.7,0.9-1l131.8,76.6C234.7,201.7,234.3,202,234,202.3"/>
					<path class="st36" d="M235,201.3l-131.8-76.6c0.9-0.9,1.9-1.7,2.9-2.2l131.8,76.6C236.9,199.7,235.9,200.4,235,201.3"/>
				</g>
			</g>
		</g>
		<g>
			<polygon class="st0" points="225.4,260.5 93.7,183.9 93.6,139.7 225.3,216.2 			"/>
		</g>
		<g>
			<polygon class="st0" points="237.9,194.5 106.1,118 189.7,69.7 321.5,146.2 			"/>
		</g>
		<g class="st2">
			<g>
				<path id="SVGID_13_" class="st0" d="M225.3,216.2L93.5,139.6c0-8,5.6-17.7,12.5-21.7l131.8,76.6
					C230.9,198.5,225.3,208.3,225.3,216.2z"/>
			</g>
			<g>
				<defs>
					<path id="SVGID_18_" d="M225.3,216.2L93.5,139.6c0-8,5.6-17.7,12.5-21.7l131.8,76.6C230.9,198.5,225.3,208.3,225.3,216.2z"/>
				</defs>
				<clipPath id="SVGID_19_">
					<use xlink:href="#SVGID_18_"  style="overflow:visible;"/>
				</clipPath>
				<g class="st37">
					<path d="M225.3,216.2L93.5,139.6c0-0.8,0.1-1.6,0.2-2.5l131.8,76.6C225.4,214.6,225.3,215.4,225.3,216.2"/>
					<path d="M225.5,213.8L93.7,137.2c0.1-0.6,0.2-1.2,0.3-1.7l131.8,76.6C225.7,212.6,225.6,213.2,225.5,213.8"/>
					<path d="M225.8,212L94,135.4c0.1-0.5,0.2-1,0.4-1.4l131.7,76.6C226,211.1,225.9,211.6,225.8,212"/>
					<path d="M226.1,210.6L94.4,134c0.1-0.4,0.2-0.9,0.4-1.3l131.8,76.6C226.4,209.7,226.3,210.2,226.1,210.6"/>
					<path d="M226.5,209.3L94.7,132.7c0.1-0.4,0.3-0.8,0.4-1.2l131.8,76.6C226.8,208.5,226.7,208.9,226.5,209.3"/>
					<path d="M227,208.1L95.2,131.6c0.1-0.4,0.3-0.8,0.5-1.1L227.4,207C227.3,207.4,227.1,207.7,227,208.1"/>
					<path d="M227.4,207L95.6,130.4c0.2-0.4,0.3-0.7,0.5-1.1l131.8,76.6C227.7,206.3,227.6,206.6,227.4,207"/>
					<path d="M227.9,205.9L96.1,129.3c0.2-0.4,0.4-0.7,0.5-1.1l131.8,76.6C228.3,205.2,228.1,205.5,227.9,205.9"/>
					<path d="M228.5,204.8L96.7,128.2c0.2-0.4,0.4-0.7,0.6-1.1l131.8,76.6C228.8,204.1,228.6,204.5,228.5,204.8"/>
					<path d="M229,203.8L97.2,127.2c0.2-0.4,0.4-0.7,0.6-1.1l131.8,76.6C229.5,203.1,229.3,203.4,229,203.8"/>
					<path d="M229.7,202.7L97.9,126.1c0.2-0.4,0.5-0.7,0.7-1.1l131.8,76.6C230.2,202,229.9,202.3,229.7,202.7"/>
					<path d="M230.4,201.6L98.6,125c0.3-0.4,0.6-0.8,0.8-1.1l131.8,76.6C231,200.9,230.7,201.2,230.4,201.6"/>
					<path d="M231.3,200.5L99.5,123.9c0.3-0.4,0.7-0.8,1-1.2l131.8,76.6C231.9,199.6,231.6,200.1,231.3,200.5"/>
					<path d="M232.3,199.2l-131.8-76.6c0.4-0.5,0.9-1,1.4-1.5l131.8,76.6C233.2,198.2,232.7,198.7,232.3,199.2"/>
					<path d="M233.7,197.8l-131.8-76.6c1.3-1.3,2.7-2.4,4.2-3.3l131.8,76.6C236.4,195.4,235,196.5,233.7,197.8"/>
				</g>
			</g>
		</g>
		<g>
			<path class="st38" d="M321.5,146.2c1.1-0.6,2-0.1,2,1.1c0,1.3-0.9,2.8-2,3.4l-4.9,2.8L237.8,199c-2.4,1.4-4.5,3.7-6.1,6.4
				c-1.6,2.7-2.5,5.7-2.5,8.5l0.1,44.2c0,2.7,1,4.6,2.5,5.5c1.6,0.9,3.7,0.8,6.1-0.6l78.8-45.5l4.9-2.8c1.1-0.6,2-0.1,2,1.1
				c0,1.3-0.9,2.8-2,3.4L238,267.5c-6.9,4-12.6,0.8-12.6-7.2l-0.1-44.2c0-8,5.6-17.7,12.5-21.7L321.5,146.2z"/>
		</g>
		<g>
			<polygon class="st39" points="274.5,144.3 233.3,168.2 216.6,158.6 257.9,134.7 			"/>
		</g>
	</g>
	<polyline class="st40" points="244.4,215.3 258.3,207.3 290.8,188.2 244.4,215.9 244.4,215.1 	"/>
	<g>
		<polygon class="st41" points="258.3,207.3 258.4,237.5 251.4,235.5 244.5,245.6 244.4,215.3 		"/>
	</g>
	<g>
		<polygon class="st39" points="122.2,162.5 122.1,193.4 113.2,188.3 113.3,157.4 		"/>
	</g>
</g>
<g>
	<g>
		<g>
			<g>
				<path id="SVGID_15_" class="st39" d="M185.6,80.6l108,62.7c-0.3-0.2-0.7-0.1-1.1,0.1l-108-62.7
					C184.9,80.4,185.3,80.4,185.6,80.6z"/>
			</g>
			<g>
				<defs>
					<path id="SVGID_20_" d="M185.6,80.6l108,62.7c-0.3-0.2-0.7-0.1-1.1,0.1l-108-62.7C184.9,80.4,185.3,80.4,185.6,80.6z"/>
				</defs>
				<clipPath id="SVGID_21_">
					<use xlink:href="#SVGID_20_"  style="overflow:visible;"/>
				</clipPath>
				<g class="st42">
					<path class="st39" d="M292.5,143.4l-108-62.7c0.1,0,0.1-0.1,0.2-0.1l108,62.7C292.6,143.3,292.5,143.4,292.5,143.4"/>
					<path class="st39" d="M292.7,143.3l-108-62.7c0.1,0,0.1,0,0.2-0.1l108,62.7C292.8,143.3,292.7,143.3,292.7,143.3"/>
					<path class="st39" d="M292.9,143.2l-108-62.7h0.1l108,62.7C292.9,143.2,292.9,143.2,292.9,143.2"/>
					<path class="st39" d="M293,143.2L185,80.5h0.1l108,62.7H293"/>
					<path class="st39" d="M293.1,143.2l-108-62.7h0.1l108,62.7C293.2,143.2,293.1,143.2,293.1,143.2"/>
					<path class="st39" d="M293.2,143.2l-108-62.7h0.1L293.2,143.2C293.3,143.2,293.2,143.2,293.2,143.2"/>
					<path class="st39" d="M293.3,143.2l-108-62.7h0.1L293.3,143.2C293.4,143.2,293.3,143.2,293.3,143.2"/>
					<path class="st39" d="M293.4,143.2l-108-62.7h0.1L293.4,143.2L293.4,143.2"/>
					<path class="st39" d="M293.5,143.3l-108-62.7h0.1L293.5,143.3L293.5,143.3"/>
					<polyline class="st39" points="293.5,143.3 185.6,80.6 185.6,80.6 293.5,143.3 293.5,143.3 					"/>
				</g>
			</g>
		</g>
		<g>
			<polygon class="st39" points="290,144.8 182,82.1 184.5,80.7 292.5,143.4 			"/>
		</g>
		<g>
			<polygon class="st43" points="229.5,179.7 121.6,117 182,82.1 290,144.8 			"/>
		</g>
		<g class="st2">
			<g>
				<defs>
					<path id="SVGID_22_" d="M222,180.5l-108-62.7c1.9,1.1,4.6,0.9,7.5-0.7l108,62.7C226.6,181.4,224,181.6,222,180.5z"/>
				</defs>
				<clipPath id="SVGID_24_">
					<use xlink:href="#SVGID_22_"  style="overflow:visible;"/>
				</clipPath>
				<g class="st44">
					<path class="st45" d="M222,180.5l-108-62.7l0,0L222,180.5L222,180.5"/>
					<path class="st46" d="M222,180.5l-108-62.7c0.2,0.1,0.4,0.2,0.5,0.3l108,62.7C222.4,180.7,222.2,180.6,222,180.5"/>
					<path class="st47" d="M222.6,180.7l-108-62.7c0.2,0.1,0.4,0.1,0.6,0.2l108,62.7C222.9,180.9,222.8,180.8,222.6,180.7"/>
					<path class="st48" d="M223.1,181l-108-62.7c0.2,0.1,0.4,0.1,0.6,0.1l108,62.7C223.5,181.1,223.3,181,223.1,181"/>
					<path class="st49" d="M223.7,181.1l-108-62.7c0.2,0,0.4,0.1,0.6,0.1l108,62.7C224.2,181.2,224,181.1,223.7,181.1"/>
					<path class="st50" d="M224.4,181.2l-108-62.7c0.2,0,0.5,0,0.7,0l108,62.7C224.9,181.2,224.6,181.2,224.4,181.2"/>
					<path class="st51" d="M225.1,181.2l-108-62.7c0.3,0,0.5,0,0.8-0.1l108,62.7C225.6,181.1,225.3,181.2,225.1,181.2"/>
					<path class="st52" d="M225.9,181.1l-108-62.7c0.3,0,0.6-0.1,0.9-0.2l108,62.7C226.5,181,226.2,181,225.9,181.1"/>
					<path class="st53" d="M226.8,180.9l-108-62.7c0.4-0.1,0.8-0.3,1.2-0.4l108,62.7C227.6,180.6,227.2,180.8,226.8,180.9"/>
					<path class="st54" d="M228.1,180.5l-108-62.7c0.5-0.2,1-0.5,1.5-0.7l108,62.7C229,180,228.5,180.3,228.1,180.5"/>
				</g>
			</g>
		</g>
		<g class="st2">
			<g>
				<defs>
					<path id="SVGID_26_" d="M222,180.5l-108-62.7c-1.9-1.1-3.2-3.5-3.2-6.8l108,62.7C218.9,177,220.1,179.4,222,180.5z"/>
				</defs>
				<clipPath id="SVGID_28_">
					<use xlink:href="#SVGID_26_"  style="overflow:visible;"/>
				</clipPath>
				<g class="st55">
					<path class="st56" d="M222,180.5l-108-62.7c-1.9-1.1-3.2-3.5-3.2-6.8l108,62.7C218.9,177,220.1,179.4,222,180.5"/>
				</g>
			</g>
		</g>
		<g>
			<polygon class="st57" points="218.8,173.6 110.9,110.9 110.9,108 218.8,170.7 			"/>
		</g>
		<g>
			<polygon class="st58" points="229.5,152.3 121.5,89.6 181.9,54.7 289.9,117.4 			"/>
		</g>
		<g class="st2">
			<g>
				<defs>
					<path id="SVGID_30_" d="M218.8,170.7l-108-62.7c0-3.4,1.2-7.1,3.1-10.5c1.9-3.3,4.6-6.3,7.5-8l108,62.7c-2.9,1.7-5.6,4.6-7.5,8
						S218.8,167.3,218.8,170.7z"/>
				</defs>
				<clipPath id="SVGID_32_">
					<use xlink:href="#SVGID_30_"  style="overflow:visible;"/>
				</clipPath>
				<g class="st59">
					<path class="st56" d="M218.8,170.7l-108-62.7c0-0.7,0-1.4,0.1-2.1l108,62.7C218.9,169.3,218.8,170,218.8,170.7"/>
					<path class="st60" d="M219,168.6l-108-62.7c0.1-0.5,0.1-1,0.3-1.5l108,62.7C219.1,167.7,219,168.2,219,168.6"/>
					<path class="st61" d="M219.2,167.2l-108-62.7c0.1-0.4,0.2-0.8,0.3-1.2l108,62.7C219.4,166.4,219.3,166.8,219.2,167.2"/>
					<path class="st62" d="M219.5,166l-108-62.7c0.1-0.4,0.2-0.7,0.3-1.1l108,62.7C219.7,165.2,219.6,165.6,219.5,166"/>
					<path class="st63" d="M219.9,164.9l-108-62.7c0.1-0.3,0.2-0.7,0.4-1l108,62.7C220.1,164.2,220,164.5,219.9,164.9"/>
					<path class="st64" d="M220.2,163.9l-108-62.7c0.1-0.3,0.3-0.6,0.4-1l108,62.7C220.5,163.2,220.3,163.5,220.2,163.9"/>
					<path class="st65" d="M220.6,162.9l-108-62.7c0.1-0.3,0.3-0.6,0.4-0.9L221,162C220.9,162.3,220.7,162.6,220.6,162.9"/>
					<path class="st66" d="M221,162L113,99.3c0.1-0.3,0.3-0.6,0.5-0.9l108,62.7C221.3,161.4,221.2,161.7,221,162"/>
					<path class="st67" d="M221.5,161.1l-108-62.7c0.1-0.3,0.3-0.5,0.4-0.8c0,0,0-0.1,0.1-0.1l108,62.7c0,0,0,0.1-0.1,0.1
						C221.8,160.5,221.6,160.8,221.5,161.1"/>
					<path class="st68" d="M222,160.2L114,97.5c0.2-0.3,0.4-0.6,0.6-0.9l108,62.7C222.4,159.5,222.2,159.8,222,160.2"/>
					<path class="st69" d="M222.6,159.2l-108-62.7c0.2-0.3,0.4-0.6,0.6-0.9l108,62.7C223,158.6,222.8,158.9,222.6,159.2"/>
					<path class="st70" d="M223.2,158.3l-108-62.7c0.2-0.3,0.5-0.7,0.7-1l108,62.7C223.7,157.7,223.4,158,223.2,158.3"/>
					<path class="st71" d="M223.9,157.3l-108-62.7c0.3-0.4,0.6-0.7,0.9-1l108,62.7C224.5,156.6,224.2,157,223.9,157.3"/>
					<path class="st72" d="M224.8,156.3l-108-62.7c0.4-0.4,0.8-0.8,1.2-1.2l108,62.7C225.5,155.4,225.1,155.9,224.8,156.3"/>
					<path class="st73" d="M225.9,155.1l-108-62.7c1.1-1.1,2.3-2,3.5-2.8l108,62.7C228.2,153,227,154,225.9,155.1"/>
				</g>
			</g>
		</g>
		<g>
			<path class="st21" d="M289.9,117.4l0.1,27.4l-60.4,34.9c-2.9,1.7-5.6,1.9-7.5,0.7c-1.9-1.1-3.2-3.5-3.2-6.8v-2.9
				c0-3.4,1.2-7.1,3.1-10.5c1.9-3.3,4.6-6.3,7.5-8L289.9,117.4z"/>
		</g>
		<path class="st39" d="M293,112.3c0.2,0,0.3,0,0.5,0.1l-108-62.7l0,0h-0.1h-0.1h-0.1h-0.1H185l0,0l0,0c0,0,0,0-0.1,0h-0.1
			c-0.1,0-0.1,0-0.2,0.1c-0.1,0-0.1,0.1-0.2,0.1l-62.9,36.3c-0.4,0.3-0.9,0.5-1.3,0.8c-0.1,0.1-0.3,0.2-0.4,0.3
			c-0.3,0.2-0.6,0.4-0.9,0.6c-0.2,0.1-0.3,0.3-0.5,0.4c-0.3,0.2-0.5,0.4-0.8,0.7c-0.2,0.1-0.3,0.3-0.5,0.4c-0.1,0.1-0.2,0.2-0.3,0.3
			s-0.2,0.2-0.3,0.3c-0.3,0.3-0.6,0.6-0.9,1c-0.1,0.1-0.2,0.2-0.3,0.3s-0.2,0.2-0.2,0.3c-0.2,0.2-0.4,0.4-0.5,0.7
			c-0.1,0.1-0.2,0.3-0.3,0.4c-0.1,0.1-0.2,0.2-0.3,0.4s-0.3,0.3-0.4,0.5c-0.1,0.1-0.2,0.2-0.3,0.3c-0.1,0.2-0.3,0.4-0.4,0.6
			c-0.1,0.1-0.2,0.3-0.3,0.4c0,0.1-0.1,0.1-0.1,0.2c-0.2,0.4-0.5,0.8-0.7,1.2v0.1c0,0.1-0.1,0.2-0.1,0.2c-0.2,0.3-0.3,0.6-0.5,0.8
			c-0.1,0.1-0.1,0.3-0.2,0.4c-0.1,0.1-0.1,0.3-0.2,0.4c-0.1,0.1-0.1,0.2-0.2,0.4c-0.2,0.3-0.3,0.6-0.4,0.9c0,0.1-0.1,0.1-0.1,0.2
			c0,0,0,0,0,0.1c-0.2,0.4-0.3,0.8-0.5,1.2c0,0.1-0.1,0.1-0.1,0.2c-0.1,0.1-0.1,0.3-0.2,0.4c-0.1,0.2-0.2,0.4-0.2,0.6
			c-0.1,0.2-0.1,0.3-0.1,0.5c-0.1,0.2-0.1,0.4-0.2,0.6c0,0.1-0.1,0.2-0.1,0.4c-0.1,0.2-0.1,0.4-0.2,0.6c-0.1,0.2-0.1,0.5-0.2,0.7
			c0,0.1,0,0.2-0.1,0.3c0,0.2-0.1,0.3-0.1,0.5c-0.1,0.4-0.1,0.7-0.2,1.1c0,0.1,0,0.2-0.1,0.3c0,0.2,0,0.4-0.1,0.7c0,0.2,0,0.3,0,0.5
			c0,0.5-0.1,1-0.1,1.5v2.9c0,4.3,1.5,7.4,4,8.8l108,62.7c-2.5-1.4-4-4.5-4-8.8v-2.9c0-0.5,0-1,0.1-1.5c0-0.2,0-0.3,0-0.5
			c0-0.3,0.1-0.7,0.1-1c0.1-0.4,0.1-0.7,0.2-1.1c0-0.3,0.1-0.5,0.1-0.8c0.1-0.2,0.1-0.5,0.2-0.7c0.1-0.3,0.2-0.7,0.3-1
			c0.1-0.2,0.1-0.4,0.2-0.6c0.1-0.4,0.2-0.7,0.4-1.1c0.1-0.1,0.1-0.3,0.2-0.4c0.2-0.5,0.4-1,0.6-1.5c0-0.1,0.1-0.1,0.1-0.2
			c0.2-0.4,0.4-0.9,0.6-1.3c0.1-0.1,0.1-0.3,0.2-0.4c0.2-0.4,0.4-0.8,0.7-1.2c0-0.1,0.1-0.2,0.1-0.2c0.3-0.5,0.6-0.9,0.9-1.4
			c0.1-0.1,0.2-0.3,0.3-0.4c0.2-0.3,0.4-0.7,0.7-1c0.1-0.2,0.3-0.3,0.4-0.5c0.2-0.3,0.4-0.5,0.6-0.8c0.2-0.2,0.4-0.4,0.5-0.7
			c0.2-0.2,0.3-0.4,0.5-0.6c0.3-0.3,0.6-0.7,0.9-1c0.2-0.2,0.4-0.4,0.6-0.6c0.2-0.1,0.3-0.3,0.5-0.4c0.3-0.2,0.5-0.5,0.8-0.7
			c0.2-0.1,0.3-0.3,0.5-0.4c0.3-0.2,0.6-0.4,0.9-0.6c0.1-0.1,0.3-0.2,0.4-0.3c0.4-0.3,0.9-0.6,1.3-0.8l62.9-36.3
			C292.6,112.4,292.8,112.3,293,112.3L293,112.3z"/>
		<g>
			<path class="st74" d="M292.4,112.5c0.8-0.5,1.5-0.1,1.5,0.9s-0.7,2.1-1.5,2.6l-2.5,1.4l-60.4,34.9c-2.9,1.7-5.6,4.6-7.5,8
				c-1.9,3.3-3.1,7.1-3.1,10.5v2.9c0,3.4,1.2,5.7,3.2,6.8c1.9,1.1,4.6,0.9,7.5-0.7l60.4-34.9l2.5-1.4c0.8-0.5,1.5-0.1,1.5,0.9
				s-0.7,2.1-1.5,2.6l-62.9,36.3c-7.6,4.4-13.7,0.8-13.8-7.8v-2.9c0-8.7,6.1-19.3,13.7-23.7L292.4,112.5z"/>
		</g>
	</g>
	<g>
		<path class="st75" d="M249.4,110.8c1.3,0.8,1.3,2,0,2.7L227.9,126c-1.3,0.7-3.4,0.7-4.7,0l-5.3-3c-1.3-0.7-1.3-2,0-2.7l21.5-12.5
			c1.3-0.7,3.4-0.7,4.7,0L249.4,110.8z"/>
	</g>
</g>
<g>
	<path class="st76" d="M162.1,149.1c3.6,2.9,6.1,0.8,7.6-2.7c0.7-1.7,1.4-3.3,2.4-4.8c0.6-1,1.3-2,2.1-2.9c1.5-1.8,4-3.1,5.2-5
		c-1.4,1.9-1.7,5-2.5,7.3c-1.1,3.4-2.4,6.8-2.9,10.3c-0.4,3,1.7,9.8,5.5,6.2c1.9-1.8,2.8-5.5,3.7-7.9c1.2-3,2.3-5.6,4-8.3
		c1.7-2.6,7.3-5.9,6.8-9.2c-0.7-4.2-8.7-8.3-12.1-8.7c-3.5-0.3-6.8,1.2-9.8,2.9c-3.8,2.2-5.8,7.1-8.2,10.7c-2.2,3.3-4,7.6-3,11.7
		c0.2,0.1,0.6,0.1,0.8,0.1c0.2-0.3,0.2-0.5,0-0.8"/>
	<path class="st77" d="M189.6,117.7c-5.7-1.5-10.9-0.1-16.5-0.5l0.8,0.6c-2-0.4-7.7,7.4-8.9,9.1c-2.9,4-5.4,9.1-6.3,13.9
		c-0.6,2.9-1.5,8,1.5,9.7c3.3,1.9,5.1-1.1,6.8-3.7c1.6-2.5,2.7-5.4,4.3-7.9c0.6-0.9,3.3-5.3,4.4-6.8c-0.4,1.2-2.1,5.5-2.3,6.4
		c-0.8,3-1.5,6-1.9,9c-0.3,2.5-2.8,13.3,3.2,11.8c2.8-0.7,4.2-4.9,5.2-7.2c1.5-3.5,2.9-7.5,5.3-10.5c3.4-4.4,9.2-8.6,9.8-14.5
		C195.2,122.6,194.4,119,189.6,117.7z"/>
	<path class="st78" d="M173.2,124.6c-0.5,0.3-0.9,0.5-1.3,1c-0.3,0.4-1.2,4.3-0.4,4.3c0.4,0,0.4-1,0.5-1.2c-0.1,0.3,0,2.4,0.5,2.4
		s0.3-2,0.5-2.4c-0.1,0.5,0.1,2.3,0.5,2.5c0.6-0.3,0.2-2.3,0.4-2.9c0,0.2,0.4,2.1,0.8,1.8c0.4-0.2-0.1-2-0.3-2.4
		c0.2,0,0.5,0.7,0.9,0.7c0.5,0.1,0.3-0.5,0.2-0.9c-0.5-1.1-1.1-2.3-1.7-3.4l0.1-0.1C173.8,124.1,173.5,124.4,173.2,124.6z"/>
	<path class="st78" d="M179.2,126.9c0.4,0.4,0.7,0.8,1,1.3c0.2,0.5,0,4.4-0.8,4.3c-0.4-0.1-0.1-1.1-0.2-1.3c0,0.3-0.7,2.3-1.2,2.1
		c-0.4-0.2,0.2-2,0.1-2.4c0,0.5-0.8,2.2-1.2,2.3c-0.5-0.4,0.4-2.2,0.4-2.9c0,0.2-0.9,1.9-1.3,1.5c-0.3-0.3,0.7-1.9,0.9-2.2
		c-0.2-0.1-0.7,0.5-1,0.4c-0.5-0.1-0.1-0.6,0.1-0.9c0.8-1,1.7-1.9,2.6-2.8v-0.1C178.8,126.2,179,126.6,179.2,126.9z"/>
	<path class="st75" d="M196.1,114.3c0-7-0.7-13.6-5.1-19.4c-1.9-2.4-4-4.3-7-5.2c-1.3-0.4-3.9-1.4-4.9-0.2h0.3
		c-2.1-0.1-4.7,3.2-5.8,4.7c-1.9,2.7-3.3,5.5-4.3,8.7c-1.1,3.8-1.7,7.4-1.8,11.4c-0.1,2.5-0.2,6.2,0.6,8.5c0.9,2.7,4,3.4,6.3,2
		c1.2,2.7,3.9,3.8,6.8,3.1c1.6-0.4,2.9-2.2,4.5-2.4c1.7-0.2,3.1,0.8,5,0.2C196.4,124,196.1,119.3,196.1,114.3z"/>

		<ellipse transform="matrix(0.9928 -0.1195 0.1195 0.9928 -17.9159 21.6247)" class="st77" cx="171.3" cy="160.2" rx="4.5" ry="1.5"/>

		<ellipse transform="matrix(0.1368 -0.9906 0.9906 0.1368 -12.9169 286.5699)" class="st77" cx="158" cy="150.7" rx="1.5" ry="4.5"/>
	<g>
		<path class="st79" d="M187.8,78.6c-0.7-0.9-2.5-2.2-3.5-2.7c-1.2-0.5-2.1,0.1-3.3,0.1c-2.2,0-3.1-0.6-4.4,1.4
			c-1,1.5-1.8,3.5-0.2,5c1.2,1.6,1.3,2.7,2.8,4.2c2,2.1,4.8,2.1,6.9,0.1C188.2,84.9,190,81.3,187.8,78.6z"/>

			<ellipse transform="matrix(9.362838e-002 -0.9956 0.9956 9.362838e-002 79.2876 257.2984)" class="st21" cx="181" cy="85.1" rx="7.3" ry="5.3"/>
		<path class="st79" d="M180.9,77.4c0.4,0.5,0.2,1.5,0.1,2.1c-0.2,0.9-0.4,1.8,0,2.7c0.5,1,1.3,1.4,2.3,1.5c0.7,0,1.1-0.1,1.7,0.5
			c0.3,0.3,0.5,0.8,0.9,1c0.3,0.2,1.1,0.4,0.8-0.3c-0.1-0.2,0.1-0.6,0.2-0.9c0.1-0.6,0.2-1.3,0.2-1.9c-0.1-1.3-1-3.2-2-4
			c-0.7-0.6-1.9-1.3-2.9-1.3c-0.5,0-1,0.3-1.5,0.4"/>
		<path class="st80" d="M176.1,80.1c-0.2,0.5-0.5,2,0.3,2.3c0.7,0.3,1.4-1.4,1.8-1.9c0.5-0.7,1.1-1.6,2-2c0.5-0.2,2.4-1.4,0.7-1.5
			C179.3,77,176.5,78.4,176.1,80.1"/>

			<ellipse transform="matrix(0.5925 -0.8056 0.8056 0.5925 6.5926 184.5963)" class="st21" cx="185.8" cy="85.8" rx="1.6" ry="1.2"/>
	</g>
	<path class="st81" d="M176.8,127.6c-0.1-3,3.9-5.6,5.1-8.3c1.3-2.9,3-6.2,3.3-9.4c0.2-2.3,0.2-5.2-0.5-7.4"/>
	<path class="st81" d="M184.4,127.3c0.6-1.5,2.1-2.5,3.3-3.5c2.8-2.3,4.7-5.5,5.7-8.9s1.2-7.1,0.7-10.7"/>
	<g>
		<path class="st77" d="M174.5,124.8c0,0,0.1-0.3,0.2-0.7c0.1-0.2,0.1-0.5,0.2-0.8c0.1-0.3,0.1-0.7,0.1-1.1c0-0.4,0-0.8,0-1.3
			s-0.1-1-0.1-1.5c-0.1-1-0.3-2.1-0.5-3.2c-0.4-2.2-0.9-4.3-1-6c0-0.4-0.1-0.8,0-1.1c0-0.3,0-0.6,0-0.9c0.1-0.5,0.1-0.8,0.1-0.8h0.2
			c0,0,0,0.3-0.1,0.7c0,0.2,0,0.5,0,0.9c0,0.3,0,0.7,0,1.1c0.1,1.6,0.6,3.8,1,5.9c0.2,1.1,0.4,2.2,0.5,3.2c0,0.5,0.1,1,0.1,1.5
			s0,0.9,0,1.3c0,0.4-0.1,0.8-0.1,1.1s-0.1,0.6-0.2,0.9c-0.1,0.5-0.2,0.7-0.2,0.7L174.5,124.8z"/>
	</g>
</g>
<g>
	<g>
		<path class="st76" d="M135.7,113.1c-0.8,0.5-1.9,1.9-1.9,2.9c0,1.6,1.4,0.8,2.4,0.2c1.8-1,3.2-2.5,4.9-3.7c2.3-1.7,1.6,2,3.1,2.6
			c-0.6,1.4-0.4,4.2-0.5,5.8c-0.1,1.8-0.3,3.5-0.3,5.3c0,3.1,0,6.2,0,9.3c0,1-0.1,1.4-0.4,2c-0.3,0.8-0.9,1.1,0.4,1.5
			c1.7,0.5,3.2-1.1,3.7-2.3c2.1-4.9,4.6-9.6,6.5-14.6c1.6-4,4.6-8.2,4.3-12.7c-0.1-1.8-1.6-4.3-2.7-5.7c-1.8-2.2-4.4-3-7.1-4
			c-2.7-1-5.2-1.9-8.1-1.6c-2,0.2-4,1.1-5.6,2.4c-2.6,1.9-1.8,4.9,0,7.2c0.6,0.8,3.8,4.9,1.6,5.5c0.1-0.2,0.2-0.4,0.2-0.6"/>

			<ellipse transform="matrix(0.9915 -0.1298 0.1298 0.9915 -16.6414 19.4713)" class="st82" cx="141" cy="137.4" rx="4.6" ry="1.8"/>

			<ellipse transform="matrix(0.8184 -0.5746 0.5746 0.8184 -40.009 98.5585)" class="st82" cx="135.9" cy="112.6" rx="4.6" ry="1.8"/>
		<path class="st77" d="M146.1,97.8c-4.5,11.4-6.1,23.9-5,36c0.1,0.8,0.2,1.7,0.6,2.4c0.4,0.7,1.3,1.3,2.1,1.1
			c0.9-0.2,1.4-1.1,1.8-1.9c3.3-6.4,6.6-12.8,9.9-19.2c1.3-2.5,2.5-4.9,3.2-7.6c0.7-2.7,0.8-5.6-0.3-8.1c-1.1-2.6-3.4-4.5-4.9-6.9"
			/>
		<path class="st82" d="M144.9,95.6c-2.9-3.7-7.4-6.1-12.1-6.5c-2.2-0.2-4.7,0.2-6,2c-0.8,1.1-0.9,2.5-0.8,3.8
			c0.2,3.5,1.5,6.9,3.4,9.8c2,2.9,4.5,5.4,7.3,7.5c0.4,0.3,1,0.3,1.4,0s0.7-0.7,0.8-1.2c0.6-1.6,0.1-3.3-0.4-4.9
			c-0.3-0.8-0.5-1.6-0.8-2.4c-0.3-0.8-0.6-1.5-1.3-2c2.1,2.7,4.3,5.3,7.4,6.7c0.7-2.7,1.4-5.5,2.1-8.2c0.2-0.7,0.4-1.5,0.1-2.2
			c-0.3-1-1.5-1.7-1.5-2.7"/>
	</g>
	<g>
		<path class="st78" d="M146,107.3c-0.8,0.4-1.5,0.8-2.3,1.2c-0.2,0.1-0.4,0.2-0.6,0.4c-0.2,0.2-0.2,0.5-0.1,0.7
			c0.2,0.2,1.1-0.2,1.5-0.5c-0.9,0.6-1.8,2.2-1.6,2.7c0.4,0.1,1.3-0.9,1.6-1.5c-0.3,0.8-0.6,1.6-0.8,2.5c0,0.1,0,0.2,0,0.3
			c0.1,0.1,0.3,0,0.5-0.1c0.6-0.6,1.1-1.2,1.5-1.9c0,0.6-0.1,1.1-0.1,1.7c0,0.1,0,0.3,0.1,0.4c0.1,0.1,0.3,0,0.4-0.1
			c0.1-0.1,0.1-0.3,0.2-0.4c0.2-0.6,0.3-1.2,0.5-1.7c0.1,0.4,0.3,0.7,0.5,1.1c0.1,0.1,0.2,0.2,0.3,0.2c0.2,0,0.2-0.2,0.2-0.4
			c0-1.2,0.1-2.4-0.1-3.7c-0.1-0.4-0.2-0.9-0.6-1c-0.2-0.1-0.5,0.1-0.8,0.1s-0.5-0.2-0.4-0.5"/>
		<path class="st79" d="M154.8,78c3.9,6.2,2.8,14.3,0.4,21.2c-1.2,3.5-3,7-6.3,8.7c-1.2,0.6-3,0.8-3.7-0.4c-0.3-0.5-0.3-1.1-0.2-1.6
			c0.3-3.2,2.4-5.9,3.4-8.9c1.3-3.8,0.8-7.9,1-11.8c0.1-1.8,0.4-3.7,1.4-5.2s2.9-2.6,4.7-2.1"/>
		<path class="st78" d="M124.7,88.8c-1.7,0.9-3.1,2.4-3.9,4.1c-0.2,0.5-0.4,1.1-0.3,1.7c0.1,0.1,0.2,0.1,0.3,0.2
			c0.9-0.2,0.7-1.8,1.6-1.9c-0.2,0.5-0.3,1.1-0.3,1.6c0.9-0.5,1.7-1.1,2.3-1.9c0.9-1.1,1.2-2.6,1-4.1"/>
		<path class="st40" d="M141.7,69.4c-1-2.5-0.7-5.6,1.1-7.6s5.1-2.6,7.3-1c1.4,1,2.2,2.7,3.4,4c1.2,1.3,2.9,2.2,4.7,2.4
			c1.5,0.2,3,0,4.4,0.5c1.3,0.5,2.4,1.5,3.1,2.7c1.8,3,1.7,7-0.2,9.9s-5.4,4.7-8.9,4.6c-3.5-0.1-6.8-2.1-8.7-5.1
			c-1.2-1.9-0.8-4.2-1.9-6.2c-0.7-1.4-1.8-2.6-3.1-3.6c-0.6-0.4-1.2-0.8-1.6-1.3"/>
		<path class="st79" d="M145.5,72.9c-1.7,1.4-2.6,3.6-3,5.8s-0.4,4.4-0.8,6.6c-0.3,1.5-0.8,3-1.1,4.6c-0.6,4.2,1.3,8.8,4.7,11.3
			c3.5,2.5,8.3,3,12.2,1.2c1.2-0.6,2.4-1.4,3.1-2.6c0.7-1.1,0.9-2.4,1.1-3.7c0.5-3.5,1.1-7.2,0-10.6c-0.8-2.5-2.4-4.6-4-6.6
			c-1.6-1.9-3.2-3.8-5.4-5c-2.1-1.2-4.8-1.7-7.1-0.6"/>
		<path class="st79" d="M147.2,74.8c-1.1-0.6-2.4-0.4-3.6,0.1c-1.1,0.5-2.1,1.3-3.1,2c-3.8,3-8,5.5-12.3,7.5c-2,0.9-4.2,1.9-5,4
			c-0.2,0.5-0.2,1.2,0,1.7c0.4,0.6,1.1,0.8,1.8,0.8c2.5,0.1,4.8-1.2,7.1-2.1c2.5-1.1,5.2-1.8,7.9-2.1c2.6-0.3,5.6-0.5,7.1-2.5
			c0.6-0.8,0.9-1.8,1.1-2.8c0.4-2.4,0-4.9-1-7c-0.2,0.2-0.4,0.4-0.6,0.6"/>
		<ellipse class="st21" cx="146" cy="68.2" rx="4.5" ry="6.2"/>
		<ellipse transform="matrix(0.5423 -0.8402 0.8402 0.5423 11.6239 157.4782)" class="st21" cx="150.3" cy="68.1" rx="1.4" ry="1"/>
		<path class="st40" d="M153.4,67.6c-1.2,0.4-2.4,0.3-3.6,0.2c-0.8-0.1-1.6-0.1-2.3-0.6c-0.5-0.3-0.9-0.8-1.3-1.4
			c-0.8-1.3-1.1-2.9-0.9-4.4c0.9-0.4,1.8-0.5,2.7-0.1s1.6,1.1,2.3,1.7C151.7,64.3,153,65.7,153.4,67.6"/>
		<path class="st83" d="M145.7,102c2.5-2.4,3-6.2,3-9.7s-0.3-7.1,0.9-10.3"/>
		<path class="st83" d="M153.1,104.4c0.5-1.6,1.4-3.1,2.1-4.6c2.4-5.1,3.4-10.8,2.9-16.4"/>
	</g>
</g>
<g>
	<g>
		<g>
			<path id="SVGID_23_" class="st84" d="M329.3,18.1l5.7,3.3c-0.8-0.5-1.9-0.6-3.1-0.3l-5.7-3.3C327.4,17.5,328.5,17.6,329.3,18.1z"
				/>
		</g>
		<g>
			<defs>
				<path id="SVGID_34_" d="M329.3,18.1l5.7,3.3c-0.8-0.5-1.9-0.6-3.1-0.3l-5.7-3.3C327.4,17.5,328.5,17.6,329.3,18.1z"/>
			</defs>
			<clipPath id="SVGID_36_">
				<use xlink:href="#SVGID_34_"  style="overflow:visible;"/>
			</clipPath>
			<g class="st85">
				<path class="st84" d="M332,21.2l-5.7-3.3c0.2,0,0.4-0.1,0.5-0.1l5.7,3.3C332.3,21.1,332.2,21.1,332,21.2"/>
				<path class="st84" d="M332.5,21l-5.7-3.3c0.2,0,0.3,0,0.5-0.1l5.7,3.3C332.9,21,332.7,21,332.5,21"/>
				<path class="st84" d="M333,21l-5.7-3.3c0.2,0,0.3,0,0.5,0l5.7,3.3C333.3,21,333.2,21,333,21"/>
				<path class="st84" d="M333.5,21l-5.7-3.3c0.1,0,0.3,0,0.4,0l5.7,3.3C333.8,21,333.6,21,333.5,21"/>
				<path class="st84" d="M333.9,21l-5.7-3.3c0.1,0,0.3,0.1,0.4,0.1l5.7,3.3C334.2,21.1,334,21.1,333.9,21"/>
				<path class="st84" d="M334.3,21.1l-5.7-3.3c0.1,0,0.2,0.1,0.4,0.1l5.7,3.3C334.5,21.2,334.4,21.2,334.3,21.1"/>
				<path class="st84" d="M334.7,21.3L329,18c0.1,0.1,0.2,0.1,0.3,0.2l5.7,3.3C334.9,21.4,334.8,21.3,334.7,21.3"/>
				<path class="st84" d="M335,21.4l-5.7-3.3l0,0L335,21.4C335,21.5,335,21.4,335,21.4"/>
			</g>
		</g>
	</g>
	<g>
		<g>
			<path id="SVGID_25_" class="st84" d="M323.4,12.3l5.7,3.3c-1.8-1-4.2-0.9-7,0.7c-0.2,0.1-0.3,0.2-0.5,0.3l-5.7-3.3
				c0.2-0.1,0.3-0.2,0.5-0.3C319.2,11.4,321.7,11.3,323.4,12.3z"/>
		</g>
		<g>
			<defs>
				<path id="SVGID_37_" d="M323.4,12.3l5.7,3.3c-1.8-1-4.2-0.9-7,0.7c-0.2,0.1-0.3,0.2-0.5,0.3l-5.7-3.3c0.2-0.1,0.3-0.2,0.5-0.3
					C319.2,11.4,321.7,11.3,323.4,12.3z"/>
			</defs>
			<clipPath id="SVGID_38_">
				<use xlink:href="#SVGID_37_"  style="overflow:visible;"/>
			</clipPath>
			<g class="st86">
				<path class="st84" d="M321.7,16.7l-5.7-3.3c0.2-0.1,0.3-0.2,0.5-0.3c0.5-0.3,0.9-0.5,1.4-0.7l5.7,3.3c-0.4,0.2-0.9,0.4-1.4,0.7
					C322,16.4,321.9,16.5,321.7,16.7"/>
				<path class="st84" d="M323.6,15.6l-5.7-3.3c0.4-0.2,0.8-0.3,1.1-0.4l5.7,3.3C324.4,15.4,324,15.5,323.6,15.6"/>
				<path class="st84" d="M324.7,15.3L319,12c0.3-0.1,0.6-0.1,0.9-0.2l5.7,3.3C325.3,15.1,325,15.2,324.7,15.3"/>
				<path class="st84" d="M325.6,15.1l-5.7-3.3c0.2,0,0.5-0.1,0.7-0.1l5.7,3.3C326.1,15,325.8,15,325.6,15.1"/>
				<path class="st84" d="M326.3,15l-5.7-3.3c0.2,0,0.4,0,0.6,0l5.7,3.3C326.8,15,326.5,15,326.3,15"/>
				<path class="st84" d="M327,15l-5.7-3.3c0.2,0,0.4,0,0.6,0.1l5.7,3.3C327.4,15,327.2,15,327,15"/>
				<path class="st84" d="M327.6,15.1l-5.7-3.3c0.2,0,0.4,0.1,0.5,0.1l5.7,3.3C327.9,15.1,327.7,15.1,327.6,15.1"/>
				<path class="st84" d="M328.1,15.2l-5.7-3.3c0.2,0.1,0.3,0.1,0.5,0.2l5.7,3.3C328.4,15.3,328.3,15.2,328.1,15.2"/>
				<path class="st84" d="M328.6,15.4l-5.7-3.3c0.2,0.1,0.3,0.2,0.5,0.2l5.7,3.3C329,15.5,328.8,15.5,328.6,15.4"/>
				<path class="st84" d="M329.1,15.6l-5.7-3.3c0,0,0,0,0.1,0L329.1,15.6L329.1,15.6"/>
			</g>
		</g>
	</g>
	<g>
		<g>
			<path id="SVGID_27_" class="st84" d="M313,10l5.7,3.3c-2.6-1.5-6.1-1.3-10,1L303,11C306.9,8.7,310.5,8.5,313,10z"/>
		</g>
		<g>
			<defs>
				<path id="SVGID_39_" d="M313,10l5.7,3.3c-2.6-1.5-6.1-1.3-10,1L303,11C306.9,8.7,310.5,8.5,313,10z"/>
			</defs>
			<clipPath id="SVGID_40_">
				<use xlink:href="#SVGID_39_"  style="overflow:visible;"/>
			</clipPath>
			<g class="st87">
				<path class="st84" d="M308.8,14.3l-5.7-3.3c0.7-0.4,1.3-0.7,2-1l5.7,3.3C310.1,13.6,309.4,13.9,308.8,14.3"/>
				<path class="st84" d="M310.7,13.3L305,10c0.6-0.2,1.1-0.4,1.6-0.6l5.7,3.3C311.8,12.9,311.3,13.1,310.7,13.3"/>
				<path class="st84" d="M312.4,12.8l-5.7-3.3c0.4-0.1,0.8-0.2,1.2-0.3l5.7,3.3C313.2,12.6,312.8,12.7,312.4,12.8"/>
				<path class="st84" d="M313.6,12.5l-5.7-3.3c0.4-0.1,0.7-0.1,1-0.1l5.7,3.3C314.3,12.4,314,12.5,313.6,12.5"/>
				<path class="st84" d="M314.7,12.4L309,9.1c0.3,0,0.6,0,0.9,0l5.7,3.3C315.3,12.4,315,12.4,314.7,12.4"/>
				<path class="st84" d="M315.6,12.4l-5.7-3.3c0.3,0,0.6,0.1,0.8,0.1l5.7,3.3C316.2,12.5,315.9,12.4,315.6,12.4"/>
				<path class="st84" d="M316.4,12.5l-5.7-3.3c0.3,0,0.5,0.1,0.8,0.2l5.7,3.3C317,12.6,316.7,12.6,316.4,12.5"/>
				<path class="st84" d="M317.2,12.7l-5.7-3.3c0.3,0.1,0.5,0.2,0.7,0.3l5.7,3.3C317.7,12.9,317.5,12.8,317.2,12.7"/>
				<path class="st84" d="M318,13l-5.7-3.3c0.2,0.1,0.5,0.2,0.7,0.3l5.7,3.3C318.4,13.2,318.2,13.1,318,13"/>
				<path class="st84" d="M318.7,13.3L313,10h0.1L318.7,13.3L318.7,13.3"/>
			</g>
		</g>
	</g>
	<g>
		<g>
			<path id="SVGID_29_" class="st84" d="M282.6,63.1l-5.7-3.3c-1.2-0.7-2-2.3-2-4.4l5.7,3.3C280.6,60.9,281.4,62.4,282.6,63.1z"/>
		</g>
		<g>
			<defs>
				<path id="SVGID_41_" d="M282.6,63.1l-5.7-3.3c-1.2-0.7-2-2.3-2-4.4l5.7,3.3C280.6,60.9,281.4,62.4,282.6,63.1z"/>
			</defs>
			<clipPath id="SVGID_42_">
				<use xlink:href="#SVGID_41_"  style="overflow:visible;"/>
			</clipPath>
			<g class="st88">
				<path class="st84" d="M282.6,63.1l-5.7-3.3c-1.2-0.7-2-2.3-2-4.4l5.7,3.3C280.6,60.9,281.4,62.4,282.6,63.1"/>
			</g>
		</g>
	</g>
	<g>
		<polygon class="st84" points="280.6,58.7 274.9,55.4 274.9,55.1 280.6,58.5 		"/>
	</g>
	<g>
		<g>
			<path id="SVGID_31_" class="st84" d="M295.9,31.6l-5.7-3.3c2.1-7,7.1-13.9,12.9-17.2l5.7,3.3C303,17.7,298,24.6,295.9,31.6z"/>
		</g>
		<g>
			<defs>
				<path id="SVGID_43_" d="M295.9,31.6l-5.7-3.3c2.1-7,7.1-13.9,12.9-17.2l5.7,3.3C303,17.7,298,24.6,295.9,31.6z"/>
			</defs>
			<clipPath id="SVGID_44_">
				<use xlink:href="#SVGID_43_"  style="overflow:visible;"/>
			</clipPath>
			<g class="st89">
				<path class="st84" d="M295.9,31.6l-5.7-3.3c0.1-0.2,0.2-0.5,0.2-0.7l5.7,3.3C296,31.1,295.9,31.3,295.9,31.6"/>
				<path class="st84" d="M296.1,30.8l-5.7-3.3c0.1-0.4,0.3-0.9,0.5-1.3l5.7,3.3C296.4,29.9,296.3,30.4,296.1,30.8"/>
				<path class="st84" d="M296.6,29.5l-5.7-3.3c0.2-0.4,0.3-0.8,0.5-1.3l5.7,3.3C296.9,28.7,296.7,29.1,296.6,29.5"/>
				<path class="st84" d="M297.1,28.2l-5.7-3.3c0.2-0.4,0.4-0.8,0.6-1.2l5.7,3.3C297.5,27.4,297.3,27.8,297.1,28.2"/>
				<path class="st84" d="M297.7,27l-5.7-3.3c0.2-0.4,0.4-0.8,0.6-1.2l5.7,3.3C298.1,26.2,297.9,26.6,297.7,27"/>
				<path class="st84" d="M298.3,25.8l-5.7-3.3c0.2-0.4,0.4-0.8,0.7-1.2l5.7,3.3C298.7,25,298.5,25.4,298.3,25.8"/>
				<path class="st84" d="M298.9,24.6l-5.7-3.3c0.2-0.4,0.5-0.8,0.7-1.2l5.7,3.3C299.4,23.8,299.2,24.2,298.9,24.6"/>
				<path class="st84" d="M299.6,23.5l-5.7-3.3c0.3-0.4,0.5-0.8,0.8-1.2l5.7,3.3C300.2,22.6,299.9,23,299.6,23.5"/>
				<path class="st84" d="M300.5,22.2l-5.7-3.3c0.3-0.4,0.6-0.9,0.9-1.3l5.7,3.3C301.1,21.4,300.8,21.8,300.5,22.2"/>
				<path class="st84" d="M301.4,21l-5.7-3.3c0.4-0.5,0.7-0.9,1.1-1.4l5.7,3.3C302.1,20,301.8,20.5,301.4,21"/>
				<path class="st84" d="M302.5,19.6l-5.7-3.3c0.5-0.6,1-1.1,1.5-1.6L304,18C303.5,18.5,303,19,302.5,19.6"/>
				<path class="st84" d="M304.1,18l-5.7-3.3c1.5-1.4,3.1-2.7,4.7-3.6l5.7,3.3C307.1,15.3,305.5,16.5,304.1,18"/>
			</g>
		</g>
	</g>
	<g>
		<g>
			<path id="SVGID_33_" class="st84" d="M280.6,58.5l-5.7-3.3c0-3.6,2.1-7.9,5-10.6l5.7,3.3C282.7,50.5,280.6,54.8,280.6,58.5z"/>
		</g>
		<g>
			<defs>
				<path id="SVGID_45_" d="M280.6,58.5l-5.7-3.3c0-3.6,2.1-7.9,5-10.6l5.7,3.3C282.7,50.5,280.6,54.8,280.6,58.5z"/>
			</defs>
			<clipPath id="SVGID_46_">
				<use xlink:href="#SVGID_45_"  style="overflow:visible;"/>
			</clipPath>
			<g class="st90">
				<path class="st84" d="M280.6,58.5l-5.7-3.3c0-0.4,0-0.9,0.1-1.3l5.7,3.3C280.6,57.6,280.6,58,280.6,58.5"/>
				<path class="st84" d="M280.7,57.1l-5.7-3.3c0-0.3,0.1-0.6,0.2-1l5.7,3.3C280.8,56.5,280.7,56.8,280.7,57.1"/>
				<path class="st84" d="M280.9,56.2l-5.7-3.3c0.1-0.3,0.1-0.5,0.2-0.8l5.7,3.3C281,55.7,280.9,55.9,280.9,56.2"/>
				<path class="st84" d="M281.1,55.4l-5.7-3.3c0.1-0.2,0.1-0.5,0.2-0.7l5.7,3.3C281.2,54.9,281.1,55.2,281.1,55.4"/>
				<path class="st84" d="M281.3,54.7l-5.7-3.3c0.1-0.2,0.2-0.4,0.2-0.7l5.7,3.3C281.4,54.3,281.3,54.5,281.3,54.7"/>
				<path class="st84" d="M281.5,54l-5.7-3.3c0.1-0.2,0.2-0.4,0.3-0.6l5.7,3.3C281.7,53.6,281.6,53.8,281.5,54"/>
				<path class="st84" d="M281.8,53.4l-5.7-3.3c0.1-0.2,0.2-0.4,0.3-0.6l5.7,3.3C281.9,53,281.8,53.2,281.8,53.4"/>
				<path class="st84" d="M282,52.8l-5.7-3.3c0.1-0.2,0.2-0.4,0.3-0.6l5.7,3.3C282.2,52.4,282.1,52.6,282,52.8"/>
				<path class="st84" d="M282.3,52.2l-5.7-3.3c0.1-0.2,0.2-0.4,0.3-0.6l5.7,3.3C282.5,51.8,282.4,52,282.3,52.2"/>
				<path class="st84" d="M282.7,51.6l-5.7-3.3c0.1-0.2,0.2-0.4,0.4-0.6l5.7,3.3C282.9,51.2,282.8,51.4,282.7,51.6"/>
				<path class="st84" d="M283,51l-5.7-3.3c0.1-0.2,0.3-0.4,0.4-0.6l5.7,3.3C283.3,50.6,283.1,50.8,283,51"/>
				<path class="st84" d="M283.4,50.4l-5.7-3.3c0.1-0.2,0.3-0.4,0.5-0.6l5.7,3.3C283.7,50,283.6,50.2,283.4,50.4"/>
				<path class="st84" d="M283.9,49.8l-5.7-3.3c0.2-0.2,0.4-0.5,0.6-0.7l5.7,3.3C284.3,49.4,284.1,49.6,283.9,49.8"/>
				<path class="st84" d="M284.4,49.1l-5.7-3.3c0.2-0.3,0.5-0.5,0.7-0.8l5.7,3.3C284.9,48.6,284.7,48.9,284.4,49.1"/>
				<path class="st84" d="M285.2,48.3l-5.7-3.3c0.1-0.1,0.3-0.3,0.5-0.4l5.7,3.3C285.5,48.1,285.3,48.2,285.2,48.3"/>
			</g>
		</g>
	</g>
	<g>
		<path class="st21" d="M308.8,14.3c5.8-3.3,10.8-2.2,12.9,2.3c0.2-0.1,0.3-0.2,0.5-0.3c5.2-3,9.4-0.8,9.8,4.8
			c2.9-0.7,5.1,1.1,5.1,4.7V26c0,4.4-3.1,9.7-6.9,11.9l-42.7,24.7c-3.8,2.2-6.9,0.4-6.9-3.9v-0.2c0-3.6,2.1-7.9,5-10.6
			c0.3-6,4.6-13.1,9.7-16.1c0.2-0.1,0.3-0.2,0.5-0.3C298,24.6,303,17.7,308.8,14.3z"/>
	</g>
	<g>
		<g>
			<path id="SVGID_35_" class="st84" d="M285.6,47.9l-5.7-3.3c0.3-6,4.6-13.1,9.7-16.1c0.2-0.1,0.3-0.2,0.5-0.3l5.7,3.3
				c-0.2,0.1-0.3,0.2-0.5,0.3C290.2,34.8,286,41.9,285.6,47.9z"/>
		</g>
		<g>
			<defs>
				<path id="SVGID_47_" d="M285.6,47.9l-5.7-3.3c0.3-6,4.6-13.1,9.7-16.1c0.2-0.1,0.3-0.2,0.5-0.3l5.7,3.3
					c-0.2,0.1-0.3,0.2-0.5,0.3C290.2,34.8,286,41.9,285.6,47.9z"/>
			</defs>
			<clipPath id="SVGID_48_">
				<use xlink:href="#SVGID_47_"  style="overflow:visible;"/>
			</clipPath>
			<g class="st91">
				<path class="st84" d="M285.6,47.9l-5.7-3.3c0-0.4,0.1-0.7,0.1-1.1l5.7,3.3C285.7,47.2,285.7,47.6,285.6,47.9"/>
				<path class="st84" d="M285.7,46.8l-5.7-3.3c0.1-0.5,0.1-0.9,0.2-1.4l5.7,3.3C285.9,45.9,285.8,46.4,285.7,46.8"/>
				<path class="st84" d="M286,45.5l-5.7-3.3c0.1-0.4,0.2-0.8,0.3-1.1l5.7,3.3C286.2,44.7,286.1,45.1,286,45.5"/>
				<path class="st84" d="M286.3,44.3l-5.7-3.3c0.1-0.3,0.2-0.7,0.3-1l5.7,3.3C286.5,43.7,286.3,44,286.3,44.3"/>
				<path class="st84" d="M286.6,43.3l-5.7-3.3c0.1-0.3,0.2-0.6,0.3-0.9l5.7,3.3C286.8,42.7,286.7,43,286.6,43.3"/>
				<path class="st84" d="M286.9,42.4l-5.7-3.3c0.1-0.3,0.2-0.6,0.4-0.9l5.7,3.3C287.1,41.8,287,42.1,286.9,42.4"/>
				<path class="st84" d="M287.3,41.5l-5.7-3.3c0.1-0.3,0.3-0.6,0.4-0.8l5.7,3.3C287.5,41,287.4,41.2,287.3,41.5"/>
				<path class="st84" d="M287.6,40.7l-5.7-3.3c0.1-0.3,0.3-0.6,0.4-0.8l5.7,3.3C287.9,40.1,287.8,40.4,287.6,40.7"/>
				<path class="st84" d="M288.1,39.8l-5.7-3.3c0.1-0.3,0.3-0.6,0.5-0.8l5.7,3.3C288.4,39.3,288.2,39.6,288.1,39.8"/>
				<path class="st84" d="M288.5,39l-5.7-3.3c0.2-0.3,0.3-0.6,0.5-0.8l5.7,3.3C288.9,38.5,288.7,38.7,288.5,39"/>
				<path class="st84" d="M289,38.2l-5.7-3.3c0.2-0.3,0.4-0.6,0.6-0.8l5.7,3.3C289.4,37.6,289.2,37.9,289,38.2"/>
				<path class="st84" d="M289.6,37.3l-5.7-3.3c0.2-0.3,0.4-0.6,0.7-0.9l5.7,3.3C290,36.7,289.8,37,289.6,37.3"/>
				<path class="st84" d="M290.3,36.5l-5.7-3.3c0.3-0.3,0.5-0.6,0.8-0.9l5.7,3.3C290.8,35.8,290.5,36.1,290.3,36.5"/>
				<path class="st84" d="M291,35.5l-5.7-3.3c0.3-0.4,0.7-0.8,1.1-1.2l5.7,3.3C291.7,34.7,291.4,35.1,291,35.5"/>
				<path class="st84" d="M292.1,34.3l-5.7-3.3c1-1,2.1-1.9,3.3-2.5c0.2-0.1,0.3-0.2,0.5-0.3l5.7,3.3c-0.2,0.1-0.3,0.2-0.5,0.3
					C294.2,32.5,293.1,33.3,292.1,34.3"/>
			</g>
		</g>
	</g>
</g>
<g>

		<ellipse transform="matrix(0.9499 -0.3126 0.3126 0.9499 -102.0046 30.5737)" class="st76" cx="44.4" cy="333.4" rx="26.6" ry="6.3"/>
	<g>
		<polygon class="st40" points="23.8,301.6 20.7,299.8 20.7,285.4 23.7,287.2 		"/>
	</g>
	<g>
		<polygon class="st40" points="23.7,287.2 20.7,285.4 38.8,275 41.8,276.7 		"/>
	</g>
	<g>
		<polygon class="st92" points="41.8,276.7 41.9,291.2 23.8,301.6 23.7,287.2 		"/>
	</g>
	<path class="st93" d="M35.7,278.6c-0.2,0-0.6-1.3-2.7-0.5"/>
	<path class="st94" d="M59.8,267.1c5,6.6,7.4,15,7.8,23.3s-0.9,20.5-2.7,28.7c-0.5,2.3-1.1,4.8-2.8,6.5s-4.9,2-6.3,0
		c-0.8-1.1-0.7-2.5-0.7-3.9c0.2-7-0.3-18-1.2-25c-0.3-2-0.3-3.8-1.8-5.1c-0.2,10.6-5.1,21-13.1,27.9c-2.2,1.9-5.5,3.7-7.9,2.1
		c-2.1-1.3-2.3-4.4-1.4-6.8c0.9-2.3,2.7-4.2,4.1-6.2c5-7.7,3.7-17.6,3.7-26.8c0-5.3,1.2-11.4,5.8-13.9c1,0.3,2-0.5,3.1-0.7
		c4.4-0.8,9-0.9,13.5-0.4"/>

		<ellipse transform="matrix(0.9378 -0.3472 0.3472 0.9378 -76.3535 32.0206)" class="st95" cx="51.2" cy="229.1" rx="5.9" ry="8.1"/>
	<path class="st95" d="M73.5,228.3c0.6-0.8,0.7-1.9,0.4-2.9c-0.3-1-1-1.8-1.8-2.4c-0.6-0.5-1.4-0.8-2.2-0.7c-0.2,0-0.4,0.1-0.6,0.3
		c-0.3,0.2-0.4,0.6-0.5,0.9c-0.2,1.1,0,2.3,0.4,3.3c0.2,0.4,0.4,0.9,0.7,1.2c0.5,0.5,1.2,0.8,1.9,0.8
		C72.6,228.8,73.1,228.6,73.5,228.3"/>
	<g>

			<rect x="65.5" y="220.4" transform="matrix(0.1286 -0.9917 0.9917 0.1286 -160.3418 264.0343)" class="st94" width="9.1" height="5.8"/>

			<rect x="66.4" y="220.9" transform="matrix(0.1287 -0.9917 0.9917 0.1287 -160.2227 263.8595)" class="st75" width="7.2" height="4.4"/>
	</g>
	<path class="st95" d="M73.2,226c-0.6-0.6-1.4-1-2-1.6c-0.2-0.2-0.5-0.5-0.8-0.4c-0.2,0.1-0.3,0.3-0.2,0.5c0,0.2,0.2,0.4,0.3,0.6
		c0.4,0.6,0.8,1.3,1,2c0.2,0.6,0.3,1.3,0.8,1.7c0.6,0.3,1.3,0,1.6-0.5C74.3,227.5,73.9,226.5,73.2,226z"/>
	<path class="st95" d="M30.4,275c-0.3,0.7-0.7,1.4-1,2.2c-0.3,0.6-0.6,1.3-0.4,2c0.2,0.5,0.6,0.8,1.1,0.9s1,0.1,1.5,0.1
		c0.9,0,1.8-0.2,2.3-0.9c0.4-0.7,0.1-1.7-0.3-2.4c-0.5-0.9-1.2-1.8-1.9-2.6c-0.1-0.1-0.2-0.2-0.4-0.2c-0.5-0.1-0.7,0.5-1.1,0.8"/>
	<path d="M51.8,254.2c6.6,1.6,14-0.5,18.7-5.4c4.7-4.9,6.5-12.4,4.6-19c-0.2-0.6-0.4-1.1-0.8-1.5
		c-0.8-0.8-2.2-0.6-3.1,0.2c-0.9,0.7-1.3,1.8-1.7,2.9c-1,2.8-2,5.9-4.5,7.5c-2.1,1.4-4.9,1.3-7.4,0.8s-5-1.3-7.5-1.2
		c-2.6,0.1-5.1,1.2-6.9,3.1c-0.1,4.7,2.3,9,5.9,12c0.8,0.7,1.8,1.3,2.8,1.1"/>
	<path d="M42.6,241.6c-3.2,4.4-6.4,8.7-8.9,13.6c-2.5,4.8-4.7,12.6-4.5,18c0,0.8,0.1,1.7,0.5,2.4
		c0.4,0.7,1.2,1.3,2.1,1.2c0.6-0.1,1.1-0.5,1.5-1c3-3.3,4.1-10.9,7.6-13.6c1.7-1.4,4-2.1,5.3-3.9c0.6-0.9,0.9-2,1.1-3.1
		c0.7-4.9-1.4-9.7-4.2-13.7"/>
	<path d="M61.7,251c-3.1-5.6-9-9.7-15.3-10c-0.8,0-1.6,0-2.3,0.2c-0.9,0.3-1.7,0.9-2.2,1.7c-1.4,1.8-1.7,4.2-1.5,6.4
		c0.2,2.2,0.8,4.4,1.1,6.6c0.8,5.1,0.2,10.4-1.7,15.2c6.7-2.3,13.4,0.8,20.4,1c0.7,0,1.4,0,2-0.3c0.8-0.5,1.1-1.4,1.4-2.3
		C65.3,263.4,64.8,256.6,61.7,251z"/>
	<path class="st96" d="M53.2,229.3c1.8-3.3,3-7.7,0.5-10.4c-1.4-1.6-3.9-2.2-6-1.7s-3.9,1.9-5.3,3.6c-1.7,2.1-2.9,4.9-2.1,7.5
		c0.3,1.1,1,2.1,1,3.2c0.2,2.9-3.2,4.5-5.7,5.9c-4.7,2.7-8.3,8.5-6.4,13.7c0.9,2.4,2.7,4.3,4.9,5.7c4.3,2.8,10,3.6,14.6,1.3
		c4.6-2.3,7.5-7.9,6-12.7c-0.9-3-3.4-6.2-2-9c0.5-0.9,1.3-1.7,1.8-2.6c1-1.8,0.3-4.4-1.5-5.4"/>

		<ellipse transform="matrix(0.9958 -9.151454e-002 9.151454e-002 0.9958 -29.5578 3.9839)" class="st94" cx="28.7" cy="324.3" rx="2.4" ry="7.8"/>

		<ellipse transform="matrix(0.9726 -0.2326 0.2326 0.9726 -74.4743 23.3835)" class="st94" cx="61.9" cy="327.5" rx="6.1" ry="2.4"/>
	<path class="st93" d="M28.6,282.1c0.1-0.1,0.3-1.9,2.3-3"/>
</g>
<g>
	<path class="st78" d="M357.6,151.9c0.2,1.1,0.3,2.2,0.5,3.3c0.1,0.6,0.2,1.2,0,1.8c0,0.1-0.1,0.2-0.1,0.2c-0.1,0-0.2,0-0.3-0.1
		c-0.3-0.3-0.5-0.7-0.7-1.1c-0.2,0.8-0.5,1.7-0.7,2.5c0,0.2-0.1,0.3-0.2,0.4c-0.1,0.1-0.3,0.1-0.4,0c0-0.1-0.1-0.2-0.1-0.2
		c0-0.6,0.2-1.5,0.3-2.1c-0.5,0.8-1,2.6-1.5,2.5c-0.6-0.4,0-1.8,0.3-2.7c-0.2,0.3-0.6,0.8-0.9,1.1c-0.1,0.1-0.2,0.2-0.3,0.1
		c-0.2-0.1-0.2-0.3-0.1-0.5c0.1-0.5,0.4-1.1,0.6-1.5c-0.3,0.4-1.3,1.1-1.6,1c-0.1-0.2,0.3-0.7,0.4-0.9c0.9-1.4,1.8-2.6,2.9-3.8
		c0.7-0.2,1.2-0.2,1.9-0.1"/>
	<path class="st97" d="M372.7,128.2c-0.1-0.8-1.3-0.7-2-0.4c-3.7,1.7-6.8,4.7-9.2,8c-2.4,3.3-4.2,7-6,10.7c-0.5,1-1,2-1.1,3.1
		s0.2,2.3,1.1,2.9c1.1,0.8,2.6,0.5,3.7-0.3s1.8-1.9,2.6-3c1.8-2.4,4-4.4,6.5-6c1.8-1.2,4-2.3,4.8-4.3c0.3-0.7,0.3-1.4,0.4-2.1
		c0.2-3.1-0.2-6.3-1.2-9.3"/>

		<ellipse transform="matrix(0.5385 -0.8426 0.8426 0.5385 13.1231 397.4635)" class="st76" cx="369.4" cy="186.8" rx="6.2" ry="23.2"/>
	<path class="st78" d="M392.5,149.8c1.1-0.1,2.2-0.3,3.3-0.4c0.6-0.1,1.2-0.2,1.8,0c0.1,0,0.2,0.1,0.2,0.1c0,0.1,0,0.2-0.1,0.3
		c-0.3,0.3-0.7,0.5-1.1,0.7c0.8,0.2,1.7,0.5,2.5,0.7c0.2,0,0.3,0.1,0.4,0.2c0.1,0.1,0.1,0.3,0,0.4c-0.1,0-0.2,0-0.2,0
		c-0.6,0-1.5-0.3-2.1-0.4c0.7,0.5,2.5,1.1,2.5,1.6c-0.4,0.6-1.8,0-2.7-0.3c0.3,0.3,0.8,0.7,1,1c0.1,0.1,0.2,0.2,0.1,0.3
		c-0.1,0.2-0.3,0.2-0.5,0.1c-0.5-0.1-1.1-0.4-1.5-0.7c0.3,0.3,1.1,1.3,0.9,1.6c-0.2,0.1-0.7-0.3-0.9-0.5c-1.3-0.9-2.6-1.9-3.7-3
		c-0.2-0.7-0.2-1.2-0.1-1.9"/>
	<path class="st74" d="M380,150.4c8.4,11.1,10.1,26.3,7,39.9c-0.4,1.7-1,3.6-2.7,4.1c-1.6,0.6-3.4-0.6-4.2-2.2
		c-0.8-1.5-0.8-3.3-0.8-5c-0.2-8-2-15.3-5-22.7c-3.3,4.9-8.4,8.3-13.9,10.7c-4.2,1.8-9.2,3-13.4,1.1c-1.1-0.5-2.2-1.3-2.7-2.4
		c-0.5-1.1-0.2-2.7,0.8-3.3c0.6-0.4,1.4-0.3,2.1-0.4c3.5-0.2,6.8-2.2,9.4-4.6c2.6-2.4,4.7-5.3,7.1-7.9c1.7-1.9,3.5-3.7,5.5-5.3
		C372.2,150.1,376.3,150.2,380,150.4"/>
	<path class="st97" d="M377.6,127.7c3.4,0.4,6,3.3,7.5,6.4c1.5,3.1,2.4,6.5,4.4,9.2c1.4,2,3.5,3.7,4.4,6c0.3,0.8,0.5,1.8-0.1,2.5
		c-0.7,0.8-2,0.6-2.9,0.2c-8.4-2.9-14.6-11.4-14.6-20.3c0-0.8,0-1.6,0.4-2.3s1.1-1.3,1.9-1.3c-0.1-0.3-0.2-0.6-0.3-0.9"/>
	<path class="st97" d="M376.3,127c-4.9-0.3-9.8,3.3-10.9,8c-0.7,3-0.2,6.2-0.7,9.2c-0.2,1.4-0.7,2.8-0.7,4.2c0,2.2,1.2,4.3,2.8,5.7
		c3.2,2.9,8.1,3.7,12.1,1.9c3.9-1.8,6.5-6.1,6.3-10.5c-0.1-2.2-0.9-4.3-1.3-6.4c-0.5-2.7-0.5-5.5-1.5-8s-3.5-4.8-6.2-4.3
		c-0.2,0-0.5,0.1-0.7-0.1c-0.2-0.2,0-0.6,0.2-0.4"/>
	<path class="st96" d="M379.2,112.1c-2-1.6-6-1.7-8.3-0.6c-1.3,0.6-2.4,1.7-3.8,1.6c-1.8-0.1-2.9-1.8-4.4-2.9
		c-2.6-2-6.6-1.6-9.2,0.5c-2.5,2.1-3.7,5.6-3.6,8.9c0.1,3,1.3,6.1,3.5,8.2c2.2,2.1,5.5,3.1,8.4,2.3c2.2-0.6,4.1-2.1,6.1-3.3
		s4.4-2.1,6.6-1.3c0.5,0.2,1,0.4,1.5,0.2c0.4-0.1,0.6-0.5,0.7-0.8c1.3-2.4,3.2-3.3,4.5-5.7C382.5,116.7,381.2,113.6,379.2,112.1z"/>
	<ellipse class="st21" cx="376.4" cy="120.5" rx="5.1" ry="7"/>
	<path class="st96" d="M376.4,112.8c0.7,0.8,0.4,2.3-0.6,2.7c-0.3,0.1-0.7,0.2-1,0.4c-0.4,0.5-0.1,1.2-0.2,1.8s-0.7,1-1.3,1.2
		c-0.6,0.2-1.2,0.3-1.7,0.6c-1.1,0.7-1.4,2.2-1.6,3.6c0,0.2-0.4-0.3-0.6-0.4c-0.2-0.1-0.3-0.3-0.3-0.5c-0.6-1.3-0.6-2.7-0.2-4.1
		c0.4-1.3,1.3-2.5,2.4-3.3C372.8,113.8,374.7,113.2,376.4,112.8"/>
	<path class="st96" d="M376.8,112.7c1.6,0,3.1,0.9,4,2.2s1.1,3,0.6,4.5c-0.2-0.3-0.2-0.9-0.6-1.1c-0.2-0.1-0.5-0.1-0.8-0.2
		c-0.6-0.4-0.1-1.5-0.5-2c-0.2-0.2-0.5-0.3-0.8-0.4C377.6,115.3,376.8,114,376.8,112.7"/>
	<ellipse transform="matrix(0.5478 -0.8366 0.8366 0.5478 9.7977 410.7478)" class="st74" cx="384.9" cy="196.3" rx="1.6" ry="5"/>

		<ellipse transform="matrix(0.1249 -0.9922 0.9922 0.1249 126.5507 495.3505)" class="st74" cx="344.1" cy="175.9" rx="5" ry="1.6"/>

		<ellipse transform="matrix(0.6678 -0.7443 0.7443 0.6678 32.6523 316.6898)" class="st21" cx="371.1" cy="121.8" rx="0.9" ry="1.3"/>
	<g>
		<path d="M364.2,146.6c0,0,0.5-0.6,1.4-1.5s2.1-1.9,3.2-3c0.6-0.6,1.1-1.2,1.5-1.8c0.2-0.3,0.4-0.6,0.6-0.9
			c0.2-0.3,0.3-0.6,0.4-0.9c0.1-0.3,0.2-0.5,0.3-0.8c0.1-0.2,0.1-0.4,0.2-0.6c0.1-0.3,0.1-0.5,0.1-0.5h0.2c0,0,0,0.2-0.1,0.6
			c0,0.2-0.1,0.4-0.2,0.6c-0.1,0.2-0.2,0.5-0.3,0.8c-0.1,0.3-0.3,0.6-0.5,0.9c-0.2,0.3-0.4,0.6-0.6,0.9c-0.5,0.6-1,1.2-1.6,1.8
			c-1.2,1.1-2.4,2.2-3.3,3C364.8,146,364.3,146.7,364.2,146.6L364.2,146.6z"/>
	</g>
</g>
</svg>
