<?xml version="1.0" encoding="utf-8"?>
<!-- Generator: Adobe Illustrator 25.2.1, SVG Export Plug-In . SVG Version: 6.00 Build 0)  -->
<svg version="1.1" xmlns="http://www.w3.org/2000/svg" xmlns:xlink="http://www.w3.org/1999/xlink" x="0px" y="0px"
	 viewBox="0 0 24 24" style="enable-background:new 0 0 24 24;" xml:space="preserve">
<path d="M21,7V3h-4v1H7V3H3v4h1v10H3v4h4v-1h10v1h4v-4h-1V7H21 M18,4h2v2h-2V4 M4,4h2v2H4V4 M6,20H4v-2h2V20 M20,20h-2v-2h2V20
	 M18,17h-1v1H7v-1H6V7h1V6h10v1h1V17 M16,8v2h-3v6h-2v-6H8V8H16z"/>
</svg>
