<?xml version="1.0" encoding="utf-8"?>
<!-- Generator: Adobe Illustrator 23.0.3, SVG Export Plug-In . SVG Version: 6.00 Build 0)  -->
<svg version="1.1" id="Layer_1" xmlns="http://www.w3.org/2000/svg" xmlns:xlink="http://www.w3.org/1999/xlink" x="0px" y="0px"
	 viewBox="0 0 36 36" style="enable-background:new 0 0 36 36;" xml:space="preserve">
<style type="text/css">
	.st0{display:none;}
	.st1{display:inline;fill:#2B2B2B;}
	.st2{fill:#2B2B2B;}
</style>
<g class="st0">
	<path class="st1" d="M11,11.3L22.2,0.1v35.8L11,24.8H2V11.5h9V11.3z M30.9,23.4c-1,1.6-2.4,2.8-4.2,3.6V9.1c1.8,0.8,3.2,2,4.2,3.6
		s1.6,3.4,1.6,5.4C32.3,20,31.9,21.8,30.9,23.4z"/>
</g>
<g class="st0">
	<path class="st1" d="M33.6,29.1v1.8H2.8v-1.8l3.4-3.4V15.4c0-2.7,0.8-5.1,2.4-7.2s3.6-3.5,6.1-4.3V3.4c0-0.9,0.3-1.7,1-2.4
		c0.7-0.7,1.5-1,2.4-1s1.8,0.3,2.4,1c0.7,0.7,1,1.5,1,2.4V4c2.5,0.7,4.6,2.2,6.1,4.3c1.6,2.1,2.4,4.5,2.4,7.2v10.3L33.6,29.1z
		 M21.6,32.5c0,1-0.3,1.8-1,2.4c-0.7,0.7-1.5,1-2.4,1s-1.8-0.3-2.4-1c-0.7-0.7-1-1.5-1-2.4H21.6z"/>
</g>
<g class="st0">
	<path class="st1" d="M25.2,31.3H0.1v-3.5L0.2,27c0.1-0.6,0.3-1.2,0.7-1.8C1.4,24.4,2,23.6,2.8,23c1-0.7,2.2-1.3,3.7-1.8
		c1.7-0.5,3.8-0.8,6.1-0.8c3.7,0,6.6,0.6,8.8,1.8c1.6,0.9,2.7,2.1,3.3,3.5c0.3,0.7,0.4,1.3,0.4,1.8v3.8H25.2z M18.9,10.7
		c0-1.3-0.4-2.5-1.1-3.5S16.1,5.4,15,4.9s-2.4-0.6-3.6-0.4S9.1,5.3,8.2,6.2s-1.5,2-1.7,3.2S6.4,11.9,6.9,13s1.3,2.1,2.3,2.8
		s2.2,1.1,3.5,1.1c1.7,0,3.2-0.6,4.5-1.8C18.3,13.9,18.9,12.4,18.9,10.7z M23.4,4.4c-1.3,0-2.4,0.4-3.4,1.1c1.1,1.6,1.7,3.3,1.7,5.2
		s-0.6,3.6-1.7,5.2c1,0.7,2.2,1.1,3.4,1.1c1.7,0,3.2-0.6,4.5-1.8c1.2-1.2,1.8-2.7,1.8-4.5c0-1.7-0.6-3.2-1.8-4.5
		C26.6,5,25.1,4.4,23.4,4.4z M25.1,20.5c1.1,0.9,2,2,2.6,3.2c0.6,1.3,1,2.6,1.1,4v3.5h7.1v-3.5L35.8,27c-0.1-0.6-0.3-1.1-0.6-1.7
		c-0.4-0.8-1-1.5-1.7-2c-0.8-0.8-1.9-1.4-3.2-1.8C28.9,21,27.1,20.7,25.1,20.5z"/>
</g>
<g class="st0">
	<path class="st1" d="M34.9,4.7C35.6,5.4,36,6.3,36,7.3v21.5c0,1-0.4,1.9-1.1,2.6c-0.7,0.7-1.5,1.1-2.5,1.1H3.7
		c-1,0-1.8-0.3-2.5-1.1c-0.7-0.7-1.1-1.6-1.1-2.6V7.3c0-1,0.4-1.9,1.1-2.6s1.5-1,2.5-1h28.7C33.4,3.7,34.2,4,34.9,4.7z M32.4,7.3
		l-14.4,9l-14.4-9v3.6L18,19.8l14.4-8.9V7.3z"/>
</g>
<g class="st0">
	<path class="st1" d="M24.7,5.1h5.8v3.6l3.7,2.3c0.5,0.3,0.9,0.8,1.2,1.3s0.5,1.1,0.5,1.8v17.8c0,1-0.3,1.8-1,2.5s-1.5,1-2.5,1H3.7
		c-0.9,0-1.8-0.3-2.5-1s-1-1.5-1-2.5V14.1c0-0.7,0.2-1.3,0.5-1.8s0.7-1,1.2-1.3l3.7-2.3V5.1h5.8L18,1L24.7,5.1z M3.7,14.1l1.8,1.1
		v-2.3L3.7,14.1z M9.1,17.4l8.9,5.5l8.9-5.5V8.7H9.1V17.4z M25.1,10.5v2.7H10.9v-2.7H25.1z M25.1,14.9v2.7H10.9v-2.7
		C10.9,14.9,25.1,14.9,25.1,14.9z M30.4,15.2l1.8-1.1l-1.8-1.2C30.4,12.9,30.4,15.2,30.4,15.2z"/>
</g>
<g>
	<g>
		<g>
			<path class="st2" d="M26.2,30.4H9.5c-0.4,0-0.6-0.3-0.6-0.6V5.7C8.9,5.3,9.1,5,9.5,5h16.7c0.4,0,0.6,0.3,0.6,0.6v24.1
				C26.8,30.1,26.6,30.4,26.2,30.4z M10.2,29.1h15.4V6.3H10.2V29.1z"/>
		</g>
		<g>
			<path class="st2" d="M26.2,30.4H9.5c-0.4,0-0.6-0.3-0.6-0.6v-6.5c0-0.4,0.3-0.6,0.6-0.6h16.7c0.4,0,0.6,0.3,0.6,0.6v6.5
				C26.8,30.1,26.6,30.4,26.2,30.4z M10.2,29.1h15.4v-5.2H10.2V29.1z"/>
		</g>
	</g>
	<g>
		<g>
			<path class="st2" d="M9.5,27.7H1.2c-0.4,0-0.6-0.3-0.6-0.6V8.5c0-0.4,0.3-0.6,0.6-0.6h8.3c0.4,0,0.6,0.3,0.6,0.6V27
				C10.2,27.4,9.9,27.7,9.5,27.7z M1.8,26.4h7V9.1h-7V26.4z"/>
		</g>
		<g>
			<path class="st2" d="M9.5,27.7H1.2c-0.4,0-0.6-0.3-0.6-0.6v-5c0-0.4,0.3-0.6,0.6-0.6h8.3c0.4,0,0.6,0.3,0.6,0.6v5
				C10.2,27.4,9.9,27.7,9.5,27.7z M1.8,26.4h7v-3.7h-7V26.4z"/>
		</g>
	</g>
	<g>
		<g>
			<path class="st2" d="M34.5,27.7h-8.3c-0.4,0-0.6-0.3-0.6-0.6V8.5c0-0.4,0.3-0.6,0.6-0.6h8.3c0.4,0,0.6,0.3,0.6,0.6V27
				C35.2,27.4,34.9,27.7,34.5,27.7z M26.8,26.4h7V9.1h-7V26.4z"/>
		</g>
		<g>
			<path class="st2" d="M34.5,27.7h-8.3c-0.4,0-0.6-0.3-0.6-0.6v-5c0-0.4,0.3-0.6,0.6-0.6h8.3c0.4,0,0.6,0.3,0.6,0.6v5
				C35.2,27.4,34.9,27.7,34.5,27.7z M26.8,26.4h7v-3.7h-7V26.4z"/>
		</g>
	</g>
	<g>
		<g>
			<path class="st2" d="M22.5,11h-9.3c-0.4,0-0.6-0.3-0.6-0.6s0.3-0.6,0.6-0.6h9.3c0.4,0,0.6,0.3,0.6,0.6S22.8,11,22.5,11z"/>
		</g>
		<g>
			<path class="st2" d="M20.6,15.6h-7.4c-0.4,0-0.6-0.3-0.6-0.6c0-0.4,0.3-0.6,0.6-0.6h7.4c0.4,0,0.6,0.3,0.6,0.6
				C21.3,15.3,21,15.6,20.6,15.6z"/>
		</g>
		<g>
			<path class="st2" d="M22.5,20.2h-9.3c-0.4,0-0.6-0.3-0.6-0.6s0.3-0.6,0.6-0.6h9.3c0.4,0,0.6,0.3,0.6,0.6S22.8,20.2,22.5,20.2z"/>
		</g>
	</g>
	<g>
		<g>
			<path class="st2" d="M31.8,14.7H29c-0.4,0-0.6-0.3-0.6-0.6c0-0.4,0.3-0.6,0.6-0.6h2.8c0.4,0,0.6,0.3,0.6,0.6
				C32.4,14.4,32.1,14.7,31.8,14.7z"/>
		</g>
		<g>
			<path class="st2" d="M31.8,18.4H29c-0.4,0-0.6-0.3-0.6-0.6s0.3-0.6,0.6-0.6h2.8c0.4,0,0.6,0.3,0.6,0.6S32.1,18.4,31.8,18.4z"/>
		</g>
	</g>
	<g>
		<g>
			<path class="st2" d="M6.7,14.7H3.9c-0.4,0-0.6-0.3-0.6-0.6c0-0.4,0.3-0.6,0.6-0.6h2.8c0.4,0,0.6,0.3,0.6,0.6
				C7.4,14.4,7.1,14.7,6.7,14.7z"/>
		</g>
		<g>
			<path class="st2" d="M6.7,18.4H3.9c-0.4,0-0.6-0.3-0.6-0.6s0.3-0.6,0.6-0.6h2.8c0.4,0,0.6,0.3,0.6,0.6S7.1,18.4,6.7,18.4z"/>
		</g>
	</g>
</g>
</svg>
