<?xml version="1.0" encoding="utf-8"?>
<!-- Generator: Adobe Illustrator 25.4.1, SVG Export Plug-In . SVG Version: 6.00 Build 0)  -->
<svg version="1.1" id="Layer_1" xmlns="http://www.w3.org/2000/svg" xmlns:xlink="http://www.w3.org/1999/xlink" x="0px" y="0px"
	 viewBox="0 0 24 24" style="enable-background:new 0 0 24 24;" xml:space="preserve">
<style type="text/css">
	.st0{fill:#2B2B2B;}
</style>
<g>
	<path class="st0" d="M11.4,18.9c-0.3,0-0.7-0.1-1-0.2c-0.6-0.3-1-1-1-1.7v-3.1c0-0.2-0.1-0.6-0.3-0.8L7,10.9
		c-0.4-0.4-0.7-1.1-0.7-1.7V7.9c0-1.1,0.8-2,1.9-2h7.7c1,0,1.9,0.9,1.9,1.9v1.3c0,0.7-0.4,1.5-0.8,1.9l-2.5,2.2
		c-0.2,0.1-0.3,0.5-0.3,0.8v2.5c0,0.6-0.4,1.3-0.9,1.6l-0.8,0.5C12.1,18.8,11.7,18.9,11.4,18.9z M8.2,7.4c-0.2,0-0.4,0.2-0.4,0.5
		v1.3c0,0.1,0.1,0.5,0.3,0.6l2.2,2.3c0.3,0.4,0.7,1.1,0.7,1.7V17c0,0.2,0.1,0.3,0.2,0.3c0.1,0.1,0.3,0.1,0.5,0l0.8-0.5
		c0.1-0.1,0.2-0.3,0.2-0.4V14c0-0.7,0.4-1.5,0.9-1.9l2.5-2.2c0.1-0.1,0.3-0.5,0.3-0.8V7.8c0-0.2-0.2-0.4-0.4-0.4H8.2z"/>
	<path class="st0" d="M15,22.8H9c-5.4,0-7.8-2.3-7.8-7.8V9c0-5.4,2.3-7.8,7.8-7.8h6c5.4,0,7.8,2.3,7.8,7.8v6
		C22.8,20.4,20.4,22.8,15,22.8z M9,2.8C4.4,2.8,2.8,4.4,2.8,9v6c0,4.6,1.6,6.2,6.2,6.2h6c4.6,0,6.2-1.6,6.2-6.2V9
		c0-4.6-1.6-6.2-6.2-6.2H9z"/>
</g>
</svg>
