<?xml version="1.0" encoding="utf-8"?>
<!-- Generator: Adobe Illustrator 23.0.3, SVG Export Plug-In . SVG Version: 6.00 Build 0)  -->
<svg version="1.1" id="Layer_1" xmlns="http://www.w3.org/2000/svg" xmlns:xlink="http://www.w3.org/1999/xlink" x="0px" y="0px"
	 viewBox="0 0 36 36" style="enable-background:new 0 0 36 36;" xml:space="preserve">
<style type="text/css">
	.st0{fill:#2B2B2B;}
</style>
<g>
	<path class="st0" d="M36,15.7l-4.5,4.5v-9L36,15.7z M0.3,15.6l4.5-4.5v9L0.3,15.6z"/>
</g>
<g>
	<path class="st0" d="M27.5,7.2c0.4,0.4,0.7,1,0.7,1.6v15.7c0,0.6-0.2,1.2-0.7,1.6s-1,0.7-1.6,0.7H10.2c-0.6,0-1.2-0.2-1.6-0.7
		c-0.4-0.4-0.7-1-0.7-1.6V8.8c0-0.6,0.2-1.2,0.7-1.6c0.4-0.4,1-0.7,1.6-0.7h15.7C26.5,6.5,27.1,6.8,27.5,7.2z M25.9,8.8H10.2v15.7
		h15.7V8.8z M24.2,22.3H11.9l3.1-4l2.2,2.7l3.1-4L24.2,22.3z"/>
</g>
</svg>
