<?xml version="1.0" encoding="utf-8"?>
<!-- Generator: Adobe Illustrator 25.4.1, SVG Export Plug-In . SVG Version: 6.00 Build 0)  -->
<svg version="1.1" xmlns="http://www.w3.org/2000/svg" xmlns:xlink="http://www.w3.org/1999/xlink" x="0px" y="0px"
	 viewBox="0 0 24 24" style="enable-background:new 0 0 24 24;" xml:space="preserve">
<style type="text/css">
	.st0{fill:#2B2B2B;}
</style>
<path d="M17,9.6H7c-0.4,0-0.8-0.3-0.8-0.8S6.6,8.1,7,8.1h10c0.4,0,0.8,0.3,0.8,0.8S17.4,9.6,17,9.6z"/>
<path d="M12,9.6c-0.4,0-0.8-0.3-0.8-0.8V7.2c0-0.4,0.3-0.8,0.8-0.8s0.8,0.3,0.8,0.8v1.7C12.8,9.3,12.4,9.6,12,9.6z"/>
<path d="M7,17.4c-0.4,0-0.8-0.3-0.8-0.8s0.3-0.8,0.8-0.8c3.7,0,6.7-3.2,6.7-7c0-0.4,0.3-0.8,0.8-0.8s0.8,0.3,0.8,0.8
	C15.3,13.5,11.6,17.4,7,17.4z"/>
<path d="M17,17.4c-2,0-3.8-1-5.1-2.8c-0.2-0.3-0.2-0.8,0.1-1.1s0.8-0.2,1.1,0.2c1.1,1.4,2.5,2.2,4,2.2
	c0.4,0,0.8,0.3,0.8,0.7S17.4,17.4,17,17.4z"/>
<path d="M15,22.6H9c-5.4,0-7.8-2.3-7.8-7.8v-6c0-5.4,2.3-7.8,7.8-7.8h6c5.4,0,7.8,2.3,7.8,7.8v6
	C22.8,20.3,20.5,22.6,15,22.6z M9,2.6c-4.6,0-6.2,1.6-6.2,6.3v6c0,4.6,1.6,6.2,6.2,6.2h6c4.6,0,6.3-1.6,6.3-6.2v-6
	c0-4.6-1.6-6.3-6.3-6.3H9z"/>
</svg>
