<?xml version="1.0" encoding="utf-8"?>
<!-- Generator: Adobe Illustrator 23.0.3, SVG Export Plug-In . SVG Version: 6.00 Build 0)  -->
<svg version="1.1" id="Layer_1" xmlns="http://www.w3.org/2000/svg" xmlns:xlink="http://www.w3.org/1999/xlink" x="0px" y="0px"
	 viewBox="0 0 36 36" style="enable-background:new 0 0 36 36;" xml:space="preserve">
<style type="text/css">
	.st0{fill:#2B2B2B;}
</style>
<path class="st0" d="M17.4,24.2l-2,1.9c-0.4,0.4-0.9,0.6-1.4,0.6s-1-0.2-1.4-0.6L11.7,27H6.2l3.7-3.7c-0.4-0.4-0.6-0.9-0.6-1.4
	c0-0.5,0.2-1,0.6-1.4l6.3-6.2l2.1,2.1c-1,1.4-1.5,3-1.5,4.6C16.7,22,16.9,23,17.4,24.2z M19.5,14.7l-2-2l4.4-4.3
	c0.4-0.4,0.8-0.6,1.4-0.6c0.5,0,1,0.2,1.4,0.6l2.9,2.8c0.5,0.5,0.7,1,0.6,1.7c-0.8-0.2-1.7-0.4-2.7-0.4
	C23.3,12.5,21.3,13.2,19.5,14.7z"/>
<g>
	<path class="st0" d="M23,24l-3.5-3.5l3.5-3.5l0.8,0.8l-2.7,2.7l2.7,2.7L23,24z M27.6,24l3.5-3.5l-3.5-3.5l-0.8,0.8l2.7,2.7
		l-2.7,2.7L27.6,24z"/>
</g>
</svg>
