<?xml version="1.0" encoding="utf-8"?>
<!-- Generator: Adobe Illustrator 25.4.1, SVG Export Plug-In . SVG Version: 6.00 Build 0)  -->
<svg version="1.1" id="Layer_1" xmlns="http://www.w3.org/2000/svg" xmlns:xlink="http://www.w3.org/1999/xlink" x="0px" y="0px"
	 viewBox="0 0 24 24" style="enable-background:new 0 0 24 24;" xml:space="preserve">
<style type="text/css">
	.st0{fill:#292D32;}
</style>
<path class="st0" d="M8,14.8c-0.2,0-0.4-0.1-0.5-0.2l-2-2c-0.3-0.3-0.3-0.8,0-1.1l2-2c0.3-0.3,0.8-0.3,1.1,0s0.3,0.8,0,1.1L7.1,12
	l1.5,1.5c0.3,0.3,0.3,0.8,0,1.1C8.4,14.7,8.2,14.8,8,14.8z"/>
<path class="st0" d="M16,14.8c-0.2,0-0.4-0.1-0.5-0.2c-0.3-0.3-0.3-0.8,0-1.1l1.5-1.5l-1.5-1.5c-0.3-0.3-0.3-0.8,0-1.1
	s0.8-0.3,1.1,0l2,2c0.3,0.3,0.3,0.8,0,1.1l-2,2C16.4,14.7,16.2,14.8,16,14.8z"/>
<path class="st0" d="M12,22.8C6.1,22.8,1.2,17.9,1.2,12S6.1,1.2,12,1.2S22.8,6.1,22.8,12S17.9,22.8,12,22.8z M12,2.8
	c-5.1,0-9.2,4.2-9.2,9.2s4.2,9.2,9.2,9.2s9.2-4.1,9.2-9.2S17.1,2.8,12,2.8z"/>
<path class="st0" d="M11,15.1c-0.1,0-0.2,0-0.3-0.1c-0.4-0.2-0.6-0.6-0.4-1l2-4.7c0.2-0.4,0.6-0.6,1-0.4c0.4,0.2,0.6,0.6,0.4,1
	l-2,4.7C11.6,14.9,11.3,15.1,11,15.1z"/>
</svg>
