<?xml version="1.0" encoding="utf-8"?>
<!-- Generator: Adobe Illustrator 25.4.1, SVG Export Plug-In . SVG Version: 6.00 Build 0)  -->
<svg version="1.1" id="Layer_1" xmlns="http://www.w3.org/2000/svg" xmlns:xlink="http://www.w3.org/1999/xlink" x="0px" y="0px"
	 viewBox="0 0 24 24" style="enable-background:new 0 0 24 24;" xml:space="preserve">
<style type="text/css">
	.st0{fill:#2B2B2B;}
</style>
<g>
	<path class="st0" d="M8.3,10.8c0,0-0.1,0-0.1,0c0,0-0.1,0-0.2,0c-2.2-0.1-4-1.9-4-4.2c0-2.3,1.9-4.2,4.2-4.2s4.2,1.9,4.2,4.2
		C12.3,8.9,10.6,10.7,8.3,10.8C8.3,10.8,8.3,10.8,8.3,10.8z M8.2,4.8c-1,0-1.8,0.8-1.8,1.8c0,1,0.8,1.8,1.8,1.8c0,0,0.1,0,0.2,0
		c1-0.1,1.7-0.9,1.7-1.8C10,5.6,9.2,4.8,8.2,4.8z"/>
	<path class="st0" d="M8.2,21.5c-1.8,0-3.5-0.5-4.9-1.4c-1.3-0.9-2-2.1-2-3.4c0-1.3,0.7-2.6,2-3.4c2.7-1.8,7-1.8,9.7,0
		c1.3,0.9,2,2.1,2,3.4c0,1.3-0.7,2.6-2,3.4C11.7,21.1,9.9,21.5,8.2,21.5z M4.6,15.2c-0.7,0.4-1,1-1,1.5c0,0.5,0.4,1.1,1,1.5
		c2,1.3,5.2,1.3,7.2,0c0.7-0.4,1-1,1-1.5c0-0.5-0.4-1.1-1-1.5C9.8,13.9,6.5,13.9,4.6,15.2z"/>
	<path class="st0" d="M18.8,9.5c-0.3,0-0.5-0.1-0.7-0.3l-1-1c-0.4-0.4-0.4-1,0-1.4c0.4-0.4,1-0.4,1.4,0l0.3,0.3L21,4.8
		c0.4-0.4,1-0.4,1.4,0c0.4,0.4,0.4,1,0,1.4l-3,3C19.3,9.4,19,9.5,18.8,9.5z"/>
	<path class="st0" d="M18.8,16.1c-0.3,0-0.5-0.1-0.7-0.3l-1-1c-0.4-0.4-0.4-1,0-1.4c0.4-0.4,1-0.4,1.4,0l0.3,0.3l2.3-2.3
		c0.4-0.4,1-0.4,1.4,0c0.4,0.4,0.4,1,0,1.4l-3,3C19.3,16,19,16.1,18.8,16.1z"/>
</g>
</svg>
