<svg xmlns="http://www.w3.org/2000/svg" width="14" height="14" viewBox="0 0 14 14"><path fill="none" stroke="currentColor" stroke-linecap="round" stroke-linejoin="round" d="M13.39 3a.47.47 0 0 0-.21-.16l-6-2.27a.45.45 0 0 0-.36 0l-6 2.31A.47.47 0 0 0 .61 3a.48.48 0 0 0-.11.3v7.32a.5.5 0 0 0 .32.46l6 2.31h.36l6-2.31a.5.5 0 0 0 .32-.46V3.34a.48.48 0 0 0-.11-.34Z"/><path fill="none" stroke="currentColor" stroke-linecap="round" stroke-linejoin="round" d="M7 13.46V5.5m0 0v7.96M.61 3.04L7 5.5l6.39-2.46"/></svg>
