<?xml version="1.0" encoding="utf-8"?>
<!-- Generator: Adobe Illustrator 25.4.1, SVG Export Plug-In . SVG Version: 6.00 Build 0)  -->
<svg version="1.1" id="Layer_1" xmlns="http://www.w3.org/2000/svg" xmlns:xlink="http://www.w3.org/1999/xlink" x="0px" y="0px"
	 viewBox="0 0 24 24" style="enable-background:new 0 0 24 24;" xml:space="preserve">
<style type="text/css">
	.st0{fill:none;stroke:#000000;}
</style>
<g>
	<g>
		<path class="st0" d="M5.2,0.8h13.5c0.6,0,1.2,0.2,1.6,0.7C20.8,1.9,21,2.4,21,3v18c0,0.6-0.2,1.1-0.7,1.6c-0.4,0.4-1,0.7-1.6,0.7
			H5.2c-0.6,0-1.2-0.2-1.6-0.7C3.2,22.1,3,21.6,3,21V3c0-0.6,0.2-1.1,0.7-1.6C4.1,1,4.6,0.8,5.2,0.8z M12,3c-1.2,0-2.4,0.3-3.4,0.9
			c-1,0.6-1.9,1.4-2.5,2.5c-0.6,1-0.9,2.2-0.9,3.4s0.3,2.3,0.9,3.4c0.6,1,1.4,1.9,2.5,2.5c1,0.6,2.2,0.9,3.5,0.9l-1-2.5
			c-0.1-0.3-0.2-0.6-0.1-0.9c0.1-0.3,0.3-0.5,0.5-0.7l1-0.6c0.2-0.1,0.5-0.2,0.8-0.1c0.3,0.1,0.5,0.2,0.7,0.5l2.2,2.7
			c0.8-0.6,1.4-1.4,1.8-2.3c0.5-0.9,0.7-1.9,0.7-3c0-1.2-0.3-2.3-0.9-3.3c-0.6-1-1.4-1.9-2.5-2.5C14.4,3.3,13.2,3,12,3z M6.4,18.8
			c-0.3,0-0.6,0.1-0.8,0.3s-0.3,0.5-0.3,0.8s0.1,0.6,0.3,0.8C5.8,20.9,6,21,6.4,21s0.6-0.1,0.8-0.3c0.2-0.2,0.3-0.5,0.3-0.8
			s-0.1-0.6-0.3-0.8S6.7,18.8,6.4,18.8z M12,8.6c0.3,0,0.6,0.1,0.8,0.3s0.3,0.5,0.3,0.8s-0.1,0.6-0.3,0.8c-0.2,0.2-0.5,0.3-0.8,0.3
			s-0.6-0.1-0.8-0.3c-0.2-0.2-0.3-0.5-0.3-0.8s0.1-0.6,0.3-0.8S11.7,8.6,12,8.6z M12.1,13.4l2.8,7.1l2.9-1.7l-4.7-6L12.1,13.4z"/>
	</g>
</g>
</svg>
