<?xml version="1.0" encoding="utf-8"?>
<!-- Generator: Adobe Illustrator 23.0.3, SVG Export Plug-In . SVG Version: 6.00 Build 0)  -->
<svg version="1.1" id="Layer_1" xmlns="http://www.w3.org/2000/svg" xmlns:xlink="http://www.w3.org/1999/xlink" x="0px" y="0px"
	 viewBox="0 0 36 36" style="enable-background:new 0 0 36 36;" xml:space="preserve">
<style type="text/css">
	.st0{fill:#2B2B2B;}
</style>
<g>
	<path class="st0" d="M11.7,6.3h13.5c0.6,0,1.2,0.2,1.6,0.7c0.4,0.4,0.7,1,0.7,1.6v18c0,0.6-0.2,1.1-0.7,1.6c-0.4,0.4-1,0.7-1.6,0.7
		H11.7c-0.6,0-1.2-0.2-1.6-0.7c-0.4-0.4-0.7-1-0.7-1.6v-18c0-0.6,0.2-1.1,0.7-1.6C10.5,6.5,11,6.3,11.7,6.3z M18.4,8.5
		c-1.2,0-2.4,0.3-3.4,0.9c-1,0.6-1.9,1.4-2.5,2.5c-0.6,1-0.9,2.2-0.9,3.4s0.3,2.3,0.9,3.4c0.6,1,1.4,1.9,2.5,2.5s2.2,0.9,3.5,0.9
		l-1-2.5c-0.1-0.3-0.2-0.6-0.1-0.9c0.1-0.3,0.3-0.5,0.5-0.7l1-0.6c0.2-0.1,0.5-0.2,0.8-0.1c0.3,0.1,0.5,0.2,0.7,0.5l2.2,2.7
		c0.8-0.6,1.4-1.4,1.8-2.3c0.5-0.9,0.7-1.9,0.7-3c0-1.2-0.3-2.3-0.9-3.3c-0.6-1-1.4-1.9-2.5-2.5C20.8,8.8,19.7,8.5,18.4,8.5z
		 M12.8,24.3c-0.3,0-0.6,0.1-0.8,0.3s-0.3,0.5-0.3,0.8s0.1,0.6,0.3,0.8s0.5,0.3,0.8,0.3s0.6-0.1,0.8-0.3s0.3-0.5,0.3-0.8
		s-0.1-0.6-0.3-0.8S13.1,24.3,12.8,24.3z M18.4,14.2c0.3,0,0.6,0.1,0.8,0.3s0.3,0.5,0.3,0.8s-0.1,0.6-0.3,0.8
		c-0.2,0.2-0.5,0.3-0.8,0.3s-0.6-0.1-0.8-0.3c-0.2-0.2-0.3-0.5-0.3-0.8s0.1-0.6,0.3-0.8S18.1,14.2,18.4,14.2z M18.5,19l2.8,7.1
		l2.9-1.7l-4.7-6L18.5,19z"/>
</g>
</svg>
