<?xml version="1.0" encoding="utf-8"?>
<!-- Generator: Adobe Illustrator 19.0.0, SVG Export Plug-In . SVG Version: 6.00 Build 0)  -->
<svg version="1.1" xmlns="http://www.w3.org/2000/svg" xmlns:xlink="http://www.w3.org/1999/xlink" x="0px" y="0px"
	 viewBox="231 -295 512 640" style="enable-background:new 231 -295 512 640;" xml:space="preserve">
<path d="M738-21l-81.3-66.2c-6.4-6.4-17.3-1.9-17.3,7.2v40.7h-127v-127h40.7c9,0,13.5-10.9,7.2-17.3l-66-81.4c-4-4-10.4-4-14.3,0
	l-66.2,81.3c-6.4,6.4-1.9,17.3,7.2,17.3h40.7v127h-127v-40.7c0-9-10.9-13.5-17.3-7.2l-81.4,66c-4,4-4,10.4,0,14.3l81.3,66.2
	c6.4,6.4,17.3,1.9,17.3-7.2V11.3h127v127h-40.7c-9,0-13.5,10.9-7.2,17.3l65.9,81.3c4,4,10.4,4,14.3,0l66.2-81.3
	c6.4-6.4,1.9-17.3-7.2-17.3h-40.7v-127h127V52c0,9,10.9,13.5,17.3,7.2l81.3-65.9C742-10.7,742-17.1,738-21z"/>
</svg>
