<?xml version="1.0" encoding="utf-8"?>
<!-- Generator: Adobe Illustrator 25.4.1, SVG Export Plug-In . SVG Version: 6.00 Build 0)  -->
<svg version="1.1" xmlns="http://www.w3.org/2000/svg" xmlns:xlink="http://www.w3.org/1999/xlink" x="0px" y="0px"
	 viewBox="0 0 24 24" style="enable-background:new 0 0 24 24;" xml:space="preserve">
<style type="text/css">
	.st0{fill:#2B2B2B;}
</style>
<g>
	<path d="M18.4,17.8H7.8c-1,0-1.9-0.4-2.6-1.1c-0.7-0.7-1-1.7-0.9-2.7l0.8-10c0-0.3-0.1-0.6-0.3-0.8S4.3,2.8,4,2.8H2.2
		C1.8,2.8,1.5,2.4,1.5,2s0.3-0.8,0.8-0.8H4c0.7,0,1.4,0.3,1.9,0.8c0.3,0.3,0.5,0.7,0.6,1H19c1,0,1.9,0.4,2.6,1.1
		c0.7,0.7,1,1.7,0.9,2.7L22,14.4C21.9,16.3,20.3,17.8,18.4,17.8z M6.5,4.6L5.7,14c-0.1,0.6,0.1,1.1,0.5,1.6c0.4,0.4,0.9,0.7,1.5,0.7
		h10.7c1,0,2-0.9,2.1-1.9L21,6.8c0-0.6-0.2-1.2-0.5-1.6c-0.4-0.4-0.9-0.7-1.5-0.7L6.5,4.6L6.5,4.6z"/>
	<path d="M16.6,22.8c-1.1,0-2-0.9-2-2s0.9-2,2-2s2,0.9,2,2S17.7,22.8,16.6,22.8z M16.6,20.2c-0.3,0-0.5,0.2-0.5,0.5
		s0.2,0.5,0.5,0.5s0.5-0.2,0.5-0.5S16.9,20.2,16.6,20.2z"/>
	<path d="M8.6,22.8c-1.1,0-2-0.9-2-2s0.9-2,2-2s2,0.9,2,2S9.7,22.8,8.6,22.8z M8.6,20.2c-0.3,0-0.5,0.2-0.5,0.5
		s0.2,0.5,0.5,0.5c0.3,0,0.5-0.2,0.5-0.5S8.9,20.2,8.6,20.2z"/>
</g>
</svg>
