<svg id="Layer_1" data-name="Layer 1" xmlns="http://www.w3.org/2000/svg" xmlns:xlink="http://www.w3.org/1999/xlink" viewBox="0 0 44.54 36.07"><defs><linearGradient id="linear-gradient" x1="17.36" y1="36.07" x2="17.36" y2="30.33" gradientUnits="userSpaceOnUse"><stop offset="0" stop-color="#0d0d0d"/><stop offset="0.05" stop-color="#101010"/><stop offset="0.33" stop-color="#202020"/><stop offset="0.55" stop-color="#262626"/></linearGradient><linearGradient id="linear-gradient-2" x1="365.8" y1="619.33" x2="365.8" y2="615.87" gradientUnits="userSpaceOnUse"><stop offset="0.58"/><stop offset="1" stop-color="#262626"/></linearGradient><linearGradient id="linear-gradient-3" x1="17.36" y1="34.34" x2="17.36" y2="29.3" gradientUnits="userSpaceOnUse"><stop offset="0.49" stop-color="#8a8a8a"/><stop offset="1" stop-color="#b3b3b3"/></linearGradient><linearGradient id="linear-gradient-4" x1="17.36" y1="34.19" x2="17.36" y2="29.16" gradientUnits="userSpaceOnUse"><stop offset="0.24" stop-color="#f0f0f0"/><stop offset="1" stop-color="#b3b3b3"/></linearGradient><linearGradient id="linear-gradient-5" x1="17.36" y1="33.85" x2="17.36" y2="32.56" gradientUnits="userSpaceOnUse"><stop offset="0.09"/><stop offset="1" stop-color="#4d4d4d"/></linearGradient><linearGradient id="linear-gradient-6" x1="17.36" y1="33.74" x2="17.36" y2="32.67" gradientUnits="userSpaceOnUse"><stop offset="0.09" stop-color="#b3b3b3"/><stop offset="1" stop-color="#fff"/></linearGradient><linearGradient id="linear-gradient-7" x1="36.55" y1="36.07" x2="36.55" y2="30.33" xlink:href="#linear-gradient"/><linearGradient id="linear-gradient-8" x1="384.99" y1="619.33" x2="384.99" y2="615.87" xlink:href="#linear-gradient-2"/><linearGradient id="linear-gradient-9" x1="36.55" y1="34.34" x2="36.55" y2="29.3" xlink:href="#linear-gradient-3"/><linearGradient id="linear-gradient-10" x1="36.55" y1="34.19" x2="36.55" y2="29.16" xlink:href="#linear-gradient-4"/><linearGradient id="linear-gradient-11" x1="36.55" y1="33.85" x2="36.55" y2="32.56" xlink:href="#linear-gradient-5"/><linearGradient id="linear-gradient-12" x1="36.55" y1="33.74" x2="36.55" y2="32.67" xlink:href="#linear-gradient-6"/><linearGradient id="linear-gradient-13" x1="358.85" y1="597.93" x2="391.01" y2="597.93" gradientUnits="userSpaceOnUse"><stop offset="0" stop-color="#9e9e9e"/><stop offset="0.49" stop-color="#d9d9d9"/><stop offset="1" stop-color="#8c8c8c"/></linearGradient><linearGradient id="linear-gradient-14" x1="356.98" y1="598.38" x2="392.98" y2="598.38" gradientUnits="userSpaceOnUse"><stop offset="0" stop-color="#b3b3b3"/><stop offset="0.49" stop-color="#d9d9d9"/><stop offset="1" stop-color="#b3b3b3"/></linearGradient><linearGradient id="linear-gradient-15" x1="370.21" y1="613.24" x2="370.21" y2="584.65" gradientUnits="userSpaceOnUse"><stop offset="0" stop-color="#828282"/><stop offset="0.02" stop-color="#b3b3b3"/><stop offset="0.12" stop-color="#b3b3b3"/><stop offset="0.24" stop-color="#c7c7c7"/><stop offset="0.39" stop-color="#dadada"/><stop offset="0.49" stop-color="#e0e0e0"/><stop offset="1" stop-color="#b3b3b3"/></linearGradient><linearGradient id="linear-gradient-16" x1="348.44" y1="585.42" x2="354.46" y2="585.42" gradientUnits="userSpaceOnUse"><stop offset="0.26" stop-color="#25a86b"/><stop offset="0.37" stop-color="#22a267"/><stop offset="0.74" stop-color="#1a8f5b"/><stop offset="1" stop-color="#178957"/></linearGradient><linearGradient id="linear-gradient-17" x1="350.89" y1="586.92" x2="353.64" y2="586.92" gradientUnits="userSpaceOnUse"><stop offset="0.26" stop-color="#198d59"/><stop offset="0.39" stop-color="#137b4c"/><stop offset="0.63" stop-color="#095e37"/><stop offset="0.85" stop-color="#024b2a"/><stop offset="1" stop-color="#004525"/></linearGradient><linearGradient id="linear-gradient-18" x1="351.75" y1="585.13" x2="354.46" y2="585.13" gradientUnits="userSpaceOnUse"><stop offset="0.26" stop-color="#29b473"/><stop offset="0.5" stop-color="#209f65"/><stop offset="0.78" stop-color="#188c59"/><stop offset="0.98" stop-color="#158655"/></linearGradient><linearGradient id="linear-gradient-19" x1="1.69" y1="2.83" x2="1.69" y2="0.56" gradientUnits="userSpaceOnUse"><stop offset="0" stop-color="#29b473"/><stop offset="1" stop-color="#1a8f5a"/></linearGradient><linearGradient id="linear-gradient-20" x1="0.89" y1="1.69" x2="2.5" y2="1.69" gradientUnits="userSpaceOnUse"><stop offset="0.26" stop-color="#29b473"/><stop offset="0.59" stop-color="#26aa6c"/><stop offset="1" stop-color="#24a468"/></linearGradient><linearGradient id="linear-gradient-21" x1="359.8" y1="608.42" x2="359.8" y2="585.95" gradientUnits="userSpaceOnUse"><stop offset="0" stop-color="#ccc"/><stop offset="0.4" stop-color="#e0e0e0"/><stop offset="1" stop-color="#e6e6e6"/></linearGradient><linearGradient id="linear-gradient-22" x1="362.24" y1="611.62" x2="389.13" y2="611.62" xlink:href="#linear-gradient-14"/></defs><title>7</title><g id="_Group_" data-name="&lt;Group&gt;"><g id="_Group_2" data-name="&lt;Group&gt;"><circle id="_Path_" data-name="&lt;Path&gt;" cx="17.36" cy="33.2" r="2.87" style="fill:url(#linear-gradient)"/><path id="_Path_2" data-name="&lt;Path&gt;" d="M368.14,615.87a2.41,2.41,0,1,1-4.67,0H363a2.91,2.91,0,0,0-.06.6,2.87,2.87,0,1,0,5.67-.6h-0.47Z" transform="translate(-348.44 -583.27)" style="fill:url(#linear-gradient-2)"/><rect id="_Path_3" data-name="&lt;Path&gt;" x="16.04" y="29.3" width="2.64" height="5.03" rx="0.36" ry="0.36" style="fill:url(#linear-gradient-3)"/><rect id="_Path_4" data-name="&lt;Path&gt;" x="16.04" y="29.16" width="2.64" height="5.03" rx="0.36" ry="0.36" style="fill:url(#linear-gradient-4)"/><path id="_Path_5" data-name="&lt;Path&gt;" d="M366.77,612.42h-1.93a0.36,0.36,0,0,0-.36.36v0.67h2.64v-0.67A0.36,0.36,0,0,0,366.77,612.42Z" transform="translate(-348.44 -583.27)" style="fill:#6e6e6e"/><circle id="_Path_6" data-name="&lt;Path&gt;" cx="17.36" cy="33.2" r="0.64" style="fill:url(#linear-gradient-5)"/><circle id="_Path_7" data-name="&lt;Path&gt;" cx="17.36" cy="33.2" r="0.53" style="fill:url(#linear-gradient-6)"/></g><g id="_Group_3" data-name="&lt;Group&gt;"><circle id="_Path_8" data-name="&lt;Path&gt;" cx="36.55" cy="33.2" r="2.87" style="fill:url(#linear-gradient-7)"/><path id="_Path_9" data-name="&lt;Path&gt;" d="M387.33,615.87a2.41,2.41,0,1,1-4.67,0h-0.47a2.87,2.87,0,1,0,5.61,0h-0.47Z" transform="translate(-348.44 -583.27)" style="fill:url(#linear-gradient-8)"/><rect id="_Path_10" data-name="&lt;Path&gt;" x="35.23" y="29.3" width="2.64" height="5.03" rx="0.36" ry="0.36" style="fill:url(#linear-gradient-9)"/><rect id="_Path_11" data-name="&lt;Path&gt;" x="35.23" y="29.16" width="2.64" height="5.03" rx="0.36" ry="0.36" style="fill:url(#linear-gradient-10)"/><path id="_Path_12" data-name="&lt;Path&gt;" d="M386,612.42H384a0.36,0.36,0,0,0-.36.36v0.67h2.64v-0.67A0.36,0.36,0,0,0,386,612.42Z" transform="translate(-348.44 -583.27)" style="fill:#6e6e6e"/><circle id="_Path_13" data-name="&lt;Path&gt;" cx="36.55" cy="33.2" r="0.64" style="fill:url(#linear-gradient-11)"/><circle id="_Path_14" data-name="&lt;Path&gt;" cx="36.55" cy="33.2" r="0.53" style="fill:url(#linear-gradient-12)"/></g><path id="_Path_15" data-name="&lt;Path&gt;" d="M363.26,607.57l-8.47-20.46-4-1.46a1.71,1.71,0,0,0,1,1.12l2.39,1L362.68,609Z" transform="translate(-348.44 -583.27)" style="fill:#929497"/><path id="_Compound_Path_" data-name="&lt;Compound Path&gt;" d="M358.85,590l0.76,2.34,0,0,1.43,1.43-0.75.75,0.6,1.86,1.38-1.38,1.43,1.43-1.43,1.43L361,596.54l1.25,3.88,0.08-.08,1.43,1.43-0.81.81,0.88,2.71,1.1,0.5-1.36-1.36,1.43-1.43,1.43,1.43-1.4,1.4,1.7,0.76,0.94-.94,1.06,1.06,3.35-.14,0.91-.91,0.84,0.84,3.81-.16,0.67-.67,0.62,0.62,4.27-.18,0.43-.43,0.4,0.4,3.89-.17,1.48-.77,0.46-2.83-0.91.91-1.43-1.43,1.43-1.43,1.05,1.05,0.34-2.12-0.17-.17,0.23-.23,0.68-4.18-0.91-.9,0.64-.64-4.14-.4,1,1-1.43,1.43-1.43-1.43,1.11-1.11-2.24-.22-0.1.1-0.12-.12-4.63-.45-0.57.57-0.69-.69-3.58-.35-1,1-1.27-1.27-2.73-.27,0.11,0.11-1.43,1.43-1.43-1.43,0.34-.34-3.49-.34,0.68,0.68-1.43,1.43-1.43-1.43,0.81-.82Zm4.66,9.07,1.43-1.43,1.43,1.43-1.43,1.43Zm4.09,4.09-1.43-1.43,1.43-1.43,1.43,1.43Zm1.23-4.09,1.43-1.43,1.43,1.43-1.43,1.43Zm1.43,6.75-1.43-1.43,1.43-1.43,1.43,1.43Zm2.66-2.66-1.43-1.43,1.43-1.43,1.43,1.43Zm1.23-4.09,1.43-1.43,1.43,1.43-1.43,1.43Zm1.43,6.75-1.43-1.43,1.43-1.43,1.43,1.43Zm2.66-2.66-1.43-1.43,1.43-1.43,1.43,1.43Zm1.23-4.09,1.43-1.43,1.43,1.43-1.43,1.43Zm1.43,6.75-1.43-1.43L380.9,603l1.43,1.43Zm2.66-2.66-1.43-1.43,1.43-1.43,1.43,1.43Zm4.09,1.23-1.43,1.43-1.43-1.43,1.43-1.43Zm1.23-9.4,1.43,1.43-1.43,1.43-1.43-1.43Zm-1.23,4.09-1.43,1.43-1.43-1.43,1.43-1.43ZM383.56,595l1.43,1.43-1.43,1.43-1.43-1.43Zm-2.66-2.66,1.43,1.43-1.43,1.43-1.43-1.43ZM378.24,595l1.43,1.43-1.43,1.43-1.43-1.43Zm-2.66-2.66,1.43,1.43-1.43,1.43-1.43-1.43Zm-1.23,4.09-1.43,1.43-1.43-1.43,1.43-1.43Zm-4.09-4.09,1.43,1.43-1.43,1.43-1.43-1.43ZM369,596.45l-1.43,1.43-1.43-1.43L367.6,595Zm-4.09-4.09,1.43,1.43-1.43,1.43-1.43-1.43Z" transform="translate(-348.44 -583.27)" style="fill:gray"/><path id="_Compound_Path_2" data-name="&lt;Compound Path&gt;" d="M358.85,589.59l0.76,2.34,0,0,1.43,1.43-0.75.75,0.6,1.86,1.38-1.38,1.43,1.43-1.43,1.43L361,596.09,362.2,600l0.08-.08,1.43,1.43-0.81.81,0.88,2.71,1.1,0.5L363.52,604l1.43-1.43,1.43,1.43-1.4,1.4,1.7,0.76,0.94-.93,1.06,1.05,3.35-.14,0.91-.91,0.84,0.84,3.81-.16,0.67-.67,0.62,0.62,4.27-.18,0.43-.43,0.4,0.4,3.89-.17,1.48-.77,0.46-2.83-0.91.91-1.43-1.43,1.43-1.43,1.05,1.05,0.34-2.12-0.17-.17,0.23-.23,0.68-4.18-0.91-.91,0.64-.64-4.14-.4,1,1-1.43,1.43-1.43-1.43,1.11-1.11-2.24-.22-0.1.1-0.12-.12-4.63-.45-0.57.57-0.69-.69-3.58-.35-1,1-1.27-1.27-2.73-.27,0.11,0.11-1.43,1.43-1.43-1.43,0.34-.34L363,590l0.68,0.68-1.43,1.43-1.43-1.43,0.81-.82Zm4.66,9.07,1.43-1.43,1.43,1.43-1.43,1.43Zm4.09,4.09-1.43-1.43,1.43-1.43,1.43,1.43Zm1.23-4.09,1.43-1.43,1.43,1.43-1.43,1.43Zm1.43,6.75L368.83,604l1.43-1.43,1.43,1.43Zm2.66-2.66-1.43-1.43,1.43-1.43,1.43,1.43Zm1.23-4.09,1.43-1.43,1.43,1.43-1.43,1.43Zm1.43,6.75L374.15,604l1.43-1.43L377,604Zm2.66-2.66-1.43-1.43,1.43-1.43,1.43,1.43Zm1.23-4.09,1.43-1.43,1.43,1.43-1.43,1.43Zm1.43,6.75L379.47,604l1.43-1.43,1.43,1.43Zm2.66-2.66-1.43-1.43,1.43-1.43,1.43,1.43Zm4.09,1.23-1.43,1.43L384.79,604l1.43-1.43Zm1.23-9.4L390.3,596l-1.43,1.43L387.45,596Zm-1.23,4.09-1.43,1.43-1.43-1.43,1.43-1.43Zm-4.09-4.09L385,596l-1.43,1.43L382.13,596Zm-2.66-2.66,1.43,1.43-1.43,1.43-1.43-1.43Zm-2.66,2.66,1.43,1.43-1.43,1.43L376.81,596Zm-2.66-2.66,1.43,1.43-1.43,1.43-1.43-1.43ZM374.35,596l-1.43,1.43L371.49,596l1.43-1.43Zm-4.09-4.09,1.43,1.43-1.43,1.43-1.43-1.43ZM369,596l-1.43,1.43L366.17,596l1.43-1.43Zm-4.09-4.09,1.43,1.43-1.43,1.43-1.43-1.43Z" transform="translate(-348.44 -583.27)" style="fill:url(#linear-gradient-13)"/><path id="_Compound_Path_3" data-name="&lt;Compound Path&gt;" d="M366.58,607.39l-2.86-1.71a0.89,0.89,0,0,1-.37-0.43h0L357,589.58l0.83-.33-0.83.33a0.9,0.9,0,0,1,.11-0.86h0a0.89,0.89,0,0,1,.78-0.37h0l34.22,2.29a0.89,0.89,0,0,1,.64.34h0a0.89,0.89,0,0,1,.18.7h0l-2.12,13.13a0.89,0.89,0,0,1-.47.65h0l-2,1.06a0.89,0.89,0,0,1-.37.1h0l-20.88.9h0a0.9,0.9,0,0,1-.46-0.13h0Zm-1.68-3.09,2.37,1.42,20.42-.88,1.46-.76L391,592.36l-31.81-2.13,5.67,14.07h0Z" transform="translate(-348.44 -583.27)" style="fill:#e6e6e6"/><polygon id="_Path_16" data-name="&lt;Path&gt;" points="9.85 7.87 9.93 6.68 43.84 8.96 43.76 10.15 9.85 7.87 9.85 7.87" style="fill:#929497"/><path id="_Compound_Path_4" data-name="&lt;Compound Path&gt;" d="M366.58,607.84l-2.86-1.71a0.89,0.89,0,0,1-.37-0.43h0L357,590l0.83-.33L357,590a0.9,0.9,0,0,1,.11-0.86h0a0.89,0.89,0,0,1,.78-0.37h0l34.22,2.29a0.89,0.89,0,0,1,.64.34h0a0.89,0.89,0,0,1,.18.7h0l-2.12,13.13a0.89,0.89,0,0,1-.47.65h0l-2,1.06a0.88,0.88,0,0,1-.37.1h0l-20.88.9h0a0.89,0.89,0,0,1-.46-0.13h0Zm-1.68-3.09,2.37,1.42,20.42-.88,1.46-.76L391,592.81l-31.81-2.13,5.67,14.07h0Z" transform="translate(-348.44 -583.27)" style="fill:url(#linear-gradient-14)"/><path id="_Path_17" data-name="&lt;Path&gt;" d="M360.86,613.24a0.88,0.88,0,0,1-.77-0.45h0a0.88,0.88,0,0,1,0-.89h0l2.42-4-8.21-20.38-2.71-1.14h0a0.88,0.88,0,0,1-.47-1.15h0a0.88,0.88,0,0,1,1.15-.47h0l3.05,1.28a0.88,0.88,0,0,1,.48.48h0l8.51,21.12a0.88,0.88,0,0,1-.06.78h0l-1.85,3.08h26.07a0.88,0.88,0,0,1,.88.88h0a0.88,0.88,0,0,1-.88.88H360.86Z" transform="translate(-348.44 -583.27)" style="fill:url(#linear-gradient-15)"/><path id="_Path_18" data-name="&lt;Path&gt;" d="M354.46,585.57l-2.71-1.14a1.7,1.7,0,1,0-.86,2l2.61,1.1Z" transform="translate(-348.44 -583.27)" style="fill:url(#linear-gradient-16)"/><path id="_Path_19" data-name="&lt;Path&gt;" d="M351.22,586.26a1.66,1.66,0,0,1-.34.22l2.61,1.1,0.14-.3Z" transform="translate(-348.44 -583.27)" style="fill:url(#linear-gradient-17)"/><path id="_Path_20" data-name="&lt;Path&gt;" d="M351.75,584.43h0a1.64,1.64,0,0,1,.07.34l2.51,1.06,0.12-.26Z" transform="translate(-348.44 -583.27)" style="fill:url(#linear-gradient-18)"/><circle id="_Path_21" data-name="&lt;Path&gt;" cx="1.69" cy="1.69" r="1.14" style="fill:url(#linear-gradient-19)"/><circle id="_Path_22" data-name="&lt;Path&gt;" cx="1.69" cy="1.69" r="0.81" style="fill:url(#linear-gradient-20)"/><path id="_Compound_Path_5" data-name="&lt;Compound Path&gt;" d="M364.32,607.61l-8.51-21.12a0.88,0.88,0,0,0-.48-0.48l-0.12-.05,9,22.28a0.93,0.93,0,0,1,.05.19l0,0A0.88,0.88,0,0,0,364.32,607.61Z" transform="translate(-348.44 -583.27)" style="fill:url(#linear-gradient-21)"/><path id="_Path_23" data-name="&lt;Path&gt;" d="M362.24,611.76h26.89a0.88,0.88,0,0,0-.65-0.28H362.41Z" transform="translate(-348.44 -583.27)" style="fill:url(#linear-gradient-22)"/></g></svg>