<?xml version="1.0" encoding="utf-8"?>
<!-- Generator: Adobe Illustrator 25.4.1, SVG Export Plug-In . SVG Version: 6.00 Build 0)  -->
<svg version="1.1" id="Layer_1" xmlns="http://www.w3.org/2000/svg" xmlns:xlink="http://www.w3.org/1999/xlink" x="0px" y="0px"
	 viewBox="0 0 24 24" style="enable-background:new 0 0 24 24;" xml:space="preserve">
<style type="text/css">
	.st0{fill:#2B2B2B;}
</style>
<path class="st0" d="M18.3,17.7H7.6c-1,0-1.9-0.4-2.6-1.1c-0.7-0.7-1-1.7-0.9-2.7l0.8-10c0-0.3-0.1-0.6-0.3-0.8S4.1,2.7,3.8,2.7H2.1
	C1.7,2.7,1.3,2.4,1.3,2s0.3-0.8,0.8-0.8h1.7c0.7,0,1.4,0.3,1.9,0.8c0.3,0.3,0.5,0.7,0.6,1h12.5c1,0,1.9,0.4,2.6,1.1
	c0.7,0.7,1,1.7,0.9,2.7l-0.5,7.5C21.7,16.2,20.1,17.7,18.3,17.7z M6.3,4.6L5.6,14c-0.1,0.6,0.1,1.1,0.5,1.6C6.5,16,7,16.2,7.6,16.2
	h10.7c1,0,2-0.9,2.1-1.9l0.5-7.5c0-0.6-0.2-1.2-0.5-1.6c-0.4-0.4-0.9-0.7-1.5-0.7L6.3,4.6L6.3,4.6z"/>
<path class="st0" d="M16.4,22.7c-1.1,0-2-0.9-2-2s0.9-2,2-2s2,0.9,2,2S17.5,22.7,16.4,22.7z M16.4,20.2c-0.3,0-0.5,0.2-0.5,0.5
	s0.2,0.5,0.5,0.5c0.3,0,0.5-0.2,0.5-0.5S16.7,20.2,16.4,20.2z"/>
<path class="st0" d="M8.4,22.7c-1.1,0-2-0.9-2-2s0.9-2,2-2s2,0.9,2,2S9.5,22.7,8.4,22.7z M8.4,20.2c-0.3,0-0.5,0.2-0.5,0.5
	s0.2,0.5,0.5,0.5s0.5-0.2,0.5-0.5S8.7,20.2,8.4,20.2z"/>
</svg>
