<?xml version="1.0" encoding="utf-8"?><!-- Uploaded to: SVG Repo, www.svgrepo.com, Generator: SVG Repo Mixer Tools -->
<svg fill="currentColor" width="800px" height="800px" viewBox="0 0 24 24" xmlns="http://www.w3.org/2000/svg"><path d="M2.293,18.707a1,1,0,0,1,0-1.414l3-3a1,1,0,0,1,1.262-.125l2.318,1.545,2.42-2.42a1,1,0,0,1,1.414,1.414l-3,3a1,1,0,0,1-1.262.125L6.127,16.287l-2.42,2.42a1,1,0,0,1-1.414,0ZM22,3V21a1,1,0,0,1-1,1H3a1,1,0,0,1,0-2H20V8H4v4a1,1,0,0,1-2,0V3A1,1,0,0,1,3,2H21A1,1,0,0,1,22,3ZM4,6H20V4H4Zm10.707,6.707,1-1a1,1,0,0,0-1.414-1.414l-1,1a1,1,0,1,0,1.414,1.414Z"/></svg>
