<?xml version="1.0" encoding="utf-8"?><!-- Uploaded to: SVG Repo, www.svgrepo.com, Generator: SVG Repo Mixer Tools -->
<svg width="800px" height="800px" viewBox="0 0 24 24" fill="none" xmlns="http://www.w3.org/2000/svg">
<path fill-rule="evenodd" clip-rule="evenodd" d="M1 6C1 4.89543 1.89543 4 3 4H14C15.1046 4 16 4.89543 16 6V7H19C21.2091 7 23 8.79086 23 11V12V15V17C23.5523 17 24 17.4477 24 18C24 18.5523 23.5523 19 23 19H22H18.95C18.9828 19.1616 19 19.3288 19 19.5C19 20.8807 17.8807 22 16.5 22C15.1193 22 14 20.8807 14 19.5C14 19.3288 14.0172 19.1616 14.05 19H7.94999C7.98278 19.1616 8 19.3288 8 19.5C8 20.8807 6.88071 22 5.5 22C4.11929 22 3 20.8807 3 19.5C3 19.3288 3.01722 19.1616 3.05001 19H2H1C0.447715 19 0 18.5523 0 18C0 17.4477 0.447715 17 1 17V6ZM16.5 19C16.2239 19 16 19.2239 16 19.5C16 19.7761 16.2239 20 16.5 20C16.7761 20 17 19.7761 17 19.5C17 19.2239 16.7761 19 16.5 19ZM16.5 17H21V15V13H19C18.4477 13 18 12.5523 18 12C18 11.4477 18.4477 11 19 11H21C21 9.89543 20.1046 9 19 9H16V17H16.5ZM14 17H5.5H3V6H14V8V17ZM5 19.5C5 19.2239 5.22386 19 5.5 19C5.77614 19 6 19.2239 6 19.5C6 19.7761 5.77614 20 5.5 20C5.22386 20 5 19.7761 5 19.5Z" fill="currentColor"/>
</svg>
