<?xml version="1.0" encoding="iso-8859-1"?>
<!-- Uploaded to: SVG Repo, www.svgrepo.com, Generator: SVG Repo Mixer Tools -->
<svg fill="currentColor" version="1.1" id="Layer_1" xmlns="http://www.w3.org/2000/svg" xmlns:xlink="http://www.w3.org/1999/xlink"
	 viewBox="0 0 512 512" xml:space="preserve">
<g>
	<g>
		<path d="M0.217,56.169v335.715h207.824V56.169H0.217z M16.204,375.899V72.156h175.85v303.742H16.204z"/>
	</g>
</g>
<g>
	<g>
		<polygon points="124.096,0 124.096,48.461 139.898,48.461 139.898,15.802 420.129,15.802 420.129,496.198 139.898,496.198
			139.898,400.329 124.096,400.329 124.096,512 435.931,512 435.931,0 		"/>
	</g>
</g>
<g>
	<g>
		<rect x="331.631" y="40.033" width="64.263" height="15.802"/>
	</g>
</g>
<g>
	<g>
		<rect x="235.762" y="112.724" width="15.802" height="15.802"/>
	</g>
</g>
<g>
	<g>
		<rect x="268.421" y="112.724" width="127.473" height="15.802"/>
	</g>
</g>
<g>
	<g>
		<rect x="235.762" y="144.329" width="15.802" height="15.802"/>
	</g>
</g>
<g>
	<g>
		<rect x="268.421" y="144.329" width="127.473" height="15.802"/>
	</g>
</g>
<g>
	<g>
		<rect x="235.762" y="175.934" width="15.802" height="15.802"/>
	</g>
</g>
<g>
	<g>
		<rect x="268.421" y="175.934" width="127.473" height="15.802"/>
	</g>
</g>
<g>
	<g>
		<rect x="235.762" y="208.593" width="15.802" height="15.802"/>
	</g>
</g>
<g>
	<g>
		<rect x="268.421" y="208.593" width="127.473" height="15.802"/>
	</g>
</g>
<g>
	<g>
		<rect x="235.762" y="240.198" width="15.802" height="15.802"/>
	</g>
</g>
<g>
	<g>
		<rect x="268.421" y="240.198" width="127.473" height="15.802"/>
	</g>
</g>
<g>
	<g>
		<rect x="235.762" y="271.802" width="15.802" height="15.802"/>
	</g>
</g>
<g>
	<g>
		<rect x="268.421" y="271.802" width="127.473" height="15.802"/>
	</g>
</g>
<g>
	<g>
		<rect x="235.762" y="304.461" width="15.802" height="15.802"/>
	</g>
</g>
<g>
	<g>
		<rect x="268.421" y="304.461" width="127.473" height="15.802"/>
	</g>
</g>
<g>
	<g>
		<rect x="235.762" y="336.066" width="15.802" height="15.802"/>
	</g>
</g>
<g>
	<g>
		<rect x="268.421" y="336.066" width="127.473" height="15.802"/>
	</g>
</g>
<g>
	<g>
		<rect x="291.598" y="376.099" width="24.23" height="15.802"/>
	</g>
</g>
<g>
	<g>
		<rect x="331.631" y="376.099" width="64.263" height="15.802"/>
	</g>
</g>
<g>
	<g>
		<rect x="291.598" y="400.329" width="24.23" height="15.802"/>
	</g>
</g>
<g>
	<g>
		<rect x="331.631" y="400.329" width="64.263" height="15.802"/>
	</g>
</g>
<g>
	<g>
		<rect x="331.631" y="423.506" width="64.263" height="15.802"/>
	</g>
</g>
<g>
	<g>
		<rect x="164.124" y="463.539" width="87.44" height="15.802"/>
	</g>
</g>
<g>
	<g>
		<path d="M444.359,135.857v80.11h15.802v-64.218l11.655,0.066v240.07h39.967V136.101L444.359,135.857z M495.796,375.899h-7.993
			v-223.81h7.993V375.899z"/>
	</g>
</g>
<g>
	<g>
		<polygon points="471.75,88.494 471.75,128.527 487.553,128.527 487.553,104.296 495.981,104.296 495.981,128.527 511.783,128.527
			511.783,88.494 		"/>
	</g>
</g>
<g>
	<g>
		<polygon points="495.981,423.506 495.981,438.72 492.384,451.107 487.553,438.393 487.553,423.506 471.75,423.506 471.75,441.294
			483.407,471.967 502.783,471.967 511.783,440.967 511.783,423.506 		"/>
	</g>
</g>
<g>
	<g>
		<rect x="471.746" y="400.329" width="40.033" height="15.802"/>
	</g>
</g>
<g>
	<g>
		<path d="M24.197,80.149V256h159.865V80.149H24.197z M168.075,240.013H40.184V96.136h127.891V240.013z"/>
	</g>
</g>
<g>
	<g>
		<rect x="28.227" y="271.802" width="15.802" height="15.802"/>
	</g>
</g>
<g>
	<g>
		<rect x="59.832" y="271.802" width="15.802" height="15.802"/>
	</g>
</g>
<g>
	<g>
		<rect x="92.487" y="271.802" width="15.802" height="15.802"/>
	</g>
</g>
<g>
	<g>
		<rect x="124.092" y="271.802" width="15.802" height="15.802"/>
	</g>
</g>
<g>
	<g>
		<rect x="28.227" y="296.033" width="15.802" height="15.802"/>
	</g>
</g>
<g>
	<g>
		<rect x="59.832" y="296.033" width="15.802" height="15.802"/>
	</g>
</g>
<g>
	<g>
		<rect x="92.487" y="296.033" width="15.802" height="15.802"/>
	</g>
</g>
<g>
	<g>
		<rect x="124.092" y="296.033" width="15.802" height="15.802"/>
	</g>
</g>
<g>
	<g>
		<rect x="28.227" y="320.263" width="15.802" height="15.802"/>
	</g>
</g>
<g>
	<g>
		<rect x="59.832" y="320.263" width="15.802" height="15.802"/>
	</g>
</g>
<g>
	<g>
		<rect x="92.487" y="320.263" width="15.802" height="15.802"/>
	</g>
</g>
<g>
	<g>
		<rect x="124.092" y="320.263" width="15.802" height="15.802"/>
	</g>
</g>
<g>
	<g>
		<rect x="28.227" y="344.494" width="15.802" height="15.802"/>
	</g>
</g>
<g>
	<g>
		<rect x="59.832" y="344.494" width="15.802" height="15.802"/>
	</g>
</g>
<g>
	<g>
		<rect x="92.487" y="344.494" width="15.802" height="15.802"/>
	</g>
</g>
<g>
	<g>
		<rect x="124.092" y="344.494" width="15.802" height="15.802"/>
	</g>
</g>
<g>
	<g>
		<rect x="155.696" y="271.802" width="15.802" height="40.033"/>
	</g>
</g>
<g>
	<g>
		<rect x="155.696" y="320.263" width="15.802" height="40.033"/>
	</g>
</g>
<g>
	<g>
		<rect x="92.487" y="104.296" width="15.802" height="15.802"/>
	</g>
</g>
<g>
	<g>
		<rect x="115.664" y="104.296" width="16.856" height="15.802"/>
	</g>
</g>
<g>
	<g>
		<rect x="139.894" y="104.296" width="15.802" height="15.802"/>
	</g>
</g>
</svg>
