<svg fill="currentColor" class="me-3" xmlns="http://www.w3.org/2000/svg" height="24" viewBox="0 96 960 960" width="24"><path d="M480 976q-83 0-156-31.5T197 859q-54-54-85.5-127T80 576q0-83 31.5-156T197 293q54-54 127-85.5T480 176q83 0 156 31.5T763 293q54 54 85.5 127T880 576q0 83-31.5 156T763 859q-54 54-127 85.5T480 976Zm-40-82v-78q-33 0-56.5-23.5T360 736v-40L168 504q-3 18-5.5 36t-2.5 36q0 121 79.5 212T440 894Zm276-102q20-22 36-47.5t26.5-53q10.5-27.5 16-56.5t5.5-59q0-98-54.5-179T600 280v16q0 33-23.5 56.5T520 376h-80v80q0 17-11.5 28.5T400 496h-80v80h240q17 0 28.5 11.5T600 616v120h40q26 0 47 15.5t29 40.5Z"></path></svg>
