<?xml version="1.0" encoding="utf-8"?>
<!-- Generator: Adobe Illustrator 25.4.1, SVG Export Plug-In . SVG Version: 6.00 Build 0)  -->
<svg version="1.1" xmlns="http://www.w3.org/2000/svg" xmlns:xlink="http://www.w3.org/1999/xlink" x="0px" y="0px"
	 viewBox="0 0 24 24" style="enable-background:new 0 0 24 24;" xml:space="preserve">
<style type="text/css">
	.st0{fill:#2B2B2B;}
</style>
<g>
	<path d="M12,15.8c-2.1,0-3.8-1.7-3.8-3.8S9.9,8.2,12,8.2s3.8,1.7,3.8,3.8S14.1,15.8,12,15.8z M12,9.8
		c-1.2,0-2.2,1-2.2,2.2s1,2.2,2.2,2.2s2.2-1,2.2-2.2S13.2,9.8,12,9.8z"/>
	<path d="M15.3,22.3c-0.2,0-0.4,0-0.6-0.1c-0.6-0.2-1.1-0.6-1.5-1.1l-0.1-0.2c-0.6-1-1.4-1-2,0l-0.1,0.2
		c-0.3,0.6-0.9,1-1.5,1.1c-0.6,0.2-1.3,0.1-1.8-0.2l-1.7-1c-0.6-0.4-1-0.9-1.2-1.6c-0.2-0.7-0.1-1.4,0.3-2c0.3-0.5,0.4-1,0.2-1.3
		C5,15.8,4.6,15.6,4,15.6c-1.5,0-2.7-1.2-2.7-2.7V11c0-1.5,1.2-2.6,2.7-2.6c0.6,0,1-0.2,1.2-0.5C5.4,7.6,5.3,7.1,5,6.6
		C4.7,6,4.6,5.3,4.7,4.6C4.8,3.9,5.2,3.4,5.9,3l1.7-1c1.1-0.7,2.6-0.3,3.3,0.9L11,3.1c0.6,1,1.4,1,2,0l0.1-0.2
		c0.7-1.2,2.2-1.5,3.3-0.9l1.7,1c0.6,0.3,1.1,0.9,1.2,1.6c0.2,0.7,0.1,1.4-0.3,2c-0.3,0.5-0.4,1-0.2,1.3c0.2,0.3,0.6,0.5,1.2,0.5
		c1.5,0,2.6,1.2,2.6,2.6v1.8c0,1.5-1.2,2.6-2.6,2.6c-0.6,0-1,0.2-1.2,0.5c-0.2,0.3-0.1,0.8,0.2,1.3c0.4,0.6,0.5,1.3,0.3,2
		c-0.2,0.7-0.6,1.3-1.2,1.6l-1.7,1C16.1,22.2,15.7,22.3,15.3,22.3z M12.1,18.6c0.9,0,1.7,0.6,2.3,1.6l0.1,0.2
		c0.1,0.2,0.3,0.4,0.6,0.4c0.2,0.1,0.5,0,0.7-0.1l1.7-1c0.3-0.1,0.5-0.4,0.5-0.7c0.1-0.3,0-0.6-0.1-0.9c-0.6-1-0.6-2-0.2-2.8
		c0.4-0.7,1.4-1.2,2.5-1.2c0.6,0,1.1-0.5,1.1-1.2V11c0-0.6-0.5-1.2-1.1-1.2c-1.1,0-2-0.4-2.5-1.2C17.3,8,17.3,7,17.9,6
		c0.2-0.3,0.2-0.6,0.1-0.9c-0.1-0.3-0.3-0.5-0.5-0.7l-1.7-1c-0.4-0.3-1-0.1-1.3,0.3l-0.1,0.2c-0.6,1-1.4,1.6-2.3,1.6
		s-1.7-0.6-2.3-1.6L9.6,3.6C9.3,3.2,8.8,3.1,8.4,3.3l-1.7,1C6.4,4.6,6.2,4.8,6.1,5.1C6,5.4,6,5.7,6.2,6c0.6,1,0.6,2,0.2,2.8
		S5,10,3.9,10c-0.6,0-1.2,0.5-1.2,1.1v1.8c0,0.6,0.5,1.2,1.2,1.2c1.1,0,2,0.4,2.5,1.2c0.4,0.7,0.4,1.7-0.2,2.7C6,18.4,6,18.7,6.1,19
		c0.1,0.3,0.3,0.5,0.5,0.7l1.7,1c0.2,0.1,0.5,0.2,0.7,0.1s0.4-0.2,0.6-0.4l0.1-0.3C10.3,19.2,11.1,18.6,12.1,18.6z"/>
</g>
</svg>
