<?xml version="1.0" encoding="utf-8"?>
<!-- Generator: Adobe Illustrator 25.4.1, SVG Export Plug-In . SVG Version: 6.00 Build 0)  -->
<svg version="1.1" id="Layer_1" xmlns="http://www.w3.org/2000/svg" xmlns:xlink="http://www.w3.org/1999/xlink" x="0px" y="0px"
	 viewBox="0 0 24 24" style="enable-background:new 0 0 24 24;" xml:space="preserve">
<style type="text/css">
	.st0{fill:#292D32;}
</style>
<path class="st0" d="M12,15.8c-2.1,0-3.8-1.7-3.8-3.8S9.9,8.2,12,8.2s3.8,1.7,3.8,3.8S14.1,15.8,12,15.8z M12,9.8
	c-1.2,0-2.2,1-2.2,2.2s1,2.2,2.2,2.2s2.2-1,2.2-2.2S13.2,9.8,12,9.8z"/>
<path class="st0" d="M15.2,22.2c-0.2,0-0.4,0-0.6-0.1c-0.6-0.2-1.1-0.6-1.5-1.1L13,20.8c-0.6-1-1.4-1-2,0L10.9,21
	c-0.3,0.6-0.9,1-1.5,1.1c-0.6,0.2-1.3,0.1-1.8-0.2l-1.7-1c-0.6-0.4-1-0.9-1.2-1.6c-0.2-0.7-0.1-1.4,0.3-2c0.3-0.5,0.4-1,0.2-1.3
	c-0.2-0.3-0.6-0.5-1.2-0.5c-1.5,0-2.7-1.2-2.7-2.7v-1.8c0-1.5,1.2-2.6,2.7-2.6c0.6,0,1-0.2,1.2-0.5s0.1-0.8-0.2-1.3
	c-0.3-0.6-0.4-1.3-0.3-2C4.8,4,5.2,3.5,5.9,3.1l1.7-1c1.1-0.7,2.6-0.3,3.3,0.9L11,3.2c0.6,1,1.4,1,2,0L13.1,3
	c0.7-1.2,2.2-1.5,3.3-0.9l1.7,1c0.6,0.3,1.1,0.9,1.2,1.6c0.2,0.7,0.1,1.4-0.3,2c-0.3,0.5-0.4,1-0.2,1.3s0.6,0.5,1.2,0.5
	c1.5,0,2.6,1.2,2.6,2.6v1.8c0,1.5-1.2,2.6-2.6,2.6c-0.6,0-1,0.2-1.2,0.5c-0.2,0.3-0.1,0.8,0.2,1.3c0.4,0.6,0.5,1.3,0.3,2
	c-0.2,0.7-0.6,1.3-1.2,1.6l-1.7,1C16,22.1,15.6,22.2,15.2,22.2z M12,18.5c0.9,0,1.7,0.6,2.3,1.6l0.1,0.2c0.1,0.2,0.3,0.4,0.6,0.4
	c0.2,0.1,0.5,0,0.7-0.1l1.7-1c0.3-0.1,0.5-0.4,0.5-0.7c0.1-0.3,0-0.6-0.1-0.9c-0.6-1-0.6-2-0.2-2.8C18,14.5,19,14,20.1,14
	c0.6,0,1.1-0.5,1.1-1.2v-1.8c0-0.6-0.5-1.2-1.1-1.2c-1.1,0-2-0.4-2.5-1.2C17.2,8,17.2,7,17.8,6C18,5.7,18,5.4,17.9,5.1
	c-0.1-0.3-0.3-0.5-0.5-0.7l-1.7-1c-0.4-0.3-1-0.1-1.3,0.3l-0.1,0.2c-0.6,1-1.4,1.6-2.3,1.6c-0.9,0-1.7-0.6-2.3-1.6L9.6,3.7
	C9.3,3.3,8.8,3.2,8.4,3.4l-1.7,1C6.4,4.6,6.2,4.8,6.1,5.1C6,5.4,6,5.7,6.2,6c0.6,1,0.6,2,0.2,2.8S5,10,3.9,10
	c-0.6,0-1.2,0.5-1.2,1.1v1.8c0,0.6,0.5,1.2,1.2,1.2c1.1,0,2,0.4,2.5,1.2C6.8,16,6.8,17,6.2,18C6,18.3,6,18.6,6.1,18.9
	c0.1,0.3,0.3,0.5,0.5,0.7l1.7,1c0.2,0.1,0.5,0.2,0.7,0.1c0.2-0.1,0.4-0.2,0.6-0.4L9.7,20C10.3,19.1,11.1,18.5,12,18.5z"/>
</svg>
