<?xml version="1.0" encoding="utf-8"?>
<!-- Generator: Adobe Illustrator 23.0.3, SVG Export Plug-In . SVG Version: 6.00 Build 0)  -->
<svg version="1.1" xmlns="http://www.w3.org/2000/svg" xmlns:xlink="http://www.w3.org/1999/xlink" x="0px" y="0px"
	 viewBox="0 0 45 30" style="enable-background:new 0 0 45 30;" xml:space="preserve">
<style type="text/css">
	.st0{fill:#2B2B2B;}
</style>
<path d="M0.2,15.1h8.6v-1.9H0.2V15.1z M2.2,10.3h6.6V8.4H2.2V10.3z M2.2,19.8h6.6v-1.9H2.2V19.8z M36.8,22.6
	c-0.2,0.2-0.3,0.4-0.3,0.7c0,0.2,0.1,0.5,0.3,0.7c0.2,0.2,0.4,0.3,0.7,0.3c0.2,0,0.5-0.1,0.7-0.3c0.2-0.2,0.3-0.4,0.3-0.7
	c0-0.2-0.1-0.5-0.3-0.7C37.8,22.2,37.1,22.2,36.8,22.6z M39.9,8.4h-7.2V4.1H10.9v20.1H15c0.4,1.5,1.8,2.6,3.4,2.6
	c1.6,0,3-1.1,3.4-2.6H34c0.4,1.5,1.8,2.6,3.4,2.6s3-1.1,3.4-2.6h3.7V16L39.9,8.4z M18.4,24.9c-0.9,0-1.7-0.7-1.7-1.7
	c0-0.9,0.7-1.7,1.7-1.7c0.9,0,1.7,0.7,1.7,1.7C20.1,24.1,19.3,24.9,18.4,24.9z M30.8,22.3h-9c-0.4-1.5-1.8-2.6-3.4-2.6
	c-1.6,0-3,1.1-3.4,2.6h-2.2V6h18V22.3z M40.3,12.7l1.7,2.7h-1.7V12.7z M37.5,24.9c-0.9,0-1.7-0.7-1.7-1.7c0-0.9,0.7-1.7,1.7-1.7
	s1.7,0.7,1.7,1.7C39.1,24.1,38.4,24.9,37.5,24.9z M42.7,22.3h-1.8c-0.4-1.5-1.8-2.6-3.4-2.6c-1.6,0-3,1.1-3.4,2.6h-1.4v-12h5.7v6.9
	h4.3V22.3z M17.7,22.6c-0.2,0.2-0.3,0.4-0.3,0.7c0,0.2,0.1,0.5,0.3,0.7c0.2,0.2,0.4,0.3,0.7,0.3c0.3,0,0.5-0.1,0.7-0.3
	c0.2-0.2,0.3-0.4,0.3-0.7c0-0.2-0.1-0.5-0.3-0.7C18.7,22.2,18.1,22.2,17.7,22.6z M19,16.8c0.6,0.3,1.4,0.7,2.6,0.8v0.9
	c0,0.1,0.1,0.2,0.2,0.2h0.5c0.1,0,0.2-0.1,0.2-0.2v-0.9c0.7-0.1,1.2-0.3,1.7-0.6c0.6-0.5,0.9-1.1,0.9-1.9c0-0.9-0.4-1.5-1-1.8
	c-0.7-0.5-1.6-0.6-2.3-0.9c-0.6-0.2-1-0.4-1-0.9c0-0.2,0.1-0.4,0.3-0.6c0.2-0.1,0.5-0.2,0.9-0.2c0.8,0,1.5,0.3,2,0.6
	c0.1,0.1,0.2,0,0.2-0.1l0.5-1.2c0.1-0.1,0-0.2-0.1-0.2c-0.5-0.3-1.2-0.5-2.2-0.6V8.3c0-0.1-0.1-0.2-0.2-0.2h-0.5
	c-0.1,0-0.2,0.1-0.2,0.2v0.9c-0.7,0.1-1.3,0.3-1.7,0.6c-0.6,0.4-0.9,1-0.9,1.7c0,0.9,0.4,1.5,1,1.9c0.7,0.4,1.5,0.6,2.1,0.8
	c0.6,0.2,1,0.5,1,1c0,0.2-0.1,0.5-0.3,0.7c-0.2,0.2-0.5,0.2-0.9,0.2c-0.9,0-1.6-0.4-2.2-0.7c-0.1-0.1-0.2,0-0.2,0.1l-0.6,1.1
	C18.8,16.7,18.9,16.8,19,16.8z"/>
</svg>
