<svg xmlns="http://www.w3.org/2000/svg" width="100" height="100" fill-rule="evenodd" clip-rule="evenodd" image-rendering="optimizeQuality" shape-rendering="geometricPrecision" text-rendering="geometricPrecision" viewBox="0 0 134 134"><rect width="134" height="134" fill="#f58220" rx="13" ry="13"/><path fill="#fff" fill-rule="nonzero" d="M38 85c6,0 11,5 11,10 0,6 -5,11 -11,11 -5,0 -10,-5 -10,-11 0,-5 5,-10 10,-10z"/><path fill="#fff" fill-rule="nonzero" d="M28 69c10,0 19,4 26,11 6,7 10,16 10,26l15 0c0,-29 -23,-52 -51,-52l0 15z"/><path fill="#fff" fill-rule="nonzero" d="M28 43c35,0 63,28 63,63l15 0c0,-43 -35,-78 -78,-78l0 15z"/></svg>