<?xml version="1.0" encoding="utf-8"?>
<!-- Generator: Adobe Illustrator 23.0.3, SVG Export Plug-In . SVG Version: 6.00 Build 0)  -->
<svg version="1.1" id="Layer_1" xmlns="http://www.w3.org/2000/svg" xmlns:xlink="http://www.w3.org/1999/xlink" x="0px" y="0px"
	 viewBox="0 0 36 36" style="enable-background:new 0 0 36 36;" xml:space="preserve">
<style type="text/css">
	.st0{fill:#2B2B2B;}
</style>
<g>
	<path class="st0" d="M27.8,14.3l0.1,0.6c0,2.2-0.5,4.3-1.6,6.4c-1.1,2.2-2.7,3.9-4.7,5.2c-2.2,1.4-4.7,2.2-7.5,2.2
		c-2.7,0-5.1-0.7-7.4-2.2c0.4,0,0.8,0.1,1.2,0.1c2.3,0,4.2-0.7,6-2.1c-1,0-1.9-0.4-2.8-1s-1.4-1.4-1.7-2.4c0.3,0.1,0.6,0.1,0.9,0.1
		c0.5,0,0.9-0.1,1.3-0.2c-1.1-0.2-2-0.8-2.7-1.7c-0.7-0.9-1.1-1.9-1.1-3.1v-0.1c0.7,0.4,1.4,0.6,2.2,0.6c-0.6-0.4-1.1-1-1.5-1.7
		c-0.4-0.7-0.6-1.5-0.6-2.3c0-0.9,0.2-1.7,0.6-2.4c1.2,1.5,2.7,2.7,4.4,3.6s3.6,1.4,5.6,1.5c-0.1-0.4-0.2-0.8-0.2-1.1
		c0-1.3,0.5-2.5,1.4-3.4s2.1-1.4,3.4-1.4c1.4,0,2.6,0.5,3.6,1.5c1.1-0.2,2.1-0.6,3.1-1.2c-0.4,1.2-1.1,2.1-2.1,2.7
		c1-0.1,1.9-0.4,2.7-0.8C29.5,12.8,28.7,13.6,27.8,14.3z"/>
</g>
</svg>
