<svg id="Layer_1" data-name="Layer 1" xmlns="http://www.w3.org/2000/svg" viewBox="0 0 46.22 37.61"><title>17</title><g id="_Group_" data-name="&lt;Group&gt;"><rect id="_Rectangle_" data-name="&lt;Rectangle&gt;" width="46.22" height="37.61" rx="12" ry="12" style="fill:#00acef"/><path id="_Compound_Path_" data-name="&lt;Compound Path&gt;" d="M879.27,406.64a18.83,18.83,0,0,1-8.66-2.31,0.91,0.91,0,0,1-.39-1.08,0.9,0.9,0,0,1,1-.6,7.58,7.58,0,0,0,5.3-1.1c-2.37-1.8-7.67-6.86-4.42-14.37a0.91,0.91,0,0,1,.76-0.55,0.93,0.93,0,0,1,.84.42c0.1,0.15,2.38,3.58,8.08,4.3a5.66,5.66,0,0,1,5.66-5.63,5.6,5.6,0,0,1,3.73,1.41c1.5-.16,2.67-0.19,2.73-0.2a1,1,0,0,1,.35.06,0.92,0.92,0,0,1,.64,0,0.91,0.91,0,0,1,.53,1.17,11.28,11.28,0,0,1-2.15,3.65c0.28,2.63-.37,6.49-4.58,10.82A12.7,12.7,0,0,1,879.27,406.64Zm-4.3-2.43c3.26,1,8.27,1.4,12.39-2.84s4.38-7.59,4-9.8a0.91,0.91,0,0,1,.43-0.93,5.2,5.2,0,0,0,1.33-1.86c-0.55,0-1.34.09-2.19,0.19a0.93,0.93,0,0,1-.76-0.27,3.83,3.83,0,0,0-6.59,2.66,3.53,3.53,0,0,0,.08.78,0.91,0.91,0,0,1-.94,1.11,14.33,14.33,0,0,1-9.49-3.94c-2,7.08,4.9,11.18,5.22,11.37a0.91,0.91,0,0,1,.23,1.39A8.07,8.07,0,0,1,875,404.22Z" transform="translate(-859.71 -377.38)" style="fill:#fff"/></g></svg>