<?xml version="1.0" encoding="utf-8"?>
<!-- Generator: Adobe Illustrator 25.4.1, SVG Export Plug-In . SVG Version: 6.00 Build 0)  -->
<svg version="1.1" xmlns="http://www.w3.org/2000/svg" xmlns:xlink="http://www.w3.org/1999/xlink" x="0px" y="0px"
	 viewBox="0 0 24 24" style="enable-background:new 0 0 24 24;" xml:space="preserve">
<style type="text/css">
	.st0{fill:none;stroke:#2B2B2B;stroke-miterlimit:10;}
</style>
<g>
	<path d="M19.1,8.4l0,0.5c0,1.7-0.4,3.3-1.2,4.9c-0.9,1.7-2,3-3.6,3.9c-1.7,1.1-3.6,1.6-5.7,1.6c-2,0-3.9-0.5-5.6-1.6
		c0.3,0,0.6,0,0.9,0c1.7,0,3.2-0.5,4.5-1.6c-0.8,0-1.5-0.3-2.1-0.7c-0.6-0.5-1.1-1.1-1.3-1.8c0.2,0.1,0.5,0.1,0.7,0.1
		c0.3,0,0.7,0,1-0.1c-0.8-0.2-1.5-0.6-2.1-1.3c-0.6-0.7-0.8-1.4-0.8-2.3v0c0.5,0.3,1.1,0.4,1.6,0.4C4.9,10,4.5,9.5,4.3,9
		C4,8.5,3.8,7.9,3.8,7.2C3.8,6.6,4,6,4.3,5.4c0.9,1.1,2,2,3.4,2.7c1.3,0.7,2.7,1.1,4.2,1.1c-0.1-0.3-0.1-0.6-0.1-0.8
		c0-1,0.4-1.9,1.1-2.6s1.6-1.1,2.6-1.1c1.1,0,2,0.4,2.7,1.2C19,5.7,19.7,5.4,20.5,5c-0.3,0.9-0.8,1.6-1.6,2c0.7-0.1,1.4-0.3,2.1-0.6
		C20.4,7.2,19.8,7.9,19.1,8.4z"/>
</g>
</svg>
