<svg id="Layer_1" data-name="Layer 1" xmlns="http://www.w3.org/2000/svg" viewBox="0 0 55.77 36.27"><title>8</title><g id="_Group_" data-name="&lt;Group&gt;"><g id="_Group_2" data-name="&lt;Group&gt;"><path id="_Path_" data-name="&lt;Path&gt;" d="M507.53,621H456.6a3,3,0,0,1-3-3V587.73a3,3,0,0,1,3-3h49.77a3,3,0,0,1,3,3v31.43A1.87,1.87,0,0,1,507.53,621Z" transform="translate(-453.6 -584.73)" style="fill:#01a2a6"/></g><g id="_Group_3" data-name="&lt;Group&gt;"><path id="_Path_2" data-name="&lt;Path&gt;" d="M479.72,600.21a1.6,1.6,0,0,1-1.15.47,1.51,1.51,0,0,1-1.62-1.59,1.55,1.55,0,0,1,1.62-1.62,1.58,1.58,0,0,1,1.12.47l-0.37.37a1.06,1.06,0,0,0-.75-0.28,1,1,0,0,0-1.06,1.06,1,1,0,0,0,1.06,1,1.08,1.08,0,0,0,.78-0.31Z" transform="translate(-453.6 -584.73)" style="fill:#fff"/><path id="_Compound_Path_" data-name="&lt;Compound Path&gt;" d="M482.78,600.62H482.1l-0.9-1h-0.56v1h-0.56v-2.28a0.78,0.78,0,0,1,.78-0.78h0.69a1,1,0,0,1,1.09,1,0.92,0.92,0,0,1-.78,1l0.94,1v0.06h0Zm-2.15-2.53v1h0.87a0.5,0.5,0,1,0,0-1h-0.87v0Z" transform="translate(-453.6 -584.73)" style="fill:#fff"/><path id="_Path_3" data-name="&lt;Path&gt;" d="M485.28,600.62h-1.5a0.78,0.78,0,0,1-.78-0.78v-1.5a0.78,0.78,0,0,1,.78-0.78h1.5v0.56h-1.72v0.72h1.65v0.53h-1.65v0.69h1.72v0.56Z" transform="translate(-453.6 -584.73)" style="fill:#fff"/><path id="_Compound_Path_2" data-name="&lt;Compound Path&gt;" d="M488.43,599.05a1.46,1.46,0,0,1-1.53,1.56h-1.19v-3.06h1.19A1.47,1.47,0,0,1,488.43,599.05Zm-2.15,1h0.62a0.92,0.92,0,0,0,1-1,0.89,0.89,0,0,0-1-.94h-0.62v1.93Z" transform="translate(-453.6 -584.73)" style="fill:#fff"/><path id="_Path_4" data-name="&lt;Path&gt;" d="M488.87,600.62v-3.06h0.56v3.06h-0.56Z" transform="translate(-453.6 -584.73)" style="fill:#fff"/><path id="_Path_5" data-name="&lt;Path&gt;" d="M490.9,598.09h-1v-0.53h2.53v0.53h-1v2.53h-0.56v-2.53h0Z" transform="translate(-453.6 -584.73)" style="fill:#fff"/><path id="_Path_6" data-name="&lt;Path&gt;" d="M496.36,600.21a1.6,1.6,0,0,1-1.15.47,1.51,1.51,0,0,1-1.62-1.59,1.55,1.55,0,0,1,1.62-1.62,1.58,1.58,0,0,1,1.12.47l-0.37.37a1.06,1.06,0,0,0-.75-0.28,1,1,0,0,0-1.06,1.06,1,1,0,0,0,1.06,1,1.08,1.08,0,0,0,.78-0.31Z" transform="translate(-453.6 -584.73)" style="fill:#fff"/><path id="_Compound_Path_3" data-name="&lt;Compound Path&gt;" d="M498.73,600h-1.59l-0.25.56h-0.62l1.37-3.06h0.62l1.37,3.06H499Zm-0.81-1.84-0.56,1.31h1.12Z" transform="translate(-453.6 -584.73)" style="fill:#fff"/><path id="_Compound_Path_4" data-name="&lt;Compound Path&gt;" d="M502.6,600.62h-0.69l-0.9-1h-0.56v1h-0.56v-2.28a0.78,0.78,0,0,1,.78-0.78h0.69a1,1,0,0,1,1.09,1,0.92,0.92,0,0,1-.78,1l0.94,1v0.06h0Zm-2.15-2.53v1h0.87a0.5,0.5,0,1,0,0-1h-0.87v0Z" transform="translate(-453.6 -584.73)" style="fill:#fff"/><path id="_Compound_Path_5" data-name="&lt;Compound Path&gt;" d="M505.5,599.05a1.46,1.46,0,0,1-1.53,1.56h-1.19v-3.06H504A1.43,1.43,0,0,1,505.5,599.05Zm-2.15,1H504a0.92,0.92,0,0,0,1-1,0.89,0.89,0,0,0-1-.94h-0.62v1.93Z" transform="translate(-453.6 -584.73)" style="fill:#fff"/></g><g id="_Group_4" data-name="&lt;Group&gt;"><path id="_Path_7" data-name="&lt;Path&gt;" d="M460.06,610.42h0.74v0l-0.91,1.31a0.78,0.78,0,0,0,0,.89l0.94,1.36v0h-0.77l-0.92-1.36L458.23,614h-0.77v0l0.94-1.36a0.78,0.78,0,0,0,0-.89l-0.91-1.31v0h0.74l0.89,1.33Z" transform="translate(-453.6 -584.73)" style="fill:#fff"/><path id="_Path_8" data-name="&lt;Path&gt;" d="M463.71,610.42h0.74v0l-0.91,1.31a0.78,0.78,0,0,0,0,.89l0.94,1.36v0h-0.77l-0.92-1.36L461.87,614H461.1v0l0.94-1.36a0.78,0.78,0,0,0,0-.89l-0.91-1.31v0h0.74l0.89,1.33Z" transform="translate(-453.6 -584.73)" style="fill:#fff"/><path id="_Path_9" data-name="&lt;Path&gt;" d="M467.33,610.42h0.74v0l-0.91,1.31a0.78,0.78,0,0,0,0,.89L468.1,614v0h-0.77l-0.92-1.36L465.49,614h-0.77v0l0.94-1.36a0.78,0.78,0,0,0,0-.89l-0.91-1.31v0h0.74l0.89,1.33Z" transform="translate(-453.6 -584.73)" style="fill:#fff"/><path id="_Path_10" data-name="&lt;Path&gt;" d="M471,610.42h0.74v0l-0.91,1.31a0.78,0.78,0,0,0,0,.89l0.94,1.36v0H471l-0.92-1.36L469.13,614h-0.77v0l0.94-1.36a0.78,0.78,0,0,0,0-.89l-0.91-1.31v0h0.74l0.89,1.33Z" transform="translate(-453.6 -584.73)" style="fill:#fff"/><path id="_Path_11" data-name="&lt;Path&gt;" d="M472.07,612.08H474v0.56h-1.9v-0.56Z" transform="translate(-453.6 -584.73)" style="fill:#fff"/><path id="_Path_12" data-name="&lt;Path&gt;" d="M477,610.42h0.74v0l-0.91,1.31a0.78,0.78,0,0,0,0,.89l0.94,1.36v0H477L476,612.68,475.12,614h-0.77v0l0.94-1.36a0.78,0.78,0,0,0,0-.89l-0.91-1.31v0h0.74l0.89,1.33Z" transform="translate(-453.6 -584.73)" style="fill:#fff"/><path id="_Path_13" data-name="&lt;Path&gt;" d="M480.57,610.42h0.74v0l-0.91,1.31a0.78,0.78,0,0,0,0,.89l0.94,1.36v0h-0.77l-0.92-1.36L478.74,614H478v0l0.94-1.36a0.78,0.78,0,0,0,0-.89L478,610.45v0h0.74l0.89,1.33Z" transform="translate(-453.6 -584.73)" style="fill:#fff"/><path id="_Path_14" data-name="&lt;Path&gt;" d="M484.22,610.42H485v0l-0.91,1.31a0.78,0.78,0,0,0,0,.89L485,614v0h-0.77l-0.92-1.36L482.38,614h-0.77v0l0.94-1.36a0.78,0.78,0,0,0,0-.89l-0.91-1.31v0h0.74l0.89,1.33Z" transform="translate(-453.6 -584.73)" style="fill:#fff"/><path id="_Path_15" data-name="&lt;Path&gt;" d="M487.84,610.42h0.74v0l-0.91,1.31a0.78,0.78,0,0,0,0,.89l0.94,1.36v0h-0.77l-0.92-1.36L486,614h-0.77v0l0.94-1.36a0.78,0.78,0,0,0,0-.89l-0.91-1.31v0H486l0.89,1.33Z" transform="translate(-453.6 -584.73)" style="fill:#fff"/><path id="_Path_16" data-name="&lt;Path&gt;" d="M489,612.08h1.9v0.56H489v-0.56Z" transform="translate(-453.6 -584.73)" style="fill:#fff"/><path id="_Path_17" data-name="&lt;Path&gt;" d="M493.82,610.42h0.74v0l-0.91,1.31a0.78,0.78,0,0,0,0,.89l0.94,1.36v0h-0.77l-0.92-1.36L492,614h-0.77v0l0.94-1.36a0.78,0.78,0,0,0,0-.89l-0.91-1.31v0H492l0.89,1.33Z" transform="translate(-453.6 -584.73)" style="fill:#fff"/><path id="_Path_18" data-name="&lt;Path&gt;" d="M497.47,610.42h0.74v0l-0.91,1.31a0.78,0.78,0,0,0,0,.89l0.94,1.36v0h-0.77l-0.92-1.36L495.63,614h-0.77v0l0.94-1.36a0.78,0.78,0,0,0,0-.89l-0.91-1.31v0h0.74l0.89,1.33Z" transform="translate(-453.6 -584.73)" style="fill:#fff"/><path id="_Path_19" data-name="&lt;Path&gt;" d="M501.08,610.42h0.74v0l-0.91,1.31a0.78,0.78,0,0,0,0,.89l0.94,1.36v0h-0.77l-0.92-1.36L499.25,614h-0.77v0l0.94-1.36a0.78,0.78,0,0,0,0-.89l-0.91-1.31v0h0.74l0.89,1.33Z" transform="translate(-453.6 -584.73)" style="fill:#fff"/><path id="_Path_20" data-name="&lt;Path&gt;" d="M504.73,610.42h0.74v0l-0.91,1.31a0.78,0.78,0,0,0,0,.89L505.5,614v0h-0.77l-0.92-1.36L502.89,614h-0.77v0l0.94-1.36a0.78,0.78,0,0,0,0-.89l-0.91-1.31v0h0.74l0.89,1.33Z" transform="translate(-453.6 -584.73)" style="fill:#fff"/></g><rect id="_Path_21" data-name="&lt;Path&gt;" x="8.59" y="13.98" width="2.5" height="2.5" rx="0.78" ry="0.78" style="fill:#e0c151"/><rect id="_Path_22" data-name="&lt;Path&gt;" x="8.59" y="16.83" width="2.5" height="2.24" rx="0.78" ry="0.78" style="fill:#e0c151"/><rect id="_Path_23" data-name="&lt;Path&gt;" x="6.68" y="13.98" width="1.56" height="2.5" rx="0.78" ry="0.78" style="fill:#e0c151"/><rect id="_Path_24" data-name="&lt;Path&gt;" x="8.59" y="11.39" width="2.5" height="2.24" rx="0.78" ry="0.78" style="fill:#e0c151"/><path id="_Path_25" data-name="&lt;Path&gt;" d="M465,597.59a0.78,0.78,0,0,0,.78.78h3.39v-0.94a1.3,1.3,0,0,0-1.29-1.29h-2.09a0.78,0.78,0,0,0-.78.78v0.68Z" transform="translate(-453.6 -584.73)" style="fill:#e0c151"/><rect id="_Path_26" data-name="&lt;Path&gt;" x="13.37" y="13.98" width="2.26" height="2.5" rx="0.78" ry="0.78" style="fill:#e0c151"/><path id="_Path_27" data-name="&lt;Path&gt;" d="M465,601.56V603a0.78,0.78,0,0,0,.78.78h2.09a1.3,1.3,0,0,0,1.29-1.29v-0.94H465Z" transform="translate(-453.6 -584.73)" style="fill:#e0c151"/><path id="_Path_28" data-name="&lt;Path&gt;" d="M461.84,602.34a0.78,0.78,0,0,0-.78-0.78h-3.39v0.94A1.3,1.3,0,0,0,459,603.8h2.09a0.78,0.78,0,0,0,.78-0.78v-0.68Z" transform="translate(-453.6 -584.73)" style="fill:#e0c151"/><rect id="_Path_29" data-name="&lt;Path&gt;" x="4.08" y="13.98" width="2.26" height="2.5" rx="0.78" ry="0.78" style="fill:#e0c151"/><path id="_Path_30" data-name="&lt;Path&gt;" d="M461.84,598.36v-1.46a0.78,0.78,0,0,0-.78-0.78H459a1.3,1.3,0,0,0-1.29,1.29v0.94h4.16Z" transform="translate(-453.6 -584.73)" style="fill:#e0c151"/><rect id="_Path_31" data-name="&lt;Path&gt;" x="11.44" y="13.98" width="1.56" height="2.5" rx="0.78" ry="0.78" style="fill:#e0c151"/></g></svg>