<?xml version="1.0" encoding="utf-8"?>
<!-- Generator: Adobe Illustrator 25.2.1, SVG Export Plug-In . SVG Version: 6.00 Build 0)  -->
<svg version="1.1" xmlns="http://www.w3.org/2000/svg" xmlns:xlink="http://www.w3.org/1999/xlink" x="0px" y="0px"
	 viewBox="0 0 24 24" style="enable-background:new 0 0 24 24;" xml:space="preserve">
<style type="text/css">
	.st0{fill:#2B2B2B;}
</style>
<g id="Layer_1">
</g>
<g id="Layer_2">
</g>
<g id="Layer_3">
	<path d="M16.1,21.7H7.8c-5.1,0-7.3-2.2-7.3-7.4V9.7c0-5.1,2.2-7.3,7.3-7.3h8.3c5.1,0,7.4,2.2,7.4,7.3v4.7
		C23.4,19.5,21.2,21.7,16.1,21.7z M7.8,3.7c-4.4,0-6,1.5-6,6v4.7c0,4.4,1.5,6,5.9,6H16c4.4,0,5.9-1.5,5.9-6V9.7
		c0-4.4-1.5-5.9-5.9-5.9L7.8,3.7z"/>
	<g>
		<path d="M11.7,12.1c0,1.1-0.4,2-1,2.6s-1.5,1-2.6,1s-2-0.4-2.6-1s-1-1.5-1-2.6s0.4-2,1-2.7c0.6-0.6,1.5-1,2.6-1
			s2,0.4,2.6,1C11.4,10,11.7,10.9,11.7,12.1z M9.3,13.8c0.2-0.2,0.3-0.4,0.4-0.7s0.1-0.6,0.1-1c0-0.4-0.1-0.8-0.2-1.1
			c-0.1-0.3-0.2-0.5-0.4-0.7C9.2,10.1,9,10,8.8,9.9C8.5,9.8,8.3,9.8,8.1,9.8s-0.4,0-0.6,0.1c-0.2,0.1-0.4,0.3-0.5,0.4
			c-0.2,0.2-0.3,0.4-0.4,0.7c-0.1,0.3-0.2,0.6-0.2,1.1s0.1,0.8,0.2,1.1c0.1,0.3,0.2,0.5,0.4,0.7c0.2,0.2,0.4,0.4,0.5,0.4
			c0.2,0.1,0.4,0.1,0.6,0.1c0.3,0,0.4,0,0.6-0.1C9,14.2,9.2,14,9.3,13.8z"/>
		<path d="M19.5,15.5h-2.2l-2.1-2.8l-0.4,0.5v2.2H13V8.6h1.8v3.1l2.5-3.1h2.1l-2.7,3.2L19.5,15.5z"/>
	</g>
</g>
</svg>
