<?xml version="1.0" encoding="utf-8"?>
<!-- Generator: Adobe Illustrator 23.0.3, SVG Export Plug-In . SVG Version: 6.00 Build 0)  -->
<svg version="1.1" id="Layer_1" xmlns="http://www.w3.org/2000/svg" xmlns:xlink="http://www.w3.org/1999/xlink" x="0px" y="0px"
	 viewBox="0 0 45 30" style="enable-background:new 0 0 45 30;" xml:space="preserve">
<style type="text/css">
	.st0{display:none;fill:#2B2B2B;}
	.st1{fill:#2B2B2B;}
</style>
<path class="st0" d="M0.2,15.1h8.6v-1.9H0.2V15.1z M2.2,10.3h6.6V8.4H2.2V10.3z M2.2,19.8h6.6v-1.9H2.2V19.8z M36.8,22.6
	c-0.2,0.2-0.3,0.4-0.3,0.7c0,0.2,0.1,0.5,0.3,0.7s0.4,0.3,0.7,0.3c0.2,0,0.5-0.1,0.7-0.3c0.2-0.2,0.3-0.4,0.3-0.7
	c0-0.2-0.1-0.5-0.3-0.7C37.8,22.2,37.1,22.2,36.8,22.6z M39.9,8.4h-7.2V4.1H10.9v20.1H15c0.4,1.5,1.8,2.6,3.4,2.6s3-1.1,3.4-2.6H34
	c0.4,1.5,1.8,2.6,3.4,2.6s3-1.1,3.4-2.6h3.7V16L39.9,8.4z M18.4,24.9c-0.9,0-1.7-0.7-1.7-1.7c0-0.9,0.7-1.7,1.7-1.7
	c0.9,0,1.7,0.7,1.7,1.7C20.1,24.1,19.3,24.9,18.4,24.9z M30.8,22.3h-9c-0.4-1.5-1.8-2.6-3.4-2.6s-3,1.1-3.4,2.6h-2.2V6h18V22.3z
	 M40.3,12.7l1.7,2.7h-1.7V12.7z M37.5,24.9c-0.9,0-1.7-0.7-1.7-1.7c0-0.9,0.7-1.7,1.7-1.7s1.7,0.7,1.7,1.7
	C39.1,24.1,38.4,24.9,37.5,24.9z M42.7,22.3h-1.8c-0.4-1.5-1.8-2.6-3.4-2.6c-1.6,0-3,1.1-3.4,2.6h-1.4v-12h5.7v6.9h4.3
	C42.7,17.2,42.7,22.3,42.7,22.3z M17.7,22.6c-0.2,0.2-0.3,0.4-0.3,0.7c0,0.2,0.1,0.5,0.3,0.7c0.2,0.2,0.4,0.3,0.7,0.3
	c0.3,0,0.5-0.1,0.7-0.3c0.2-0.2,0.3-0.4,0.3-0.7c0-0.2-0.1-0.5-0.3-0.7C18.7,22.2,18.1,22.2,17.7,22.6z M19,16.8
	c0.6,0.3,1.4,0.7,2.6,0.8v0.9c0,0.1,0.1,0.2,0.2,0.2h0.5c0.1,0,0.2-0.1,0.2-0.2v-0.9c0.7-0.1,1.2-0.3,1.7-0.6
	c0.6-0.5,0.9-1.1,0.9-1.9c0-0.9-0.4-1.5-1-1.8c-0.7-0.5-1.6-0.6-2.3-0.9c-0.6-0.2-1-0.4-1-0.9c0-0.2,0.1-0.4,0.3-0.6
	c0.2-0.1,0.5-0.2,0.9-0.2c0.8,0,1.5,0.3,2,0.6c0.1,0.1,0.2,0,0.2-0.1l0.5-1.2c0.1-0.1,0-0.2-0.1-0.2c-0.5-0.3-1.2-0.5-2.2-0.6V8.3
	c0-0.1-0.1-0.2-0.2-0.2h-0.5c-0.1,0-0.2,0.1-0.2,0.2v0.9c-0.7,0.1-1.3,0.3-1.7,0.6c-0.6,0.4-0.9,1-0.9,1.7c0,0.9,0.4,1.5,1,1.9
	c0.7,0.4,1.5,0.6,2.1,0.8s1,0.5,1,1c0,0.2-0.1,0.5-0.3,0.7c-0.2,0.2-0.5,0.2-0.9,0.2c-0.9,0-1.6-0.4-2.2-0.7c-0.1-0.1-0.2,0-0.2,0.1
	l-0.6,1.1C18.8,16.7,18.9,16.8,19,16.8z"/>
<g>
	<path class="st1" d="M18.7,12.5c-0.2-0.3-0.5-0.5-0.8-0.6c-0.3-0.1-0.6-0.2-0.9-0.2c-0.3,0-0.6,0.1-0.9,0.2
		c-0.3,0.1-0.6,0.3-0.8,0.6c-0.2,0.3-0.4,0.6-0.6,1c-0.1,0.4-0.2,1-0.2,1.5c0,0.6,0.1,1.1,0.2,1.5c0.1,0.4,0.3,0.8,0.5,1
		c0.2,0.3,0.5,0.5,0.8,0.6c0.3,0.1,0.6,0.2,1,0.2c0.3,0,0.7-0.1,1-0.2c0.1-0.1,0.3-0.3,0.6-0.5c0.3-0.3,0.4-0.7,0.6-1.1
		c0.1-0.4,0.2-0.9,0.2-1.5s-0.1-1.1-0.2-1.5C19.1,13.1,18.9,12.7,18.7,12.5z"/>
	<path class="st1" d="M36.8,2.5H8.2c-4.6,0-8.2,3.8-8.2,8.3v9c0,4.6,3.7,8.3,8.2,8.3h28.5c4.4,0,8.2-3.7,8.2-8.3v-9
		C45,6.2,41.2,2.5,36.8,2.5z M20.6,18.9c-0.9,0.9-2.2,1.4-3.8,1.4c-1.6,0-2.9-0.5-3.8-1.4C12,18,11.5,16.6,11.5,15s0.5-3,1.4-4
		c0.9-0.9,2.2-1.4,3.8-1.4c1.6,0,2.9,0.5,3.8,1.4c1,1,1.4,2.3,1.4,4S21.5,18,20.6,18.9z M30.3,20.2l-3-4.1l-0.6,0.7v3.4H24V9.9h2.6
		v4.7l3.6-4.7h3l-3.9,4.8l4.1,5.5H30.3z"/>
</g>
</svg>
