<?xml version="1.0" encoding="utf-8"?>
<!-- Generator: Adobe Illustrator 23.0.3, SVG Export Plug-In . SVG Version: 6.00 Build 0)  -->
<svg version="1.1" id="Layer_1" xmlns="http://www.w3.org/2000/svg" xmlns:xlink="http://www.w3.org/1999/xlink" x="0px" y="0px"
	 viewBox="0 0 36 36" style="enable-background:new 0 0 36 36;" xml:space="preserve">
<style type="text/css">
	.st0{fill:#2B2B2B;}
	.st1{fill:#FFFFFF;}
</style>
<path class="st0" d="M24.2,27.2H11.6c-4.4,0-8.1-3.6-8.1-8.1v0c0-4.4,3.6-8.1,8.1-8.1h12.6c4.4,0,8.1,3.6,8.1,8.1v0
	C32.3,23.5,28.7,27.2,24.2,27.2z"/>
<g>
	<path class="st1" d="M17.6,18.9c0,1-0.3,1.9-0.9,2.5c-0.6,0.6-1.4,0.9-2.5,0.9c-1.1,0-1.9-0.3-2.5-0.9c-0.6-0.6-0.9-1.4-0.9-2.5
		c0-1.1,0.3-1.9,0.9-2.5c0.6-0.6,1.4-0.9,2.5-0.9c1,0,1.9,0.3,2.5,0.9C17.3,17,17.6,17.8,17.6,18.9z M15.4,20.5
		c0.2-0.2,0.3-0.4,0.4-0.7c0.1-0.3,0.1-0.6,0.1-1c0-0.4,0-0.7-0.1-1s-0.2-0.5-0.4-0.7c-0.1-0.2-0.3-0.3-0.5-0.4
		c-0.2-0.1-0.4-0.1-0.6-0.1c-0.2,0-0.4,0-0.6,0.1c-0.2,0.1-0.4,0.2-0.5,0.4c-0.1,0.2-0.3,0.4-0.4,0.7c-0.1,0.3-0.1,0.6-0.1,1
		c0,0.4,0,0.7,0.1,1c0.1,0.3,0.2,0.5,0.4,0.7s0.3,0.3,0.5,0.4S14,21,14.3,21s0.4,0,0.6-0.1C15.1,20.8,15.2,20.7,15.4,20.5z"/>
	<path class="st1" d="M25,22.1H23l-2-2.6L20.6,20v2.1h-1.7v-6.5h1.7v3l2.3-3h2l-2.6,3L25,22.1z"/>
</g>
</svg>
