<?xml version="1.0" encoding="utf-8"?>
<!-- Generator: Adobe Illustrator 25.4.1, SVG Export Plug-In . SVG Version: 6.00 Build 0)  -->
<svg version="1.1" id="Layer_1" xmlns="http://www.w3.org/2000/svg" xmlns:xlink="http://www.w3.org/1999/xlink" x="0px" y="0px"
	 viewBox="0 0 24 24" style="enable-background:new 0 0 24 24;" xml:space="preserve">
<style type="text/css">
	.st0{fill:none;stroke:#2B2B2B;stroke-miterlimit:10;}
	.st1{fill:#2B2B2B;}
</style>
<g>
	<path class="st0" d="M15,20.6H9c-3.9,0-7.2-3.2-7.2-7.2v-2.7c0-3.9,3.2-7.2,7.2-7.2H15c3.9,0,7.2,3.2,7.2,7.2v2.7
		C22.3,17.3,19.1,20.6,15,20.6z"/>
	<g>
		<path class="st1" d="M11.6,12c0,1.1-0.4,2-1,2.6c-0.6,0.6-1.5,1-2.6,1s-2-0.4-2.6-1s-1-1.5-1-2.6s0.4-2,1-2.7c0.6-0.6,1.5-1,2.6-1
			s2,0.4,2.6,1C11.4,10,11.6,10.9,11.6,12z M9.3,13.7c0.2-0.2,0.3-0.4,0.4-0.7c0.1-0.3,0.1-0.6,0.1-1c0-0.4-0.1-0.8-0.2-1.1
			c-0.1-0.3-0.2-0.5-0.4-0.7C9.1,10.1,9,9.9,8.8,9.8C8.5,9.7,8.3,9.7,8.1,9.7c-0.3,0-0.4,0-0.6,0.1c-0.2,0.1-0.4,0.3-0.5,0.4
			c-0.2,0.2-0.3,0.4-0.4,0.7c-0.1,0.3-0.2,0.6-0.2,1.1s0.1,0.8,0.2,1.1c0.1,0.3,0.2,0.5,0.4,0.7c0.2,0.2,0.4,0.4,0.5,0.4
			c0.2,0.1,0.4,0.1,0.6,0.1c0.3,0,0.4,0,0.6-0.1C9,14.1,9.1,13.9,9.3,13.7z"/>
		<path class="st1" d="M19.5,15.4h-2.2l-2.1-2.8l-0.4,0.5v2.2H13V8.6h1.8v3.1l2.5-3.1h2.1l-2.7,3.2L19.5,15.4z"/>
	</g>
</g>
</svg>
