<?xml version="1.0" encoding="utf-8"?>
<!-- Generator: Adobe Illustrator 25.4.1, SVG Export Plug-In . SVG Version: 6.00 Build 0)  -->
<svg version="1.1" id="Layer_1" xmlns="http://www.w3.org/2000/svg" xmlns:xlink="http://www.w3.org/1999/xlink" x="0px" y="0px"
	 viewBox="0 0 24 24" style="enable-background:new 0 0 24 24;" xml:space="preserve">
<style type="text/css">
	.st0{fill:none;stroke:#2B2B2B;stroke-miterlimit:10;}
	.st1{fill:#2B2B2B;}
</style>
<path class="st0" d="M15.6,21.5H8.8c-4.4,0-8.1-3.6-8.1-8.1v-3c0-4.4,3.6-8.1,8.1-8.1h6.8c4.4,0,8.1,3.6,8.1,8.1v3
	C23.7,17.8,20.1,21.5,15.6,21.5z"/>
<g>
	<path class="st1" d="M11.8,11.9c0,1.2-0.4,2.2-1.1,2.9c-0.7,0.7-1.7,1.1-2.9,1.1c-1.2,0-2.2-0.4-2.9-1.1c-0.7-0.7-1.1-1.7-1.1-2.9
		c0-1.2,0.4-2.2,1.1-3c0.7-0.7,1.7-1.1,2.9-1.1c1.2,0,2.2,0.4,2.9,1.1C11.5,9.6,11.8,10.6,11.8,11.9z M9.2,13.8
		c0.2-0.2,0.3-0.5,0.4-0.8c0.1-0.3,0.1-0.7,0.1-1.1c0-0.5-0.1-0.9-0.2-1.2s-0.2-0.6-0.4-0.8C9,9.7,8.8,9.5,8.6,9.4
		C8.3,9.3,8.1,9.3,7.8,9.3c-0.3,0-0.5,0-0.7,0.1C6.9,9.5,6.7,9.7,6.5,9.9c-0.2,0.2-0.3,0.5-0.4,0.8C6,11,5.9,11.4,5.9,11.9
		c0,0.5,0.1,0.9,0.2,1.2c0.1,0.3,0.2,0.6,0.4,0.8c0.2,0.2,0.4,0.4,0.6,0.5s0.5,0.1,0.7,0.1c0.3,0,0.5,0,0.7-0.1
		C8.8,14.2,9,14,9.2,13.8z"/>
	<path class="st1" d="M20.6,15.7h-2.5l-2.3-3.1l-0.5,0.6v2.5h-2V8h2v3.5L18.1,8h2.3l-3,3.6L20.6,15.7z"/>
</g>
</svg>
