<svg id="Layer_1" data-name="Layer 1" xmlns="http://www.w3.org/2000/svg" viewBox="0 0 51.54 32.46"><title>1</title><g id="_Group_" data-name="&lt;Group&gt;"><rect id="_Rectangle_" data-name="&lt;Rectangle&gt;" width="51.54" height="32.46" rx="16.23" ry="16.23" style="fill:#316cff"/><g id="_Group_2" data-name="&lt;Group&gt;"><path id="_Compound_Path_" data-name="&lt;Compound Path&gt;" d="M663.08,297.95a5.52,5.52,0,0,1,1.58-4.1,5.78,5.78,0,0,1,4.26-1.56,5.46,5.46,0,0,1,4.13,1.51,5.7,5.7,0,0,1,1.45,4.13,5.46,5.46,0,0,1-1.65,4.17,6.18,6.18,0,0,1-4.42,1.55,5,5,0,0,1-4-1.61A6.05,6.05,0,0,1,663.08,297.95Zm2.77-.64a10,10,0,0,0,.07,1.23,9.54,9.54,0,0,0,.2,1.08,4.91,4.91,0,0,0,.38,1,4.38,4.38,0,0,0,.56.87,2.26,2.26,0,0,0,1.81.83q2.79,0,2.79-4a8.13,8.13,0,0,0-.2-1.83,6.24,6.24,0,0,0-.44-1.34,4.67,4.67,0,0,0-.57-0.88,2.23,2.23,0,0,0-1.84-.87,2.28,2.28,0,0,0-2.19,1.17A5.56,5.56,0,0,0,665.85,297.3Z" transform="translate(-650.48 -282.1)" style="fill:#fff"/><path id="_Compound_Path_2" data-name="&lt;Compound Path&gt;" d="M675.58,293.5l0.19-1h5.52l-0.13,1-1.35.62v7.69l1.68,0.6-0.1,1h-5.78l0.12-.93,1.63-.69v-7.62Zm4.54,4.3a12.16,12.16,0,0,0,.95-1.13l1.83-2.57-0.62-.55,0.16-1h4.43l-0.17,1-1.76.62-2.65,3.42,2.43,3a7.72,7.72,0,0,0,1.11,1.18,4.3,4.3,0,0,0,1.36.66l0.26,0.08-0.17.88a4,4,0,0,1-1.39.23,3.88,3.88,0,0,1-1.34-.21,3.41,3.41,0,0,1-1-.62,8.94,8.94,0,0,1-1.69-2l-1.7-2.54Z" transform="translate(-650.48 -282.1)" style="fill:#fff"/></g></g></svg>