<?xml version="1.0" encoding="utf-8"?>
<!-- Generator: Adobe Illustrator 25.4.1, SVG Export Plug-In . SVG Version: 6.00 Build 0)  -->
<svg version="1.1" xmlns="http://www.w3.org/2000/svg" xmlns:xlink="http://www.w3.org/1999/xlink" x="0px" y="0px"
	 viewBox="0 0 24 24" style="enable-background:new 0 0 24 24;" xml:space="preserve">
<style type="text/css">
	.st0{fill:#2B2B2B;}
</style>
<path d="M9,10.7c-1.5,0-2.8-1.2-2.8-2.8S7.5,5.1,9,5.1s2.8,1.2,2.8,2.8S10.5,10.7,9,10.7z M9,6.7
	c-0.7,0-1.2,0.5-1.2,1.2S8.3,9.1,9,9.1s1.2-0.6,1.2-1.2S9.7,6.7,9,6.7z"/>
<path d="M15,22.7H9c-5.4,0-7.8-2.3-7.8-7.8v-6c0-5.4,2.3-7.8,7.8-7.8h3c0.4,0,0.8,0.3,0.8,0.8S12.4,2.7,12,2.7H9
	c-4.6,0-6.2,1.6-6.2,6.2v6c0,4.6,1.6,6.2,6.2,6.2h6c4.6,0,6.2-1.6,6.2-6.2v-4c0-0.4,0.3-0.8,0.8-0.8s0.8,0.3,0.8,0.8v4
	C22.8,20.3,20.4,22.7,15,22.7z"/>
<path d="M2.7,19.6c-0.2,0-0.5-0.1-0.6-0.3c-0.2-0.3-0.1-0.8,0.2-1l4.9-3.4c1.1-0.7,2.6-0.6,3.5,0.2l0.3,0.3
	c0.5,0.4,1.4,0.4,1.8,0l4.2-3.6c1.1-0.9,2.7-0.9,3.8,0l1.6,1.4c0.3,0.3,0.4,0.7,0.1,1.1c-0.3,0.3-0.7,0.4-1.1,0.1L19.8,13
	c-0.5-0.4-1.3-0.4-1.8,0l-4.2,3.6c-1.1,0.9-2.7,0.9-3.8,0l-0.3-0.3c-0.4-0.4-1.2-0.5-1.7-0.1l-4.9,3.3C3,19.6,2.8,19.6,2.7,19.6z"/>
<path d="M16.9,6.7c-0.2,0-0.4-0.1-0.5-0.2l-2-2c-0.3-0.3-0.3-0.8,0-1.1l2-2c0.3-0.3,0.8-0.3,1.1,0
	c0.3,0.3,0.3,0.8,0,1.1l-1.6,1.4l1.5,1.5c0.3,0.3,0.3,0.8,0,1.1C17.3,6.6,17.1,6.7,16.9,6.7z"/>
<path d="M19.9,6.7c-0.2,0-0.4-0.1-0.5-0.2c-0.3-0.3-0.3-0.8,0-1.1l1.4-1.5l-1.5-1.5c-0.3-0.3-0.3-0.8,0-1.1
	s0.8-0.3,1.1,0l2,2c0.3,0.3,0.3,0.8,0,1.1l-2,2C20.3,6.6,20.1,6.7,19.9,6.7z"/>
</svg>
