<?xml version="1.0" encoding="utf-8"?>
<!-- Generator: Adobe Illustrator 23.0.3, SVG Export Plug-In . SVG Version: 6.00 Build 0)  -->
<svg version="1.1" id="Layer_1" xmlns="http://www.w3.org/2000/svg" xmlns:xlink="http://www.w3.org/1999/xlink" x="0px" y="0px"
	 viewBox="0 0 36 36" style="enable-background:new 0 0 36 36;" xml:space="preserve">
<style type="text/css">
	.st0{fill:#2B2B2B;}
</style>
<path class="st0" d="M22.8,15.4l0,0.3c0,1.1-0.3,2.2-0.8,3.2c-0.5,1.1-1.3,2-2.3,2.6c-1.1,0.7-2.3,1.1-3.6,1.1
	c-1.3,0-2.5-0.4-3.6-1.1c0.2,0,0.4,0,0.6,0c1.1,0,2.1-0.3,2.9-1c-0.5,0-0.9-0.2-1.3-0.5c-0.4-0.3-0.7-0.7-0.8-1.2
	c0.2,0,0.3,0.1,0.4,0.1c0.2,0,0.4,0,0.6-0.1c-0.5-0.1-1-0.4-1.3-0.9c-0.4-0.4-0.5-1-0.5-1.5v0c0.3,0.2,0.7,0.3,1,0.3
	c-0.3-0.2-0.6-0.5-0.7-0.9c-0.2-0.4-0.3-0.7-0.3-1.2c0-0.4,0.1-0.8,0.3-1.2c0.6,0.7,1.3,1.3,2.1,1.8c0.8,0.5,1.7,0.7,2.7,0.8
	c-0.1-0.2-0.1-0.4-0.1-0.6c0-0.7,0.2-1.3,0.7-1.7c0.5-0.5,1-0.7,1.6-0.7c0.7,0,1.3,0.3,1.7,0.8c0.5-0.1,1-0.3,1.5-0.6
	c-0.2,0.6-0.5,1-1,1.4c0.5-0.1,0.9-0.2,1.3-0.4C23.7,14.6,23.3,15,22.8,15.4z"/>
<g>
	<path class="st0" d="M14.6,32.1c-0.3,0-0.6-0.1-0.9-0.3c-0.2-0.2-0.3-0.5-0.3-0.9v-3.7h-5c-0.7,0-1.2-0.2-1.7-0.7S6,25.4,6,24.7
		V9.9c0-0.7,0.2-1.2,0.7-1.7s1-0.7,1.7-0.7h19.8c0.7,0,1.2,0.2,1.7,0.7c0.5,0.5,0.7,1,0.7,1.7v14.8c0,0.7-0.2,1.3-0.7,1.8
		c-0.5,0.5-1,0.7-1.7,0.7h-7.5l-4.6,4.6c-0.3,0.2-0.6,0.3-0.9,0.3H14.6z M15.8,24.7v3.8l3.8-3.8h8.5V9.9H8.4v14.8H15.8z"/>
</g>
</svg>
