<?xml version="1.0" encoding="utf-8"?>
<!-- Generator: Adobe Illustrator 25.2.1, SVG Export Plug-In . SVG Version: 6.00 Build 0)  -->
<svg version="1.1" xmlns="http://www.w3.org/2000/svg" xmlns:xlink="http://www.w3.org/1999/xlink" x="0px" y="0px"
	 viewBox="0 0 24 24" style="enable-background:new 0 0 24 24;" xml:space="preserve">
<style type="text/css">
	.st0{fill:#2B2B2B;}
</style>
<path d="M16,1.9H8c-4,0-6,2-6,6v5c0,5,2,6,6,6h0.5c0.3,0,0.6,0.1,0.8,0.4l1.5,2c0.1,0.1,0.2,0.3,0.4,0.4
	c0.7,0.5,1.6,0.3,2-0.4l1.5-2c0.2-0.3,0.5-0.4,0.8-0.4H16c4,0,6-2,6-6v-5C22,3.9,20,1.9,16,1.9z M17.1,8.1v0.3
	c0,1.1-0.3,2.2-0.8,3.2c-0.5,1.1-1.3,2-2.3,2.6c-1.1,0.7-2.3,1.1-3.6,1.1c-1.3,0-2.5-0.4-3.6-1.1c0.2,0,0.4,0,0.6,0
	c1.1,0,2.1-0.3,2.9-1c-0.5,0-0.9-0.2-1.3-0.5S8.3,12,8.2,11.5c0.2,0,0.3,0.1,0.4,0.1c0.2,0,0.4,0,0.6-0.1c-0.5-0.1-1-0.4-1.3-0.9
	c-0.4-0.4-0.5-1-0.5-1.5c0.3,0.2,0.7,0.3,1,0.3C8.1,9.2,7.8,8.9,7.6,8.5C7.4,8.2,7.3,7.8,7.3,7.4c0-0.4,0.1-0.8,0.3-1.2
	c0.6,0.7,1.3,1.3,2.2,1.7c0.8,0.5,1.7,0.7,2.7,0.8c-0.1-0.2-0.1-0.4-0.1-0.6c0-0.7,0.2-1.3,0.7-1.7c0.5-0.5,1-0.7,1.6-0.7
	c0.7,0,1.3,0.3,1.7,0.8C17,6.4,17.5,6.2,18,5.9c-0.2,0.6-0.5,1-1,1.4c0.5-0.1,0.9-0.2,1.3-0.4C18,7.4,17.6,7.8,17.1,8.1z"/>
</svg>
