<?xml version="1.0" encoding="utf-8"?>
<!-- Generator: Adobe Illustrator 25.4.1, SVG Export Plug-In . SVG Version: 6.00 Build 0)  -->
<svg version="1.1" id="Layer_1" xmlns="http://www.w3.org/2000/svg" xmlns:xlink="http://www.w3.org/1999/xlink" x="0px" y="0px"
	 viewBox="0 0 24 24" style="enable-background:new 0 0 24 24;" xml:space="preserve">
<style type="text/css">
	.st0{fill:none;stroke:#292D32;stroke-width:1.5;stroke-linecap:round;stroke-linejoin:round;}
	.st1{fill:#292D32;}
</style>
<path id="Vector_2_" class="st0" d="M8.5,19H8c-4,0-6-1-6-6V8c0-4,2-6,6-6h8c4,0,6,2,6,6v5c0,4-2,6-6,6h-0.5c-0.3,0-0.6,0.1-0.8,0.4
	l-1.5,2c-0.4,0.7-1.3,0.9-2,0.4c-0.2-0.1-0.3-0.3-0.4-0.4l-1.5-2C9.1,19.1,8.8,19,8.5,19z"/>
<path class="st1" d="M17.1,8.2l0,0.3c0,1.1-0.3,2.2-0.8,3.2c-0.5,1.1-1.3,2-2.3,2.6c-1.1,0.7-2.3,1.1-3.6,1.1
	c-1.3,0-2.5-0.4-3.6-1.1c0.2,0,0.4,0,0.6,0c1.1,0,2.1-0.3,2.9-1c-0.5,0-0.9-0.2-1.3-0.5c-0.4-0.3-0.7-0.7-0.8-1.2
	c0.2,0,0.3,0.1,0.4,0.1c0.2,0,0.4,0,0.6-0.1c-0.5-0.1-1-0.4-1.3-0.9c-0.4-0.4-0.5-1-0.5-1.5v0c0.3,0.2,0.7,0.3,1,0.3
	C8.1,9.3,7.8,9,7.6,8.6C7.4,8.3,7.3,7.9,7.3,7.5c0-0.4,0.1-0.8,0.3-1.2C8.2,7,8.9,7.6,9.8,8c0.8,0.5,1.7,0.7,2.7,0.8
	c-0.1-0.2-0.1-0.4-0.1-0.6c0-0.7,0.2-1.3,0.7-1.7c0.5-0.5,1-0.7,1.6-0.7c0.7,0,1.3,0.3,1.7,0.8C17,6.5,17.5,6.3,18,6
	c-0.2,0.6-0.5,1-1,1.4c0.5-0.1,0.9-0.2,1.3-0.4C18,7.5,17.6,7.9,17.1,8.2z"/>
</svg>
