<?xml version="1.0" encoding="utf-8"?>
<!-- Generator: Adobe Illustrator 25.4.1, SVG Export Plug-In . SVG Version: 6.00 Build 0)  -->
<svg version="1.1" id="Layer_1" xmlns="http://www.w3.org/2000/svg" xmlns:xlink="http://www.w3.org/1999/xlink" x="0px" y="0px"
	 viewBox="0 0 24 24" style="enable-background:new 0 0 24 24;" xml:space="preserve">
<style type="text/css">
	.st0{fill:none;stroke:#2B2B2B;stroke-width:1.5;stroke-linecap:round;stroke-linejoin:round;}
	.st1{fill:#2B2B2B;}
</style>
<path id="Vector_2_" class="st0" d="M8.5,18.9H8c-4,0-6-1-6-6v-5c0-4,2-6,6-6h8c4,0,6,2,6,6v5c0,4-2,6-6,6h-0.5
	c-0.3,0-0.6,0.1-0.8,0.4l-1.5,2c-0.4,0.7-1.3,0.9-2,0.4c-0.2-0.1-0.3-0.3-0.4-0.4l-1.5-2C9.1,19,8.8,18.9,8.5,18.9z"/>
<path class="st1" d="M17.1,8.1v0.3c0,1.1-0.3,2.2-0.8,3.2c-0.5,1.1-1.3,2-2.3,2.6c-1.1,0.7-2.3,1.1-3.6,1.1s-2.5-0.4-3.6-1.1
	c0.2,0,0.4,0,0.6,0c1.1,0,2.1-0.3,2.9-1c-0.5,0-0.9-0.2-1.3-0.5c-0.4-0.3-0.7-0.7-0.8-1.2c0.2,0,0.3,0.1,0.4,0.1
	c0.2,0,0.4,0,0.6-0.1c-0.5-0.1-1-0.4-1.3-0.9c-0.4-0.4-0.5-1-0.5-1.5l0,0c0.3,0.2,0.7,0.3,1,0.3C8.1,9.2,7.8,8.9,7.6,8.5
	C7.4,8.2,7.3,7.8,7.3,7.4s0.1-0.8,0.3-1.2c0.6,0.7,1.3,1.3,2.2,1.7c0.8,0.5,1.7,0.7,2.7,0.8c-0.1-0.2-0.1-0.4-0.1-0.6
	c0-0.7,0.2-1.3,0.7-1.7c0.5-0.5,1-0.7,1.6-0.7c0.7,0,1.3,0.3,1.7,0.8C17,6.4,17.5,6.2,18,5.9c-0.2,0.6-0.5,1-1,1.4
	c0.5-0.1,0.9-0.2,1.3-0.4C18,7.4,17.6,7.8,17.1,8.1z"/>
</svg>
