<?xml version="1.0" encoding="utf-8"?>
<!-- Generator: Adobe Illustrator 25.4.1, SVG Export Plug-In . SVG Version: 6.00 Build 0)  -->
<svg version="1.1" id="Layer_1" xmlns="http://www.w3.org/2000/svg" xmlns:xlink="http://www.w3.org/1999/xlink" x="0px" y="0px"
	 viewBox="0 0 24 24" style="enable-background:new 0 0 24 24;" xml:space="preserve">
<style type="text/css">
	.st0{fill:#292D32;}
</style>
<g>
	<path class="st0" d="M11,20.2H7.5c-0.8,0-1.3,0-1.8-0.1c-3.3-0.4-4-2.4-4-5.6v-5c0-3.3,0.7-5.3,4-5.7c0.4-0.1,1-0.1,1.7-0.1H11
		c0.4,0,0.8,0.3,0.8,0.8S11.4,5.2,11,5.2H7.5c-0.7,0-1.2,0-1.6,0.1c-2,0.2-2.7,0.9-2.7,4.2v5c0,3.3,0.7,3.9,2.7,4.2
		c0.4,0.1,0.9,0.1,1.6,0.1H11c0.4,0,0.8,0.3,0.8,0.8S11.4,20.2,11,20.2z"/>
	<path class="st0" d="M16.5,20.2H15c-0.4,0-0.8-0.3-0.8-0.8s0.3-0.8,0.8-0.8h1.5c0.7,0,1.2,0,1.5-0.1c2-0.2,2.7-0.9,2.7-4.2v-5
		c0-3.3-0.7-3.9-2.7-4.2c-0.4-0.1-0.9-0.1-1.6-0.1H15c-0.4,0-0.8-0.3-0.8-0.8s0.3-0.8,0.8-0.8h1.5c0.8,0,1.3,0,1.8,0.1
		c3.3,0.4,4,2.3,4,5.7v5c0,3.3-0.7,5.3-4,5.7C17.8,20.2,17.2,20.2,16.5,20.2z"/>
	<path class="st0" d="M15,22.8c-0.4,0-0.8-0.3-0.8-0.8V2c0-0.4,0.3-0.8,0.8-0.8s0.8,0.3,0.8,0.8v20C15.8,22.4,15.4,22.8,15,22.8z"/>
	<path class="st0" d="M8,16.2c-0.4,0-0.8-0.3-0.8-0.8v-7c0-0.4,0.3-0.8,0.8-0.8s0.8,0.3,0.8,0.8v7C8.8,15.9,8.4,16.2,8,16.2z"/>
</g>
</svg>
