<?xml version="1.0" encoding="utf-8"?>
<!-- Generator: Adobe Illustrator 25.4.1, SVG Export Plug-In . SVG Version: 6.00 Build 0)  -->
<svg version="1.1" xmlns="http://www.w3.org/2000/svg" xmlns:xlink="http://www.w3.org/1999/xlink" x="0px" y="0px"
	 viewBox="0 0 24 24" style="enable-background:new 0 0 24 24;" xml:space="preserve">
<style type="text/css">
	.st0{fill:#2B2B2B;}
</style>
<g>
	<path d="M11.1,20.1H7.8c-0.8,0-1.2,0-1.7-0.1c-3.1-0.4-3.8-2.4-3.8-5.6v-5c0-3.3,0.7-5.3,3.8-5.7
		C6.4,3.8,7,3.8,7.7,3.8h3.4c0.4,0,0.8,0.3,0.8,0.8s-0.4,0.7-0.8,0.7H7.8c-0.7,0-1.1,0-1.5,0.1C4.4,5.5,3.7,6.2,3.7,9.5v5
		c0,3.3,0.7,3.9,2.5,4.2c0.4,0.1,0.8,0.1,1.5,0.1h3.3c0.4,0,0.8,0.3,0.8,0.8C11.8,20,11.4,20.1,11.1,20.1z"/>
	<path d="M16.2,20.1h-1.4c-0.4,0-0.8-0.3-0.8-0.8s0.3-0.8,0.8-0.8h1.4c0.7,0,1.1,0,1.4-0.1c1.9-0.2,2.5-0.9,2.5-4.2v-5
		c0-3.3-0.7-3.9-2.5-4.2C17.3,5,16.8,5,16.1,5h-1.3c-0.4,0-0.8-0.3-0.8-0.8s0.3-0.8,0.8-0.8h1.4c0.8,0,1.2,0,1.7,0.1
		C21,4,21.7,5.8,21.7,9.2v5c0,3.3-0.7,5.3-3.8,5.7C17.5,20.1,16.9,20.1,16.2,20.1z"/>
	<path d="M14.8,22.7c-0.4,0-0.8-0.3-0.8-0.8V2.1c0-0.4,0.3-0.8,0.8-0.8s0.8,0.3,0.8,0.8v19.9
		C15.6,22.3,15.2,22.7,14.8,22.7z"/>
	<path d="M8.2,16.2c-0.4,0-0.8-0.3-0.8-0.8v-7c0-0.4,0.3-0.8,0.8-0.8C8.7,7.6,9,7.9,9,8.4v7C9,15.9,8.6,16.2,8.2,16.2z"
		/>
</g>
</svg>
