<?xml version="1.0" encoding="utf-8"?>
<!-- Generator: Adobe Illustrator 23.0.3, SVG Export Plug-In . SVG Version: 6.00 Build 0)  -->
<svg version="1.1" id="Layer_1" xmlns="http://www.w3.org/2000/svg" xmlns:xlink="http://www.w3.org/1999/xlink" x="0px" y="0px"
	 viewBox="0 0 36 36" style="enable-background:new 0 0 36 36;" xml:space="preserve">
<style type="text/css">
	.st0{fill:#2B2B2B;}
</style>
<g>
	<path class="st0" d="M27.5,24.1c0.6,0.7,0.9,1.4,0.9,2.3s-0.3,1.7-0.9,2.3s-1.4,0.9-2.3,0.9s-1.7-0.3-2.3-0.9s-0.9-1.4-0.9-2.3
		c0-0.2,0-0.5,0.1-0.7L14,21c-0.7,0.6-1.5,0.9-2.4,0.9s-1.7-0.3-2.3-1s-1-1.5-1-2.4s0.3-1.7,1-2.4c0.7-0.6,1.4-1,2.3-1
		s1.7,0.3,2.4,0.9l7.9-4.6c-0.1-0.3-0.1-0.6-0.1-0.8c0-0.9,0.3-1.7,1-2.4c0.7-0.6,1.5-1,2.4-1s1.7,0.3,2.4,1c0.7,0.7,1,1.4,1,2.4
		c0,0.9-0.3,1.7-1,2.4c-0.7,0.7-1.4,1-2.3,1s-1.7-0.3-2.4-0.9l-7.9,4.6c0.1,0.3,0.1,0.6,0.1,0.8s0,0.5-0.1,0.8l8,4.6
		c0.6-0.6,1.4-0.8,2.2-0.8C26.1,23.1,26.9,23.4,27.5,24.1z"/>
</g>
</svg>
