<?xml version="1.0" encoding="utf-8"?>
<!-- Generator: Adobe Illustrator 25.4.1, SVG Export Plug-In . SVG Version: 6.00 Build 0)  -->
<svg version="1.1" xmlns="http://www.w3.org/2000/svg" xmlns:xlink="http://www.w3.org/1999/xlink" x="0px" y="0px"
	 viewBox="0 0 24 24" style="enable-background:new 0 0 24 24;" xml:space="preserve">
<style type="text/css">
	.st0{fill:none;stroke:#2B2B2B;stroke-width:1.25;stroke-miterlimit:10;}
</style>
<g>
	<path d="M19.9,17.1c0.5,0.6,0.8,1.3,0.8,2.1c0,0.8-0.3,1.5-0.8,2.1s-1.2,0.8-2,0.8s-1.5-0.3-2-0.8s-0.8-1.3-0.8-2.1
		c0-0.2,0-0.5,0.1-0.6l-7.1-4.2C7.5,15,6.8,15.2,6,15.2S4.5,15,4,14.3c-0.6-0.5-0.9-1.4-0.9-2.2S3.4,10.6,4,10C4.6,9.4,5.2,9,6,9
		s1.4,0.3,2,0.8l7-4.2c-0.1-0.3-0.1-0.5-0.1-0.7c0-0.8,0.3-1.5,0.9-2.2c0.6-0.5,1.3-0.9,2.1-0.9s1.5,0.3,2.1,0.9s0.9,1.3,0.9,2.2
		c0,0.8-0.3,1.5-0.9,2.2C19.4,7.8,18.8,8,18,8s-1.5-0.3-2.1-0.8l-7,4.2C9,11.7,9,12,9,12.1c0,0.2,0,0.5-0.1,0.7L16,17
		c0.5-0.5,1.2-0.7,1.9-0.7C18.7,16.2,19.3,16.6,19.9,17.1z"/>
</g>
</svg>
