<?xml version="1.0" encoding="utf-8"?>
<!-- Generator: Adobe Illustrator 25.4.1, SVG Export Plug-In . SVG Version: 6.00 Build 0)  -->
<svg version="1.1" xmlns="http://www.w3.org/2000/svg" xmlns:xlink="http://www.w3.org/1999/xlink" x="0px" y="0px"
	 viewBox="0 0 24 24" style="enable-background:new 0 0 24 24;" xml:space="preserve">
<style type="text/css">
	.st0{fill:#2B2B2B;}
</style>
<path d="M15,22.7H9c-5.4,0-7.7-2.3-7.7-7.8V9c0-5.4,2.3-7.7,7.7-7.7h6c5.4,0,7.8,2.3,7.8,7.7v6
	C22.7,20.4,20.4,22.7,15,22.7z M9,2.7C4.3,2.7,2.7,4.3,2.7,9v6c0,4.6,1.6,6.3,6.2,6.3h6c4.6,0,6.3-1.6,6.3-6.3V9
	c0-4.6-1.6-6.2-6.3-6.2H9z"/>
<path d="M12,14.9c-0.2,0-0.4-0.1-0.5-0.2l-3.5-3.5c-0.3-0.3-0.3-0.8,0-1.1c0.3-0.3,0.8-0.3,1.1,0l3,3l3-3
	c0.3-0.3,0.8-0.3,1.1,0c0.3,0.3,0.3,0.8,0,1.1l-3.5,3.5C12.3,14.8,12.1,14.9,12,14.9z"/>
</svg>
