<?xml version="1.0" encoding="utf-8"?>
<!-- Generator: Adobe Illustrator 23.0.3, SVG Export Plug-In . SVG Version: 6.00 Build 0)  -->
<svg version="1.1" id="Layer_1" xmlns="http://www.w3.org/2000/svg" xmlns:xlink="http://www.w3.org/1999/xlink" x="0px" y="0px"
	 viewBox="0 0 36 36" style="enable-background:new 0 0 36 36;" xml:space="preserve">
<style type="text/css">
	.st0{fill:#2B2B2B;}
</style>
<g>
	<path class="st0" d="M30,11.2c0.4,0.4,0.7,1,0.7,1.6v11.7c0,0.6-0.2,1.2-0.7,1.6s-1,0.7-1.6,0.7H7.7c-0.6,0-1.2-0.2-1.6-0.7
		c-0.4-0.4-0.7-1-0.7-1.6V12.8c0-0.6,0.2-1.2,0.7-1.6c0.4-0.4,1-0.7,1.6-0.7h20.7C29,10.5,29.5,10.8,30,11.2z M28.4,12.8H7.7v11.7
		h20.7V12.8z"/>
</g>
<g>
	<path class="st0" d="M24,23.5l-2.5-3.6h4.9L24,23.5z"/>
</g>
<g>
	<path class="st0" d="M24,13.8l2.5,3.6h-4.9L24,13.8z"/>
</g>
<rect x="21.2" y="18.2" class="st0" width="9.4" height="0.7"/>
</svg>
