<?xml version="1.0" encoding="utf-8"?>
<!-- Generator: Adobe Illustrator 25.4.1, SVG Export Plug-In . SVG Version: 6.00 Build 0)  -->
<svg version="1.1" id="Layer_1" xmlns="http://www.w3.org/2000/svg" xmlns:xlink="http://www.w3.org/1999/xlink" x="0px" y="0px"
	 viewBox="0 0 24 24" style="enable-background:new 0 0 24 24;" xml:space="preserve">
<style type="text/css">
	.st0{fill:none;stroke:#2B2B2B;stroke-width:1.5;}
</style>
<g>
	<path class="st0" d="M20.5,18.1v1H3.5v-1l1.9-1.9v-5.7c0-1.5,0.4-2.8,1.3-4c0.9-1.2,2-2,3.4-2.4V3.9c0-0.5,0.2-0.9,0.6-1.3
		C11,2.2,11.5,2,12,2s1,0.2,1.4,0.6c0.4,0.4,0.6,0.8,0.6,1.3v0.3c1.4,0.4,2.5,1.2,3.4,2.4c0.9,1.2,1.3,2.5,1.3,4v5.7L20.5,18.1z
		 M13.9,20.1c0,0.5-0.2,1-0.6,1.4C13,21.8,12.5,22,12,22s-1-0.2-1.4-0.6c-0.4-0.4-0.6-0.8-0.6-1.4H13.9z"/>
</g>
</svg>
