<?xml version="1.0" encoding="utf-8"?>
<!-- Generator: Adobe Illustrator 25.2.1, SVG Export Plug-In . SVG Version: 6.00 Build 0)  -->
<svg version="1.1" xmlns="http://www.w3.org/2000/svg" xmlns:xlink="http://www.w3.org/1999/xlink" x="0px" y="0px"
	 viewBox="0 0 24 24" style="enable-background:new 0 0 24 24;" xml:space="preserve">
<style type="text/css">
	.st0{fill:#0A0A0A;}
</style>
<g id="Layer_1">
</g>
<g id="Layer_2">
	<g>
		<path d="M18.6,10.4c0-1.5-0.4-2.8-1.3-4c-0.9-1.2-2-2-3.4-2.4V3.7c0-0.5-0.2-0.9-0.6-1.3C13,2.1,12.5,1.9,12,1.9
			s-1,0.2-1.4,0.6c-0.4,0.4-0.6,0.8-0.6,1.3v0.3C8.7,4.5,7.6,5.3,6.7,6.4c-0.9,1.2-1.3,2.5-1.3,4v5.7L3.5,18v1h17.1v-1l-1.9-1.9
			V10.4z M17.6,17.3H6.4v-0.5l0.6-0.7v-5.5c0-1.1,0.3-2.1,1-3C8.7,6.6,9.5,6,10.5,5.7V5.5c0-0.4,0.1-0.7,0.4-1
			c0.3-0.3,0.6-0.4,1-0.4c0.4,0,0.7,0.1,1,0.4c0.3,0.3,0.4,0.6,0.4,1v0.2c1,0.3,1.9,0.9,2.5,1.8c0.6,0.9,1,1.9,1,3v5.5l0.8,0.7V17.3
			z"/>
		<path d="M10.1,19.8c0,0.5,0.2,1,0.6,1.4c0.4,0.4,0.8,0.6,1.4,0.6s1-0.2,1.4-0.6c0.4-0.4,0.6-0.8,0.6-1.4H10.1z
			 M12.6,20.9c-0.2,0.1-0.4,0.2-0.6,0.2c-0.2,0-0.4-0.1-0.6-0.2c-0.2-0.1-0.2-0.3-0.2-0.5h1.7C12.8,20.6,12.7,20.8,12.6,20.9z"/>
	</g>
</g>
</svg>
