<svg xmlns="http://www.w3.org/2000/svg" viewBox="0 0 17 20.03"><defs><style>.cls-1{fill:#2b2b2b;}.cls-2{fill:#fff;}</style></defs><g id="Layer_2" data-name="Layer 2"><path class="cls-1" d="M10.32,21.33a2.48,2.48,0,0,0,1.73.74,2.36,2.36,0,0,0,1.61-.62,2.4,2.4,0,0,0,.74-1.73V19.6H9.58A2.27,2.27,0,0,0,10.32,21.33Z" transform="translate(-3.5 -2.04)"/><path class="cls-1" d="M18.7,10.64a6.39,6.39,0,0,0-1.3-4A6.31,6.31,0,0,0,14,4.24v-.3a1.76,1.76,0,0,0-.6-1.3A2,2,0,0,0,12,2a1.61,1.61,0,0,0-1.3.6,1.76,1.76,0,0,0-.6,1.3v.2a6.31,6.31,0,0,0-3.4,2.4,6.39,6.39,0,0,0-1.3,4v5.7l-1.9,1.9v1h17v-1l-1.8-1.8Z" transform="translate(-3.5 -2.04)"/><path class="cls-2" d="M17.43,16.17V10.66a5.87,5.87,0,0,0-4.07-5.74l0,0c0-1-.16-1.2-.45-1.44A1.14,1.14,0,0,0,12,3.06c-.4,0-.51.12-.87.45a2,2,0,0,0-.41,1.32v.09a5.87,5.87,0,0,0-3,2.13A6,6,0,0,0,6.6,10.57v5.51L5.38,17.4V18H18.62v-.6Z" transform="translate(-3.5 -2.04)"/><path class="cls-2" d="M11.3,21a1,1,0,0,0,.72.3,1,1,0,0,0,.67-.25.81.81,0,0,0,.31-.61v-.06H11A.73.73,0,0,0,11.3,21Z" transform="translate(-3.5 -2.04)"/></g></svg>