<?xml version="1.0" encoding="utf-8"?>
<!-- Generator: Adobe Illustrator 23.0.3, SVG Export Plug-In . SVG Version: 6.00 Build 0)  -->
<svg version="1.1" id="Layer_1" xmlns="http://www.w3.org/2000/svg" xmlns:xlink="http://www.w3.org/1999/xlink" x="0px" y="0px"
	 viewBox="0 0 36 36" style="enable-background:new 0 0 36 36;" xml:space="preserve">
<style type="text/css">
	.st0{fill:#2B2B2B;}
</style>
<g>
	<path class="st0" d="M27.6,25.4v1.2H7.3v-1.2l2.3-2.2v-6.8c0-1.8,0.5-3.3,1.6-4.7c1-1.4,2.4-2.3,4-2.8V8.5c0-0.6,0.2-1.1,0.7-1.6
		c0.4-0.4,1-0.7,1.6-0.7S18.6,6.5,19,7c0.4,0.4,0.7,1,0.7,1.6v0.4c1.7,0.5,3,1.4,4,2.8c1,1.4,1.6,3,1.6,4.7v6.8L27.6,25.4z
		 M19.7,27.7c0,0.6-0.2,1.2-0.7,1.6c-0.4,0.4-1,0.7-1.6,0.7s-1.2-0.2-1.6-0.7c-0.4-0.4-0.7-1-0.7-1.6H19.7z"/>
</g>
</svg>
