<?xml version="1.0" encoding="utf-8"?>
<!-- Generator: Adobe Illustrator 23.0.3, SVG Export Plug-In . SVG Version: 6.00 Build 0)  -->
<svg version="1.1" id="Layer_1" xmlns="http://www.w3.org/2000/svg" xmlns:xlink="http://www.w3.org/1999/xlink" x="0px" y="0px"
	 viewBox="0 0 36 36" style="enable-background:new 0 0 36 36;" xml:space="preserve">
<style type="text/css">
	.st0{display:none;}
	.st1{display:inline;fill:#2B2B2B;}
	.st2{fill:#2B2B2B;}
</style>
<g class="st0">
	<path class="st1" d="M11,11.3L22.2,0.1v35.8L11,24.8H2V11.5h9V11.3z M30.9,23.4c-1,1.6-2.4,2.8-4.2,3.6V9.1c1.8,0.8,3.2,2,4.2,3.6
		s1.6,3.4,1.6,5.4C32.3,20,31.9,21.8,30.9,23.4z"/>
</g>
<g>
	<path class="st2" d="M33.6,29.1v1.8H2.8v-1.8l3.4-3.4V15.4c0-2.7,0.8-5.1,2.4-7.2c1.6-2.1,3.6-3.5,6.1-4.3V3.4c0-0.9,0.3-1.7,1-2.4
		c0.7-0.7,1.5-1,2.4-1s1.8,0.3,2.4,1c0.7,0.7,1,1.5,1,2.4V4c2.5,0.7,4.6,2.2,6.1,4.3c1.6,2.1,2.4,4.5,2.4,7.2v10.3L33.6,29.1z
		 M21.6,32.5c0,1-0.3,1.8-1,2.4c-0.7,0.7-1.5,1-2.4,1s-1.8-0.3-2.4-1c-0.7-0.7-1-1.5-1-2.4H21.6z"/>
</g>
</svg>
